<?xml version="1.0" encoding="utf-8" standalone="no"?>
<!DOCTYPE svg PUBLIC "-//W3C//DTD SVG 1.1//EN"
  "http://www.w3.org/Graphics/SVG/1.1/DTD/svg11.dtd">
<!-- Created with matplotlib (http://matplotlib.org/) -->
<svg height="432pt" version="1.1" viewBox="0 0 576 432" width="576pt" xmlns="http://www.w3.org/2000/svg" xmlns:xlink="http://www.w3.org/1999/xlink">
 <defs>
  <style type="text/css">
*{stroke-linecap:butt;stroke-linejoin:round;stroke-miterlimit:100000;}
  </style>
 </defs>
 <g id="figure_1">
  <g id="patch_1">
   <path d="M 0 432 
L 576 432 
L 576 0 
L 0 0 
z
" style="fill:#ffffff;"/>
  </g>
  <g id="axes_1">
   <g id="patch_2">
    <path d="M 54.525 384.9 
L 420.36 384.9 
L 420.36 7.678218 
L 54.525 7.678218 
z
" style="fill:#ffffff;"/>
   </g>
   <g id="line2d_1">
    <defs>
     <path d="M 0 1.5 
C 0.397805 1.5 0.77937 1.341951 1.06066 1.06066 
C 1.341951 0.77937 1.5 0.397805 1.5 0 
C 1.5 -0.397805 1.341951 -0.77937 1.06066 -1.06066 
C 0.77937 -1.341951 0.397805 -1.5 0 -1.5 
C -0.397805 -1.5 -0.77937 -1.341951 -1.06066 -1.06066 
C -1.341951 -0.77937 -1.5 -0.397805 -1.5 0 
C -1.5 0.397805 -1.341951 0.77937 -1.06066 1.06066 
C -0.77937 1.341951 -0.397805 1.5 0 1.5 
z
" id="m3b2ad3ae85" style="stroke:#000080;stroke-width:0.5;"/>
    </defs>
    <g>
     <use style="fill:#000080;stroke:#000080;stroke-width:0.5;" x="212.22889124263634" xlink:href="#m3b2ad3ae85" y="11.413086952259562"/>
     <use style="fill:#000080;stroke:#000080;stroke-width:0.5;" x="212.22889124263634" xlink:href="#m3b2ad3ae85" y="11.413086952259562"/>
    </g>
   </g>
   <g id="line2d_2">
    <path d="M -1 381.238364 
L 27.198236 381.238364 
L 27.198236 380.506036 
L 91.280514 380.506036 
L 91.280514 379.773709 
L 92.162068 379.773709 
L 92.162068 379.041382 
L 104.269311 379.041382 
L 104.269311 378.309054 
L 104.894617 378.309054 
L 104.894617 377.576727 
L 107.458044 377.576727 
L 107.458044 376.8444 
L 119.293446 376.8444 
L 119.293446 376.112073 
L 126.657797 376.112073 
L 126.657797 375.379745 
L 127.447747 375.379745 
L 127.447747 373.915091 
L 127.94462 373.915091 
L 127.94462 373.182764 
L 132.209042 373.182764 
L 132.209042 372.450436 
L 134.927592 372.450436 
L 134.927592 371.718109 
L 136.049063 371.718109 
L 136.049063 370.985782 
L 136.173773 370.985782 
L 136.173773 370.253454 
L 137.822476 370.253454 
L 137.822476 369.521127 
L 138.223699 369.521127 
L 138.223699 368.056473 
L 138.784844 368.056473 
L 138.784844 367.324145 
L 142.602064 367.324145 
L 142.602064 366.591818 
L 142.835097 366.591818 
L 142.835097 365.859491 
L 145.06361 365.859491 
L 145.06361 365.127163 
L 145.231118 365.127163 
L 145.231118 364.394836 
L 145.807846 364.394836 
L 145.807846 363.662509 
L 146.449505 363.662509 
L 146.449505 362.197854 
L 146.587482 362.197854 
L 146.587482 361.465527 
L 146.899743 361.465527 
L 146.899743 360.7332 
L 147.188638 360.7332 
L 147.188638 360.000872 
L 149.566622 360.000872 
L 149.566622 359.268545 
L 149.738311 359.268545 
L 149.738311 357.803891 
L 149.891728 357.803891 
L 149.891728 356.339236 
L 150.111516 356.339236 
L 150.111516 355.606909 
L 150.643635 355.606909 
L 150.643635 354.874582 
L 152.47428 354.874582 
L 152.47428 354.142254 
L 153.424463 354.142254 
L 153.424463 353.409927 
L 154.902023 353.409927 
L 154.942858 351.212945 
L 156.353237 351.212945 
L 156.353237 349.015963 
L 156.657901 349.015963 
L 156.657901 347.551309 
L 156.833752 347.551309 
L 156.833752 346.818981 
L 157.717212 346.818981 
L 157.717212 346.086654 
L 158.625456 346.086654 
L 158.660117 343.889672 
L 158.912693 343.889672 
L 158.924107 340.960363 
L 159.852019 340.960363 
L 159.852019 340.228036 
L 160.785572 340.228036 
L 160.785572 338.763381 
L 161.387269 338.763381 
L 161.387269 338.031054 
L 162.42778 338.031054 
L 162.42778 336.566399 
L 163.710984 336.566399 
L 163.710984 335.834072 
L 164.195574 335.834072 
L 164.195574 335.101745 
L 164.616816 335.101745 
L 164.616816 334.369418 
L 165.522038 334.369418 
L 165.590198 331.440109 
L 165.8524 331.440109 
L 165.8524 330.707781 
L 165.978193 330.707781 
L 165.978193 329.975454 
L 166.392537 329.975454 
L 166.392537 329.243127 
L 166.863888 329.243127 
L 166.863888 328.510799 
L 167.654259 328.510799 
L 167.654259 327.778472 
L 167.855325 327.778472 
L 167.924512 325.58149 
L 168.893693 325.58149 
L 168.893693 324.849163 
L 169.681541 324.849163 
L 169.681541 323.384508 
L 170.159542 323.384508 
L 170.159542 321.187527 
L 170.552606 321.187527 
L 170.552606 320.455199 
L 170.925533 320.455199 
L 170.925533 319.722872 
L 171.192954 319.722872 
L 171.279192 318.258217 
L 171.860951 318.258217 
L 171.860951 316.793563 
L 172.060135 316.793563 
L 172.060135 316.061236 
L 172.584985 316.061236 
L 172.584985 314.596581 
L 173.128507 314.596581 
L 173.189456 312.399599 
L 174.996364 312.399599 
L 174.996364 311.667272 
L 175.44715 311.667272 
L 175.524164 305.808654 
L 175.835051 305.808654 
L 175.835051 305.076326 
L 176.10965 305.076326 
L 176.10965 304.343999 
L 176.26964 304.343999 
L 176.32272 302.147017 
L 176.486485 302.147017 
L 176.486485 301.41469 
L 176.628162 301.41469 
L 176.628162 300.682363 
L 176.862343 300.682363 
L 176.862343 299.950035 
L 177.042828 299.950035 
L 177.042828 299.217708 
L 177.510513 299.217708 
L 177.510513 297.753054 
L 177.760705 297.753054 
L 177.765681 294.823745 
L 178.23835 294.823745 
L 178.23835 294.091417 
L 178.653583 294.091417 
L 178.687049 292.626763 
L 179.336929 292.626763 
L 179.336929 291.894435 
L 179.544886 291.894435 
L 179.618369 288.965126 
L 180.278138 288.965126 
L 180.278138 287.500472 
L 180.424643 287.500472 
L 180.424643 286.035817 
L 180.836852 286.035817 
L 180.836852 285.30349 
L 180.966848 285.30349 
L 180.966848 284.571163 
L 181.121866 284.571163 
L 181.121866 283.838835 
L 181.466833 283.838835 
L 181.466833 281.641853 
L 181.664622 281.641853 
L 181.673001 280.177199 
L 181.8108 280.177199 
L 181.8108 278.712544 
L 182.116797 278.712544 
L 182.116797 277.980217 
L 182.447076 277.980217 
L 182.483479 275.783235 
L 182.808504 275.783235 
L 182.808504 275.050908 
L 183.211282 275.050908 
L 183.211282 274.318581 
L 183.491354 274.318581 
L 183.591647 272.121599 
L 183.656985 272.121599 
L 183.656985 271.389272 
L 184.003571 271.389272 
L 184.026238 269.924617 
L 184.519268 269.924617 
L 184.519268 268.459962 
L 185.174775 268.459962 
L 185.221392 265.530653 
L 185.374909 265.530653 
L 185.374909 264.798326 
L 185.541526 264.798326 
L 185.64021 263.333671 
L 185.657787 263.333671 
L 185.657787 262.601344 
L 185.975333 262.601344 
L 185.975333 261.869017 
L 186.244023 261.869017 
L 186.244023 261.13669 
L 186.414602 261.13669 
L 186.468918 258.939708 
L 186.915455 258.939708 
L 187.005043 256.742726 
L 187.110765 256.742726 
L 187.160153 254.545744 
L 187.271704 254.545744 
L 187.271704 253.813417 
L 187.451 253.813417 
L 187.451 251.616435 
L 187.590197 251.616435 
L 187.596651 250.15178 
L 187.986888 250.15178 
L 187.986888 248.687126 
L 188.747792 248.687126 
L 188.824332 247.222471 
L 189.191182 247.222471 
L 189.221236 245.757817 
L 189.489951 245.757817 
L 189.489951 245.025489 
L 189.658506 245.025489 
L 189.658506 243.560835 
L 189.817043 243.560835 
L 189.849202 241.363853 
L 190.081727 241.363853 
L 190.174074 237.702217 
L 190.380492 237.702217 
L 190.42326 236.237562 
L 190.494362 236.237562 
L 190.494362 234.772908 
L 190.742884 234.772908 
L 190.83818 231.843598 
L 190.997048 231.843598 
L 191.088519 229.646617 
L 191.226412 229.646617 
L 191.226412 228.914289 
L 191.349804 228.914289 
L 191.44259 226.717307 
L 191.748271 226.717307 
L 191.748271 225.98498 
L 191.863519 225.98498 
L 191.863519 224.520326 
L 192.137223 224.520326 
L 192.245261 222.323344 
L 192.316128 222.323344 
L 192.412884 220.858689 
L 192.574097 220.858689 
L 192.615516 219.394035 
L 192.806098 219.394035 
L 192.872681 217.92938 
L 193.000179 217.92938 
L 193.03575 213.535416 
L 193.383433 213.535416 
L 193.485712 212.070762 
L 193.634562 212.070762 
L 193.733256 209.141453 
L 193.985436 209.141453 
L 193.985436 207.676798 
L 194.244475 207.676798 
L 194.302174 204.015162 
L 194.443396 204.015162 
L 194.548145 201.81818 
L 194.683128 201.81818 
L 194.744433 200.353525 
L 194.887618 200.353525 
L 194.969368 198.156543 
L 195.104194 198.156543 
L 195.104194 197.424216 
L 195.410372 197.424216 
L 195.410372 195.227234 
L 195.547158 195.227234 
L 195.619774 193.76258 
L 195.793561 193.76258 
L 195.85867 192.297925 
L 195.919121 192.297925 
L 195.919121 191.565598 
L 196.137194 191.565598 
L 196.212365 189.368616 
L 196.440766 189.368616 
L 196.521472 187.171634 
L 196.671218 187.171634 
L 196.714438 184.974652 
L 196.798482 184.974652 
L 196.798482 184.242325 
L 196.937867 184.242325 
L 196.937867 183.509998 
L 197.116736 183.509998 
L 197.116736 182.777671 
L 197.401284 182.777671 
L 197.401284 181.313016 
L 197.572396 181.313016 
L 197.572396 180.580689 
L 197.93536 180.580689 
L 198.01501 176.919052 
L 198.076089 176.919052 
L 198.153222 174.722071 
L 198.324811 174.722071 
L 198.427146 172.525089 
L 198.521047 172.525089 
L 198.606618 171.060434 
L 198.764967 171.060434 
L 198.867304 168.131125 
L 199.078387 168.131125 
L 199.105607 165.201816 
L 199.341433 165.201816 
L 199.341433 164.469489 
L 199.523387 164.469489 
L 199.588154 162.272507 
L 199.639456 162.272507 
L 199.639456 161.540179 
L 199.862312 161.540179 
L 199.939236 160.075525 
L 199.974795 160.075525 
L 200.083002 154.216907 
L 200.408229 154.216907 
L 200.51622 152.019925 
L 200.587322 152.019925 
L 200.587322 151.287598 
L 200.701711 151.287598 
L 200.708955 149.090616 
L 201.125165 149.090616 
L 201.180205 147.625961 
L 201.252797 147.625961 
L 201.348052 143.231997 
L 201.43765 143.231997 
L 201.491939 138.105706 
L 201.570515 138.105706 
L 201.570515 137.373379 
L 201.756266 137.373379 
L 201.756266 135.176397 
L 201.899314 135.176397 
L 201.899314 134.44407 
L 202.078997 134.44407 
L 202.126673 130.050106 
L 202.331557 130.050106 
L 202.375341 126.38847 
L 202.632962 126.38847 
L 202.652914 122.726834 
L 202.820153 122.726834 
L 202.902491 120.529852 
L 202.97634 120.529852 
L 202.97634 119.065197 
L 203.167231 119.065197 
L 203.167231 118.33287 
L 203.351696 118.33287 
L 203.424101 116.868215 
L 203.929279 116.868215 
L 204.032734 114.671234 
L 204.04993 114.671234 
L 204.088965 113.206579 
L 204.183929 113.206579 
L 204.188589 111.009597 
L 204.329494 111.009597 
L 204.374214 108.080288 
L 204.614803 108.080288 
L 204.710633 105.150979 
L 204.787914 105.150979 
L 204.895065 102.22167 
L 205.013699 102.22167 
L 205.013699 101.489342 
L 205.140653 101.489342 
L 205.225391 96.363051 
L 205.284668 96.363051 
L 205.284668 95.630724 
L 205.470385 95.630724 
L 205.50852 93.433742 
L 205.674971 93.433742 
L 205.753392 89.772106 
L 205.969819 89.772106 
L 206.040073 88.307451 
L 206.150035 88.307451 
L 206.150035 86.842797 
L 206.374017 86.842797 
L 206.469739 82.448833 
L 206.516047 82.448833 
L 206.611172 80.984179 
L 206.643257 80.984179 
L 206.661371 79.519524 
L 206.786387 79.519524 
L 206.862447 76.590215 
L 206.910717 76.590215 
L 206.910717 75.12556 
L 207.03163 75.12556 
L 207.13963 71.463924 
L 207.149175 71.463924 
L 207.151902 69.266942 
L 207.436365 69.266942 
L 207.488803 67.06996 
L 207.835332 67.06996 
L 207.927731 64.140651 
L 208.021067 64.140651 
L 208.069556 59.01436 
L 208.227407 59.01436 
L 208.333759 56.817378 
L 208.399655 56.817378 
L 208.4615 54.620397 
L 208.640925 54.620397 
L 208.649859 53.155742 
L 208.766954 53.155742 
L 208.802471 50.226433 
L 208.889761 50.226433 
L 208.956582 45.832469 
L 209.119655 45.832469 
L 209.119655 45.100142 
L 209.256731 45.100142 
L 209.355905 42.90316 
L 209.453416 42.90316 
L 209.535788 38.509196 
L 209.584823 38.509196 
L 209.661839 37.044542 
L 209.842956 37.044542 
L 209.945633 31.918251 
L 209.964909 31.918251 
L 209.993792 29.721269 
L 210.110154 29.721269 
L 210.206867 26.059633 
L 210.258042 26.059633 
L 210.258042 25.327305 
L 210.412058 25.327305 
L 210.49103 20.201014 
L 210.757728 20.201014 
L 210.865619 18.73636 
L 211.056934 18.73636 
L 211.116533 17.271705 
L 211.37376 17.271705 
L 211.481022 14.342396 
L 211.598988 14.342396 
L 211.634818 12.877742 
L 212.228891 12.877742 
L 212.228891 11.413087 
L 420.36 11.413087 
L 420.36 11.413087 
" style="fill:none;stroke:#000080;stroke-linecap:square;stroke-width:1.5;"/>
   </g>
   <g id="line2d_3">
    <defs>
     <path d="M 0 6 
C 1.591219 6 3.117479 5.367802 4.242641 4.242641 
C 5.367802 3.117479 6 1.591219 6 0 
C 6 -1.591219 5.367802 -3.117479 4.242641 -4.242641 
C 3.117479 -5.367802 1.591219 -6 0 -6 
C -1.591219 -6 -3.117479 -5.367802 -4.242641 -4.242641 
C -5.367802 -3.117479 -6 -1.591219 -6 0 
C -6 1.591219 -5.367802 3.117479 -4.242641 4.242641 
C -3.117479 5.367802 -1.591219 6 0 6 
z
" id="m1d0927c28c" style="stroke:#000080;stroke-width:1.5;"/>
    </defs>
    <g>
     <use style="fill:none;stroke:#000080;stroke-width:1.5;" x="169.681541359559" xlink:href="#m1d0927c28c" y="324.8491630001672"/>
     <use style="fill:none;stroke:#000080;stroke-width:1.5;" x="197.97011346948142" xlink:href="#m1d0927c28c" y="178.3837069030141"/>
     <use style="fill:none;stroke:#000080;stroke-width:1.5;" x="211.47876915796618" xlink:href="#m1d0927c28c" y="16.539377915659884"/>
     <use style="fill:none;stroke:#000080;stroke-width:1.5;" x="212.22889124263634" xlink:href="#m1d0927c28c" y="11.413086952259562"/>
     <use style="fill:none;stroke:#000080;stroke-width:1.5;" x="212.22889124263634" xlink:href="#m1d0927c28c" y="11.413086952259562"/>
     <use style="fill:none;stroke:#000080;stroke-width:1.5;" x="420.3599999999999" xlink:href="#m1d0927c28c" y="11.413086952259562"/>
    </g>
   </g>
   <g id="line2d_4">
    <path d="M -15676.38 758.386913 
" style="fill:none;stroke:#000080;stroke-linecap:square;stroke-width:1.5;"/>
    <g>
     <use style="fill:none;stroke:#000080;stroke-width:1.5;" x="-15676.379999999994" xlink:href="#m1d0927c28c" y="758.3869130477403"/>
    </g>
   </g>
   <g id="line2d_5">
    <defs>
     <path d="M 0 1.5 
C 0.397805 1.5 0.77937 1.341951 1.06066 1.06066 
C 1.341951 0.77937 1.5 0.397805 1.5 0 
C 1.5 -0.397805 1.341951 -0.77937 1.06066 -1.06066 
C 0.77937 -1.341951 0.397805 -1.5 0 -1.5 
C -0.397805 -1.5 -0.77937 -1.341951 -1.06066 -1.06066 
C -1.341951 -0.77937 -1.5 -0.397805 -1.5 0 
C -1.5 0.397805 -1.341951 0.77937 -1.06066 1.06066 
C -0.77937 1.341951 -0.397805 1.5 0 1.5 
z
" id="m64342560f3" style="stroke:#ff00ff;stroke-width:0.5;"/>
    </defs>
    <g>
     <use style="fill:#ff00ff;stroke:#ff00ff;stroke-width:0.5;" x="218.66781492033732" xlink:href="#m64342560f3" y="11.413086952259562"/>
     <use style="fill:#ff00ff;stroke:#ff00ff;stroke-width:0.5;" x="218.66781492033732" xlink:href="#m64342560f3" y="11.413086952259562"/>
    </g>
   </g>
   <g id="line2d_6">
    <path d="M 187.964677 384.9 
L 187.964677 384.167673 
L 187.964677 384.167673 
L 187.964677 384.167673 
L 188.040736 384.167673 
L 188.125999 381.238364 
L 188.646363 381.238364 
L 188.646363 380.506036 
L 189.031225 380.506036 
L 189.031225 379.773709 
L 189.25425 379.773709 
L 189.25425 378.309054 
L 189.534429 378.309054 
L 189.534429 377.576727 
L 189.88715 377.576727 
L 189.898814 374.647418 
L 190.032515 374.647418 
L 190.032515 373.915091 
L 190.174074 373.915091 
L 190.251701 371.718109 
L 190.391905 371.718109 
L 190.485842 368.7888 
L 190.92472 368.7888 
L 190.980377 365.127163 
L 191.24565 365.127163 
L 191.300527 362.930182 
L 191.507859 362.930182 
L 191.575648 358.536218 
L 191.753645 358.536218 
L 191.753645 357.803891 
L 192.271534 357.803891 
L 192.271534 357.071563 
L 192.597404 357.071563 
L 192.628443 354.874582 
L 192.916111 354.874582 
L 192.916111 354.142254 
L 193.096601 354.142254 
L 193.149711 350.480618 
L 193.602394 350.480618 
L 193.602394 349.015963 
L 193.713552 349.015963 
L 193.713552 347.551309 
L 193.907389 347.551309 
L 193.973259 343.889672 
L 194.261319 343.889672 
L 194.29497 341.69269 
L 194.405185 341.69269 
L 194.405185 340.960363 
L 194.517247 340.960363 
L 194.557644 339.495709 
L 194.702008 339.495709 
L 194.791479 335.834072 
L 194.814965 335.834072 
L 194.824353 334.369418 
L 195.145874 334.369418 
L 195.145874 333.63709 
L 195.293453 333.63709 
L 195.39436 332.172436 
L 195.517591 332.172436 
L 195.517591 331.440109 
L 195.633364 331.440109 
L 195.633364 330.707781 
L 195.887796 330.707781 
L 195.963796 329.243127 
L 196.103951 329.243127 
L 196.117254 327.046145 
L 196.536709 327.046145 
L 196.614908 324.849163 
L 196.73386 324.849163 
L 196.776962 322.652181 
L 196.946416 322.652181 
L 196.946416 321.187527 
L 197.152765 321.187527 
L 197.152765 320.455199 
L 197.315243 320.455199 
L 197.409661 317.52589 
L 197.676102 317.52589 
L 197.779337 314.596581 
L 197.838999 314.596581 
L 197.925128 309.47029 
L 198.027239 309.47029 
L 198.059818 308.005636 
L 198.153222 308.005636 
L 198.153222 307.273308 
L 198.491121 307.273308 
L 198.513071 304.343999 
L 198.699782 304.343999 
L 198.699782 303.611672 
L 198.947669 303.611672 
L 198.982861 299.950035 
L 199.289453 299.950035 
L 199.366419 297.020726 
L 199.628066 297.020726 
L 199.724702 293.35909 
L 199.856674 293.35909 
L 199.944854 287.500472 
L 200.092306 287.500472 
L 200.190695 284.571163 
L 200.251741 284.571163 
L 200.251741 283.838835 
L 200.452219 283.838835 
L 200.452219 283.106508 
L 200.563646 283.106508 
L 200.672715 280.909526 
L 200.734288 280.909526 
L 200.815527 279.444872 
L 201.030753 279.444872 
L 201.123387 272.853926 
L 201.307529 272.853926 
L 201.406067 270.656944 
L 201.530388 270.656944 
L 201.612311 268.459962 
L 201.866648 268.459962 
L 201.866648 267.727635 
L 202.174249 267.727635 
L 202.270793 264.798326 
L 202.4526 264.798326 
L 202.4526 262.601344 
L 202.593005 262.601344 
L 202.642941 260.404362 
L 202.732548 260.404362 
L 202.838293 256.742726 
L 202.946829 256.742726 
L 202.977978 255.278071 
L 203.059746 255.278071 
L 203.059746 254.545744 
L 203.185096 254.545744 
L 203.272592 252.348762 
L 203.369416 252.348762 
L 203.369416 251.616435 
L 203.513883 251.616435 
L 203.545862 250.15178 
L 203.736796 250.15178 
L 203.736796 247.954799 
L 203.896263 247.954799 
L 203.990468 246.490144 
L 204.026477 246.490144 
L 204.026477 245.757817 
L 204.183929 245.757817 
L 204.214979 242.09618 
L 204.329494 242.09618 
L 204.42807 237.702217 
L 204.486398 237.702217 
L 204.555277 236.237562 
L 204.801525 236.237562 
L 204.813616 233.308253 
L 204.986723 233.308253 
L 204.986723 231.843598 
L 205.220939 231.843598 
L 205.249121 230.378944 
L 205.336409 230.378944 
L 205.355597 228.181962 
L 205.49386 228.181962 
L 205.49386 227.449635 
L 205.634201 227.449635 
L 205.634201 226.717307 
L 205.843099 226.717307 
L 205.928137 220.126362 
L 205.959764 220.126362 
L 206.02432 217.92938 
L 206.297715 217.92938 
L 206.350024 215.732398 
L 206.419113 215.732398 
L 206.434594 214.267744 
L 206.539865 214.267744 
L 206.629312 210.606107 
L 206.73924 210.606107 
L 206.836201 207.676798 
L 206.938254 207.676798 
L 206.964383 205.479816 
L 207.054914 205.479816 
L 207.119163 204.015162 
L 207.172339 204.015162 
L 207.268827 201.085853 
L 207.360856 201.085853 
L 207.418858 198.888871 
L 207.476713 198.888871 
L 207.476713 197.424216 
L 207.617369 197.424216 
L 207.718637 194.494907 
L 207.754505 194.494907 
L 207.771754 193.030253 
L 207.97379 193.030253 
L 208.078718 190.833271 
L 208.325994 190.833271 
L 208.375128 188.636289 
L 208.593643 188.636289 
L 208.621769 184.974652 
L 208.733923 184.974652 
L 208.797401 181.313016 
L 208.979232 181.313016 
L 208.986776 179.116034 
L 209.112155 179.116034 
L 209.182065 176.919052 
L 209.230626 176.919052 
L 209.341056 174.722071 
L 209.464498 174.722071 
L 209.475575 172.525089 
L 209.603184 172.525089 
L 209.66306 169.59578 
L 209.730079 169.59578 
L 209.784767 166.66647 
L 209.875621 166.66647 
L 209.942017 164.469489 
L 209.990184 164.469489 
L 210.10058 161.540179 
L 210.140048 161.540179 
L 210.177062 160.075525 
L 210.291303 160.075525 
L 210.300797 157.878543 
L 210.486323 157.878543 
L 210.584965 153.484579 
L 210.684348 153.484579 
L 210.782135 150.55527 
L 210.913022 150.55527 
L 211.01903 148.358288 
L 211.045454 148.358288 
L 211.058081 146.161307 
L 211.20108 146.161307 
L 211.271674 143.964325 
L 211.356778 143.964325 
L 211.394122 140.302688 
L 211.501288 140.302688 
L 211.598988 135.908725 
L 211.612431 135.908725 
L 211.721917 133.711743 
L 211.740856 133.711743 
L 211.837532 130.050106 
L 211.870774 130.050106 
L 211.930485 128.585452 
L 212.014259 128.585452 
L 212.079082 127.120797 
L 212.244145 127.120797 
L 212.350633 123.459161 
L 212.365805 123.459161 
L 212.365805 122.726834 
L 212.51374 122.726834 
L 212.621116 119.797524 
L 212.688503 119.797524 
L 212.688503 119.065197 
L 212.816309 119.065197 
L 212.875706 116.135888 
L 212.928609 116.135888 
L 212.997198 112.474252 
L 213.042458 112.474252 
L 213.108608 110.27727 
L 213.229905 110.27727 
L 213.287191 107.347961 
L 213.356781 107.347961 
L 213.40754 103.686324 
L 213.46954 103.686324 
L 213.558112 100.757015 
L 213.584822 100.757015 
L 213.676015 97.827706 
L 213.820758 97.827706 
L 213.858322 96.363051 
L 213.952466 96.363051 
L 213.952466 95.630724 
L 214.143596 95.630724 
L 214.147603 91.236761 
L 214.348027 91.236761 
L 214.446097 89.039779 
L 214.466845 89.039779 
L 214.551617 85.378142 
L 214.607629 85.378142 
L 214.717287 80.984179 
L 214.798211 80.984179 
L 214.897266 79.519524 
L 214.987206 79.519524 
L 215.059479 75.12556 
L 215.113293 75.12556 
L 215.208118 72.196251 
L 215.299693 72.196251 
L 215.345342 67.802288 
L 215.423115 67.802288 
L 215.500621 63.408324 
L 215.539276 63.408324 
L 215.539276 62.675997 
L 215.667026 62.675997 
L 215.673582 60.479015 
L 215.830359 60.479015 
L 215.931501 56.817378 
L 215.94446 56.817378 
L 215.997142 52.423415 
L 216.124183 52.423415 
L 216.133362 49.494106 
L 216.267857 49.494106 
L 216.347083 47.297124 
L 216.408814 47.297124 
L 216.484839 45.100142 
L 216.522757 45.100142 
L 216.522757 43.635487 
L 216.659454 43.635487 
L 216.731071 42.170833 
L 216.823837 42.170833 
L 216.88695 38.509196 
L 216.936606 38.509196 
L 217.040883 34.84756 
L 217.093723 34.84756 
L 217.190277 29.721269 
L 217.227909 29.721269 
L 217.30473 26.059633 
L 217.518112 26.059633 
L 217.558652 23.130323 
L 217.760276 23.130323 
L 217.857444 20.933342 
L 217.910116 20.933342 
L 217.932167 18.004032 
L 218.112861 18.004032 
L 218.220255 15.807051 
L 218.249533 15.807051 
L 218.249533 13.610069 
L 218.597125 13.610069 
L 218.667815 11.413087 
L 420.36 11.413087 
L 420.36 11.413087 
" style="fill:none;stroke:#ff00ff;stroke-linecap:square;stroke-width:1.5;"/>
   </g>
   <g id="line2d_7">
    <defs>
     <path d="M -0 8.485281 
L 5.091169 0 
L 0 -8.485281 
L -5.091169 -0 
z
" id="mac66c7e0d1" style="stroke:#ff00ff;stroke-linejoin:miter;stroke-width:1.5;"/>
    </defs>
    <g>
     <use style="fill:none;stroke:#ff00ff;stroke-linejoin:miter;stroke-width:1.5;" x="218.24953293722714" xlink:href="#mac66c7e0d1" y="13.610068793716835"/>
     <use style="fill:none;stroke:#ff00ff;stroke-linejoin:miter;stroke-width:1.5;" x="218.66781492033732" xlink:href="#mac66c7e0d1" y="11.413086952259562"/>
     <use style="fill:none;stroke:#ff00ff;stroke-linejoin:miter;stroke-width:1.5;" x="218.66781492033732" xlink:href="#mac66c7e0d1" y="11.413086952259562"/>
     <use style="fill:none;stroke:#ff00ff;stroke-linejoin:miter;stroke-width:1.5;" x="420.3599999999999" xlink:href="#mac66c7e0d1" y="11.413086952259562"/>
    </g>
   </g>
   <g id="line2d_8">
    <path d="M -15676.38 758.386913 
" style="fill:none;stroke:#ff00ff;stroke-linecap:square;stroke-width:1.5;"/>
    <g>
     <use style="fill:none;stroke:#ff00ff;stroke-linejoin:miter;stroke-width:1.5;" x="-15676.379999999994" xlink:href="#mac66c7e0d1" y="758.3869130477403"/>
    </g>
   </g>
   <g id="line2d_9">
    <path d="M 420.36 11.413087 
L 460.60185 377.430262 
" style="fill:none;stroke:#ff00ff;stroke-linecap:square;stroke-width:1.5;"/>
    <g>
     <use style="fill:none;stroke:#ff00ff;stroke-linejoin:miter;stroke-width:1.5;" x="420.3599999999999" xlink:href="#mac66c7e0d1" y="11.413086952259562"/>
     <use style="fill:none;stroke:#ff00ff;stroke-linejoin:miter;stroke-width:1.5;" x="460.60184999999996" xlink:href="#mac66c7e0d1" y="377.4302617390452"/>
    </g>
   </g>
   <g id="line2d_10">
    <path d="M 420.36 11.413087 
L 460.60185 18.882825 
" style="fill:none;stroke:#000080;stroke-linecap:square;stroke-width:1.5;"/>
    <g>
     <use style="fill:none;stroke:#000080;stroke-width:1.5;" x="420.3599999999999" xlink:href="#m1d0927c28c" y="11.413086952259562"/>
     <use style="fill:none;stroke:#000080;stroke-width:1.5;" x="460.60184999999996" xlink:href="#m1d0927c28c" y="18.882825213214403"/>
    </g>
   </g>
   <g id="line2d_11">
    <path d="M 420.36 384.9 
L 420.36 11.413087 
" style="fill:none;stroke:#000000;stroke-linecap:square;"/>
   </g>
   <g id="patch_3">
    <path d="M 54.525 384.9 
L 420.36 384.9 
" style="fill:none;stroke:#000000;stroke-linecap:square;stroke-linejoin:miter;"/>
   </g>
   <g id="patch_4">
    <path d="M 420.36 384.9 
L 420.36 7.678218 
" style="fill:none;stroke:#000000;stroke-linecap:square;stroke-linejoin:miter;"/>
   </g>
   <g id="patch_5">
    <path d="M 54.525 7.678218 
L 420.36 7.678218 
" style="fill:none;stroke:#000000;stroke-linecap:square;stroke-linejoin:miter;"/>
   </g>
   <g id="patch_6">
    <path d="M 54.525 384.9 
L 54.525 7.678218 
" style="fill:none;stroke:#000000;stroke-linecap:square;stroke-linejoin:miter;"/>
   </g>
   <g id="matplotlib.axis_1">
    <g id="xtick_1">
     <g id="line2d_12">
      <path clip-path="url(#pd12d2cdf91)" d="M 54.525 384.9 
L 54.525 7.678218 
" style="fill:none;stroke:#000000;stroke-dasharray:1.000000,3.000000;stroke-dashoffset:0.0;stroke-width:0.5;"/>
     </g>
     <g id="line2d_13">
      <defs>
       <path d="M 0 0 
L 0 -4 
" id="m3182800618" style="stroke:#000000;stroke-width:0.5;"/>
      </defs>
      <g>
       <use style="stroke:#000000;stroke-width:0.5;" x="54.52500000000001" xlink:href="#m3182800618" y="384.9"/>
      </g>
     </g>
     <g id="line2d_14">
      <defs>
       <path d="M 0 0 
L 0 4 
" id="m2a246d8074" style="stroke:#000000;stroke-width:0.5;"/>
      </defs>
      <g>
       <use style="stroke:#000000;stroke-width:0.5;" x="54.52500000000001" xlink:href="#m2a246d8074" y="7.678217821782141"/>
      </g>
     </g>
     <g id="text_1">
      <!-- 0 -->
      <defs>
       <path d="M 31.78125 66.40625 
Q 24.171875 66.40625 20.328125 58.90625 
Q 16.5 51.421875 16.5 36.375 
Q 16.5 21.390625 20.328125 13.890625 
Q 24.171875 6.390625 31.78125 6.390625 
Q 39.453125 6.390625 43.28125 13.890625 
Q 47.125 21.390625 47.125 36.375 
Q 47.125 51.421875 43.28125 58.90625 
Q 39.453125 66.40625 31.78125 66.40625 
M 31.78125 74.21875 
Q 44.046875 74.21875 50.515625 64.515625 
Q 56.984375 54.828125 56.984375 36.375 
Q 56.984375 17.96875 50.515625 8.265625 
Q 44.046875 -1.421875 31.78125 -1.421875 
Q 19.53125 -1.421875 13.0625 8.265625 
Q 6.59375 17.96875 6.59375 36.375 
Q 6.59375 54.828125 13.0625 64.515625 
Q 19.53125 74.21875 31.78125 74.21875 
" id="BitstreamVeraSans-Roman-30"/>
      </defs>
      <g transform="translate(48.16250000000001 404.09687499999995)scale(0.2 -0.2)">
       <use xlink:href="#BitstreamVeraSans-Roman-30"/>
      </g>
     </g>
    </g>
    <g id="xtick_2">
     <g id="line2d_15">
      <path clip-path="url(#pd12d2cdf91)" d="M 159.049286 384.9 
L 159.049286 7.678218 
" style="fill:none;stroke:#000000;stroke-dasharray:1.000000,3.000000;stroke-dashoffset:0.0;stroke-width:0.5;"/>
     </g>
     <g id="line2d_16">
      <g>
       <use style="stroke:#000000;stroke-width:0.5;" x="159.0492857142857" xlink:href="#m3182800618" y="384.9"/>
      </g>
     </g>
     <g id="line2d_17">
      <g>
       <use style="stroke:#000000;stroke-width:0.5;" x="159.0492857142857" xlink:href="#m2a246d8074" y="7.678217821782141"/>
      </g>
     </g>
     <g id="text_2">
      <!-- 2 -->
      <defs>
       <path d="M 19.1875 8.296875 
L 53.609375 8.296875 
L 53.609375 0 
L 7.328125 0 
L 7.328125 8.296875 
Q 12.9375 14.109375 22.625 23.890625 
Q 32.328125 33.6875 34.8125 36.53125 
Q 39.546875 41.84375 41.421875 45.53125 
Q 43.3125 49.21875 43.3125 52.78125 
Q 43.3125 58.59375 39.234375 62.25 
Q 35.15625 65.921875 28.609375 65.921875 
Q 23.96875 65.921875 18.8125 64.3125 
Q 13.671875 62.703125 7.8125 59.421875 
L 7.8125 69.390625 
Q 13.765625 71.78125 18.9375 73 
Q 24.125 74.21875 28.421875 74.21875 
Q 39.75 74.21875 46.484375 68.546875 
Q 53.21875 62.890625 53.21875 53.421875 
Q 53.21875 48.921875 51.53125 44.890625 
Q 49.859375 40.875 45.40625 35.40625 
Q 44.1875 33.984375 37.640625 27.21875 
Q 31.109375 20.453125 19.1875 8.296875 
" id="BitstreamVeraSans-Roman-32"/>
      </defs>
      <g transform="translate(152.6867857142857 404.09687499999995)scale(0.2 -0.2)">
       <use xlink:href="#BitstreamVeraSans-Roman-32"/>
      </g>
     </g>
    </g>
    <g id="xtick_3">
     <g id="line2d_18">
      <path clip-path="url(#pd12d2cdf91)" d="M 263.573571 384.9 
L 263.573571 7.678218 
" style="fill:none;stroke:#000000;stroke-dasharray:1.000000,3.000000;stroke-dashoffset:0.0;stroke-width:0.5;"/>
     </g>
     <g id="line2d_19">
      <g>
       <use style="stroke:#000000;stroke-width:0.5;" x="263.57357142857137" xlink:href="#m3182800618" y="384.9"/>
      </g>
     </g>
     <g id="line2d_20">
      <g>
       <use style="stroke:#000000;stroke-width:0.5;" x="263.57357142857137" xlink:href="#m2a246d8074" y="7.678217821782141"/>
      </g>
     </g>
     <g id="text_3">
      <!-- 4 -->
      <defs>
       <path d="M 37.796875 64.3125 
L 12.890625 25.390625 
L 37.796875 25.390625 
z
M 35.203125 72.90625 
L 47.609375 72.90625 
L 47.609375 25.390625 
L 58.015625 25.390625 
L 58.015625 17.1875 
L 47.609375 17.1875 
L 47.609375 0 
L 37.796875 0 
L 37.796875 17.1875 
L 4.890625 17.1875 
L 4.890625 26.703125 
z
" id="BitstreamVeraSans-Roman-34"/>
      </defs>
      <g transform="translate(257.21107142857136 404.09687499999995)scale(0.2 -0.2)">
       <use xlink:href="#BitstreamVeraSans-Roman-34"/>
      </g>
     </g>
    </g>
    <g id="xtick_4">
     <g id="line2d_21">
      <path clip-path="url(#pd12d2cdf91)" d="M 368.097857 384.9 
L 368.097857 7.678218 
" style="fill:none;stroke:#000000;stroke-dasharray:1.000000,3.000000;stroke-dashoffset:0.0;stroke-width:0.5;"/>
     </g>
     <g id="line2d_22">
      <g>
       <use style="stroke:#000000;stroke-width:0.5;" x="368.09785714285704" xlink:href="#m3182800618" y="384.9"/>
      </g>
     </g>
     <g id="line2d_23">
      <g>
       <use style="stroke:#000000;stroke-width:0.5;" x="368.09785714285704" xlink:href="#m2a246d8074" y="7.678217821782141"/>
      </g>
     </g>
     <g id="text_4">
      <!-- 6 -->
      <defs>
       <path d="M 33.015625 40.375 
Q 26.375 40.375 22.484375 35.828125 
Q 18.609375 31.296875 18.609375 23.390625 
Q 18.609375 15.53125 22.484375 10.953125 
Q 26.375 6.390625 33.015625 6.390625 
Q 39.65625 6.390625 43.53125 10.953125 
Q 47.40625 15.53125 47.40625 23.390625 
Q 47.40625 31.296875 43.53125 35.828125 
Q 39.65625 40.375 33.015625 40.375 
M 52.59375 71.296875 
L 52.59375 62.3125 
Q 48.875 64.0625 45.09375 64.984375 
Q 41.3125 65.921875 37.59375 65.921875 
Q 27.828125 65.921875 22.671875 59.328125 
Q 17.53125 52.734375 16.796875 39.40625 
Q 19.671875 43.65625 24.015625 45.921875 
Q 28.375 48.1875 33.59375 48.1875 
Q 44.578125 48.1875 50.953125 41.515625 
Q 57.328125 34.859375 57.328125 23.390625 
Q 57.328125 12.15625 50.6875 5.359375 
Q 44.046875 -1.421875 33.015625 -1.421875 
Q 20.359375 -1.421875 13.671875 8.265625 
Q 6.984375 17.96875 6.984375 36.375 
Q 6.984375 53.65625 15.1875 63.9375 
Q 23.390625 74.21875 37.203125 74.21875 
Q 40.921875 74.21875 44.703125 73.484375 
Q 48.484375 72.75 52.59375 71.296875 
" id="BitstreamVeraSans-Roman-36"/>
      </defs>
      <g transform="translate(361.735357142857 404.09687499999995)scale(0.2 -0.2)">
       <use xlink:href="#BitstreamVeraSans-Roman-36"/>
      </g>
     </g>
    </g>
    <g id="xtick_5">
     <g id="line2d_24">
      <path clip-path="url(#pd12d2cdf91)" d="M 54.525 384.9 
L 54.525 7.678218 
" style="fill:none;stroke:#000000;stroke-dasharray:1.000000,3.000000;stroke-dashoffset:0.0;stroke-width:0.5;"/>
     </g>
     <g id="line2d_25">
      <defs>
       <path d="M 0 0 
L 0 -2 
" id="m2858384e02" style="stroke:#000000;stroke-width:0.5;"/>
      </defs>
      <g>
       <use style="stroke:#000000;stroke-width:0.5;" x="54.52500000000001" xlink:href="#m2858384e02" y="384.9"/>
      </g>
     </g>
     <g id="line2d_26">
      <defs>
       <path d="M 0 0 
L 0 2 
" id="mdfdeaf81d5" style="stroke:#000000;stroke-width:0.5;"/>
      </defs>
      <g>
       <use style="stroke:#000000;stroke-width:0.5;" x="54.52500000000001" xlink:href="#mdfdeaf81d5" y="7.678217821782141"/>
      </g>
     </g>
    </g>
    <g id="xtick_6">
     <g id="line2d_27">
      <path clip-path="url(#pd12d2cdf91)" d="M 106.787143 384.9 
L 106.787143 7.678218 
" style="fill:none;stroke:#000000;stroke-dasharray:1.000000,3.000000;stroke-dashoffset:0.0;stroke-width:0.5;"/>
     </g>
     <g id="line2d_28">
      <g>
       <use style="stroke:#000000;stroke-width:0.5;" x="106.78714285714285" xlink:href="#m2858384e02" y="384.9"/>
      </g>
     </g>
     <g id="line2d_29">
      <g>
       <use style="stroke:#000000;stroke-width:0.5;" x="106.78714285714285" xlink:href="#mdfdeaf81d5" y="7.678217821782141"/>
      </g>
     </g>
    </g>
    <g id="xtick_7">
     <g id="line2d_30">
      <path clip-path="url(#pd12d2cdf91)" d="M 159.049286 384.9 
L 159.049286 7.678218 
" style="fill:none;stroke:#000000;stroke-dasharray:1.000000,3.000000;stroke-dashoffset:0.0;stroke-width:0.5;"/>
     </g>
     <g id="line2d_31">
      <g>
       <use style="stroke:#000000;stroke-width:0.5;" x="159.0492857142857" xlink:href="#m2858384e02" y="384.9"/>
      </g>
     </g>
     <g id="line2d_32">
      <g>
       <use style="stroke:#000000;stroke-width:0.5;" x="159.0492857142857" xlink:href="#mdfdeaf81d5" y="7.678217821782141"/>
      </g>
     </g>
    </g>
    <g id="xtick_8">
     <g id="line2d_33">
      <path clip-path="url(#pd12d2cdf91)" d="M 211.311429 384.9 
L 211.311429 7.678218 
" style="fill:none;stroke:#000000;stroke-dasharray:1.000000,3.000000;stroke-dashoffset:0.0;stroke-width:0.5;"/>
     </g>
     <g id="line2d_34">
      <g>
       <use style="stroke:#000000;stroke-width:0.5;" x="211.31142857142854" xlink:href="#m2858384e02" y="384.9"/>
      </g>
     </g>
     <g id="line2d_35">
      <g>
       <use style="stroke:#000000;stroke-width:0.5;" x="211.31142857142854" xlink:href="#mdfdeaf81d5" y="7.678217821782141"/>
      </g>
     </g>
    </g>
    <g id="xtick_9">
     <g id="line2d_36">
      <path clip-path="url(#pd12d2cdf91)" d="M 263.573571 384.9 
L 263.573571 7.678218 
" style="fill:none;stroke:#000000;stroke-dasharray:1.000000,3.000000;stroke-dashoffset:0.0;stroke-width:0.5;"/>
     </g>
     <g id="line2d_37">
      <g>
       <use style="stroke:#000000;stroke-width:0.5;" x="263.57357142857137" xlink:href="#m2858384e02" y="384.9"/>
      </g>
     </g>
     <g id="line2d_38">
      <g>
       <use style="stroke:#000000;stroke-width:0.5;" x="263.57357142857137" xlink:href="#mdfdeaf81d5" y="7.678217821782141"/>
      </g>
     </g>
    </g>
    <g id="xtick_10">
     <g id="line2d_39">
      <path clip-path="url(#pd12d2cdf91)" d="M 315.835714 384.9 
L 315.835714 7.678218 
" style="fill:none;stroke:#000000;stroke-dasharray:1.000000,3.000000;stroke-dashoffset:0.0;stroke-width:0.5;"/>
     </g>
     <g id="line2d_40">
      <g>
       <use style="stroke:#000000;stroke-width:0.5;" x="315.83571428571423" xlink:href="#m2858384e02" y="384.9"/>
      </g>
     </g>
     <g id="line2d_41">
      <g>
       <use style="stroke:#000000;stroke-width:0.5;" x="315.83571428571423" xlink:href="#mdfdeaf81d5" y="7.678217821782141"/>
      </g>
     </g>
    </g>
    <g id="xtick_11">
     <g id="line2d_42">
      <path clip-path="url(#pd12d2cdf91)" d="M 368.097857 384.9 
L 368.097857 7.678218 
" style="fill:none;stroke:#000000;stroke-dasharray:1.000000,3.000000;stroke-dashoffset:0.0;stroke-width:0.5;"/>
     </g>
     <g id="line2d_43">
      <g>
       <use style="stroke:#000000;stroke-width:0.5;" x="368.09785714285704" xlink:href="#m2858384e02" y="384.9"/>
      </g>
     </g>
     <g id="line2d_44">
      <g>
       <use style="stroke:#000000;stroke-width:0.5;" x="368.09785714285704" xlink:href="#mdfdeaf81d5" y="7.678217821782141"/>
      </g>
     </g>
    </g>
    <g id="xtick_12">
     <g id="line2d_45">
      <path clip-path="url(#pd12d2cdf91)" d="M 420.36 384.9 
L 420.36 7.678218 
" style="fill:none;stroke:#000000;stroke-dasharray:1.000000,3.000000;stroke-dashoffset:0.0;stroke-width:0.5;"/>
     </g>
     <g id="line2d_46">
      <g>
       <use style="stroke:#000000;stroke-width:0.5;" x="420.3599999999999" xlink:href="#m2858384e02" y="384.9"/>
      </g>
     </g>
     <g id="line2d_47">
      <g>
       <use style="stroke:#000000;stroke-width:0.5;" x="420.3599999999999" xlink:href="#mdfdeaf81d5" y="7.678217821782141"/>
      </g>
     </g>
    </g>
    <g id="text_5">
     <!-- log10(# f-evals / dimension) -->
     <defs>
      <path d="M 52 44.1875 
Q 55.375 50.25 60.0625 53.125 
Q 64.75 56 71.09375 56 
Q 79.640625 56 84.28125 50.015625 
Q 88.921875 44.046875 88.921875 33.015625 
L 88.921875 0 
L 79.890625 0 
L 79.890625 32.71875 
Q 79.890625 40.578125 77.09375 44.375 
Q 74.3125 48.1875 68.609375 48.1875 
Q 61.625 48.1875 57.5625 43.546875 
Q 53.515625 38.921875 53.515625 30.90625 
L 53.515625 0 
L 44.484375 0 
L 44.484375 32.71875 
Q 44.484375 40.625 41.703125 44.40625 
Q 38.921875 48.1875 33.109375 48.1875 
Q 26.21875 48.1875 22.15625 43.53125 
Q 18.109375 38.875 18.109375 30.90625 
L 18.109375 0 
L 9.078125 0 
L 9.078125 54.6875 
L 18.109375 54.6875 
L 18.109375 46.1875 
Q 21.1875 51.21875 25.484375 53.609375 
Q 29.78125 56 35.6875 56 
Q 41.65625 56 45.828125 52.96875 
Q 50 49.953125 52 44.1875 
" id="BitstreamVeraSans-Roman-6d"/>
      <path d="M 34.28125 27.484375 
Q 23.390625 27.484375 19.1875 25 
Q 14.984375 22.515625 14.984375 16.5 
Q 14.984375 11.71875 18.140625 8.90625 
Q 21.296875 6.109375 26.703125 6.109375 
Q 34.1875 6.109375 38.703125 11.40625 
Q 43.21875 16.703125 43.21875 25.484375 
L 43.21875 27.484375 
z
M 52.203125 31.203125 
L 52.203125 0 
L 43.21875 0 
L 43.21875 8.296875 
Q 40.140625 3.328125 35.546875 0.953125 
Q 30.953125 -1.421875 24.3125 -1.421875 
Q 15.921875 -1.421875 10.953125 3.296875 
Q 6 8.015625 6 15.921875 
Q 6 25.140625 12.171875 29.828125 
Q 18.359375 34.515625 30.609375 34.515625 
L 43.21875 34.515625 
L 43.21875 35.40625 
Q 43.21875 41.609375 39.140625 45 
Q 35.0625 48.390625 27.6875 48.390625 
Q 23 48.390625 18.546875 47.265625 
Q 14.109375 46.140625 10.015625 43.890625 
L 10.015625 52.203125 
Q 14.9375 54.109375 19.578125 55.046875 
Q 24.21875 56 28.609375 56 
Q 40.484375 56 46.34375 49.84375 
Q 52.203125 43.703125 52.203125 31.203125 
" id="BitstreamVeraSans-Roman-61"/>
      <path d="M 56.203125 29.59375 
L 56.203125 25.203125 
L 14.890625 25.203125 
Q 15.484375 15.921875 20.484375 11.0625 
Q 25.484375 6.203125 34.421875 6.203125 
Q 39.59375 6.203125 44.453125 7.46875 
Q 49.3125 8.734375 54.109375 11.28125 
L 54.109375 2.78125 
Q 49.265625 0.734375 44.1875 -0.34375 
Q 39.109375 -1.421875 33.890625 -1.421875 
Q 20.796875 -1.421875 13.15625 6.1875 
Q 5.515625 13.8125 5.515625 26.8125 
Q 5.515625 40.234375 12.765625 48.109375 
Q 20.015625 56 32.328125 56 
Q 43.359375 56 49.78125 48.890625 
Q 56.203125 41.796875 56.203125 29.59375 
M 47.21875 32.234375 
Q 47.125 39.59375 43.09375 43.984375 
Q 39.0625 48.390625 32.421875 48.390625 
Q 24.90625 48.390625 20.390625 44.140625 
Q 15.875 39.890625 15.1875 32.171875 
z
" id="BitstreamVeraSans-Roman-65"/>
      <path d="M 9.421875 75.984375 
L 18.40625 75.984375 
L 18.40625 0 
L 9.421875 0 
z
" id="BitstreamVeraSans-Roman-6c"/>
      <path d="M 31 75.875 
Q 24.46875 64.65625 21.28125 53.65625 
Q 18.109375 42.671875 18.109375 31.390625 
Q 18.109375 20.125 21.3125 9.0625 
Q 24.515625 -2 31 -13.1875 
L 23.1875 -13.1875 
Q 15.875 -1.703125 12.234375 9.375 
Q 8.59375 20.453125 8.59375 31.390625 
Q 8.59375 42.28125 12.203125 53.3125 
Q 15.828125 64.359375 23.1875 75.875 
z
" id="BitstreamVeraSans-Roman-28"/>
      <path d="M 45.40625 46.390625 
L 45.40625 75.984375 
L 54.390625 75.984375 
L 54.390625 0 
L 45.40625 0 
L 45.40625 8.203125 
Q 42.578125 3.328125 38.25 0.953125 
Q 33.9375 -1.421875 27.875 -1.421875 
Q 17.96875 -1.421875 11.734375 6.484375 
Q 5.515625 14.40625 5.515625 27.296875 
Q 5.515625 40.1875 11.734375 48.09375 
Q 17.96875 56 27.875 56 
Q 33.9375 56 38.25 53.625 
Q 42.578125 51.265625 45.40625 46.390625 
M 14.796875 27.296875 
Q 14.796875 17.390625 18.875 11.75 
Q 22.953125 6.109375 30.078125 6.109375 
Q 37.203125 6.109375 41.296875 11.75 
Q 45.40625 17.390625 45.40625 27.296875 
Q 45.40625 37.203125 41.296875 42.84375 
Q 37.203125 48.484375 30.078125 48.484375 
Q 22.953125 48.484375 18.875 42.84375 
Q 14.796875 37.203125 14.796875 27.296875 
" id="BitstreamVeraSans-Roman-64"/>
      <path d="M 2.984375 54.6875 
L 12.5 54.6875 
L 29.59375 8.796875 
L 46.6875 54.6875 
L 56.203125 54.6875 
L 35.6875 0 
L 23.484375 0 
z
" id="BitstreamVeraSans-Roman-76"/>
      <path d="M 51.125 44 
L 36.921875 44 
L 32.8125 27.6875 
L 47.125 27.6875 
z
M 43.796875 71.78125 
L 38.71875 51.515625 
L 52.984375 51.515625 
L 58.109375 71.78125 
L 65.921875 71.78125 
L 60.890625 51.515625 
L 76.125 51.515625 
L 76.125 44 
L 58.984375 44 
L 54.984375 27.6875 
L 70.515625 27.6875 
L 70.515625 20.21875 
L 53.078125 20.21875 
L 48 0 
L 40.1875 0 
L 45.21875 20.21875 
L 30.90625 20.21875 
L 25.875 0 
L 18.015625 0 
L 23.09375 20.21875 
L 7.71875 20.21875 
L 7.71875 27.6875 
L 24.90625 27.6875 
L 29 44 
L 13.28125 44 
L 13.28125 51.515625 
L 30.90625 51.515625 
L 35.890625 71.78125 
z
" id="BitstreamVeraSans-Roman-23"/>
      <path d="M 30.609375 48.390625 
Q 23.390625 48.390625 19.1875 42.75 
Q 14.984375 37.109375 14.984375 27.296875 
Q 14.984375 17.484375 19.15625 11.84375 
Q 23.34375 6.203125 30.609375 6.203125 
Q 37.796875 6.203125 41.984375 11.859375 
Q 46.1875 17.53125 46.1875 27.296875 
Q 46.1875 37.015625 41.984375 42.703125 
Q 37.796875 48.390625 30.609375 48.390625 
M 30.609375 56 
Q 42.328125 56 49.015625 48.375 
Q 55.71875 40.765625 55.71875 27.296875 
Q 55.71875 13.875 49.015625 6.21875 
Q 42.328125 -1.421875 30.609375 -1.421875 
Q 18.84375 -1.421875 12.171875 6.21875 
Q 5.515625 13.875 5.515625 27.296875 
Q 5.515625 40.765625 12.171875 48.375 
Q 18.84375 56 30.609375 56 
" id="BitstreamVeraSans-Roman-6f"/>
      <path d="M 8.015625 75.875 
L 15.828125 75.875 
Q 23.140625 64.359375 26.78125 53.3125 
Q 30.421875 42.28125 30.421875 31.390625 
Q 30.421875 20.453125 26.78125 9.375 
Q 23.140625 -1.703125 15.828125 -13.1875 
L 8.015625 -13.1875 
Q 14.5 -2 17.703125 9.0625 
Q 20.90625 20.125 20.90625 31.390625 
Q 20.90625 42.671875 17.703125 53.65625 
Q 14.5 64.65625 8.015625 75.875 
" id="BitstreamVeraSans-Roman-29"/>
      <path d="M 9.421875 54.6875 
L 18.40625 54.6875 
L 18.40625 0 
L 9.421875 0 
z
M 9.421875 75.984375 
L 18.40625 75.984375 
L 18.40625 64.59375 
L 9.421875 64.59375 
z
" id="BitstreamVeraSans-Roman-69"/>
      <path d="M 4.890625 31.390625 
L 31.203125 31.390625 
L 31.203125 23.390625 
L 4.890625 23.390625 
z
" id="BitstreamVeraSans-Roman-2d"/>
      <path d="M 12.40625 8.296875 
L 28.515625 8.296875 
L 28.515625 63.921875 
L 10.984375 60.40625 
L 10.984375 69.390625 
L 28.421875 72.90625 
L 38.28125 72.90625 
L 38.28125 8.296875 
L 54.390625 8.296875 
L 54.390625 0 
L 12.40625 0 
z
" id="BitstreamVeraSans-Roman-31"/>
      <path d="M 45.40625 27.984375 
Q 45.40625 37.75 41.375 43.109375 
Q 37.359375 48.484375 30.078125 48.484375 
Q 22.859375 48.484375 18.828125 43.109375 
Q 14.796875 37.75 14.796875 27.984375 
Q 14.796875 18.265625 18.828125 12.890625 
Q 22.859375 7.515625 30.078125 7.515625 
Q 37.359375 7.515625 41.375 12.890625 
Q 45.40625 18.265625 45.40625 27.984375 
M 54.390625 6.78125 
Q 54.390625 -7.171875 48.1875 -13.984375 
Q 42 -20.796875 29.203125 -20.796875 
Q 24.46875 -20.796875 20.265625 -20.09375 
Q 16.0625 -19.390625 12.109375 -17.921875 
L 12.109375 -9.1875 
Q 16.0625 -11.328125 19.921875 -12.34375 
Q 23.78125 -13.375 27.78125 -13.375 
Q 36.625 -13.375 41.015625 -8.765625 
Q 45.40625 -4.15625 45.40625 5.171875 
L 45.40625 9.625 
Q 42.625 4.78125 38.28125 2.390625 
Q 33.9375 0 27.875 0 
Q 17.828125 0 11.671875 7.65625 
Q 5.515625 15.328125 5.515625 27.984375 
Q 5.515625 40.671875 11.671875 48.328125 
Q 17.828125 56 27.875 56 
Q 33.9375 56 38.28125 53.609375 
Q 42.625 51.21875 45.40625 46.390625 
L 45.40625 54.6875 
L 54.390625 54.6875 
z
" id="BitstreamVeraSans-Roman-67"/>
      <path id="BitstreamVeraSans-Roman-20"/>
      <path d="M 44.28125 53.078125 
L 44.28125 44.578125 
Q 40.484375 46.53125 36.375 47.5 
Q 32.28125 48.484375 27.875 48.484375 
Q 21.1875 48.484375 17.84375 46.4375 
Q 14.5 44.390625 14.5 40.28125 
Q 14.5 37.15625 16.890625 35.375 
Q 19.28125 33.59375 26.515625 31.984375 
L 29.59375 31.296875 
Q 39.15625 29.25 43.1875 25.515625 
Q 47.21875 21.78125 47.21875 15.09375 
Q 47.21875 7.46875 41.1875 3.015625 
Q 35.15625 -1.421875 24.609375 -1.421875 
Q 20.21875 -1.421875 15.453125 -0.5625 
Q 10.6875 0.296875 5.421875 2 
L 5.421875 11.28125 
Q 10.40625 8.6875 15.234375 7.390625 
Q 20.0625 6.109375 24.8125 6.109375 
Q 31.15625 6.109375 34.5625 8.28125 
Q 37.984375 10.453125 37.984375 14.40625 
Q 37.984375 18.0625 35.515625 20.015625 
Q 33.0625 21.96875 24.703125 23.78125 
L 21.578125 24.515625 
Q 13.234375 26.265625 9.515625 29.90625 
Q 5.8125 33.546875 5.8125 39.890625 
Q 5.8125 47.609375 11.28125 51.796875 
Q 16.75 56 26.8125 56 
Q 31.78125 56 36.171875 55.265625 
Q 40.578125 54.546875 44.28125 53.078125 
" id="BitstreamVeraSans-Roman-73"/>
      <path d="M 25.390625 72.90625 
L 33.6875 72.90625 
L 8.296875 -9.28125 
L 0 -9.28125 
z
" id="BitstreamVeraSans-Roman-2f"/>
      <path d="M 37.109375 75.984375 
L 37.109375 68.5 
L 28.515625 68.5 
Q 23.6875 68.5 21.796875 66.546875 
Q 19.921875 64.59375 19.921875 59.515625 
L 19.921875 54.6875 
L 34.71875 54.6875 
L 34.71875 47.703125 
L 19.921875 47.703125 
L 19.921875 0 
L 10.890625 0 
L 10.890625 47.703125 
L 2.296875 47.703125 
L 2.296875 54.6875 
L 10.890625 54.6875 
L 10.890625 58.5 
Q 10.890625 67.625 15.140625 71.796875 
Q 19.390625 75.984375 28.609375 75.984375 
z
" id="BitstreamVeraSans-Roman-66"/>
      <path d="M 54.890625 33.015625 
L 54.890625 0 
L 45.90625 0 
L 45.90625 32.71875 
Q 45.90625 40.484375 42.875 44.328125 
Q 39.84375 48.1875 33.796875 48.1875 
Q 26.515625 48.1875 22.3125 43.546875 
Q 18.109375 38.921875 18.109375 30.90625 
L 18.109375 0 
L 9.078125 0 
L 9.078125 54.6875 
L 18.109375 54.6875 
L 18.109375 46.1875 
Q 21.34375 51.125 25.703125 53.5625 
Q 30.078125 56 35.796875 56 
Q 45.21875 56 50.046875 50.171875 
Q 54.890625 44.34375 54.890625 33.015625 
" id="BitstreamVeraSans-Roman-6e"/>
     </defs>
     <g transform="translate(116.60171874999996 426.17359374999995)scale(0.17 -0.17)">
      <use xlink:href="#BitstreamVeraSans-Roman-6c"/>
      <use x="27.783203125" xlink:href="#BitstreamVeraSans-Roman-6f"/>
      <use x="88.96484375" xlink:href="#BitstreamVeraSans-Roman-67"/>
      <use x="152.44140625" xlink:href="#BitstreamVeraSans-Roman-31"/>
      <use x="216.064453125" xlink:href="#BitstreamVeraSans-Roman-30"/>
      <use x="279.6875" xlink:href="#BitstreamVeraSans-Roman-28"/>
      <use x="318.701171875" xlink:href="#BitstreamVeraSans-Roman-23"/>
      <use x="402.490234375" xlink:href="#BitstreamVeraSans-Roman-20"/>
      <use x="434.27734375" xlink:href="#BitstreamVeraSans-Roman-66"/>
      <use x="469.404296875" xlink:href="#BitstreamVeraSans-Roman-2d"/>
      <use x="505.48828125" xlink:href="#BitstreamVeraSans-Roman-65"/>
      <use x="567.01171875" xlink:href="#BitstreamVeraSans-Roman-76"/>
      <use x="626.19140625" xlink:href="#BitstreamVeraSans-Roman-61"/>
      <use x="687.470703125" xlink:href="#BitstreamVeraSans-Roman-6c"/>
      <use x="715.25390625" xlink:href="#BitstreamVeraSans-Roman-73"/>
      <use x="767.353515625" xlink:href="#BitstreamVeraSans-Roman-20"/>
      <use x="799.140625" xlink:href="#BitstreamVeraSans-Roman-2f"/>
      <use x="832.83203125" xlink:href="#BitstreamVeraSans-Roman-20"/>
      <use x="864.619140625" xlink:href="#BitstreamVeraSans-Roman-64"/>
      <use x="928.095703125" xlink:href="#BitstreamVeraSans-Roman-69"/>
      <use x="955.87890625" xlink:href="#BitstreamVeraSans-Roman-6d"/>
      <use x="1053.291015625" xlink:href="#BitstreamVeraSans-Roman-65"/>
      <use x="1114.814453125" xlink:href="#BitstreamVeraSans-Roman-6e"/>
      <use x="1178.193359375" xlink:href="#BitstreamVeraSans-Roman-73"/>
      <use x="1230.29296875" xlink:href="#BitstreamVeraSans-Roman-69"/>
      <use x="1258.076171875" xlink:href="#BitstreamVeraSans-Roman-6f"/>
      <use x="1319.2578125" xlink:href="#BitstreamVeraSans-Roman-6e"/>
      <use x="1382.63671875" xlink:href="#BitstreamVeraSans-Roman-29"/>
     </g>
    </g>
   </g>
   <g id="matplotlib.axis_2">
    <g id="ytick_1">
     <g id="line2d_48">
      <path clip-path="url(#pd12d2cdf91)" d="M 54.525 384.9 
L 420.36 384.9 
" style="fill:none;stroke:#000000;stroke-dasharray:1.000000,3.000000;stroke-dashoffset:0.0;stroke-width:0.5;"/>
     </g>
     <g id="line2d_49">
      <defs>
       <path d="M 0 0 
L 4 0 
" id="m4ea0c0e27d" style="stroke:#000000;stroke-width:0.5;"/>
      </defs>
      <g>
       <use style="stroke:#000000;stroke-width:0.5;" x="54.52500000000001" xlink:href="#m4ea0c0e27d" y="384.9"/>
      </g>
     </g>
     <g id="line2d_50">
      <defs>
       <path d="M 0 0 
L -4 0 
" id="mdc9c739c82" style="stroke:#000000;stroke-width:0.5;"/>
      </defs>
      <g>
       <use style="stroke:#000000;stroke-width:0.5;" x="420.35999999999996" xlink:href="#mdc9c739c82" y="384.9"/>
      </g>
     </g>
     <g id="text_6">
      <!-- 0.0 -->
      <defs>
       <path d="M 10.6875 12.40625 
L 21 12.40625 
L 21 0 
L 10.6875 0 
z
" id="BitstreamVeraSans-Roman-2e"/>
      </defs>
      <g transform="translate(25.080000000000013 389.315)scale(0.16 -0.16)">
       <use xlink:href="#BitstreamVeraSans-Roman-30"/>
       <use x="63.623046875" xlink:href="#BitstreamVeraSans-Roman-2e"/>
       <use x="95.41015625" xlink:href="#BitstreamVeraSans-Roman-30"/>
      </g>
     </g>
    </g>
    <g id="ytick_2">
     <g id="line2d_51">
      <path clip-path="url(#pd12d2cdf91)" d="M 54.525 310.202617 
L 420.36 310.202617 
" style="fill:none;stroke:#000000;stroke-dasharray:1.000000,3.000000;stroke-dashoffset:0.0;stroke-width:0.5;"/>
     </g>
     <g id="line2d_52">
      <g>
       <use style="stroke:#000000;stroke-width:0.5;" x="54.52500000000001" xlink:href="#m4ea0c0e27d" y="310.2026173904519"/>
      </g>
     </g>
     <g id="line2d_53">
      <g>
       <use style="stroke:#000000;stroke-width:0.5;" x="420.35999999999996" xlink:href="#mdc9c739c82" y="310.2026173904519"/>
      </g>
     </g>
     <g id="text_7">
      <!-- 0.2 -->
      <g transform="translate(25.080000000000013 314.61761739045187)scale(0.16 -0.16)">
       <use xlink:href="#BitstreamVeraSans-Roman-30"/>
       <use x="63.623046875" xlink:href="#BitstreamVeraSans-Roman-2e"/>
       <use x="95.41015625" xlink:href="#BitstreamVeraSans-Roman-32"/>
      </g>
     </g>
    </g>
    <g id="ytick_3">
     <g id="line2d_54">
      <path clip-path="url(#pd12d2cdf91)" d="M 54.525 235.505235 
L 420.36 235.505235 
" style="fill:none;stroke:#000000;stroke-dasharray:1.000000,3.000000;stroke-dashoffset:0.0;stroke-width:0.5;"/>
     </g>
     <g id="line2d_55">
      <g>
       <use style="stroke:#000000;stroke-width:0.5;" x="54.52500000000001" xlink:href="#m4ea0c0e27d" y="235.5052347809038"/>
      </g>
     </g>
     <g id="line2d_56">
      <g>
       <use style="stroke:#000000;stroke-width:0.5;" x="420.35999999999996" xlink:href="#mdc9c739c82" y="235.5052347809038"/>
      </g>
     </g>
     <g id="text_8">
      <!-- 0.4 -->
      <g transform="translate(25.080000000000013 239.9202347809038)scale(0.16 -0.16)">
       <use xlink:href="#BitstreamVeraSans-Roman-30"/>
       <use x="63.623046875" xlink:href="#BitstreamVeraSans-Roman-2e"/>
       <use x="95.41015625" xlink:href="#BitstreamVeraSans-Roman-34"/>
      </g>
     </g>
    </g>
    <g id="ytick_4">
     <g id="line2d_57">
      <path clip-path="url(#pd12d2cdf91)" d="M 54.525 160.807852 
L 420.36 160.807852 
" style="fill:none;stroke:#000000;stroke-dasharray:1.000000,3.000000;stroke-dashoffset:0.0;stroke-width:0.5;"/>
     </g>
     <g id="line2d_58">
      <g>
       <use style="stroke:#000000;stroke-width:0.5;" x="54.52500000000001" xlink:href="#m4ea0c0e27d" y="160.8078521713557"/>
      </g>
     </g>
     <g id="line2d_59">
      <g>
       <use style="stroke:#000000;stroke-width:0.5;" x="420.35999999999996" xlink:href="#mdc9c739c82" y="160.8078521713557"/>
      </g>
     </g>
     <g id="text_9">
      <!-- 0.6 -->
      <g transform="translate(25.080000000000013 165.22285217135573)scale(0.16 -0.16)">
       <use xlink:href="#BitstreamVeraSans-Roman-30"/>
       <use x="63.623046875" xlink:href="#BitstreamVeraSans-Roman-2e"/>
       <use x="95.41015625" xlink:href="#BitstreamVeraSans-Roman-36"/>
      </g>
     </g>
    </g>
    <g id="ytick_5">
     <g id="line2d_60">
      <path clip-path="url(#pd12d2cdf91)" d="M 54.525 86.11047 
L 420.36 86.11047 
" style="fill:none;stroke:#000000;stroke-dasharray:1.000000,3.000000;stroke-dashoffset:0.0;stroke-width:0.5;"/>
     </g>
     <g id="line2d_61">
      <g>
       <use style="stroke:#000000;stroke-width:0.5;" x="54.52500000000001" xlink:href="#m4ea0c0e27d" y="86.11046956180763"/>
      </g>
     </g>
     <g id="line2d_62">
      <g>
       <use style="stroke:#000000;stroke-width:0.5;" x="420.35999999999996" xlink:href="#mdc9c739c82" y="86.11046956180763"/>
      </g>
     </g>
     <g id="text_10">
      <!-- 0.8 -->
      <defs>
       <path d="M 31.78125 34.625 
Q 24.75 34.625 20.71875 30.859375 
Q 16.703125 27.09375 16.703125 20.515625 
Q 16.703125 13.921875 20.71875 10.15625 
Q 24.75 6.390625 31.78125 6.390625 
Q 38.8125 6.390625 42.859375 10.171875 
Q 46.921875 13.96875 46.921875 20.515625 
Q 46.921875 27.09375 42.890625 30.859375 
Q 38.875 34.625 31.78125 34.625 
M 21.921875 38.8125 
Q 15.578125 40.375 12.03125 44.71875 
Q 8.5 49.078125 8.5 55.328125 
Q 8.5 64.0625 14.71875 69.140625 
Q 20.953125 74.21875 31.78125 74.21875 
Q 42.671875 74.21875 48.875 69.140625 
Q 55.078125 64.0625 55.078125 55.328125 
Q 55.078125 49.078125 51.53125 44.71875 
Q 48 40.375 41.703125 38.8125 
Q 48.828125 37.15625 52.796875 32.3125 
Q 56.78125 27.484375 56.78125 20.515625 
Q 56.78125 9.90625 50.3125 4.234375 
Q 43.84375 -1.421875 31.78125 -1.421875 
Q 19.734375 -1.421875 13.25 4.234375 
Q 6.78125 9.90625 6.78125 20.515625 
Q 6.78125 27.484375 10.78125 32.3125 
Q 14.796875 37.15625 21.921875 38.8125 
M 18.3125 54.390625 
Q 18.3125 48.734375 21.84375 45.5625 
Q 25.390625 42.390625 31.78125 42.390625 
Q 38.140625 42.390625 41.71875 45.5625 
Q 45.3125 48.734375 45.3125 54.390625 
Q 45.3125 60.0625 41.71875 63.234375 
Q 38.140625 66.40625 31.78125 66.40625 
Q 25.390625 66.40625 21.84375 63.234375 
Q 18.3125 60.0625 18.3125 54.390625 
" id="BitstreamVeraSans-Roman-38"/>
      </defs>
      <g transform="translate(25.080000000000013 90.52546956180765)scale(0.16 -0.16)">
       <use xlink:href="#BitstreamVeraSans-Roman-30"/>
       <use x="63.623046875" xlink:href="#BitstreamVeraSans-Roman-2e"/>
       <use x="95.41015625" xlink:href="#BitstreamVeraSans-Roman-38"/>
      </g>
     </g>
    </g>
    <g id="ytick_6">
     <g id="line2d_63">
      <path clip-path="url(#pd12d2cdf91)" d="M 54.525 11.413087 
L 420.36 11.413087 
" style="fill:none;stroke:#000000;stroke-dasharray:1.000000,3.000000;stroke-dashoffset:0.0;stroke-width:0.5;"/>
     </g>
     <g id="line2d_64">
      <g>
       <use style="stroke:#000000;stroke-width:0.5;" x="54.52500000000001" xlink:href="#m4ea0c0e27d" y="11.413086952259562"/>
      </g>
     </g>
     <g id="line2d_65">
      <g>
       <use style="stroke:#000000;stroke-width:0.5;" x="420.35999999999996" xlink:href="#mdc9c739c82" y="11.413086952259562"/>
      </g>
     </g>
     <g id="text_11">
      <!-- 1.0 -->
      <g transform="translate(25.080000000000013 15.828086952259582)scale(0.16 -0.16)">
       <use xlink:href="#BitstreamVeraSans-Roman-31"/>
       <use x="63.623046875" xlink:href="#BitstreamVeraSans-Roman-2e"/>
       <use x="95.41015625" xlink:href="#BitstreamVeraSans-Roman-30"/>
      </g>
     </g>
    </g>
    <g id="text_12">
     <!-- Fraction of function,target pairs -->
     <defs>
      <path d="M 8.5 21.578125 
L 8.5 54.6875 
L 17.484375 54.6875 
L 17.484375 21.921875 
Q 17.484375 14.15625 20.5 10.265625 
Q 23.53125 6.390625 29.59375 6.390625 
Q 36.859375 6.390625 41.078125 11.03125 
Q 45.3125 15.671875 45.3125 23.6875 
L 45.3125 54.6875 
L 54.296875 54.6875 
L 54.296875 0 
L 45.3125 0 
L 45.3125 8.40625 
Q 42.046875 3.421875 37.71875 1 
Q 33.40625 -1.421875 27.6875 -1.421875 
Q 18.265625 -1.421875 13.375 4.4375 
Q 8.5 10.296875 8.5 21.578125 
" id="BitstreamVeraSans-Roman-75"/>
      <path d="M 11.71875 12.40625 
L 22.015625 12.40625 
L 22.015625 4 
L 14.015625 -11.625 
L 7.71875 -11.625 
L 11.71875 4 
z
" id="BitstreamVeraSans-Roman-2c"/>
      <path d="M 18.109375 8.203125 
L 18.109375 -20.796875 
L 9.078125 -20.796875 
L 9.078125 54.6875 
L 18.109375 54.6875 
L 18.109375 46.390625 
Q 20.953125 51.265625 25.265625 53.625 
Q 29.59375 56 35.59375 56 
Q 45.5625 56 51.78125 48.09375 
Q 58.015625 40.1875 58.015625 27.296875 
Q 58.015625 14.40625 51.78125 6.484375 
Q 45.5625 -1.421875 35.59375 -1.421875 
Q 29.59375 -1.421875 25.265625 0.953125 
Q 20.953125 3.328125 18.109375 8.203125 
M 48.6875 27.296875 
Q 48.6875 37.203125 44.609375 42.84375 
Q 40.53125 48.484375 33.40625 48.484375 
Q 26.265625 48.484375 22.1875 42.84375 
Q 18.109375 37.203125 18.109375 27.296875 
Q 18.109375 17.390625 22.1875 11.75 
Q 26.265625 6.109375 33.40625 6.109375 
Q 40.53125 6.109375 44.609375 11.75 
Q 48.6875 17.390625 48.6875 27.296875 
" id="BitstreamVeraSans-Roman-70"/>
      <path d="M 41.109375 46.296875 
Q 39.59375 47.171875 37.8125 47.578125 
Q 36.03125 48 33.890625 48 
Q 26.265625 48 22.1875 43.046875 
Q 18.109375 38.09375 18.109375 28.8125 
L 18.109375 0 
L 9.078125 0 
L 9.078125 54.6875 
L 18.109375 54.6875 
L 18.109375 46.1875 
Q 20.953125 51.171875 25.484375 53.578125 
Q 30.03125 56 36.53125 56 
Q 37.453125 56 38.578125 55.875 
Q 39.703125 55.765625 41.0625 55.515625 
z
" id="BitstreamVeraSans-Roman-72"/>
      <path d="M 18.3125 70.21875 
L 18.3125 54.6875 
L 36.8125 54.6875 
L 36.8125 47.703125 
L 18.3125 47.703125 
L 18.3125 18.015625 
Q 18.3125 11.328125 20.140625 9.421875 
Q 21.96875 7.515625 27.59375 7.515625 
L 36.8125 7.515625 
L 36.8125 0 
L 27.59375 0 
Q 17.1875 0 13.234375 3.875 
Q 9.28125 7.765625 9.28125 18.015625 
L 9.28125 47.703125 
L 2.6875 47.703125 
L 2.6875 54.6875 
L 9.28125 54.6875 
L 9.28125 70.21875 
z
" id="BitstreamVeraSans-Roman-74"/>
      <path d="M 48.78125 52.59375 
L 48.78125 44.1875 
Q 44.96875 46.296875 41.140625 47.34375 
Q 37.3125 48.390625 33.40625 48.390625 
Q 24.65625 48.390625 19.8125 42.84375 
Q 14.984375 37.3125 14.984375 27.296875 
Q 14.984375 17.28125 19.8125 11.734375 
Q 24.65625 6.203125 33.40625 6.203125 
Q 37.3125 6.203125 41.140625 7.25 
Q 44.96875 8.296875 48.78125 10.40625 
L 48.78125 2.09375 
Q 45.015625 0.34375 40.984375 -0.53125 
Q 36.96875 -1.421875 32.421875 -1.421875 
Q 20.0625 -1.421875 12.78125 6.34375 
Q 5.515625 14.109375 5.515625 27.296875 
Q 5.515625 40.671875 12.859375 48.328125 
Q 20.21875 56 33.015625 56 
Q 37.15625 56 41.109375 55.140625 
Q 45.0625 54.296875 48.78125 52.59375 
" id="BitstreamVeraSans-Roman-63"/>
      <path d="M 9.8125 72.90625 
L 51.703125 72.90625 
L 51.703125 64.59375 
L 19.671875 64.59375 
L 19.671875 43.109375 
L 48.578125 43.109375 
L 48.578125 34.8125 
L 19.671875 34.8125 
L 19.671875 0 
L 9.8125 0 
z
" id="BitstreamVeraSans-Roman-46"/>
     </defs>
     <g transform="translate(16.544531250000006 331.42848391089103)rotate(-90.0)scale(0.17 -0.17)">
      <use xlink:href="#BitstreamVeraSans-Roman-46"/>
      <use x="57.41015625" xlink:href="#BitstreamVeraSans-Roman-72"/>
      <use x="98.5234375" xlink:href="#BitstreamVeraSans-Roman-61"/>
      <use x="159.802734375" xlink:href="#BitstreamVeraSans-Roman-63"/>
      <use x="214.783203125" xlink:href="#BitstreamVeraSans-Roman-74"/>
      <use x="253.9921875" xlink:href="#BitstreamVeraSans-Roman-69"/>
      <use x="281.775390625" xlink:href="#BitstreamVeraSans-Roman-6f"/>
      <use x="342.95703125" xlink:href="#BitstreamVeraSans-Roman-6e"/>
      <use x="406.3359375" xlink:href="#BitstreamVeraSans-Roman-20"/>
      <use x="438.123046875" xlink:href="#BitstreamVeraSans-Roman-6f"/>
      <use x="499.3046875" xlink:href="#BitstreamVeraSans-Roman-66"/>
      <use x="534.509765625" xlink:href="#BitstreamVeraSans-Roman-20"/>
      <use x="566.296875" xlink:href="#BitstreamVeraSans-Roman-66"/>
      <use x="601.501953125" xlink:href="#BitstreamVeraSans-Roman-75"/>
      <use x="664.880859375" xlink:href="#BitstreamVeraSans-Roman-6e"/>
      <use x="728.259765625" xlink:href="#BitstreamVeraSans-Roman-63"/>
      <use x="783.240234375" xlink:href="#BitstreamVeraSans-Roman-74"/>
      <use x="822.44921875" xlink:href="#BitstreamVeraSans-Roman-69"/>
      <use x="850.232421875" xlink:href="#BitstreamVeraSans-Roman-6f"/>
      <use x="911.4140625" xlink:href="#BitstreamVeraSans-Roman-6e"/>
      <use x="974.79296875" xlink:href="#BitstreamVeraSans-Roman-2c"/>
      <use x="1006.580078125" xlink:href="#BitstreamVeraSans-Roman-74"/>
      <use x="1045.7890625" xlink:href="#BitstreamVeraSans-Roman-61"/>
      <use x="1107.068359375" xlink:href="#BitstreamVeraSans-Roman-72"/>
      <use x="1148.166015625" xlink:href="#BitstreamVeraSans-Roman-67"/>
      <use x="1211.642578125" xlink:href="#BitstreamVeraSans-Roman-65"/>
      <use x="1273.166015625" xlink:href="#BitstreamVeraSans-Roman-74"/>
      <use x="1312.375" xlink:href="#BitstreamVeraSans-Roman-20"/>
      <use x="1344.162109375" xlink:href="#BitstreamVeraSans-Roman-70"/>
      <use x="1407.638671875" xlink:href="#BitstreamVeraSans-Roman-61"/>
      <use x="1468.91796875" xlink:href="#BitstreamVeraSans-Roman-69"/>
      <use x="1496.701171875" xlink:href="#BitstreamVeraSans-Roman-72"/>
      <use x="1537.814453125" xlink:href="#BitstreamVeraSans-Roman-73"/>
     </g>
    </g>
   </g>
   <g id="text_13">
    <!-- f2 -->
    <g transform="translate(467.91854999999987 382.12119923904515)scale(0.17 -0.17)">
     <use xlink:href="#BitstreamVeraSans-Roman-66"/>
     <use x="35.205078125" xlink:href="#BitstreamVeraSans-Roman-32"/>
    </g>
   </g>
   <g id="text_14">
    <!-- f1 -->
    <g transform="translate(467.91854999999987 23.57376271321442)scale(0.17 -0.17)">
     <use xlink:href="#BitstreamVeraSans-Roman-66"/>
     <use x="35.205078125" xlink:href="#BitstreamVeraSans-Roman-31"/>
    </g>
   </g>
   <g id="text_15">
    <!-- bbob -->
    <defs>
     <path d="M 48.6875 27.296875 
Q 48.6875 37.203125 44.609375 42.84375 
Q 40.53125 48.484375 33.40625 48.484375 
Q 26.265625 48.484375 22.1875 42.84375 
Q 18.109375 37.203125 18.109375 27.296875 
Q 18.109375 17.390625 22.1875 11.75 
Q 26.265625 6.109375 33.40625 6.109375 
Q 40.53125 6.109375 44.609375 11.75 
Q 48.6875 17.390625 48.6875 27.296875 
M 18.109375 46.390625 
Q 20.953125 51.265625 25.265625 53.625 
Q 29.59375 56 35.59375 56 
Q 45.5625 56 51.78125 48.09375 
Q 58.015625 40.1875 58.015625 27.296875 
Q 58.015625 14.40625 51.78125 6.484375 
Q 45.5625 -1.421875 35.59375 -1.421875 
Q 29.59375 -1.421875 25.265625 0.953125 
Q 20.953125 3.328125 18.109375 8.203125 
L 18.109375 0 
L 9.078125 0 
L 9.078125 75.984375 
L 18.109375 75.984375 
z
" id="BitstreamVeraSans-Roman-62"/>
    </defs>
    <g transform="translate(58.18335000000001 19.20084189356436)scale(0.102 -0.102)">
     <use xlink:href="#BitstreamVeraSans-Roman-62"/>
     <use x="63.4765625" xlink:href="#BitstreamVeraSans-Roman-62"/>
     <use x="126.953125" xlink:href="#BitstreamVeraSans-Roman-6f"/>
     <use x="188.134765625" xlink:href="#BitstreamVeraSans-Roman-62"/>
    </g>
    <!-- Separable functions, 20-D -->
    <defs>
     <path d="M 53.515625 70.515625 
L 53.515625 60.890625 
Q 47.90625 63.578125 42.921875 64.890625 
Q 37.9375 66.21875 33.296875 66.21875 
Q 25.25 66.21875 20.875 63.09375 
Q 16.5 59.96875 16.5 54.203125 
Q 16.5 49.359375 19.40625 46.890625 
Q 22.3125 44.4375 30.421875 42.921875 
L 36.375 41.703125 
Q 47.40625 39.59375 52.65625 34.296875 
Q 57.90625 29 57.90625 20.125 
Q 57.90625 9.515625 50.796875 4.046875 
Q 43.703125 -1.421875 29.984375 -1.421875 
Q 24.8125 -1.421875 18.96875 -0.25 
Q 13.140625 0.921875 6.890625 3.21875 
L 6.890625 13.375 
Q 12.890625 10.015625 18.65625 8.296875 
Q 24.421875 6.59375 29.984375 6.59375 
Q 38.421875 6.59375 43.015625 9.90625 
Q 47.609375 13.234375 47.609375 19.390625 
Q 47.609375 24.75 44.3125 27.78125 
Q 41.015625 30.8125 33.5 32.328125 
L 27.484375 33.5 
Q 16.453125 35.6875 11.515625 40.375 
Q 6.59375 45.0625 6.59375 53.421875 
Q 6.59375 63.09375 13.40625 68.65625 
Q 20.21875 74.21875 32.171875 74.21875 
Q 37.3125 74.21875 42.625 73.28125 
Q 47.953125 72.359375 53.515625 70.515625 
" id="BitstreamVeraSans-Roman-53"/>
     <path d="M 19.671875 64.796875 
L 19.671875 8.109375 
L 31.59375 8.109375 
Q 46.6875 8.109375 53.6875 14.9375 
Q 60.6875 21.78125 60.6875 36.53125 
Q 60.6875 51.171875 53.6875 57.984375 
Q 46.6875 64.796875 31.59375 64.796875 
z
M 9.8125 72.90625 
L 30.078125 72.90625 
Q 51.265625 72.90625 61.171875 64.09375 
Q 71.09375 55.28125 71.09375 36.53125 
Q 71.09375 17.671875 61.125 8.828125 
Q 51.171875 0 30.078125 0 
L 9.8125 0 
z
" id="BitstreamVeraSans-Roman-44"/>
    </defs>
    <g transform="translate(58.18335000000001 30.622610643564315)scale(0.102 -0.102)">
     <use xlink:href="#BitstreamVeraSans-Roman-53"/>
     <use x="63.4765625" xlink:href="#BitstreamVeraSans-Roman-65"/>
     <use x="125.0" xlink:href="#BitstreamVeraSans-Roman-70"/>
     <use x="188.4765625" xlink:href="#BitstreamVeraSans-Roman-61"/>
     <use x="249.755859375" xlink:href="#BitstreamVeraSans-Roman-72"/>
     <use x="290.869140625" xlink:href="#BitstreamVeraSans-Roman-61"/>
     <use x="352.1484375" xlink:href="#BitstreamVeraSans-Roman-62"/>
     <use x="415.625" xlink:href="#BitstreamVeraSans-Roman-6c"/>
     <use x="443.408203125" xlink:href="#BitstreamVeraSans-Roman-65"/>
     <use x="504.931640625" xlink:href="#BitstreamVeraSans-Roman-20"/>
     <use x="536.71875" xlink:href="#BitstreamVeraSans-Roman-66"/>
     <use x="571.923828125" xlink:href="#BitstreamVeraSans-Roman-75"/>
     <use x="635.302734375" xlink:href="#BitstreamVeraSans-Roman-6e"/>
     <use x="698.681640625" xlink:href="#BitstreamVeraSans-Roman-63"/>
     <use x="753.662109375" xlink:href="#BitstreamVeraSans-Roman-74"/>
     <use x="792.87109375" xlink:href="#BitstreamVeraSans-Roman-69"/>
     <use x="820.654296875" xlink:href="#BitstreamVeraSans-Roman-6f"/>
     <use x="881.8359375" xlink:href="#BitstreamVeraSans-Roman-6e"/>
     <use x="945.21484375" xlink:href="#BitstreamVeraSans-Roman-73"/>
     <use x="997.314453125" xlink:href="#BitstreamVeraSans-Roman-2c"/>
     <use x="1029.1015625" xlink:href="#BitstreamVeraSans-Roman-20"/>
     <use x="1060.888671875" xlink:href="#BitstreamVeraSans-Roman-32"/>
     <use x="1124.51171875" xlink:href="#BitstreamVeraSans-Roman-30"/>
     <use x="1188.134765625" xlink:href="#BitstreamVeraSans-Roman-2d"/>
     <use x="1224.21875" xlink:href="#BitstreamVeraSans-Roman-44"/>
    </g>
    <!-- 51 targets: 100..1e-08 -->
    <defs>
     <path d="M 11.71875 12.40625 
L 22.015625 12.40625 
L 22.015625 0 
L 11.71875 0 
z
M 11.71875 51.703125 
L 22.015625 51.703125 
L 22.015625 39.3125 
L 11.71875 39.3125 
z
" id="BitstreamVeraSans-Roman-3a"/>
     <path d="M 10.796875 72.90625 
L 49.515625 72.90625 
L 49.515625 64.59375 
L 19.828125 64.59375 
L 19.828125 46.734375 
Q 21.96875 47.46875 24.109375 47.828125 
Q 26.265625 48.1875 28.421875 48.1875 
Q 40.625 48.1875 47.75 41.5 
Q 54.890625 34.8125 54.890625 23.390625 
Q 54.890625 11.625 47.5625 5.09375 
Q 40.234375 -1.421875 26.90625 -1.421875 
Q 22.3125 -1.421875 17.546875 -0.640625 
Q 12.796875 0.140625 7.71875 1.703125 
L 7.71875 11.625 
Q 12.109375 9.234375 16.796875 8.0625 
Q 21.484375 6.890625 26.703125 6.890625 
Q 35.15625 6.890625 40.078125 11.328125 
Q 45.015625 15.765625 45.015625 23.390625 
Q 45.015625 31 40.078125 35.4375 
Q 35.15625 39.890625 26.703125 39.890625 
Q 22.75 39.890625 18.8125 39.015625 
Q 14.890625 38.140625 10.796875 36.28125 
z
" id="BitstreamVeraSans-Roman-35"/>
    </defs>
    <g transform="translate(58.18335000000001 42.04437939356433)scale(0.102 -0.102)">
     <use xlink:href="#BitstreamVeraSans-Roman-35"/>
     <use x="63.623046875" xlink:href="#BitstreamVeraSans-Roman-31"/>
     <use x="127.24609375" xlink:href="#BitstreamVeraSans-Roman-20"/>
     <use x="159.033203125" xlink:href="#BitstreamVeraSans-Roman-74"/>
     <use x="198.2421875" xlink:href="#BitstreamVeraSans-Roman-61"/>
     <use x="259.521484375" xlink:href="#BitstreamVeraSans-Roman-72"/>
     <use x="300.619140625" xlink:href="#BitstreamVeraSans-Roman-67"/>
     <use x="364.095703125" xlink:href="#BitstreamVeraSans-Roman-65"/>
     <use x="425.619140625" xlink:href="#BitstreamVeraSans-Roman-74"/>
     <use x="464.828125" xlink:href="#BitstreamVeraSans-Roman-73"/>
     <use x="516.927734375" xlink:href="#BitstreamVeraSans-Roman-3a"/>
     <use x="550.619140625" xlink:href="#BitstreamVeraSans-Roman-20"/>
     <use x="582.40625" xlink:href="#BitstreamVeraSans-Roman-31"/>
     <use x="646.029296875" xlink:href="#BitstreamVeraSans-Roman-30"/>
     <use x="709.65234375" xlink:href="#BitstreamVeraSans-Roman-30"/>
     <use x="773.275390625" xlink:href="#BitstreamVeraSans-Roman-2e"/>
     <use x="805.0625" xlink:href="#BitstreamVeraSans-Roman-2e"/>
     <use x="836.849609375" xlink:href="#BitstreamVeraSans-Roman-31"/>
     <use x="900.47265625" xlink:href="#BitstreamVeraSans-Roman-65"/>
     <use x="961.99609375" xlink:href="#BitstreamVeraSans-Roman-2d"/>
     <use x="998.080078125" xlink:href="#BitstreamVeraSans-Roman-30"/>
     <use x="1061.703125" xlink:href="#BitstreamVeraSans-Roman-38"/>
    </g>
    <!-- 15 instances -->
    <g transform="translate(58.18335000000001 53.46614814356434)scale(0.102 -0.102)">
     <use xlink:href="#BitstreamVeraSans-Roman-31"/>
     <use x="63.623046875" xlink:href="#BitstreamVeraSans-Roman-35"/>
     <use x="127.24609375" xlink:href="#BitstreamVeraSans-Roman-20"/>
     <use x="159.033203125" xlink:href="#BitstreamVeraSans-Roman-69"/>
     <use x="186.81640625" xlink:href="#BitstreamVeraSans-Roman-6e"/>
     <use x="250.1953125" xlink:href="#BitstreamVeraSans-Roman-73"/>
     <use x="302.294921875" xlink:href="#BitstreamVeraSans-Roman-74"/>
     <use x="341.50390625" xlink:href="#BitstreamVeraSans-Roman-61"/>
     <use x="402.783203125" xlink:href="#BitstreamVeraSans-Roman-6e"/>
     <use x="466.162109375" xlink:href="#BitstreamVeraSans-Roman-63"/>
     <use x="521.142578125" xlink:href="#BitstreamVeraSans-Roman-65"/>
     <use x="582.666015625" xlink:href="#BitstreamVeraSans-Roman-73"/>
    </g>
   </g>
   <g id="text_16">
    <!-- v2.3.3 -->
    <defs>
     <path d="M 40.578125 39.3125 
Q 47.65625 37.796875 51.625 33 
Q 55.609375 28.21875 55.609375 21.1875 
Q 55.609375 10.40625 48.1875 4.484375 
Q 40.765625 -1.421875 27.09375 -1.421875 
Q 22.515625 -1.421875 17.65625 -0.515625 
Q 12.796875 0.390625 7.625 2.203125 
L 7.625 11.71875 
Q 11.71875 9.328125 16.59375 8.109375 
Q 21.484375 6.890625 26.8125 6.890625 
Q 36.078125 6.890625 40.9375 10.546875 
Q 45.796875 14.203125 45.796875 21.1875 
Q 45.796875 27.640625 41.28125 31.265625 
Q 36.765625 34.90625 28.71875 34.90625 
L 20.21875 34.90625 
L 20.21875 43.015625 
L 29.109375 43.015625 
Q 36.375 43.015625 40.234375 45.921875 
Q 44.09375 48.828125 44.09375 54.296875 
Q 44.09375 59.90625 40.109375 62.90625 
Q 36.140625 65.921875 28.71875 65.921875 
Q 24.65625 65.921875 20.015625 65.03125 
Q 15.375 64.15625 9.8125 62.3125 
L 9.8125 71.09375 
Q 15.4375 72.65625 20.34375 73.4375 
Q 25.25 74.21875 29.59375 74.21875 
Q 40.828125 74.21875 47.359375 69.109375 
Q 53.90625 64.015625 53.90625 55.328125 
Q 53.90625 49.265625 50.4375 45.09375 
Q 46.96875 40.921875 40.578125 39.3125 
" id="BitstreamVeraSans-Roman-33"/>
    </defs>
    <g style="fill:#808080;" transform="translate(221.76124999999996 379.0480946782178)scale(0.1 -0.1)">
     <use xlink:href="#BitstreamVeraSans-Roman-76"/>
     <use x="59.1796875" xlink:href="#BitstreamVeraSans-Roman-32"/>
     <use x="122.802734375" xlink:href="#BitstreamVeraSans-Roman-2e"/>
     <use x="154.58984375" xlink:href="#BitstreamVeraSans-Roman-33"/>
     <use x="218.212890625" xlink:href="#BitstreamVeraSans-Roman-2e"/>
     <use x="250.0" xlink:href="#BitstreamVeraSans-Roman-33"/>
    </g>
   </g>
  </g>
 </g>
 <defs>
  <clipPath id="pd12d2cdf91">
   <rect height="377.22178217821784" width="365.8349999999999" x="54.52500000000001" y="7.678217821782141"/>
  </clipPath>
 </defs>
</svg>
