<?xml version="1.0" encoding="utf-8" standalone="no"?>
<!DOCTYPE svg PUBLIC "-//W3C//DTD SVG 1.1//EN"
  "http://www.w3.org/Graphics/SVG/1.1/DTD/svg11.dtd">
<!-- Created with matplotlib (http://matplotlib.org/) -->
<svg height="432pt" version="1.1" viewBox="0 0 576 432" width="576pt" xmlns="http://www.w3.org/2000/svg" xmlns:xlink="http://www.w3.org/1999/xlink">
 <defs>
  <style type="text/css">
*{stroke-linecap:butt;stroke-linejoin:round;stroke-miterlimit:100000;}
  </style>
 </defs>
 <g id="figure_1">
  <g id="patch_1">
   <path d="M 0 432 
L 576 432 
L 576 0 
L 0 0 
z
" style="fill:#ffffff;"/>
  </g>
  <g id="axes_1">
   <g id="patch_2">
    <path d="M 54.525 384.9 
L 420.36 384.9 
L 420.36 7.678218 
L 54.525 7.678218 
z
" style="fill:#ffffff;"/>
   </g>
   <g id="line2d_1">
    <path d="M 27.198236 384.9 
L 27.198236 383.435345 
L 58.663182 383.435345 
L 58.663182 381.970691 
L 68.487967 381.970691 
L 68.487967 380.506036 
L 69.68283 380.506036 
L 69.68283 379.041382 
L 70.817925 379.041382 
L 70.817925 307.273308 
L 71.364871 307.273308 
L 71.364871 304.343999 
L 71.898946 304.343999 
L 71.898946 235.505235 
L 112.301331 235.505235 
L 112.301331 234.04058 
L 119.293446 234.04058 
L 119.293446 232.575926 
L 119.68255 232.575926 
L 119.68255 231.111271 
L 121.355403 231.111271 
L 121.355403 229.646617 
L 121.474549 229.646617 
L 121.533888 225.252653 
L 121.593072 225.252653 
L 121.652103 216.464725 
L 121.71098 216.464725 
L 121.769705 201.81818 
L 121.828278 201.81818 
L 121.886701 195.959562 
L 121.944973 195.959562 
L 122.003097 176.919052 
L 122.061071 176.919052 
L 122.118899 160.807852 
L 122.234113 160.807852 
L 122.234113 159.343198 
L 122.74546 159.343198 
L 122.74546 157.878543 
L 123.190516 157.878543 
L 123.190516 156.413888 
L 136.665871 156.413888 
L 136.665871 154.949234 
L 158.205342 154.949234 
L 158.205342 153.484579 
L 164.077666 153.484579 
L 164.077666 152.019925 
L 168.820024 152.019925 
L 168.820024 150.55527 
L 170.256716 150.55527 
L 170.256716 149.090616 
L 173.195542 149.090616 
L 173.195542 147.625961 
L 174.990742 147.625961 
L 174.990742 146.161307 
L 178.548081 146.161307 
L 178.548081 144.696652 
L 180.144126 144.696652 
L 180.144126 143.231997 
L 185.975333 143.231997 
L 185.975333 141.767343 
L 187.754192 141.767343 
L 187.754192 140.302688 
L 189.221236 140.302688 
L 189.221236 138.838034 
L 189.391791 138.838034 
L 189.50182 77.322542 
L 189.504786 77.322542 
L 189.61427 52.423415 
L 189.617222 52.423415 
L 189.717352 40.706178 
L 189.743784 40.706178 
L 189.843358 26.059633 
L 235.372219 26.059633 
L 235.373399 23.130323 
L 255.649427 23.130323 
L 255.65007 11.413087 
L 420.36 11.413087 
L 420.36 11.413087 
" style="fill:none;stroke:#f5deb3;stroke-linecap:square;stroke-width:4.0;"/>
   </g>
   <g id="line2d_2">
    <defs>
     <path d="M -0 7.778175 
L 7.778175 0 
L 0 -7.778175 
L -7.778175 -0 
z
" id="m17c38ef269" style="stroke:#f5deb3;stroke-linejoin:miter;stroke-width:1.5;"/>
    </defs>
    <g>
     <use style="fill:#f5deb3;stroke:#f5deb3;stroke-linejoin:miter;stroke-width:1.5;" x="69.68283029254384" xlink:href="#m17c38ef269" y="379.0413817561139"/>
     <use style="fill:#f5deb3;stroke:#f5deb3;stroke-linejoin:miter;stroke-width:1.5;" x="121.71097973440841" xlink:href="#m17c38ef269" y="216.4647254882739"/>
     <use style="fill:#f5deb3;stroke:#f5deb3;stroke-linejoin:miter;stroke-width:1.5;" x="187.75419225667193" xlink:href="#m17c38ef269" y="141.76734287872583"/>
     <use style="fill:#f5deb3;stroke:#f5deb3;stroke-linejoin:miter;stroke-width:1.5;" x="255.65007019241534" xlink:href="#m17c38ef269" y="12.877741513231115"/>
     <use style="fill:#f5deb3;stroke:#f5deb3;stroke-linejoin:miter;stroke-width:1.5;" x="255.65007019241534" xlink:href="#m17c38ef269" y="11.413086952259562"/>
     <use style="fill:#f5deb3;stroke:#f5deb3;stroke-linejoin:miter;stroke-width:1.5;" x="420.3599999999999" xlink:href="#m17c38ef269" y="11.413086952259562"/>
    </g>
   </g>
   <g id="line2d_3">
    <path d="M -15676.38 758.386913 
" style="fill:none;stroke:#f5deb3;stroke-linecap:square;stroke-width:4.0;"/>
    <g>
     <use style="fill:#f5deb3;stroke:#f5deb3;stroke-linejoin:miter;stroke-width:1.5;" x="-15676.379999999994" xlink:href="#m17c38ef269" y="758.3869130477403"/>
    </g>
   </g>
   <g id="line2d_4">
    <path d="M 420.36 11.413087 
L 460.60185 18.882825 
" style="fill:none;stroke:#f5deb3;stroke-linecap:square;stroke-width:4.0;"/>
    <g>
     <use style="fill:#f5deb3;stroke:#f5deb3;stroke-linejoin:miter;stroke-width:1.5;" x="420.3599999999999" xlink:href="#m17c38ef269" y="11.413086952259562"/>
     <use style="fill:#f5deb3;stroke:#f5deb3;stroke-linejoin:miter;stroke-width:1.5;" x="460.60184999999996" xlink:href="#m17c38ef269" y="18.882825213214403"/>
    </g>
   </g>
   <g id="line2d_5">
    <defs>
     <path d="M 0 1.5 
C 0.397805 1.5 0.77937 1.341951 1.06066 1.06066 
C 1.341951 0.77937 1.5 0.397805 1.5 0 
C 1.5 -0.397805 1.341951 -0.77937 1.06066 -1.06066 
C 0.77937 -1.341951 0.397805 -1.5 0 -1.5 
C -0.397805 -1.5 -0.77937 -1.341951 -1.06066 -1.06066 
C -1.341951 -0.77937 -1.5 -0.397805 -1.5 0 
C -1.5 0.397805 -1.341951 0.77937 -1.06066 1.06066 
C -0.77937 1.341951 -0.397805 1.5 0 1.5 
z
" id="meff4ed14df" style="stroke:#f5deb3;stroke-width:0.5;"/>
    </defs>
    <g>
     <use style="fill:#f5deb3;stroke:#f5deb3;stroke-width:0.5;" x="255.65007019241534" xlink:href="#meff4ed14df" y="11.413086952259562"/>
     <use style="fill:#f5deb3;stroke:#f5deb3;stroke-width:0.5;" x="255.65007019241534" xlink:href="#meff4ed14df" y="11.413086952259562"/>
    </g>
   </g>
   <g id="line2d_6">
    <defs>
     <path d="M 0 1.5 
C 0.397805 1.5 0.77937 1.341951 1.06066 1.06066 
C 1.341951 0.77937 1.5 0.397805 1.5 0 
C 1.5 -0.397805 1.341951 -0.77937 1.06066 -1.06066 
C 0.77937 -1.341951 0.397805 -1.5 0 -1.5 
C -0.397805 -1.5 -0.77937 -1.341951 -1.06066 -1.06066 
C -1.341951 -0.77937 -1.5 -0.397805 -1.5 0 
C -1.5 0.397805 -1.341951 0.77937 -1.06066 1.06066 
C -0.77937 1.341951 -0.397805 1.5 0 1.5 
z
" id="m9c13bbf56f" style="stroke:#000080;stroke-width:0.5;"/>
    </defs>
    <g>
     <use style="fill:#000080;stroke:#000080;stroke-width:0.5;" x="340.01233660550287" xlink:href="#m9c13bbf56f" y="362.930181585427"/>
     <use style="fill:#000080;stroke:#000080;stroke-width:0.5;" x="340.01233660550287" xlink:href="#m9c13bbf56f" y="362.930181585427"/>
    </g>
   </g>
   <g id="line2d_7">
    <path d="M -1 384.314138 
L 75.771661 384.314138 
L 75.771661 384.167673 
L 88.663286 384.167673 
L 88.663286 384.021207 
L 95.753304 384.021207 
L 95.753304 383.728276 
L 107.786201 383.728276 
L 107.786201 383.435345 
L 110.155855 383.435345 
L 110.155855 383.28888 
L 110.830555 383.28888 
L 110.830555 383.142415 
L 112.566798 383.142415 
L 112.566798 382.995949 
L 121.235629 382.995949 
L 121.235629 382.849484 
L 125.393817 382.849484 
L 125.443756 382.117156 
L 127.447747 382.117156 
L 127.447747 381.970691 
L 131.646738 381.970691 
L 131.646738 381.531295 
L 134.328512 381.531295 
L 134.328512 381.238364 
L 138.195274 381.238364 
L 138.195274 381.091898 
L 139.919938 381.091898 
L 139.919938 380.945433 
L 140.441136 380.945433 
L 140.441136 380.798967 
L 141.076241 380.798967 
L 141.076241 380.652502 
L 141.620801 380.652502 
L 141.620801 380.506036 
L 142.973776 380.506036 
L 142.973776 380.359571 
L 143.271373 380.359571 
L 143.271373 380.06664 
L 144.83125 380.06664 
L 144.83125 379.920174 
L 145.624062 379.920174 
L 145.624062 379.773709 
L 145.807846 379.773709 
L 145.868778 379.334313 
L 146.01032 379.334313 
L 146.01032 379.041382 
L 146.587482 379.041382 
L 146.587482 378.894916 
L 151.37143 378.894916 
L 151.37143 378.748451 
L 152.909766 378.748451 
L 152.909766 378.601985 
L 153.526017 378.601985 
L 153.526017 378.45552 
L 153.699058 378.45552 
L 153.699058 378.162589 
L 154.99719 378.162589 
L 154.99719 377.723193 
L 155.400586 377.723193 
L 155.400586 377.430262 
L 156.314865 377.430262 
L 156.314865 377.137331 
L 157.450896 377.137331 
L 157.450896 376.8444 
L 158.798234 376.8444 
L 158.901273 376.551469 
L 159.026577 376.551469 
L 159.026577 376.405004 
L 160.764537 376.405004 
L 160.764537 376.112073 
L 160.890458 376.112073 
L 160.890458 375.965607 
L 161.057273 375.965607 
L 161.119514 375.672676 
L 162.997532 375.672676 
L 162.997532 375.526211 
L 163.215821 375.526211 
L 163.215821 375.086814 
L 163.673987 375.086814 
L 163.673987 374.940349 
L 163.803211 374.940349 
L 163.803211 374.793884 
L 164.050369 374.793884 
L 164.050369 374.647418 
L 164.303871 374.647418 
L 164.303871 374.500953 
L 164.527843 374.500953 
L 164.572373 373.915091 
L 164.881664 373.915091 
L 164.881664 373.768625 
L 166.326748 373.768625 
L 166.326748 373.475694 
L 166.466322 373.475694 
L 166.466322 373.329229 
L 167.985835 373.329229 
L 167.985835 373.182764 
L 168.244625 373.182764 
L 168.244625 372.889833 
L 168.686816 372.889833 
L 168.686816 372.743367 
L 168.864254 372.743367 
L 168.864254 372.596902 
L 169.337964 372.596902 
L 169.366795 372.157505 
L 169.984974 372.157505 
L 169.984974 372.01104 
L 170.945699 372.01104 
L 170.945699 371.864574 
L 171.139722 371.864574 
L 171.192954 371.425178 
L 171.89964 371.425178 
L 171.89964 371.278713 
L 172.67233 371.278713 
L 172.67233 371.132247 
L 172.80272 371.132247 
L 172.852196 370.546385 
L 173.623518 370.546385 
L 173.623518 370.39992 
L 174.742004 370.39992 
L 174.742004 370.253454 
L 175.474685 370.253454 
L 175.474685 370.106989 
L 175.970073 370.106989 
L 175.970073 369.960523 
L 176.42851 369.960523 
L 176.42851 369.667593 
L 177.333723 369.667593 
L 177.333723 369.374662 
L 180.592183 369.374662 
L 180.592183 369.228196 
L 248.454192 369.228196 
L 248.564385 368.935265 
L 248.603266 368.935265 
L 248.603266 368.7888 
L 248.758343 368.7888 
L 248.856658 368.495869 
L 248.984568 368.495869 
L 248.984568 368.202938 
L 263.820193 368.202938 
L 263.897297 367.910007 
L 264.017916 367.910007 
L 264.026484 367.324145 
L 272.94119 367.324145 
L 272.982688 366.738283 
L 273.073672 366.738283 
L 273.093154 366.445353 
L 284.46974 366.445353 
L 284.577549 366.152422 
L 284.604118 366.152422 
L 284.604118 366.005956 
L 288.658034 366.005956 
L 288.703574 365.56656 
L 297.813288 365.56656 
L 297.813288 365.420094 
L 300.152781 365.420094 
L 300.192809 365.127163 
L 302.311552 365.127163 
L 302.322937 364.687767 
L 304.293152 364.687767 
L 304.293152 364.541302 
L 306.127095 364.541302 
L 306.148199 364.248371 
L 309.34754 364.248371 
L 309.34754 364.101905 
L 310.809797 364.101905 
L 310.827011 363.808974 
L 314.697589 363.808974 
L 314.726101 363.369578 
L 319.999775 363.369578 
L 319.999775 363.223112 
L 327.89405 363.223112 
L 327.89405 363.076647 
L 340.012337 363.076647 
L 340.012337 362.930182 
L 420.36 362.930182 
L 420.36 362.930182 
" style="fill:none;stroke:#000080;stroke-linecap:square;stroke-width:1.5;"/>
   </g>
   <g id="line2d_8">
    <defs>
     <path d="M 0 6 
C 1.591219 6 3.117479 5.367802 4.242641 4.242641 
C 5.367802 3.117479 6 1.591219 6 0 
C 6 -1.591219 5.367802 -3.117479 4.242641 -4.242641 
C 3.117479 -5.367802 1.591219 -6 0 -6 
C -1.591219 -6 -3.117479 -5.367802 -4.242641 -4.242641 
C -5.367802 -3.117479 -6 -1.591219 -6 0 
C -6 1.591219 -5.367802 3.117479 -4.242641 4.242641 
C -3.117479 5.367802 -1.591219 6 0 6 
z
" id="m3e455f5935" style="stroke:#000080;stroke-width:1.5;"/>
    </defs>
    <g>
     <use style="fill:none;stroke:#000080;stroke-width:1.5;" x="95.75330399709995" xlink:href="#m3e455f5935" y="384.02120726341707"/>
     <use style="fill:none;stroke:#000080;stroke-width:1.5;" x="180.59218344511777" xlink:href="#m3e455f5935" y="369.37466165370176"/>
     <use style="fill:none;stroke:#000080;stroke-width:1.5;" x="297.8132882183667" xlink:href="#m3e455f5935" y="365.56655979517575"/>
     <use style="fill:none;stroke:#000080;stroke-width:1.5;" x="340.01233660550287" xlink:href="#m3e455f5935" y="362.930181585427"/>
     <use style="fill:none;stroke:#000080;stroke-width:1.5;" x="340.01233660550287" xlink:href="#m3e455f5935" y="362.930181585427"/>
     <use style="fill:none;stroke:#000080;stroke-width:1.5;" x="420.3599999999999" xlink:href="#m3e455f5935" y="362.930181585427"/>
    </g>
   </g>
   <g id="line2d_9">
    <path d="M -15676.38 758.386913 
" style="fill:none;stroke:#000080;stroke-linecap:square;stroke-width:1.5;"/>
    <g>
     <use style="fill:none;stroke:#000080;stroke-width:1.5;" x="-15676.379999999994" xlink:href="#m3e455f5935" y="758.3869130477403"/>
    </g>
   </g>
   <g id="line2d_10">
    <path clip-path="url(#p58c844fbeb)" d="M 247.841099 369.228196 
" style="fill:none;stroke:#000080;stroke-linecap:square;"/>
    <defs>
     <path d="M -12 12 
L 12 -12 
M -12 -12 
L 12 12 
" id="m830f478c9b" style="stroke:#000080;"/>
    </defs>
    <g clip-path="url(#p58c844fbeb)">
     <use style="fill:#000080;stroke:#000080;" x="247.8410987908953" xlink:href="#m830f478c9b" y="369.2281961976046"/>
    </g>
   </g>
   <g id="line2d_11">
    <defs>
     <path d="M 0 1.5 
C 0.397805 1.5 0.77937 1.341951 1.06066 1.06066 
C 1.341951 0.77937 1.5 0.397805 1.5 0 
C 1.5 -0.397805 1.341951 -0.77937 1.06066 -1.06066 
C 0.77937 -1.341951 0.397805 -1.5 0 -1.5 
C -0.397805 -1.5 -0.77937 -1.341951 -1.06066 -1.06066 
C -1.341951 -0.77937 -1.5 -0.397805 -1.5 0 
C -1.5 0.397805 -1.341951 0.77937 -1.06066 1.06066 
C -0.77937 1.341951 -0.397805 1.5 0 1.5 
z
" id="m7a990e2052" style="stroke:#ff00ff;stroke-width:0.5;"/>
    </defs>
    <g>
     <use style="fill:#ff00ff;stroke:#ff00ff;stroke-width:0.5;" x="330.41175023253163" xlink:href="#m7a990e2052" y="361.46552702445547"/>
     <use style="fill:#ff00ff;stroke:#ff00ff;stroke-width:0.5;" x="330.41175023253163" xlink:href="#m7a990e2052" y="361.46552702445547"/>
    </g>
   </g>
   <g id="line2d_12">
    <path d="M -1 384.460604 
L 23.060055 384.460604 
L 23.060055 384.314138 
L 77.894437 384.314138 
L 77.894437 384.167673 
L 83.91163 384.167673 
L 83.91163 384.021207 
L 93.217941 384.021207 
L 93.217941 383.728276 
L 96.834325 383.728276 
L 96.834325 383.581811 
L 107.125072 383.581811 
L 107.125072 383.28888 
L 108.847009 383.28888 
L 108.847009 383.142415 
L 110.925324 383.142415 
L 110.925324 382.849484 
L 114.097524 382.849484 
L 114.097524 382.556553 
L 117.596306 382.556553 
L 117.596306 382.410087 
L 125.98595 382.410087 
L 125.98595 382.117156 
L 128.561669 382.117156 
L 128.561669 381.970691 
L 128.73493 381.970691 
L 128.73493 381.67776 
L 129.747611 381.67776 
L 129.747611 381.531295 
L 130.478531 381.531295 
L 130.478531 381.238364 
L 133.363996 381.238364 
L 133.363996 381.091898 
L 133.504319 381.091898 
L 133.504319 380.945433 
L 134.125252 380.945433 
L 134.125252 380.798967 
L 135.221305 380.798967 
L 135.221305 380.652502 
L 136.968102 380.652502 
L 137.057992 380.213105 
L 137.26636 380.213105 
L 137.26636 380.06664 
L 138.166814 380.06664 
L 138.166814 379.627244 
L 140.051364 379.627244 
L 140.051364 379.480778 
L 142.342935 379.480778 
L 142.342935 379.334313 
L 143.810737 379.334313 
L 143.810737 379.187847 
L 144.097628 379.187847 
L 144.097628 379.041382 
L 146.409928 379.041382 
L 146.409928 378.894916 
L 147.360226 378.894916 
L 147.360226 378.748451 
L 148.919836 378.748451 
L 148.919836 378.601985 
L 150.178717 378.601985 
L 150.178717 378.45552 
L 151.718923 378.45552 
L 151.718923 378.309054 
L 152.443936 378.309054 
L 152.443936 378.162589 
L 153.058017 378.162589 
L 153.16122 377.576727 
L 153.742113 377.576727 
L 153.742113 377.430262 
L 155.064922 377.430262 
L 155.064922 377.137331 
L 156.933629 377.137331 
L 157.033069 376.8444 
L 157.377718 376.8444 
L 157.377718 376.551469 
L 158.146373 376.551469 
L 158.146373 376.258538 
L 159.69814 376.258538 
L 159.731202 375.526211 
L 160.722408 375.526211 
L 160.722408 375.379745 
L 161.005275 375.379745 
L 161.005275 375.086814 
L 162.211614 375.086814 
L 162.211614 374.940349 
L 163.441385 374.940349 
L 163.441385 374.793884 
L 164.411653 374.793884 
L 164.411653 374.500953 
L 165.658153 374.500953 
L 165.658153 374.354487 
L 165.810313 374.354487 
L 165.810313 374.208022 
L 166.968206 374.208022 
L 167.024179 373.475694 
L 167.467065 373.475694 
L 167.467065 373.329229 
L 169.581867 373.329229 
L 169.581867 373.182764 
L 169.738302 373.182764 
L 169.738302 373.036298 
L 170.019996 373.036298 
L 170.019996 372.889833 
L 170.736445 372.889833 
L 170.777097 372.450436 
L 170.898616 372.450436 
L 171.006091 372.01104 
L 171.963974 372.01104 
L 171.963974 371.864574 
L 172.346198 371.864574 
L 172.346198 371.718109 
L 172.92005 371.718109 
L 173.024518 371.425178 
L 173.425603 371.425178 
L 173.425603 371.132247 
L 175.759086 371.132247 
L 175.759086 370.985782 
L 176.607229 370.985782 
L 176.607229 370.839316 
L 177.01199 370.839316 
L 177.01199 370.546385 
L 177.590875 370.546385 
L 177.590875 370.39992 
L 178.572102 370.39992 
L 178.572102 370.106989 
L 179.276496 370.106989 
L 179.276496 369.814058 
L 179.801044 369.814058 
L 179.801044 369.667593 
L 180.644835 369.667593 
L 180.644835 369.521127 
L 181.305649 369.521127 
L 181.305649 369.374662 
L 183.452661 369.374662 
L 183.452661 368.935265 
L 248.51927 368.935265 
L 248.565484 368.642334 
L 248.742425 368.642334 
L 248.836899 368.056473 
L 249.011098 368.056473 
L 249.048791 367.617076 
L 263.840279 367.617076 
L 263.941557 367.031214 
L 263.978598 367.031214 
L 263.978598 366.738283 
L 264.109542 366.738283 
L 264.174068 366.152422 
L 272.985237 366.152422 
L 272.985237 366.005956 
L 273.129087 366.005956 
L 273.179981 365.56656 
L 279.568657 365.56656 
L 279.568657 365.420094 
L 284.472135 365.420094 
L 284.560764 365.127163 
L 284.603893 365.127163 
L 284.603893 364.980698 
L 288.701811 364.980698 
L 288.701811 364.834233 
L 292.077468 364.834233 
L 292.140898 364.394836 
L 295.111088 364.394836 
L 295.17982 363.95544 
L 297.764001 363.95544 
L 297.837453 363.662509 
L 300.149225 363.662509 
L 300.149225 363.369578 
L 302.31672 363.369578 
L 302.31672 363.223112 
L 304.278163 363.223112 
L 304.286659 362.930182 
L 306.114141 362.930182 
L 306.114141 362.783716 
L 309.372026 362.783716 
L 309.372026 362.637251 
L 310.796169 362.637251 
L 310.796169 362.490785 
L 312.209101 362.490785 
L 312.209101 362.34432 
L 314.696575 362.34432 
L 314.706811 362.051389 
L 315.859058 362.051389 
L 315.859058 361.904923 
L 318.014702 361.904923 
L 318.014702 361.758458 
L 319.98751 361.758458 
L 319.98751 361.611992 
L 330.41175 361.611992 
L 330.41175 361.465527 
L 420.36 361.465527 
L 420.36 361.465527 
" style="fill:none;stroke:#ff00ff;stroke-linecap:square;stroke-width:1.5;"/>
   </g>
   <g id="line2d_13">
    <defs>
     <path d="M -0 8.485281 
L 5.091169 0 
L 0 -8.485281 
L -5.091169 -0 
z
" id="mbd3af1771d" style="stroke:#ff00ff;stroke-linejoin:miter;stroke-width:1.5;"/>
    </defs>
    <g>
     <use style="fill:none;stroke:#ff00ff;stroke-linejoin:miter;stroke-width:1.5;" x="83.91163000977635" xlink:href="#mbd3af1771d" y="384.1676727195142"/>
     <use style="fill:none;stroke:#ff00ff;stroke-linejoin:miter;stroke-width:1.5;" x="170.01999550057775" xlink:href="#mbd3af1771d" y="372.8898326000334"/>
     <use style="fill:none;stroke:#ff00ff;stroke-linejoin:miter;stroke-width:1.5;" x="273.17998133244294" xlink:href="#mbd3af1771d" y="365.56655979517575"/>
     <use style="fill:none;stroke:#ff00ff;stroke-linejoin:miter;stroke-width:1.5;" x="330.41175023253163" xlink:href="#mbd3af1771d" y="361.46552702445547"/>
     <use style="fill:none;stroke:#ff00ff;stroke-linejoin:miter;stroke-width:1.5;" x="330.41175023253163" xlink:href="#mbd3af1771d" y="361.46552702445547"/>
     <use style="fill:none;stroke:#ff00ff;stroke-linejoin:miter;stroke-width:1.5;" x="420.3599999999999" xlink:href="#mbd3af1771d" y="361.46552702445547"/>
    </g>
   </g>
   <g id="line2d_14">
    <path d="M -15676.38 758.386913 
" style="fill:none;stroke:#ff00ff;stroke-linecap:square;stroke-width:1.5;"/>
    <g>
     <use style="fill:none;stroke:#ff00ff;stroke-linejoin:miter;stroke-width:1.5;" x="-15676.379999999994" xlink:href="#mbd3af1771d" y="758.3869130477403"/>
    </g>
   </g>
   <g id="line2d_15">
    <path clip-path="url(#p58c844fbeb)" d="M 247.831564 368.935265 
" style="fill:none;stroke:#ff00ff;stroke-linecap:square;"/>
    <defs>
     <path d="M -12 12 
L 12 -12 
M -12 -12 
L 12 12 
" id="m6360e03c94" style="stroke:#ff00ff;"/>
    </defs>
    <g clip-path="url(#p58c844fbeb)">
     <use style="fill:#ff00ff;stroke:#ff00ff;" x="247.83156398113786" xlink:href="#m6360e03c94" y="368.9352652854103"/>
    </g>
   </g>
   <g id="line2d_16">
    <defs>
     <path d="M 0 1.5 
C 0.397805 1.5 0.77937 1.341951 1.06066 1.06066 
C 1.341951 0.77937 1.5 0.397805 1.5 0 
C 1.5 -0.397805 1.341951 -0.77937 1.06066 -1.06066 
C 0.77937 -1.341951 0.397805 -1.5 0 -1.5 
C -0.397805 -1.5 -0.77937 -1.341951 -1.06066 -1.06066 
C -1.341951 -0.77937 -1.5 -0.397805 -1.5 0 
C -1.5 0.397805 -1.341951 0.77937 -1.06066 1.06066 
C -0.77937 1.341951 -0.397805 1.5 0 1.5 
z
" id="ma99d5ed7df" style="stroke:#ffa500;stroke-width:0.5;"/>
    </defs>
    <g>
     <use style="fill:#ffa500;stroke:#ffa500;stroke-width:0.5;" x="335.23326733219363" xlink:href="#ma99d5ed7df" y="292.6267626587935"/>
     <use style="fill:#ffa500;stroke:#ffa500;stroke-width:0.5;" x="335.23326733219363" xlink:href="#ma99d5ed7df" y="292.6267626587935"/>
    </g>
   </g>
   <g id="line2d_17">
    <path d="M -1 384.314138 
L 111.760897 384.314138 
L 111.760897 384.167673 
L 114.505024 384.167673 
L 114.505024 384.021207 
L 119.938295 384.021207 
L 119.938295 383.728276 
L 125.493585 383.728276 
L 125.493585 383.581811 
L 126.32436 383.581811 
L 126.32436 383.435345 
L 141.176228 383.435345 
L 141.176228 383.28888 
L 143.542657 383.28888 
L 143.542657 382.995949 
L 145.909309 382.995949 
L 145.909309 382.849484 
L 146.211003 382.849484 
L 146.211003 382.410087 
L 147.867341 382.410087 
L 147.867341 382.263622 
L 148.616369 382.263622 
L 148.616369 382.117156 
L 149.925681 382.117156 
L 149.925681 381.970691 
L 150.953777 381.970691 
L 150.969984 381.67776 
L 151.06698 381.67776 
L 151.06698 381.531295 
L 154.083644 381.531295 
L 154.083644 381.238364 
L 154.489586 381.238364 
L 154.489586 381.091898 
L 155.612835 381.091898 
L 155.612835 380.798967 
L 155.731358 380.798967 
L 155.731358 380.652502 
L 156.733433 380.652502 
L 156.733433 380.359571 
L 157.377718 380.359571 
L 157.377718 380.213105 
L 157.49955 380.213105 
L 157.49955 380.06664 
L 158.369645 380.06664 
L 158.369645 379.920174 
L 158.671659 379.920174 
L 158.671659 379.627244 
L 159.241396 379.627244 
L 159.241396 379.480778 
L 160.199875 379.480778 
L 160.199875 379.334313 
L 161.15057 379.334313 
L 161.243486 379.041382 
L 161.397505 379.041382 
L 161.397505 378.748451 
L 161.519972 378.748451 
L 161.519972 378.45552 
L 162.310127 378.45552 
L 162.310127 378.309054 
L 162.535095 378.309054 
L 162.535095 378.162589 
L 162.863625 378.162589 
L 162.863625 377.869658 
L 162.987993 377.869658 
L 162.987993 377.723193 
L 163.385204 377.723193 
L 163.385204 377.576727 
L 164.10493 377.576727 
L 164.10493 377.430262 
L 164.916744 377.430262 
L 164.916744 377.283796 
L 165.160802 377.283796 
L 165.160802 377.137331 
L 165.994912 377.137331 
L 166.061669 376.8444 
L 166.613177 376.8444 
L 166.613177 376.697934 
L 166.863888 376.697934 
L 166.863888 376.405004 
L 167.048126 376.405004 
L 167.103902 375.819142 
L 167.199202 375.819142 
L 167.199202 375.672676 
L 167.615387 375.672676 
L 167.615387 375.526211 
L 168.478037 375.526211 
L 168.478037 375.379745 
L 168.619918 375.379745 
L 168.62736 374.647418 
L 169.178736 374.647418 
L 169.200514 374.208022 
L 169.581867 374.208022 
L 169.581867 374.061556 
L 169.717033 374.061556 
L 169.717033 373.915091 
L 169.851399 373.915091 
L 169.851399 373.768625 
L 170.012996 373.768625 
L 170.012996 373.475694 
L 170.675331 373.475694 
L 170.675331 373.329229 
L 170.837938 373.329229 
L 170.837938 373.182764 
L 171.179658 373.182764 
L 171.179658 373.036298 
L 171.312274 373.036298 
L 171.338704 372.743367 
L 171.938262 372.743367 
L 171.983239 372.157505 
L 172.238553 372.157505 
L 172.238553 372.01104 
L 172.365141 372.01104 
L 172.365141 371.864574 
L 172.895399 371.864574 
L 172.895399 371.425178 
L 173.225946 371.425178 
L 173.304809 370.253454 
L 173.635458 370.253454 
L 173.635458 369.960523 
L 175.220093 369.960523 
L 175.220093 369.814058 
L 175.358812 369.814058 
L 175.46918 369.521127 
L 175.513178 369.521127 
L 175.513178 369.228196 
L 175.650122 369.228196 
L 175.693771 368.7888 
L 175.905363 368.7888 
L 175.991603 368.495869 
L 176.633392 368.495869 
L 176.696063 368.056473 
L 177.109502 368.056473 
L 177.216793 367.617076 
L 177.369192 367.617076 
L 177.369192 367.470611 
L 177.610921 367.470611 
L 177.610921 364.394836 
L 177.730827 364.394836 
L 177.730827 364.248371 
L 177.91445 364.248371 
L 177.949023 358.682683 
L 178.091695 358.682683 
L 178.091695 358.536218 
L 178.398583 358.536218 
L 178.485508 358.243287 
L 178.763358 358.243287 
L 178.863126 352.6776 
L 178.910481 352.6776 
L 178.915211 352.384669 
L 179.028437 352.384669 
L 179.131735 346.526051 
L 179.346212 346.526051 
L 179.346212 343.450276 
L 179.72815 343.450276 
L 179.769181 335.394676 
L 179.85556 335.394676 
L 179.946132 330.707781 
L 180.05884 330.707781 
L 180.144126 322.798647 
L 180.675492 322.798647 
L 180.758496 318.111752 
L 181.126157 318.111752 
L 181.126157 313.278392 
L 181.32267 313.278392 
L 181.32267 309.323825 
L 181.47106 309.323825 
L 181.572255 308.884428 
L 181.93535 308.884428 
L 182.034501 304.490465 
L 182.112689 304.490465 
L 182.112689 304.343999 
L 182.588316 304.343999 
L 182.588316 304.197534 
L 183.266012 304.197534 
L 183.266012 304.051068 
L 183.68 304.051068 
L 183.687667 299.950035 
L 185.713942 299.950035 
L 185.713942 299.80357 
L 186.209752 299.80357 
L 186.209752 299.510639 
L 186.715097 299.510639 
L 186.715097 299.364174 
L 188.075511 299.364174 
L 188.154348 299.071243 
L 188.781502 299.071243 
L 188.781502 298.924777 
L 189.878398 298.924777 
L 189.878398 298.778312 
L 190.798989 298.778312 
L 190.89684 298.338915 
L 191.152054 298.338915 
L 191.215411 297.899519 
L 191.761702 297.899519 
L 191.761702 297.753054 
L 192.041934 297.753054 
L 192.041934 297.606588 
L 192.612929 297.606588 
L 192.612929 297.460123 
L 192.767595 297.460123 
L 192.767595 297.313657 
L 193.794723 297.313657 
L 193.870711 297.020726 
L 194.746788 297.020726 
L 194.746788 296.874261 
L 194.967036 296.874261 
L 194.967036 296.727795 
L 195.588033 296.727795 
L 195.588033 296.58133 
L 197.721583 296.58133 
L 197.721583 296.434865 
L 249.519702 296.434865 
L 249.600292 296.141934 
L 249.929552 296.141934 
L 249.988269 295.556072 
L 264.167657 295.556072 
L 264.167657 295.409606 
L 264.662156 295.409606 
L 264.767055 295.116675 
L 279.721436 295.116675 
L 279.812513 294.823745 
L 284.597332 294.823745 
L 284.699394 294.384348 
L 292.163613 294.384348 
L 292.163613 294.237883 
L 295.236366 294.237883 
L 295.236366 294.091417 
L 300.25733 294.091417 
L 300.25733 293.944952 
L 304.366292 293.944952 
L 304.366292 293.798486 
L 307.80742 293.798486 
L 307.80742 293.652021 
L 309.401759 293.652021 
L 309.401759 293.505555 
L 315.902029 293.505555 
L 315.902029 293.35909 
L 318.03387 293.35909 
L 318.057303 293.066159 
L 319.040337 293.066159 
L 319.040337 292.919694 
L 320.025549 292.919694 
L 320.025549 292.773228 
L 335.233267 292.773228 
L 335.233267 292.626763 
L 420.36 292.626763 
L 420.36 292.626763 
" style="fill:none;stroke:#ffa500;stroke-linecap:square;stroke-width:1.5;"/>
   </g>
   <g id="line2d_18">
    <defs>
     <path d="M 0 -6 
L -1.347084 -1.854102 
L -5.706339 -1.854102 
L -2.179628 0.708204 
L -3.526712 4.854102 
L -0 2.291796 
L 3.526712 4.854102 
L 2.179628 0.708204 
L 5.706339 -1.854102 
L 1.347084 -1.854102 
z
" id="m08db82d34e" style="stroke:#ffa500;stroke-linejoin:bevel;stroke-width:1.5;"/>
    </defs>
    <g>
     <use style="fill:none;stroke:#ffa500;stroke-linejoin:bevel;stroke-width:1.5;" x="180.75849581471738" xlink:href="#m08db82d34e" y="318.11175201969814"/>
     <use style="fill:none;stroke:#ffa500;stroke-linejoin:bevel;stroke-width:1.5;" x="279.8125125084233" xlink:href="#m08db82d34e" y="294.8237445002508"/>
     <use style="fill:none;stroke:#ffa500;stroke-linejoin:bevel;stroke-width:1.5;" x="335.23326733219363" xlink:href="#m08db82d34e" y="292.7732281148907"/>
     <use style="fill:none;stroke:#ffa500;stroke-linejoin:bevel;stroke-width:1.5;" x="335.23326733219363" xlink:href="#m08db82d34e" y="292.6267626587935"/>
     <use style="fill:none;stroke:#ffa500;stroke-linejoin:bevel;stroke-width:1.5;" x="420.3599999999999" xlink:href="#m08db82d34e" y="292.6267626587935"/>
    </g>
   </g>
   <g id="line2d_19">
    <path d="M -15676.38 758.386913 
" style="fill:none;stroke:#ffa500;stroke-linecap:square;stroke-width:1.5;"/>
    <g>
     <use style="fill:none;stroke:#ffa500;stroke-linejoin:bevel;stroke-width:1.5;" x="-15676.379999999994" xlink:href="#m08db82d34e" y="758.3869130477403"/>
    </g>
   </g>
   <g id="line2d_20">
    <path clip-path="url(#p58c844fbeb)" d="M 247.819299 296.434865 
" style="fill:none;stroke:#ffa500;stroke-linecap:square;"/>
    <defs>
     <path d="M -12 12 
L 12 -12 
M -12 -12 
L 12 12 
" id="m02123cc28e" style="stroke:#ffa500;"/>
    </defs>
    <g clip-path="url(#p58c844fbeb)">
     <use style="fill:#ffa500;stroke:#ffa500;" x="247.8192990515003" xlink:href="#m02123cc28e" y="296.4348645173195"/>
    </g>
   </g>
   <g id="line2d_21">
    <defs>
     <path d="M 0 1.5 
C 0.397805 1.5 0.77937 1.341951 1.06066 1.06066 
C 1.341951 0.77937 1.5 0.397805 1.5 0 
C 1.5 -0.397805 1.341951 -0.77937 1.06066 -1.06066 
C 0.77937 -1.341951 0.397805 -1.5 0 -1.5 
C -0.397805 -1.5 -0.77937 -1.341951 -1.06066 -1.06066 
C -1.341951 -0.77937 -1.5 -0.397805 -1.5 0 
C -1.5 0.397805 -1.341951 0.77937 -1.06066 1.06066 
C -0.77937 1.341951 -0.397805 1.5 0 1.5 
z
" id="m6aa7c8727e" style="stroke:#6495ed;stroke-width:0.5;"/>
    </defs>
    <g>
     <use style="fill:#6495ed;stroke:#6495ed;stroke-width:0.5;" x="335.3273085073572" xlink:href="#m6aa7c8727e" y="292.6267626587935"/>
     <use style="fill:#6495ed;stroke:#6495ed;stroke-width:0.5;" x="335.3273085073572" xlink:href="#m6aa7c8727e" y="292.6267626587935"/>
    </g>
   </g>
   <g id="line2d_22">
    <path d="M -1 384.314138 
L 123.464309 384.314138 
L 123.464309 384.167673 
L 127.032965 384.167673 
L 127.032965 383.874742 
L 131.798053 383.874742 
L 131.798053 383.581811 
L 133.009345 383.581811 
L 133.009345 383.28888 
L 138.72935 383.28888 
L 138.72935 383.142415 
L 148.884344 383.142415 
L 148.884344 382.849484 
L 155.559958 382.849484 
L 155.559958 382.703018 
L 157.119724 382.703018 
L 157.119724 382.410087 
L 161.479223 382.410087 
L 161.479223 382.263622 
L 165.021662 382.263622 
L 165.082641 381.970691 
L 167.072047 381.970691 
L 167.072047 381.824225 
L 167.74728 381.824225 
L 167.74728 381.531295 
L 169.596133 381.531295 
L 169.596133 381.384829 
L 169.709939 381.384829 
L 169.709939 381.238364 
L 170.945699 381.238364 
L 170.945699 381.091898 
L 171.206243 381.091898 
L 171.206243 380.945433 
L 172.821286 380.945433 
L 172.821286 380.652502 
L 173.724805 380.652502 
L 173.801956 380.359571 
L 174.770407 380.359571 
L 174.849748 380.06664 
L 174.996364 380.06664 
L 174.996364 379.920174 
L 175.236784 379.920174 
L 175.236784 379.627244 
L 176.280266 379.627244 
L 176.386253 379.041382 
L 177.232079 379.041382 
L 177.272791 378.601985 
L 177.909507 378.601985 
L 177.909507 378.309054 
L 179.215902 378.309054 
L 179.215902 378.162589 
L 179.517268 378.162589 
L 179.517268 378.016124 
L 179.76007 378.016124 
L 179.76007 377.869658 
L 180.340407 377.869658 
L 180.340407 377.723193 
L 180.460018 377.723193 
L 180.486513 377.137331 
L 182.700679 377.137331 
L 182.772619 376.697934 
L 182.927712 376.697934 
L 182.998937 376.405004 
L 183.733613 376.405004 
L 183.733613 376.258538 
L 183.931643 376.258538 
L 183.931643 375.819142 
L 184.42671 375.819142 
L 184.500787 375.23328 
L 184.666581 375.23328 
L 184.666581 374.940349 
L 184.812944 374.940349 
L 184.889409 374.647418 
L 185.321474 374.647418 
L 185.321474 374.354487 
L 185.442412 374.354487 
L 185.442412 374.061556 
L 186.271402 374.061556 
L 186.370374 373.768625 
L 186.932072 373.768625 
L 187.028212 373.475694 
L 187.156864 373.475694 
L 187.156864 373.182764 
L 188.270527 373.182764 
L 188.270527 372.889833 
L 189.652613 372.889833 
L 189.652613 372.743367 
L 189.811191 372.743367 
L 189.872562 372.303971 
L 190.029617 372.303971 
L 190.127948 371.864574 
L 190.222982 371.864574 
L 190.222982 368.202938 
L 190.377638 368.202938 
L 190.448883 367.763542 
L 191.118927 367.763542 
L 191.174111 367.470611 
L 191.259382 367.470611 
L 191.259382 367.324145 
L 191.379864 367.324145 
L 191.475248 366.591818 
L 191.534999 366.591818 
L 191.534999 366.445353 
L 191.796586 366.445353 
L 191.796586 366.152422 
L 191.908922 366.152422 
L 191.991481 361.758458 
L 192.086981 361.758458 
L 192.142505 353.702858 
L 192.775301 353.702858 
L 192.824043 348.723032 
L 192.959457 348.723032 
L 193.043366 348.283636 
L 193.368426 348.283636 
L 193.368426 347.84424 
L 193.777529 347.84424 
L 193.777529 347.551309 
L 194.118956 347.551309 
L 194.118956 347.404843 
L 194.234845 347.404843 
L 194.326172 343.596741 
L 194.388448 343.596741 
L 194.388448 343.30381 
L 194.742078 343.30381 
L 194.742078 339.495709 
L 195.104194 339.495709 
L 195.199021 338.909847 
L 195.371466 338.909847 
L 195.371466 338.763381 
L 195.553975 338.763381 
L 195.569875 338.031054 
L 195.674084 338.031054 
L 195.719244 332.758298 
L 195.795809 332.758298 
L 195.800305 327.632007 
L 196.276285 327.632007 
L 196.276285 327.485541 
L 196.580186 327.485541 
L 196.580186 323.677439 
L 196.787724 323.677439 
L 196.787724 319.429941 
L 197.038122 319.429941 
L 197.125219 315.035977 
L 197.165468 315.035977 
L 197.201419 311.960203 
L 197.875951 311.960203 
L 197.966028 311.374341 
L 198.616547 311.374341 
L 198.616547 306.687446 
L 200.737905 306.687446 
L 200.737905 302.293483 
L 200.975348 302.293483 
L 200.975348 302.000552 
L 201.802899 302.000552 
L 201.802899 301.854086 
L 202.67783 301.854086 
L 202.67783 301.41469 
L 204.46646 301.41469 
L 204.46646 301.268225 
L 205.085478 301.268225 
L 205.085478 301.121759 
L 205.281708 301.121759 
L 205.281708 300.975294 
L 205.421892 300.975294 
L 205.421892 300.828828 
L 205.565601 300.828828 
L 205.567063 300.389432 
L 206.535664 300.389432 
L 206.535664 300.096501 
L 208.098338 300.096501 
L 208.098338 299.950035 
L 209.660619 299.950035 
L 209.660619 299.657105 
L 210.134072 299.657105 
L 210.134072 299.364174 
L 210.434481 299.364174 
L 210.434481 299.217708 
L 210.62477 299.217708 
L 210.62477 299.071243 
L 211.60235 299.071243 
L 211.60235 298.924777 
L 213.655554 298.924777 
L 213.655554 298.485381 
L 214.870117 298.485381 
L 214.870117 298.338915 
L 215.002643 298.338915 
L 215.002643 298.19245 
L 217.236652 298.19245 
L 217.236652 298.045985 
L 217.385635 298.045985 
L 217.385635 297.753054 
L 219.160589 297.753054 
L 219.160589 297.606588 
L 220.724443 297.606588 
L 220.724443 297.313657 
L 221.202124 297.313657 
L 221.202124 297.020726 
L 226.416237 297.020726 
L 226.416237 296.434865 
L 251.485389 296.434865 
L 251.485389 296.288399 
L 253.674706 296.288399 
L 253.752682 295.995468 
L 254.432487 295.995468 
L 254.438768 295.702537 
L 274.586375 295.702537 
L 274.586375 295.556072 
L 280.257105 295.556072 
L 280.257105 295.409606 
L 280.460841 295.409606 
L 280.460841 295.263141 
L 292.788611 295.263141 
L 292.788611 294.97021 
L 295.507915 294.97021 
L 295.507915 294.677279 
L 298.127101 294.677279 
L 298.127101 294.237883 
L 300.739012 294.237883 
L 300.739012 294.091417 
L 304.690924 294.091417 
L 304.690924 293.944952 
L 317.109133 293.944952 
L 317.109133 293.798486 
L 318.156461 293.798486 
L 318.156461 293.652021 
L 320.18852 293.652021 
L 320.18852 293.505555 
L 321.987094 293.505555 
L 321.987094 293.35909 
L 324.443033 293.35909 
L 324.443033 293.212624 
L 325.205976 293.212624 
L 325.205976 293.066159 
L 327.299465 293.066159 
L 327.299465 292.919694 
L 331.11718 292.919694 
L 331.11718 292.773228 
L 335.327309 292.773228 
L 335.327309 292.626763 
L 420.36 292.626763 
L 420.36 292.626763 
" style="fill:none;stroke:#6495ed;stroke-linecap:square;stroke-width:1.5;"/>
   </g>
   <g id="line2d_23">
    <defs>
     <path d="M -0 6 
L 6 -6 
L -6 -6 
z
" id="m365bd0d5cd" style="stroke:#6495ed;stroke-linejoin:miter;stroke-width:1.5;"/>
    </defs>
    <g>
     <use style="fill:none;stroke:#6495ed;stroke-linejoin:miter;stroke-width:1.5;" x="183.93164296503303" xlink:href="#m365bd0d5cd" y="375.8191417219765"/>
     <use style="fill:none;stroke:#6495ed;stroke-linejoin:miter;stroke-width:1.5;" x="226.41623694038145" xlink:href="#m365bd0d5cd" y="296.4348645173195"/>
     <use style="fill:none;stroke:#6495ed;stroke-linejoin:miter;stroke-width:1.5;" x="335.3273085073572" xlink:href="#m365bd0d5cd" y="292.6267626587935"/>
     <use style="fill:none;stroke:#6495ed;stroke-linejoin:miter;stroke-width:1.5;" x="335.3273085073572" xlink:href="#m365bd0d5cd" y="292.6267626587935"/>
     <use style="fill:none;stroke:#6495ed;stroke-linejoin:miter;stroke-width:1.5;" x="420.3599999999999" xlink:href="#m365bd0d5cd" y="292.6267626587935"/>
    </g>
   </g>
   <g id="line2d_24">
    <path d="M -15676.38 758.386913 
" style="fill:none;stroke:#6495ed;stroke-linecap:square;stroke-width:1.5;"/>
    <g>
     <use style="fill:none;stroke:#6495ed;stroke-linejoin:miter;stroke-width:1.5;" x="-15676.379999999994" xlink:href="#m365bd0d5cd" y="758.3869130477403"/>
    </g>
   </g>
   <g id="line2d_25">
    <path clip-path="url(#p58c844fbeb)" d="M 247.81839 296.434865 
" style="fill:none;stroke:#6495ed;stroke-linecap:square;"/>
    <defs>
     <path d="M -12 12 
L 12 -12 
M -12 -12 
L 12 12 
" id="mc0c07e4870" style="stroke:#6495ed;"/>
    </defs>
    <g clip-path="url(#p58c844fbeb)">
     <use style="fill:#6495ed;stroke:#6495ed;" x="247.8183902744885" xlink:href="#mc0c07e4870" y="296.4348645173195"/>
    </g>
   </g>
   <g id="line2d_26">
    <path d="M 420.36 362.930182 
L 460.60185 377.430262 
" style="fill:none;stroke:#000080;stroke-linecap:square;stroke-width:1.5;"/>
    <g>
     <use style="fill:none;stroke:#000080;stroke-width:1.5;" x="420.3599999999999" xlink:href="#m3e455f5935" y="362.930181585427"/>
     <use style="fill:none;stroke:#000080;stroke-width:1.5;" x="460.60184999999996" xlink:href="#m3e455f5935" y="377.4302617390452"/>
    </g>
   </g>
   <g id="line2d_27">
    <path d="M 420.36 361.465527 
L 460.60185 287.793403 
" style="fill:none;stroke:#ff00ff;stroke-linecap:square;stroke-width:1.5;"/>
    <g>
     <use style="fill:none;stroke:#ff00ff;stroke-linejoin:miter;stroke-width:1.5;" x="420.3599999999999" xlink:href="#mbd3af1771d" y="361.46552702445547"/>
     <use style="fill:none;stroke:#ff00ff;stroke-linejoin:miter;stroke-width:1.5;" x="460.60184999999996" xlink:href="#mbd3af1771d" y="287.7934026075875"/>
    </g>
   </g>
   <g id="line2d_28">
    <path d="M 420.36 292.626763 
L 460.60185 198.156543 
" style="fill:none;stroke:#6495ed;stroke-linecap:square;stroke-width:1.5;"/>
    <g>
     <use style="fill:none;stroke:#6495ed;stroke-linejoin:miter;stroke-width:1.5;" x="420.3599999999999" xlink:href="#m365bd0d5cd" y="292.6267626587935"/>
     <use style="fill:none;stroke:#6495ed;stroke-linejoin:miter;stroke-width:1.5;" x="460.60184999999996" xlink:href="#m365bd0d5cd" y="198.15654347612977"/>
    </g>
   </g>
   <g id="line2d_29">
    <path d="M 420.36 292.626763 
L 460.60185 108.519684 
" style="fill:none;stroke:#ffa500;stroke-linecap:square;stroke-width:1.5;"/>
    <g>
     <use style="fill:none;stroke:#ffa500;stroke-linejoin:bevel;stroke-width:1.5;" x="420.3599999999999" xlink:href="#m08db82d34e" y="292.6267626587935"/>
     <use style="fill:none;stroke:#ffa500;stroke-linejoin:bevel;stroke-width:1.5;" x="460.60184999999996" xlink:href="#m08db82d34e" y="108.5196843446721"/>
    </g>
   </g>
   <g id="line2d_30">
    <path d="M 420.36 384.9 
L 420.36 11.413087 
" style="fill:none;stroke:#000000;stroke-linecap:square;"/>
   </g>
   <g id="patch_3">
    <path d="M 54.525 384.9 
L 54.525 7.678218 
" style="fill:none;stroke:#000000;stroke-linecap:square;stroke-linejoin:miter;"/>
   </g>
   <g id="patch_4">
    <path d="M 54.525 7.678218 
L 420.36 7.678218 
" style="fill:none;stroke:#000000;stroke-linecap:square;stroke-linejoin:miter;"/>
   </g>
   <g id="patch_5">
    <path d="M 420.36 384.9 
L 420.36 7.678218 
" style="fill:none;stroke:#000000;stroke-linecap:square;stroke-linejoin:miter;"/>
   </g>
   <g id="patch_6">
    <path d="M 54.525 384.9 
L 420.36 384.9 
" style="fill:none;stroke:#000000;stroke-linecap:square;stroke-linejoin:miter;"/>
   </g>
   <g id="matplotlib.axis_1">
    <g id="xtick_1">
     <g id="line2d_31">
      <path clip-path="url(#p58c844fbeb)" d="M 54.525 384.9 
L 54.525 7.678218 
" style="fill:none;stroke:#000000;stroke-dasharray:1.000000,3.000000;stroke-dashoffset:0.0;stroke-width:0.5;"/>
     </g>
     <g id="line2d_32">
      <defs>
       <path d="M 0 0 
L 0 -4 
" id="mc8851a9f01" style="stroke:#000000;stroke-width:0.5;"/>
      </defs>
      <g>
       <use style="stroke:#000000;stroke-width:0.5;" x="54.52500000000001" xlink:href="#mc8851a9f01" y="384.9"/>
      </g>
     </g>
     <g id="line2d_33">
      <defs>
       <path d="M 0 0 
L 0 4 
" id="mbc617fdf45" style="stroke:#000000;stroke-width:0.5;"/>
      </defs>
      <g>
       <use style="stroke:#000000;stroke-width:0.5;" x="54.52500000000001" xlink:href="#mbc617fdf45" y="7.678217821782141"/>
      </g>
     </g>
     <g id="text_1">
      <!-- 0 -->
      <defs>
       <path d="M 31.78125 66.40625 
Q 24.171875 66.40625 20.328125 58.90625 
Q 16.5 51.421875 16.5 36.375 
Q 16.5 21.390625 20.328125 13.890625 
Q 24.171875 6.390625 31.78125 6.390625 
Q 39.453125 6.390625 43.28125 13.890625 
Q 47.125 21.390625 47.125 36.375 
Q 47.125 51.421875 43.28125 58.90625 
Q 39.453125 66.40625 31.78125 66.40625 
M 31.78125 74.21875 
Q 44.046875 74.21875 50.515625 64.515625 
Q 56.984375 54.828125 56.984375 36.375 
Q 56.984375 17.96875 50.515625 8.265625 
Q 44.046875 -1.421875 31.78125 -1.421875 
Q 19.53125 -1.421875 13.0625 8.265625 
Q 6.59375 17.96875 6.59375 36.375 
Q 6.59375 54.828125 13.0625 64.515625 
Q 19.53125 74.21875 31.78125 74.21875 
" id="BitstreamVeraSans-Roman-30"/>
      </defs>
      <g transform="translate(48.16250000000001 404.09687499999995)scale(0.2 -0.2)">
       <use xlink:href="#BitstreamVeraSans-Roman-30"/>
      </g>
     </g>
    </g>
    <g id="xtick_2">
     <g id="line2d_34">
      <path clip-path="url(#p58c844fbeb)" d="M 159.049286 384.9 
L 159.049286 7.678218 
" style="fill:none;stroke:#000000;stroke-dasharray:1.000000,3.000000;stroke-dashoffset:0.0;stroke-width:0.5;"/>
     </g>
     <g id="line2d_35">
      <g>
       <use style="stroke:#000000;stroke-width:0.5;" x="159.0492857142857" xlink:href="#mc8851a9f01" y="384.9"/>
      </g>
     </g>
     <g id="line2d_36">
      <g>
       <use style="stroke:#000000;stroke-width:0.5;" x="159.0492857142857" xlink:href="#mbc617fdf45" y="7.678217821782141"/>
      </g>
     </g>
     <g id="text_2">
      <!-- 2 -->
      <defs>
       <path d="M 19.1875 8.296875 
L 53.609375 8.296875 
L 53.609375 0 
L 7.328125 0 
L 7.328125 8.296875 
Q 12.9375 14.109375 22.625 23.890625 
Q 32.328125 33.6875 34.8125 36.53125 
Q 39.546875 41.84375 41.421875 45.53125 
Q 43.3125 49.21875 43.3125 52.78125 
Q 43.3125 58.59375 39.234375 62.25 
Q 35.15625 65.921875 28.609375 65.921875 
Q 23.96875 65.921875 18.8125 64.3125 
Q 13.671875 62.703125 7.8125 59.421875 
L 7.8125 69.390625 
Q 13.765625 71.78125 18.9375 73 
Q 24.125 74.21875 28.421875 74.21875 
Q 39.75 74.21875 46.484375 68.546875 
Q 53.21875 62.890625 53.21875 53.421875 
Q 53.21875 48.921875 51.53125 44.890625 
Q 49.859375 40.875 45.40625 35.40625 
Q 44.1875 33.984375 37.640625 27.21875 
Q 31.109375 20.453125 19.1875 8.296875 
" id="BitstreamVeraSans-Roman-32"/>
      </defs>
      <g transform="translate(152.6867857142857 404.09687499999995)scale(0.2 -0.2)">
       <use xlink:href="#BitstreamVeraSans-Roman-32"/>
      </g>
     </g>
    </g>
    <g id="xtick_3">
     <g id="line2d_37">
      <path clip-path="url(#p58c844fbeb)" d="M 263.573571 384.9 
L 263.573571 7.678218 
" style="fill:none;stroke:#000000;stroke-dasharray:1.000000,3.000000;stroke-dashoffset:0.0;stroke-width:0.5;"/>
     </g>
     <g id="line2d_38">
      <g>
       <use style="stroke:#000000;stroke-width:0.5;" x="263.57357142857137" xlink:href="#mc8851a9f01" y="384.9"/>
      </g>
     </g>
     <g id="line2d_39">
      <g>
       <use style="stroke:#000000;stroke-width:0.5;" x="263.57357142857137" xlink:href="#mbc617fdf45" y="7.678217821782141"/>
      </g>
     </g>
     <g id="text_3">
      <!-- 4 -->
      <defs>
       <path d="M 37.796875 64.3125 
L 12.890625 25.390625 
L 37.796875 25.390625 
z
M 35.203125 72.90625 
L 47.609375 72.90625 
L 47.609375 25.390625 
L 58.015625 25.390625 
L 58.015625 17.1875 
L 47.609375 17.1875 
L 47.609375 0 
L 37.796875 0 
L 37.796875 17.1875 
L 4.890625 17.1875 
L 4.890625 26.703125 
z
" id="BitstreamVeraSans-Roman-34"/>
      </defs>
      <g transform="translate(257.21107142857136 404.09687499999995)scale(0.2 -0.2)">
       <use xlink:href="#BitstreamVeraSans-Roman-34"/>
      </g>
     </g>
    </g>
    <g id="xtick_4">
     <g id="line2d_40">
      <path clip-path="url(#p58c844fbeb)" d="M 368.097857 384.9 
L 368.097857 7.678218 
" style="fill:none;stroke:#000000;stroke-dasharray:1.000000,3.000000;stroke-dashoffset:0.0;stroke-width:0.5;"/>
     </g>
     <g id="line2d_41">
      <g>
       <use style="stroke:#000000;stroke-width:0.5;" x="368.09785714285704" xlink:href="#mc8851a9f01" y="384.9"/>
      </g>
     </g>
     <g id="line2d_42">
      <g>
       <use style="stroke:#000000;stroke-width:0.5;" x="368.09785714285704" xlink:href="#mbc617fdf45" y="7.678217821782141"/>
      </g>
     </g>
     <g id="text_4">
      <!-- 6 -->
      <defs>
       <path d="M 33.015625 40.375 
Q 26.375 40.375 22.484375 35.828125 
Q 18.609375 31.296875 18.609375 23.390625 
Q 18.609375 15.53125 22.484375 10.953125 
Q 26.375 6.390625 33.015625 6.390625 
Q 39.65625 6.390625 43.53125 10.953125 
Q 47.40625 15.53125 47.40625 23.390625 
Q 47.40625 31.296875 43.53125 35.828125 
Q 39.65625 40.375 33.015625 40.375 
M 52.59375 71.296875 
L 52.59375 62.3125 
Q 48.875 64.0625 45.09375 64.984375 
Q 41.3125 65.921875 37.59375 65.921875 
Q 27.828125 65.921875 22.671875 59.328125 
Q 17.53125 52.734375 16.796875 39.40625 
Q 19.671875 43.65625 24.015625 45.921875 
Q 28.375 48.1875 33.59375 48.1875 
Q 44.578125 48.1875 50.953125 41.515625 
Q 57.328125 34.859375 57.328125 23.390625 
Q 57.328125 12.15625 50.6875 5.359375 
Q 44.046875 -1.421875 33.015625 -1.421875 
Q 20.359375 -1.421875 13.671875 8.265625 
Q 6.984375 17.96875 6.984375 36.375 
Q 6.984375 53.65625 15.1875 63.9375 
Q 23.390625 74.21875 37.203125 74.21875 
Q 40.921875 74.21875 44.703125 73.484375 
Q 48.484375 72.75 52.59375 71.296875 
" id="BitstreamVeraSans-Roman-36"/>
      </defs>
      <g transform="translate(361.735357142857 404.09687499999995)scale(0.2 -0.2)">
       <use xlink:href="#BitstreamVeraSans-Roman-36"/>
      </g>
     </g>
    </g>
    <g id="xtick_5">
     <g id="line2d_43">
      <path clip-path="url(#p58c844fbeb)" d="M 54.525 384.9 
L 54.525 7.678218 
" style="fill:none;stroke:#000000;stroke-dasharray:1.000000,3.000000;stroke-dashoffset:0.0;stroke-width:0.5;"/>
     </g>
     <g id="line2d_44">
      <defs>
       <path d="M 0 0 
L 0 -2 
" id="mddc64c704b" style="stroke:#000000;stroke-width:0.5;"/>
      </defs>
      <g>
       <use style="stroke:#000000;stroke-width:0.5;" x="54.52500000000001" xlink:href="#mddc64c704b" y="384.9"/>
      </g>
     </g>
     <g id="line2d_45">
      <defs>
       <path d="M 0 0 
L 0 2 
" id="m3127594dc4" style="stroke:#000000;stroke-width:0.5;"/>
      </defs>
      <g>
       <use style="stroke:#000000;stroke-width:0.5;" x="54.52500000000001" xlink:href="#m3127594dc4" y="7.678217821782141"/>
      </g>
     </g>
    </g>
    <g id="xtick_6">
     <g id="line2d_46">
      <path clip-path="url(#p58c844fbeb)" d="M 106.787143 384.9 
L 106.787143 7.678218 
" style="fill:none;stroke:#000000;stroke-dasharray:1.000000,3.000000;stroke-dashoffset:0.0;stroke-width:0.5;"/>
     </g>
     <g id="line2d_47">
      <g>
       <use style="stroke:#000000;stroke-width:0.5;" x="106.78714285714285" xlink:href="#mddc64c704b" y="384.9"/>
      </g>
     </g>
     <g id="line2d_48">
      <g>
       <use style="stroke:#000000;stroke-width:0.5;" x="106.78714285714285" xlink:href="#m3127594dc4" y="7.678217821782141"/>
      </g>
     </g>
    </g>
    <g id="xtick_7">
     <g id="line2d_49">
      <path clip-path="url(#p58c844fbeb)" d="M 159.049286 384.9 
L 159.049286 7.678218 
" style="fill:none;stroke:#000000;stroke-dasharray:1.000000,3.000000;stroke-dashoffset:0.0;stroke-width:0.5;"/>
     </g>
     <g id="line2d_50">
      <g>
       <use style="stroke:#000000;stroke-width:0.5;" x="159.0492857142857" xlink:href="#mddc64c704b" y="384.9"/>
      </g>
     </g>
     <g id="line2d_51">
      <g>
       <use style="stroke:#000000;stroke-width:0.5;" x="159.0492857142857" xlink:href="#m3127594dc4" y="7.678217821782141"/>
      </g>
     </g>
    </g>
    <g id="xtick_8">
     <g id="line2d_52">
      <path clip-path="url(#p58c844fbeb)" d="M 211.311429 384.9 
L 211.311429 7.678218 
" style="fill:none;stroke:#000000;stroke-dasharray:1.000000,3.000000;stroke-dashoffset:0.0;stroke-width:0.5;"/>
     </g>
     <g id="line2d_53">
      <g>
       <use style="stroke:#000000;stroke-width:0.5;" x="211.31142857142854" xlink:href="#mddc64c704b" y="384.9"/>
      </g>
     </g>
     <g id="line2d_54">
      <g>
       <use style="stroke:#000000;stroke-width:0.5;" x="211.31142857142854" xlink:href="#m3127594dc4" y="7.678217821782141"/>
      </g>
     </g>
    </g>
    <g id="xtick_9">
     <g id="line2d_55">
      <path clip-path="url(#p58c844fbeb)" d="M 263.573571 384.9 
L 263.573571 7.678218 
" style="fill:none;stroke:#000000;stroke-dasharray:1.000000,3.000000;stroke-dashoffset:0.0;stroke-width:0.5;"/>
     </g>
     <g id="line2d_56">
      <g>
       <use style="stroke:#000000;stroke-width:0.5;" x="263.57357142857137" xlink:href="#mddc64c704b" y="384.9"/>
      </g>
     </g>
     <g id="line2d_57">
      <g>
       <use style="stroke:#000000;stroke-width:0.5;" x="263.57357142857137" xlink:href="#m3127594dc4" y="7.678217821782141"/>
      </g>
     </g>
    </g>
    <g id="xtick_10">
     <g id="line2d_58">
      <path clip-path="url(#p58c844fbeb)" d="M 315.835714 384.9 
L 315.835714 7.678218 
" style="fill:none;stroke:#000000;stroke-dasharray:1.000000,3.000000;stroke-dashoffset:0.0;stroke-width:0.5;"/>
     </g>
     <g id="line2d_59">
      <g>
       <use style="stroke:#000000;stroke-width:0.5;" x="315.83571428571423" xlink:href="#mddc64c704b" y="384.9"/>
      </g>
     </g>
     <g id="line2d_60">
      <g>
       <use style="stroke:#000000;stroke-width:0.5;" x="315.83571428571423" xlink:href="#m3127594dc4" y="7.678217821782141"/>
      </g>
     </g>
    </g>
    <g id="xtick_11">
     <g id="line2d_61">
      <path clip-path="url(#p58c844fbeb)" d="M 368.097857 384.9 
L 368.097857 7.678218 
" style="fill:none;stroke:#000000;stroke-dasharray:1.000000,3.000000;stroke-dashoffset:0.0;stroke-width:0.5;"/>
     </g>
     <g id="line2d_62">
      <g>
       <use style="stroke:#000000;stroke-width:0.5;" x="368.09785714285704" xlink:href="#mddc64c704b" y="384.9"/>
      </g>
     </g>
     <g id="line2d_63">
      <g>
       <use style="stroke:#000000;stroke-width:0.5;" x="368.09785714285704" xlink:href="#m3127594dc4" y="7.678217821782141"/>
      </g>
     </g>
    </g>
    <g id="xtick_12">
     <g id="line2d_64">
      <path clip-path="url(#p58c844fbeb)" d="M 420.36 384.9 
L 420.36 7.678218 
" style="fill:none;stroke:#000000;stroke-dasharray:1.000000,3.000000;stroke-dashoffset:0.0;stroke-width:0.5;"/>
     </g>
     <g id="line2d_65">
      <g>
       <use style="stroke:#000000;stroke-width:0.5;" x="420.3599999999999" xlink:href="#mddc64c704b" y="384.9"/>
      </g>
     </g>
     <g id="line2d_66">
      <g>
       <use style="stroke:#000000;stroke-width:0.5;" x="420.3599999999999" xlink:href="#m3127594dc4" y="7.678217821782141"/>
      </g>
     </g>
    </g>
    <g id="text_5">
     <!-- log10(# f-evals / dimension) -->
     <defs>
      <path d="M 56.203125 29.59375 
L 56.203125 25.203125 
L 14.890625 25.203125 
Q 15.484375 15.921875 20.484375 11.0625 
Q 25.484375 6.203125 34.421875 6.203125 
Q 39.59375 6.203125 44.453125 7.46875 
Q 49.3125 8.734375 54.109375 11.28125 
L 54.109375 2.78125 
Q 49.265625 0.734375 44.1875 -0.34375 
Q 39.109375 -1.421875 33.890625 -1.421875 
Q 20.796875 -1.421875 13.15625 6.1875 
Q 5.515625 13.8125 5.515625 26.8125 
Q 5.515625 40.234375 12.765625 48.109375 
Q 20.015625 56 32.328125 56 
Q 43.359375 56 49.78125 48.890625 
Q 56.203125 41.796875 56.203125 29.59375 
M 47.21875 32.234375 
Q 47.125 39.59375 43.09375 43.984375 
Q 39.0625 48.390625 32.421875 48.390625 
Q 24.90625 48.390625 20.390625 44.140625 
Q 15.875 39.890625 15.1875 32.171875 
z
" id="BitstreamVeraSans-Roman-65"/>
      <path d="M 44.28125 53.078125 
L 44.28125 44.578125 
Q 40.484375 46.53125 36.375 47.5 
Q 32.28125 48.484375 27.875 48.484375 
Q 21.1875 48.484375 17.84375 46.4375 
Q 14.5 44.390625 14.5 40.28125 
Q 14.5 37.15625 16.890625 35.375 
Q 19.28125 33.59375 26.515625 31.984375 
L 29.59375 31.296875 
Q 39.15625 29.25 43.1875 25.515625 
Q 47.21875 21.78125 47.21875 15.09375 
Q 47.21875 7.46875 41.1875 3.015625 
Q 35.15625 -1.421875 24.609375 -1.421875 
Q 20.21875 -1.421875 15.453125 -0.5625 
Q 10.6875 0.296875 5.421875 2 
L 5.421875 11.28125 
Q 10.40625 8.6875 15.234375 7.390625 
Q 20.0625 6.109375 24.8125 6.109375 
Q 31.15625 6.109375 34.5625 8.28125 
Q 37.984375 10.453125 37.984375 14.40625 
Q 37.984375 18.0625 35.515625 20.015625 
Q 33.0625 21.96875 24.703125 23.78125 
L 21.578125 24.515625 
Q 13.234375 26.265625 9.515625 29.90625 
Q 5.8125 33.546875 5.8125 39.890625 
Q 5.8125 47.609375 11.28125 51.796875 
Q 16.75 56 26.8125 56 
Q 31.78125 56 36.171875 55.265625 
Q 40.578125 54.546875 44.28125 53.078125 
" id="BitstreamVeraSans-Roman-73"/>
      <path d="M 4.890625 31.390625 
L 31.203125 31.390625 
L 31.203125 23.390625 
L 4.890625 23.390625 
z
" id="BitstreamVeraSans-Roman-2d"/>
      <path d="M 9.421875 54.6875 
L 18.40625 54.6875 
L 18.40625 0 
L 9.421875 0 
z
M 9.421875 75.984375 
L 18.40625 75.984375 
L 18.40625 64.59375 
L 9.421875 64.59375 
z
" id="BitstreamVeraSans-Roman-69"/>
      <path d="M 25.390625 72.90625 
L 33.6875 72.90625 
L 8.296875 -9.28125 
L 0 -9.28125 
z
" id="BitstreamVeraSans-Roman-2f"/>
      <path d="M 2.984375 54.6875 
L 12.5 54.6875 
L 29.59375 8.796875 
L 46.6875 54.6875 
L 56.203125 54.6875 
L 35.6875 0 
L 23.484375 0 
z
" id="BitstreamVeraSans-Roman-76"/>
      <path d="M 34.28125 27.484375 
Q 23.390625 27.484375 19.1875 25 
Q 14.984375 22.515625 14.984375 16.5 
Q 14.984375 11.71875 18.140625 8.90625 
Q 21.296875 6.109375 26.703125 6.109375 
Q 34.1875 6.109375 38.703125 11.40625 
Q 43.21875 16.703125 43.21875 25.484375 
L 43.21875 27.484375 
z
M 52.203125 31.203125 
L 52.203125 0 
L 43.21875 0 
L 43.21875 8.296875 
Q 40.140625 3.328125 35.546875 0.953125 
Q 30.953125 -1.421875 24.3125 -1.421875 
Q 15.921875 -1.421875 10.953125 3.296875 
Q 6 8.015625 6 15.921875 
Q 6 25.140625 12.171875 29.828125 
Q 18.359375 34.515625 30.609375 34.515625 
L 43.21875 34.515625 
L 43.21875 35.40625 
Q 43.21875 41.609375 39.140625 45 
Q 35.0625 48.390625 27.6875 48.390625 
Q 23 48.390625 18.546875 47.265625 
Q 14.109375 46.140625 10.015625 43.890625 
L 10.015625 52.203125 
Q 14.9375 54.109375 19.578125 55.046875 
Q 24.21875 56 28.609375 56 
Q 40.484375 56 46.34375 49.84375 
Q 52.203125 43.703125 52.203125 31.203125 
" id="BitstreamVeraSans-Roman-61"/>
      <path d="M 8.015625 75.875 
L 15.828125 75.875 
Q 23.140625 64.359375 26.78125 53.3125 
Q 30.421875 42.28125 30.421875 31.390625 
Q 30.421875 20.453125 26.78125 9.375 
Q 23.140625 -1.703125 15.828125 -13.1875 
L 8.015625 -13.1875 
Q 14.5 -2 17.703125 9.0625 
Q 20.90625 20.125 20.90625 31.390625 
Q 20.90625 42.671875 17.703125 53.65625 
Q 14.5 64.65625 8.015625 75.875 
" id="BitstreamVeraSans-Roman-29"/>
      <path d="M 12.40625 8.296875 
L 28.515625 8.296875 
L 28.515625 63.921875 
L 10.984375 60.40625 
L 10.984375 69.390625 
L 28.421875 72.90625 
L 38.28125 72.90625 
L 38.28125 8.296875 
L 54.390625 8.296875 
L 54.390625 0 
L 12.40625 0 
z
" id="BitstreamVeraSans-Roman-31"/>
      <path d="M 9.421875 75.984375 
L 18.40625 75.984375 
L 18.40625 0 
L 9.421875 0 
z
" id="BitstreamVeraSans-Roman-6c"/>
      <path d="M 31 75.875 
Q 24.46875 64.65625 21.28125 53.65625 
Q 18.109375 42.671875 18.109375 31.390625 
Q 18.109375 20.125 21.3125 9.0625 
Q 24.515625 -2 31 -13.1875 
L 23.1875 -13.1875 
Q 15.875 -1.703125 12.234375 9.375 
Q 8.59375 20.453125 8.59375 31.390625 
Q 8.59375 42.28125 12.203125 53.3125 
Q 15.828125 64.359375 23.1875 75.875 
z
" id="BitstreamVeraSans-Roman-28"/>
      <path d="M 51.125 44 
L 36.921875 44 
L 32.8125 27.6875 
L 47.125 27.6875 
z
M 43.796875 71.78125 
L 38.71875 51.515625 
L 52.984375 51.515625 
L 58.109375 71.78125 
L 65.921875 71.78125 
L 60.890625 51.515625 
L 76.125 51.515625 
L 76.125 44 
L 58.984375 44 
L 54.984375 27.6875 
L 70.515625 27.6875 
L 70.515625 20.21875 
L 53.078125 20.21875 
L 48 0 
L 40.1875 0 
L 45.21875 20.21875 
L 30.90625 20.21875 
L 25.875 0 
L 18.015625 0 
L 23.09375 20.21875 
L 7.71875 20.21875 
L 7.71875 27.6875 
L 24.90625 27.6875 
L 29 44 
L 13.28125 44 
L 13.28125 51.515625 
L 30.90625 51.515625 
L 35.890625 71.78125 
z
" id="BitstreamVeraSans-Roman-23"/>
      <path d="M 45.40625 27.984375 
Q 45.40625 37.75 41.375 43.109375 
Q 37.359375 48.484375 30.078125 48.484375 
Q 22.859375 48.484375 18.828125 43.109375 
Q 14.796875 37.75 14.796875 27.984375 
Q 14.796875 18.265625 18.828125 12.890625 
Q 22.859375 7.515625 30.078125 7.515625 
Q 37.359375 7.515625 41.375 12.890625 
Q 45.40625 18.265625 45.40625 27.984375 
M 54.390625 6.78125 
Q 54.390625 -7.171875 48.1875 -13.984375 
Q 42 -20.796875 29.203125 -20.796875 
Q 24.46875 -20.796875 20.265625 -20.09375 
Q 16.0625 -19.390625 12.109375 -17.921875 
L 12.109375 -9.1875 
Q 16.0625 -11.328125 19.921875 -12.34375 
Q 23.78125 -13.375 27.78125 -13.375 
Q 36.625 -13.375 41.015625 -8.765625 
Q 45.40625 -4.15625 45.40625 5.171875 
L 45.40625 9.625 
Q 42.625 4.78125 38.28125 2.390625 
Q 33.9375 0 27.875 0 
Q 17.828125 0 11.671875 7.65625 
Q 5.515625 15.328125 5.515625 27.984375 
Q 5.515625 40.671875 11.671875 48.328125 
Q 17.828125 56 27.875 56 
Q 33.9375 56 38.28125 53.609375 
Q 42.625 51.21875 45.40625 46.390625 
L 45.40625 54.6875 
L 54.390625 54.6875 
z
" id="BitstreamVeraSans-Roman-67"/>
      <path id="BitstreamVeraSans-Roman-20"/>
      <path d="M 52 44.1875 
Q 55.375 50.25 60.0625 53.125 
Q 64.75 56 71.09375 56 
Q 79.640625 56 84.28125 50.015625 
Q 88.921875 44.046875 88.921875 33.015625 
L 88.921875 0 
L 79.890625 0 
L 79.890625 32.71875 
Q 79.890625 40.578125 77.09375 44.375 
Q 74.3125 48.1875 68.609375 48.1875 
Q 61.625 48.1875 57.5625 43.546875 
Q 53.515625 38.921875 53.515625 30.90625 
L 53.515625 0 
L 44.484375 0 
L 44.484375 32.71875 
Q 44.484375 40.625 41.703125 44.40625 
Q 38.921875 48.1875 33.109375 48.1875 
Q 26.21875 48.1875 22.15625 43.53125 
Q 18.109375 38.875 18.109375 30.90625 
L 18.109375 0 
L 9.078125 0 
L 9.078125 54.6875 
L 18.109375 54.6875 
L 18.109375 46.1875 
Q 21.1875 51.21875 25.484375 53.609375 
Q 29.78125 56 35.6875 56 
Q 41.65625 56 45.828125 52.96875 
Q 50 49.953125 52 44.1875 
" id="BitstreamVeraSans-Roman-6d"/>
      <path d="M 54.890625 33.015625 
L 54.890625 0 
L 45.90625 0 
L 45.90625 32.71875 
Q 45.90625 40.484375 42.875 44.328125 
Q 39.84375 48.1875 33.796875 48.1875 
Q 26.515625 48.1875 22.3125 43.546875 
Q 18.109375 38.921875 18.109375 30.90625 
L 18.109375 0 
L 9.078125 0 
L 9.078125 54.6875 
L 18.109375 54.6875 
L 18.109375 46.1875 
Q 21.34375 51.125 25.703125 53.5625 
Q 30.078125 56 35.796875 56 
Q 45.21875 56 50.046875 50.171875 
Q 54.890625 44.34375 54.890625 33.015625 
" id="BitstreamVeraSans-Roman-6e"/>
      <path d="M 30.609375 48.390625 
Q 23.390625 48.390625 19.1875 42.75 
Q 14.984375 37.109375 14.984375 27.296875 
Q 14.984375 17.484375 19.15625 11.84375 
Q 23.34375 6.203125 30.609375 6.203125 
Q 37.796875 6.203125 41.984375 11.859375 
Q 46.1875 17.53125 46.1875 27.296875 
Q 46.1875 37.015625 41.984375 42.703125 
Q 37.796875 48.390625 30.609375 48.390625 
M 30.609375 56 
Q 42.328125 56 49.015625 48.375 
Q 55.71875 40.765625 55.71875 27.296875 
Q 55.71875 13.875 49.015625 6.21875 
Q 42.328125 -1.421875 30.609375 -1.421875 
Q 18.84375 -1.421875 12.171875 6.21875 
Q 5.515625 13.875 5.515625 27.296875 
Q 5.515625 40.765625 12.171875 48.375 
Q 18.84375 56 30.609375 56 
" id="BitstreamVeraSans-Roman-6f"/>
      <path d="M 45.40625 46.390625 
L 45.40625 75.984375 
L 54.390625 75.984375 
L 54.390625 0 
L 45.40625 0 
L 45.40625 8.203125 
Q 42.578125 3.328125 38.25 0.953125 
Q 33.9375 -1.421875 27.875 -1.421875 
Q 17.96875 -1.421875 11.734375 6.484375 
Q 5.515625 14.40625 5.515625 27.296875 
Q 5.515625 40.1875 11.734375 48.09375 
Q 17.96875 56 27.875 56 
Q 33.9375 56 38.25 53.625 
Q 42.578125 51.265625 45.40625 46.390625 
M 14.796875 27.296875 
Q 14.796875 17.390625 18.875 11.75 
Q 22.953125 6.109375 30.078125 6.109375 
Q 37.203125 6.109375 41.296875 11.75 
Q 45.40625 17.390625 45.40625 27.296875 
Q 45.40625 37.203125 41.296875 42.84375 
Q 37.203125 48.484375 30.078125 48.484375 
Q 22.953125 48.484375 18.875 42.84375 
Q 14.796875 37.203125 14.796875 27.296875 
" id="BitstreamVeraSans-Roman-64"/>
      <path d="M 37.109375 75.984375 
L 37.109375 68.5 
L 28.515625 68.5 
Q 23.6875 68.5 21.796875 66.546875 
Q 19.921875 64.59375 19.921875 59.515625 
L 19.921875 54.6875 
L 34.71875 54.6875 
L 34.71875 47.703125 
L 19.921875 47.703125 
L 19.921875 0 
L 10.890625 0 
L 10.890625 47.703125 
L 2.296875 47.703125 
L 2.296875 54.6875 
L 10.890625 54.6875 
L 10.890625 58.5 
Q 10.890625 67.625 15.140625 71.796875 
Q 19.390625 75.984375 28.609375 75.984375 
z
" id="BitstreamVeraSans-Roman-66"/>
     </defs>
     <g transform="translate(116.60171874999996 426.17359374999995)scale(0.17 -0.17)">
      <use xlink:href="#BitstreamVeraSans-Roman-6c"/>
      <use x="27.783203125" xlink:href="#BitstreamVeraSans-Roman-6f"/>
      <use x="88.96484375" xlink:href="#BitstreamVeraSans-Roman-67"/>
      <use x="152.44140625" xlink:href="#BitstreamVeraSans-Roman-31"/>
      <use x="216.064453125" xlink:href="#BitstreamVeraSans-Roman-30"/>
      <use x="279.6875" xlink:href="#BitstreamVeraSans-Roman-28"/>
      <use x="318.701171875" xlink:href="#BitstreamVeraSans-Roman-23"/>
      <use x="402.490234375" xlink:href="#BitstreamVeraSans-Roman-20"/>
      <use x="434.27734375" xlink:href="#BitstreamVeraSans-Roman-66"/>
      <use x="469.404296875" xlink:href="#BitstreamVeraSans-Roman-2d"/>
      <use x="505.48828125" xlink:href="#BitstreamVeraSans-Roman-65"/>
      <use x="567.01171875" xlink:href="#BitstreamVeraSans-Roman-76"/>
      <use x="626.19140625" xlink:href="#BitstreamVeraSans-Roman-61"/>
      <use x="687.470703125" xlink:href="#BitstreamVeraSans-Roman-6c"/>
      <use x="715.25390625" xlink:href="#BitstreamVeraSans-Roman-73"/>
      <use x="767.353515625" xlink:href="#BitstreamVeraSans-Roman-20"/>
      <use x="799.140625" xlink:href="#BitstreamVeraSans-Roman-2f"/>
      <use x="832.83203125" xlink:href="#BitstreamVeraSans-Roman-20"/>
      <use x="864.619140625" xlink:href="#BitstreamVeraSans-Roman-64"/>
      <use x="928.095703125" xlink:href="#BitstreamVeraSans-Roman-69"/>
      <use x="955.87890625" xlink:href="#BitstreamVeraSans-Roman-6d"/>
      <use x="1053.291015625" xlink:href="#BitstreamVeraSans-Roman-65"/>
      <use x="1114.814453125" xlink:href="#BitstreamVeraSans-Roman-6e"/>
      <use x="1178.193359375" xlink:href="#BitstreamVeraSans-Roman-73"/>
      <use x="1230.29296875" xlink:href="#BitstreamVeraSans-Roman-69"/>
      <use x="1258.076171875" xlink:href="#BitstreamVeraSans-Roman-6f"/>
      <use x="1319.2578125" xlink:href="#BitstreamVeraSans-Roman-6e"/>
      <use x="1382.63671875" xlink:href="#BitstreamVeraSans-Roman-29"/>
     </g>
    </g>
   </g>
   <g id="matplotlib.axis_2">
    <g id="ytick_1">
     <g id="line2d_67">
      <path clip-path="url(#p58c844fbeb)" d="M 54.525 384.9 
L 420.36 384.9 
" style="fill:none;stroke:#000000;stroke-dasharray:1.000000,3.000000;stroke-dashoffset:0.0;stroke-width:0.5;"/>
     </g>
     <g id="line2d_68">
      <defs>
       <path d="M 0 0 
L 4 0 
" id="mf6da25af63" style="stroke:#000000;stroke-width:0.5;"/>
      </defs>
      <g>
       <use style="stroke:#000000;stroke-width:0.5;" x="54.52500000000001" xlink:href="#mf6da25af63" y="384.9"/>
      </g>
     </g>
     <g id="line2d_69">
      <defs>
       <path d="M 0 0 
L -4 0 
" id="ma7be28c877" style="stroke:#000000;stroke-width:0.5;"/>
      </defs>
      <g>
       <use style="stroke:#000000;stroke-width:0.5;" x="420.35999999999996" xlink:href="#ma7be28c877" y="384.9"/>
      </g>
     </g>
     <g id="text_6">
      <!-- 0.0 -->
      <defs>
       <path d="M 10.6875 12.40625 
L 21 12.40625 
L 21 0 
L 10.6875 0 
z
" id="BitstreamVeraSans-Roman-2e"/>
      </defs>
      <g transform="translate(25.080000000000013 389.315)scale(0.16 -0.16)">
       <use xlink:href="#BitstreamVeraSans-Roman-30"/>
       <use x="63.623046875" xlink:href="#BitstreamVeraSans-Roman-2e"/>
       <use x="95.41015625" xlink:href="#BitstreamVeraSans-Roman-30"/>
      </g>
     </g>
    </g>
    <g id="ytick_2">
     <g id="line2d_70">
      <path clip-path="url(#p58c844fbeb)" d="M 54.525 310.202617 
L 420.36 310.202617 
" style="fill:none;stroke:#000000;stroke-dasharray:1.000000,3.000000;stroke-dashoffset:0.0;stroke-width:0.5;"/>
     </g>
     <g id="line2d_71">
      <g>
       <use style="stroke:#000000;stroke-width:0.5;" x="54.52500000000001" xlink:href="#mf6da25af63" y="310.2026173904519"/>
      </g>
     </g>
     <g id="line2d_72">
      <g>
       <use style="stroke:#000000;stroke-width:0.5;" x="420.35999999999996" xlink:href="#ma7be28c877" y="310.2026173904519"/>
      </g>
     </g>
     <g id="text_7">
      <!-- 0.2 -->
      <g transform="translate(25.080000000000013 314.61761739045187)scale(0.16 -0.16)">
       <use xlink:href="#BitstreamVeraSans-Roman-30"/>
       <use x="63.623046875" xlink:href="#BitstreamVeraSans-Roman-2e"/>
       <use x="95.41015625" xlink:href="#BitstreamVeraSans-Roman-32"/>
      </g>
     </g>
    </g>
    <g id="ytick_3">
     <g id="line2d_73">
      <path clip-path="url(#p58c844fbeb)" d="M 54.525 235.505235 
L 420.36 235.505235 
" style="fill:none;stroke:#000000;stroke-dasharray:1.000000,3.000000;stroke-dashoffset:0.0;stroke-width:0.5;"/>
     </g>
     <g id="line2d_74">
      <g>
       <use style="stroke:#000000;stroke-width:0.5;" x="54.52500000000001" xlink:href="#mf6da25af63" y="235.5052347809038"/>
      </g>
     </g>
     <g id="line2d_75">
      <g>
       <use style="stroke:#000000;stroke-width:0.5;" x="420.35999999999996" xlink:href="#ma7be28c877" y="235.5052347809038"/>
      </g>
     </g>
     <g id="text_8">
      <!-- 0.4 -->
      <g transform="translate(25.080000000000013 239.9202347809038)scale(0.16 -0.16)">
       <use xlink:href="#BitstreamVeraSans-Roman-30"/>
       <use x="63.623046875" xlink:href="#BitstreamVeraSans-Roman-2e"/>
       <use x="95.41015625" xlink:href="#BitstreamVeraSans-Roman-34"/>
      </g>
     </g>
    </g>
    <g id="ytick_4">
     <g id="line2d_76">
      <path clip-path="url(#p58c844fbeb)" d="M 54.525 160.807852 
L 420.36 160.807852 
" style="fill:none;stroke:#000000;stroke-dasharray:1.000000,3.000000;stroke-dashoffset:0.0;stroke-width:0.5;"/>
     </g>
     <g id="line2d_77">
      <g>
       <use style="stroke:#000000;stroke-width:0.5;" x="54.52500000000001" xlink:href="#mf6da25af63" y="160.8078521713557"/>
      </g>
     </g>
     <g id="line2d_78">
      <g>
       <use style="stroke:#000000;stroke-width:0.5;" x="420.35999999999996" xlink:href="#ma7be28c877" y="160.8078521713557"/>
      </g>
     </g>
     <g id="text_9">
      <!-- 0.6 -->
      <g transform="translate(25.080000000000013 165.22285217135573)scale(0.16 -0.16)">
       <use xlink:href="#BitstreamVeraSans-Roman-30"/>
       <use x="63.623046875" xlink:href="#BitstreamVeraSans-Roman-2e"/>
       <use x="95.41015625" xlink:href="#BitstreamVeraSans-Roman-36"/>
      </g>
     </g>
    </g>
    <g id="ytick_5">
     <g id="line2d_79">
      <path clip-path="url(#p58c844fbeb)" d="M 54.525 86.11047 
L 420.36 86.11047 
" style="fill:none;stroke:#000000;stroke-dasharray:1.000000,3.000000;stroke-dashoffset:0.0;stroke-width:0.5;"/>
     </g>
     <g id="line2d_80">
      <g>
       <use style="stroke:#000000;stroke-width:0.5;" x="54.52500000000001" xlink:href="#mf6da25af63" y="86.11046956180763"/>
      </g>
     </g>
     <g id="line2d_81">
      <g>
       <use style="stroke:#000000;stroke-width:0.5;" x="420.35999999999996" xlink:href="#ma7be28c877" y="86.11046956180763"/>
      </g>
     </g>
     <g id="text_10">
      <!-- 0.8 -->
      <defs>
       <path d="M 31.78125 34.625 
Q 24.75 34.625 20.71875 30.859375 
Q 16.703125 27.09375 16.703125 20.515625 
Q 16.703125 13.921875 20.71875 10.15625 
Q 24.75 6.390625 31.78125 6.390625 
Q 38.8125 6.390625 42.859375 10.171875 
Q 46.921875 13.96875 46.921875 20.515625 
Q 46.921875 27.09375 42.890625 30.859375 
Q 38.875 34.625 31.78125 34.625 
M 21.921875 38.8125 
Q 15.578125 40.375 12.03125 44.71875 
Q 8.5 49.078125 8.5 55.328125 
Q 8.5 64.0625 14.71875 69.140625 
Q 20.953125 74.21875 31.78125 74.21875 
Q 42.671875 74.21875 48.875 69.140625 
Q 55.078125 64.0625 55.078125 55.328125 
Q 55.078125 49.078125 51.53125 44.71875 
Q 48 40.375 41.703125 38.8125 
Q 48.828125 37.15625 52.796875 32.3125 
Q 56.78125 27.484375 56.78125 20.515625 
Q 56.78125 9.90625 50.3125 4.234375 
Q 43.84375 -1.421875 31.78125 -1.421875 
Q 19.734375 -1.421875 13.25 4.234375 
Q 6.78125 9.90625 6.78125 20.515625 
Q 6.78125 27.484375 10.78125 32.3125 
Q 14.796875 37.15625 21.921875 38.8125 
M 18.3125 54.390625 
Q 18.3125 48.734375 21.84375 45.5625 
Q 25.390625 42.390625 31.78125 42.390625 
Q 38.140625 42.390625 41.71875 45.5625 
Q 45.3125 48.734375 45.3125 54.390625 
Q 45.3125 60.0625 41.71875 63.234375 
Q 38.140625 66.40625 31.78125 66.40625 
Q 25.390625 66.40625 21.84375 63.234375 
Q 18.3125 60.0625 18.3125 54.390625 
" id="BitstreamVeraSans-Roman-38"/>
      </defs>
      <g transform="translate(25.080000000000013 90.52546956180765)scale(0.16 -0.16)">
       <use xlink:href="#BitstreamVeraSans-Roman-30"/>
       <use x="63.623046875" xlink:href="#BitstreamVeraSans-Roman-2e"/>
       <use x="95.41015625" xlink:href="#BitstreamVeraSans-Roman-38"/>
      </g>
     </g>
    </g>
    <g id="ytick_6">
     <g id="line2d_82">
      <path clip-path="url(#p58c844fbeb)" d="M 54.525 11.413087 
L 420.36 11.413087 
" style="fill:none;stroke:#000000;stroke-dasharray:1.000000,3.000000;stroke-dashoffset:0.0;stroke-width:0.5;"/>
     </g>
     <g id="line2d_83">
      <g>
       <use style="stroke:#000000;stroke-width:0.5;" x="54.52500000000001" xlink:href="#mf6da25af63" y="11.413086952259562"/>
      </g>
     </g>
     <g id="line2d_84">
      <g>
       <use style="stroke:#000000;stroke-width:0.5;" x="420.35999999999996" xlink:href="#ma7be28c877" y="11.413086952259562"/>
      </g>
     </g>
     <g id="text_11">
      <!-- 1.0 -->
      <g transform="translate(25.080000000000013 15.828086952259582)scale(0.16 -0.16)">
       <use xlink:href="#BitstreamVeraSans-Roman-31"/>
       <use x="63.623046875" xlink:href="#BitstreamVeraSans-Roman-2e"/>
       <use x="95.41015625" xlink:href="#BitstreamVeraSans-Roman-30"/>
      </g>
     </g>
    </g>
    <g id="text_12">
     <!-- Fraction of function,target pairs -->
     <defs>
      <path d="M 9.8125 72.90625 
L 51.703125 72.90625 
L 51.703125 64.59375 
L 19.671875 64.59375 
L 19.671875 43.109375 
L 48.578125 43.109375 
L 48.578125 34.8125 
L 19.671875 34.8125 
L 19.671875 0 
L 9.8125 0 
z
" id="BitstreamVeraSans-Roman-46"/>
      <path d="M 8.5 21.578125 
L 8.5 54.6875 
L 17.484375 54.6875 
L 17.484375 21.921875 
Q 17.484375 14.15625 20.5 10.265625 
Q 23.53125 6.390625 29.59375 6.390625 
Q 36.859375 6.390625 41.078125 11.03125 
Q 45.3125 15.671875 45.3125 23.6875 
L 45.3125 54.6875 
L 54.296875 54.6875 
L 54.296875 0 
L 45.3125 0 
L 45.3125 8.40625 
Q 42.046875 3.421875 37.71875 1 
Q 33.40625 -1.421875 27.6875 -1.421875 
Q 18.265625 -1.421875 13.375 4.4375 
Q 8.5 10.296875 8.5 21.578125 
" id="BitstreamVeraSans-Roman-75"/>
      <path d="M 18.109375 8.203125 
L 18.109375 -20.796875 
L 9.078125 -20.796875 
L 9.078125 54.6875 
L 18.109375 54.6875 
L 18.109375 46.390625 
Q 20.953125 51.265625 25.265625 53.625 
Q 29.59375 56 35.59375 56 
Q 45.5625 56 51.78125 48.09375 
Q 58.015625 40.1875 58.015625 27.296875 
Q 58.015625 14.40625 51.78125 6.484375 
Q 45.5625 -1.421875 35.59375 -1.421875 
Q 29.59375 -1.421875 25.265625 0.953125 
Q 20.953125 3.328125 18.109375 8.203125 
M 48.6875 27.296875 
Q 48.6875 37.203125 44.609375 42.84375 
Q 40.53125 48.484375 33.40625 48.484375 
Q 26.265625 48.484375 22.1875 42.84375 
Q 18.109375 37.203125 18.109375 27.296875 
Q 18.109375 17.390625 22.1875 11.75 
Q 26.265625 6.109375 33.40625 6.109375 
Q 40.53125 6.109375 44.609375 11.75 
Q 48.6875 17.390625 48.6875 27.296875 
" id="BitstreamVeraSans-Roman-70"/>
      <path d="M 18.3125 70.21875 
L 18.3125 54.6875 
L 36.8125 54.6875 
L 36.8125 47.703125 
L 18.3125 47.703125 
L 18.3125 18.015625 
Q 18.3125 11.328125 20.140625 9.421875 
Q 21.96875 7.515625 27.59375 7.515625 
L 36.8125 7.515625 
L 36.8125 0 
L 27.59375 0 
Q 17.1875 0 13.234375 3.875 
Q 9.28125 7.765625 9.28125 18.015625 
L 9.28125 47.703125 
L 2.6875 47.703125 
L 2.6875 54.6875 
L 9.28125 54.6875 
L 9.28125 70.21875 
z
" id="BitstreamVeraSans-Roman-74"/>
      <path d="M 41.109375 46.296875 
Q 39.59375 47.171875 37.8125 47.578125 
Q 36.03125 48 33.890625 48 
Q 26.265625 48 22.1875 43.046875 
Q 18.109375 38.09375 18.109375 28.8125 
L 18.109375 0 
L 9.078125 0 
L 9.078125 54.6875 
L 18.109375 54.6875 
L 18.109375 46.1875 
Q 20.953125 51.171875 25.484375 53.578125 
Q 30.03125 56 36.53125 56 
Q 37.453125 56 38.578125 55.875 
Q 39.703125 55.765625 41.0625 55.515625 
z
" id="BitstreamVeraSans-Roman-72"/>
      <path d="M 11.71875 12.40625 
L 22.015625 12.40625 
L 22.015625 4 
L 14.015625 -11.625 
L 7.71875 -11.625 
L 11.71875 4 
z
" id="BitstreamVeraSans-Roman-2c"/>
      <path d="M 48.78125 52.59375 
L 48.78125 44.1875 
Q 44.96875 46.296875 41.140625 47.34375 
Q 37.3125 48.390625 33.40625 48.390625 
Q 24.65625 48.390625 19.8125 42.84375 
Q 14.984375 37.3125 14.984375 27.296875 
Q 14.984375 17.28125 19.8125 11.734375 
Q 24.65625 6.203125 33.40625 6.203125 
Q 37.3125 6.203125 41.140625 7.25 
Q 44.96875 8.296875 48.78125 10.40625 
L 48.78125 2.09375 
Q 45.015625 0.34375 40.984375 -0.53125 
Q 36.96875 -1.421875 32.421875 -1.421875 
Q 20.0625 -1.421875 12.78125 6.34375 
Q 5.515625 14.109375 5.515625 27.296875 
Q 5.515625 40.671875 12.859375 48.328125 
Q 20.21875 56 33.015625 56 
Q 37.15625 56 41.109375 55.140625 
Q 45.0625 54.296875 48.78125 52.59375 
" id="BitstreamVeraSans-Roman-63"/>
     </defs>
     <g transform="translate(16.544531250000006 331.42848391089103)rotate(-90.0)scale(0.17 -0.17)">
      <use xlink:href="#BitstreamVeraSans-Roman-46"/>
      <use x="57.41015625" xlink:href="#BitstreamVeraSans-Roman-72"/>
      <use x="98.5234375" xlink:href="#BitstreamVeraSans-Roman-61"/>
      <use x="159.802734375" xlink:href="#BitstreamVeraSans-Roman-63"/>
      <use x="214.783203125" xlink:href="#BitstreamVeraSans-Roman-74"/>
      <use x="253.9921875" xlink:href="#BitstreamVeraSans-Roman-69"/>
      <use x="281.775390625" xlink:href="#BitstreamVeraSans-Roman-6f"/>
      <use x="342.95703125" xlink:href="#BitstreamVeraSans-Roman-6e"/>
      <use x="406.3359375" xlink:href="#BitstreamVeraSans-Roman-20"/>
      <use x="438.123046875" xlink:href="#BitstreamVeraSans-Roman-6f"/>
      <use x="499.3046875" xlink:href="#BitstreamVeraSans-Roman-66"/>
      <use x="534.509765625" xlink:href="#BitstreamVeraSans-Roman-20"/>
      <use x="566.296875" xlink:href="#BitstreamVeraSans-Roman-66"/>
      <use x="601.501953125" xlink:href="#BitstreamVeraSans-Roman-75"/>
      <use x="664.880859375" xlink:href="#BitstreamVeraSans-Roman-6e"/>
      <use x="728.259765625" xlink:href="#BitstreamVeraSans-Roman-63"/>
      <use x="783.240234375" xlink:href="#BitstreamVeraSans-Roman-74"/>
      <use x="822.44921875" xlink:href="#BitstreamVeraSans-Roman-69"/>
      <use x="850.232421875" xlink:href="#BitstreamVeraSans-Roman-6f"/>
      <use x="911.4140625" xlink:href="#BitstreamVeraSans-Roman-6e"/>
      <use x="974.79296875" xlink:href="#BitstreamVeraSans-Roman-2c"/>
      <use x="1006.580078125" xlink:href="#BitstreamVeraSans-Roman-74"/>
      <use x="1045.7890625" xlink:href="#BitstreamVeraSans-Roman-61"/>
      <use x="1107.068359375" xlink:href="#BitstreamVeraSans-Roman-72"/>
      <use x="1148.166015625" xlink:href="#BitstreamVeraSans-Roman-67"/>
      <use x="1211.642578125" xlink:href="#BitstreamVeraSans-Roman-65"/>
      <use x="1273.166015625" xlink:href="#BitstreamVeraSans-Roman-74"/>
      <use x="1312.375" xlink:href="#BitstreamVeraSans-Roman-20"/>
      <use x="1344.162109375" xlink:href="#BitstreamVeraSans-Roman-70"/>
      <use x="1407.638671875" xlink:href="#BitstreamVeraSans-Roman-61"/>
      <use x="1468.91796875" xlink:href="#BitstreamVeraSans-Roman-69"/>
      <use x="1496.701171875" xlink:href="#BitstreamVeraSans-Roman-72"/>
      <use x="1537.814453125" xlink:href="#BitstreamVeraSans-Roman-73"/>
     </g>
    </g>
   </g>
   <g id="text_13">
    <!-- DE1-T-fe -->
    <defs>
     <path d="M -0.296875 72.90625 
L 61.375 72.90625 
L 61.375 64.59375 
L 35.5 64.59375 
L 35.5 0 
L 25.59375 0 
L 25.59375 64.59375 
L -0.296875 64.59375 
z
" id="BitstreamVeraSans-Roman-54"/>
     <path d="M 19.671875 64.796875 
L 19.671875 8.109375 
L 31.59375 8.109375 
Q 46.6875 8.109375 53.6875 14.9375 
Q 60.6875 21.78125 60.6875 36.53125 
Q 60.6875 51.171875 53.6875 57.984375 
Q 46.6875 64.796875 31.59375 64.796875 
z
M 9.8125 72.90625 
L 30.078125 72.90625 
Q 51.265625 72.90625 61.171875 64.09375 
Q 71.09375 55.28125 71.09375 36.53125 
Q 71.09375 17.671875 61.125 8.828125 
Q 51.171875 0 30.078125 0 
L 9.8125 0 
z
" id="BitstreamVeraSans-Roman-44"/>
     <path d="M 9.8125 72.90625 
L 55.90625 72.90625 
L 55.90625 64.59375 
L 19.671875 64.59375 
L 19.671875 43.015625 
L 54.390625 43.015625 
L 54.390625 34.71875 
L 19.671875 34.71875 
L 19.671875 8.296875 
L 56.78125 8.296875 
L 56.78125 0 
L 9.8125 0 
z
" id="BitstreamVeraSans-Roman-45"/>
    </defs>
    <g transform="translate(467.91854999999987 382.12119923904515)scale(0.17 -0.17)">
     <use xlink:href="#BitstreamVeraSans-Roman-44"/>
     <use x="77.001953125" xlink:href="#BitstreamVeraSans-Roman-45"/>
     <use x="140.185546875" xlink:href="#BitstreamVeraSans-Roman-31"/>
     <use x="203.80859375" xlink:href="#BitstreamVeraSans-Roman-2d"/>
     <use x="239.751953125" xlink:href="#BitstreamVeraSans-Roman-54"/>
     <use x="300.6953125" xlink:href="#BitstreamVeraSans-Roman-2d"/>
     <use x="336.779296875" xlink:href="#BitstreamVeraSans-Roman-66"/>
     <use x="371.984375" xlink:href="#BitstreamVeraSans-Roman-65"/>
    </g>
   </g>
   <g id="text_14">
    <!-- DE1-E-fe -->
    <g transform="translate(467.91854999999987 292.48434010758746)scale(0.17 -0.17)">
     <use xlink:href="#BitstreamVeraSans-Roman-44"/>
     <use x="77.001953125" xlink:href="#BitstreamVeraSans-Roman-45"/>
     <use x="140.185546875" xlink:href="#BitstreamVeraSans-Roman-31"/>
     <use x="203.80859375" xlink:href="#BitstreamVeraSans-Roman-2d"/>
     <use x="239.892578125" xlink:href="#BitstreamVeraSans-Roman-45"/>
     <use x="303.076171875" xlink:href="#BitstreamVeraSans-Roman-2d"/>
     <use x="339.16015625" xlink:href="#BitstreamVeraSans-Roman-66"/>
     <use x="374.365234375" xlink:href="#BitstreamVeraSans-Roman-65"/>
    </g>
   </g>
   <g id="text_15">
    <!-- DE1-D -->
    <g transform="translate(467.91854999999987 202.84748097612976)scale(0.17 -0.17)">
     <use xlink:href="#BitstreamVeraSans-Roman-44"/>
     <use x="77.001953125" xlink:href="#BitstreamVeraSans-Roman-45"/>
     <use x="140.185546875" xlink:href="#BitstreamVeraSans-Roman-31"/>
     <use x="203.80859375" xlink:href="#BitstreamVeraSans-Roman-2d"/>
     <use x="239.892578125" xlink:href="#BitstreamVeraSans-Roman-44"/>
    </g>
   </g>
   <g id="text_16">
    <!-- DE1-B -->
    <defs>
     <path d="M 19.671875 34.8125 
L 19.671875 8.109375 
L 35.5 8.109375 
Q 43.453125 8.109375 47.28125 11.40625 
Q 51.125 14.703125 51.125 21.484375 
Q 51.125 28.328125 47.28125 31.5625 
Q 43.453125 34.8125 35.5 34.8125 
z
M 19.671875 64.796875 
L 19.671875 42.828125 
L 34.28125 42.828125 
Q 41.5 42.828125 45.03125 45.53125 
Q 48.578125 48.25 48.578125 53.8125 
Q 48.578125 59.328125 45.03125 62.0625 
Q 41.5 64.796875 34.28125 64.796875 
z
M 9.8125 72.90625 
L 35.015625 72.90625 
Q 46.296875 72.90625 52.390625 68.21875 
Q 58.5 63.53125 58.5 54.890625 
Q 58.5 48.1875 55.375 44.234375 
Q 52.25 40.28125 46.1875 39.3125 
Q 53.46875 37.75 57.5 32.78125 
Q 61.53125 27.828125 61.53125 20.40625 
Q 61.53125 10.640625 54.890625 5.3125 
Q 48.25 0 35.984375 0 
L 9.8125 0 
z
" id="BitstreamVeraSans-Roman-42"/>
    </defs>
    <g transform="translate(467.91854999999987 113.21062184467212)scale(0.17 -0.17)">
     <use xlink:href="#BitstreamVeraSans-Roman-44"/>
     <use x="77.001953125" xlink:href="#BitstreamVeraSans-Roman-45"/>
     <use x="140.185546875" xlink:href="#BitstreamVeraSans-Roman-31"/>
     <use x="203.80859375" xlink:href="#BitstreamVeraSans-Roman-2d"/>
     <use x="239.845703125" xlink:href="#BitstreamVeraSans-Roman-42"/>
    </g>
   </g>
   <g id="text_17">
    <!-- best 2009 -->
    <defs>
     <path d="M 10.984375 1.515625 
L 10.984375 10.5 
Q 14.703125 8.734375 18.5 7.8125 
Q 22.3125 6.890625 25.984375 6.890625 
Q 35.75 6.890625 40.890625 13.453125 
Q 46.046875 20.015625 46.78125 33.40625 
Q 43.953125 29.203125 39.59375 26.953125 
Q 35.25 24.703125 29.984375 24.703125 
Q 19.046875 24.703125 12.671875 31.3125 
Q 6.296875 37.9375 6.296875 49.421875 
Q 6.296875 60.640625 12.9375 67.421875 
Q 19.578125 74.21875 30.609375 74.21875 
Q 43.265625 74.21875 49.921875 64.515625 
Q 56.59375 54.828125 56.59375 36.375 
Q 56.59375 19.140625 48.40625 8.859375 
Q 40.234375 -1.421875 26.421875 -1.421875 
Q 22.703125 -1.421875 18.890625 -0.6875 
Q 15.09375 0.046875 10.984375 1.515625 
M 30.609375 32.421875 
Q 37.25 32.421875 41.125 36.953125 
Q 45.015625 41.5 45.015625 49.421875 
Q 45.015625 57.28125 41.125 61.84375 
Q 37.25 66.40625 30.609375 66.40625 
Q 23.96875 66.40625 20.09375 61.84375 
Q 16.21875 57.28125 16.21875 49.421875 
Q 16.21875 41.5 20.09375 36.953125 
Q 23.96875 32.421875 30.609375 32.421875 
" id="BitstreamVeraSans-Roman-39"/>
     <path d="M 48.6875 27.296875 
Q 48.6875 37.203125 44.609375 42.84375 
Q 40.53125 48.484375 33.40625 48.484375 
Q 26.265625 48.484375 22.1875 42.84375 
Q 18.109375 37.203125 18.109375 27.296875 
Q 18.109375 17.390625 22.1875 11.75 
Q 26.265625 6.109375 33.40625 6.109375 
Q 40.53125 6.109375 44.609375 11.75 
Q 48.6875 17.390625 48.6875 27.296875 
M 18.109375 46.390625 
Q 20.953125 51.265625 25.265625 53.625 
Q 29.59375 56 35.59375 56 
Q 45.5625 56 51.78125 48.09375 
Q 58.015625 40.1875 58.015625 27.296875 
Q 58.015625 14.40625 51.78125 6.484375 
Q 45.5625 -1.421875 35.59375 -1.421875 
Q 29.59375 -1.421875 25.265625 0.953125 
Q 20.953125 3.328125 18.109375 8.203125 
L 18.109375 0 
L 9.078125 0 
L 9.078125 75.984375 
L 18.109375 75.984375 
z
" id="BitstreamVeraSans-Roman-62"/>
    </defs>
    <g transform="translate(467.91854999999987 23.57376271321442)scale(0.17 -0.17)">
     <use xlink:href="#BitstreamVeraSans-Roman-62"/>
     <use x="63.4765625" xlink:href="#BitstreamVeraSans-Roman-65"/>
     <use x="125.0" xlink:href="#BitstreamVeraSans-Roman-73"/>
     <use x="177.099609375" xlink:href="#BitstreamVeraSans-Roman-74"/>
     <use x="216.30859375" xlink:href="#BitstreamVeraSans-Roman-20"/>
     <use x="248.095703125" xlink:href="#BitstreamVeraSans-Roman-32"/>
     <use x="311.71875" xlink:href="#BitstreamVeraSans-Roman-30"/>
     <use x="375.341796875" xlink:href="#BitstreamVeraSans-Roman-30"/>
     <use x="438.96484375" xlink:href="#BitstreamVeraSans-Roman-39"/>
    </g>
   </g>
   <g id="text_18">
    <!-- bbob f1-f5, 20-D -->
    <defs>
     <path d="M 10.796875 72.90625 
L 49.515625 72.90625 
L 49.515625 64.59375 
L 19.828125 64.59375 
L 19.828125 46.734375 
Q 21.96875 47.46875 24.109375 47.828125 
Q 26.265625 48.1875 28.421875 48.1875 
Q 40.625 48.1875 47.75 41.5 
Q 54.890625 34.8125 54.890625 23.390625 
Q 54.890625 11.625 47.5625 5.09375 
Q 40.234375 -1.421875 26.90625 -1.421875 
Q 22.3125 -1.421875 17.546875 -0.640625 
Q 12.796875 0.140625 7.71875 1.703125 
L 7.71875 11.625 
Q 12.109375 9.234375 16.796875 8.0625 
Q 21.484375 6.890625 26.703125 6.890625 
Q 35.15625 6.890625 40.078125 11.328125 
Q 45.015625 15.765625 45.015625 23.390625 
Q 45.015625 31 40.078125 35.4375 
Q 35.15625 39.890625 26.703125 39.890625 
Q 22.75 39.890625 18.8125 39.015625 
Q 14.890625 38.140625 10.796875 36.28125 
z
" id="BitstreamVeraSans-Roman-35"/>
    </defs>
    <g transform="translate(58.18335000000001 19.20084189356436)scale(0.102 -0.102)">
     <use xlink:href="#BitstreamVeraSans-Roman-62"/>
     <use x="63.4765625" xlink:href="#BitstreamVeraSans-Roman-62"/>
     <use x="126.953125" xlink:href="#BitstreamVeraSans-Roman-6f"/>
     <use x="188.134765625" xlink:href="#BitstreamVeraSans-Roman-62"/>
     <use x="251.611328125" xlink:href="#BitstreamVeraSans-Roman-20"/>
     <use x="283.3984375" xlink:href="#BitstreamVeraSans-Roman-66"/>
     <use x="318.603515625" xlink:href="#BitstreamVeraSans-Roman-31"/>
     <use x="382.2265625" xlink:href="#BitstreamVeraSans-Roman-2d"/>
     <use x="418.310546875" xlink:href="#BitstreamVeraSans-Roman-66"/>
     <use x="453.515625" xlink:href="#BitstreamVeraSans-Roman-35"/>
     <use x="517.138671875" xlink:href="#BitstreamVeraSans-Roman-2c"/>
     <use x="548.92578125" xlink:href="#BitstreamVeraSans-Roman-20"/>
     <use x="580.712890625" xlink:href="#BitstreamVeraSans-Roman-32"/>
     <use x="644.3359375" xlink:href="#BitstreamVeraSans-Roman-30"/>
     <use x="707.958984375" xlink:href="#BitstreamVeraSans-Roman-2d"/>
     <use x="744.04296875" xlink:href="#BitstreamVeraSans-Roman-44"/>
    </g>
    <!-- 51 targets: 100..1e-08 -->
    <defs>
     <path d="M 11.71875 12.40625 
L 22.015625 12.40625 
L 22.015625 0 
L 11.71875 0 
z
M 11.71875 51.703125 
L 22.015625 51.703125 
L 22.015625 39.3125 
L 11.71875 39.3125 
z
" id="BitstreamVeraSans-Roman-3a"/>
    </defs>
    <g transform="translate(58.18335000000001 30.622610643564315)scale(0.102 -0.102)">
     <use xlink:href="#BitstreamVeraSans-Roman-35"/>
     <use x="63.623046875" xlink:href="#BitstreamVeraSans-Roman-31"/>
     <use x="127.24609375" xlink:href="#BitstreamVeraSans-Roman-20"/>
     <use x="159.033203125" xlink:href="#BitstreamVeraSans-Roman-74"/>
     <use x="198.2421875" xlink:href="#BitstreamVeraSans-Roman-61"/>
     <use x="259.521484375" xlink:href="#BitstreamVeraSans-Roman-72"/>
     <use x="300.619140625" xlink:href="#BitstreamVeraSans-Roman-67"/>
     <use x="364.095703125" xlink:href="#BitstreamVeraSans-Roman-65"/>
     <use x="425.619140625" xlink:href="#BitstreamVeraSans-Roman-74"/>
     <use x="464.828125" xlink:href="#BitstreamVeraSans-Roman-73"/>
     <use x="516.927734375" xlink:href="#BitstreamVeraSans-Roman-3a"/>
     <use x="550.619140625" xlink:href="#BitstreamVeraSans-Roman-20"/>
     <use x="582.40625" xlink:href="#BitstreamVeraSans-Roman-31"/>
     <use x="646.029296875" xlink:href="#BitstreamVeraSans-Roman-30"/>
     <use x="709.65234375" xlink:href="#BitstreamVeraSans-Roman-30"/>
     <use x="773.275390625" xlink:href="#BitstreamVeraSans-Roman-2e"/>
     <use x="805.0625" xlink:href="#BitstreamVeraSans-Roman-2e"/>
     <use x="836.849609375" xlink:href="#BitstreamVeraSans-Roman-31"/>
     <use x="900.47265625" xlink:href="#BitstreamVeraSans-Roman-65"/>
     <use x="961.99609375" xlink:href="#BitstreamVeraSans-Roman-2d"/>
     <use x="998.080078125" xlink:href="#BitstreamVeraSans-Roman-30"/>
     <use x="1061.703125" xlink:href="#BitstreamVeraSans-Roman-38"/>
    </g>
    <!-- 15 instances -->
    <g transform="translate(58.18335000000001 42.04437939356433)scale(0.102 -0.102)">
     <use xlink:href="#BitstreamVeraSans-Roman-31"/>
     <use x="63.623046875" xlink:href="#BitstreamVeraSans-Roman-35"/>
     <use x="127.24609375" xlink:href="#BitstreamVeraSans-Roman-20"/>
     <use x="159.033203125" xlink:href="#BitstreamVeraSans-Roman-69"/>
     <use x="186.81640625" xlink:href="#BitstreamVeraSans-Roman-6e"/>
     <use x="250.1953125" xlink:href="#BitstreamVeraSans-Roman-73"/>
     <use x="302.294921875" xlink:href="#BitstreamVeraSans-Roman-74"/>
     <use x="341.50390625" xlink:href="#BitstreamVeraSans-Roman-61"/>
     <use x="402.783203125" xlink:href="#BitstreamVeraSans-Roman-6e"/>
     <use x="466.162109375" xlink:href="#BitstreamVeraSans-Roman-63"/>
     <use x="521.142578125" xlink:href="#BitstreamVeraSans-Roman-65"/>
     <use x="582.666015625" xlink:href="#BitstreamVeraSans-Roman-73"/>
    </g>
   </g>
   <g id="text_19">
    <!-- v2.3.3 -->
    <defs>
     <path d="M 40.578125 39.3125 
Q 47.65625 37.796875 51.625 33 
Q 55.609375 28.21875 55.609375 21.1875 
Q 55.609375 10.40625 48.1875 4.484375 
Q 40.765625 -1.421875 27.09375 -1.421875 
Q 22.515625 -1.421875 17.65625 -0.515625 
Q 12.796875 0.390625 7.625 2.203125 
L 7.625 11.71875 
Q 11.71875 9.328125 16.59375 8.109375 
Q 21.484375 6.890625 26.8125 6.890625 
Q 36.078125 6.890625 40.9375 10.546875 
Q 45.796875 14.203125 45.796875 21.1875 
Q 45.796875 27.640625 41.28125 31.265625 
Q 36.765625 34.90625 28.71875 34.90625 
L 20.21875 34.90625 
L 20.21875 43.015625 
L 29.109375 43.015625 
Q 36.375 43.015625 40.234375 45.921875 
Q 44.09375 48.828125 44.09375 54.296875 
Q 44.09375 59.90625 40.109375 62.90625 
Q 36.140625 65.921875 28.71875 65.921875 
Q 24.65625 65.921875 20.015625 65.03125 
Q 15.375 64.15625 9.8125 62.3125 
L 9.8125 71.09375 
Q 15.4375 72.65625 20.34375 73.4375 
Q 25.25 74.21875 29.59375 74.21875 
Q 40.828125 74.21875 47.359375 69.109375 
Q 53.90625 64.015625 53.90625 55.328125 
Q 53.90625 49.265625 50.4375 45.09375 
Q 46.96875 40.921875 40.578125 39.3125 
" id="BitstreamVeraSans-Roman-33"/>
    </defs>
    <g style="fill:#808080;" transform="translate(221.76124999999996 379.0480946782178)scale(0.1 -0.1)">
     <use xlink:href="#BitstreamVeraSans-Roman-76"/>
     <use x="59.1796875" xlink:href="#BitstreamVeraSans-Roman-32"/>
     <use x="122.802734375" xlink:href="#BitstreamVeraSans-Roman-2e"/>
     <use x="154.58984375" xlink:href="#BitstreamVeraSans-Roman-33"/>
     <use x="218.212890625" xlink:href="#BitstreamVeraSans-Roman-2e"/>
     <use x="250.0" xlink:href="#BitstreamVeraSans-Roman-33"/>
    </g>
   </g>
  </g>
 </g>
 <defs>
  <clipPath id="p58c844fbeb">
   <rect height="377.22178217821784" width="365.8349999999999" x="54.52500000000001" y="7.678217821782141"/>
  </clipPath>
 </defs>
</svg>
