<?xml version="1.0" encoding="utf-8" standalone="no"?>
<!DOCTYPE svg PUBLIC "-//W3C//DTD SVG 1.1//EN"
  "http://www.w3.org/Graphics/SVG/1.1/DTD/svg11.dtd">
<!-- Created with matplotlib (http://matplotlib.org/) -->
<svg height="432pt" version="1.1" viewBox="0 0 576 432" width="576pt" xmlns="http://www.w3.org/2000/svg" xmlns:xlink="http://www.w3.org/1999/xlink">
 <defs>
  <style type="text/css">
*{stroke-linecap:butt;stroke-linejoin:round;stroke-miterlimit:100000;}
  </style>
 </defs>
 <g id="figure_1">
  <g id="patch_1">
   <path d="M 0 432 
L 576 432 
L 576 0 
L 0 0 
z
" style="fill:#ffffff;"/>
  </g>
  <g id="axes_1">
   <g id="patch_2">
    <path d="M 54.525 384.9 
L 420.36 384.9 
L 420.36 7.678218 
L 54.525 7.678218 
z
" style="fill:#ffffff;"/>
   </g>
   <g id="line2d_1">
    <path d="M -1 358.536218 
L 11.465764 358.536218 
L 11.465764 355.606909 
L 30.697019 355.606909 
L 30.697019 352.6776 
L 40.955798 352.6776 
L 40.955798 351.212945 
L 60.479924 351.212945 
L 60.479924 349.748291 
L 80.567777 349.748291 
L 80.567777 348.283636 
L 94.423383 348.283636 
L 94.423383 346.818981 
L 96.479675 346.818981 
L 96.479675 345.354327 
L 112.032723 345.354327 
L 112.032723 343.889672 
L 116.365218 343.889672 
L 116.365218 342.425018 
L 124.161089 342.425018 
L 124.161089 340.960363 
L 126.083155 340.960363 
L 126.083155 339.495709 
L 129.331138 339.495709 
L 129.331138 338.031054 
L 132.09769 338.031054 
L 132.09769 336.566399 
L 132.503337 336.566399 
L 132.503337 335.101745 
L 139.33245 335.101745 
L 139.33245 333.63709 
L 139.494188 333.63709 
L 139.494188 332.172436 
L 143.987714 332.172436 
L 143.987714 330.707781 
L 145.272802 330.707781 
L 145.272802 329.243127 
L 149.601064 329.243127 
L 149.601064 327.778472 
L 150.692888 327.778472 
L 150.692888 326.313818 
L 152.107449 326.313818 
L 152.107449 324.849163 
L 154.97004 324.849163 
L 154.97004 323.384508 
L 156.871257 323.384508 
L 156.871257 321.919854 
L 160.838076 321.919854 
L 160.838076 320.455199 
L 164.784912 320.455199 
L 164.784912 318.990545 
L 167.537444 318.990545 
L 167.537444 317.52589 
L 172.895399 317.52589 
L 172.895399 316.061236 
L 173.073514 316.061236 
L 173.073514 314.596581 
L 174.62232 314.596581 
L 174.62232 313.131927 
L 174.810112 313.131927 
L 174.810112 311.667272 
L 180.862911 311.667272 
L 180.862911 310.202617 
L 182.696675 310.202617 
L 182.696675 308.737963 
L 185.207058 308.737963 
L 185.207058 307.273308 
L 185.382024 307.273308 
L 185.382024 305.808654 
L 186.10663 305.808654 
L 186.11352 302.879345 
L 188.329956 302.879345 
L 188.329956 301.41469 
L 188.717104 301.41469 
L 188.717104 299.950035 
L 190.613314 299.950035 
L 190.613314 298.485381 
L 194.246882 298.485381 
L 194.246882 297.020726 
L 197.355156 297.020726 
L 197.355156 295.556072 
L 200.170309 295.556072 
L 200.170309 294.091417 
L 207.997441 294.091417 
L 207.997441 292.626763 
L 208.331171 292.626763 
L 208.331171 291.162108 
L 209.147137 291.162108 
L 209.147137 289.697454 
L 210.807677 289.697454 
L 210.807677 288.232799 
L 211.897332 288.232799 
L 211.897332 286.768144 
L 212.980333 286.768144 
L 212.980333 285.30349 
L 213.619703 285.30349 
L 213.619703 283.838835 
L 214.661545 283.838835 
L 214.661545 282.374181 
L 216.427844 282.374181 
L 216.427844 280.909526 
L 216.66573 280.909526 
L 216.66573 279.444872 
L 217.886344 279.444872 
L 217.886344 277.980217 
L 218.146476 277.980217 
L 218.146476 276.515562 
L 218.344633 276.515562 
L 218.344633 275.050908 
L 219.393882 275.050908 
L 219.393882 273.586253 
L 220.798533 273.586253 
L 220.798533 272.121599 
L 221.020841 272.121599 
L 221.082167 269.19229 
L 222.108606 269.19229 
L 222.108606 267.727635 
L 222.714716 267.727635 
L 222.714716 266.262981 
L 223.575739 266.262981 
L 223.575739 264.798326 
L 224.936963 264.798326 
L 224.936963 263.333671 
L 225.73949 263.333671 
L 225.73949 261.869017 
L 229.140013 261.869017 
L 229.140013 260.404362 
L 229.527306 260.404362 
L 229.527306 258.939708 
L 230.343537 258.939708 
L 230.343537 257.475053 
L 230.460501 257.475053 
L 230.460501 256.010399 
L 232.812117 256.010399 
L 232.910922 253.08109 
L 234.024182 253.08109 
L 234.024182 251.616435 
L 234.192524 251.616435 
L 234.192524 250.15178 
L 234.526732 250.15178 
L 234.526732 248.687126 
L 234.797295 248.687126 
L 234.797295 247.222471 
L 235.043539 247.222471 
L 235.043539 245.757817 
L 236.173301 245.757817 
L 236.173301 244.293162 
L 236.666211 244.293162 
L 236.666211 242.828508 
L 237.916767 242.828508 
L 237.916767 241.363853 
L 238.368084 241.363853 
L 238.406983 238.434544 
L 238.53115 238.434544 
L 238.53115 236.969889 
L 238.943338 236.969889 
L 238.943338 235.505235 
L 239.364996 235.505235 
L 239.364996 234.04058 
L 239.653317 234.04058 
L 239.653317 232.575926 
L 240.069459 232.575926 
L 240.069459 231.111271 
L 240.409565 231.111271 
L 240.409565 229.646617 
L 241.913282 229.646617 
L 241.913282 228.181962 
L 242.070993 228.181962 
L 242.070993 226.717307 
L 242.373058 226.717307 
L 242.373058 225.252653 
L 242.621792 225.252653 
L 242.621792 223.787998 
L 242.909894 223.787998 
L 242.909894 222.323344 
L 244.088204 222.323344 
L 244.088204 220.858689 
L 244.964391 220.858689 
L 245.032821 217.92938 
L 245.899178 217.92938 
L 245.899178 216.464725 
L 246.027383 216.464725 
L 246.027383 215.000071 
L 246.172707 215.000071 
L 246.172707 213.535416 
L 246.31468 213.535416 
L 246.31468 212.070762 
L 246.462765 212.070762 
L 246.462765 210.606107 
L 246.576319 210.606107 
L 246.576319 209.141453 
L 247.737135 209.141453 
L 247.737135 207.676798 
L 247.962882 207.676798 
L 247.962882 206.212144 
L 248.796241 206.212144 
L 248.796241 204.747489 
L 249.660914 204.747489 
L 249.660914 203.282834 
L 250.158188 203.282834 
L 250.158188 201.81818 
L 250.410298 201.81818 
L 250.410298 200.353525 
L 250.798338 200.353525 
L 250.798338 198.888871 
L 253.085418 198.888871 
L 253.085418 197.424216 
L 253.678918 197.424216 
L 253.678918 195.959562 
L 253.901407 195.959562 
L 253.901407 194.494907 
L 254.05555 194.494907 
L 254.05555 193.030253 
L 254.182751 193.030253 
L 254.27884 190.100943 
L 254.400549 190.100943 
L 254.400549 188.636289 
L 254.55439 188.636289 
L 254.55439 187.171634 
L 254.771344 187.171634 
L 254.771344 185.70698 
L 255.113455 185.70698 
L 255.113455 184.242325 
L 255.358915 184.242325 
L 255.358915 182.777671 
L 255.676603 182.777671 
L 255.676603 181.313016 
L 255.961674 181.313016 
L 255.961674 179.848361 
L 256.110841 179.848361 
L 256.110841 178.383707 
L 256.348768 178.383707 
L 256.348768 176.919052 
L 256.512776 176.919052 
L 256.514015 173.989743 
L 256.695438 173.989743 
L 256.763865 171.060434 
L 256.817725 171.060434 
L 256.817725 169.59578 
L 256.955617 169.59578 
L 256.955617 168.131125 
L 257.07591 168.131125 
L 257.07591 166.66647 
L 257.20113 166.66647 
L 257.20113 165.201816 
L 260.581405 165.201816 
L 260.581405 163.737161 
L 261.569631 163.737161 
L 261.569631 162.272507 
L 262.161931 162.272507 
L 262.217055 159.343198 
L 262.291386 159.343198 
L 262.346317 156.413888 
L 262.435625 156.413888 
L 262.435625 154.949234 
L 263.026498 154.949234 
L 263.069355 152.019925 
L 263.137945 152.019925 
L 263.211516 149.090616 
L 263.271629 149.090616 
L 263.372952 144.696652 
L 263.44086 144.696652 
L 263.44086 143.231997 
L 265.412546 143.231997 
L 265.506227 138.838034 
L 265.55131 138.838034 
L 265.640588 134.44407 
L 265.69533 134.44407 
L 265.786618 130.050106 
L 265.817171 130.050106 
L 265.927929 125.656143 
L 265.962073 125.656143 
L 265.962073 124.191488 
L 268.483977 124.191488 
L 268.483977 122.726834 
L 271.006809 122.726834 
L 271.051832 119.797524 
L 271.13299 119.797524 
L 271.13299 118.33287 
L 273.568766 118.33287 
L 273.633771 115.403561 
L 273.704547 115.403561 
L 273.808237 111.009597 
L 273.87703 111.009597 
L 273.925054 108.080288 
L 273.998083 108.080288 
L 274.053648 105.150979 
L 274.116212 105.150979 
L 274.177393 102.22167 
L 274.23607 102.22167 
L 274.346828 97.827706 
L 274.365459 97.827706 
L 274.449249 91.969088 
L 275.830609 91.969088 
L 275.849184 84.645815 
L 277.136883 84.645815 
L 277.144998 81.716506 
L 281.902488 81.716506 
L 282.004287 77.322542 
L 282.05391 77.322542 
L 282.138713 72.928579 
L 282.190492 72.928579 
L 282.293747 68.534615 
L 282.338721 68.534615 
L 282.432457 64.140651 
L 282.482388 64.140651 
L 282.563985 59.746687 
L 282.623925 59.746687 
L 282.667614 56.817378 
L 335.141254 56.817378 
L 335.141254 55.352724 
L 336.167511 55.352724 
L 336.167511 53.888069 
L 337.64818 53.888069 
L 337.64818 52.423415 
L 338.893875 52.423415 
L 338.893875 50.95876 
L 341.45966 50.95876 
L 341.45966 49.494106 
L 341.595769 49.494106 
L 341.595769 48.029451 
L 343.066855 48.029451 
L 343.168705 39.241524 
L 343.183972 39.241524 
L 343.286526 28.988942 
L 343.300374 28.988942 
L 343.408167 17.271705 
L 343.423684 17.271705 
L 343.469686 11.413087 
L 420.36 11.413087 
L 420.36 11.413087 
" style="fill:none;stroke:#f5deb3;stroke-linecap:square;stroke-width:4.0;"/>
   </g>
   <g id="line2d_2">
    <defs>
     <path d="M -0 7.778175 
L 7.778175 0 
L 0 -7.778175 
L -7.778175 -0 
z
" id="m00d75a0f8b" style="stroke:#f5deb3;stroke-linejoin:miter;stroke-width:1.5;"/>
    </defs>
    <g>
     <use style="fill:#f5deb3;stroke:#f5deb3;stroke-linejoin:miter;stroke-width:1.5;" x="185.20705842177176" xlink:href="#m00d75a0f8b" y="307.2733082685088"/>
     <use style="fill:#f5deb3;stroke:#f5deb3;stroke-linejoin:miter;stroke-width:1.5;" x="247.73713502998086" xlink:href="#m00d75a0f8b" y="207.67679812244472"/>
     <use style="fill:#f5deb3;stroke:#f5deb3;stroke-linejoin:miter;stroke-width:1.5;" x="282.6676138048008" xlink:href="#m00d75a0f8b" y="58.28203290334858"/>
     <use style="fill:#f5deb3;stroke:#f5deb3;stroke-linejoin:miter;stroke-width:1.5;" x="343.4696859857226" xlink:href="#m00d75a0f8b" y="11.413086952259562"/>
     <use style="fill:#f5deb3;stroke:#f5deb3;stroke-linejoin:miter;stroke-width:1.5;" x="420.3599999999999" xlink:href="#m00d75a0f8b" y="11.413086952259562"/>
    </g>
   </g>
   <g id="line2d_3">
    <path d="M -15676.38 758.386913 
" style="fill:none;stroke:#f5deb3;stroke-linecap:square;stroke-width:4.0;"/>
    <g>
     <use style="fill:#f5deb3;stroke:#f5deb3;stroke-linejoin:miter;stroke-width:1.5;" x="-15676.379999999994" xlink:href="#m00d75a0f8b" y="758.3869130477403"/>
    </g>
   </g>
   <g id="line2d_4">
    <path d="M 420.36 11.413087 
L 460.60185 18.882825 
" style="fill:none;stroke:#f5deb3;stroke-linecap:square;stroke-width:4.0;"/>
    <g>
     <use style="fill:#f5deb3;stroke:#f5deb3;stroke-linejoin:miter;stroke-width:1.5;" x="420.3599999999999" xlink:href="#m00d75a0f8b" y="11.413086952259562"/>
     <use style="fill:#f5deb3;stroke:#f5deb3;stroke-linejoin:miter;stroke-width:1.5;" x="460.60184999999996" xlink:href="#m00d75a0f8b" y="18.882825213214403"/>
    </g>
   </g>
   <g id="line2d_5">
    <defs>
     <path d="M 0 1.5 
C 0.397805 1.5 0.77937 1.341951 1.06066 1.06066 
C 1.341951 0.77937 1.5 0.397805 1.5 0 
C 1.5 -0.397805 1.341951 -0.77937 1.06066 -1.06066 
C 0.77937 -1.341951 0.397805 -1.5 0 -1.5 
C -0.397805 -1.5 -0.77937 -1.341951 -1.06066 -1.06066 
C -1.341951 -0.77937 -1.5 -0.397805 -1.5 0 
C -1.5 0.397805 -1.341951 0.77937 -1.06066 1.06066 
C -0.77937 1.341951 -0.397805 1.5 0 1.5 
z
" id="m8dbf48493b" style="stroke:#f5deb3;stroke-width:0.5;"/>
    </defs>
    <g>
     <use style="fill:#f5deb3;stroke:#f5deb3;stroke-width:0.5;" x="343.4696859857226" xlink:href="#m8dbf48493b" y="11.413086952259562"/>
     <use style="fill:#f5deb3;stroke:#f5deb3;stroke-width:0.5;" x="343.4696859857226" xlink:href="#m8dbf48493b" y="11.413086952259562"/>
    </g>
   </g>
   <g id="line2d_6">
    <defs>
     <path d="M 0 1.5 
C 0.397805 1.5 0.77937 1.341951 1.06066 1.06066 
C 1.341951 0.77937 1.5 0.397805 1.5 0 
C 1.5 -0.397805 1.341951 -0.77937 1.06066 -1.06066 
C 0.77937 -1.341951 0.397805 -1.5 0 -1.5 
C -0.397805 -1.5 -0.77937 -1.341951 -1.06066 -1.06066 
C -1.341951 -0.77937 -1.5 -0.397805 -1.5 0 
C -1.5 0.397805 -1.341951 0.77937 -1.06066 1.06066 
C -0.77937 1.341951 -0.397805 1.5 0 1.5 
z
" id="m2fafccadc8" style="stroke:#000080;stroke-width:0.5;"/>
    </defs>
    <g>
     <use style="fill:#000080;stroke:#000080;stroke-width:0.5;" x="334.9938839360795" xlink:href="#m2fafccadc8" y="327.77847212211026"/>
     <use style="fill:#000080;stroke:#000080;stroke-width:0.5;" x="334.9938839360795" xlink:href="#m2fafccadc8" y="327.77847212211026"/>
    </g>
   </g>
   <g id="line2d_7">
    <path d="M -1 355.167512 
L 2.262857 355.167512 
L 2.262857 354.728116 
L 11.465764 354.728116 
L 11.465764 354.28872 
L 17.99533 354.28872 
L 17.99533 353.849323 
L 23.060055 353.849323 
L 23.060055 353.556392 
L 30.697019 353.556392 
L 30.697019 353.409927 
L 33.727802 353.409927 
L 33.727802 353.263461 
L 42.930709 353.263461 
L 42.930709 353.116996 
L 46.429492 353.116996 
L 46.429492 352.824065 
L 49.460275 352.824065 
L 49.460275 352.531134 
L 52.133615 352.531134 
L 52.133615 352.384669 
L 62.161964 352.384669 
L 62.161964 352.238203 
L 74.395654 352.238203 
L 74.395654 352.091738 
L 78.69091 352.091738 
L 78.69091 351.798807 
L 80.567777 351.798807 
L 80.567777 351.652341 
L 80.92522 351.652341 
L 80.92522 351.505876 
L 83.281113 351.505876 
L 83.281113 351.359411 
L 88.409684 351.359411 
L 88.409684 351.212945 
L 88.914086 351.212945 
L 88.914086 351.06648 
L 90.128127 351.06648 
L 90.128127 350.920014 
L 97.866192 350.920014 
L 97.866192 350.627083 
L 99.331033 350.627083 
L 99.331033 350.480618 
L 106.328599 350.480618 
L 106.328599 350.334152 
L 108.216492 350.334152 
L 108.216492 350.041221 
L 112.566798 350.041221 
L 112.566798 349.894756 
L 114.015138 349.894756 
L 114.015138 349.748291 
L 114.342901 349.748291 
L 114.342901 349.601825 
L 115.914266 349.601825 
L 115.914266 349.308894 
L 116.290678 349.308894 
L 116.290678 348.869498 
L 116.587378 348.869498 
L 116.587378 348.576567 
L 118.221995 348.576567 
L 118.221995 348.430101 
L 125.142462 348.430101 
L 125.142462 348.137171 
L 127.58434 348.137171 
L 127.58434 347.990705 
L 128.605108 347.990705 
L 128.605108 347.697774 
L 129.289067 347.697774 
L 129.289067 347.551309 
L 130.717032 347.551309 
L 130.717032 347.404843 
L 131.417858 347.404843 
L 131.417858 347.258378 
L 131.873334 347.258378 
L 131.873334 347.111912 
L 137.117721 347.111912 
L 137.117721 346.965447 
L 137.735569 346.965447 
L 137.735569 346.672516 
L 139.386491 346.672516 
L 139.386491 346.379585 
L 145.251969 346.379585 
L 145.251969 345.940189 
L 148.919836 345.940189 
L 148.919836 345.500792 
L 151.034694 345.500792 
L 151.034694 345.207861 
L 151.275728 345.207861 
L 151.275728 345.061396 
L 151.561631 345.061396 
L 151.561631 344.768465 
L 152.459113 344.768465 
L 152.489437 344.329069 
L 153.072789 344.329069 
L 153.072789 344.182603 
L 154.125977 344.182603 
L 154.125977 344.036138 
L 154.66923 344.036138 
L 154.66923 343.743207 
L 155.172876 343.743207 
L 155.172876 343.596741 
L 157.825265 343.596741 
L 157.825265 343.450276 
L 159.342447 343.450276 
L 159.387215 343.157345 
L 161.903481 343.157345 
L 161.903481 343.01088 
L 164.545665 343.01088 
L 164.545665 342.864414 
L 164.846529 342.864414 
L 164.907979 342.278552 
L 165.030383 342.278552 
L 165.030383 342.132087 
L 165.936339 342.132087 
L 165.936339 341.839156 
L 167.215046 341.839156 
L 167.215046 341.69269 
L 168.410519 341.69269 
L 168.410519 341.546225 
L 168.522937 341.546225 
L 168.522937 341.39976 
L 170.579936 341.39976 
L 170.648116 341.106829 
L 173.268445 341.106829 
L 173.268445 340.813898 
L 175.748214 340.813898 
L 175.748214 340.667432 
L 176.0346 340.667432 
L 176.0346 340.374501 
L 178.586502 340.374501 
L 178.586502 340.08157 
L 182.628509 340.08157 
L 182.628509 339.935105 
L 183.664659 339.935105 
L 183.664659 339.78864 
L 184.11668 339.78864 
L 184.11668 339.642174 
L 184.670252 339.642174 
L 184.670252 339.495709 
L 185.06683 339.495709 
L 185.06683 339.349243 
L 186.798795 339.349243 
L 186.798795 339.202778 
L 186.958634 339.202778 
L 186.958634 339.056312 
L 188.541383 339.056312 
L 188.541383 338.909847 
L 189.819968 338.909847 
L 189.819968 338.763381 
L 191.349804 338.763381 
L 191.349804 338.616916 
L 191.532286 338.616916 
L 191.532286 338.47045 
L 192.651695 338.47045 
L 192.651695 338.323985 
L 193.058588 338.323985 
L 193.058588 338.17752 
L 193.358416 338.17752 
L 193.358416 338.031054 
L 193.560259 338.031054 
L 193.560259 337.738123 
L 194.69021 337.738123 
L 194.69021 337.591658 
L 195.256648 337.591658 
L 195.318722 336.85933 
L 195.881078 336.85933 
L 195.881078 336.712865 
L 196.344415 336.712865 
L 196.344415 336.419934 
L 197.669893 336.419934 
L 197.669893 336.273469 
L 198.177525 336.273469 
L 198.177525 336.127003 
L 201.139382 336.127003 
L 201.139382 335.980538 
L 202.551309 335.980538 
L 202.551309 335.687607 
L 204.932675 335.687607 
L 204.932675 335.394676 
L 207.03437 335.394676 
L 207.03437 335.24821 
L 209.909447 335.24821 
L 209.909447 335.101745 
L 211.424632 335.101745 
L 211.424632 334.955279 
L 216.053385 334.955279 
L 216.053385 334.808814 
L 217.692696 334.808814 
L 217.692696 334.662349 
L 220.447659 334.662349 
L 220.447659 334.515883 
L 223.040593 334.515883 
L 223.040593 334.222952 
L 223.356518 334.222952 
L 223.356518 334.076487 
L 224.042929 334.076487 
L 224.042929 333.783556 
L 224.234467 333.783556 
L 224.234467 333.63709 
L 224.46576 333.63709 
L 224.46576 333.344159 
L 227.137334 333.344159 
L 227.137334 333.051229 
L 233.762764 333.051229 
L 233.762764 332.758298 
L 239.786732 332.758298 
L 239.786732 332.611832 
L 239.975287 332.611832 
L 239.975287 332.465367 
L 250.512623 332.465367 
L 250.512623 332.318901 
L 253.167057 332.318901 
L 253.167057 332.172436 
L 253.772615 332.172436 
L 253.772615 332.02597 
L 257.602095 332.02597 
L 257.602095 331.879505 
L 259.838076 331.879505 
L 259.895665 331.440109 
L 259.973599 331.440109 
L 259.973599 331.293643 
L 264.943703 331.293643 
L 264.943703 331.147178 
L 266.396622 331.147178 
L 266.396622 331.000712 
L 266.728001 331.000712 
L 266.728001 330.854247 
L 277.535864 330.854247 
L 277.571722 330.561316 
L 280.751851 330.561316 
L 280.751851 330.41485 
L 280.933156 330.41485 
L 280.933156 330.268385 
L 282.96362 330.268385 
L 282.96362 330.121919 
L 285.679685 330.121919 
L 285.679685 329.975454 
L 286.680069 329.975454 
L 286.680069 329.828989 
L 292.939236 329.828989 
L 292.939236 329.682523 
L 293.678084 329.682523 
L 293.678084 329.536058 
L 296.50545 329.536058 
L 296.50545 329.389592 
L 299.019307 329.389592 
L 299.019307 329.243127 
L 300.762064 329.243127 
L 300.762064 329.096661 
L 301.631836 329.096661 
L 301.631836 328.950196 
L 302.796486 328.950196 
L 302.796486 328.80373 
L 303.659427 328.80373 
L 303.659427 328.657265 
L 307.240747 328.657265 
L 307.240747 328.510799 
L 315.48407 328.510799 
L 315.48407 328.364334 
L 316.607832 328.364334 
L 316.607832 328.217868 
L 319.522318 328.217868 
L 319.522318 328.071403 
L 322.245099 328.071403 
L 322.245099 327.924938 
L 334.993884 327.924938 
L 334.993884 327.778472 
L 420.36 327.778472 
L 420.36 327.778472 
" style="fill:none;stroke:#000080;stroke-linecap:square;stroke-width:1.5;"/>
   </g>
   <g id="line2d_8">
    <defs>
     <path d="M 0 6 
C 1.591219 6 3.117479 5.367802 4.242641 4.242641 
C 5.367802 3.117479 6 1.591219 6 0 
C 6 -1.591219 5.367802 -3.117479 4.242641 -4.242641 
C 3.117479 -5.367802 1.591219 -6 0 -6 
C -1.591219 -6 -3.117479 -5.367802 -4.242641 -4.242641 
C -5.367802 -3.117479 -6 -1.591219 -6 0 
C -6 1.591219 -5.367802 3.117479 -4.242641 4.242641 
C -3.117479 5.367802 -1.591219 6 0 6 
z
" id="m4472a5b892" style="stroke:#000080;stroke-width:1.5;"/>
    </defs>
    <g>
     <use style="fill:none;stroke:#000080;stroke-width:1.5;" x="83.28111279141577" xlink:href="#m4472a5b892" y="351.3594105537519"/>
     <use style="fill:none;stroke:#000080;stroke-width:1.5;" x="173.26844486429513" xlink:href="#m4472a5b892" y="341.1068286269512"/>
     <use style="fill:none;stroke:#000080;stroke-width:1.5;" x="266.3966217980176" xlink:href="#m4472a5b892" y="331.00071215624763"/>
     <use style="fill:none;stroke:#000080;stroke-width:1.5;" x="334.9938839360795" xlink:href="#m4472a5b892" y="327.9249375782074"/>
     <use style="fill:none;stroke:#000080;stroke-width:1.5;" x="334.9938839360795" xlink:href="#m4472a5b892" y="327.77847212211026"/>
     <use style="fill:none;stroke:#000080;stroke-width:1.5;" x="420.3599999999999" xlink:href="#m4472a5b892" y="327.77847212211026"/>
    </g>
   </g>
   <g id="line2d_9">
    <path d="M -15676.38 758.386913 
" style="fill:none;stroke:#000080;stroke-linecap:square;stroke-width:1.5;"/>
    <g>
     <use style="fill:none;stroke:#000080;stroke-width:1.5;" x="-15676.379999999994" xlink:href="#m4472a5b892" y="758.3869130477403"/>
    </g>
   </g>
   <g id="line2d_10">
    <path clip-path="url(#p21c5862e95)" d="M 247.830656 332.465367 
" style="fill:none;stroke:#000080;stroke-linecap:square;"/>
    <defs>
     <path d="M -12 12 
L 12 -12 
M -12 -12 
L 12 12 
" id="m622f1fb285" style="stroke:#000080;"/>
    </defs>
    <g clip-path="url(#p21c5862e95)">
     <use style="fill:#000080;stroke:#000080;" x="247.83065569508165" xlink:href="#m622f1fb285" y="332.4653667172192"/>
    </g>
   </g>
   <g id="line2d_11">
    <defs>
     <path d="M 0 1.5 
C 0.397805 1.5 0.77937 1.341951 1.06066 1.06066 
C 1.341951 0.77937 1.5 0.397805 1.5 0 
C 1.5 -0.397805 1.341951 -0.77937 1.06066 -1.06066 
C 0.77937 -1.341951 0.397805 -1.5 0 -1.5 
C -0.397805 -1.5 -0.77937 -1.341951 -1.06066 -1.06066 
C -1.341951 -0.77937 -1.5 -0.397805 -1.5 0 
C -1.5 0.397805 -1.341951 0.77937 -1.06066 1.06066 
C -0.77937 1.341951 -0.397805 1.5 0 1.5 
z
" id="ma53b2be495" style="stroke:#ff00ff;stroke-width:0.5;"/>
    </defs>
    <g>
     <use style="fill:#ff00ff;stroke:#ff00ff;stroke-width:0.5;" x="283.3747986736733" xlink:href="#ma53b2be495" y="336.56639948793946"/>
     <use style="fill:#ff00ff;stroke:#ff00ff;stroke-width:0.5;" x="283.3747986736733" xlink:href="#ma53b2be495" y="336.56639948793946"/>
    </g>
   </g>
   <g id="line2d_12">
    <path d="M -1 355.021047 
L 11.465764 355.021047 
L 11.465764 354.728116 
L 17.99533 354.728116 
L 17.99533 354.435185 
L 23.060055 354.435185 
L 23.060055 353.702858 
L 27.198236 353.702858 
L 27.198236 353.556392 
L 40.955798 353.556392 
L 40.955798 353.263461 
L 44.747451 353.263461 
L 44.747451 352.970531 
L 47.995434 352.970531 
L 47.995434 352.824065 
L 52.133615 352.824065 
L 52.133615 352.6776 
L 53.360788 352.6776 
L 53.360788 352.238203 
L 64.472142 352.238203 
L 64.472142 351.505876 
L 71.364871 351.505876 
L 71.364871 350.920014 
L 82.632578 350.920014 
L 82.632578 350.773549 
L 83.598561 350.773549 
L 83.598561 350.480618 
L 89.407522 350.480618 
L 89.407522 350.334152 
L 91.504134 350.334152 
L 91.504134 349.894756 
L 94.811378 349.894756 
L 94.811378 349.601825 
L 96.30025 349.601825 
L 96.30025 349.45536 
L 102.557991 349.45536 
L 102.557991 349.308894 
L 102.964518 349.308894 
L 102.964518 349.015963 
L 115.608576 349.015963 
L 115.608576 348.869498 
L 143.520174 348.869498 
L 143.520174 348.723032 
L 149.42833 348.723032 
L 149.42833 348.430101 
L 153.395364 348.430101 
L 153.395364 348.283636 
L 163.516077 348.283636 
L 163.516077 347.990705 
L 163.821612 347.990705 
L 163.821612 347.551309 
L 170.790631 347.551309 
L 170.790631 347.404843 
L 175.6665 347.404843 
L 175.6665 347.258378 
L 178.934121 347.258378 
L 178.934121 347.111912 
L 183.301126 347.111912 
L 183.301126 346.818981 
L 187.081081 346.818981 
L 187.081081 346.672516 
L 192.389387 346.672516 
L 192.389387 346.526051 
L 197.455679 346.526051 
L 197.455679 346.23312 
L 198.975045 346.23312 
L 198.975045 346.086654 
L 199.343356 346.086654 
L 199.343356 345.793723 
L 201.135828 345.793723 
L 201.135828 345.647258 
L 201.82187 345.647258 
L 201.82187 345.500792 
L 202.999266 345.500792 
L 202.999266 345.207861 
L 205.779473 345.207861 
L 205.779473 345.061396 
L 207.32436 345.061396 
L 207.32436 344.768465 
L 209.291491 344.768465 
L 209.291491 344.475534 
L 209.893748 344.475534 
L 209.893748 344.329069 
L 214.151609 344.329069 
L 214.151609 344.182603 
L 215.477964 344.182603 
L 215.477964 344.036138 
L 216.238647 344.036138 
L 216.238647 343.889672 
L 217.136784 343.889672 
L 217.136784 343.743207 
L 217.601701 343.743207 
L 217.601701 343.596741 
L 218.551801 343.596741 
L 218.551801 343.450276 
L 219.743301 343.450276 
L 219.743301 343.30381 
L 222.516089 343.30381 
L 222.516089 343.157345 
L 222.848906 343.157345 
L 222.848906 342.864414 
L 223.584332 342.864414 
L 223.584332 342.717949 
L 223.873262 342.717949 
L 223.974175 342.278552 
L 224.247949 342.278552 
L 224.247949 342.132087 
L 227.535604 342.132087 
L 227.535604 341.985621 
L 228.834264 341.985621 
L 228.834264 341.839156 
L 229.296238 341.839156 
L 229.296238 341.69269 
L 229.777184 341.69269 
L 229.777184 341.39976 
L 229.929598 341.39976 
L 229.929598 341.253294 
L 230.517054 341.253294 
L 230.517054 341.106829 
L 231.152747 341.106829 
L 231.152747 340.960363 
L 233.182711 340.960363 
L 233.182711 340.813898 
L 233.863828 340.813898 
L 233.863828 340.520967 
L 234.408903 340.520967 
L 234.408903 340.374501 
L 235.589374 340.374501 
L 235.589374 340.228036 
L 235.724483 340.228036 
L 235.724483 340.08157 
L 235.857639 340.08157 
L 235.857639 339.78864 
L 236.4895 339.78864 
L 236.4895 339.642174 
L 240.922364 339.642174 
L 240.922364 339.495709 
L 242.471901 339.495709 
L 242.471901 339.202778 
L 243.552802 339.202778 
L 243.552802 339.056312 
L 244.260535 339.056312 
L 244.260535 338.909847 
L 245.740386 338.909847 
L 245.740386 338.763381 
L 246.897053 338.763381 
L 246.897053 338.47045 
L 247.57168 338.47045 
L 247.57168 338.323985 
L 251.316978 338.323985 
L 251.316978 338.17752 
L 254.339435 338.17752 
L 254.339435 338.031054 
L 258.300068 338.031054 
L 258.300068 337.884589 
L 260.363749 337.884589 
L 260.363749 337.738123 
L 262.535634 337.738123 
L 262.535634 337.591658 
L 263.094869 337.591658 
L 263.094869 337.445192 
L 263.427843 337.445192 
L 263.427843 337.152261 
L 271.915331 337.152261 
L 271.915331 336.85933 
L 272.431521 336.85933 
L 272.431521 336.712865 
L 283.374799 336.712865 
L 283.374799 336.566399 
L 420.36 336.566399 
L 420.36 336.566399 
" style="fill:none;stroke:#ff00ff;stroke-linecap:square;stroke-width:1.5;"/>
   </g>
   <g id="line2d_13">
    <defs>
     <path d="M -0 8.485281 
L 5.091169 0 
L 0 -8.485281 
L -5.091169 -0 
z
" id="m5607e18df4" style="stroke:#ff00ff;stroke-linejoin:miter;stroke-width:1.5;"/>
    </defs>
    <g>
     <use style="fill:none;stroke:#ff00ff;stroke-linejoin:miter;stroke-width:1.5;" x="83.5985607668858" xlink:href="#m5607e18df4" y="350.7735487293633"/>
     <use style="fill:none;stroke:#ff00ff;stroke-linejoin:miter;stroke-width:1.5;" x="170.79063089122255" xlink:href="#m5607e18df4" y="347.4048432391288"/>
     <use style="fill:none;stroke:#ff00ff;stroke-linejoin:miter;stroke-width:1.5;" x="283.3747986736733" xlink:href="#m5607e18df4" y="336.7128649440366"/>
     <use style="fill:none;stroke:#ff00ff;stroke-linejoin:miter;stroke-width:1.5;" x="283.3747986736733" xlink:href="#m5607e18df4" y="336.56639948793946"/>
     <use style="fill:none;stroke:#ff00ff;stroke-linejoin:miter;stroke-width:1.5;" x="283.3747986736733" xlink:href="#m5607e18df4" y="336.56639948793946"/>
     <use style="fill:none;stroke:#ff00ff;stroke-linejoin:miter;stroke-width:1.5;" x="420.3599999999999" xlink:href="#m5607e18df4" y="336.56639948793946"/>
    </g>
   </g>
   <g id="line2d_14">
    <path d="M -15676.38 758.386913 
" style="fill:none;stroke:#ff00ff;stroke-linecap:square;stroke-width:1.5;"/>
    <g>
     <use style="fill:none;stroke:#ff00ff;stroke-linejoin:miter;stroke-width:1.5;" x="-15676.379999999994" xlink:href="#m5607e18df4" y="758.3869130477403"/>
    </g>
   </g>
   <g id="line2d_15">
    <path clip-path="url(#p21c5862e95)" d="M 247.81839 338.323985 
" style="fill:none;stroke:#ff00ff;stroke-linecap:square;"/>
    <defs>
     <path d="M -12 12 
L 12 -12 
M -12 -12 
L 12 12 
" id="mce0c624412" style="stroke:#ff00ff;"/>
    </defs>
    <g clip-path="url(#p21c5862e95)">
     <use style="fill:#ff00ff;stroke:#ff00ff;" x="247.8183902744885" xlink:href="#mce0c624412" y="338.3239849611053"/>
    </g>
   </g>
   <g id="line2d_16">
    <defs>
     <path d="M 0 1.5 
C 0.397805 1.5 0.77937 1.341951 1.06066 1.06066 
C 1.341951 0.77937 1.5 0.397805 1.5 0 
C 1.5 -0.397805 1.341951 -0.77937 1.06066 -1.06066 
C 0.77937 -1.341951 0.397805 -1.5 0 -1.5 
C -0.397805 -1.5 -0.77937 -1.341951 -1.06066 -1.06066 
C -1.341951 -0.77937 -1.5 -0.397805 -1.5 0 
C -1.5 0.397805 -1.341951 0.77937 -1.06066 1.06066 
C -0.77937 1.341951 -0.397805 1.5 0 1.5 
z
" id="m03def4b5b0" style="stroke:#ffa500;stroke-width:0.5;"/>
    </defs>
    <g>
     <use style="fill:#ffa500;stroke:#ffa500;stroke-width:0.5;" x="352.4733835289159" xlink:href="#m03def4b5b0" y="329.2431266830818"/>
     <use style="fill:#ffa500;stroke:#ffa500;stroke-width:0.5;" x="352.4733835289159" xlink:href="#m03def4b5b0" y="329.2431266830818"/>
    </g>
   </g>
   <g id="line2d_17">
    <path d="M -1 353.409927 
L 2.262857 353.409927 
L 2.262857 352.970531 
L 11.465764 352.970531 
L 11.465764 352.824065 
L 30.697019 352.824065 
L 30.697019 352.238203 
L 33.727802 352.238203 
L 33.727802 352.091738 
L 44.747451 352.091738 
L 44.747451 351.945272 
L 53.360788 351.945272 
L 53.360788 351.798807 
L 56.68827 351.798807 
L 56.68827 351.652341 
L 64.472142 351.652341 
L 64.472142 351.505876 
L 67.226689 351.505876 
L 67.226689 351.359411 
L 70.257473 351.359411 
L 70.257473 351.212945 
L 74.395654 351.212945 
L 74.395654 351.06648 
L 76.644736 351.06648 
L 76.644736 350.920014 
L 80.567777 350.920014 
L 80.567777 350.773549 
L 80.92522 350.773549 
L 80.92522 350.480618 
L 81.277121 350.480618 
L 81.277121 350.334152 
L 81.62365 350.334152 
L 81.62365 349.894756 
L 84.825733 349.894756 
L 84.825733 349.748291 
L 85.415303 349.748291 
L 85.415303 349.601825 
L 97.527422 349.601825 
L 97.527422 349.162429 
L 102.557991 349.162429 
L 102.557991 348.869498 
L 105.261695 348.869498 
L 105.261695 348.723032 
L 106.787143 348.723032 
L 106.787143 348.576567 
L 107.894541 348.576567 
L 107.894541 348.430101 
L 108.638777 348.430101 
L 108.638777 348.283636 
L 109.860444 348.283636 
L 109.860444 347.990705 
L 113.088595 347.990705 
L 113.088595 347.84424 
L 116.587378 347.84424 
L 116.587378 347.697774 
L 118.15332 347.697774 
L 118.15332 347.551309 
L 118.426783 347.551309 
L 118.426783 347.404843 
L 119.162249 347.404843 
L 119.162249 347.258378 
L 119.358762 347.258378 
L 119.358762 346.965447 
L 127.356226 346.965447 
L 127.402033 346.379585 
L 128.343215 346.379585 
L 128.343215 346.23312 
L 128.518146 346.23312 
L 128.518146 346.086654 
L 130.318126 346.086654 
L 130.318126 345.940189 
L 137.706526 345.940189 
L 137.706526 345.647258 
L 139.574627 345.647258 
L 139.681437 345.207861 
L 140.260075 345.207861 
L 140.260075 345.061396 
L 142.200334 345.061396 
L 142.200334 344.768465 
L 142.71888 344.768465 
L 142.811901 344.475534 
L 143.18022 344.475534 
L 143.18022 344.329069 
L 143.362162 344.329069 
L 143.362162 344.036138 
L 144.053726 344.036138 
L 144.053726 343.743207 
L 146.310684 343.743207 
L 146.310684 343.596741 
L 148.217527 343.596741 
L 148.217527 343.450276 
L 151.435007 343.450276 
L 151.435007 343.30381 
L 154.461822 343.30381 
L 154.461822 343.01088 
L 154.72422 343.01088 
L 154.72422 342.864414 
L 157.15676 342.864414 
L 157.15676 342.717949 
L 158.122742 342.717949 
L 158.122742 342.425018 
L 159.241396 342.425018 
L 159.241396 342.278552 
L 159.653982 342.278552 
L 159.653982 342.132087 
L 161.274373 342.132087 
L 161.274373 341.985621 
L 163.432031 341.985621 
L 163.432031 341.839156 
L 163.784795 341.839156 
L 163.784795 341.69269 
L 164.384755 341.69269 
L 164.384755 341.546225 
L 165.751261 341.546225 
L 165.751261 341.39976 
L 165.978193 341.39976 
L 165.978193 341.253294 
L 166.161437 341.253294 
L 166.161437 341.106829 
L 166.637561 341.106829 
L 166.670032 340.813898 
L 169.467416 340.813898 
L 169.539016 340.520967 
L 169.956919 340.520967 
L 169.956919 340.374501 
L 171.073004 340.374501 
L 171.09304 340.08157 
L 171.424391 340.08157 
L 171.424391 339.935105 
L 171.951122 339.935105 
L 171.951122 339.78864 
L 173.122404 339.78864 
L 173.122404 339.642174 
L 173.641425 339.642174 
L 173.641425 339.495709 
L 177.855059 339.495709 
L 177.855059 339.202778 
L 178.306466 339.202778 
L 178.306466 339.056312 
L 178.981328 339.056312 
L 178.981328 338.909847 
L 182.676648 338.909847 
L 182.676648 338.763381 
L 184.541426 338.763381 
L 184.541426 338.616916 
L 186.202892 338.616916 
L 186.202892 338.47045 
L 186.418 338.47045 
L 186.418 338.323985 
L 186.590655 338.323985 
L 186.590655 338.031054 
L 188.348691 338.031054 
L 188.348691 337.884589 
L 188.973606 337.884589 
L 188.973606 337.738123 
L 191.510574 337.738123 
L 191.510574 337.591658 
L 194.829045 337.591658 
L 194.829045 337.445192 
L 196.34222 337.445192 
L 196.34222 337.298727 
L 196.873641 337.298727 
L 196.873641 337.152261 
L 199.768149 337.152261 
L 199.768149 336.85933 
L 201.068208 336.85933 
L 201.068208 336.712865 
L 201.349812 336.712865 
L 201.349812 336.419934 
L 201.55831 336.419934 
L 201.55831 336.127003 
L 203.703498 336.127003 
L 203.703498 335.980538 
L 205.058587 335.980538 
L 205.058587 335.687607 
L 206.38248 335.687607 
L 206.38248 335.541141 
L 211.099357 335.541141 
L 211.099357 335.394676 
L 217.197283 335.394676 
L 217.197283 334.955279 
L 224.259499 334.955279 
L 224.259499 334.808814 
L 231.921742 334.808814 
L 231.921742 334.515883 
L 232.865744 334.515883 
L 232.865744 334.369418 
L 236.210842 334.369418 
L 236.210842 334.222952 
L 240.043553 334.222952 
L 240.043553 333.930021 
L 244.625131 333.930021 
L 244.625131 333.783556 
L 247.382555 333.783556 
L 247.391585 333.490625 
L 247.526157 333.490625 
L 247.526157 333.197694 
L 249.654838 333.197694 
L 249.654838 333.051229 
L 251.433718 333.051229 
L 251.433718 332.904763 
L 257.293209 332.904763 
L 257.293209 332.758298 
L 260.002705 332.758298 
L 260.002705 332.611832 
L 263.340872 332.611832 
L 263.340872 332.465367 
L 270.729565 332.465367 
L 270.729565 332.318901 
L 271.747963 332.318901 
L 271.747963 332.172436 
L 272.103229 332.172436 
L 272.103229 332.02597 
L 276.377233 332.02597 
L 276.377233 331.879505 
L 282.056726 331.879505 
L 282.056726 331.440109 
L 283.337012 331.440109 
L 283.337012 331.000712 
L 291.271492 331.000712 
L 291.271492 330.854247 
L 297.139232 330.854247 
L 297.139232 330.707781 
L 301.238637 330.707781 
L 301.238637 330.561316 
L 305.190036 330.561316 
L 305.190036 330.41485 
L 305.660434 330.41485 
L 305.660434 330.268385 
L 307.370457 330.268385 
L 307.370457 330.121919 
L 310.066427 330.121919 
L 310.066427 329.975454 
L 311.841312 329.975454 
L 311.841312 329.682523 
L 339.509745 329.682523 
L 339.509745 329.536058 
L 339.802806 329.536058 
L 339.802806 329.389592 
L 352.473384 329.389592 
L 352.473384 329.243127 
L 420.36 329.243127 
L 420.36 329.243127 
" style="fill:none;stroke:#ffa500;stroke-linecap:square;stroke-width:1.5;"/>
   </g>
   <g id="line2d_18">
    <defs>
     <path d="M 0 -6 
L -1.347084 -1.854102 
L -5.706339 -1.854102 
L -2.179628 0.708204 
L -3.526712 4.854102 
L -0 2.291796 
L 3.526712 4.854102 
L 2.179628 0.708204 
L 5.706339 -1.854102 
L 1.347084 -1.854102 
z
" id="m6f6fff11f0" style="stroke:#ffa500;stroke-linejoin:bevel;stroke-width:1.5;"/>
    </defs>
    <g>
     <use style="fill:none;stroke:#ffa500;stroke-linejoin:bevel;stroke-width:1.5;" x="85.41530293021991" xlink:href="#m6f6fff11f0" y="349.7482905366832"/>
     <use style="fill:none;stroke:#ffa500;stroke-linejoin:bevel;stroke-width:1.5;" x="217.19728289321293" xlink:href="#m6f6fff11f0" y="334.9552794708708"/>
     <use style="fill:none;stroke:#ffa500;stroke-linejoin:bevel;stroke-width:1.5;" x="301.2386373288235" xlink:href="#m6f6fff11f0" y="330.7077812440533"/>
     <use style="fill:none;stroke:#ffa500;stroke-linejoin:bevel;stroke-width:1.5;" x="352.4733835289159" xlink:href="#m6f6fff11f0" y="329.2431266830818"/>
     <use style="fill:none;stroke:#ffa500;stroke-linejoin:bevel;stroke-width:1.5;" x="352.4733835289159" xlink:href="#m6f6fff11f0" y="329.2431266830818"/>
     <use style="fill:none;stroke:#ffa500;stroke-linejoin:bevel;stroke-width:1.5;" x="420.3599999999999" xlink:href="#m6f6fff11f0" y="329.2431266830818"/>
    </g>
   </g>
   <g id="line2d_19">
    <path d="M -15676.38 758.386913 
" style="fill:none;stroke:#ffa500;stroke-linecap:square;stroke-width:1.5;"/>
    <g>
     <use style="fill:none;stroke:#ffa500;stroke-linejoin:bevel;stroke-width:1.5;" x="-15676.379999999994" xlink:href="#m6f6fff11f0" y="758.3869130477403"/>
    </g>
   </g>
   <g id="line2d_20">
    <path clip-path="url(#p21c5862e95)" d="M 247.832018 333.197694 
" style="fill:none;stroke:#ffa500;stroke-linecap:square;"/>
    <defs>
     <path d="M -12 12 
L 12 -12 
M -12 -12 
L 12 12 
" id="mc0786e0082" style="stroke:#ffa500;"/>
    </defs>
    <g clip-path="url(#p21c5862e95)">
     <use style="fill:#ffa500;stroke:#ffa500;" x="247.83201811053598" xlink:href="#mc0786e0082" y="333.19769399770496"/>
    </g>
   </g>
   <g id="line2d_21">
    <defs>
     <path d="M 0 1.5 
C 0.397805 1.5 0.77937 1.341951 1.06066 1.06066 
C 1.341951 0.77937 1.5 0.397805 1.5 0 
C 1.5 -0.397805 1.341951 -0.77937 1.06066 -1.06066 
C 0.77937 -1.341951 0.397805 -1.5 0 -1.5 
C -0.397805 -1.5 -0.77937 -1.341951 -1.06066 -1.06066 
C -1.341951 -0.77937 -1.5 -0.397805 -1.5 0 
C -1.5 0.397805 -1.341951 0.77937 -1.06066 1.06066 
C -0.77937 1.341951 -0.397805 1.5 0 1.5 
z
" id="mc7e769ace8" style="stroke:#6495ed;stroke-width:0.5;"/>
    </defs>
    <g>
     <use style="fill:#6495ed;stroke:#6495ed;stroke-width:0.5;" x="302.6143392878637" xlink:href="#mc7e769ace8" y="330.7077812440533"/>
     <use style="fill:#6495ed;stroke:#6495ed;stroke-width:0.5;" x="302.6143392878637" xlink:href="#mc7e769ace8" y="330.7077812440533"/>
    </g>
   </g>
   <g id="line2d_22">
    <path d="M -1 355.167512 
L 2.262857 355.167512 
L 2.262857 354.435185 
L 11.465764 354.435185 
L 11.465764 354.28872 
L 23.060055 354.28872 
L 23.060055 354.142254 
L 30.697019 354.142254 
L 30.697019 353.849323 
L 42.930709 353.849323 
L 42.930709 353.556392 
L 46.429492 353.556392 
L 46.429492 353.263461 
L 47.995434 353.263461 
L 47.995434 353.116996 
L 53.360788 353.116996 
L 53.360788 352.824065 
L 54.525 352.824065 
L 54.525 352.6776 
L 58.663182 352.6776 
L 58.663182 352.238203 
L 65.192748 352.238203 
L 65.192748 351.945272 
L 65.891177 351.945272 
L 65.891177 351.798807 
L 71.898946 351.798807 
L 71.898946 351.652341 
L 79.460379 351.652341 
L 79.460379 351.505876 
L 91.725571 351.505876 
L 91.725571 351.359411 
L 93.828663 351.359411 
L 93.828663 351.212945 
L 94.226869 351.212945 
L 94.226869 351.06648 
L 98.365051 351.06648 
L 98.365051 350.920014 
L 100.558206 350.920014 
L 100.558206 350.480618 
L 103.49547 350.480618 
L 103.49547 350.334152 
L 105.742076 350.334152 
L 105.742076 350.041221 
L 106.559029 350.041221 
L 106.559029 349.894756 
L 106.787143 349.894756 
L 106.787143 349.601825 
L 106.900346 349.601825 
L 106.900346 349.45536 
L 107.677342 349.45536 
L 107.677342 349.308894 
L 108.638777 349.308894 
L 108.638777 349.015963 
L 108.950413 349.015963 
L 108.950413 348.869498 
L 110.350682 348.869498 
L 110.350682 348.430101 
L 112.122612 348.430101 
L 112.122612 348.283636 
L 114.342901 348.283636 
L 114.342901 347.84424 
L 116.140862 347.84424 
L 116.140862 347.697774 
L 121.652103 347.697774 
L 121.652103 347.551309 
L 122.348745 347.551309 
L 122.348745 347.404843 
L 123.627014 347.404843 
L 123.627014 347.258378 
L 124.266413 347.258378 
L 124.266413 346.965447 
L 126.083155 346.965447 
L 126.083155 346.818981 
L 134.663284 346.818981 
L 134.663284 346.672516 
L 135.156363 346.672516 
L 135.156363 346.526051 
L 135.47923 346.526051 
L 135.47923 346.23312 
L 137.472834 346.23312 
L 137.472834 346.086654 
L 140.28603 346.086654 
L 140.28603 345.940189 
L 140.773608 345.940189 
L 140.773608 345.793723 
L 142.224163 345.793723 
L 142.224163 345.647258 
L 144.359269 345.647258 
L 144.359269 345.500792 
L 145.042585 345.500792 
L 145.042585 345.354327 
L 145.293616 345.354327 
L 145.293616 345.207861 
L 145.418098 345.207861 
L 145.418098 344.91493 
L 146.899743 344.91493 
L 146.899743 344.622 
L 147.624588 344.622 
L 147.624588 344.475534 
L 148.688139 344.475534 
L 148.688139 344.329069 
L 149.393624 344.329069 
L 149.393624 344.182603 
L 149.976514 344.182603 
L 149.976514 344.036138 
L 150.594276 344.036138 
L 150.594276 343.889672 
L 151.147495 343.889672 
L 151.147495 343.596741 
L 153.16122 343.596741 
L 153.16122 343.450276 
L 153.278594 343.450276 
L 153.278594 343.157345 
L 154.572676 343.157345 
L 154.572676 343.01088 
L 157.27978 343.01088 
L 157.27978 342.864414 
L 159.69814 342.864414 
L 159.69814 342.717949 
L 160.307496 342.717949 
L 160.307496 342.571483 
L 162.930677 342.571483 
L 162.930677 342.425018 
L 164.086758 342.425018 
L 164.132161 341.985621 
L 165.827157 341.985621 
L 165.827157 341.839156 
L 166.244243 341.839156 
L 166.244243 341.546225 
L 166.904067 341.546225 
L 166.904067 341.39976 
L 168.206752 341.39976 
L 168.206752 341.253294 
L 169.22952 341.253294 
L 169.33075 340.813898 
L 173.401495 340.813898 
L 173.401495 340.520967 
L 173.778245 340.520967 
L 173.778245 340.374501 
L 174.421433 340.374501 
L 174.421433 340.228036 
L 175.655583 340.228036 
L 175.655583 340.08157 
L 176.748156 340.08157 
L 176.748156 339.935105 
L 178.615276 339.935105 
L 178.615276 339.642174 
L 179.420341 339.642174 
L 179.420341 339.495709 
L 181.739917 339.495709 
L 181.739917 339.349243 
L 181.864856 339.349243 
L 181.864856 339.202778 
L 186.28166 339.202778 
L 186.28166 339.056312 
L 187.048052 339.056312 
L 187.048052 338.909847 
L 188.787625 338.909847 
L 188.787625 338.763381 
L 191.008155 338.763381 
L 191.008155 338.47045 
L 191.311487 338.47045 
L 191.311487 338.323985 
L 193.260589 338.323985 
L 193.260589 338.17752 
L 194.476778 338.17752 
L 194.476778 337.884589 
L 195.311833 337.884589 
L 195.311833 337.738123 
L 195.872118 337.738123 
L 195.872118 337.591658 
L 196.192491 337.591658 
L 196.192491 337.445192 
L 197.861588 337.445192 
L 197.888255 336.85933 
L 200.817329 336.85933 
L 200.817329 336.712865 
L 205.139164 336.712865 
L 205.139164 336.566399 
L 205.619623 336.566399 
L 205.619623 336.273469 
L 206.668335 336.273469 
L 206.668335 336.127003 
L 208.185768 336.127003 
L 208.185768 335.541141 
L 211.084461 335.541141 
L 211.084461 335.24821 
L 212.555677 335.24821 
L 212.555677 335.101745 
L 212.848148 335.101745 
L 212.848148 334.955279 
L 213.15574 334.955279 
L 213.15574 334.808814 
L 213.742385 334.808814 
L 213.742385 334.662349 
L 214.565387 334.662349 
L 214.565387 334.515883 
L 215.479853 334.515883 
L 215.479853 334.369418 
L 220.624527 334.369418 
L 220.624527 334.222952 
L 230.62877 334.222952 
L 230.62877 333.783556 
L 239.729048 333.783556 
L 239.729048 333.490625 
L 244.186801 333.490625 
L 244.186801 333.344159 
L 249.598822 333.344159 
L 249.598822 333.197694 
L 257.937259 333.197694 
L 257.937259 333.051229 
L 259.8727 333.051229 
L 259.8727 332.904763 
L 265.231719 332.904763 
L 265.231719 332.758298 
L 265.461471 332.758298 
L 265.461471 332.611832 
L 265.708039 332.611832 
L 265.708039 332.465367 
L 266.365735 332.465367 
L 266.365735 332.318901 
L 266.544156 332.318901 
L 266.544156 332.172436 
L 274.51711 332.172436 
L 274.51711 332.02597 
L 278.439062 332.02597 
L 278.439062 331.879505 
L 280.835657 331.879505 
L 280.835657 331.733039 
L 283.677981 331.733039 
L 283.677981 331.586574 
L 287.334742 331.586574 
L 287.334742 331.440109 
L 289.391582 331.440109 
L 289.391582 331.293643 
L 292.48763 331.293643 
L 292.48763 331.147178 
L 293.747954 331.147178 
L 293.747954 331.000712 
L 295.584599 331.000712 
L 295.584599 330.854247 
L 302.614339 330.854247 
L 302.614339 330.707781 
L 420.36 330.707781 
L 420.36 330.707781 
" style="fill:none;stroke:#6495ed;stroke-linecap:square;stroke-width:1.5;"/>
   </g>
   <g id="line2d_23">
    <defs>
     <path d="M -0 6 
L 6 -6 
L -6 -6 
z
" id="m003c088bd3" style="stroke:#6495ed;stroke-linejoin:miter;stroke-width:1.5;"/>
    </defs>
    <g>
     <use style="fill:none;stroke:#6495ed;stroke-linejoin:miter;stroke-width:1.5;" x="164.1321611273846" xlink:href="#m003c088bd3" y="342.27855227572843"/>
     <use style="fill:none;stroke:#6495ed;stroke-linejoin:miter;stroke-width:1.5;" x="244.1868007698396" xlink:href="#m003c088bd3" y="333.3441594538021"/>
     <use style="fill:none;stroke:#6495ed;stroke-linejoin:miter;stroke-width:1.5;" x="302.6143392878637" xlink:href="#m003c088bd3" y="330.8542467001505"/>
     <use style="fill:none;stroke:#6495ed;stroke-linejoin:miter;stroke-width:1.5;" x="302.6143392878637" xlink:href="#m003c088bd3" y="330.7077812440533"/>
     <use style="fill:none;stroke:#6495ed;stroke-linejoin:miter;stroke-width:1.5;" x="420.3599999999999" xlink:href="#m003c088bd3" y="330.7077812440533"/>
    </g>
   </g>
   <g id="line2d_24">
    <path d="M -15676.38 758.386913 
" style="fill:none;stroke:#6495ed;stroke-linecap:square;stroke-width:1.5;"/>
    <g>
     <use style="fill:none;stroke:#6495ed;stroke-linejoin:miter;stroke-width:1.5;" x="-15676.379999999994" xlink:href="#m003c088bd3" y="758.3869130477403"/>
    </g>
   </g>
   <g id="line2d_25">
    <path clip-path="url(#p21c5862e95)" d="M 247.832018 333.344159 
" style="fill:none;stroke:#6495ed;stroke-linecap:square;"/>
    <defs>
     <path d="M -12 12 
L 12 -12 
M -12 -12 
L 12 12 
" id="mc30d823474" style="stroke:#6495ed;"/>
    </defs>
    <g clip-path="url(#p21c5862e95)">
     <use style="fill:#6495ed;stroke:#6495ed;" x="247.83201811053598" xlink:href="#mc30d823474" y="333.3441594538021"/>
    </g>
   </g>
   <g id="line2d_26">
    <path d="M 420.36 336.566399 
L 460.60185 377.430262 
" style="fill:none;stroke:#ff00ff;stroke-linecap:square;stroke-width:1.5;"/>
    <g>
     <use style="fill:none;stroke:#ff00ff;stroke-linejoin:miter;stroke-width:1.5;" x="420.3599999999999" xlink:href="#m5607e18df4" y="336.56639948793946"/>
     <use style="fill:none;stroke:#ff00ff;stroke-linejoin:miter;stroke-width:1.5;" x="460.60184999999996" xlink:href="#m5607e18df4" y="377.4302617390452"/>
    </g>
   </g>
   <g id="line2d_27">
    <path d="M 420.36 330.707781 
L 460.60185 287.793403 
" style="fill:none;stroke:#6495ed;stroke-linecap:square;stroke-width:1.5;"/>
    <g>
     <use style="fill:none;stroke:#6495ed;stroke-linejoin:miter;stroke-width:1.5;" x="420.3599999999999" xlink:href="#m003c088bd3" y="330.7077812440533"/>
     <use style="fill:none;stroke:#6495ed;stroke-linejoin:miter;stroke-width:1.5;" x="460.60184999999996" xlink:href="#m003c088bd3" y="287.7934026075875"/>
    </g>
   </g>
   <g id="line2d_28">
    <path d="M 420.36 329.243127 
L 460.60185 198.156543 
" style="fill:none;stroke:#ffa500;stroke-linecap:square;stroke-width:1.5;"/>
    <g>
     <use style="fill:none;stroke:#ffa500;stroke-linejoin:bevel;stroke-width:1.5;" x="420.3599999999999" xlink:href="#m6f6fff11f0" y="329.2431266830818"/>
     <use style="fill:none;stroke:#ffa500;stroke-linejoin:bevel;stroke-width:1.5;" x="460.60184999999996" xlink:href="#m6f6fff11f0" y="198.15654347612977"/>
    </g>
   </g>
   <g id="line2d_29">
    <path d="M 420.36 327.778472 
L 460.60185 108.519684 
" style="fill:none;stroke:#000080;stroke-linecap:square;stroke-width:1.5;"/>
    <g>
     <use style="fill:none;stroke:#000080;stroke-width:1.5;" x="420.3599999999999" xlink:href="#m4472a5b892" y="327.77847212211026"/>
     <use style="fill:none;stroke:#000080;stroke-width:1.5;" x="460.60184999999996" xlink:href="#m4472a5b892" y="108.5196843446721"/>
    </g>
   </g>
   <g id="line2d_30">
    <path d="M 420.36 384.9 
L 420.36 11.413087 
" style="fill:none;stroke:#000000;stroke-linecap:square;"/>
   </g>
   <g id="patch_3">
    <path d="M 54.525 7.678218 
L 420.36 7.678218 
" style="fill:none;stroke:#000000;stroke-linecap:square;stroke-linejoin:miter;"/>
   </g>
   <g id="patch_4">
    <path d="M 54.525 384.9 
L 420.36 384.9 
" style="fill:none;stroke:#000000;stroke-linecap:square;stroke-linejoin:miter;"/>
   </g>
   <g id="patch_5">
    <path d="M 54.525 384.9 
L 54.525 7.678218 
" style="fill:none;stroke:#000000;stroke-linecap:square;stroke-linejoin:miter;"/>
   </g>
   <g id="patch_6">
    <path d="M 420.36 384.9 
L 420.36 7.678218 
" style="fill:none;stroke:#000000;stroke-linecap:square;stroke-linejoin:miter;"/>
   </g>
   <g id="matplotlib.axis_1">
    <g id="xtick_1">
     <g id="line2d_31">
      <path clip-path="url(#p21c5862e95)" d="M 54.525 384.9 
L 54.525 7.678218 
" style="fill:none;stroke:#000000;stroke-dasharray:1.000000,3.000000;stroke-dashoffset:0.0;stroke-width:0.5;"/>
     </g>
     <g id="line2d_32">
      <defs>
       <path d="M 0 0 
L 0 -4 
" id="m0a0181f767" style="stroke:#000000;stroke-width:0.5;"/>
      </defs>
      <g>
       <use style="stroke:#000000;stroke-width:0.5;" x="54.52500000000001" xlink:href="#m0a0181f767" y="384.9"/>
      </g>
     </g>
     <g id="line2d_33">
      <defs>
       <path d="M 0 0 
L 0 4 
" id="m71cf1e65a6" style="stroke:#000000;stroke-width:0.5;"/>
      </defs>
      <g>
       <use style="stroke:#000000;stroke-width:0.5;" x="54.52500000000001" xlink:href="#m71cf1e65a6" y="7.678217821782141"/>
      </g>
     </g>
     <g id="text_1">
      <!-- 0 -->
      <defs>
       <path d="M 31.78125 66.40625 
Q 24.171875 66.40625 20.328125 58.90625 
Q 16.5 51.421875 16.5 36.375 
Q 16.5 21.390625 20.328125 13.890625 
Q 24.171875 6.390625 31.78125 6.390625 
Q 39.453125 6.390625 43.28125 13.890625 
Q 47.125 21.390625 47.125 36.375 
Q 47.125 51.421875 43.28125 58.90625 
Q 39.453125 66.40625 31.78125 66.40625 
M 31.78125 74.21875 
Q 44.046875 74.21875 50.515625 64.515625 
Q 56.984375 54.828125 56.984375 36.375 
Q 56.984375 17.96875 50.515625 8.265625 
Q 44.046875 -1.421875 31.78125 -1.421875 
Q 19.53125 -1.421875 13.0625 8.265625 
Q 6.59375 17.96875 6.59375 36.375 
Q 6.59375 54.828125 13.0625 64.515625 
Q 19.53125 74.21875 31.78125 74.21875 
" id="BitstreamVeraSans-Roman-30"/>
      </defs>
      <g transform="translate(48.16250000000001 404.09687499999995)scale(0.2 -0.2)">
       <use xlink:href="#BitstreamVeraSans-Roman-30"/>
      </g>
     </g>
    </g>
    <g id="xtick_2">
     <g id="line2d_34">
      <path clip-path="url(#p21c5862e95)" d="M 159.049286 384.9 
L 159.049286 7.678218 
" style="fill:none;stroke:#000000;stroke-dasharray:1.000000,3.000000;stroke-dashoffset:0.0;stroke-width:0.5;"/>
     </g>
     <g id="line2d_35">
      <g>
       <use style="stroke:#000000;stroke-width:0.5;" x="159.0492857142857" xlink:href="#m0a0181f767" y="384.9"/>
      </g>
     </g>
     <g id="line2d_36">
      <g>
       <use style="stroke:#000000;stroke-width:0.5;" x="159.0492857142857" xlink:href="#m71cf1e65a6" y="7.678217821782141"/>
      </g>
     </g>
     <g id="text_2">
      <!-- 2 -->
      <defs>
       <path d="M 19.1875 8.296875 
L 53.609375 8.296875 
L 53.609375 0 
L 7.328125 0 
L 7.328125 8.296875 
Q 12.9375 14.109375 22.625 23.890625 
Q 32.328125 33.6875 34.8125 36.53125 
Q 39.546875 41.84375 41.421875 45.53125 
Q 43.3125 49.21875 43.3125 52.78125 
Q 43.3125 58.59375 39.234375 62.25 
Q 35.15625 65.921875 28.609375 65.921875 
Q 23.96875 65.921875 18.8125 64.3125 
Q 13.671875 62.703125 7.8125 59.421875 
L 7.8125 69.390625 
Q 13.765625 71.78125 18.9375 73 
Q 24.125 74.21875 28.421875 74.21875 
Q 39.75 74.21875 46.484375 68.546875 
Q 53.21875 62.890625 53.21875 53.421875 
Q 53.21875 48.921875 51.53125 44.890625 
Q 49.859375 40.875 45.40625 35.40625 
Q 44.1875 33.984375 37.640625 27.21875 
Q 31.109375 20.453125 19.1875 8.296875 
" id="BitstreamVeraSans-Roman-32"/>
      </defs>
      <g transform="translate(152.6867857142857 404.09687499999995)scale(0.2 -0.2)">
       <use xlink:href="#BitstreamVeraSans-Roman-32"/>
      </g>
     </g>
    </g>
    <g id="xtick_3">
     <g id="line2d_37">
      <path clip-path="url(#p21c5862e95)" d="M 263.573571 384.9 
L 263.573571 7.678218 
" style="fill:none;stroke:#000000;stroke-dasharray:1.000000,3.000000;stroke-dashoffset:0.0;stroke-width:0.5;"/>
     </g>
     <g id="line2d_38">
      <g>
       <use style="stroke:#000000;stroke-width:0.5;" x="263.57357142857137" xlink:href="#m0a0181f767" y="384.9"/>
      </g>
     </g>
     <g id="line2d_39">
      <g>
       <use style="stroke:#000000;stroke-width:0.5;" x="263.57357142857137" xlink:href="#m71cf1e65a6" y="7.678217821782141"/>
      </g>
     </g>
     <g id="text_3">
      <!-- 4 -->
      <defs>
       <path d="M 37.796875 64.3125 
L 12.890625 25.390625 
L 37.796875 25.390625 
z
M 35.203125 72.90625 
L 47.609375 72.90625 
L 47.609375 25.390625 
L 58.015625 25.390625 
L 58.015625 17.1875 
L 47.609375 17.1875 
L 47.609375 0 
L 37.796875 0 
L 37.796875 17.1875 
L 4.890625 17.1875 
L 4.890625 26.703125 
z
" id="BitstreamVeraSans-Roman-34"/>
      </defs>
      <g transform="translate(257.21107142857136 404.09687499999995)scale(0.2 -0.2)">
       <use xlink:href="#BitstreamVeraSans-Roman-34"/>
      </g>
     </g>
    </g>
    <g id="xtick_4">
     <g id="line2d_40">
      <path clip-path="url(#p21c5862e95)" d="M 368.097857 384.9 
L 368.097857 7.678218 
" style="fill:none;stroke:#000000;stroke-dasharray:1.000000,3.000000;stroke-dashoffset:0.0;stroke-width:0.5;"/>
     </g>
     <g id="line2d_41">
      <g>
       <use style="stroke:#000000;stroke-width:0.5;" x="368.09785714285704" xlink:href="#m0a0181f767" y="384.9"/>
      </g>
     </g>
     <g id="line2d_42">
      <g>
       <use style="stroke:#000000;stroke-width:0.5;" x="368.09785714285704" xlink:href="#m71cf1e65a6" y="7.678217821782141"/>
      </g>
     </g>
     <g id="text_4">
      <!-- 6 -->
      <defs>
       <path d="M 33.015625 40.375 
Q 26.375 40.375 22.484375 35.828125 
Q 18.609375 31.296875 18.609375 23.390625 
Q 18.609375 15.53125 22.484375 10.953125 
Q 26.375 6.390625 33.015625 6.390625 
Q 39.65625 6.390625 43.53125 10.953125 
Q 47.40625 15.53125 47.40625 23.390625 
Q 47.40625 31.296875 43.53125 35.828125 
Q 39.65625 40.375 33.015625 40.375 
M 52.59375 71.296875 
L 52.59375 62.3125 
Q 48.875 64.0625 45.09375 64.984375 
Q 41.3125 65.921875 37.59375 65.921875 
Q 27.828125 65.921875 22.671875 59.328125 
Q 17.53125 52.734375 16.796875 39.40625 
Q 19.671875 43.65625 24.015625 45.921875 
Q 28.375 48.1875 33.59375 48.1875 
Q 44.578125 48.1875 50.953125 41.515625 
Q 57.328125 34.859375 57.328125 23.390625 
Q 57.328125 12.15625 50.6875 5.359375 
Q 44.046875 -1.421875 33.015625 -1.421875 
Q 20.359375 -1.421875 13.671875 8.265625 
Q 6.984375 17.96875 6.984375 36.375 
Q 6.984375 53.65625 15.1875 63.9375 
Q 23.390625 74.21875 37.203125 74.21875 
Q 40.921875 74.21875 44.703125 73.484375 
Q 48.484375 72.75 52.59375 71.296875 
" id="BitstreamVeraSans-Roman-36"/>
      </defs>
      <g transform="translate(361.735357142857 404.09687499999995)scale(0.2 -0.2)">
       <use xlink:href="#BitstreamVeraSans-Roman-36"/>
      </g>
     </g>
    </g>
    <g id="xtick_5">
     <g id="line2d_43">
      <path clip-path="url(#p21c5862e95)" d="M 54.525 384.9 
L 54.525 7.678218 
" style="fill:none;stroke:#000000;stroke-dasharray:1.000000,3.000000;stroke-dashoffset:0.0;stroke-width:0.5;"/>
     </g>
     <g id="line2d_44">
      <defs>
       <path d="M 0 0 
L 0 -2 
" id="mf86461447d" style="stroke:#000000;stroke-width:0.5;"/>
      </defs>
      <g>
       <use style="stroke:#000000;stroke-width:0.5;" x="54.52500000000001" xlink:href="#mf86461447d" y="384.9"/>
      </g>
     </g>
     <g id="line2d_45">
      <defs>
       <path d="M 0 0 
L 0 2 
" id="m613d61dc16" style="stroke:#000000;stroke-width:0.5;"/>
      </defs>
      <g>
       <use style="stroke:#000000;stroke-width:0.5;" x="54.52500000000001" xlink:href="#m613d61dc16" y="7.678217821782141"/>
      </g>
     </g>
    </g>
    <g id="xtick_6">
     <g id="line2d_46">
      <path clip-path="url(#p21c5862e95)" d="M 106.787143 384.9 
L 106.787143 7.678218 
" style="fill:none;stroke:#000000;stroke-dasharray:1.000000,3.000000;stroke-dashoffset:0.0;stroke-width:0.5;"/>
     </g>
     <g id="line2d_47">
      <g>
       <use style="stroke:#000000;stroke-width:0.5;" x="106.78714285714285" xlink:href="#mf86461447d" y="384.9"/>
      </g>
     </g>
     <g id="line2d_48">
      <g>
       <use style="stroke:#000000;stroke-width:0.5;" x="106.78714285714285" xlink:href="#m613d61dc16" y="7.678217821782141"/>
      </g>
     </g>
    </g>
    <g id="xtick_7">
     <g id="line2d_49">
      <path clip-path="url(#p21c5862e95)" d="M 159.049286 384.9 
L 159.049286 7.678218 
" style="fill:none;stroke:#000000;stroke-dasharray:1.000000,3.000000;stroke-dashoffset:0.0;stroke-width:0.5;"/>
     </g>
     <g id="line2d_50">
      <g>
       <use style="stroke:#000000;stroke-width:0.5;" x="159.0492857142857" xlink:href="#mf86461447d" y="384.9"/>
      </g>
     </g>
     <g id="line2d_51">
      <g>
       <use style="stroke:#000000;stroke-width:0.5;" x="159.0492857142857" xlink:href="#m613d61dc16" y="7.678217821782141"/>
      </g>
     </g>
    </g>
    <g id="xtick_8">
     <g id="line2d_52">
      <path clip-path="url(#p21c5862e95)" d="M 211.311429 384.9 
L 211.311429 7.678218 
" style="fill:none;stroke:#000000;stroke-dasharray:1.000000,3.000000;stroke-dashoffset:0.0;stroke-width:0.5;"/>
     </g>
     <g id="line2d_53">
      <g>
       <use style="stroke:#000000;stroke-width:0.5;" x="211.31142857142854" xlink:href="#mf86461447d" y="384.9"/>
      </g>
     </g>
     <g id="line2d_54">
      <g>
       <use style="stroke:#000000;stroke-width:0.5;" x="211.31142857142854" xlink:href="#m613d61dc16" y="7.678217821782141"/>
      </g>
     </g>
    </g>
    <g id="xtick_9">
     <g id="line2d_55">
      <path clip-path="url(#p21c5862e95)" d="M 263.573571 384.9 
L 263.573571 7.678218 
" style="fill:none;stroke:#000000;stroke-dasharray:1.000000,3.000000;stroke-dashoffset:0.0;stroke-width:0.5;"/>
     </g>
     <g id="line2d_56">
      <g>
       <use style="stroke:#000000;stroke-width:0.5;" x="263.57357142857137" xlink:href="#mf86461447d" y="384.9"/>
      </g>
     </g>
     <g id="line2d_57">
      <g>
       <use style="stroke:#000000;stroke-width:0.5;" x="263.57357142857137" xlink:href="#m613d61dc16" y="7.678217821782141"/>
      </g>
     </g>
    </g>
    <g id="xtick_10">
     <g id="line2d_58">
      <path clip-path="url(#p21c5862e95)" d="M 315.835714 384.9 
L 315.835714 7.678218 
" style="fill:none;stroke:#000000;stroke-dasharray:1.000000,3.000000;stroke-dashoffset:0.0;stroke-width:0.5;"/>
     </g>
     <g id="line2d_59">
      <g>
       <use style="stroke:#000000;stroke-width:0.5;" x="315.83571428571423" xlink:href="#mf86461447d" y="384.9"/>
      </g>
     </g>
     <g id="line2d_60">
      <g>
       <use style="stroke:#000000;stroke-width:0.5;" x="315.83571428571423" xlink:href="#m613d61dc16" y="7.678217821782141"/>
      </g>
     </g>
    </g>
    <g id="xtick_11">
     <g id="line2d_61">
      <path clip-path="url(#p21c5862e95)" d="M 368.097857 384.9 
L 368.097857 7.678218 
" style="fill:none;stroke:#000000;stroke-dasharray:1.000000,3.000000;stroke-dashoffset:0.0;stroke-width:0.5;"/>
     </g>
     <g id="line2d_62">
      <g>
       <use style="stroke:#000000;stroke-width:0.5;" x="368.09785714285704" xlink:href="#mf86461447d" y="384.9"/>
      </g>
     </g>
     <g id="line2d_63">
      <g>
       <use style="stroke:#000000;stroke-width:0.5;" x="368.09785714285704" xlink:href="#m613d61dc16" y="7.678217821782141"/>
      </g>
     </g>
    </g>
    <g id="xtick_12">
     <g id="line2d_64">
      <path clip-path="url(#p21c5862e95)" d="M 420.36 384.9 
L 420.36 7.678218 
" style="fill:none;stroke:#000000;stroke-dasharray:1.000000,3.000000;stroke-dashoffset:0.0;stroke-width:0.5;"/>
     </g>
     <g id="line2d_65">
      <g>
       <use style="stroke:#000000;stroke-width:0.5;" x="420.3599999999999" xlink:href="#mf86461447d" y="384.9"/>
      </g>
     </g>
     <g id="line2d_66">
      <g>
       <use style="stroke:#000000;stroke-width:0.5;" x="420.3599999999999" xlink:href="#m613d61dc16" y="7.678217821782141"/>
      </g>
     </g>
    </g>
    <g id="text_5">
     <!-- log10(# f-evals / dimension) -->
     <defs>
      <path d="M 45.40625 46.390625 
L 45.40625 75.984375 
L 54.390625 75.984375 
L 54.390625 0 
L 45.40625 0 
L 45.40625 8.203125 
Q 42.578125 3.328125 38.25 0.953125 
Q 33.9375 -1.421875 27.875 -1.421875 
Q 17.96875 -1.421875 11.734375 6.484375 
Q 5.515625 14.40625 5.515625 27.296875 
Q 5.515625 40.1875 11.734375 48.09375 
Q 17.96875 56 27.875 56 
Q 33.9375 56 38.25 53.625 
Q 42.578125 51.265625 45.40625 46.390625 
M 14.796875 27.296875 
Q 14.796875 17.390625 18.875 11.75 
Q 22.953125 6.109375 30.078125 6.109375 
Q 37.203125 6.109375 41.296875 11.75 
Q 45.40625 17.390625 45.40625 27.296875 
Q 45.40625 37.203125 41.296875 42.84375 
Q 37.203125 48.484375 30.078125 48.484375 
Q 22.953125 48.484375 18.875 42.84375 
Q 14.796875 37.203125 14.796875 27.296875 
" id="BitstreamVeraSans-Roman-64"/>
      <path d="M 37.109375 75.984375 
L 37.109375 68.5 
L 28.515625 68.5 
Q 23.6875 68.5 21.796875 66.546875 
Q 19.921875 64.59375 19.921875 59.515625 
L 19.921875 54.6875 
L 34.71875 54.6875 
L 34.71875 47.703125 
L 19.921875 47.703125 
L 19.921875 0 
L 10.890625 0 
L 10.890625 47.703125 
L 2.296875 47.703125 
L 2.296875 54.6875 
L 10.890625 54.6875 
L 10.890625 58.5 
Q 10.890625 67.625 15.140625 71.796875 
Q 19.390625 75.984375 28.609375 75.984375 
z
" id="BitstreamVeraSans-Roman-66"/>
      <path d="M 44.28125 53.078125 
L 44.28125 44.578125 
Q 40.484375 46.53125 36.375 47.5 
Q 32.28125 48.484375 27.875 48.484375 
Q 21.1875 48.484375 17.84375 46.4375 
Q 14.5 44.390625 14.5 40.28125 
Q 14.5 37.15625 16.890625 35.375 
Q 19.28125 33.59375 26.515625 31.984375 
L 29.59375 31.296875 
Q 39.15625 29.25 43.1875 25.515625 
Q 47.21875 21.78125 47.21875 15.09375 
Q 47.21875 7.46875 41.1875 3.015625 
Q 35.15625 -1.421875 24.609375 -1.421875 
Q 20.21875 -1.421875 15.453125 -0.5625 
Q 10.6875 0.296875 5.421875 2 
L 5.421875 11.28125 
Q 10.40625 8.6875 15.234375 7.390625 
Q 20.0625 6.109375 24.8125 6.109375 
Q 31.15625 6.109375 34.5625 8.28125 
Q 37.984375 10.453125 37.984375 14.40625 
Q 37.984375 18.0625 35.515625 20.015625 
Q 33.0625 21.96875 24.703125 23.78125 
L 21.578125 24.515625 
Q 13.234375 26.265625 9.515625 29.90625 
Q 5.8125 33.546875 5.8125 39.890625 
Q 5.8125 47.609375 11.28125 51.796875 
Q 16.75 56 26.8125 56 
Q 31.78125 56 36.171875 55.265625 
Q 40.578125 54.546875 44.28125 53.078125 
" id="BitstreamVeraSans-Roman-73"/>
      <path d="M 54.890625 33.015625 
L 54.890625 0 
L 45.90625 0 
L 45.90625 32.71875 
Q 45.90625 40.484375 42.875 44.328125 
Q 39.84375 48.1875 33.796875 48.1875 
Q 26.515625 48.1875 22.3125 43.546875 
Q 18.109375 38.921875 18.109375 30.90625 
L 18.109375 0 
L 9.078125 0 
L 9.078125 54.6875 
L 18.109375 54.6875 
L 18.109375 46.1875 
Q 21.34375 51.125 25.703125 53.5625 
Q 30.078125 56 35.796875 56 
Q 45.21875 56 50.046875 50.171875 
Q 54.890625 44.34375 54.890625 33.015625 
" id="BitstreamVeraSans-Roman-6e"/>
      <path d="M 34.28125 27.484375 
Q 23.390625 27.484375 19.1875 25 
Q 14.984375 22.515625 14.984375 16.5 
Q 14.984375 11.71875 18.140625 8.90625 
Q 21.296875 6.109375 26.703125 6.109375 
Q 34.1875 6.109375 38.703125 11.40625 
Q 43.21875 16.703125 43.21875 25.484375 
L 43.21875 27.484375 
z
M 52.203125 31.203125 
L 52.203125 0 
L 43.21875 0 
L 43.21875 8.296875 
Q 40.140625 3.328125 35.546875 0.953125 
Q 30.953125 -1.421875 24.3125 -1.421875 
Q 15.921875 -1.421875 10.953125 3.296875 
Q 6 8.015625 6 15.921875 
Q 6 25.140625 12.171875 29.828125 
Q 18.359375 34.515625 30.609375 34.515625 
L 43.21875 34.515625 
L 43.21875 35.40625 
Q 43.21875 41.609375 39.140625 45 
Q 35.0625 48.390625 27.6875 48.390625 
Q 23 48.390625 18.546875 47.265625 
Q 14.109375 46.140625 10.015625 43.890625 
L 10.015625 52.203125 
Q 14.9375 54.109375 19.578125 55.046875 
Q 24.21875 56 28.609375 56 
Q 40.484375 56 46.34375 49.84375 
Q 52.203125 43.703125 52.203125 31.203125 
" id="BitstreamVeraSans-Roman-61"/>
      <path d="M 52 44.1875 
Q 55.375 50.25 60.0625 53.125 
Q 64.75 56 71.09375 56 
Q 79.640625 56 84.28125 50.015625 
Q 88.921875 44.046875 88.921875 33.015625 
L 88.921875 0 
L 79.890625 0 
L 79.890625 32.71875 
Q 79.890625 40.578125 77.09375 44.375 
Q 74.3125 48.1875 68.609375 48.1875 
Q 61.625 48.1875 57.5625 43.546875 
Q 53.515625 38.921875 53.515625 30.90625 
L 53.515625 0 
L 44.484375 0 
L 44.484375 32.71875 
Q 44.484375 40.625 41.703125 44.40625 
Q 38.921875 48.1875 33.109375 48.1875 
Q 26.21875 48.1875 22.15625 43.53125 
Q 18.109375 38.875 18.109375 30.90625 
L 18.109375 0 
L 9.078125 0 
L 9.078125 54.6875 
L 18.109375 54.6875 
L 18.109375 46.1875 
Q 21.1875 51.21875 25.484375 53.609375 
Q 29.78125 56 35.6875 56 
Q 41.65625 56 45.828125 52.96875 
Q 50 49.953125 52 44.1875 
" id="BitstreamVeraSans-Roman-6d"/>
      <path id="BitstreamVeraSans-Roman-20"/>
      <path d="M 56.203125 29.59375 
L 56.203125 25.203125 
L 14.890625 25.203125 
Q 15.484375 15.921875 20.484375 11.0625 
Q 25.484375 6.203125 34.421875 6.203125 
Q 39.59375 6.203125 44.453125 7.46875 
Q 49.3125 8.734375 54.109375 11.28125 
L 54.109375 2.78125 
Q 49.265625 0.734375 44.1875 -0.34375 
Q 39.109375 -1.421875 33.890625 -1.421875 
Q 20.796875 -1.421875 13.15625 6.1875 
Q 5.515625 13.8125 5.515625 26.8125 
Q 5.515625 40.234375 12.765625 48.109375 
Q 20.015625 56 32.328125 56 
Q 43.359375 56 49.78125 48.890625 
Q 56.203125 41.796875 56.203125 29.59375 
M 47.21875 32.234375 
Q 47.125 39.59375 43.09375 43.984375 
Q 39.0625 48.390625 32.421875 48.390625 
Q 24.90625 48.390625 20.390625 44.140625 
Q 15.875 39.890625 15.1875 32.171875 
z
" id="BitstreamVeraSans-Roman-65"/>
      <path d="M 9.421875 75.984375 
L 18.40625 75.984375 
L 18.40625 0 
L 9.421875 0 
z
" id="BitstreamVeraSans-Roman-6c"/>
      <path d="M 25.390625 72.90625 
L 33.6875 72.90625 
L 8.296875 -9.28125 
L 0 -9.28125 
z
" id="BitstreamVeraSans-Roman-2f"/>
      <path d="M 4.890625 31.390625 
L 31.203125 31.390625 
L 31.203125 23.390625 
L 4.890625 23.390625 
z
" id="BitstreamVeraSans-Roman-2d"/>
      <path d="M 12.40625 8.296875 
L 28.515625 8.296875 
L 28.515625 63.921875 
L 10.984375 60.40625 
L 10.984375 69.390625 
L 28.421875 72.90625 
L 38.28125 72.90625 
L 38.28125 8.296875 
L 54.390625 8.296875 
L 54.390625 0 
L 12.40625 0 
z
" id="BitstreamVeraSans-Roman-31"/>
      <path d="M 2.984375 54.6875 
L 12.5 54.6875 
L 29.59375 8.796875 
L 46.6875 54.6875 
L 56.203125 54.6875 
L 35.6875 0 
L 23.484375 0 
z
" id="BitstreamVeraSans-Roman-76"/>
      <path d="M 31 75.875 
Q 24.46875 64.65625 21.28125 53.65625 
Q 18.109375 42.671875 18.109375 31.390625 
Q 18.109375 20.125 21.3125 9.0625 
Q 24.515625 -2 31 -13.1875 
L 23.1875 -13.1875 
Q 15.875 -1.703125 12.234375 9.375 
Q 8.59375 20.453125 8.59375 31.390625 
Q 8.59375 42.28125 12.203125 53.3125 
Q 15.828125 64.359375 23.1875 75.875 
z
" id="BitstreamVeraSans-Roman-28"/>
      <path d="M 9.421875 54.6875 
L 18.40625 54.6875 
L 18.40625 0 
L 9.421875 0 
z
M 9.421875 75.984375 
L 18.40625 75.984375 
L 18.40625 64.59375 
L 9.421875 64.59375 
z
" id="BitstreamVeraSans-Roman-69"/>
      <path d="M 8.015625 75.875 
L 15.828125 75.875 
Q 23.140625 64.359375 26.78125 53.3125 
Q 30.421875 42.28125 30.421875 31.390625 
Q 30.421875 20.453125 26.78125 9.375 
Q 23.140625 -1.703125 15.828125 -13.1875 
L 8.015625 -13.1875 
Q 14.5 -2 17.703125 9.0625 
Q 20.90625 20.125 20.90625 31.390625 
Q 20.90625 42.671875 17.703125 53.65625 
Q 14.5 64.65625 8.015625 75.875 
" id="BitstreamVeraSans-Roman-29"/>
      <path d="M 30.609375 48.390625 
Q 23.390625 48.390625 19.1875 42.75 
Q 14.984375 37.109375 14.984375 27.296875 
Q 14.984375 17.484375 19.15625 11.84375 
Q 23.34375 6.203125 30.609375 6.203125 
Q 37.796875 6.203125 41.984375 11.859375 
Q 46.1875 17.53125 46.1875 27.296875 
Q 46.1875 37.015625 41.984375 42.703125 
Q 37.796875 48.390625 30.609375 48.390625 
M 30.609375 56 
Q 42.328125 56 49.015625 48.375 
Q 55.71875 40.765625 55.71875 27.296875 
Q 55.71875 13.875 49.015625 6.21875 
Q 42.328125 -1.421875 30.609375 -1.421875 
Q 18.84375 -1.421875 12.171875 6.21875 
Q 5.515625 13.875 5.515625 27.296875 
Q 5.515625 40.765625 12.171875 48.375 
Q 18.84375 56 30.609375 56 
" id="BitstreamVeraSans-Roman-6f"/>
      <path d="M 51.125 44 
L 36.921875 44 
L 32.8125 27.6875 
L 47.125 27.6875 
z
M 43.796875 71.78125 
L 38.71875 51.515625 
L 52.984375 51.515625 
L 58.109375 71.78125 
L 65.921875 71.78125 
L 60.890625 51.515625 
L 76.125 51.515625 
L 76.125 44 
L 58.984375 44 
L 54.984375 27.6875 
L 70.515625 27.6875 
L 70.515625 20.21875 
L 53.078125 20.21875 
L 48 0 
L 40.1875 0 
L 45.21875 20.21875 
L 30.90625 20.21875 
L 25.875 0 
L 18.015625 0 
L 23.09375 20.21875 
L 7.71875 20.21875 
L 7.71875 27.6875 
L 24.90625 27.6875 
L 29 44 
L 13.28125 44 
L 13.28125 51.515625 
L 30.90625 51.515625 
L 35.890625 71.78125 
z
" id="BitstreamVeraSans-Roman-23"/>
      <path d="M 45.40625 27.984375 
Q 45.40625 37.75 41.375 43.109375 
Q 37.359375 48.484375 30.078125 48.484375 
Q 22.859375 48.484375 18.828125 43.109375 
Q 14.796875 37.75 14.796875 27.984375 
Q 14.796875 18.265625 18.828125 12.890625 
Q 22.859375 7.515625 30.078125 7.515625 
Q 37.359375 7.515625 41.375 12.890625 
Q 45.40625 18.265625 45.40625 27.984375 
M 54.390625 6.78125 
Q 54.390625 -7.171875 48.1875 -13.984375 
Q 42 -20.796875 29.203125 -20.796875 
Q 24.46875 -20.796875 20.265625 -20.09375 
Q 16.0625 -19.390625 12.109375 -17.921875 
L 12.109375 -9.1875 
Q 16.0625 -11.328125 19.921875 -12.34375 
Q 23.78125 -13.375 27.78125 -13.375 
Q 36.625 -13.375 41.015625 -8.765625 
Q 45.40625 -4.15625 45.40625 5.171875 
L 45.40625 9.625 
Q 42.625 4.78125 38.28125 2.390625 
Q 33.9375 0 27.875 0 
Q 17.828125 0 11.671875 7.65625 
Q 5.515625 15.328125 5.515625 27.984375 
Q 5.515625 40.671875 11.671875 48.328125 
Q 17.828125 56 27.875 56 
Q 33.9375 56 38.28125 53.609375 
Q 42.625 51.21875 45.40625 46.390625 
L 45.40625 54.6875 
L 54.390625 54.6875 
z
" id="BitstreamVeraSans-Roman-67"/>
     </defs>
     <g transform="translate(116.60171874999996 426.17359374999995)scale(0.17 -0.17)">
      <use xlink:href="#BitstreamVeraSans-Roman-6c"/>
      <use x="27.783203125" xlink:href="#BitstreamVeraSans-Roman-6f"/>
      <use x="88.96484375" xlink:href="#BitstreamVeraSans-Roman-67"/>
      <use x="152.44140625" xlink:href="#BitstreamVeraSans-Roman-31"/>
      <use x="216.064453125" xlink:href="#BitstreamVeraSans-Roman-30"/>
      <use x="279.6875" xlink:href="#BitstreamVeraSans-Roman-28"/>
      <use x="318.701171875" xlink:href="#BitstreamVeraSans-Roman-23"/>
      <use x="402.490234375" xlink:href="#BitstreamVeraSans-Roman-20"/>
      <use x="434.27734375" xlink:href="#BitstreamVeraSans-Roman-66"/>
      <use x="469.404296875" xlink:href="#BitstreamVeraSans-Roman-2d"/>
      <use x="505.48828125" xlink:href="#BitstreamVeraSans-Roman-65"/>
      <use x="567.01171875" xlink:href="#BitstreamVeraSans-Roman-76"/>
      <use x="626.19140625" xlink:href="#BitstreamVeraSans-Roman-61"/>
      <use x="687.470703125" xlink:href="#BitstreamVeraSans-Roman-6c"/>
      <use x="715.25390625" xlink:href="#BitstreamVeraSans-Roman-73"/>
      <use x="767.353515625" xlink:href="#BitstreamVeraSans-Roman-20"/>
      <use x="799.140625" xlink:href="#BitstreamVeraSans-Roman-2f"/>
      <use x="832.83203125" xlink:href="#BitstreamVeraSans-Roman-20"/>
      <use x="864.619140625" xlink:href="#BitstreamVeraSans-Roman-64"/>
      <use x="928.095703125" xlink:href="#BitstreamVeraSans-Roman-69"/>
      <use x="955.87890625" xlink:href="#BitstreamVeraSans-Roman-6d"/>
      <use x="1053.291015625" xlink:href="#BitstreamVeraSans-Roman-65"/>
      <use x="1114.814453125" xlink:href="#BitstreamVeraSans-Roman-6e"/>
      <use x="1178.193359375" xlink:href="#BitstreamVeraSans-Roman-73"/>
      <use x="1230.29296875" xlink:href="#BitstreamVeraSans-Roman-69"/>
      <use x="1258.076171875" xlink:href="#BitstreamVeraSans-Roman-6f"/>
      <use x="1319.2578125" xlink:href="#BitstreamVeraSans-Roman-6e"/>
      <use x="1382.63671875" xlink:href="#BitstreamVeraSans-Roman-29"/>
     </g>
    </g>
   </g>
   <g id="matplotlib.axis_2">
    <g id="ytick_1">
     <g id="line2d_67">
      <path clip-path="url(#p21c5862e95)" d="M 54.525 384.9 
L 420.36 384.9 
" style="fill:none;stroke:#000000;stroke-dasharray:1.000000,3.000000;stroke-dashoffset:0.0;stroke-width:0.5;"/>
     </g>
     <g id="line2d_68">
      <defs>
       <path d="M 0 0 
L 4 0 
" id="m136c87fecb" style="stroke:#000000;stroke-width:0.5;"/>
      </defs>
      <g>
       <use style="stroke:#000000;stroke-width:0.5;" x="54.52500000000001" xlink:href="#m136c87fecb" y="384.9"/>
      </g>
     </g>
     <g id="line2d_69">
      <defs>
       <path d="M 0 0 
L -4 0 
" id="m96c475a891" style="stroke:#000000;stroke-width:0.5;"/>
      </defs>
      <g>
       <use style="stroke:#000000;stroke-width:0.5;" x="420.35999999999996" xlink:href="#m96c475a891" y="384.9"/>
      </g>
     </g>
     <g id="text_6">
      <!-- 0.0 -->
      <defs>
       <path d="M 10.6875 12.40625 
L 21 12.40625 
L 21 0 
L 10.6875 0 
z
" id="BitstreamVeraSans-Roman-2e"/>
      </defs>
      <g transform="translate(25.080000000000013 389.315)scale(0.16 -0.16)">
       <use xlink:href="#BitstreamVeraSans-Roman-30"/>
       <use x="63.623046875" xlink:href="#BitstreamVeraSans-Roman-2e"/>
       <use x="95.41015625" xlink:href="#BitstreamVeraSans-Roman-30"/>
      </g>
     </g>
    </g>
    <g id="ytick_2">
     <g id="line2d_70">
      <path clip-path="url(#p21c5862e95)" d="M 54.525 310.202617 
L 420.36 310.202617 
" style="fill:none;stroke:#000000;stroke-dasharray:1.000000,3.000000;stroke-dashoffset:0.0;stroke-width:0.5;"/>
     </g>
     <g id="line2d_71">
      <g>
       <use style="stroke:#000000;stroke-width:0.5;" x="54.52500000000001" xlink:href="#m136c87fecb" y="310.2026173904519"/>
      </g>
     </g>
     <g id="line2d_72">
      <g>
       <use style="stroke:#000000;stroke-width:0.5;" x="420.35999999999996" xlink:href="#m96c475a891" y="310.2026173904519"/>
      </g>
     </g>
     <g id="text_7">
      <!-- 0.2 -->
      <g transform="translate(25.080000000000013 314.61761739045187)scale(0.16 -0.16)">
       <use xlink:href="#BitstreamVeraSans-Roman-30"/>
       <use x="63.623046875" xlink:href="#BitstreamVeraSans-Roman-2e"/>
       <use x="95.41015625" xlink:href="#BitstreamVeraSans-Roman-32"/>
      </g>
     </g>
    </g>
    <g id="ytick_3">
     <g id="line2d_73">
      <path clip-path="url(#p21c5862e95)" d="M 54.525 235.505235 
L 420.36 235.505235 
" style="fill:none;stroke:#000000;stroke-dasharray:1.000000,3.000000;stroke-dashoffset:0.0;stroke-width:0.5;"/>
     </g>
     <g id="line2d_74">
      <g>
       <use style="stroke:#000000;stroke-width:0.5;" x="54.52500000000001" xlink:href="#m136c87fecb" y="235.5052347809038"/>
      </g>
     </g>
     <g id="line2d_75">
      <g>
       <use style="stroke:#000000;stroke-width:0.5;" x="420.35999999999996" xlink:href="#m96c475a891" y="235.5052347809038"/>
      </g>
     </g>
     <g id="text_8">
      <!-- 0.4 -->
      <g transform="translate(25.080000000000013 239.9202347809038)scale(0.16 -0.16)">
       <use xlink:href="#BitstreamVeraSans-Roman-30"/>
       <use x="63.623046875" xlink:href="#BitstreamVeraSans-Roman-2e"/>
       <use x="95.41015625" xlink:href="#BitstreamVeraSans-Roman-34"/>
      </g>
     </g>
    </g>
    <g id="ytick_4">
     <g id="line2d_76">
      <path clip-path="url(#p21c5862e95)" d="M 54.525 160.807852 
L 420.36 160.807852 
" style="fill:none;stroke:#000000;stroke-dasharray:1.000000,3.000000;stroke-dashoffset:0.0;stroke-width:0.5;"/>
     </g>
     <g id="line2d_77">
      <g>
       <use style="stroke:#000000;stroke-width:0.5;" x="54.52500000000001" xlink:href="#m136c87fecb" y="160.8078521713557"/>
      </g>
     </g>
     <g id="line2d_78">
      <g>
       <use style="stroke:#000000;stroke-width:0.5;" x="420.35999999999996" xlink:href="#m96c475a891" y="160.8078521713557"/>
      </g>
     </g>
     <g id="text_9">
      <!-- 0.6 -->
      <g transform="translate(25.080000000000013 165.22285217135573)scale(0.16 -0.16)">
       <use xlink:href="#BitstreamVeraSans-Roman-30"/>
       <use x="63.623046875" xlink:href="#BitstreamVeraSans-Roman-2e"/>
       <use x="95.41015625" xlink:href="#BitstreamVeraSans-Roman-36"/>
      </g>
     </g>
    </g>
    <g id="ytick_5">
     <g id="line2d_79">
      <path clip-path="url(#p21c5862e95)" d="M 54.525 86.11047 
L 420.36 86.11047 
" style="fill:none;stroke:#000000;stroke-dasharray:1.000000,3.000000;stroke-dashoffset:0.0;stroke-width:0.5;"/>
     </g>
     <g id="line2d_80">
      <g>
       <use style="stroke:#000000;stroke-width:0.5;" x="54.52500000000001" xlink:href="#m136c87fecb" y="86.11046956180763"/>
      </g>
     </g>
     <g id="line2d_81">
      <g>
       <use style="stroke:#000000;stroke-width:0.5;" x="420.35999999999996" xlink:href="#m96c475a891" y="86.11046956180763"/>
      </g>
     </g>
     <g id="text_10">
      <!-- 0.8 -->
      <defs>
       <path d="M 31.78125 34.625 
Q 24.75 34.625 20.71875 30.859375 
Q 16.703125 27.09375 16.703125 20.515625 
Q 16.703125 13.921875 20.71875 10.15625 
Q 24.75 6.390625 31.78125 6.390625 
Q 38.8125 6.390625 42.859375 10.171875 
Q 46.921875 13.96875 46.921875 20.515625 
Q 46.921875 27.09375 42.890625 30.859375 
Q 38.875 34.625 31.78125 34.625 
M 21.921875 38.8125 
Q 15.578125 40.375 12.03125 44.71875 
Q 8.5 49.078125 8.5 55.328125 
Q 8.5 64.0625 14.71875 69.140625 
Q 20.953125 74.21875 31.78125 74.21875 
Q 42.671875 74.21875 48.875 69.140625 
Q 55.078125 64.0625 55.078125 55.328125 
Q 55.078125 49.078125 51.53125 44.71875 
Q 48 40.375 41.703125 38.8125 
Q 48.828125 37.15625 52.796875 32.3125 
Q 56.78125 27.484375 56.78125 20.515625 
Q 56.78125 9.90625 50.3125 4.234375 
Q 43.84375 -1.421875 31.78125 -1.421875 
Q 19.734375 -1.421875 13.25 4.234375 
Q 6.78125 9.90625 6.78125 20.515625 
Q 6.78125 27.484375 10.78125 32.3125 
Q 14.796875 37.15625 21.921875 38.8125 
M 18.3125 54.390625 
Q 18.3125 48.734375 21.84375 45.5625 
Q 25.390625 42.390625 31.78125 42.390625 
Q 38.140625 42.390625 41.71875 45.5625 
Q 45.3125 48.734375 45.3125 54.390625 
Q 45.3125 60.0625 41.71875 63.234375 
Q 38.140625 66.40625 31.78125 66.40625 
Q 25.390625 66.40625 21.84375 63.234375 
Q 18.3125 60.0625 18.3125 54.390625 
" id="BitstreamVeraSans-Roman-38"/>
      </defs>
      <g transform="translate(25.080000000000013 90.52546956180765)scale(0.16 -0.16)">
       <use xlink:href="#BitstreamVeraSans-Roman-30"/>
       <use x="63.623046875" xlink:href="#BitstreamVeraSans-Roman-2e"/>
       <use x="95.41015625" xlink:href="#BitstreamVeraSans-Roman-38"/>
      </g>
     </g>
    </g>
    <g id="ytick_6">
     <g id="line2d_82">
      <path clip-path="url(#p21c5862e95)" d="M 54.525 11.413087 
L 420.36 11.413087 
" style="fill:none;stroke:#000000;stroke-dasharray:1.000000,3.000000;stroke-dashoffset:0.0;stroke-width:0.5;"/>
     </g>
     <g id="line2d_83">
      <g>
       <use style="stroke:#000000;stroke-width:0.5;" x="54.52500000000001" xlink:href="#m136c87fecb" y="11.413086952259562"/>
      </g>
     </g>
     <g id="line2d_84">
      <g>
       <use style="stroke:#000000;stroke-width:0.5;" x="420.35999999999996" xlink:href="#m96c475a891" y="11.413086952259562"/>
      </g>
     </g>
     <g id="text_11">
      <!-- 1.0 -->
      <g transform="translate(25.080000000000013 15.828086952259582)scale(0.16 -0.16)">
       <use xlink:href="#BitstreamVeraSans-Roman-31"/>
       <use x="63.623046875" xlink:href="#BitstreamVeraSans-Roman-2e"/>
       <use x="95.41015625" xlink:href="#BitstreamVeraSans-Roman-30"/>
      </g>
     </g>
    </g>
    <g id="text_12">
     <!-- Fraction of function,target pairs -->
     <defs>
      <path d="M 48.78125 52.59375 
L 48.78125 44.1875 
Q 44.96875 46.296875 41.140625 47.34375 
Q 37.3125 48.390625 33.40625 48.390625 
Q 24.65625 48.390625 19.8125 42.84375 
Q 14.984375 37.3125 14.984375 27.296875 
Q 14.984375 17.28125 19.8125 11.734375 
Q 24.65625 6.203125 33.40625 6.203125 
Q 37.3125 6.203125 41.140625 7.25 
Q 44.96875 8.296875 48.78125 10.40625 
L 48.78125 2.09375 
Q 45.015625 0.34375 40.984375 -0.53125 
Q 36.96875 -1.421875 32.421875 -1.421875 
Q 20.0625 -1.421875 12.78125 6.34375 
Q 5.515625 14.109375 5.515625 27.296875 
Q 5.515625 40.671875 12.859375 48.328125 
Q 20.21875 56 33.015625 56 
Q 37.15625 56 41.109375 55.140625 
Q 45.0625 54.296875 48.78125 52.59375 
" id="BitstreamVeraSans-Roman-63"/>
      <path d="M 18.3125 70.21875 
L 18.3125 54.6875 
L 36.8125 54.6875 
L 36.8125 47.703125 
L 18.3125 47.703125 
L 18.3125 18.015625 
Q 18.3125 11.328125 20.140625 9.421875 
Q 21.96875 7.515625 27.59375 7.515625 
L 36.8125 7.515625 
L 36.8125 0 
L 27.59375 0 
Q 17.1875 0 13.234375 3.875 
Q 9.28125 7.765625 9.28125 18.015625 
L 9.28125 47.703125 
L 2.6875 47.703125 
L 2.6875 54.6875 
L 9.28125 54.6875 
L 9.28125 70.21875 
z
" id="BitstreamVeraSans-Roman-74"/>
      <path d="M 41.109375 46.296875 
Q 39.59375 47.171875 37.8125 47.578125 
Q 36.03125 48 33.890625 48 
Q 26.265625 48 22.1875 43.046875 
Q 18.109375 38.09375 18.109375 28.8125 
L 18.109375 0 
L 9.078125 0 
L 9.078125 54.6875 
L 18.109375 54.6875 
L 18.109375 46.1875 
Q 20.953125 51.171875 25.484375 53.578125 
Q 30.03125 56 36.53125 56 
Q 37.453125 56 38.578125 55.875 
Q 39.703125 55.765625 41.0625 55.515625 
z
" id="BitstreamVeraSans-Roman-72"/>
      <path d="M 18.109375 8.203125 
L 18.109375 -20.796875 
L 9.078125 -20.796875 
L 9.078125 54.6875 
L 18.109375 54.6875 
L 18.109375 46.390625 
Q 20.953125 51.265625 25.265625 53.625 
Q 29.59375 56 35.59375 56 
Q 45.5625 56 51.78125 48.09375 
Q 58.015625 40.1875 58.015625 27.296875 
Q 58.015625 14.40625 51.78125 6.484375 
Q 45.5625 -1.421875 35.59375 -1.421875 
Q 29.59375 -1.421875 25.265625 0.953125 
Q 20.953125 3.328125 18.109375 8.203125 
M 48.6875 27.296875 
Q 48.6875 37.203125 44.609375 42.84375 
Q 40.53125 48.484375 33.40625 48.484375 
Q 26.265625 48.484375 22.1875 42.84375 
Q 18.109375 37.203125 18.109375 27.296875 
Q 18.109375 17.390625 22.1875 11.75 
Q 26.265625 6.109375 33.40625 6.109375 
Q 40.53125 6.109375 44.609375 11.75 
Q 48.6875 17.390625 48.6875 27.296875 
" id="BitstreamVeraSans-Roman-70"/>
      <path d="M 11.71875 12.40625 
L 22.015625 12.40625 
L 22.015625 4 
L 14.015625 -11.625 
L 7.71875 -11.625 
L 11.71875 4 
z
" id="BitstreamVeraSans-Roman-2c"/>
      <path d="M 9.8125 72.90625 
L 51.703125 72.90625 
L 51.703125 64.59375 
L 19.671875 64.59375 
L 19.671875 43.109375 
L 48.578125 43.109375 
L 48.578125 34.8125 
L 19.671875 34.8125 
L 19.671875 0 
L 9.8125 0 
z
" id="BitstreamVeraSans-Roman-46"/>
      <path d="M 8.5 21.578125 
L 8.5 54.6875 
L 17.484375 54.6875 
L 17.484375 21.921875 
Q 17.484375 14.15625 20.5 10.265625 
Q 23.53125 6.390625 29.59375 6.390625 
Q 36.859375 6.390625 41.078125 11.03125 
Q 45.3125 15.671875 45.3125 23.6875 
L 45.3125 54.6875 
L 54.296875 54.6875 
L 54.296875 0 
L 45.3125 0 
L 45.3125 8.40625 
Q 42.046875 3.421875 37.71875 1 
Q 33.40625 -1.421875 27.6875 -1.421875 
Q 18.265625 -1.421875 13.375 4.4375 
Q 8.5 10.296875 8.5 21.578125 
" id="BitstreamVeraSans-Roman-75"/>
     </defs>
     <g transform="translate(16.544531250000006 331.42848391089103)rotate(-90.0)scale(0.17 -0.17)">
      <use xlink:href="#BitstreamVeraSans-Roman-46"/>
      <use x="57.41015625" xlink:href="#BitstreamVeraSans-Roman-72"/>
      <use x="98.5234375" xlink:href="#BitstreamVeraSans-Roman-61"/>
      <use x="159.802734375" xlink:href="#BitstreamVeraSans-Roman-63"/>
      <use x="214.783203125" xlink:href="#BitstreamVeraSans-Roman-74"/>
      <use x="253.9921875" xlink:href="#BitstreamVeraSans-Roman-69"/>
      <use x="281.775390625" xlink:href="#BitstreamVeraSans-Roman-6f"/>
      <use x="342.95703125" xlink:href="#BitstreamVeraSans-Roman-6e"/>
      <use x="406.3359375" xlink:href="#BitstreamVeraSans-Roman-20"/>
      <use x="438.123046875" xlink:href="#BitstreamVeraSans-Roman-6f"/>
      <use x="499.3046875" xlink:href="#BitstreamVeraSans-Roman-66"/>
      <use x="534.509765625" xlink:href="#BitstreamVeraSans-Roman-20"/>
      <use x="566.296875" xlink:href="#BitstreamVeraSans-Roman-66"/>
      <use x="601.501953125" xlink:href="#BitstreamVeraSans-Roman-75"/>
      <use x="664.880859375" xlink:href="#BitstreamVeraSans-Roman-6e"/>
      <use x="728.259765625" xlink:href="#BitstreamVeraSans-Roman-63"/>
      <use x="783.240234375" xlink:href="#BitstreamVeraSans-Roman-74"/>
      <use x="822.44921875" xlink:href="#BitstreamVeraSans-Roman-69"/>
      <use x="850.232421875" xlink:href="#BitstreamVeraSans-Roman-6f"/>
      <use x="911.4140625" xlink:href="#BitstreamVeraSans-Roman-6e"/>
      <use x="974.79296875" xlink:href="#BitstreamVeraSans-Roman-2c"/>
      <use x="1006.580078125" xlink:href="#BitstreamVeraSans-Roman-74"/>
      <use x="1045.7890625" xlink:href="#BitstreamVeraSans-Roman-61"/>
      <use x="1107.068359375" xlink:href="#BitstreamVeraSans-Roman-72"/>
      <use x="1148.166015625" xlink:href="#BitstreamVeraSans-Roman-67"/>
      <use x="1211.642578125" xlink:href="#BitstreamVeraSans-Roman-65"/>
      <use x="1273.166015625" xlink:href="#BitstreamVeraSans-Roman-74"/>
      <use x="1312.375" xlink:href="#BitstreamVeraSans-Roman-20"/>
      <use x="1344.162109375" xlink:href="#BitstreamVeraSans-Roman-70"/>
      <use x="1407.638671875" xlink:href="#BitstreamVeraSans-Roman-61"/>
      <use x="1468.91796875" xlink:href="#BitstreamVeraSans-Roman-69"/>
      <use x="1496.701171875" xlink:href="#BitstreamVeraSans-Roman-72"/>
      <use x="1537.814453125" xlink:href="#BitstreamVeraSans-Roman-73"/>
     </g>
    </g>
   </g>
   <g id="text_13">
    <!-- DE2-D -->
    <defs>
     <path d="M 9.8125 72.90625 
L 55.90625 72.90625 
L 55.90625 64.59375 
L 19.671875 64.59375 
L 19.671875 43.015625 
L 54.390625 43.015625 
L 54.390625 34.71875 
L 19.671875 34.71875 
L 19.671875 8.296875 
L 56.78125 8.296875 
L 56.78125 0 
L 9.8125 0 
z
" id="BitstreamVeraSans-Roman-45"/>
     <path d="M 19.671875 64.796875 
L 19.671875 8.109375 
L 31.59375 8.109375 
Q 46.6875 8.109375 53.6875 14.9375 
Q 60.6875 21.78125 60.6875 36.53125 
Q 60.6875 51.171875 53.6875 57.984375 
Q 46.6875 64.796875 31.59375 64.796875 
z
M 9.8125 72.90625 
L 30.078125 72.90625 
Q 51.265625 72.90625 61.171875 64.09375 
Q 71.09375 55.28125 71.09375 36.53125 
Q 71.09375 17.671875 61.125 8.828125 
Q 51.171875 0 30.078125 0 
L 9.8125 0 
z
" id="BitstreamVeraSans-Roman-44"/>
    </defs>
    <g transform="translate(467.91854999999987 382.12119923904515)scale(0.17 -0.17)">
     <use xlink:href="#BitstreamVeraSans-Roman-44"/>
     <use x="77.001953125" xlink:href="#BitstreamVeraSans-Roman-45"/>
     <use x="140.185546875" xlink:href="#BitstreamVeraSans-Roman-32"/>
     <use x="203.80859375" xlink:href="#BitstreamVeraSans-Roman-2d"/>
     <use x="239.892578125" xlink:href="#BitstreamVeraSans-Roman-44"/>
    </g>
   </g>
   <g id="text_14">
    <!-- DE2-E-fe -->
    <g transform="translate(467.91854999999987 292.48434010758746)scale(0.17 -0.17)">
     <use xlink:href="#BitstreamVeraSans-Roman-44"/>
     <use x="77.001953125" xlink:href="#BitstreamVeraSans-Roman-45"/>
     <use x="140.185546875" xlink:href="#BitstreamVeraSans-Roman-32"/>
     <use x="203.80859375" xlink:href="#BitstreamVeraSans-Roman-2d"/>
     <use x="239.892578125" xlink:href="#BitstreamVeraSans-Roman-45"/>
     <use x="303.076171875" xlink:href="#BitstreamVeraSans-Roman-2d"/>
     <use x="339.16015625" xlink:href="#BitstreamVeraSans-Roman-66"/>
     <use x="374.365234375" xlink:href="#BitstreamVeraSans-Roman-65"/>
    </g>
   </g>
   <g id="text_15">
    <!-- DE2-T-fe -->
    <defs>
     <path d="M -0.296875 72.90625 
L 61.375 72.90625 
L 61.375 64.59375 
L 35.5 64.59375 
L 35.5 0 
L 25.59375 0 
L 25.59375 64.59375 
L -0.296875 64.59375 
z
" id="BitstreamVeraSans-Roman-54"/>
    </defs>
    <g transform="translate(467.91854999999987 202.84748097612976)scale(0.17 -0.17)">
     <use xlink:href="#BitstreamVeraSans-Roman-44"/>
     <use x="77.001953125" xlink:href="#BitstreamVeraSans-Roman-45"/>
     <use x="140.185546875" xlink:href="#BitstreamVeraSans-Roman-32"/>
     <use x="203.80859375" xlink:href="#BitstreamVeraSans-Roman-2d"/>
     <use x="239.751953125" xlink:href="#BitstreamVeraSans-Roman-54"/>
     <use x="300.6953125" xlink:href="#BitstreamVeraSans-Roman-2d"/>
     <use x="336.779296875" xlink:href="#BitstreamVeraSans-Roman-66"/>
     <use x="371.984375" xlink:href="#BitstreamVeraSans-Roman-65"/>
    </g>
   </g>
   <g id="text_16">
    <!-- DE2-B -->
    <defs>
     <path d="M 19.671875 34.8125 
L 19.671875 8.109375 
L 35.5 8.109375 
Q 43.453125 8.109375 47.28125 11.40625 
Q 51.125 14.703125 51.125 21.484375 
Q 51.125 28.328125 47.28125 31.5625 
Q 43.453125 34.8125 35.5 34.8125 
z
M 19.671875 64.796875 
L 19.671875 42.828125 
L 34.28125 42.828125 
Q 41.5 42.828125 45.03125 45.53125 
Q 48.578125 48.25 48.578125 53.8125 
Q 48.578125 59.328125 45.03125 62.0625 
Q 41.5 64.796875 34.28125 64.796875 
z
M 9.8125 72.90625 
L 35.015625 72.90625 
Q 46.296875 72.90625 52.390625 68.21875 
Q 58.5 63.53125 58.5 54.890625 
Q 58.5 48.1875 55.375 44.234375 
Q 52.25 40.28125 46.1875 39.3125 
Q 53.46875 37.75 57.5 32.78125 
Q 61.53125 27.828125 61.53125 20.40625 
Q 61.53125 10.640625 54.890625 5.3125 
Q 48.25 0 35.984375 0 
L 9.8125 0 
z
" id="BitstreamVeraSans-Roman-42"/>
    </defs>
    <g transform="translate(467.91854999999987 113.21062184467212)scale(0.17 -0.17)">
     <use xlink:href="#BitstreamVeraSans-Roman-44"/>
     <use x="77.001953125" xlink:href="#BitstreamVeraSans-Roman-45"/>
     <use x="140.185546875" xlink:href="#BitstreamVeraSans-Roman-32"/>
     <use x="203.80859375" xlink:href="#BitstreamVeraSans-Roman-2d"/>
     <use x="239.845703125" xlink:href="#BitstreamVeraSans-Roman-42"/>
    </g>
   </g>
   <g id="text_17">
    <!-- best 2009 -->
    <defs>
     <path d="M 48.6875 27.296875 
Q 48.6875 37.203125 44.609375 42.84375 
Q 40.53125 48.484375 33.40625 48.484375 
Q 26.265625 48.484375 22.1875 42.84375 
Q 18.109375 37.203125 18.109375 27.296875 
Q 18.109375 17.390625 22.1875 11.75 
Q 26.265625 6.109375 33.40625 6.109375 
Q 40.53125 6.109375 44.609375 11.75 
Q 48.6875 17.390625 48.6875 27.296875 
M 18.109375 46.390625 
Q 20.953125 51.265625 25.265625 53.625 
Q 29.59375 56 35.59375 56 
Q 45.5625 56 51.78125 48.09375 
Q 58.015625 40.1875 58.015625 27.296875 
Q 58.015625 14.40625 51.78125 6.484375 
Q 45.5625 -1.421875 35.59375 -1.421875 
Q 29.59375 -1.421875 25.265625 0.953125 
Q 20.953125 3.328125 18.109375 8.203125 
L 18.109375 0 
L 9.078125 0 
L 9.078125 75.984375 
L 18.109375 75.984375 
z
" id="BitstreamVeraSans-Roman-62"/>
     <path d="M 10.984375 1.515625 
L 10.984375 10.5 
Q 14.703125 8.734375 18.5 7.8125 
Q 22.3125 6.890625 25.984375 6.890625 
Q 35.75 6.890625 40.890625 13.453125 
Q 46.046875 20.015625 46.78125 33.40625 
Q 43.953125 29.203125 39.59375 26.953125 
Q 35.25 24.703125 29.984375 24.703125 
Q 19.046875 24.703125 12.671875 31.3125 
Q 6.296875 37.9375 6.296875 49.421875 
Q 6.296875 60.640625 12.9375 67.421875 
Q 19.578125 74.21875 30.609375 74.21875 
Q 43.265625 74.21875 49.921875 64.515625 
Q 56.59375 54.828125 56.59375 36.375 
Q 56.59375 19.140625 48.40625 8.859375 
Q 40.234375 -1.421875 26.421875 -1.421875 
Q 22.703125 -1.421875 18.890625 -0.6875 
Q 15.09375 0.046875 10.984375 1.515625 
M 30.609375 32.421875 
Q 37.25 32.421875 41.125 36.953125 
Q 45.015625 41.5 45.015625 49.421875 
Q 45.015625 57.28125 41.125 61.84375 
Q 37.25 66.40625 30.609375 66.40625 
Q 23.96875 66.40625 20.09375 61.84375 
Q 16.21875 57.28125 16.21875 49.421875 
Q 16.21875 41.5 20.09375 36.953125 
Q 23.96875 32.421875 30.609375 32.421875 
" id="BitstreamVeraSans-Roman-39"/>
    </defs>
    <g transform="translate(467.91854999999987 23.57376271321442)scale(0.17 -0.17)">
     <use xlink:href="#BitstreamVeraSans-Roman-62"/>
     <use x="63.4765625" xlink:href="#BitstreamVeraSans-Roman-65"/>
     <use x="125.0" xlink:href="#BitstreamVeraSans-Roman-73"/>
     <use x="177.099609375" xlink:href="#BitstreamVeraSans-Roman-74"/>
     <use x="216.30859375" xlink:href="#BitstreamVeraSans-Roman-20"/>
     <use x="248.095703125" xlink:href="#BitstreamVeraSans-Roman-32"/>
     <use x="311.71875" xlink:href="#BitstreamVeraSans-Roman-30"/>
     <use x="375.341796875" xlink:href="#BitstreamVeraSans-Roman-30"/>
     <use x="438.96484375" xlink:href="#BitstreamVeraSans-Roman-39"/>
    </g>
   </g>
   <g id="text_18">
    <!-- bbob f15-f19, 20-D -->
    <defs>
     <path d="M 10.796875 72.90625 
L 49.515625 72.90625 
L 49.515625 64.59375 
L 19.828125 64.59375 
L 19.828125 46.734375 
Q 21.96875 47.46875 24.109375 47.828125 
Q 26.265625 48.1875 28.421875 48.1875 
Q 40.625 48.1875 47.75 41.5 
Q 54.890625 34.8125 54.890625 23.390625 
Q 54.890625 11.625 47.5625 5.09375 
Q 40.234375 -1.421875 26.90625 -1.421875 
Q 22.3125 -1.421875 17.546875 -0.640625 
Q 12.796875 0.140625 7.71875 1.703125 
L 7.71875 11.625 
Q 12.109375 9.234375 16.796875 8.0625 
Q 21.484375 6.890625 26.703125 6.890625 
Q 35.15625 6.890625 40.078125 11.328125 
Q 45.015625 15.765625 45.015625 23.390625 
Q 45.015625 31 40.078125 35.4375 
Q 35.15625 39.890625 26.703125 39.890625 
Q 22.75 39.890625 18.8125 39.015625 
Q 14.890625 38.140625 10.796875 36.28125 
z
" id="BitstreamVeraSans-Roman-35"/>
    </defs>
    <g transform="translate(58.18335000000001 19.20084189356436)scale(0.102 -0.102)">
     <use xlink:href="#BitstreamVeraSans-Roman-62"/>
     <use x="63.4765625" xlink:href="#BitstreamVeraSans-Roman-62"/>
     <use x="126.953125" xlink:href="#BitstreamVeraSans-Roman-6f"/>
     <use x="188.134765625" xlink:href="#BitstreamVeraSans-Roman-62"/>
     <use x="251.611328125" xlink:href="#BitstreamVeraSans-Roman-20"/>
     <use x="283.3984375" xlink:href="#BitstreamVeraSans-Roman-66"/>
     <use x="318.603515625" xlink:href="#BitstreamVeraSans-Roman-31"/>
     <use x="382.2265625" xlink:href="#BitstreamVeraSans-Roman-35"/>
     <use x="445.849609375" xlink:href="#BitstreamVeraSans-Roman-2d"/>
     <use x="481.93359375" xlink:href="#BitstreamVeraSans-Roman-66"/>
     <use x="517.138671875" xlink:href="#BitstreamVeraSans-Roman-31"/>
     <use x="580.76171875" xlink:href="#BitstreamVeraSans-Roman-39"/>
     <use x="644.384765625" xlink:href="#BitstreamVeraSans-Roman-2c"/>
     <use x="676.171875" xlink:href="#BitstreamVeraSans-Roman-20"/>
     <use x="707.958984375" xlink:href="#BitstreamVeraSans-Roman-32"/>
     <use x="771.58203125" xlink:href="#BitstreamVeraSans-Roman-30"/>
     <use x="835.205078125" xlink:href="#BitstreamVeraSans-Roman-2d"/>
     <use x="871.2890625" xlink:href="#BitstreamVeraSans-Roman-44"/>
    </g>
    <!-- 51 targets: 100..1e-08 -->
    <defs>
     <path d="M 11.71875 12.40625 
L 22.015625 12.40625 
L 22.015625 0 
L 11.71875 0 
z
M 11.71875 51.703125 
L 22.015625 51.703125 
L 22.015625 39.3125 
L 11.71875 39.3125 
z
" id="BitstreamVeraSans-Roman-3a"/>
    </defs>
    <g transform="translate(58.18335000000001 30.622610643564315)scale(0.102 -0.102)">
     <use xlink:href="#BitstreamVeraSans-Roman-35"/>
     <use x="63.623046875" xlink:href="#BitstreamVeraSans-Roman-31"/>
     <use x="127.24609375" xlink:href="#BitstreamVeraSans-Roman-20"/>
     <use x="159.033203125" xlink:href="#BitstreamVeraSans-Roman-74"/>
     <use x="198.2421875" xlink:href="#BitstreamVeraSans-Roman-61"/>
     <use x="259.521484375" xlink:href="#BitstreamVeraSans-Roman-72"/>
     <use x="300.619140625" xlink:href="#BitstreamVeraSans-Roman-67"/>
     <use x="364.095703125" xlink:href="#BitstreamVeraSans-Roman-65"/>
     <use x="425.619140625" xlink:href="#BitstreamVeraSans-Roman-74"/>
     <use x="464.828125" xlink:href="#BitstreamVeraSans-Roman-73"/>
     <use x="516.927734375" xlink:href="#BitstreamVeraSans-Roman-3a"/>
     <use x="550.619140625" xlink:href="#BitstreamVeraSans-Roman-20"/>
     <use x="582.40625" xlink:href="#BitstreamVeraSans-Roman-31"/>
     <use x="646.029296875" xlink:href="#BitstreamVeraSans-Roman-30"/>
     <use x="709.65234375" xlink:href="#BitstreamVeraSans-Roman-30"/>
     <use x="773.275390625" xlink:href="#BitstreamVeraSans-Roman-2e"/>
     <use x="805.0625" xlink:href="#BitstreamVeraSans-Roman-2e"/>
     <use x="836.849609375" xlink:href="#BitstreamVeraSans-Roman-31"/>
     <use x="900.47265625" xlink:href="#BitstreamVeraSans-Roman-65"/>
     <use x="961.99609375" xlink:href="#BitstreamVeraSans-Roman-2d"/>
     <use x="998.080078125" xlink:href="#BitstreamVeraSans-Roman-30"/>
     <use x="1061.703125" xlink:href="#BitstreamVeraSans-Roman-38"/>
    </g>
    <!-- 15 instances -->
    <g transform="translate(58.18335000000001 42.04437939356433)scale(0.102 -0.102)">
     <use xlink:href="#BitstreamVeraSans-Roman-31"/>
     <use x="63.623046875" xlink:href="#BitstreamVeraSans-Roman-35"/>
     <use x="127.24609375" xlink:href="#BitstreamVeraSans-Roman-20"/>
     <use x="159.033203125" xlink:href="#BitstreamVeraSans-Roman-69"/>
     <use x="186.81640625" xlink:href="#BitstreamVeraSans-Roman-6e"/>
     <use x="250.1953125" xlink:href="#BitstreamVeraSans-Roman-73"/>
     <use x="302.294921875" xlink:href="#BitstreamVeraSans-Roman-74"/>
     <use x="341.50390625" xlink:href="#BitstreamVeraSans-Roman-61"/>
     <use x="402.783203125" xlink:href="#BitstreamVeraSans-Roman-6e"/>
     <use x="466.162109375" xlink:href="#BitstreamVeraSans-Roman-63"/>
     <use x="521.142578125" xlink:href="#BitstreamVeraSans-Roman-65"/>
     <use x="582.666015625" xlink:href="#BitstreamVeraSans-Roman-73"/>
    </g>
   </g>
   <g id="text_19">
    <!-- v2.3.3 -->
    <defs>
     <path d="M 40.578125 39.3125 
Q 47.65625 37.796875 51.625 33 
Q 55.609375 28.21875 55.609375 21.1875 
Q 55.609375 10.40625 48.1875 4.484375 
Q 40.765625 -1.421875 27.09375 -1.421875 
Q 22.515625 -1.421875 17.65625 -0.515625 
Q 12.796875 0.390625 7.625 2.203125 
L 7.625 11.71875 
Q 11.71875 9.328125 16.59375 8.109375 
Q 21.484375 6.890625 26.8125 6.890625 
Q 36.078125 6.890625 40.9375 10.546875 
Q 45.796875 14.203125 45.796875 21.1875 
Q 45.796875 27.640625 41.28125 31.265625 
Q 36.765625 34.90625 28.71875 34.90625 
L 20.21875 34.90625 
L 20.21875 43.015625 
L 29.109375 43.015625 
Q 36.375 43.015625 40.234375 45.921875 
Q 44.09375 48.828125 44.09375 54.296875 
Q 44.09375 59.90625 40.109375 62.90625 
Q 36.140625 65.921875 28.71875 65.921875 
Q 24.65625 65.921875 20.015625 65.03125 
Q 15.375 64.15625 9.8125 62.3125 
L 9.8125 71.09375 
Q 15.4375 72.65625 20.34375 73.4375 
Q 25.25 74.21875 29.59375 74.21875 
Q 40.828125 74.21875 47.359375 69.109375 
Q 53.90625 64.015625 53.90625 55.328125 
Q 53.90625 49.265625 50.4375 45.09375 
Q 46.96875 40.921875 40.578125 39.3125 
" id="BitstreamVeraSans-Roman-33"/>
    </defs>
    <g style="fill:#808080;" transform="translate(221.76124999999996 379.0480946782178)scale(0.1 -0.1)">
     <use xlink:href="#BitstreamVeraSans-Roman-76"/>
     <use x="59.1796875" xlink:href="#BitstreamVeraSans-Roman-32"/>
     <use x="122.802734375" xlink:href="#BitstreamVeraSans-Roman-2e"/>
     <use x="154.58984375" xlink:href="#BitstreamVeraSans-Roman-33"/>
     <use x="218.212890625" xlink:href="#BitstreamVeraSans-Roman-2e"/>
     <use x="250.0" xlink:href="#BitstreamVeraSans-Roman-33"/>
    </g>
   </g>
  </g>
 </g>
 <defs>
  <clipPath id="p21c5862e95">
   <rect height="377.22178217821784" width="365.8349999999999" x="54.52500000000001" y="7.678217821782141"/>
  </clipPath>
 </defs>
</svg>
