<?xml version="1.0" encoding="utf-8" standalone="no"?>
<!DOCTYPE svg PUBLIC "-//W3C//DTD SVG 1.1//EN"
  "http://www.w3.org/Graphics/SVG/1.1/DTD/svg11.dtd">
<!-- Created with matplotlib (http://matplotlib.org/) -->
<svg height="432pt" version="1.1" viewBox="0 0 576 432" width="576pt" xmlns="http://www.w3.org/2000/svg" xmlns:xlink="http://www.w3.org/1999/xlink">
 <defs>
  <style type="text/css">
*{stroke-linecap:butt;stroke-linejoin:round;stroke-miterlimit:100000;}
  </style>
 </defs>
 <g id="figure_1">
  <g id="patch_1">
   <path d="M 0 432 
L 576 432 
L 576 0 
L 0 0 
z
" style="fill:#ffffff;"/>
  </g>
  <g id="axes_1">
   <g id="patch_2">
    <path d="M 54.525 384.9 
L 420.36 384.9 
L 420.36 22.4 
L 54.525 22.4 
z
" style="fill:#ffffff;"/>
   </g>
   <g id="line2d_1">
    <path d="M -13.469615 384.9 
M -1 377.862532 
L 67.866088 377.862532 
L 67.866088 370.825063 
L 85.122432 370.825063 
L 85.122432 363.787595 
L 89.407522 363.787595 
L 89.407522 356.750126 
L 125.493585 356.750126 
L 125.493585 349.712658 
L 130.197074 349.712658 
L 130.197074 342.675189 
L 141.374892 342.675189 
L 141.374892 335.637721 
L 145.355942 335.637721 
L 145.355942 328.600252 
L 159.308814 328.600252 
L 159.308814 321.562784 
L 185.264338 321.562784 
L 185.264338 314.525315 
L 185.944124 314.525315 
L 185.944124 307.487847 
L 203.076065 307.487847 
L 203.076065 300.450379 
L 203.202947 300.450379 
L 203.202947 293.41291 
L 203.243464 293.41291 
L 203.243464 286.375442 
L 203.298452 286.375442 
L 203.298452 279.337973 
L 203.382295 279.337973 
L 203.382295 272.300505 
L 203.427313 272.300505 
L 203.427313 265.263036 
L 203.477051 265.263036 
L 203.477051 258.225568 
L 203.52508 258.225568 
L 203.52508 251.188099 
L 203.584177 251.188099 
L 203.584177 244.150631 
L 203.725702 244.150631 
L 203.725702 237.113162 
L 203.774791 237.113162 
L 203.774791 230.075694 
L 203.828508 230.075694 
L 203.828508 223.038226 
L 204.048367 223.038226 
L 204.048367 216.000757 
L 204.140388 216.000757 
L 204.140388 208.963289 
L 204.235138 208.963289 
L 204.235138 201.92582 
L 204.446505 201.92582 
L 204.446505 194.888352 
L 204.503254 194.888352 
L 204.503254 187.850883 
L 204.584296 187.850883 
L 204.584296 180.813415 
L 204.740971 180.813415 
L 204.740971 173.775946 
L 204.911621 173.775946 
L 204.911621 166.738478 
L 205.057092 166.738478 
L 205.057092 159.70101 
L 205.122773 159.70101 
L 205.122773 152.663541 
L 205.399815 152.663541 
L 205.399815 145.626073 
L 205.578753 145.626073 
L 205.578753 138.588604 
L 205.623997 138.588604 
L 205.623997 131.551136 
L 206.206949 131.551136 
L 206.206949 124.513667 
L 206.44444 124.513667 
L 206.44444 117.476199 
L 206.601398 117.476199 
L 206.601398 110.43873 
L 206.938254 110.43873 
L 206.938254 103.401262 
L 207.177786 103.401262 
L 207.177786 96.363793 
L 208.257287 96.363793 
L 208.257287 89.326325 
L 208.287129 89.326325 
L 208.287129 82.288857 
L 208.318226 82.288857 
L 208.318226 75.251388 
L 208.366085 75.251388 
L 208.366085 68.21392 
L 208.395784 68.21392 
L 208.395784 61.176451 
L 208.41771 61.176451 
L 208.41771 54.138983 
L 208.478221 54.138983 
L 208.478221 47.101514 
L 208.492359 47.101514 
L 208.492359 40.064046 
L 208.510341 40.064046 
L 208.510341 33.026577 
L 208.578288 33.026577 
L 208.578288 25.989109 
L 420.36 25.989109 
" style="fill:none;stroke:#f5deb3;stroke-linecap:square;stroke-width:4.0;"/>
   </g>
   <g id="line2d_2">
    <defs>
     <path d="M -0 7.778175 
L 7.778175 0 
L 0 -7.778175 
L -7.778175 -0 
z
" id="mdda7699dfa" style="stroke:#f5deb3;stroke-linejoin:miter;stroke-width:1.5;"/>
    </defs>
    <g>
     <use style="fill:#f5deb3;stroke:#f5deb3;stroke-linejoin:miter;stroke-width:1.5;" x="130.19707426913075" xlink:href="#mdda7699dfa" y="349.71265773636185"/>
     <use style="fill:#f5deb3;stroke:#f5deb3;stroke-linejoin:miter;stroke-width:1.5;" x="203.8285080311078" xlink:href="#mdda7699dfa" y="223.03822558726458"/>
     <use style="fill:#f5deb3;stroke:#f5deb3;stroke-linejoin:miter;stroke-width:1.5;" x="208.28712913060863" xlink:href="#mdda7699dfa" y="82.28885653271203"/>
     <use style="fill:#f5deb3;stroke:#f5deb3;stroke-linejoin:miter;stroke-width:1.5;" x="208.57828752312972" xlink:href="#mdda7699dfa" y="25.989108910891048"/>
     <use style="fill:#f5deb3;stroke:#f5deb3;stroke-linejoin:miter;stroke-width:1.5;" x="208.57828752312972" xlink:href="#mdda7699dfa" y="25.989108910891048"/>
     <use style="fill:#f5deb3;stroke:#f5deb3;stroke-linejoin:miter;stroke-width:1.5;" x="420.3599999999999" xlink:href="#mdda7699dfa" y="25.989108910891048"/>
    </g>
   </g>
   <g id="line2d_3">
    <path d="M -15676.38 743.810891 
" style="fill:none;stroke:#f5deb3;stroke-linecap:square;stroke-width:4.0;"/>
    <g>
     <use style="fill:#f5deb3;stroke:#f5deb3;stroke-linejoin:miter;stroke-width:1.5;" x="-15676.379999999994" xlink:href="#mdda7699dfa" y="743.810891089109"/>
    </g>
   </g>
   <g id="line2d_4">
    <path d="M 420.36 25.989109 
L 460.60185 33.167327 
" style="fill:none;stroke:#f5deb3;stroke-linecap:square;stroke-width:4.0;"/>
    <g>
     <use style="fill:#f5deb3;stroke:#f5deb3;stroke-linejoin:miter;stroke-width:1.5;" x="420.3599999999999" xlink:href="#mdda7699dfa" y="25.989108910891048"/>
     <use style="fill:#f5deb3;stroke:#f5deb3;stroke-linejoin:miter;stroke-width:1.5;" x="460.60184999999996" xlink:href="#mdda7699dfa" y="33.167326732673246"/>
    </g>
   </g>
   <g id="line2d_5">
    <defs>
     <path d="M 0 1.5 
C 0.397805 1.5 0.77937 1.341951 1.06066 1.06066 
C 1.341951 0.77937 1.5 0.397805 1.5 0 
C 1.5 -0.397805 1.341951 -0.77937 1.06066 -1.06066 
C 0.77937 -1.341951 0.397805 -1.5 0 -1.5 
C -0.397805 -1.5 -0.77937 -1.341951 -1.06066 -1.06066 
C -1.341951 -0.77937 -1.5 -0.397805 -1.5 0 
C -1.5 0.397805 -1.341951 0.77937 -1.06066 1.06066 
C -0.77937 1.341951 -0.397805 1.5 0 1.5 
z
" id="mc60572464e" style="stroke:#f5deb3;stroke-width:0.5;"/>
    </defs>
    <g>
     <use style="fill:#f5deb3;stroke:#f5deb3;stroke-width:0.5;" x="208.57828752312972" xlink:href="#mc60572464e" y="25.989108910891048"/>
     <use style="fill:#f5deb3;stroke:#f5deb3;stroke-width:0.5;" x="208.57828752312972" xlink:href="#mc60572464e" y="25.989108910891048"/>
    </g>
   </g>
   <g id="line2d_6">
    <defs>
     <path d="M 0 1.5 
C 0.397805 1.5 0.77937 1.341951 1.06066 1.06066 
C 1.341951 0.77937 1.5 0.397805 1.5 0 
C 1.5 -0.397805 1.341951 -0.77937 1.06066 -1.06066 
C 0.77937 -1.341951 0.397805 -1.5 0 -1.5 
C -0.397805 -1.5 -0.77937 -1.341951 -1.06066 -1.06066 
C -1.341951 -0.77937 -1.5 -0.397805 -1.5 0 
C -1.5 0.397805 -1.341951 0.77937 -1.06066 1.06066 
C -0.77937 1.341951 -0.397805 1.5 0 1.5 
z
" id="mda26cca841" style="stroke:#000080;stroke-width:0.5;"/>
    </defs>
    <g>
     <use style="fill:#000080;stroke:#000080;stroke-width:0.5;" x="331.97908247402836" xlink:href="#mda26cca841" y="279.3379732090856"/>
     <use style="fill:#000080;stroke:#000080;stroke-width:0.5;" x="331.97908247402836" xlink:href="#mda26cca841" y="279.3379732090856"/>
    </g>
   </g>
   <g id="line2d_7">
    <path d="M -1 377.862532 
L 110.639822 377.862532 
L 110.639822 377.158785 
L 133.920156 377.158785 
L 133.920156 376.455038 
L 140.671826 376.455038 
L 140.671826 375.751291 
L 140.900195 375.751291 
L 140.900195 373.64005 
L 146.150984 373.64005 
L 146.150984 372.232557 
L 153.058017 372.232557 
L 153.058017 370.825063 
L 155.823117 370.825063 
L 155.823117 370.121316 
L 160.542481 370.121316 
L 160.542481 369.417569 
L 160.690759 369.417569 
L 160.690759 368.713823 
L 163.357061 368.713823 
L 163.357061 367.306329 
L 163.986549 367.306329 
L 164.059472 365.898835 
L 165.513503 365.898835 
L 165.513503 365.195088 
L 167.309882 365.195088 
L 167.309882 364.491341 
L 168.50798 364.491341 
L 168.50798 363.083848 
L 170.159542 363.083848 
L 170.159542 362.380101 
L 170.47728 362.380101 
L 170.47728 360.26886 
L 173.724805 360.26886 
L 173.724805 358.861367 
L 174.218753 358.861367 
L 174.218753 358.15762 
L 174.438722 358.15762 
L 174.438722 356.046379 
L 174.60517 356.046379 
L 174.60517 355.342632 
L 177.755728 355.342632 
L 177.755728 352.527645 
L 178.432427 352.527645 
L 178.432427 351.823898 
L 180.304846 351.823898 
L 180.304846 351.120151 
L 183.207368 351.120151 
L 183.207368 350.416405 
L 184.12796 350.416405 
L 184.12796 349.008911 
L 184.581993 349.008911 
L 184.581993 348.305164 
L 185.203474 348.305164 
L 185.203474 347.601417 
L 188.411028 347.601417 
L 188.411028 346.89767 
L 188.799868 346.89767 
L 188.799868 346.193924 
L 189.284221 346.193924 
L 189.284221 345.490177 
L 192.60258 345.490177 
L 192.60258 344.78643 
L 192.984917 344.78643 
L 192.984917 344.082683 
L 198.004814 344.082683 
L 198.004814 341.971442 
L 199.322195 341.971442 
L 199.322195 341.267696 
L 200.536297 341.267696 
L 200.536297 339.860202 
L 204.614803 339.860202 
L 204.614803 339.156455 
L 204.789427 339.156455 
L 204.789427 338.452708 
L 208.375128 338.452708 
L 208.375128 337.748961 
L 209.893748 337.748961 
L 209.893748 337.045215 
L 211.007531 337.045215 
L 211.007531 336.341468 
L 213.777025 336.341468 
L 213.777025 335.637721 
L 214.169627 335.637721 
L 214.169627 334.933974 
L 215.955561 334.933974 
L 216.066274 332.822733 
L 216.080076 332.822733 
L 216.080076 332.118987 
L 218.436849 332.118987 
L 218.436849 331.41524 
L 219.401829 331.41524 
L 219.401829 330.711493 
L 219.619294 330.711493 
L 219.619294 330.007746 
L 221.213131 330.007746 
L 221.213131 328.600252 
L 221.459029 328.600252 
L 221.459029 327.192759 
L 221.680741 327.192759 
L 221.680741 326.489012 
L 223.76141 326.489012 
L 223.76141 325.081518 
L 224.410388 325.081518 
L 224.410388 322.970278 
L 225.273169 322.970278 
L 225.273169 321.562784 
L 227.705435 321.562784 
L 227.705435 320.859037 
L 229.73388 320.859037 
L 229.73388 320.15529 
L 234.58379 320.15529 
L 234.58379 318.747797 
L 234.834362 318.747797 
L 234.834362 318.04405 
L 235.090956 318.04405 
L 235.090956 316.636556 
L 237.435841 316.636556 
L 237.435841 315.932809 
L 239.319448 315.932809 
L 239.319448 315.229062 
L 241.212357 315.229062 
L 241.28943 313.821569 
L 244.531576 313.821569 
L 244.531576 313.117822 
L 245.747108 313.117822 
L 245.747108 312.414075 
L 246.348399 312.414075 
L 246.348399 311.710328 
L 252.836901 311.710328 
L 252.836901 311.006581 
L 253.877412 311.006581 
L 253.877412 310.302834 
L 254.010628 310.302834 
L 254.010628 309.599088 
L 254.979449 309.599088 
L 254.979449 308.895341 
L 256.846439 308.895341 
L 256.846439 308.191594 
L 257.893575 308.191594 
L 257.893575 306.7841 
L 258.076487 306.7841 
L 258.076487 306.080353 
L 258.696174 306.080353 
L 258.6973 304.67286 
L 261.047243 304.67286 
L 261.047243 303.265366 
L 261.349402 303.265366 
L 261.349402 302.561619 
L 264.936009 302.561619 
L 264.936009 301.857872 
L 268.153056 301.857872 
L 268.153056 301.154125 
L 268.516312 301.154125 
L 268.516312 300.450379 
L 269.259871 300.450379 
L 269.259871 299.746632 
L 269.640482 299.746632 
L 269.641177 298.339138 
L 272.283553 298.339138 
L 272.283553 297.635391 
L 274.851609 297.635391 
L 274.851609 296.931644 
L 276.718429 296.931644 
L 276.718429 296.227897 
L 276.993081 296.227897 
L 276.993081 294.116657 
L 278.935051 294.116657 
L 278.935051 293.41291 
L 280.877788 293.41291 
L 280.877788 292.709163 
L 282.537671 292.709163 
L 282.537671 292.005416 
L 283.183274 292.005416 
L 283.195421 290.597923 
L 285.552966 290.597923 
L 285.552966 289.894176 
L 287.522156 289.894176 
L 287.522156 289.190429 
L 291.163217 289.190429 
L 291.163217 287.782935 
L 293.906714 287.782935 
L 293.906714 287.079189 
L 295.90019 287.079189 
L 295.90019 286.375442 
L 296.372294 286.375442 
L 296.372294 285.671695 
L 301.72936 285.671695 
L 301.72936 284.967948 
L 303.490066 284.967948 
L 303.490066 284.264201 
L 305.364776 284.264201 
L 305.364776 283.560454 
L 305.603059 283.560454 
L 305.603059 282.152961 
L 305.93834 282.152961 
L 305.93834 281.449214 
L 311.616486 281.449214 
L 311.616486 280.745467 
L 331.415107 280.745467 
L 331.415107 280.04172 
L 331.979082 280.04172 
L 331.979082 279.337973 
L 420.36 279.337973 
L 420.36 279.337973 
" style="fill:none;stroke:#000080;stroke-linecap:square;stroke-width:1.5;"/>
   </g>
   <g id="line2d_8">
    <defs>
     <path d="M 0 6 
C 1.591219 6 3.117479 5.367802 4.242641 4.242641 
C 5.367802 3.117479 6 1.591219 6 0 
C 6 -1.591219 5.367802 -3.117479 4.242641 -4.242641 
C 3.117479 -5.367802 1.591219 -6 0 -6 
C -1.591219 -6 -3.117479 -5.367802 -4.242641 -4.242641 
C -5.367802 -3.117479 -6 -1.591219 -6 0 
C -6 1.591219 -5.367802 3.117479 -4.242641 4.242641 
C -3.117479 5.367802 -1.591219 6 0 6 
z
" id="m7eadd1c81f" style="stroke:#000080;stroke-width:1.5;"/>
    </defs>
    <g>
     <use style="fill:none;stroke:#000080;stroke-width:1.5;" x="183.2073679806279" xlink:href="#m7eadd1c81f" y="350.4164045816346"/>
     <use style="fill:none;stroke:#000080;stroke-width:1.5;" x="278.9350507987281" xlink:href="#m7eadd1c81f" y="293.41291011454086"/>
     <use style="fill:none;stroke:#000080;stroke-width:1.5;" x="331.97908247402836" xlink:href="#m7eadd1c81f" y="280.04172005435834"/>
     <use style="fill:none;stroke:#000080;stroke-width:1.5;" x="331.97908247402836" xlink:href="#m7eadd1c81f" y="279.3379732090856"/>
     <use style="fill:none;stroke:#000080;stroke-width:1.5;" x="420.3599999999999" xlink:href="#m7eadd1c81f" y="279.3379732090856"/>
    </g>
   </g>
   <g id="line2d_9">
    <path d="M -15676.38 743.810891 
" style="fill:none;stroke:#000080;stroke-linecap:square;stroke-width:1.5;"/>
    <g>
     <use style="fill:none;stroke:#000080;stroke-width:1.5;" x="-15676.379999999994" xlink:href="#m7eadd1c81f" y="743.810891089109"/>
    </g>
   </g>
   <g id="line2d_10">
    <path clip-path="url(#p58dd1acc4e)" d="M 247.832018 311.710328 
" style="fill:none;stroke:#000080;stroke-linecap:square;"/>
    <defs>
     <path d="M -12 12 
L 12 -12 
M -12 -12 
L 12 12 
" id="m2ff691ac47" style="stroke:#000080;"/>
    </defs>
    <g clip-path="url(#p58dd1acc4e)">
     <use style="fill:#000080;stroke:#000080;" x="247.83201811053598" xlink:href="#m2ff691ac47" y="311.7103280916327"/>
    </g>
   </g>
   <g id="line2d_11">
    <defs>
     <path d="M 0 1.5 
C 0.397805 1.5 0.77937 1.341951 1.06066 1.06066 
C 1.341951 0.77937 1.5 0.397805 1.5 0 
C 1.5 -0.397805 1.341951 -0.77937 1.06066 -1.06066 
C 0.77937 -1.341951 0.397805 -1.5 0 -1.5 
C -0.397805 -1.5 -0.77937 -1.341951 -1.06066 -1.06066 
C -1.341951 -0.77937 -1.5 -0.397805 -1.5 0 
C -1.5 0.397805 -1.341951 0.77937 -1.06066 1.06066 
C -0.77937 1.341951 -0.397805 1.5 0 1.5 
z
" id="mbbf3f24362" style="stroke:#ff00ff;stroke-width:0.5;"/>
    </defs>
    <g>
     <use style="fill:#ff00ff;stroke:#ff00ff;stroke-width:0.5;" x="343.41302620572776" xlink:href="#mbbf3f24362" y="279.3379732090856"/>
     <use style="fill:#ff00ff;stroke:#ff00ff;stroke-width:0.5;" x="343.41302620572776" xlink:href="#mbbf3f24362" y="279.3379732090856"/>
    </g>
   </g>
   <g id="line2d_12">
    <path d="M -1 377.862532 
L 70.817925 377.862532 
L 70.817925 377.158785 
L 96.834325 377.158785 
L 96.834325 375.751291 
L 163.729459 375.751291 
L 163.729459 375.047544 
L 172.497303 375.047544 
L 172.497303 372.936304 
L 180.027338 372.936304 
L 180.027338 371.52881 
L 182.495601 371.52881 
L 182.495601 370.825063 
L 182.768628 370.825063 
L 182.768628 370.121316 
L 184.16552 370.121316 
L 184.16552 368.010076 
L 185.417566 368.010076 
L 185.417566 366.602582 
L 190.026718 366.602582 
L 190.026718 365.898835 
L 193.873158 365.898835 
L 193.873158 364.491341 
L 194.041367 364.491341 
L 194.041367 363.787595 
L 195.735029 363.787595 
L 195.735029 363.083848 
L 196.486607 363.083848 
L 196.486607 362.380101 
L 200.038289 362.380101 
L 200.038289 361.676354 
L 200.343923 361.676354 
L 200.343923 360.26886 
L 201.544353 360.26886 
L 201.544353 359.565114 
L 204.634611 359.565114 
L 204.634611 358.15762 
L 204.883017 358.15762 
L 204.883017 356.750126 
L 207.747867 356.750126 
L 207.747867 355.342632 
L 208.331171 355.342632 
L 208.331171 354.638886 
L 209.26791 354.638886 
L 209.26791 353.935139 
L 210.71233 353.935139 
L 210.71233 353.231392 
L 211.308024 353.231392 
L 211.308024 351.120151 
L 211.458483 351.120151 
L 211.458483 350.416405 
L 212.326771 350.416405 
L 212.326771 349.008911 
L 214.368865 349.008911 
L 214.368865 347.601417 
L 214.954366 347.601417 
L 214.954366 346.89767 
L 216.301584 346.89767 
L 216.301584 346.193924 
L 216.55881 346.193924 
L 216.55881 344.78643 
L 217.908418 344.78643 
L 217.908418 343.378936 
L 219.587004 343.378936 
L 219.587004 342.675189 
L 220.149782 342.675189 
L 220.149782 341.971442 
L 221.32145 341.971442 
L 221.32364 340.563949 
L 224.113412 340.563949 
L 224.180458 337.045215 
L 224.559647 337.045215 
L 224.559647 336.341468 
L 225.270715 336.341468 
L 225.276236 334.933974 
L 227.91445 334.933974 
L 227.91445 334.230227 
L 228.56736 334.230227 
L 228.56736 333.52648 
L 230.440479 333.52648 
L 230.440479 332.822733 
L 230.880294 332.822733 
L 230.880294 332.118987 
L 231.328667 332.118987 
L 231.328667 330.711493 
L 235.06188 330.711493 
L 235.06188 330.007746 
L 235.338777 330.007746 
L 235.338777 329.303999 
L 241.201716 329.303999 
L 241.201716 328.600252 
L 242.921173 328.600252 
L 242.921173 327.192759 
L 251.795066 327.192759 
L 251.795066 326.489012 
L 253.694882 326.489012 
L 253.694882 325.785265 
L 253.968042 325.785265 
L 253.968042 325.081518 
L 254.661866 325.081518 
L 254.661866 324.377771 
L 254.942629 324.377771 
L 254.942629 323.674024 
L 255.714178 323.674024 
L 255.714178 322.970278 
L 256.485963 322.970278 
L 256.485963 322.266531 
L 256.626495 322.266531 
L 256.626495 321.562784 
L 257.624083 321.562784 
L 257.725628 320.15529 
L 258.057249 320.15529 
L 258.158176 318.747797 
L 258.568914 318.747797 
L 258.568914 318.04405 
L 260.482788 318.04405 
L 260.482788 317.340303 
L 262.304111 317.340303 
L 262.304111 316.636556 
L 266.012072 316.636556 
L 266.012072 315.932809 
L 267.229554 315.932809 
L 267.229554 315.229062 
L 267.391364 315.229062 
L 267.391364 314.525315 
L 267.689139 314.525315 
L 267.689139 313.821569 
L 269.040804 313.821569 
L 269.040804 313.117822 
L 269.556762 313.117822 
L 269.556762 311.710328 
L 271.519296 311.710328 
L 271.519296 311.006581 
L 271.930257 311.006581 
L 271.930257 310.302834 
L 274.99395 310.302834 
L 274.99395 309.599088 
L 275.594684 309.599088 
L 275.681189 307.487847 
L 276.024668 307.487847 
L 276.024668 306.7841 
L 276.23216 306.7841 
L 276.23216 306.080353 
L 278.363832 306.080353 
L 278.363832 305.376606 
L 278.668519 305.376606 
L 278.668519 304.67286 
L 281.825837 304.67286 
L 281.825837 303.969113 
L 281.940817 303.969113 
L 281.940817 303.265366 
L 283.857547 303.265366 
L 283.857547 302.561619 
L 286.404337 302.561619 
L 286.498356 301.154125 
L 289.951119 301.154125 
L 289.951119 300.450379 
L 290.212484 300.450379 
L 290.212484 299.746632 
L 291.14992 299.746632 
L 291.14992 299.042885 
L 291.464164 299.042885 
L 291.464164 298.339138 
L 293.098295 298.339138 
L 293.098295 297.635391 
L 293.28612 297.635391 
L 293.28612 296.931644 
L 293.472554 296.931644 
L 293.472554 296.227897 
L 298.854439 296.227897 
L 298.854439 295.524151 
L 299.836601 295.524151 
L 299.836601 294.820404 
L 300.865518 294.820404 
L 300.865518 294.116657 
L 301.13195 294.116657 
L 301.13195 293.41291 
L 301.415586 293.41291 
L 301.415586 292.709163 
L 301.913733 292.709163 
L 301.913733 292.005416 
L 303.40429 292.005416 
L 303.40429 291.30167 
L 304.015621 291.30167 
L 304.015621 290.597923 
L 306.848526 290.597923 
L 306.88677 289.190429 
L 308.50905 289.190429 
L 308.50905 288.486682 
L 308.679052 288.486682 
L 308.679052 287.079189 
L 308.897545 287.079189 
L 308.897545 286.375442 
L 309.989768 286.375442 
L 309.989768 285.671695 
L 316.369978 285.671695 
L 316.369978 284.967948 
L 318.483175 284.967948 
L 318.483175 284.264201 
L 320.395211 284.264201 
L 320.395211 283.560454 
L 323.849197 283.560454 
L 323.849197 282.856707 
L 327.51837 282.856707 
L 327.51837 282.152961 
L 331.245108 282.152961 
L 331.245108 281.449214 
L 338.555418 281.449214 
L 338.555418 280.745467 
L 339.781162 280.745467 
L 339.781162 280.04172 
L 343.413026 280.04172 
L 343.413026 279.337973 
L 420.36 279.337973 
L 420.36 279.337973 
" style="fill:none;stroke:#ff00ff;stroke-linecap:square;stroke-width:1.5;"/>
   </g>
   <g id="line2d_13">
    <defs>
     <path d="M -0 8.485281 
L 5.091169 0 
L 0 -8.485281 
L -5.091169 -0 
z
" id="m333ff59760" style="stroke:#ff00ff;stroke-linejoin:miter;stroke-width:1.5;"/>
    </defs>
    <g>
     <use style="fill:none;stroke:#ff00ff;stroke-linejoin:miter;stroke-width:1.5;" x="96.83432545765616" xlink:href="#m333ff59760" y="375.75129101145404"/>
     <use style="fill:none;stroke:#ff00ff;stroke-linejoin:miter;stroke-width:1.5;" x="257.6240829917174" xlink:href="#m333ff59760" y="321.56278392545136"/>
     <use style="fill:none;stroke:#ff00ff;stroke-linejoin:miter;stroke-width:1.5;" x="331.24510807504794" xlink:href="#m333ff59760" y="282.15296059017663"/>
     <use style="fill:none;stroke:#ff00ff;stroke-linejoin:miter;stroke-width:1.5;" x="343.41302620572776" xlink:href="#m333ff59760" y="279.3379732090856"/>
     <use style="fill:none;stroke:#ff00ff;stroke-linejoin:miter;stroke-width:1.5;" x="420.3599999999999" xlink:href="#m333ff59760" y="279.3379732090856"/>
    </g>
   </g>
   <g id="line2d_14">
    <path d="M -15676.38 743.810891 
" style="fill:none;stroke:#ff00ff;stroke-linecap:square;stroke-width:1.5;"/>
    <g>
     <use style="fill:none;stroke:#ff00ff;stroke-linejoin:miter;stroke-width:1.5;" x="-15676.379999999994" xlink:href="#m333ff59760" y="743.810891089109"/>
    </g>
   </g>
   <g id="line2d_15">
    <path clip-path="url(#p58dd1acc4e)" d="M 247.81839 327.192759 
" style="fill:none;stroke:#ff00ff;stroke-linecap:square;"/>
    <defs>
     <path d="M -12 12 
L 12 -12 
M -12 -12 
L 12 12 
" id="m544d2dcb30" style="stroke:#ff00ff;"/>
    </defs>
    <g clip-path="url(#p58dd1acc4e)">
     <use style="fill:#ff00ff;stroke:#ff00ff;" x="247.8183902744885" xlink:href="#m544d2dcb30" y="327.19275868763344"/>
    </g>
   </g>
   <g id="line2d_16">
    <defs>
     <path d="M 0 1.5 
C 0.397805 1.5 0.77937 1.341951 1.06066 1.06066 
C 1.341951 0.77937 1.5 0.397805 1.5 0 
C 1.5 -0.397805 1.341951 -0.77937 1.06066 -1.06066 
C 0.77937 -1.341951 0.397805 -1.5 0 -1.5 
C -0.397805 -1.5 -0.77937 -1.341951 -1.06066 -1.06066 
C -1.341951 -0.77937 -1.5 -0.397805 -1.5 0 
C -1.5 0.397805 -1.341951 0.77937 -1.06066 1.06066 
C -0.77937 1.341951 -0.397805 1.5 0 1.5 
z
" id="mbfdfe2bbb3" style="stroke:#ffa500;stroke-width:0.5;"/>
    </defs>
    <g>
     <use style="fill:#ffa500;stroke:#ffa500;stroke-width:0.5;" x="307.79495348500086" xlink:href="#mbfdfe2bbb3" y="314.5253154727237"/>
     <use style="fill:#ffa500;stroke:#ffa500;stroke-width:0.5;" x="307.79495348500086" xlink:href="#mbfdfe2bbb3" y="314.5253154727237"/>
    </g>
   </g>
   <g id="line2d_17">
    <path d="M -1 377.862532 
L 113.682573 377.862532 
L 113.682573 375.751291 
L 122.176579 375.751291 
L 122.176579 374.343797 
L 127.720116 374.343797 
L 127.720116 372.232557 
L 129.12 372.232557 
L 129.12 371.52881 
L 130.318126 371.52881 
L 130.318126 370.825063 
L 133.608994 370.825063 
L 133.608994 370.121316 
L 135.860704 370.121316 
L 135.860704 369.417569 
L 136.017778 369.417569 
L 136.017778 368.010076 
L 136.204844 368.010076 
L 136.204844 367.306329 
L 141.399603 367.306329 
L 141.399603 366.602582 
L 146.01032 366.602582 
L 146.01032 365.898835 
L 153.293223 365.898835 
L 153.293223 365.195088 
L 153.511537 365.195088 
L 153.511537 364.491341 
L 154.902023 364.491341 
L 154.902023 363.787595 
L 155.54672 363.787595 
L 155.54672 362.380101 
L 156.340453 362.380101 
L 156.340453 361.676354 
L 157.463069 361.676354 
L 157.463069 360.26886 
L 158.602319 360.26886 
L 158.602319 358.861367 
L 160.754012 358.861367 
L 160.754012 358.15762 
L 161.036488 358.15762 
L 161.036488 357.453873 
L 163.95 357.453873 
L 163.95 356.750126 
L 164.811339 356.750126 
L 164.811339 356.046379 
L 165.470783 356.046379 
L 165.470783 354.638886 
L 165.700522 354.638886 
L 165.700522 353.231392 
L 165.894408 353.231392 
L 165.894408 352.527645 
L 166.458136 352.527645 
L 166.458136 351.823898 
L 168.686816 351.823898 
L 168.686816 351.120151 
L 169.688644 351.120151 
L 169.688644 350.416405 
L 171.692536 350.416405 
L 171.692536 349.008911 
L 171.912521 349.008911 
L 171.912521 348.305164 
L 172.547448 348.305164 
L 172.547448 347.601417 
L 172.722091 347.601417 
L 172.722091 346.89767 
L 173.268445 346.89767 
L 173.268445 346.193924 
L 176.227086 346.193924 
L 176.227086 345.490177 
L 179.664176 345.490177 
L 179.664176 344.78643 
L 180.87159 344.78643 
L 180.87159 343.378936 
L 182.660613 343.378936 
L 182.660613 342.675189 
L 183.591647 342.675189 
L 183.591647 341.971442 
L 183.874696 341.971442 
L 183.874696 340.563949 
L 185.978797 340.563949 
L 185.978797 339.156455 
L 191.683691 339.156455 
L 191.683691 338.452708 
L 209.54315 338.452708 
L 209.54315 337.045215 
L 248.315915 337.045215 
L 248.388261 335.637721 
L 248.480687 335.637721 
L 248.576474 333.52648 
L 248.644709 333.52648 
L 248.644709 332.822733 
L 248.874015 332.822733 
L 248.874015 332.118987 
L 249.14843 332.118987 
L 249.14843 331.41524 
L 249.439671 331.41524 
L 249.439671 330.711493 
L 250.211002 330.711493 
L 250.211002 330.007746 
L 263.939547 330.007746 
L 264.010236 328.600252 
L 264.150293 328.600252 
L 264.150293 327.192759 
L 264.784922 327.192759 
L 264.784922 326.489012 
L 273.119773 326.489012 
L 273.159459 325.081518 
L 273.319725 325.081518 
L 273.395682 323.674024 
L 274.125766 323.674024 
L 274.125766 322.970278 
L 279.712353 322.970278 
L 279.769689 321.562784 
L 284.694516 321.562784 
L 284.694516 320.859037 
L 285.18625 320.859037 
L 285.18625 319.451543 
L 288.637242 319.451543 
L 288.637242 318.747797 
L 288.77749 318.747797 
L 288.77749 318.04405 
L 288.913717 318.04405 
L 288.913717 317.340303 
L 292.126582 317.340303 
L 292.126582 316.636556 
L 300.163038 316.636556 
L 300.163038 315.932809 
L 300.509963 315.932809 
L 300.509963 315.229062 
L 307.794953 315.229062 
L 307.794953 314.525315 
L 420.36 314.525315 
L 420.36 314.525315 
" style="fill:none;stroke:#ffa500;stroke-linecap:square;stroke-width:1.5;"/>
   </g>
   <g id="line2d_18">
    <defs>
     <path d="M 0 -6 
L -1.347084 -1.854102 
L -5.706339 -1.854102 
L -2.179628 0.708204 
L -3.526712 4.854102 
L -0 2.291796 
L 3.526712 4.854102 
L 2.179628 0.708204 
L 5.706339 -1.854102 
L 1.347084 -1.854102 
z
" id="m38fae72eca" style="stroke:#ffa500;stroke-linejoin:bevel;stroke-width:1.5;"/>
    </defs>
    <g>
     <use style="fill:none;stroke:#ffa500;stroke-linejoin:bevel;stroke-width:1.5;" x="185.97879745349297" xlink:href="#m38fae72eca" y="340.5639487478159"/>
     <use style="fill:none;stroke:#ffa500;stroke-linejoin:bevel;stroke-width:1.5;" x="300.5099630195468" xlink:href="#m38fae72eca" y="315.22906231799647"/>
     <use style="fill:none;stroke:#ffa500;stroke-linejoin:bevel;stroke-width:1.5;" x="307.79495348500086" xlink:href="#m38fae72eca" y="314.5253154727237"/>
     <use style="fill:none;stroke:#ffa500;stroke-linejoin:bevel;stroke-width:1.5;" x="307.79495348500086" xlink:href="#m38fae72eca" y="314.5253154727237"/>
     <use style="fill:none;stroke:#ffa500;stroke-linejoin:bevel;stroke-width:1.5;" x="420.3599999999999" xlink:href="#m38fae72eca" y="314.5253154727237"/>
    </g>
   </g>
   <g id="line2d_19">
    <path d="M -15676.38 743.810891 
" style="fill:none;stroke:#ffa500;stroke-linecap:square;stroke-width:1.5;"/>
    <g>
     <use style="fill:none;stroke:#ffa500;stroke-linejoin:bevel;stroke-width:1.5;" x="-15676.379999999994" xlink:href="#m38fae72eca" y="743.810891089109"/>
    </g>
   </g>
   <g id="line2d_20">
    <path clip-path="url(#p58dd1acc4e)" d="M 247.831564 337.045215 
" style="fill:none;stroke:#ffa500;stroke-linecap:square;"/>
    <defs>
     <path d="M -12 12 
L 12 -12 
M -12 -12 
L 12 12 
" id="m01fd93e461" style="stroke:#ffa500;"/>
    </defs>
    <g clip-path="url(#p58dd1acc4e)">
     <use style="fill:#ffa500;stroke:#ffa500;" x="247.83156398113786" xlink:href="#m01fd93e461" y="337.0452145214521"/>
    </g>
   </g>
   <g id="line2d_21">
    <defs>
     <path d="M 0 1.5 
C 0.397805 1.5 0.77937 1.341951 1.06066 1.06066 
C 1.341951 0.77937 1.5 0.397805 1.5 0 
C 1.5 -0.397805 1.341951 -0.77937 1.06066 -1.06066 
C 0.77937 -1.341951 0.397805 -1.5 0 -1.5 
C -0.397805 -1.5 -0.77937 -1.341951 -1.06066 -1.06066 
C -1.341951 -0.77937 -1.5 -0.397805 -1.5 0 
C -1.5 0.397805 -1.341951 0.77937 -1.06066 1.06066 
C -0.77937 1.341951 -0.397805 1.5 0 1.5 
z
" id="m9edab995fc" style="stroke:#6495ed;stroke-width:0.5;"/>
    </defs>
    <g>
     <use style="fill:#6495ed;stroke:#6495ed;stroke-width:0.5;" x="345.2417933340559" xlink:href="#m9edab995fc" y="300.45037856726844"/>
     <use style="fill:#6495ed;stroke:#6495ed;stroke-width:0.5;" x="345.2417933340559" xlink:href="#m9edab995fc" y="300.45037856726844"/>
    </g>
   </g>
   <g id="line2d_22">
    <path d="M -1 377.862532 
L 104.521505 377.862532 
L 104.521505 377.158785 
L 111.485777 377.158785 
L 111.485777 375.751291 
L 122.576288 375.751291 
L 122.576288 374.343797 
L 123.842154 374.343797 
L 123.842154 372.936304 
L 128.864014 372.936304 
L 128.864014 372.232557 
L 136.543843 372.232557 
L 136.543843 371.52881 
L 139.574627 371.52881 
L 139.574627 370.825063 
L 141.424287 370.825063 
L 141.424287 370.121316 
L 145.042585 370.121316 
L 145.042585 369.417569 
L 145.726348 369.417569 
L 145.726348 368.713823 
L 147.417135 368.713823 
L 147.417135 368.010076 
L 149.166738 368.010076 
L 149.166738 365.898835 
L 150.329196 365.898835 
L 150.329196 365.195088 
L 150.478684 365.195088 
L 150.478684 364.491341 
L 150.986179 364.491341 
L 150.986179 362.380101 
L 155.360568 362.380101 
L 155.360568 360.972607 
L 159.128587 360.972607 
L 159.128587 360.26886 
L 159.77521 360.26886 
L 159.77521 358.861367 
L 161.417962 358.861367 
L 161.417962 358.15762 
L 162.241213 358.15762 
L 162.241213 357.453873 
L 163.253571 357.453873 
L 163.253571 356.750126 
L 163.562636 356.750126 
L 163.562636 356.046379 
L 164.855318 356.046379 
L 164.855318 355.342632 
L 165.919576 355.342632 
L 165.919576 354.638886 
L 166.783316 354.638886 
L 166.783316 353.231392 
L 167.568653 353.231392 
L 167.568653 352.527645 
L 167.878411 352.527645 
L 167.878411 351.120151 
L 168.820024 351.120151 
L 168.820024 350.416405 
L 169.603263 350.416405 
L 169.603263 349.008911 
L 170.054963 349.008911 
L 170.054963 348.305164 
L 170.797395 348.305164 
L 170.797395 347.601417 
L 171.542504 347.601417 
L 171.542504 346.89767 
L 172.453334 346.89767 
L 172.453334 345.490177 
L 173.322969 345.490177 
L 173.322969 344.78643 
L 173.83156 344.78643 
L 173.902452 343.378936 
L 174.645165 343.378936 
L 174.645165 342.675189 
L 176.659526 342.675189 
L 176.659526 341.971442 
L 176.914057 341.971442 
L 176.914057 341.267696 
L 177.429866 341.267696 
L 177.429866 340.563949 
L 179.636703 340.563949 
L 179.636703 339.860202 
L 180.570209 339.860202 
L 180.570209 339.156455 
L 181.835765 339.156455 
L 181.835765 338.452708 
L 183.336185 338.452708 
L 183.340077 336.341468 
L 184.23297 336.341468 
L 184.29649 334.933974 
L 184.940242 334.933974 
L 184.940242 334.230227 
L 186.654643 334.230227 
L 186.654643 333.52648 
L 191.008155 333.52648 
L 191.008155 332.118987 
L 234.844424 332.118987 
L 234.844424 330.007746 
L 248.614895 330.007746 
L 248.614895 329.303999 
L 249.127636 329.303999 
L 249.218814 325.785265 
L 257.993053 325.785265 
L 257.993053 324.377771 
L 263.974362 324.377771 
L 263.974362 322.970278 
L 264.184676 322.970278 
L 264.272881 320.859037 
L 273.037352 320.859037 
L 273.037352 320.15529 
L 279.613653 320.15529 
L 279.67643 317.340303 
L 284.617189 317.340303 
L 284.617189 316.636556 
L 288.672724 316.636556 
L 288.744456 314.525315 
L 292.18402 314.525315 
L 292.18402 313.821569 
L 295.192842 313.821569 
L 295.192842 313.117822 
L 302.395272 313.117822 
L 302.395272 311.710328 
L 306.167164 311.710328 
L 306.167164 310.302834 
L 307.841436 310.302834 
L 307.841436 309.599088 
L 309.388586 309.599088 
L 309.400644 308.191594 
L 310.85959 308.191594 
L 310.85959 306.7841 
L 312.230395 306.7841 
L 312.230395 306.080353 
L 317.010649 306.080353 
L 317.010649 305.376606 
L 318.063456 305.376606 
L 318.063456 304.67286 
L 331.029936 304.67286 
L 331.029936 303.969113 
L 332.709379 303.969113 
L 332.709379 303.265366 
L 333.759595 303.265366 
L 333.759595 302.561619 
L 339.628604 302.561619 
L 339.628604 301.857872 
L 345.241793 301.857872 
L 345.241793 300.450379 
L 420.36 300.450379 
L 420.36 300.450379 
" style="fill:none;stroke:#6495ed;stroke-linecap:square;stroke-width:1.5;"/>
   </g>
   <g id="line2d_23">
    <defs>
     <path d="M -0 6 
L 6 -6 
L -6 -6 
z
" id="me77af2c158" style="stroke:#6495ed;stroke-linejoin:miter;stroke-width:1.5;"/>
    </defs>
    <g>
     <use style="fill:none;stroke:#6495ed;stroke-linejoin:miter;stroke-width:1.5;" x="111.48577663477602" xlink:href="#me77af2c158" y="375.75129101145404"/>
     <use style="fill:none;stroke:#6495ed;stroke-linejoin:miter;stroke-width:1.5;" x="191.00815505599715" xlink:href="#me77af2c158" y="333.52648029508833"/>
     <use style="fill:none;stroke:#6495ed;stroke-linejoin:miter;stroke-width:1.5;" x="295.1928422333792" xlink:href="#me77af2c158" y="313.11782178217817"/>
     <use style="fill:none;stroke:#6495ed;stroke-linejoin:miter;stroke-width:1.5;" x="345.2417933340559" xlink:href="#me77af2c158" y="300.45037856726844"/>
     <use style="fill:none;stroke:#6495ed;stroke-linejoin:miter;stroke-width:1.5;" x="345.2417933340559" xlink:href="#me77af2c158" y="300.45037856726844"/>
     <use style="fill:none;stroke:#6495ed;stroke-linejoin:miter;stroke-width:1.5;" x="420.3599999999999" xlink:href="#me77af2c158" y="300.45037856726844"/>
    </g>
   </g>
   <g id="line2d_24">
    <path d="M -15676.38 743.810891 
" style="fill:none;stroke:#6495ed;stroke-linecap:square;stroke-width:1.5;"/>
    <g>
     <use style="fill:none;stroke:#6495ed;stroke-linejoin:miter;stroke-width:1.5;" x="-15676.379999999994" xlink:href="#me77af2c158" y="743.810891089109"/>
    </g>
   </g>
   <g id="line2d_25">
    <path clip-path="url(#p58dd1acc4e)" d="M 247.841099 330.007746 
" style="fill:none;stroke:#6495ed;stroke-linecap:square;"/>
    <defs>
     <path d="M -12 12 
L 12 -12 
M -12 -12 
L 12 12 
" id="md6627dca27" style="stroke:#6495ed;"/>
    </defs>
    <g clip-path="url(#p58dd1acc4e)">
     <use style="fill:#6495ed;stroke:#6495ed;" x="247.8410987908953" xlink:href="#md6627dca27" y="330.0077460687245"/>
    </g>
   </g>
   <g id="line2d_26">
    <path d="M 420.36 314.525315 
L 460.60185 377.721782 
" style="fill:none;stroke:#ffa500;stroke-linecap:square;stroke-width:1.5;"/>
    <g>
     <use style="fill:none;stroke:#ffa500;stroke-linejoin:bevel;stroke-width:1.5;" x="420.3599999999999" xlink:href="#m38fae72eca" y="314.5253154727237"/>
     <use style="fill:none;stroke:#ffa500;stroke-linejoin:bevel;stroke-width:1.5;" x="460.60184999999996" xlink:href="#m38fae72eca" y="377.7217821782178"/>
    </g>
   </g>
   <g id="line2d_27">
    <path d="M 420.36 300.450379 
L 460.60185 291.583168 
" style="fill:none;stroke:#6495ed;stroke-linecap:square;stroke-width:1.5;"/>
    <g>
     <use style="fill:none;stroke:#6495ed;stroke-linejoin:miter;stroke-width:1.5;" x="420.3599999999999" xlink:href="#me77af2c158" y="300.45037856726844"/>
     <use style="fill:none;stroke:#6495ed;stroke-linejoin:miter;stroke-width:1.5;" x="460.60184999999996" xlink:href="#me77af2c158" y="291.58316831683163"/>
    </g>
   </g>
   <g id="line2d_28">
    <path d="M 420.36 279.337973 
L 460.60185 205.444554 
" style="fill:none;stroke:#ff00ff;stroke-linecap:square;stroke-width:1.5;"/>
    <g>
     <use style="fill:none;stroke:#ff00ff;stroke-linejoin:miter;stroke-width:1.5;" x="420.3599999999999" xlink:href="#m333ff59760" y="279.3379732090856"/>
     <use style="fill:none;stroke:#ff00ff;stroke-linejoin:miter;stroke-width:1.5;" x="460.60184999999996" xlink:href="#m333ff59760" y="205.4445544554455"/>
    </g>
   </g>
   <g id="line2d_29">
    <path d="M 420.36 279.337973 
L 460.60185 119.305941 
" style="fill:none;stroke:#000080;stroke-linecap:square;stroke-width:1.5;"/>
    <g>
     <use style="fill:none;stroke:#000080;stroke-width:1.5;" x="420.3599999999999" xlink:href="#m7eadd1c81f" y="279.3379732090856"/>
     <use style="fill:none;stroke:#000080;stroke-width:1.5;" x="460.60184999999996" xlink:href="#m7eadd1c81f" y="119.3059405940594"/>
    </g>
   </g>
   <g id="line2d_30">
    <path d="M 420.36 384.9 
L 420.36 25.989109 
" style="fill:none;stroke:#000000;stroke-linecap:square;"/>
   </g>
   <g id="patch_3">
    <path d="M 54.525 22.4 
L 420.36 22.4 
" style="fill:none;stroke:#000000;stroke-linecap:square;stroke-linejoin:miter;"/>
   </g>
   <g id="patch_4">
    <path d="M 420.36 384.9 
L 420.36 22.4 
" style="fill:none;stroke:#000000;stroke-linecap:square;stroke-linejoin:miter;"/>
   </g>
   <g id="patch_5">
    <path d="M 54.525 384.9 
L 54.525 22.4 
" style="fill:none;stroke:#000000;stroke-linecap:square;stroke-linejoin:miter;"/>
   </g>
   <g id="patch_6">
    <path d="M 54.525 384.9 
L 420.36 384.9 
" style="fill:none;stroke:#000000;stroke-linecap:square;stroke-linejoin:miter;"/>
   </g>
   <g id="matplotlib.axis_1">
    <g id="xtick_1">
     <g id="line2d_31">
      <path clip-path="url(#p58dd1acc4e)" d="M 54.525 384.9 
L 54.525 22.4 
" style="fill:none;stroke:#000000;stroke-dasharray:1.000000,3.000000;stroke-dashoffset:0.0;stroke-width:0.5;"/>
     </g>
     <g id="line2d_32">
      <defs>
       <path d="M 0 0 
L 0 -4 
" id="mf72b1a76aa" style="stroke:#000000;stroke-width:0.5;"/>
      </defs>
      <g>
       <use style="stroke:#000000;stroke-width:0.5;" x="54.52500000000001" xlink:href="#mf72b1a76aa" y="384.9"/>
      </g>
     </g>
     <g id="line2d_33">
      <defs>
       <path d="M 0 0 
L 0 4 
" id="m691408dcf4" style="stroke:#000000;stroke-width:0.5;"/>
      </defs>
      <g>
       <use style="stroke:#000000;stroke-width:0.5;" x="54.52500000000001" xlink:href="#m691408dcf4" y="22.399999999999977"/>
      </g>
     </g>
     <g id="text_1">
      <!-- 0 -->
      <defs>
       <path d="M 31.78125 66.40625 
Q 24.171875 66.40625 20.328125 58.90625 
Q 16.5 51.421875 16.5 36.375 
Q 16.5 21.390625 20.328125 13.890625 
Q 24.171875 6.390625 31.78125 6.390625 
Q 39.453125 6.390625 43.28125 13.890625 
Q 47.125 21.390625 47.125 36.375 
Q 47.125 51.421875 43.28125 58.90625 
Q 39.453125 66.40625 31.78125 66.40625 
M 31.78125 74.21875 
Q 44.046875 74.21875 50.515625 64.515625 
Q 56.984375 54.828125 56.984375 36.375 
Q 56.984375 17.96875 50.515625 8.265625 
Q 44.046875 -1.421875 31.78125 -1.421875 
Q 19.53125 -1.421875 13.0625 8.265625 
Q 6.59375 17.96875 6.59375 36.375 
Q 6.59375 54.828125 13.0625 64.515625 
Q 19.53125 74.21875 31.78125 74.21875 
" id="BitstreamVeraSans-Roman-30"/>
      </defs>
      <g transform="translate(48.16250000000001 404.09687499999995)scale(0.2 -0.2)">
       <use xlink:href="#BitstreamVeraSans-Roman-30"/>
      </g>
     </g>
    </g>
    <g id="xtick_2">
     <g id="line2d_34">
      <path clip-path="url(#p58dd1acc4e)" d="M 159.049286 384.9 
L 159.049286 22.4 
" style="fill:none;stroke:#000000;stroke-dasharray:1.000000,3.000000;stroke-dashoffset:0.0;stroke-width:0.5;"/>
     </g>
     <g id="line2d_35">
      <g>
       <use style="stroke:#000000;stroke-width:0.5;" x="159.0492857142857" xlink:href="#mf72b1a76aa" y="384.9"/>
      </g>
     </g>
     <g id="line2d_36">
      <g>
       <use style="stroke:#000000;stroke-width:0.5;" x="159.0492857142857" xlink:href="#m691408dcf4" y="22.399999999999977"/>
      </g>
     </g>
     <g id="text_2">
      <!-- 2 -->
      <defs>
       <path d="M 19.1875 8.296875 
L 53.609375 8.296875 
L 53.609375 0 
L 7.328125 0 
L 7.328125 8.296875 
Q 12.9375 14.109375 22.625 23.890625 
Q 32.328125 33.6875 34.8125 36.53125 
Q 39.546875 41.84375 41.421875 45.53125 
Q 43.3125 49.21875 43.3125 52.78125 
Q 43.3125 58.59375 39.234375 62.25 
Q 35.15625 65.921875 28.609375 65.921875 
Q 23.96875 65.921875 18.8125 64.3125 
Q 13.671875 62.703125 7.8125 59.421875 
L 7.8125 69.390625 
Q 13.765625 71.78125 18.9375 73 
Q 24.125 74.21875 28.421875 74.21875 
Q 39.75 74.21875 46.484375 68.546875 
Q 53.21875 62.890625 53.21875 53.421875 
Q 53.21875 48.921875 51.53125 44.890625 
Q 49.859375 40.875 45.40625 35.40625 
Q 44.1875 33.984375 37.640625 27.21875 
Q 31.109375 20.453125 19.1875 8.296875 
" id="BitstreamVeraSans-Roman-32"/>
      </defs>
      <g transform="translate(152.6867857142857 404.09687499999995)scale(0.2 -0.2)">
       <use xlink:href="#BitstreamVeraSans-Roman-32"/>
      </g>
     </g>
    </g>
    <g id="xtick_3">
     <g id="line2d_37">
      <path clip-path="url(#p58dd1acc4e)" d="M 263.573571 384.9 
L 263.573571 22.4 
" style="fill:none;stroke:#000000;stroke-dasharray:1.000000,3.000000;stroke-dashoffset:0.0;stroke-width:0.5;"/>
     </g>
     <g id="line2d_38">
      <g>
       <use style="stroke:#000000;stroke-width:0.5;" x="263.57357142857137" xlink:href="#mf72b1a76aa" y="384.9"/>
      </g>
     </g>
     <g id="line2d_39">
      <g>
       <use style="stroke:#000000;stroke-width:0.5;" x="263.57357142857137" xlink:href="#m691408dcf4" y="22.399999999999977"/>
      </g>
     </g>
     <g id="text_3">
      <!-- 4 -->
      <defs>
       <path d="M 37.796875 64.3125 
L 12.890625 25.390625 
L 37.796875 25.390625 
z
M 35.203125 72.90625 
L 47.609375 72.90625 
L 47.609375 25.390625 
L 58.015625 25.390625 
L 58.015625 17.1875 
L 47.609375 17.1875 
L 47.609375 0 
L 37.796875 0 
L 37.796875 17.1875 
L 4.890625 17.1875 
L 4.890625 26.703125 
z
" id="BitstreamVeraSans-Roman-34"/>
      </defs>
      <g transform="translate(257.21107142857136 404.09687499999995)scale(0.2 -0.2)">
       <use xlink:href="#BitstreamVeraSans-Roman-34"/>
      </g>
     </g>
    </g>
    <g id="xtick_4">
     <g id="line2d_40">
      <path clip-path="url(#p58dd1acc4e)" d="M 368.097857 384.9 
L 368.097857 22.4 
" style="fill:none;stroke:#000000;stroke-dasharray:1.000000,3.000000;stroke-dashoffset:0.0;stroke-width:0.5;"/>
     </g>
     <g id="line2d_41">
      <g>
       <use style="stroke:#000000;stroke-width:0.5;" x="368.09785714285704" xlink:href="#mf72b1a76aa" y="384.9"/>
      </g>
     </g>
     <g id="line2d_42">
      <g>
       <use style="stroke:#000000;stroke-width:0.5;" x="368.09785714285704" xlink:href="#m691408dcf4" y="22.399999999999977"/>
      </g>
     </g>
     <g id="text_4">
      <!-- 6 -->
      <defs>
       <path d="M 33.015625 40.375 
Q 26.375 40.375 22.484375 35.828125 
Q 18.609375 31.296875 18.609375 23.390625 
Q 18.609375 15.53125 22.484375 10.953125 
Q 26.375 6.390625 33.015625 6.390625 
Q 39.65625 6.390625 43.53125 10.953125 
Q 47.40625 15.53125 47.40625 23.390625 
Q 47.40625 31.296875 43.53125 35.828125 
Q 39.65625 40.375 33.015625 40.375 
M 52.59375 71.296875 
L 52.59375 62.3125 
Q 48.875 64.0625 45.09375 64.984375 
Q 41.3125 65.921875 37.59375 65.921875 
Q 27.828125 65.921875 22.671875 59.328125 
Q 17.53125 52.734375 16.796875 39.40625 
Q 19.671875 43.65625 24.015625 45.921875 
Q 28.375 48.1875 33.59375 48.1875 
Q 44.578125 48.1875 50.953125 41.515625 
Q 57.328125 34.859375 57.328125 23.390625 
Q 57.328125 12.15625 50.6875 5.359375 
Q 44.046875 -1.421875 33.015625 -1.421875 
Q 20.359375 -1.421875 13.671875 8.265625 
Q 6.984375 17.96875 6.984375 36.375 
Q 6.984375 53.65625 15.1875 63.9375 
Q 23.390625 74.21875 37.203125 74.21875 
Q 40.921875 74.21875 44.703125 73.484375 
Q 48.484375 72.75 52.59375 71.296875 
" id="BitstreamVeraSans-Roman-36"/>
      </defs>
      <g transform="translate(361.735357142857 404.09687499999995)scale(0.2 -0.2)">
       <use xlink:href="#BitstreamVeraSans-Roman-36"/>
      </g>
     </g>
    </g>
    <g id="xtick_5">
     <g id="line2d_43">
      <path clip-path="url(#p58dd1acc4e)" d="M 54.525 384.9 
L 54.525 22.4 
" style="fill:none;stroke:#000000;stroke-dasharray:1.000000,3.000000;stroke-dashoffset:0.0;stroke-width:0.5;"/>
     </g>
     <g id="line2d_44">
      <defs>
       <path d="M 0 0 
L 0 -2 
" id="me042e8946d" style="stroke:#000000;stroke-width:0.5;"/>
      </defs>
      <g>
       <use style="stroke:#000000;stroke-width:0.5;" x="54.52500000000001" xlink:href="#me042e8946d" y="384.9"/>
      </g>
     </g>
     <g id="line2d_45">
      <defs>
       <path d="M 0 0 
L 0 2 
" id="m9d374c367f" style="stroke:#000000;stroke-width:0.5;"/>
      </defs>
      <g>
       <use style="stroke:#000000;stroke-width:0.5;" x="54.52500000000001" xlink:href="#m9d374c367f" y="22.399999999999977"/>
      </g>
     </g>
    </g>
    <g id="xtick_6">
     <g id="line2d_46">
      <path clip-path="url(#p58dd1acc4e)" d="M 106.787143 384.9 
L 106.787143 22.4 
" style="fill:none;stroke:#000000;stroke-dasharray:1.000000,3.000000;stroke-dashoffset:0.0;stroke-width:0.5;"/>
     </g>
     <g id="line2d_47">
      <g>
       <use style="stroke:#000000;stroke-width:0.5;" x="106.78714285714285" xlink:href="#me042e8946d" y="384.9"/>
      </g>
     </g>
     <g id="line2d_48">
      <g>
       <use style="stroke:#000000;stroke-width:0.5;" x="106.78714285714285" xlink:href="#m9d374c367f" y="22.399999999999977"/>
      </g>
     </g>
    </g>
    <g id="xtick_7">
     <g id="line2d_49">
      <path clip-path="url(#p58dd1acc4e)" d="M 159.049286 384.9 
L 159.049286 22.4 
" style="fill:none;stroke:#000000;stroke-dasharray:1.000000,3.000000;stroke-dashoffset:0.0;stroke-width:0.5;"/>
     </g>
     <g id="line2d_50">
      <g>
       <use style="stroke:#000000;stroke-width:0.5;" x="159.0492857142857" xlink:href="#me042e8946d" y="384.9"/>
      </g>
     </g>
     <g id="line2d_51">
      <g>
       <use style="stroke:#000000;stroke-width:0.5;" x="159.0492857142857" xlink:href="#m9d374c367f" y="22.399999999999977"/>
      </g>
     </g>
    </g>
    <g id="xtick_8">
     <g id="line2d_52">
      <path clip-path="url(#p58dd1acc4e)" d="M 211.311429 384.9 
L 211.311429 22.4 
" style="fill:none;stroke:#000000;stroke-dasharray:1.000000,3.000000;stroke-dashoffset:0.0;stroke-width:0.5;"/>
     </g>
     <g id="line2d_53">
      <g>
       <use style="stroke:#000000;stroke-width:0.5;" x="211.31142857142854" xlink:href="#me042e8946d" y="384.9"/>
      </g>
     </g>
     <g id="line2d_54">
      <g>
       <use style="stroke:#000000;stroke-width:0.5;" x="211.31142857142854" xlink:href="#m9d374c367f" y="22.399999999999977"/>
      </g>
     </g>
    </g>
    <g id="xtick_9">
     <g id="line2d_55">
      <path clip-path="url(#p58dd1acc4e)" d="M 263.573571 384.9 
L 263.573571 22.4 
" style="fill:none;stroke:#000000;stroke-dasharray:1.000000,3.000000;stroke-dashoffset:0.0;stroke-width:0.5;"/>
     </g>
     <g id="line2d_56">
      <g>
       <use style="stroke:#000000;stroke-width:0.5;" x="263.57357142857137" xlink:href="#me042e8946d" y="384.9"/>
      </g>
     </g>
     <g id="line2d_57">
      <g>
       <use style="stroke:#000000;stroke-width:0.5;" x="263.57357142857137" xlink:href="#m9d374c367f" y="22.399999999999977"/>
      </g>
     </g>
    </g>
    <g id="xtick_10">
     <g id="line2d_58">
      <path clip-path="url(#p58dd1acc4e)" d="M 315.835714 384.9 
L 315.835714 22.4 
" style="fill:none;stroke:#000000;stroke-dasharray:1.000000,3.000000;stroke-dashoffset:0.0;stroke-width:0.5;"/>
     </g>
     <g id="line2d_59">
      <g>
       <use style="stroke:#000000;stroke-width:0.5;" x="315.83571428571423" xlink:href="#me042e8946d" y="384.9"/>
      </g>
     </g>
     <g id="line2d_60">
      <g>
       <use style="stroke:#000000;stroke-width:0.5;" x="315.83571428571423" xlink:href="#m9d374c367f" y="22.399999999999977"/>
      </g>
     </g>
    </g>
    <g id="xtick_11">
     <g id="line2d_61">
      <path clip-path="url(#p58dd1acc4e)" d="M 368.097857 384.9 
L 368.097857 22.4 
" style="fill:none;stroke:#000000;stroke-dasharray:1.000000,3.000000;stroke-dashoffset:0.0;stroke-width:0.5;"/>
     </g>
     <g id="line2d_62">
      <g>
       <use style="stroke:#000000;stroke-width:0.5;" x="368.09785714285704" xlink:href="#me042e8946d" y="384.9"/>
      </g>
     </g>
     <g id="line2d_63">
      <g>
       <use style="stroke:#000000;stroke-width:0.5;" x="368.09785714285704" xlink:href="#m9d374c367f" y="22.399999999999977"/>
      </g>
     </g>
    </g>
    <g id="xtick_12">
     <g id="line2d_64">
      <path clip-path="url(#p58dd1acc4e)" d="M 420.36 384.9 
L 420.36 22.4 
" style="fill:none;stroke:#000000;stroke-dasharray:1.000000,3.000000;stroke-dashoffset:0.0;stroke-width:0.5;"/>
     </g>
     <g id="line2d_65">
      <g>
       <use style="stroke:#000000;stroke-width:0.5;" x="420.3599999999999" xlink:href="#me042e8946d" y="384.9"/>
      </g>
     </g>
     <g id="line2d_66">
      <g>
       <use style="stroke:#000000;stroke-width:0.5;" x="420.3599999999999" xlink:href="#m9d374c367f" y="22.399999999999977"/>
      </g>
     </g>
    </g>
    <g id="text_5">
     <!-- log10(# f-evals / dimension) -->
     <defs>
      <path id="BitstreamVeraSans-Roman-20"/>
      <path d="M 31 75.875 
Q 24.46875 64.65625 21.28125 53.65625 
Q 18.109375 42.671875 18.109375 31.390625 
Q 18.109375 20.125 21.3125 9.0625 
Q 24.515625 -2 31 -13.1875 
L 23.1875 -13.1875 
Q 15.875 -1.703125 12.234375 9.375 
Q 8.59375 20.453125 8.59375 31.390625 
Q 8.59375 42.28125 12.203125 53.3125 
Q 15.828125 64.359375 23.1875 75.875 
z
" id="BitstreamVeraSans-Roman-28"/>
      <path d="M 37.109375 75.984375 
L 37.109375 68.5 
L 28.515625 68.5 
Q 23.6875 68.5 21.796875 66.546875 
Q 19.921875 64.59375 19.921875 59.515625 
L 19.921875 54.6875 
L 34.71875 54.6875 
L 34.71875 47.703125 
L 19.921875 47.703125 
L 19.921875 0 
L 10.890625 0 
L 10.890625 47.703125 
L 2.296875 47.703125 
L 2.296875 54.6875 
L 10.890625 54.6875 
L 10.890625 58.5 
Q 10.890625 67.625 15.140625 71.796875 
Q 19.390625 75.984375 28.609375 75.984375 
z
" id="BitstreamVeraSans-Roman-66"/>
      <path d="M 9.421875 75.984375 
L 18.40625 75.984375 
L 18.40625 0 
L 9.421875 0 
z
" id="BitstreamVeraSans-Roman-6c"/>
      <path d="M 2.984375 54.6875 
L 12.5 54.6875 
L 29.59375 8.796875 
L 46.6875 54.6875 
L 56.203125 54.6875 
L 35.6875 0 
L 23.484375 0 
z
" id="BitstreamVeraSans-Roman-76"/>
      <path d="M 12.40625 8.296875 
L 28.515625 8.296875 
L 28.515625 63.921875 
L 10.984375 60.40625 
L 10.984375 69.390625 
L 28.421875 72.90625 
L 38.28125 72.90625 
L 38.28125 8.296875 
L 54.390625 8.296875 
L 54.390625 0 
L 12.40625 0 
z
" id="BitstreamVeraSans-Roman-31"/>
      <path d="M 45.40625 27.984375 
Q 45.40625 37.75 41.375 43.109375 
Q 37.359375 48.484375 30.078125 48.484375 
Q 22.859375 48.484375 18.828125 43.109375 
Q 14.796875 37.75 14.796875 27.984375 
Q 14.796875 18.265625 18.828125 12.890625 
Q 22.859375 7.515625 30.078125 7.515625 
Q 37.359375 7.515625 41.375 12.890625 
Q 45.40625 18.265625 45.40625 27.984375 
M 54.390625 6.78125 
Q 54.390625 -7.171875 48.1875 -13.984375 
Q 42 -20.796875 29.203125 -20.796875 
Q 24.46875 -20.796875 20.265625 -20.09375 
Q 16.0625 -19.390625 12.109375 -17.921875 
L 12.109375 -9.1875 
Q 16.0625 -11.328125 19.921875 -12.34375 
Q 23.78125 -13.375 27.78125 -13.375 
Q 36.625 -13.375 41.015625 -8.765625 
Q 45.40625 -4.15625 45.40625 5.171875 
L 45.40625 9.625 
Q 42.625 4.78125 38.28125 2.390625 
Q 33.9375 0 27.875 0 
Q 17.828125 0 11.671875 7.65625 
Q 5.515625 15.328125 5.515625 27.984375 
Q 5.515625 40.671875 11.671875 48.328125 
Q 17.828125 56 27.875 56 
Q 33.9375 56 38.28125 53.609375 
Q 42.625 51.21875 45.40625 46.390625 
L 45.40625 54.6875 
L 54.390625 54.6875 
z
" id="BitstreamVeraSans-Roman-67"/>
      <path d="M 54.890625 33.015625 
L 54.890625 0 
L 45.90625 0 
L 45.90625 32.71875 
Q 45.90625 40.484375 42.875 44.328125 
Q 39.84375 48.1875 33.796875 48.1875 
Q 26.515625 48.1875 22.3125 43.546875 
Q 18.109375 38.921875 18.109375 30.90625 
L 18.109375 0 
L 9.078125 0 
L 9.078125 54.6875 
L 18.109375 54.6875 
L 18.109375 46.1875 
Q 21.34375 51.125 25.703125 53.5625 
Q 30.078125 56 35.796875 56 
Q 45.21875 56 50.046875 50.171875 
Q 54.890625 44.34375 54.890625 33.015625 
" id="BitstreamVeraSans-Roman-6e"/>
      <path d="M 4.890625 31.390625 
L 31.203125 31.390625 
L 31.203125 23.390625 
L 4.890625 23.390625 
z
" id="BitstreamVeraSans-Roman-2d"/>
      <path d="M 45.40625 46.390625 
L 45.40625 75.984375 
L 54.390625 75.984375 
L 54.390625 0 
L 45.40625 0 
L 45.40625 8.203125 
Q 42.578125 3.328125 38.25 0.953125 
Q 33.9375 -1.421875 27.875 -1.421875 
Q 17.96875 -1.421875 11.734375 6.484375 
Q 5.515625 14.40625 5.515625 27.296875 
Q 5.515625 40.1875 11.734375 48.09375 
Q 17.96875 56 27.875 56 
Q 33.9375 56 38.25 53.625 
Q 42.578125 51.265625 45.40625 46.390625 
M 14.796875 27.296875 
Q 14.796875 17.390625 18.875 11.75 
Q 22.953125 6.109375 30.078125 6.109375 
Q 37.203125 6.109375 41.296875 11.75 
Q 45.40625 17.390625 45.40625 27.296875 
Q 45.40625 37.203125 41.296875 42.84375 
Q 37.203125 48.484375 30.078125 48.484375 
Q 22.953125 48.484375 18.875 42.84375 
Q 14.796875 37.203125 14.796875 27.296875 
" id="BitstreamVeraSans-Roman-64"/>
      <path d="M 44.28125 53.078125 
L 44.28125 44.578125 
Q 40.484375 46.53125 36.375 47.5 
Q 32.28125 48.484375 27.875 48.484375 
Q 21.1875 48.484375 17.84375 46.4375 
Q 14.5 44.390625 14.5 40.28125 
Q 14.5 37.15625 16.890625 35.375 
Q 19.28125 33.59375 26.515625 31.984375 
L 29.59375 31.296875 
Q 39.15625 29.25 43.1875 25.515625 
Q 47.21875 21.78125 47.21875 15.09375 
Q 47.21875 7.46875 41.1875 3.015625 
Q 35.15625 -1.421875 24.609375 -1.421875 
Q 20.21875 -1.421875 15.453125 -0.5625 
Q 10.6875 0.296875 5.421875 2 
L 5.421875 11.28125 
Q 10.40625 8.6875 15.234375 7.390625 
Q 20.0625 6.109375 24.8125 6.109375 
Q 31.15625 6.109375 34.5625 8.28125 
Q 37.984375 10.453125 37.984375 14.40625 
Q 37.984375 18.0625 35.515625 20.015625 
Q 33.0625 21.96875 24.703125 23.78125 
L 21.578125 24.515625 
Q 13.234375 26.265625 9.515625 29.90625 
Q 5.8125 33.546875 5.8125 39.890625 
Q 5.8125 47.609375 11.28125 51.796875 
Q 16.75 56 26.8125 56 
Q 31.78125 56 36.171875 55.265625 
Q 40.578125 54.546875 44.28125 53.078125 
" id="BitstreamVeraSans-Roman-73"/>
      <path d="M 52 44.1875 
Q 55.375 50.25 60.0625 53.125 
Q 64.75 56 71.09375 56 
Q 79.640625 56 84.28125 50.015625 
Q 88.921875 44.046875 88.921875 33.015625 
L 88.921875 0 
L 79.890625 0 
L 79.890625 32.71875 
Q 79.890625 40.578125 77.09375 44.375 
Q 74.3125 48.1875 68.609375 48.1875 
Q 61.625 48.1875 57.5625 43.546875 
Q 53.515625 38.921875 53.515625 30.90625 
L 53.515625 0 
L 44.484375 0 
L 44.484375 32.71875 
Q 44.484375 40.625 41.703125 44.40625 
Q 38.921875 48.1875 33.109375 48.1875 
Q 26.21875 48.1875 22.15625 43.53125 
Q 18.109375 38.875 18.109375 30.90625 
L 18.109375 0 
L 9.078125 0 
L 9.078125 54.6875 
L 18.109375 54.6875 
L 18.109375 46.1875 
Q 21.1875 51.21875 25.484375 53.609375 
Q 29.78125 56 35.6875 56 
Q 41.65625 56 45.828125 52.96875 
Q 50 49.953125 52 44.1875 
" id="BitstreamVeraSans-Roman-6d"/>
      <path d="M 30.609375 48.390625 
Q 23.390625 48.390625 19.1875 42.75 
Q 14.984375 37.109375 14.984375 27.296875 
Q 14.984375 17.484375 19.15625 11.84375 
Q 23.34375 6.203125 30.609375 6.203125 
Q 37.796875 6.203125 41.984375 11.859375 
Q 46.1875 17.53125 46.1875 27.296875 
Q 46.1875 37.015625 41.984375 42.703125 
Q 37.796875 48.390625 30.609375 48.390625 
M 30.609375 56 
Q 42.328125 56 49.015625 48.375 
Q 55.71875 40.765625 55.71875 27.296875 
Q 55.71875 13.875 49.015625 6.21875 
Q 42.328125 -1.421875 30.609375 -1.421875 
Q 18.84375 -1.421875 12.171875 6.21875 
Q 5.515625 13.875 5.515625 27.296875 
Q 5.515625 40.765625 12.171875 48.375 
Q 18.84375 56 30.609375 56 
" id="BitstreamVeraSans-Roman-6f"/>
      <path d="M 25.390625 72.90625 
L 33.6875 72.90625 
L 8.296875 -9.28125 
L 0 -9.28125 
z
" id="BitstreamVeraSans-Roman-2f"/>
      <path d="M 56.203125 29.59375 
L 56.203125 25.203125 
L 14.890625 25.203125 
Q 15.484375 15.921875 20.484375 11.0625 
Q 25.484375 6.203125 34.421875 6.203125 
Q 39.59375 6.203125 44.453125 7.46875 
Q 49.3125 8.734375 54.109375 11.28125 
L 54.109375 2.78125 
Q 49.265625 0.734375 44.1875 -0.34375 
Q 39.109375 -1.421875 33.890625 -1.421875 
Q 20.796875 -1.421875 13.15625 6.1875 
Q 5.515625 13.8125 5.515625 26.8125 
Q 5.515625 40.234375 12.765625 48.109375 
Q 20.015625 56 32.328125 56 
Q 43.359375 56 49.78125 48.890625 
Q 56.203125 41.796875 56.203125 29.59375 
M 47.21875 32.234375 
Q 47.125 39.59375 43.09375 43.984375 
Q 39.0625 48.390625 32.421875 48.390625 
Q 24.90625 48.390625 20.390625 44.140625 
Q 15.875 39.890625 15.1875 32.171875 
z
" id="BitstreamVeraSans-Roman-65"/>
      <path d="M 51.125 44 
L 36.921875 44 
L 32.8125 27.6875 
L 47.125 27.6875 
z
M 43.796875 71.78125 
L 38.71875 51.515625 
L 52.984375 51.515625 
L 58.109375 71.78125 
L 65.921875 71.78125 
L 60.890625 51.515625 
L 76.125 51.515625 
L 76.125 44 
L 58.984375 44 
L 54.984375 27.6875 
L 70.515625 27.6875 
L 70.515625 20.21875 
L 53.078125 20.21875 
L 48 0 
L 40.1875 0 
L 45.21875 20.21875 
L 30.90625 20.21875 
L 25.875 0 
L 18.015625 0 
L 23.09375 20.21875 
L 7.71875 20.21875 
L 7.71875 27.6875 
L 24.90625 27.6875 
L 29 44 
L 13.28125 44 
L 13.28125 51.515625 
L 30.90625 51.515625 
L 35.890625 71.78125 
z
" id="BitstreamVeraSans-Roman-23"/>
      <path d="M 8.015625 75.875 
L 15.828125 75.875 
Q 23.140625 64.359375 26.78125 53.3125 
Q 30.421875 42.28125 30.421875 31.390625 
Q 30.421875 20.453125 26.78125 9.375 
Q 23.140625 -1.703125 15.828125 -13.1875 
L 8.015625 -13.1875 
Q 14.5 -2 17.703125 9.0625 
Q 20.90625 20.125 20.90625 31.390625 
Q 20.90625 42.671875 17.703125 53.65625 
Q 14.5 64.65625 8.015625 75.875 
" id="BitstreamVeraSans-Roman-29"/>
      <path d="M 9.421875 54.6875 
L 18.40625 54.6875 
L 18.40625 0 
L 9.421875 0 
z
M 9.421875 75.984375 
L 18.40625 75.984375 
L 18.40625 64.59375 
L 9.421875 64.59375 
z
" id="BitstreamVeraSans-Roman-69"/>
      <path d="M 34.28125 27.484375 
Q 23.390625 27.484375 19.1875 25 
Q 14.984375 22.515625 14.984375 16.5 
Q 14.984375 11.71875 18.140625 8.90625 
Q 21.296875 6.109375 26.703125 6.109375 
Q 34.1875 6.109375 38.703125 11.40625 
Q 43.21875 16.703125 43.21875 25.484375 
L 43.21875 27.484375 
z
M 52.203125 31.203125 
L 52.203125 0 
L 43.21875 0 
L 43.21875 8.296875 
Q 40.140625 3.328125 35.546875 0.953125 
Q 30.953125 -1.421875 24.3125 -1.421875 
Q 15.921875 -1.421875 10.953125 3.296875 
Q 6 8.015625 6 15.921875 
Q 6 25.140625 12.171875 29.828125 
Q 18.359375 34.515625 30.609375 34.515625 
L 43.21875 34.515625 
L 43.21875 35.40625 
Q 43.21875 41.609375 39.140625 45 
Q 35.0625 48.390625 27.6875 48.390625 
Q 23 48.390625 18.546875 47.265625 
Q 14.109375 46.140625 10.015625 43.890625 
L 10.015625 52.203125 
Q 14.9375 54.109375 19.578125 55.046875 
Q 24.21875 56 28.609375 56 
Q 40.484375 56 46.34375 49.84375 
Q 52.203125 43.703125 52.203125 31.203125 
" id="BitstreamVeraSans-Roman-61"/>
     </defs>
     <g transform="translate(116.60171874999996 426.17359374999995)scale(0.17 -0.17)">
      <use xlink:href="#BitstreamVeraSans-Roman-6c"/>
      <use x="27.783203125" xlink:href="#BitstreamVeraSans-Roman-6f"/>
      <use x="88.96484375" xlink:href="#BitstreamVeraSans-Roman-67"/>
      <use x="152.44140625" xlink:href="#BitstreamVeraSans-Roman-31"/>
      <use x="216.064453125" xlink:href="#BitstreamVeraSans-Roman-30"/>
      <use x="279.6875" xlink:href="#BitstreamVeraSans-Roman-28"/>
      <use x="318.701171875" xlink:href="#BitstreamVeraSans-Roman-23"/>
      <use x="402.490234375" xlink:href="#BitstreamVeraSans-Roman-20"/>
      <use x="434.27734375" xlink:href="#BitstreamVeraSans-Roman-66"/>
      <use x="469.404296875" xlink:href="#BitstreamVeraSans-Roman-2d"/>
      <use x="505.48828125" xlink:href="#BitstreamVeraSans-Roman-65"/>
      <use x="567.01171875" xlink:href="#BitstreamVeraSans-Roman-76"/>
      <use x="626.19140625" xlink:href="#BitstreamVeraSans-Roman-61"/>
      <use x="687.470703125" xlink:href="#BitstreamVeraSans-Roman-6c"/>
      <use x="715.25390625" xlink:href="#BitstreamVeraSans-Roman-73"/>
      <use x="767.353515625" xlink:href="#BitstreamVeraSans-Roman-20"/>
      <use x="799.140625" xlink:href="#BitstreamVeraSans-Roman-2f"/>
      <use x="832.83203125" xlink:href="#BitstreamVeraSans-Roman-20"/>
      <use x="864.619140625" xlink:href="#BitstreamVeraSans-Roman-64"/>
      <use x="928.095703125" xlink:href="#BitstreamVeraSans-Roman-69"/>
      <use x="955.87890625" xlink:href="#BitstreamVeraSans-Roman-6d"/>
      <use x="1053.291015625" xlink:href="#BitstreamVeraSans-Roman-65"/>
      <use x="1114.814453125" xlink:href="#BitstreamVeraSans-Roman-6e"/>
      <use x="1178.193359375" xlink:href="#BitstreamVeraSans-Roman-73"/>
      <use x="1230.29296875" xlink:href="#BitstreamVeraSans-Roman-69"/>
      <use x="1258.076171875" xlink:href="#BitstreamVeraSans-Roman-6f"/>
      <use x="1319.2578125" xlink:href="#BitstreamVeraSans-Roman-6e"/>
      <use x="1382.63671875" xlink:href="#BitstreamVeraSans-Roman-29"/>
     </g>
    </g>
   </g>
   <g id="matplotlib.axis_2">
    <g id="ytick_1">
     <g id="line2d_67">
      <path clip-path="url(#p58dd1acc4e)" d="M 54.525 384.9 
L 420.36 384.9 
" style="fill:none;stroke:#000000;stroke-dasharray:1.000000,3.000000;stroke-dashoffset:0.0;stroke-width:0.5;"/>
     </g>
     <g id="line2d_68">
      <defs>
       <path d="M 0 0 
L 4 0 
" id="mf9f8a1d6ef" style="stroke:#000000;stroke-width:0.5;"/>
      </defs>
      <g>
       <use style="stroke:#000000;stroke-width:0.5;" x="54.52500000000001" xlink:href="#mf9f8a1d6ef" y="384.9"/>
      </g>
     </g>
     <g id="line2d_69">
      <defs>
       <path d="M 0 0 
L -4 0 
" id="m7e9980d069" style="stroke:#000000;stroke-width:0.5;"/>
      </defs>
      <g>
       <use style="stroke:#000000;stroke-width:0.5;" x="420.35999999999996" xlink:href="#m7e9980d069" y="384.9"/>
      </g>
     </g>
     <g id="text_6">
      <!-- 0.0 -->
      <defs>
       <path d="M 10.6875 12.40625 
L 21 12.40625 
L 21 0 
L 10.6875 0 
z
" id="BitstreamVeraSans-Roman-2e"/>
      </defs>
      <g transform="translate(25.080000000000013 389.315)scale(0.16 -0.16)">
       <use xlink:href="#BitstreamVeraSans-Roman-30"/>
       <use x="63.623046875" xlink:href="#BitstreamVeraSans-Roman-2e"/>
       <use x="95.41015625" xlink:href="#BitstreamVeraSans-Roman-30"/>
      </g>
     </g>
    </g>
    <g id="ytick_2">
     <g id="line2d_70">
      <path clip-path="url(#p58dd1acc4e)" d="M 54.525 313.117822 
L 420.36 313.117822 
" style="fill:none;stroke:#000000;stroke-dasharray:1.000000,3.000000;stroke-dashoffset:0.0;stroke-width:0.5;"/>
     </g>
     <g id="line2d_71">
      <g>
       <use style="stroke:#000000;stroke-width:0.5;" x="54.52500000000001" xlink:href="#mf9f8a1d6ef" y="313.11782178217817"/>
      </g>
     </g>
     <g id="line2d_72">
      <g>
       <use style="stroke:#000000;stroke-width:0.5;" x="420.35999999999996" xlink:href="#m7e9980d069" y="313.11782178217817"/>
      </g>
     </g>
     <g id="text_7">
      <!-- 0.2 -->
      <g transform="translate(25.080000000000013 317.5328217821782)scale(0.16 -0.16)">
       <use xlink:href="#BitstreamVeraSans-Roman-30"/>
       <use x="63.623046875" xlink:href="#BitstreamVeraSans-Roman-2e"/>
       <use x="95.41015625" xlink:href="#BitstreamVeraSans-Roman-32"/>
      </g>
     </g>
    </g>
    <g id="ytick_3">
     <g id="line2d_73">
      <path clip-path="url(#p58dd1acc4e)" d="M 54.525 241.335644 
L 420.36 241.335644 
" style="fill:none;stroke:#000000;stroke-dasharray:1.000000,3.000000;stroke-dashoffset:0.0;stroke-width:0.5;"/>
     </g>
     <g id="line2d_74">
      <g>
       <use style="stroke:#000000;stroke-width:0.5;" x="54.52500000000001" xlink:href="#mf9f8a1d6ef" y="241.3356435643564"/>
      </g>
     </g>
     <g id="line2d_75">
      <g>
       <use style="stroke:#000000;stroke-width:0.5;" x="420.35999999999996" xlink:href="#m7e9980d069" y="241.3356435643564"/>
      </g>
     </g>
     <g id="text_8">
      <!-- 0.4 -->
      <g transform="translate(25.080000000000013 245.75064356435638)scale(0.16 -0.16)">
       <use xlink:href="#BitstreamVeraSans-Roman-30"/>
       <use x="63.623046875" xlink:href="#BitstreamVeraSans-Roman-2e"/>
       <use x="95.41015625" xlink:href="#BitstreamVeraSans-Roman-34"/>
      </g>
     </g>
    </g>
    <g id="ytick_4">
     <g id="line2d_76">
      <path clip-path="url(#p58dd1acc4e)" d="M 54.525 169.553465 
L 420.36 169.553465 
" style="fill:none;stroke:#000000;stroke-dasharray:1.000000,3.000000;stroke-dashoffset:0.0;stroke-width:0.5;"/>
     </g>
     <g id="line2d_77">
      <g>
       <use style="stroke:#000000;stroke-width:0.5;" x="54.52500000000001" xlink:href="#mf9f8a1d6ef" y="169.55346534653458"/>
      </g>
     </g>
     <g id="line2d_78">
      <g>
       <use style="stroke:#000000;stroke-width:0.5;" x="420.35999999999996" xlink:href="#m7e9980d069" y="169.55346534653458"/>
      </g>
     </g>
     <g id="text_9">
      <!-- 0.6 -->
      <g transform="translate(25.080000000000013 173.96846534653463)scale(0.16 -0.16)">
       <use xlink:href="#BitstreamVeraSans-Roman-30"/>
       <use x="63.623046875" xlink:href="#BitstreamVeraSans-Roman-2e"/>
       <use x="95.41015625" xlink:href="#BitstreamVeraSans-Roman-36"/>
      </g>
     </g>
    </g>
    <g id="ytick_5">
     <g id="line2d_79">
      <path clip-path="url(#p58dd1acc4e)" d="M 54.525 97.771287 
L 420.36 97.771287 
" style="fill:none;stroke:#000000;stroke-dasharray:1.000000,3.000000;stroke-dashoffset:0.0;stroke-width:0.5;"/>
     </g>
     <g id="line2d_80">
      <g>
       <use style="stroke:#000000;stroke-width:0.5;" x="54.52500000000001" xlink:href="#mf9f8a1d6ef" y="97.7712871287128"/>
      </g>
     </g>
     <g id="line2d_81">
      <g>
       <use style="stroke:#000000;stroke-width:0.5;" x="420.35999999999996" xlink:href="#m7e9980d069" y="97.7712871287128"/>
      </g>
     </g>
     <g id="text_10">
      <!-- 0.8 -->
      <defs>
       <path d="M 31.78125 34.625 
Q 24.75 34.625 20.71875 30.859375 
Q 16.703125 27.09375 16.703125 20.515625 
Q 16.703125 13.921875 20.71875 10.15625 
Q 24.75 6.390625 31.78125 6.390625 
Q 38.8125 6.390625 42.859375 10.171875 
Q 46.921875 13.96875 46.921875 20.515625 
Q 46.921875 27.09375 42.890625 30.859375 
Q 38.875 34.625 31.78125 34.625 
M 21.921875 38.8125 
Q 15.578125 40.375 12.03125 44.71875 
Q 8.5 49.078125 8.5 55.328125 
Q 8.5 64.0625 14.71875 69.140625 
Q 20.953125 74.21875 31.78125 74.21875 
Q 42.671875 74.21875 48.875 69.140625 
Q 55.078125 64.0625 55.078125 55.328125 
Q 55.078125 49.078125 51.53125 44.71875 
Q 48 40.375 41.703125 38.8125 
Q 48.828125 37.15625 52.796875 32.3125 
Q 56.78125 27.484375 56.78125 20.515625 
Q 56.78125 9.90625 50.3125 4.234375 
Q 43.84375 -1.421875 31.78125 -1.421875 
Q 19.734375 -1.421875 13.25 4.234375 
Q 6.78125 9.90625 6.78125 20.515625 
Q 6.78125 27.484375 10.78125 32.3125 
Q 14.796875 37.15625 21.921875 38.8125 
M 18.3125 54.390625 
Q 18.3125 48.734375 21.84375 45.5625 
Q 25.390625 42.390625 31.78125 42.390625 
Q 38.140625 42.390625 41.71875 45.5625 
Q 45.3125 48.734375 45.3125 54.390625 
Q 45.3125 60.0625 41.71875 63.234375 
Q 38.140625 66.40625 31.78125 66.40625 
Q 25.390625 66.40625 21.84375 63.234375 
Q 18.3125 60.0625 18.3125 54.390625 
" id="BitstreamVeraSans-Roman-38"/>
      </defs>
      <g transform="translate(25.080000000000013 102.18628712871282)scale(0.16 -0.16)">
       <use xlink:href="#BitstreamVeraSans-Roman-30"/>
       <use x="63.623046875" xlink:href="#BitstreamVeraSans-Roman-2e"/>
       <use x="95.41015625" xlink:href="#BitstreamVeraSans-Roman-38"/>
      </g>
     </g>
    </g>
    <g id="ytick_6">
     <g id="line2d_82">
      <path clip-path="url(#p58dd1acc4e)" d="M 54.525 25.989109 
L 420.36 25.989109 
" style="fill:none;stroke:#000000;stroke-dasharray:1.000000,3.000000;stroke-dashoffset:0.0;stroke-width:0.5;"/>
     </g>
     <g id="line2d_83">
      <g>
       <use style="stroke:#000000;stroke-width:0.5;" x="54.52500000000001" xlink:href="#mf9f8a1d6ef" y="25.989108910891048"/>
      </g>
     </g>
     <g id="line2d_84">
      <g>
       <use style="stroke:#000000;stroke-width:0.5;" x="420.35999999999996" xlink:href="#m7e9980d069" y="25.989108910891048"/>
      </g>
     </g>
     <g id="text_11">
      <!-- 1.0 -->
      <g transform="translate(25.080000000000013 30.40410891089107)scale(0.16 -0.16)">
       <use xlink:href="#BitstreamVeraSans-Roman-31"/>
       <use x="63.623046875" xlink:href="#BitstreamVeraSans-Roman-2e"/>
       <use x="95.41015625" xlink:href="#BitstreamVeraSans-Roman-30"/>
      </g>
     </g>
    </g>
    <g id="text_12">
     <!-- Fraction of function,target pairs -->
     <defs>
      <path d="M 8.5 21.578125 
L 8.5 54.6875 
L 17.484375 54.6875 
L 17.484375 21.921875 
Q 17.484375 14.15625 20.5 10.265625 
Q 23.53125 6.390625 29.59375 6.390625 
Q 36.859375 6.390625 41.078125 11.03125 
Q 45.3125 15.671875 45.3125 23.6875 
L 45.3125 54.6875 
L 54.296875 54.6875 
L 54.296875 0 
L 45.3125 0 
L 45.3125 8.40625 
Q 42.046875 3.421875 37.71875 1 
Q 33.40625 -1.421875 27.6875 -1.421875 
Q 18.265625 -1.421875 13.375 4.4375 
Q 8.5 10.296875 8.5 21.578125 
" id="BitstreamVeraSans-Roman-75"/>
      <path d="M 18.3125 70.21875 
L 18.3125 54.6875 
L 36.8125 54.6875 
L 36.8125 47.703125 
L 18.3125 47.703125 
L 18.3125 18.015625 
Q 18.3125 11.328125 20.140625 9.421875 
Q 21.96875 7.515625 27.59375 7.515625 
L 36.8125 7.515625 
L 36.8125 0 
L 27.59375 0 
Q 17.1875 0 13.234375 3.875 
Q 9.28125 7.765625 9.28125 18.015625 
L 9.28125 47.703125 
L 2.6875 47.703125 
L 2.6875 54.6875 
L 9.28125 54.6875 
L 9.28125 70.21875 
z
" id="BitstreamVeraSans-Roman-74"/>
      <path d="M 41.109375 46.296875 
Q 39.59375 47.171875 37.8125 47.578125 
Q 36.03125 48 33.890625 48 
Q 26.265625 48 22.1875 43.046875 
Q 18.109375 38.09375 18.109375 28.8125 
L 18.109375 0 
L 9.078125 0 
L 9.078125 54.6875 
L 18.109375 54.6875 
L 18.109375 46.1875 
Q 20.953125 51.171875 25.484375 53.578125 
Q 30.03125 56 36.53125 56 
Q 37.453125 56 38.578125 55.875 
Q 39.703125 55.765625 41.0625 55.515625 
z
" id="BitstreamVeraSans-Roman-72"/>
      <path d="M 9.8125 72.90625 
L 51.703125 72.90625 
L 51.703125 64.59375 
L 19.671875 64.59375 
L 19.671875 43.109375 
L 48.578125 43.109375 
L 48.578125 34.8125 
L 19.671875 34.8125 
L 19.671875 0 
L 9.8125 0 
z
" id="BitstreamVeraSans-Roman-46"/>
      <path d="M 48.78125 52.59375 
L 48.78125 44.1875 
Q 44.96875 46.296875 41.140625 47.34375 
Q 37.3125 48.390625 33.40625 48.390625 
Q 24.65625 48.390625 19.8125 42.84375 
Q 14.984375 37.3125 14.984375 27.296875 
Q 14.984375 17.28125 19.8125 11.734375 
Q 24.65625 6.203125 33.40625 6.203125 
Q 37.3125 6.203125 41.140625 7.25 
Q 44.96875 8.296875 48.78125 10.40625 
L 48.78125 2.09375 
Q 45.015625 0.34375 40.984375 -0.53125 
Q 36.96875 -1.421875 32.421875 -1.421875 
Q 20.0625 -1.421875 12.78125 6.34375 
Q 5.515625 14.109375 5.515625 27.296875 
Q 5.515625 40.671875 12.859375 48.328125 
Q 20.21875 56 33.015625 56 
Q 37.15625 56 41.109375 55.140625 
Q 45.0625 54.296875 48.78125 52.59375 
" id="BitstreamVeraSans-Roman-63"/>
      <path d="M 11.71875 12.40625 
L 22.015625 12.40625 
L 22.015625 4 
L 14.015625 -11.625 
L 7.71875 -11.625 
L 11.71875 4 
z
" id="BitstreamVeraSans-Roman-2c"/>
      <path d="M 18.109375 8.203125 
L 18.109375 -20.796875 
L 9.078125 -20.796875 
L 9.078125 54.6875 
L 18.109375 54.6875 
L 18.109375 46.390625 
Q 20.953125 51.265625 25.265625 53.625 
Q 29.59375 56 35.59375 56 
Q 45.5625 56 51.78125 48.09375 
Q 58.015625 40.1875 58.015625 27.296875 
Q 58.015625 14.40625 51.78125 6.484375 
Q 45.5625 -1.421875 35.59375 -1.421875 
Q 29.59375 -1.421875 25.265625 0.953125 
Q 20.953125 3.328125 18.109375 8.203125 
M 48.6875 27.296875 
Q 48.6875 37.203125 44.609375 42.84375 
Q 40.53125 48.484375 33.40625 48.484375 
Q 26.265625 48.484375 22.1875 42.84375 
Q 18.109375 37.203125 18.109375 27.296875 
Q 18.109375 17.390625 22.1875 11.75 
Q 26.265625 6.109375 33.40625 6.109375 
Q 40.53125 6.109375 44.609375 11.75 
Q 48.6875 17.390625 48.6875 27.296875 
" id="BitstreamVeraSans-Roman-70"/>
     </defs>
     <g transform="translate(16.544531250000006 338.78937499999995)rotate(-90.0)scale(0.17 -0.17)">
      <use xlink:href="#BitstreamVeraSans-Roman-46"/>
      <use x="57.41015625" xlink:href="#BitstreamVeraSans-Roman-72"/>
      <use x="98.5234375" xlink:href="#BitstreamVeraSans-Roman-61"/>
      <use x="159.802734375" xlink:href="#BitstreamVeraSans-Roman-63"/>
      <use x="214.783203125" xlink:href="#BitstreamVeraSans-Roman-74"/>
      <use x="253.9921875" xlink:href="#BitstreamVeraSans-Roman-69"/>
      <use x="281.775390625" xlink:href="#BitstreamVeraSans-Roman-6f"/>
      <use x="342.95703125" xlink:href="#BitstreamVeraSans-Roman-6e"/>
      <use x="406.3359375" xlink:href="#BitstreamVeraSans-Roman-20"/>
      <use x="438.123046875" xlink:href="#BitstreamVeraSans-Roman-6f"/>
      <use x="499.3046875" xlink:href="#BitstreamVeraSans-Roman-66"/>
      <use x="534.509765625" xlink:href="#BitstreamVeraSans-Roman-20"/>
      <use x="566.296875" xlink:href="#BitstreamVeraSans-Roman-66"/>
      <use x="601.501953125" xlink:href="#BitstreamVeraSans-Roman-75"/>
      <use x="664.880859375" xlink:href="#BitstreamVeraSans-Roman-6e"/>
      <use x="728.259765625" xlink:href="#BitstreamVeraSans-Roman-63"/>
      <use x="783.240234375" xlink:href="#BitstreamVeraSans-Roman-74"/>
      <use x="822.44921875" xlink:href="#BitstreamVeraSans-Roman-69"/>
      <use x="850.232421875" xlink:href="#BitstreamVeraSans-Roman-6f"/>
      <use x="911.4140625" xlink:href="#BitstreamVeraSans-Roman-6e"/>
      <use x="974.79296875" xlink:href="#BitstreamVeraSans-Roman-2c"/>
      <use x="1006.580078125" xlink:href="#BitstreamVeraSans-Roman-74"/>
      <use x="1045.7890625" xlink:href="#BitstreamVeraSans-Roman-61"/>
      <use x="1107.068359375" xlink:href="#BitstreamVeraSans-Roman-72"/>
      <use x="1148.166015625" xlink:href="#BitstreamVeraSans-Roman-67"/>
      <use x="1211.642578125" xlink:href="#BitstreamVeraSans-Roman-65"/>
      <use x="1273.166015625" xlink:href="#BitstreamVeraSans-Roman-74"/>
      <use x="1312.375" xlink:href="#BitstreamVeraSans-Roman-20"/>
      <use x="1344.162109375" xlink:href="#BitstreamVeraSans-Roman-70"/>
      <use x="1407.638671875" xlink:href="#BitstreamVeraSans-Roman-61"/>
      <use x="1468.91796875" xlink:href="#BitstreamVeraSans-Roman-69"/>
      <use x="1496.701171875" xlink:href="#BitstreamVeraSans-Roman-72"/>
      <use x="1537.814453125" xlink:href="#BitstreamVeraSans-Roman-73"/>
     </g>
    </g>
   </g>
   <g id="text_13">
    <!-- DE1-T-fe -->
    <defs>
     <path d="M 19.671875 64.796875 
L 19.671875 8.109375 
L 31.59375 8.109375 
Q 46.6875 8.109375 53.6875 14.9375 
Q 60.6875 21.78125 60.6875 36.53125 
Q 60.6875 51.171875 53.6875 57.984375 
Q 46.6875 64.796875 31.59375 64.796875 
z
M 9.8125 72.90625 
L 30.078125 72.90625 
Q 51.265625 72.90625 61.171875 64.09375 
Q 71.09375 55.28125 71.09375 36.53125 
Q 71.09375 17.671875 61.125 8.828125 
Q 51.171875 0 30.078125 0 
L 9.8125 0 
z
" id="BitstreamVeraSans-Roman-44"/>
     <path d="M 9.8125 72.90625 
L 55.90625 72.90625 
L 55.90625 64.59375 
L 19.671875 64.59375 
L 19.671875 43.015625 
L 54.390625 43.015625 
L 54.390625 34.71875 
L 19.671875 34.71875 
L 19.671875 8.296875 
L 56.78125 8.296875 
L 56.78125 0 
L 9.8125 0 
z
" id="BitstreamVeraSans-Roman-45"/>
     <path d="M -0.296875 72.90625 
L 61.375 72.90625 
L 61.375 64.59375 
L 35.5 64.59375 
L 35.5 0 
L 25.59375 0 
L 25.59375 64.59375 
L -0.296875 64.59375 
z
" id="BitstreamVeraSans-Roman-54"/>
    </defs>
    <g transform="translate(467.91854999999987 382.4127196782178)scale(0.17 -0.17)">
     <use xlink:href="#BitstreamVeraSans-Roman-44"/>
     <use x="77.001953125" xlink:href="#BitstreamVeraSans-Roman-45"/>
     <use x="140.185546875" xlink:href="#BitstreamVeraSans-Roman-31"/>
     <use x="203.80859375" xlink:href="#BitstreamVeraSans-Roman-2d"/>
     <use x="239.751953125" xlink:href="#BitstreamVeraSans-Roman-54"/>
     <use x="300.6953125" xlink:href="#BitstreamVeraSans-Roman-2d"/>
     <use x="336.779296875" xlink:href="#BitstreamVeraSans-Roman-66"/>
     <use x="371.984375" xlink:href="#BitstreamVeraSans-Roman-65"/>
    </g>
   </g>
   <g id="text_14">
    <!-- DE1-E-fe -->
    <g transform="translate(467.91854999999987 296.2741058168316)scale(0.17 -0.17)">
     <use xlink:href="#BitstreamVeraSans-Roman-44"/>
     <use x="77.001953125" xlink:href="#BitstreamVeraSans-Roman-45"/>
     <use x="140.185546875" xlink:href="#BitstreamVeraSans-Roman-31"/>
     <use x="203.80859375" xlink:href="#BitstreamVeraSans-Roman-2d"/>
     <use x="239.892578125" xlink:href="#BitstreamVeraSans-Roman-45"/>
     <use x="303.076171875" xlink:href="#BitstreamVeraSans-Roman-2d"/>
     <use x="339.16015625" xlink:href="#BitstreamVeraSans-Roman-66"/>
     <use x="374.365234375" xlink:href="#BitstreamVeraSans-Roman-65"/>
    </g>
   </g>
   <g id="text_15">
    <!-- DE1-D -->
    <g transform="translate(467.91854999999987 210.1354919554455)scale(0.17 -0.17)">
     <use xlink:href="#BitstreamVeraSans-Roman-44"/>
     <use x="77.001953125" xlink:href="#BitstreamVeraSans-Roman-45"/>
     <use x="140.185546875" xlink:href="#BitstreamVeraSans-Roman-31"/>
     <use x="203.80859375" xlink:href="#BitstreamVeraSans-Roman-2d"/>
     <use x="239.892578125" xlink:href="#BitstreamVeraSans-Roman-44"/>
    </g>
   </g>
   <g id="text_16">
    <!-- DE1-B -->
    <defs>
     <path d="M 19.671875 34.8125 
L 19.671875 8.109375 
L 35.5 8.109375 
Q 43.453125 8.109375 47.28125 11.40625 
Q 51.125 14.703125 51.125 21.484375 
Q 51.125 28.328125 47.28125 31.5625 
Q 43.453125 34.8125 35.5 34.8125 
z
M 19.671875 64.796875 
L 19.671875 42.828125 
L 34.28125 42.828125 
Q 41.5 42.828125 45.03125 45.53125 
Q 48.578125 48.25 48.578125 53.8125 
Q 48.578125 59.328125 45.03125 62.0625 
Q 41.5 64.796875 34.28125 64.796875 
z
M 9.8125 72.90625 
L 35.015625 72.90625 
Q 46.296875 72.90625 52.390625 68.21875 
Q 58.5 63.53125 58.5 54.890625 
Q 58.5 48.1875 55.375 44.234375 
Q 52.25 40.28125 46.1875 39.3125 
Q 53.46875 37.75 57.5 32.78125 
Q 61.53125 27.828125 61.53125 20.40625 
Q 61.53125 10.640625 54.890625 5.3125 
Q 48.25 0 35.984375 0 
L 9.8125 0 
z
" id="BitstreamVeraSans-Roman-42"/>
    </defs>
    <g transform="translate(467.91854999999987 123.99687809405941)scale(0.17 -0.17)">
     <use xlink:href="#BitstreamVeraSans-Roman-44"/>
     <use x="77.001953125" xlink:href="#BitstreamVeraSans-Roman-45"/>
     <use x="140.185546875" xlink:href="#BitstreamVeraSans-Roman-31"/>
     <use x="203.80859375" xlink:href="#BitstreamVeraSans-Roman-2d"/>
     <use x="239.845703125" xlink:href="#BitstreamVeraSans-Roman-42"/>
    </g>
   </g>
   <g id="text_17">
    <!-- best 2009 -->
    <defs>
     <path d="M 10.984375 1.515625 
L 10.984375 10.5 
Q 14.703125 8.734375 18.5 7.8125 
Q 22.3125 6.890625 25.984375 6.890625 
Q 35.75 6.890625 40.890625 13.453125 
Q 46.046875 20.015625 46.78125 33.40625 
Q 43.953125 29.203125 39.59375 26.953125 
Q 35.25 24.703125 29.984375 24.703125 
Q 19.046875 24.703125 12.671875 31.3125 
Q 6.296875 37.9375 6.296875 49.421875 
Q 6.296875 60.640625 12.9375 67.421875 
Q 19.578125 74.21875 30.609375 74.21875 
Q 43.265625 74.21875 49.921875 64.515625 
Q 56.59375 54.828125 56.59375 36.375 
Q 56.59375 19.140625 48.40625 8.859375 
Q 40.234375 -1.421875 26.421875 -1.421875 
Q 22.703125 -1.421875 18.890625 -0.6875 
Q 15.09375 0.046875 10.984375 1.515625 
M 30.609375 32.421875 
Q 37.25 32.421875 41.125 36.953125 
Q 45.015625 41.5 45.015625 49.421875 
Q 45.015625 57.28125 41.125 61.84375 
Q 37.25 66.40625 30.609375 66.40625 
Q 23.96875 66.40625 20.09375 61.84375 
Q 16.21875 57.28125 16.21875 49.421875 
Q 16.21875 41.5 20.09375 36.953125 
Q 23.96875 32.421875 30.609375 32.421875 
" id="BitstreamVeraSans-Roman-39"/>
     <path d="M 48.6875 27.296875 
Q 48.6875 37.203125 44.609375 42.84375 
Q 40.53125 48.484375 33.40625 48.484375 
Q 26.265625 48.484375 22.1875 42.84375 
Q 18.109375 37.203125 18.109375 27.296875 
Q 18.109375 17.390625 22.1875 11.75 
Q 26.265625 6.109375 33.40625 6.109375 
Q 40.53125 6.109375 44.609375 11.75 
Q 48.6875 17.390625 48.6875 27.296875 
M 18.109375 46.390625 
Q 20.953125 51.265625 25.265625 53.625 
Q 29.59375 56 35.59375 56 
Q 45.5625 56 51.78125 48.09375 
Q 58.015625 40.1875 58.015625 27.296875 
Q 58.015625 14.40625 51.78125 6.484375 
Q 45.5625 -1.421875 35.59375 -1.421875 
Q 29.59375 -1.421875 25.265625 0.953125 
Q 20.953125 3.328125 18.109375 8.203125 
L 18.109375 0 
L 9.078125 0 
L 9.078125 75.984375 
L 18.109375 75.984375 
z
" id="BitstreamVeraSans-Roman-62"/>
    </defs>
    <g transform="translate(467.91854999999987 37.858264232673264)scale(0.17 -0.17)">
     <use xlink:href="#BitstreamVeraSans-Roman-62"/>
     <use x="63.4765625" xlink:href="#BitstreamVeraSans-Roman-65"/>
     <use x="125.0" xlink:href="#BitstreamVeraSans-Roman-73"/>
     <use x="177.099609375" xlink:href="#BitstreamVeraSans-Roman-74"/>
     <use x="216.30859375" xlink:href="#BitstreamVeraSans-Roman-20"/>
     <use x="248.095703125" xlink:href="#BitstreamVeraSans-Roman-32"/>
     <use x="311.71875" xlink:href="#BitstreamVeraSans-Roman-30"/>
     <use x="375.341796875" xlink:href="#BitstreamVeraSans-Roman-30"/>
     <use x="438.96484375" xlink:href="#BitstreamVeraSans-Roman-39"/>
    </g>
   </g>
   <g id="text_18">
    <!-- bbob f21, 20-D -->
    <g transform="translate(58.18335000000001 33.77540625)scale(0.102 -0.102)">
     <use xlink:href="#BitstreamVeraSans-Roman-62"/>
     <use x="63.4765625" xlink:href="#BitstreamVeraSans-Roman-62"/>
     <use x="126.953125" xlink:href="#BitstreamVeraSans-Roman-6f"/>
     <use x="188.134765625" xlink:href="#BitstreamVeraSans-Roman-62"/>
     <use x="251.611328125" xlink:href="#BitstreamVeraSans-Roman-20"/>
     <use x="283.3984375" xlink:href="#BitstreamVeraSans-Roman-66"/>
     <use x="318.603515625" xlink:href="#BitstreamVeraSans-Roman-32"/>
     <use x="382.2265625" xlink:href="#BitstreamVeraSans-Roman-31"/>
     <use x="445.849609375" xlink:href="#BitstreamVeraSans-Roman-2c"/>
     <use x="477.63671875" xlink:href="#BitstreamVeraSans-Roman-20"/>
     <use x="509.423828125" xlink:href="#BitstreamVeraSans-Roman-32"/>
     <use x="573.046875" xlink:href="#BitstreamVeraSans-Roman-30"/>
     <use x="636.669921875" xlink:href="#BitstreamVeraSans-Roman-2d"/>
     <use x="672.75390625" xlink:href="#BitstreamVeraSans-Roman-44"/>
    </g>
    <!-- 51 targets: 100..1e-08 -->
    <defs>
     <path d="M 11.71875 12.40625 
L 22.015625 12.40625 
L 22.015625 0 
L 11.71875 0 
z
M 11.71875 51.703125 
L 22.015625 51.703125 
L 22.015625 39.3125 
L 11.71875 39.3125 
z
" id="BitstreamVeraSans-Roman-3a"/>
     <path d="M 10.796875 72.90625 
L 49.515625 72.90625 
L 49.515625 64.59375 
L 19.828125 64.59375 
L 19.828125 46.734375 
Q 21.96875 47.46875 24.109375 47.828125 
Q 26.265625 48.1875 28.421875 48.1875 
Q 40.625 48.1875 47.75 41.5 
Q 54.890625 34.8125 54.890625 23.390625 
Q 54.890625 11.625 47.5625 5.09375 
Q 40.234375 -1.421875 26.90625 -1.421875 
Q 22.3125 -1.421875 17.546875 -0.640625 
Q 12.796875 0.140625 7.71875 1.703125 
L 7.71875 11.625 
Q 12.109375 9.234375 16.796875 8.0625 
Q 21.484375 6.890625 26.703125 6.890625 
Q 35.15625 6.890625 40.078125 11.328125 
Q 45.015625 15.765625 45.015625 23.390625 
Q 45.015625 31 40.078125 35.4375 
Q 35.15625 39.890625 26.703125 39.890625 
Q 22.75 39.890625 18.8125 39.015625 
Q 14.890625 38.140625 10.796875 36.28125 
z
" id="BitstreamVeraSans-Roman-35"/>
    </defs>
    <g transform="translate(58.18335000000001 45.19717499999996)scale(0.102 -0.102)">
     <use xlink:href="#BitstreamVeraSans-Roman-35"/>
     <use x="63.623046875" xlink:href="#BitstreamVeraSans-Roman-31"/>
     <use x="127.24609375" xlink:href="#BitstreamVeraSans-Roman-20"/>
     <use x="159.033203125" xlink:href="#BitstreamVeraSans-Roman-74"/>
     <use x="198.2421875" xlink:href="#BitstreamVeraSans-Roman-61"/>
     <use x="259.521484375" xlink:href="#BitstreamVeraSans-Roman-72"/>
     <use x="300.619140625" xlink:href="#BitstreamVeraSans-Roman-67"/>
     <use x="364.095703125" xlink:href="#BitstreamVeraSans-Roman-65"/>
     <use x="425.619140625" xlink:href="#BitstreamVeraSans-Roman-74"/>
     <use x="464.828125" xlink:href="#BitstreamVeraSans-Roman-73"/>
     <use x="516.927734375" xlink:href="#BitstreamVeraSans-Roman-3a"/>
     <use x="550.619140625" xlink:href="#BitstreamVeraSans-Roman-20"/>
     <use x="582.40625" xlink:href="#BitstreamVeraSans-Roman-31"/>
     <use x="646.029296875" xlink:href="#BitstreamVeraSans-Roman-30"/>
     <use x="709.65234375" xlink:href="#BitstreamVeraSans-Roman-30"/>
     <use x="773.275390625" xlink:href="#BitstreamVeraSans-Roman-2e"/>
     <use x="805.0625" xlink:href="#BitstreamVeraSans-Roman-2e"/>
     <use x="836.849609375" xlink:href="#BitstreamVeraSans-Roman-31"/>
     <use x="900.47265625" xlink:href="#BitstreamVeraSans-Roman-65"/>
     <use x="961.99609375" xlink:href="#BitstreamVeraSans-Roman-2d"/>
     <use x="998.080078125" xlink:href="#BitstreamVeraSans-Roman-30"/>
     <use x="1061.703125" xlink:href="#BitstreamVeraSans-Roman-38"/>
    </g>
    <!-- 15 instances -->
    <g transform="translate(58.18335000000001 56.61894374999997)scale(0.102 -0.102)">
     <use xlink:href="#BitstreamVeraSans-Roman-31"/>
     <use x="63.623046875" xlink:href="#BitstreamVeraSans-Roman-35"/>
     <use x="127.24609375" xlink:href="#BitstreamVeraSans-Roman-20"/>
     <use x="159.033203125" xlink:href="#BitstreamVeraSans-Roman-69"/>
     <use x="186.81640625" xlink:href="#BitstreamVeraSans-Roman-6e"/>
     <use x="250.1953125" xlink:href="#BitstreamVeraSans-Roman-73"/>
     <use x="302.294921875" xlink:href="#BitstreamVeraSans-Roman-74"/>
     <use x="341.50390625" xlink:href="#BitstreamVeraSans-Roman-61"/>
     <use x="402.783203125" xlink:href="#BitstreamVeraSans-Roman-6e"/>
     <use x="466.162109375" xlink:href="#BitstreamVeraSans-Roman-63"/>
     <use x="521.142578125" xlink:href="#BitstreamVeraSans-Roman-65"/>
     <use x="582.666015625" xlink:href="#BitstreamVeraSans-Roman-73"/>
    </g>
   </g>
   <g id="text_19">
    <!-- v2.3.3 -->
    <defs>
     <path d="M 40.578125 39.3125 
Q 47.65625 37.796875 51.625 33 
Q 55.609375 28.21875 55.609375 21.1875 
Q 55.609375 10.40625 48.1875 4.484375 
Q 40.765625 -1.421875 27.09375 -1.421875 
Q 22.515625 -1.421875 17.65625 -0.515625 
Q 12.796875 0.390625 7.625 2.203125 
L 7.625 11.71875 
Q 11.71875 9.328125 16.59375 8.109375 
Q 21.484375 6.890625 26.8125 6.890625 
Q 36.078125 6.890625 40.9375 10.546875 
Q 45.796875 14.203125 45.796875 21.1875 
Q 45.796875 27.640625 41.28125 31.265625 
Q 36.765625 34.90625 28.71875 34.90625 
L 20.21875 34.90625 
L 20.21875 43.015625 
L 29.109375 43.015625 
Q 36.375 43.015625 40.234375 45.921875 
Q 44.09375 48.828125 44.09375 54.296875 
Q 44.09375 59.90625 40.109375 62.90625 
Q 36.140625 65.921875 28.71875 65.921875 
Q 24.65625 65.921875 20.015625 65.03125 
Q 15.375 64.15625 9.8125 62.3125 
L 9.8125 71.09375 
Q 15.4375 72.65625 20.34375 73.4375 
Q 25.25 74.21875 29.59375 74.21875 
Q 40.828125 74.21875 47.359375 69.109375 
Q 53.90625 64.015625 53.90625 55.328125 
Q 53.90625 49.265625 50.4375 45.09375 
Q 46.96875 40.921875 40.578125 39.3125 
" id="BitstreamVeraSans-Roman-33"/>
    </defs>
    <g style="fill:#808080;" transform="translate(221.76124999999996 379.1953125)scale(0.1 -0.1)">
     <use xlink:href="#BitstreamVeraSans-Roman-76"/>
     <use x="59.1796875" xlink:href="#BitstreamVeraSans-Roman-32"/>
     <use x="122.802734375" xlink:href="#BitstreamVeraSans-Roman-2e"/>
     <use x="154.58984375" xlink:href="#BitstreamVeraSans-Roman-33"/>
     <use x="218.212890625" xlink:href="#BitstreamVeraSans-Roman-2e"/>
     <use x="250.0" xlink:href="#BitstreamVeraSans-Roman-33"/>
    </g>
   </g>
   <g id="text_20">
    <!-- 21 Gallagher 101 peaks -->
    <defs>
     <path d="M 59.515625 10.40625 
L 59.515625 29.984375 
L 43.40625 29.984375 
L 43.40625 38.09375 
L 69.28125 38.09375 
L 69.28125 6.78125 
Q 63.578125 2.734375 56.6875 0.65625 
Q 49.8125 -1.421875 42 -1.421875 
Q 24.90625 -1.421875 15.25 8.5625 
Q 5.609375 18.5625 5.609375 36.375 
Q 5.609375 54.25 15.25 64.234375 
Q 24.90625 74.21875 42 74.21875 
Q 49.125 74.21875 55.546875 72.453125 
Q 61.96875 70.703125 67.390625 67.28125 
L 67.390625 56.78125 
Q 61.921875 61.421875 55.765625 63.765625 
Q 49.609375 66.109375 42.828125 66.109375 
Q 29.4375 66.109375 22.71875 58.640625 
Q 16.015625 51.171875 16.015625 36.375 
Q 16.015625 21.625 22.71875 14.15625 
Q 29.4375 6.6875 42.828125 6.6875 
Q 48.046875 6.6875 52.140625 7.59375 
Q 56.25 8.5 59.515625 10.40625 
" id="BitstreamVeraSans-Roman-47"/>
     <path d="M 9.078125 75.984375 
L 18.109375 75.984375 
L 18.109375 31.109375 
L 44.921875 54.6875 
L 56.390625 54.6875 
L 27.390625 29.109375 
L 57.625 0 
L 45.90625 0 
L 18.109375 26.703125 
L 18.109375 0 
L 9.078125 0 
z
" id="BitstreamVeraSans-Roman-6b"/>
     <path d="M 54.890625 33.015625 
L 54.890625 0 
L 45.90625 0 
L 45.90625 32.71875 
Q 45.90625 40.484375 42.875 44.328125 
Q 39.84375 48.1875 33.796875 48.1875 
Q 26.515625 48.1875 22.3125 43.546875 
Q 18.109375 38.921875 18.109375 30.90625 
L 18.109375 0 
L 9.078125 0 
L 9.078125 75.984375 
L 18.109375 75.984375 
L 18.109375 46.1875 
Q 21.34375 51.125 25.703125 53.5625 
Q 30.078125 56 35.796875 56 
Q 45.21875 56 50.046875 50.171875 
Q 54.890625 44.34375 54.890625 33.015625 
" id="BitstreamVeraSans-Roman-68"/>
    </defs>
    <g transform="translate(117.95499999999996 17.399999999999977)scale(0.2 -0.2)">
     <use xlink:href="#BitstreamVeraSans-Roman-32"/>
     <use x="63.623046875" xlink:href="#BitstreamVeraSans-Roman-31"/>
     <use x="127.24609375" xlink:href="#BitstreamVeraSans-Roman-20"/>
     <use x="159.033203125" xlink:href="#BitstreamVeraSans-Roman-47"/>
     <use x="236.5234375" xlink:href="#BitstreamVeraSans-Roman-61"/>
     <use x="297.802734375" xlink:href="#BitstreamVeraSans-Roman-6c"/>
     <use x="325.5859375" xlink:href="#BitstreamVeraSans-Roman-6c"/>
     <use x="353.369140625" xlink:href="#BitstreamVeraSans-Roman-61"/>
     <use x="414.6484375" xlink:href="#BitstreamVeraSans-Roman-67"/>
     <use x="478.125" xlink:href="#BitstreamVeraSans-Roman-68"/>
     <use x="541.50390625" xlink:href="#BitstreamVeraSans-Roman-65"/>
     <use x="603.02734375" xlink:href="#BitstreamVeraSans-Roman-72"/>
     <use x="644.140625" xlink:href="#BitstreamVeraSans-Roman-20"/>
     <use x="675.927734375" xlink:href="#BitstreamVeraSans-Roman-31"/>
     <use x="739.55078125" xlink:href="#BitstreamVeraSans-Roman-30"/>
     <use x="803.173828125" xlink:href="#BitstreamVeraSans-Roman-31"/>
     <use x="866.796875" xlink:href="#BitstreamVeraSans-Roman-20"/>
     <use x="898.583984375" xlink:href="#BitstreamVeraSans-Roman-70"/>
     <use x="962.060546875" xlink:href="#BitstreamVeraSans-Roman-65"/>
     <use x="1023.583984375" xlink:href="#BitstreamVeraSans-Roman-61"/>
     <use x="1084.86328125" xlink:href="#BitstreamVeraSans-Roman-6b"/>
     <use x="1142.7734375" xlink:href="#BitstreamVeraSans-Roman-73"/>
    </g>
   </g>
  </g>
 </g>
 <defs>
  <clipPath id="p58dd1acc4e">
   <rect height="362.5" width="365.8349999999999" x="54.52500000000001" y="22.399999999999977"/>
  </clipPath>
 </defs>
</svg>
