<?xml version="1.0" encoding="utf-8" standalone="no"?>
<!DOCTYPE svg PUBLIC "-//W3C//DTD SVG 1.1//EN"
  "http://www.w3.org/Graphics/SVG/1.1/DTD/svg11.dtd">
<!-- Created with matplotlib (http://matplotlib.org/) -->
<svg height="432pt" version="1.1" viewBox="0 0 576 432" width="576pt" xmlns="http://www.w3.org/2000/svg" xmlns:xlink="http://www.w3.org/1999/xlink">
 <defs>
  <style type="text/css">
*{stroke-linecap:butt;stroke-linejoin:round;stroke-miterlimit:100000;}
  </style>
 </defs>
 <g id="figure_1">
  <g id="patch_1">
   <path d="M 0 432 
L 576 432 
L 576 0 
L 0 0 
z
" style="fill:#ffffff;"/>
  </g>
  <g id="axes_1">
   <g id="patch_2">
    <path d="M 22.9 401 
L 566.64 401 
L 566.64 26.6 
L 22.9 26.6 
z
" style="fill:#ffffff;"/>
   </g>
   <g id="line2d_1">
    <path clip-path="url(#p97071edd5d)" d="M 40.697744 340.639483 
L 109.189854 345.199364 
L 195.479708 349.278318 
L 312.567744 350.925981 
L 429.655779 353.536919 
L 546.743815 354.911534 
" style="fill:none;stroke:#f5deb3;stroke-linecap:square;stroke-width:10.0;"/>
    <defs>
     <path d="M -0 17.67767 
L 10.606602 0 
L 0 -17.67767 
L -10.606602 -0 
z
" id="m90dc41bcbf" style="stroke:#000000;stroke-linejoin:miter;stroke-width:0.5;"/>
    </defs>
    <g clip-path="url(#p97071edd5d)">
     <use style="fill:#f5deb3;stroke:#000000;stroke-linejoin:miter;stroke-width:0.5;" x="40.69774365360371" xlink:href="#m90dc41bcbf" y="340.63948296361536"/>
     <use style="fill:#f5deb3;stroke:#000000;stroke-linejoin:miter;stroke-width:0.5;" x="109.18985390509516" xlink:href="#m90dc41bcbf" y="345.19936449313184"/>
     <use style="fill:#f5deb3;stroke:#000000;stroke-linejoin:miter;stroke-width:0.5;" x="195.4797078101903" xlink:href="#m90dc41bcbf" y="349.2783175156202"/>
     <use style="fill:#f5deb3;stroke:#000000;stroke-linejoin:miter;stroke-width:0.5;" x="312.5677436536037" xlink:href="#m90dc41bcbf" y="350.92598093854104"/>
     <use style="fill:#f5deb3;stroke:#000000;stroke-linejoin:miter;stroke-width:0.5;" x="429.65577949701714" xlink:href="#m90dc41bcbf" y="353.53691933822404"/>
     <use style="fill:#f5deb3;stroke:#000000;stroke-linejoin:miter;stroke-width:0.5;" x="546.7438153404305" xlink:href="#m90dc41bcbf" y="354.9115340437008"/>
    </g>
   </g>
   <g id="line2d_2">
    <path clip-path="url(#p97071edd5d)" d="M 425.630775 207.508379 
L 428.448278 205.865894 
L 425.630775 203.516522 
L 433.680784 203.516522 
L 430.863281 205.865894 
L 433.680784 207.508379 
L 425.630775 207.508379 
" style="fill:none;stroke:#000000;stroke-linecap:square;"/>
    <defs>
     <path d="M 0 0 
C 0 0 0 0 0 0 
C 0 0 0 0 0 0 
C 0 0 0 0 0 0 
C 0 0 0 0 0 0 
C 0 0 0 0 0 0 
C 0 0 0 0 0 0 
C 0 0 0 0 0 0 
C 0 0 0 0 0 0 
z
" id="mb2e4e4e9b9" style="stroke:#000000;stroke-width:2.0;"/>
    </defs>
    <g clip-path="url(#p97071edd5d)">
     <use style="stroke:#000000;stroke-width:2.0;" x="425.6307751176601" xlink:href="#mb2e4e4e9b9" y="207.50837904110972"/>
     <use style="stroke:#000000;stroke-width:2.0;" x="428.44827818321" xlink:href="#mb2e4e4e9b9" y="205.86589443525963"/>
     <use style="stroke:#000000;stroke-width:2.0;" x="425.6307751176601" xlink:href="#mb2e4e4e9b9" y="203.5165222239837"/>
     <use style="stroke:#000000;stroke-width:2.0;" x="433.68078387637416" xlink:href="#mb2e4e4e9b9" y="203.5165222239837"/>
     <use style="stroke:#000000;stroke-width:2.0;" x="430.8632808108243" xlink:href="#mb2e4e4e9b9" y="205.86589443525963"/>
     <use style="stroke:#000000;stroke-width:2.0;" x="433.68078387637416" xlink:href="#mb2e4e4e9b9" y="207.50837904110972"/>
     <use style="stroke:#000000;stroke-width:2.0;" x="425.6307751176601" xlink:href="#mb2e4e4e9b9" y="207.50837904110972"/>
    </g>
   </g>
   <g id="line2d_3">
    <path clip-path="url(#p97071edd5d)" d="M 425.630775 207.508379 
L 433.680784 207.508379 
L 433.680784 203.516522 
L 425.630775 203.516522 
L 425.630775 207.508379 
" style="fill:none;"/>
    <defs>
     <path d="M 0 3 
C 0.795609 3 1.55874 2.683901 2.12132 2.12132 
C 2.683901 1.55874 3 0.795609 3 0 
C 3 -0.795609 2.683901 -1.55874 2.12132 -2.12132 
C 1.55874 -2.683901 0.795609 -3 0 -3 
C -0.795609 -3 -1.55874 -2.683901 -2.12132 -2.12132 
C -2.683901 -1.55874 -3 -0.795609 -3 0 
C -3 0.795609 -2.683901 1.55874 -2.12132 2.12132 
C -1.55874 2.683901 -0.795609 3 0 3 
z
" id="m3119ff8e3d" style="stroke:#000000;stroke-width:2.0;"/>
    </defs>
    <g clip-path="url(#p97071edd5d)">
     <use style="stroke:#000000;stroke-width:2.0;" x="425.6307751176601" xlink:href="#m3119ff8e3d" y="207.50837904110972"/>
     <use style="stroke:#000000;stroke-width:2.0;" x="433.68078387637416" xlink:href="#m3119ff8e3d" y="207.50837904110972"/>
     <use style="stroke:#000000;stroke-width:2.0;" x="433.68078387637416" xlink:href="#m3119ff8e3d" y="203.5165222239837"/>
     <use style="stroke:#000000;stroke-width:2.0;" x="425.6307751176601" xlink:href="#m3119ff8e3d" y="203.5165222239837"/>
     <use style="stroke:#000000;stroke-width:2.0;" x="425.6307751176601" xlink:href="#m3119ff8e3d" y="207.50837904110972"/>
    </g>
   </g>
   <g id="line2d_4">
    <path clip-path="url(#p97071edd5d)" d="M 425.630775 205.865894 
L 433.680784 205.865894 
" style="fill:none;stroke:#000000;stroke-linecap:square;stroke-width:2.0;"/>
    <g clip-path="url(#p97071edd5d)">
     <use style="stroke:#000000;stroke-width:2.0;" x="425.6307751176601" xlink:href="#mb2e4e4e9b9" y="205.86589443525963"/>
     <use style="stroke:#000000;stroke-width:2.0;" x="433.68078387637416" xlink:href="#mb2e4e4e9b9" y="205.86589443525963"/>
    </g>
   </g>
   <g id="line2d_5">
    <path clip-path="url(#p97071edd5d)" d="M 429.655779 204.646447 
" style="fill:none;"/>
    <defs>
     <path d="M 0 10 
C 2.652031 10 5.195799 8.946337 7.071068 7.071068 
C 8.946337 5.195799 10 2.652031 10 0 
C 10 -2.652031 8.946337 -5.195799 7.071068 -7.071068 
C 5.195799 -8.946337 2.652031 -10 0 -10 
C -2.652031 -10 -5.195799 -8.946337 -7.071068 -7.071068 
C -8.946337 -5.195799 -10 -2.652031 -10 0 
C -10 2.652031 -8.946337 5.195799 -7.071068 7.071068 
C -5.195799 8.946337 -2.652031 10 0 10 
z
" id="med13efe11e" style="stroke:#000000;stroke-width:2.0;"/>
    </defs>
    <g clip-path="url(#p97071edd5d)">
     <use style="stroke:#000000;stroke-width:2.0;" x="429.65577949701714" xlink:href="#med13efe11e" y="204.64644725996828"/>
    </g>
   </g>
   <g id="line2d_6">
    <path clip-path="url(#p97071edd5d)" d="M 424.289107 176.850378 
L 428.045778 176.803491 
L 424.289107 175.035745 
L 435.022452 175.035745 
L 431.265781 176.803491 
L 435.022452 176.850378 
L 424.289107 176.850378 
" style="fill:none;stroke:#0000ff;stroke-linecap:square;"/>
    <defs>
     <path d="M 0 0 
C 0 0 0 0 0 0 
C 0 0 0 0 0 0 
C 0 0 0 0 0 0 
C 0 0 0 0 0 0 
C 0 0 0 0 0 0 
C 0 0 0 0 0 0 
C 0 0 0 0 0 0 
C 0 0 0 0 0 0 
z
" id="mdf6d9fec60" style="stroke:#0000ff;stroke-width:0.5;"/>
    </defs>
    <g clip-path="url(#p97071edd5d)">
     <use style="fill:#0000ff;stroke:#0000ff;stroke-width:0.5;" x="424.2891069912077" xlink:href="#mdf6d9fec60" y="176.85037771279696"/>
     <use style="fill:#0000ff;stroke:#0000ff;stroke-width:0.5;" x="428.0457777452744" xlink:href="#mdf6d9fec60" y="176.80349112967104"/>
     <use style="fill:#0000ff;stroke:#0000ff;stroke-width:0.5;" x="424.2891069912077" xlink:href="#mdf6d9fec60" y="175.03574474815855"/>
     <use style="fill:#0000ff;stroke:#0000ff;stroke-width:0.5;" x="435.02245200282636" xlink:href="#mdf6d9fec60" y="175.03574474815855"/>
     <use style="fill:#0000ff;stroke:#0000ff;stroke-width:0.5;" x="431.2657812487599" xlink:href="#mdf6d9fec60" y="176.80349112967104"/>
     <use style="fill:#0000ff;stroke:#0000ff;stroke-width:0.5;" x="435.02245200282636" xlink:href="#mdf6d9fec60" y="176.85037771279696"/>
     <use style="fill:#0000ff;stroke:#0000ff;stroke-width:0.5;" x="424.2891069912077" xlink:href="#mdf6d9fec60" y="176.85037771279696"/>
    </g>
   </g>
   <g id="line2d_7">
    <path clip-path="url(#p97071edd5d)" d="M 424.289107 176.850378 
L 435.022452 176.850378 
L 435.022452 175.035745 
L 424.289107 175.035745 
L 424.289107 176.850378 
" style="fill:none;"/>
    <defs>
     <path d="M 0 1.5 
C 0.397805 1.5 0.77937 1.341951 1.06066 1.06066 
C 1.341951 0.77937 1.5 0.397805 1.5 0 
C 1.5 -0.397805 1.341951 -0.77937 1.06066 -1.06066 
C 0.77937 -1.341951 0.397805 -1.5 0 -1.5 
C -0.397805 -1.5 -0.77937 -1.341951 -1.06066 -1.06066 
C -1.341951 -0.77937 -1.5 -0.397805 -1.5 0 
C -1.5 0.397805 -1.341951 0.77937 -1.06066 1.06066 
C -0.77937 1.341951 -0.397805 1.5 0 1.5 
z
" id="mb1a2d086fe" style="stroke:#0000ff;stroke-width:0.5;"/>
    </defs>
    <g clip-path="url(#p97071edd5d)">
     <use style="fill:#0000ff;stroke:#0000ff;stroke-width:0.5;" x="424.2891069912077" xlink:href="#mb1a2d086fe" y="176.85037771279696"/>
     <use style="fill:#0000ff;stroke:#0000ff;stroke-width:0.5;" x="435.02245200282636" xlink:href="#mb1a2d086fe" y="176.85037771279696"/>
     <use style="fill:#0000ff;stroke:#0000ff;stroke-width:0.5;" x="435.02245200282636" xlink:href="#mb1a2d086fe" y="175.03574474815855"/>
     <use style="fill:#0000ff;stroke:#0000ff;stroke-width:0.5;" x="424.2891069912077" xlink:href="#mb1a2d086fe" y="175.03574474815855"/>
     <use style="fill:#0000ff;stroke:#0000ff;stroke-width:0.5;" x="424.2891069912077" xlink:href="#mb1a2d086fe" y="176.85037771279696"/>
    </g>
   </g>
   <g id="line2d_8">
    <path clip-path="url(#p97071edd5d)" d="M 424.289107 176.803491 
L 435.022452 176.803491 
" style="fill:none;stroke:#0000ff;stroke-linecap:square;stroke-width:2.0;"/>
    <g clip-path="url(#p97071edd5d)">
     <use style="fill:#0000ff;stroke:#0000ff;stroke-width:0.5;" x="424.2891069912077" xlink:href="#mdf6d9fec60" y="176.80349112967104"/>
     <use style="fill:#0000ff;stroke:#0000ff;stroke-width:0.5;" x="435.02245200282636" xlink:href="#mdf6d9fec60" y="176.80349112967104"/>
    </g>
   </g>
   <g id="line2d_9">
    <path clip-path="url(#p97071edd5d)" d="M 429.655779 176.78163 
" style="fill:none;"/>
    <defs>
     <path d="M 0 5 
C 1.326016 5 2.597899 4.473168 3.535534 3.535534 
C 4.473168 2.597899 5 1.326016 5 0 
C 5 -1.326016 4.473168 -2.597899 3.535534 -3.535534 
C 2.597899 -4.473168 1.326016 -5 0 -5 
C -1.326016 -5 -2.597899 -4.473168 -3.535534 -3.535534 
C -4.473168 -2.597899 -5 -1.326016 -5 0 
C -5 1.326016 -4.473168 2.597899 -3.535534 3.535534 
C -2.597899 4.473168 -1.326016 5 0 5 
z
" id="me209e3e2dc" style="stroke:#0000ff;stroke-width:0.5;"/>
    </defs>
    <g clip-path="url(#p97071edd5d)">
     <use style="fill:#0000ff;stroke:#0000ff;stroke-width:0.5;" x="429.65577949701714" xlink:href="#me209e3e2dc" y="176.78163014182076"/>
    </g>
   </g>
   <g id="line2d_10">
    <path clip-path="url(#p97071edd5d)" d="M 422.947439 164.91434 
L 427.643277 162.463633 
L 422.947439 161.441921 
L 436.36412 161.441921 
L 431.668282 162.463633 
L 436.36412 164.91434 
L 422.947439 164.91434 
" style="fill:none;stroke:#00bfbf;stroke-linecap:square;"/>
    <defs>
     <path d="M 0 0 
L 0 0 
L 0 0 
z
" id="m91d44da506" style="stroke:#00bfbf;stroke-linejoin:miter;stroke-width:2.0;"/>
    </defs>
    <g clip-path="url(#p97071edd5d)">
     <use style="fill:#00bfbf;stroke:#00bfbf;stroke-linejoin:miter;stroke-width:2.0;" x="422.9474388647554" xlink:href="#m91d44da506" y="164.91433976096664"/>
     <use style="fill:#00bfbf;stroke:#00bfbf;stroke-linejoin:miter;stroke-width:2.0;" x="427.64327730733856" xlink:href="#m91d44da506" y="162.46363316845435"/>
     <use style="fill:#00bfbf;stroke:#00bfbf;stroke-linejoin:miter;stroke-width:2.0;" x="422.9474388647554" xlink:href="#m91d44da506" y="161.44192130467843"/>
     <use style="fill:#00bfbf;stroke:#00bfbf;stroke-linejoin:miter;stroke-width:2.0;" x="436.3641201292788" xlink:href="#m91d44da506" y="161.44192130467843"/>
     <use style="fill:#00bfbf;stroke:#00bfbf;stroke-linejoin:miter;stroke-width:2.0;" x="431.6682816866956" xlink:href="#m91d44da506" y="162.46363316845435"/>
     <use style="fill:#00bfbf;stroke:#00bfbf;stroke-linejoin:miter;stroke-width:2.0;" x="436.3641201292788" xlink:href="#m91d44da506" y="164.91433976096664"/>
     <use style="fill:#00bfbf;stroke:#00bfbf;stroke-linejoin:miter;stroke-width:2.0;" x="422.9474388647554" xlink:href="#m91d44da506" y="164.91433976096664"/>
    </g>
   </g>
   <g id="line2d_11">
    <path clip-path="url(#p97071edd5d)" d="M 422.947439 164.91434 
L 436.36412 164.91434 
L 436.36412 161.441921 
L 422.947439 161.441921 
L 422.947439 164.91434 
" style="fill:none;"/>
    <defs>
     <path d="M -0 3 
L 3 -3 
L -3 -3 
z
" id="mec3d5135fe" style="stroke:#00bfbf;stroke-linejoin:miter;stroke-width:2.0;"/>
    </defs>
    <g clip-path="url(#p97071edd5d)">
     <use style="fill:#00bfbf;stroke:#00bfbf;stroke-linejoin:miter;stroke-width:2.0;" x="422.9474388647554" xlink:href="#mec3d5135fe" y="164.91433976096664"/>
     <use style="fill:#00bfbf;stroke:#00bfbf;stroke-linejoin:miter;stroke-width:2.0;" x="436.3641201292788" xlink:href="#mec3d5135fe" y="164.91433976096664"/>
     <use style="fill:#00bfbf;stroke:#00bfbf;stroke-linejoin:miter;stroke-width:2.0;" x="436.3641201292788" xlink:href="#mec3d5135fe" y="161.44192130467843"/>
     <use style="fill:#00bfbf;stroke:#00bfbf;stroke-linejoin:miter;stroke-width:2.0;" x="422.9474388647554" xlink:href="#mec3d5135fe" y="161.44192130467843"/>
     <use style="fill:#00bfbf;stroke:#00bfbf;stroke-linejoin:miter;stroke-width:2.0;" x="422.9474388647554" xlink:href="#mec3d5135fe" y="164.91433976096664"/>
    </g>
   </g>
   <g id="line2d_12">
    <path clip-path="url(#p97071edd5d)" d="M 422.947439 162.463633 
L 436.36412 162.463633 
" style="fill:none;stroke:#00bfbf;stroke-linecap:square;stroke-width:2.0;"/>
    <g clip-path="url(#p97071edd5d)">
     <use style="fill:#00bfbf;stroke:#00bfbf;stroke-linejoin:miter;stroke-width:2.0;" x="422.9474388647554" xlink:href="#m91d44da506" y="162.46363316845435"/>
     <use style="fill:#00bfbf;stroke:#00bfbf;stroke-linejoin:miter;stroke-width:2.0;" x="436.3641201292788" xlink:href="#m91d44da506" y="162.46363316845435"/>
    </g>
   </g>
   <g id="line2d_13">
    <path clip-path="url(#p97071edd5d)" d="M 429.655779 161.989016 
" style="fill:none;"/>
    <defs>
     <path d="M -0 10 
L 10 -10 
L -10 -10 
z
" id="mc05e09b8e2" style="stroke:#000000;stroke-linejoin:miter;stroke-width:2.0;"/>
    </defs>
    <g clip-path="url(#p97071edd5d)">
     <use style="fill:#00bfbf;stroke:#000000;stroke-linejoin:miter;stroke-width:2.0;" x="429.65577949701714" xlink:href="#mc05e09b8e2" y="161.98901611345917"/>
    </g>
   </g>
   <g id="line2d_14">
    <path clip-path="url(#p97071edd5d)" d="M 421.605771 152.295947 
L 427.240777 150.874319 
L 421.605771 150.840757 
L 437.705788 150.840757 
L 432.070782 150.874319 
L 437.705788 152.295947 
L 421.605771 152.295947 
" style="fill:none;stroke:#008000;stroke-linecap:square;"/>
    <defs>
     <path d="M 0 0 
C 0 0 0 0 0 0 
C 0 0 0 0 0 0 
C 0 0 0 0 0 0 
C 0 0 0 0 0 0 
C 0 0 0 0 0 0 
C 0 0 0 0 0 0 
C 0 0 0 0 0 0 
C 0 0 0 0 0 0 
z
" id="m33d66c88b2" style="stroke:#008000;stroke-width:0.5;"/>
    </defs>
    <g clip-path="url(#p97071edd5d)">
     <use style="fill:#008000;stroke:#008000;stroke-width:0.5;" x="421.6057707383031" xlink:href="#m33d66c88b2" y="152.29594697009492"/>
     <use style="fill:#008000;stroke:#008000;stroke-width:0.5;" x="427.24077686940285" xlink:href="#m33d66c88b2" y="150.87431908863567"/>
     <use style="fill:#008000;stroke:#008000;stroke-width:0.5;" x="421.6057707383031" xlink:href="#m33d66c88b2" y="150.84075667044783"/>
     <use style="fill:#008000;stroke:#008000;stroke-width:0.5;" x="437.7057882557312" xlink:href="#m33d66c88b2" y="150.84075667044783"/>
     <use style="fill:#008000;stroke:#008000;stroke-width:0.5;" x="432.0707821246314" xlink:href="#m33d66c88b2" y="150.87431908863567"/>
     <use style="fill:#008000;stroke:#008000;stroke-width:0.5;" x="437.7057882557312" xlink:href="#m33d66c88b2" y="152.29594697009492"/>
     <use style="fill:#008000;stroke:#008000;stroke-width:0.5;" x="421.6057707383031" xlink:href="#m33d66c88b2" y="152.29594697009492"/>
    </g>
   </g>
   <g id="line2d_15">
    <path clip-path="url(#p97071edd5d)" d="M 421.605771 152.295947 
L 437.705788 152.295947 
L 437.705788 150.840757 
L 421.605771 150.840757 
L 421.605771 152.295947 
" style="fill:none;"/>
    <defs>
     <path d="M 0 1.5 
C 0.397805 1.5 0.77937 1.341951 1.06066 1.06066 
C 1.341951 0.77937 1.5 0.397805 1.5 0 
C 1.5 -0.397805 1.341951 -0.77937 1.06066 -1.06066 
C 0.77937 -1.341951 0.397805 -1.5 0 -1.5 
C -0.397805 -1.5 -0.77937 -1.341951 -1.06066 -1.06066 
C -1.341951 -0.77937 -1.5 -0.397805 -1.5 0 
C -1.5 0.397805 -1.341951 0.77937 -1.06066 1.06066 
C -0.77937 1.341951 -0.397805 1.5 0 1.5 
z
" id="mfbe1349c51" style="stroke:#008000;stroke-width:0.5;"/>
    </defs>
    <g clip-path="url(#p97071edd5d)">
     <use style="fill:#008000;stroke:#008000;stroke-width:0.5;" x="421.6057707383031" xlink:href="#mfbe1349c51" y="152.29594697009492"/>
     <use style="fill:#008000;stroke:#008000;stroke-width:0.5;" x="437.7057882557312" xlink:href="#mfbe1349c51" y="152.29594697009492"/>
     <use style="fill:#008000;stroke:#008000;stroke-width:0.5;" x="437.7057882557312" xlink:href="#mfbe1349c51" y="150.84075667044783"/>
     <use style="fill:#008000;stroke:#008000;stroke-width:0.5;" x="421.6057707383031" xlink:href="#mfbe1349c51" y="150.84075667044783"/>
     <use style="fill:#008000;stroke:#008000;stroke-width:0.5;" x="421.6057707383031" xlink:href="#mfbe1349c51" y="152.29594697009492"/>
    </g>
   </g>
   <g id="line2d_16">
    <path clip-path="url(#p97071edd5d)" d="M 421.605771 150.874319 
L 437.705788 150.874319 
" style="fill:none;stroke:#008000;stroke-linecap:square;stroke-width:2.0;"/>
    <g clip-path="url(#p97071edd5d)">
     <use style="fill:#008000;stroke:#008000;stroke-width:0.5;" x="421.6057707383031" xlink:href="#m33d66c88b2" y="150.87431908863567"/>
     <use style="fill:#008000;stroke:#008000;stroke-width:0.5;" x="437.7057882557312" xlink:href="#m33d66c88b2" y="150.87431908863567"/>
    </g>
   </g>
   <g id="line2d_17">
    <path clip-path="url(#p97071edd5d)" d="M 429.655779 151.131315 
" style="fill:none;"/>
    <defs>
     <path d="M 0 5 
C 1.326016 5 2.597899 4.473168 3.535534 3.535534 
C 4.473168 2.597899 5 1.326016 5 0 
C 5 -1.326016 4.473168 -2.597899 3.535534 -3.535534 
C 2.597899 -4.473168 1.326016 -5 0 -5 
C -1.326016 -5 -2.597899 -4.473168 -3.535534 -3.535534 
C -4.473168 -2.597899 -5 -1.326016 -5 0 
C -5 1.326016 -4.473168 2.597899 -3.535534 3.535534 
C -2.597899 4.473168 -1.326016 5 0 5 
z
" id="med39c7584e" style="stroke:#008000;stroke-width:0.5;"/>
    </defs>
    <g clip-path="url(#p97071edd5d)">
     <use style="fill:#008000;stroke:#008000;stroke-width:0.5;" x="429.65577949701714" xlink:href="#med39c7584e" y="151.13131452380236"/>
    </g>
   </g>
   <g id="line2d_18">
    <path clip-path="url(#p97071edd5d)" d="M 420.264103 144.915401 
L 426.838276 141.848888 
L 420.264103 141.682081 
L 439.047456 141.682081 
L 432.473283 141.848888 
L 439.047456 144.915401 
L 420.264103 144.915401 
" style="fill:none;stroke:#bfbf00;stroke-linecap:square;"/>
    <defs>
     <path d="M 0 0 
L 0 0 
L 0 0 
z
" id="maae0563457" style="stroke:#bfbf00;stroke-linejoin:miter;stroke-width:2.0;"/>
    </defs>
    <g clip-path="url(#p97071edd5d)">
     <use style="fill:#bfbf00;stroke:#bfbf00;stroke-linejoin:miter;stroke-width:2.0;" x="420.2641026118508" xlink:href="#maae0563457" y="144.91540080240043"/>
     <use style="fill:#bfbf00;stroke:#bfbf00;stroke-linejoin:miter;stroke-width:2.0;" x="426.83827643146725" xlink:href="#maae0563457" y="141.84888772200713"/>
     <use style="fill:#bfbf00;stroke:#bfbf00;stroke-linejoin:miter;stroke-width:2.0;" x="420.2641026118508" xlink:href="#maae0563457" y="141.68208107283903"/>
     <use style="fill:#bfbf00;stroke:#bfbf00;stroke-linejoin:miter;stroke-width:2.0;" x="439.0474563821834" xlink:href="#maae0563457" y="141.68208107283903"/>
     <use style="fill:#bfbf00;stroke:#bfbf00;stroke-linejoin:miter;stroke-width:2.0;" x="432.473282562567" xlink:href="#maae0563457" y="141.84888772200713"/>
     <use style="fill:#bfbf00;stroke:#bfbf00;stroke-linejoin:miter;stroke-width:2.0;" x="439.0474563821834" xlink:href="#maae0563457" y="144.91540080240043"/>
     <use style="fill:#bfbf00;stroke:#bfbf00;stroke-linejoin:miter;stroke-width:2.0;" x="420.2641026118508" xlink:href="#maae0563457" y="144.91540080240043"/>
    </g>
   </g>
   <g id="line2d_19">
    <path clip-path="url(#p97071edd5d)" d="M 420.264103 144.915401 
L 439.047456 144.915401 
L 439.047456 141.682081 
L 420.264103 141.682081 
L 420.264103 144.915401 
" style="fill:none;"/>
    <defs>
     <path d="M 0 -3 
L -3 3 
L 3 3 
z
" id="me152e39288" style="stroke:#bfbf00;stroke-linejoin:miter;stroke-width:2.0;"/>
    </defs>
    <g clip-path="url(#p97071edd5d)">
     <use style="fill:#bfbf00;stroke:#bfbf00;stroke-linejoin:miter;stroke-width:2.0;" x="420.2641026118508" xlink:href="#me152e39288" y="144.91540080240043"/>
     <use style="fill:#bfbf00;stroke:#bfbf00;stroke-linejoin:miter;stroke-width:2.0;" x="439.0474563821834" xlink:href="#me152e39288" y="144.91540080240043"/>
     <use style="fill:#bfbf00;stroke:#bfbf00;stroke-linejoin:miter;stroke-width:2.0;" x="439.0474563821834" xlink:href="#me152e39288" y="141.68208107283903"/>
     <use style="fill:#bfbf00;stroke:#bfbf00;stroke-linejoin:miter;stroke-width:2.0;" x="420.2641026118508" xlink:href="#me152e39288" y="141.68208107283903"/>
     <use style="fill:#bfbf00;stroke:#bfbf00;stroke-linejoin:miter;stroke-width:2.0;" x="420.2641026118508" xlink:href="#me152e39288" y="144.91540080240043"/>
    </g>
   </g>
   <g id="line2d_20">
    <path clip-path="url(#p97071edd5d)" d="M 420.264103 141.848888 
L 439.047456 141.848888 
" style="fill:none;stroke:#bfbf00;stroke-linecap:square;stroke-width:2.0;"/>
    <g clip-path="url(#p97071edd5d)">
     <use style="fill:#bfbf00;stroke:#bfbf00;stroke-linejoin:miter;stroke-width:2.0;" x="420.2641026118508" xlink:href="#maae0563457" y="141.84888772200713"/>
     <use style="fill:#bfbf00;stroke:#bfbf00;stroke-linejoin:miter;stroke-width:2.0;" x="439.0474563821834" xlink:href="#maae0563457" y="141.84888772200713"/>
    </g>
   </g>
   <g id="line2d_21">
    <path clip-path="url(#p97071edd5d)" d="M 429.655779 142.97421 
" style="fill:none;"/>
    <defs>
     <path d="M 0 -10 
L -10 10 
L 10 10 
z
" id="m0711da0fde" style="stroke:#000000;stroke-linejoin:miter;stroke-width:2.0;"/>
    </defs>
    <g clip-path="url(#p97071edd5d)">
     <use style="fill:#bfbf00;stroke:#000000;stroke-linejoin:miter;stroke-width:2.0;" x="429.65577949701714" xlink:href="#m0711da0fde" y="142.97421004432226"/>
    </g>
   </g>
   <g id="line2d_22">
    <path clip-path="url(#p97071edd5d)" d="M 418.922434 129.959937 
L 426.435776 128.773802 
L 418.922434 128.630421 
L 440.389125 128.630421 
L 432.875783 128.773802 
L 440.389125 129.959937 
L 418.922434 129.959937 
" style="fill:none;stroke:#bf00bf;stroke-linecap:square;"/>
    <defs>
     <path d="M 0 0 
C 0 0 0 0 0 0 
C 0 0 0 0 0 0 
C 0 0 0 0 0 0 
C 0 0 0 0 0 0 
C 0 0 0 0 0 0 
C 0 0 0 0 0 0 
C 0 0 0 0 0 0 
C 0 0 0 0 0 0 
z
" id="m7fee920c0c" style="stroke:#bf00bf;stroke-width:0.5;"/>
    </defs>
    <g clip-path="url(#p97071edd5d)">
     <use style="fill:#bf00bf;stroke:#bf00bf;stroke-width:0.5;" x="418.92243448539836" xlink:href="#m7fee920c0c" y="129.95993727512536"/>
     <use style="fill:#bf00bf;stroke:#bf00bf;stroke-width:0.5;" x="426.4357759935314" xlink:href="#m7fee920c0c" y="128.77380188988195"/>
     <use style="fill:#bf00bf;stroke:#bf00bf;stroke-width:0.5;" x="418.92243448539836" xlink:href="#m7fee920c0c" y="128.63042063597942"/>
     <use style="fill:#bf00bf;stroke:#bf00bf;stroke-width:0.5;" x="440.3891245086358" xlink:href="#m7fee920c0c" y="128.63042063597942"/>
     <use style="fill:#bf00bf;stroke:#bf00bf;stroke-width:0.5;" x="432.8757830005026" xlink:href="#m7fee920c0c" y="128.77380188988195"/>
     <use style="fill:#bf00bf;stroke:#bf00bf;stroke-width:0.5;" x="440.3891245086358" xlink:href="#m7fee920c0c" y="129.95993727512536"/>
     <use style="fill:#bf00bf;stroke:#bf00bf;stroke-width:0.5;" x="418.92243448539836" xlink:href="#m7fee920c0c" y="129.95993727512536"/>
    </g>
   </g>
   <g id="line2d_23">
    <path clip-path="url(#p97071edd5d)" d="M 418.922434 129.959937 
L 440.389125 129.959937 
L 440.389125 128.630421 
L 418.922434 128.630421 
L 418.922434 129.959937 
" style="fill:none;"/>
    <defs>
     <path d="M 0 1.5 
C 0.397805 1.5 0.77937 1.341951 1.06066 1.06066 
C 1.341951 0.77937 1.5 0.397805 1.5 0 
C 1.5 -0.397805 1.341951 -0.77937 1.06066 -1.06066 
C 0.77937 -1.341951 0.397805 -1.5 0 -1.5 
C -0.397805 -1.5 -0.77937 -1.341951 -1.06066 -1.06066 
C -1.341951 -0.77937 -1.5 -0.397805 -1.5 0 
C -1.5 0.397805 -1.341951 0.77937 -1.06066 1.06066 
C -0.77937 1.341951 -0.397805 1.5 0 1.5 
z
" id="m0726567bbe" style="stroke:#bf00bf;stroke-width:0.5;"/>
    </defs>
    <g clip-path="url(#p97071edd5d)">
     <use style="fill:#bf00bf;stroke:#bf00bf;stroke-width:0.5;" x="418.92243448539836" xlink:href="#m0726567bbe" y="129.95993727512536"/>
     <use style="fill:#bf00bf;stroke:#bf00bf;stroke-width:0.5;" x="440.3891245086358" xlink:href="#m0726567bbe" y="129.95993727512536"/>
     <use style="fill:#bf00bf;stroke:#bf00bf;stroke-width:0.5;" x="440.3891245086358" xlink:href="#m0726567bbe" y="128.63042063597942"/>
     <use style="fill:#bf00bf;stroke:#bf00bf;stroke-width:0.5;" x="418.92243448539836" xlink:href="#m0726567bbe" y="128.63042063597942"/>
     <use style="fill:#bf00bf;stroke:#bf00bf;stroke-width:0.5;" x="418.92243448539836" xlink:href="#m0726567bbe" y="129.95993727512536"/>
    </g>
   </g>
   <g id="line2d_24">
    <path clip-path="url(#p97071edd5d)" d="M 418.922434 128.773802 
L 440.389125 128.773802 
" style="fill:none;stroke:#bf00bf;stroke-linecap:square;stroke-width:2.0;"/>
    <g clip-path="url(#p97071edd5d)">
     <use style="fill:#bf00bf;stroke:#bf00bf;stroke-width:0.5;" x="418.92243448539836" xlink:href="#m7fee920c0c" y="128.77380188988195"/>
     <use style="fill:#bf00bf;stroke:#bf00bf;stroke-width:0.5;" x="440.3891245086358" xlink:href="#m7fee920c0c" y="128.77380188988195"/>
    </g>
   </g>
   <g id="line2d_25">
    <path clip-path="url(#p97071edd5d)" d="M 429.655779 130.021282 
" style="fill:none;"/>
    <defs>
     <path d="M 0 5 
C 1.326016 5 2.597899 4.473168 3.535534 3.535534 
C 4.473168 2.597899 5 1.326016 5 0 
C 5 -1.326016 4.473168 -2.597899 3.535534 -3.535534 
C 2.597899 -4.473168 1.326016 -5 0 -5 
C -1.326016 -5 -2.597899 -4.473168 -3.535534 -3.535534 
C -4.473168 -2.597899 -5 -1.326016 -5 0 
C -5 1.326016 -4.473168 2.597899 -3.535534 3.535534 
C -2.597899 4.473168 -1.326016 5 0 5 
z
" id="m25e21d0f4a" style="stroke:#bf00bf;stroke-width:0.5;"/>
    </defs>
    <g clip-path="url(#p97071edd5d)">
     <use style="fill:#bf00bf;stroke:#bf00bf;stroke-width:0.5;" x="429.65577949701714" xlink:href="#m25e21d0f4a" y="130.0212817785254"/>
    </g>
   </g>
   <g id="line2d_26">
    <path clip-path="url(#p97071edd5d)" d="M 417.580766 117.791885 
L 426.033276 116.908125 
L 417.580766 115.2524 
L 441.730793 115.2524 
L 433.278283 116.908125 
L 441.730793 117.791885 
L 417.580766 117.791885 
" style="fill:none;stroke:#ff0000;stroke-linecap:square;"/>
    <defs>
     <path d="M 0 0 
C 0 0 0 0 0 0 
C 0 0 0 0 0 0 
C 0 0 0 0 0 0 
C 0 0 0 0 0 0 
C 0 0 0 0 0 0 
C 0 0 0 0 0 0 
C 0 0 0 0 0 0 
C 0 0 0 0 0 0 
z
" id="meb0ef71f83" style="stroke:#ff0000;stroke-width:2.0;"/>
    </defs>
    <g clip-path="url(#p97071edd5d)">
     <use style="fill:#ff0000;stroke:#ff0000;stroke-width:2.0;" x="417.58076635894605" xlink:href="#meb0ef71f83" y="117.79188484151047"/>
     <use style="fill:#ff0000;stroke:#ff0000;stroke-width:2.0;" x="426.0332755555957" xlink:href="#meb0ef71f83" y="116.90812538143467"/>
     <use style="fill:#ff0000;stroke:#ff0000;stroke-width:2.0;" x="417.58076635894605" xlink:href="#meb0ef71f83" y="115.25240023899931"/>
     <use style="fill:#ff0000;stroke:#ff0000;stroke-width:2.0;" x="441.730792635088" xlink:href="#meb0ef71f83" y="115.25240023899931"/>
     <use style="fill:#ff0000;stroke:#ff0000;stroke-width:2.0;" x="433.27828343843834" xlink:href="#meb0ef71f83" y="116.90812538143467"/>
     <use style="fill:#ff0000;stroke:#ff0000;stroke-width:2.0;" x="441.730792635088" xlink:href="#meb0ef71f83" y="117.79188484151047"/>
     <use style="fill:#ff0000;stroke:#ff0000;stroke-width:2.0;" x="417.58076635894605" xlink:href="#meb0ef71f83" y="117.79188484151047"/>
    </g>
   </g>
   <g id="line2d_27">
    <path clip-path="url(#p97071edd5d)" d="M 417.580766 117.791885 
L 441.730793 117.791885 
L 441.730793 115.2524 
L 417.580766 115.2524 
L 417.580766 117.791885 
" style="fill:none;"/>
    <defs>
     <path d="M 0 3 
C 0.795609 3 1.55874 2.683901 2.12132 2.12132 
C 2.683901 1.55874 3 0.795609 3 0 
C 3 -0.795609 2.683901 -1.55874 2.12132 -2.12132 
C 1.55874 -2.683901 0.795609 -3 0 -3 
C -0.795609 -3 -1.55874 -2.683901 -2.12132 -2.12132 
C -2.683901 -1.55874 -3 -0.795609 -3 0 
C -3 0.795609 -2.683901 1.55874 -2.12132 2.12132 
C -1.55874 2.683901 -0.795609 3 0 3 
z
" id="mb7fbdf0ce0" style="stroke:#ff0000;stroke-width:2.0;"/>
    </defs>
    <g clip-path="url(#p97071edd5d)">
     <use style="fill:#ff0000;stroke:#ff0000;stroke-width:2.0;" x="417.58076635894605" xlink:href="#mb7fbdf0ce0" y="117.79188484151047"/>
     <use style="fill:#ff0000;stroke:#ff0000;stroke-width:2.0;" x="441.730792635088" xlink:href="#mb7fbdf0ce0" y="117.79188484151047"/>
     <use style="fill:#ff0000;stroke:#ff0000;stroke-width:2.0;" x="441.730792635088" xlink:href="#mb7fbdf0ce0" y="115.25240023899931"/>
     <use style="fill:#ff0000;stroke:#ff0000;stroke-width:2.0;" x="417.58076635894605" xlink:href="#mb7fbdf0ce0" y="115.25240023899931"/>
     <use style="fill:#ff0000;stroke:#ff0000;stroke-width:2.0;" x="417.58076635894605" xlink:href="#mb7fbdf0ce0" y="117.79188484151047"/>
    </g>
   </g>
   <g id="line2d_28">
    <path clip-path="url(#p97071edd5d)" d="M 417.580766 116.908125 
L 441.730793 116.908125 
" style="fill:none;stroke:#ff0000;stroke-linecap:square;stroke-width:2.0;"/>
    <g clip-path="url(#p97071edd5d)">
     <use style="fill:#ff0000;stroke:#ff0000;stroke-width:2.0;" x="417.58076635894605" xlink:href="#meb0ef71f83" y="116.90812538143467"/>
     <use style="fill:#ff0000;stroke:#ff0000;stroke-width:2.0;" x="441.730792635088" xlink:href="#meb0ef71f83" y="116.90812538143467"/>
    </g>
   </g>
   <g id="line2d_29">
    <path clip-path="url(#p97071edd5d)" d="M 429.655779 116.245942 
" style="fill:none;"/>
    <defs>
     <path d="M 0 10 
C 2.652031 10 5.195799 8.946337 7.071068 7.071068 
C 8.946337 5.195799 10 2.652031 10 0 
C 10 -2.652031 8.946337 -5.195799 7.071068 -7.071068 
C 5.195799 -8.946337 2.652031 -10 0 -10 
C -2.652031 -10 -5.195799 -8.946337 -7.071068 -7.071068 
C -8.946337 -5.195799 -10 -2.652031 -10 0 
C -10 2.652031 -8.946337 5.195799 -7.071068 7.071068 
C -5.195799 8.946337 -2.652031 10 0 10 
z
" id="mf008e86d26" style="stroke:#000000;stroke-width:2.0;"/>
    </defs>
    <g clip-path="url(#p97071edd5d)">
     <use style="fill:#ff0000;stroke:#000000;stroke-width:2.0;" x="429.65577949701714" xlink:href="#mf008e86d26" y="116.24594182121007"/>
    </g>
   </g>
   <g id="line2d_30"/>
   <g id="line2d_31"/>
   <g id="line2d_32"/>
   <g id="line2d_33"/>
   <g id="line2d_34"/>
   <g id="line2d_35"/>
   <g id="line2d_36"/>
   <g id="line2d_37">
    <defs>
     <path d="M -10 10 
L 10 -10 
M -10 -10 
L 10 10 
" id="m6c77185fb3" style="stroke:#ff0000;stroke-width:0.5;"/>
    </defs>
    <g clip-path="url(#p97071edd5d)">
     <use style="fill:#ff0000;stroke:#ff0000;stroke-width:0.5;" x="429.65577949701714" xlink:href="#m6c77185fb3" y="114.17798265910454"/>
    </g>
   </g>
   <g id="line2d_38">
    <path clip-path="url(#p97071edd5d)" d="M -348.260292 561.457126 
M 212.238196 433 
L 577 349.402534 
" style="fill:none;stroke:#000000;stroke-dasharray:1.000000,3.000000;stroke-dashoffset:0.0;stroke-width:0.5;"/>
   </g>
   <g id="line2d_39">
    <path clip-path="url(#p97071edd5d)" d="M -348.260292 472.314278 
M -1 392.727874 
L 577 260.259687 
" style="fill:none;stroke:#000000;stroke-dasharray:1.000000,3.000000;stroke-dashoffset:0.0;stroke-width:0.5;"/>
   </g>
   <g id="line2d_40">
    <path clip-path="url(#p97071edd5d)" d="M -348.260292 383.17143 
M -1 303.585026 
L 577 171.116839 
" style="fill:none;stroke:#000000;stroke-dasharray:1.000000,3.000000;stroke-dashoffset:0.0;stroke-width:0.5;"/>
   </g>
   <g id="line2d_41">
    <path clip-path="url(#p97071edd5d)" d="M -348.260292 294.028582 
M -1 214.442178 
L 577 81.973991 
" style="fill:none;stroke:#000000;stroke-dasharray:1.000000,3.000000;stroke-dashoffset:0.0;stroke-width:0.5;"/>
   </g>
   <g id="line2d_42">
    <path clip-path="url(#p97071edd5d)" d="M -348.260292 204.885735 
M -1 125.29933 
L 550.083353 -1 
" style="fill:none;stroke:#000000;stroke-dasharray:1.000000,3.000000;stroke-dashoffset:0.0;stroke-width:0.5;"/>
   </g>
   <g id="line2d_43">
    <path clip-path="url(#p97071edd5d)" d="M -348.260292 115.742887 
M -1 36.156483 
L 161.125317 -1 
" style="fill:none;stroke:#000000;stroke-dasharray:1.000000,3.000000;stroke-dashoffset:0.0;stroke-width:0.5;"/>
   </g>
   <g id="line2d_44">
    <path clip-path="url(#p97071edd5d)" d="M -348.260292 26.600039 
" style="fill:none;stroke:#000000;stroke-dasharray:1.000000,3.000000;stroke-dashoffset:0.0;stroke-width:0.5;"/>
   </g>
   <g id="line2d_45">
    <path clip-path="url(#p97071edd5d)" d="M -348.260292 -62.542809 
" style="fill:none;stroke:#000000;stroke-dasharray:1.000000,3.000000;stroke-dashoffset:0.0;stroke-width:0.5;"/>
   </g>
   <g id="line2d_46">
    <path clip-path="url(#p97071edd5d)" d="M -348.260292 -151.685657 
" style="fill:none;stroke:#000000;stroke-dasharray:1.000000,3.000000;stroke-dashoffset:0.0;stroke-width:0.5;"/>
   </g>
   <g id="patch_3">
    <path d="M 22.9 401 
L 566.64 401 
" style="fill:none;stroke:#000000;stroke-linecap:square;stroke-linejoin:miter;"/>
   </g>
   <g id="patch_4">
    <path d="M 566.64 401 
L 566.64 26.6 
" style="fill:none;stroke:#000000;stroke-linecap:square;stroke-linejoin:miter;"/>
   </g>
   <g id="patch_5">
    <path d="M 22.9 26.6 
L 566.64 26.6 
" style="fill:none;stroke:#000000;stroke-linecap:square;stroke-linejoin:miter;"/>
   </g>
   <g id="patch_6">
    <path d="M 22.9 401 
L 22.9 26.6 
" style="fill:none;stroke:#000000;stroke-linecap:square;stroke-linejoin:miter;"/>
   </g>
   <g id="matplotlib.axis_1">
    <g id="xtick_1">
     <g id="line2d_47">
      <defs>
       <path d="M 0 0 
L 0 -4 
" id="m979c305b67" style="stroke:#000000;stroke-width:0.5;"/>
      </defs>
      <g>
       <use style="stroke:#000000;stroke-width:0.5;" x="40.69774365360371" xlink:href="#m979c305b67" y="401.0"/>
      </g>
     </g>
     <g id="line2d_48">
      <defs>
       <path d="M 0 0 
L 0 4 
" id="m552ee22669" style="stroke:#000000;stroke-width:0.5;"/>
      </defs>
      <g>
       <use style="stroke:#000000;stroke-width:0.5;" x="40.69774365360371" xlink:href="#m552ee22669" y="26.599999999999966"/>
      </g>
     </g>
     <g id="text_1">
      <!-- 2 -->
      <defs>
       <path d="M 19.1875 8.296875 
L 53.609375 8.296875 
L 53.609375 0 
L 7.328125 0 
L 7.328125 8.296875 
Q 12.9375 14.109375 22.625 23.890625 
Q 32.328125 33.6875 34.8125 36.53125 
Q 39.546875 41.84375 41.421875 45.53125 
Q 43.3125 49.21875 43.3125 52.78125 
Q 43.3125 58.59375 39.234375 62.25 
Q 35.15625 65.921875 28.609375 65.921875 
Q 23.96875 65.921875 18.8125 64.3125 
Q 13.671875 62.703125 7.8125 59.421875 
L 7.8125 69.390625 
Q 13.765625 71.78125 18.9375 73 
Q 24.125 74.21875 28.421875 74.21875 
Q 39.75 74.21875 46.484375 68.546875 
Q 53.21875 62.890625 53.21875 53.421875 
Q 53.21875 48.921875 51.53125 44.890625 
Q 49.859375 40.875 45.40625 35.40625 
Q 44.1875 33.984375 37.640625 27.21875 
Q 31.109375 20.453125 19.1875 8.296875 
" id="BitstreamVeraSans-Roman-32"/>
      </defs>
      <g transform="translate(33.06274365360371 423.23625)scale(0.24 -0.24)">
       <use xlink:href="#BitstreamVeraSans-Roman-32"/>
      </g>
     </g>
    </g>
    <g id="xtick_2">
     <g id="line2d_49">
      <g>
       <use style="stroke:#000000;stroke-width:0.5;" x="109.18985390509516" xlink:href="#m979c305b67" y="401.0"/>
      </g>
     </g>
     <g id="line2d_50">
      <g>
       <use style="stroke:#000000;stroke-width:0.5;" x="109.18985390509516" xlink:href="#m552ee22669" y="26.599999999999966"/>
      </g>
     </g>
     <g id="text_2">
      <!-- 3 -->
      <defs>
       <path d="M 40.578125 39.3125 
Q 47.65625 37.796875 51.625 33 
Q 55.609375 28.21875 55.609375 21.1875 
Q 55.609375 10.40625 48.1875 4.484375 
Q 40.765625 -1.421875 27.09375 -1.421875 
Q 22.515625 -1.421875 17.65625 -0.515625 
Q 12.796875 0.390625 7.625 2.203125 
L 7.625 11.71875 
Q 11.71875 9.328125 16.59375 8.109375 
Q 21.484375 6.890625 26.8125 6.890625 
Q 36.078125 6.890625 40.9375 10.546875 
Q 45.796875 14.203125 45.796875 21.1875 
Q 45.796875 27.640625 41.28125 31.265625 
Q 36.765625 34.90625 28.71875 34.90625 
L 20.21875 34.90625 
L 20.21875 43.015625 
L 29.109375 43.015625 
Q 36.375 43.015625 40.234375 45.921875 
Q 44.09375 48.828125 44.09375 54.296875 
Q 44.09375 59.90625 40.109375 62.90625 
Q 36.140625 65.921875 28.71875 65.921875 
Q 24.65625 65.921875 20.015625 65.03125 
Q 15.375 64.15625 9.8125 62.3125 
L 9.8125 71.09375 
Q 15.4375 72.65625 20.34375 73.4375 
Q 25.25 74.21875 29.59375 74.21875 
Q 40.828125 74.21875 47.359375 69.109375 
Q 53.90625 64.015625 53.90625 55.328125 
Q 53.90625 49.265625 50.4375 45.09375 
Q 46.96875 40.921875 40.578125 39.3125 
" id="BitstreamVeraSans-Roman-33"/>
      </defs>
      <g transform="translate(101.55485390509516 423.23625)scale(0.24 -0.24)">
       <use xlink:href="#BitstreamVeraSans-Roman-33"/>
      </g>
     </g>
    </g>
    <g id="xtick_3">
     <g id="line2d_51">
      <g>
       <use style="stroke:#000000;stroke-width:0.5;" x="195.4797078101903" xlink:href="#m979c305b67" y="401.0"/>
      </g>
     </g>
     <g id="line2d_52">
      <g>
       <use style="stroke:#000000;stroke-width:0.5;" x="195.4797078101903" xlink:href="#m552ee22669" y="26.599999999999966"/>
      </g>
     </g>
     <g id="text_3">
      <!-- 5 -->
      <defs>
       <path d="M 10.796875 72.90625 
L 49.515625 72.90625 
L 49.515625 64.59375 
L 19.828125 64.59375 
L 19.828125 46.734375 
Q 21.96875 47.46875 24.109375 47.828125 
Q 26.265625 48.1875 28.421875 48.1875 
Q 40.625 48.1875 47.75 41.5 
Q 54.890625 34.8125 54.890625 23.390625 
Q 54.890625 11.625 47.5625 5.09375 
Q 40.234375 -1.421875 26.90625 -1.421875 
Q 22.3125 -1.421875 17.546875 -0.640625 
Q 12.796875 0.140625 7.71875 1.703125 
L 7.71875 11.625 
Q 12.109375 9.234375 16.796875 8.0625 
Q 21.484375 6.890625 26.703125 6.890625 
Q 35.15625 6.890625 40.078125 11.328125 
Q 45.015625 15.765625 45.015625 23.390625 
Q 45.015625 31 40.078125 35.4375 
Q 35.15625 39.890625 26.703125 39.890625 
Q 22.75 39.890625 18.8125 39.015625 
Q 14.890625 38.140625 10.796875 36.28125 
z
" id="BitstreamVeraSans-Roman-35"/>
      </defs>
      <g transform="translate(187.8447078101903 423.23625)scale(0.24 -0.24)">
       <use xlink:href="#BitstreamVeraSans-Roman-35"/>
      </g>
     </g>
    </g>
    <g id="xtick_4">
     <g id="line2d_53">
      <g>
       <use style="stroke:#000000;stroke-width:0.5;" x="312.5677436536037" xlink:href="#m979c305b67" y="401.0"/>
      </g>
     </g>
     <g id="line2d_54">
      <g>
       <use style="stroke:#000000;stroke-width:0.5;" x="312.5677436536037" xlink:href="#m552ee22669" y="26.599999999999966"/>
      </g>
     </g>
     <g id="text_4">
      <!-- 10 -->
      <defs>
       <path d="M 31.78125 66.40625 
Q 24.171875 66.40625 20.328125 58.90625 
Q 16.5 51.421875 16.5 36.375 
Q 16.5 21.390625 20.328125 13.890625 
Q 24.171875 6.390625 31.78125 6.390625 
Q 39.453125 6.390625 43.28125 13.890625 
Q 47.125 21.390625 47.125 36.375 
Q 47.125 51.421875 43.28125 58.90625 
Q 39.453125 66.40625 31.78125 66.40625 
M 31.78125 74.21875 
Q 44.046875 74.21875 50.515625 64.515625 
Q 56.984375 54.828125 56.984375 36.375 
Q 56.984375 17.96875 50.515625 8.265625 
Q 44.046875 -1.421875 31.78125 -1.421875 
Q 19.53125 -1.421875 13.0625 8.265625 
Q 6.59375 17.96875 6.59375 36.375 
Q 6.59375 54.828125 13.0625 64.515625 
Q 19.53125 74.21875 31.78125 74.21875 
" id="BitstreamVeraSans-Roman-30"/>
       <path d="M 12.40625 8.296875 
L 28.515625 8.296875 
L 28.515625 63.921875 
L 10.984375 60.40625 
L 10.984375 69.390625 
L 28.421875 72.90625 
L 38.28125 72.90625 
L 38.28125 8.296875 
L 54.390625 8.296875 
L 54.390625 0 
L 12.40625 0 
z
" id="BitstreamVeraSans-Roman-31"/>
      </defs>
      <g transform="translate(297.29774365360373 423.23625)scale(0.24 -0.24)">
       <use xlink:href="#BitstreamVeraSans-Roman-31"/>
       <use x="63.623046875" xlink:href="#BitstreamVeraSans-Roman-30"/>
      </g>
     </g>
    </g>
    <g id="xtick_5">
     <g id="line2d_55">
      <g>
       <use style="stroke:#000000;stroke-width:0.5;" x="429.65577949701714" xlink:href="#m979c305b67" y="401.0"/>
      </g>
     </g>
     <g id="line2d_56">
      <g>
       <use style="stroke:#000000;stroke-width:0.5;" x="429.65577949701714" xlink:href="#m552ee22669" y="26.599999999999966"/>
      </g>
     </g>
     <g id="text_5">
      <!-- 20 -->
      <g transform="translate(414.38577949701715 423.23625)scale(0.24 -0.24)">
       <use xlink:href="#BitstreamVeraSans-Roman-32"/>
       <use x="63.623046875" xlink:href="#BitstreamVeraSans-Roman-30"/>
      </g>
     </g>
    </g>
    <g id="xtick_6">
     <g id="line2d_57">
      <g>
       <use style="stroke:#000000;stroke-width:0.5;" x="546.7438153404305" xlink:href="#m979c305b67" y="401.0"/>
      </g>
     </g>
     <g id="line2d_58">
      <g>
       <use style="stroke:#000000;stroke-width:0.5;" x="546.7438153404305" xlink:href="#m552ee22669" y="26.599999999999966"/>
      </g>
     </g>
     <g id="text_6">
      <!-- 40 -->
      <defs>
       <path d="M 37.796875 64.3125 
L 12.890625 25.390625 
L 37.796875 25.390625 
z
M 35.203125 72.90625 
L 47.609375 72.90625 
L 47.609375 25.390625 
L 58.015625 25.390625 
L 58.015625 17.1875 
L 47.609375 17.1875 
L 47.609375 0 
L 37.796875 0 
L 37.796875 17.1875 
L 4.890625 17.1875 
L 4.890625 26.703125 
z
" id="BitstreamVeraSans-Roman-34"/>
      </defs>
      <g transform="translate(531.4738153404305 423.23625)scale(0.24 -0.24)">
       <use xlink:href="#BitstreamVeraSans-Roman-34"/>
       <use x="63.623046875" xlink:href="#BitstreamVeraSans-Roman-30"/>
      </g>
     </g>
    </g>
    <g id="xtick_7">
     <g id="line2d_59">
      <defs>
       <path d="M 0 0 
L 0 -2 
" id="m241a576ce1" style="stroke:#000000;stroke-width:0.5;"/>
      </defs>
      <g>
       <use style="stroke:#000000;stroke-width:0.5;" x="40.69774365360371" xlink:href="#m241a576ce1" y="401.0"/>
      </g>
     </g>
     <g id="line2d_60">
      <defs>
       <path d="M 0 0 
L 0 2 
" id="mbf8317d7df" style="stroke:#000000;stroke-width:0.5;"/>
      </defs>
      <g>
       <use style="stroke:#000000;stroke-width:0.5;" x="40.69774365360371" xlink:href="#mbf8317d7df" y="26.599999999999966"/>
      </g>
     </g>
    </g>
    <g id="xtick_8">
     <g id="line2d_61">
      <g>
       <use style="stroke:#000000;stroke-width:0.5;" x="109.18985390509516" xlink:href="#m241a576ce1" y="401.0"/>
      </g>
     </g>
     <g id="line2d_62">
      <g>
       <use style="stroke:#000000;stroke-width:0.5;" x="109.18985390509516" xlink:href="#mbf8317d7df" y="26.599999999999966"/>
      </g>
     </g>
    </g>
    <g id="xtick_9">
     <g id="line2d_63">
      <g>
       <use style="stroke:#000000;stroke-width:0.5;" x="157.78577949701713" xlink:href="#m241a576ce1" y="401.0"/>
      </g>
     </g>
     <g id="line2d_64">
      <g>
       <use style="stroke:#000000;stroke-width:0.5;" x="157.78577949701713" xlink:href="#mbf8317d7df" y="26.599999999999966"/>
      </g>
     </g>
    </g>
    <g id="xtick_10">
     <g id="line2d_65">
      <g>
       <use style="stroke:#000000;stroke-width:0.5;" x="195.4797078101903" xlink:href="#m241a576ce1" y="401.0"/>
      </g>
     </g>
     <g id="line2d_66">
      <g>
       <use style="stroke:#000000;stroke-width:0.5;" x="195.4797078101903" xlink:href="#mbf8317d7df" y="26.599999999999966"/>
      </g>
     </g>
    </g>
    <g id="xtick_11">
     <g id="line2d_67">
      <g>
       <use style="stroke:#000000;stroke-width:0.5;" x="226.27788974850858" xlink:href="#m241a576ce1" y="401.0"/>
      </g>
     </g>
     <g id="line2d_68">
      <g>
       <use style="stroke:#000000;stroke-width:0.5;" x="226.27788974850858" xlink:href="#mbf8317d7df" y="26.599999999999966"/>
      </g>
     </g>
    </g>
    <g id="xtick_12">
     <g id="line2d_69">
      <g>
       <use style="stroke:#000000;stroke-width:0.5;" x="252.3173815492541" xlink:href="#m241a576ce1" y="401.0"/>
      </g>
     </g>
     <g id="line2d_70">
      <g>
       <use style="stroke:#000000;stroke-width:0.5;" x="252.3173815492541" xlink:href="#mbf8317d7df" y="26.599999999999966"/>
      </g>
     </g>
    </g>
    <g id="xtick_13">
     <g id="line2d_71">
      <g>
       <use style="stroke:#000000;stroke-width:0.5;" x="274.87381534043044" xlink:href="#m241a576ce1" y="401.0"/>
      </g>
     </g>
     <g id="line2d_72">
      <g>
       <use style="stroke:#000000;stroke-width:0.5;" x="274.87381534043044" xlink:href="#mbf8317d7df" y="26.599999999999966"/>
      </g>
     </g>
    </g>
    <g id="xtick_14">
     <g id="line2d_73">
      <g>
       <use style="stroke:#000000;stroke-width:0.5;" x="294.7699999999999" xlink:href="#m241a576ce1" y="401.0"/>
      </g>
     </g>
     <g id="line2d_74">
      <g>
       <use style="stroke:#000000;stroke-width:0.5;" x="294.7699999999999" xlink:href="#mbf8317d7df" y="26.599999999999966"/>
      </g>
     </g>
    </g>
    <g id="xtick_15">
     <g id="line2d_75">
      <g>
       <use style="stroke:#000000;stroke-width:0.5;" x="429.65577949701714" xlink:href="#m241a576ce1" y="401.0"/>
      </g>
     </g>
     <g id="line2d_76">
      <g>
       <use style="stroke:#000000;stroke-width:0.5;" x="429.65577949701714" xlink:href="#mbf8317d7df" y="26.599999999999966"/>
      </g>
     </g>
    </g>
    <g id="xtick_16">
     <g id="line2d_77">
      <g>
       <use style="stroke:#000000;stroke-width:0.5;" x="498.1478897485086" xlink:href="#m241a576ce1" y="401.0"/>
      </g>
     </g>
     <g id="line2d_78">
      <g>
       <use style="stroke:#000000;stroke-width:0.5;" x="498.1478897485086" xlink:href="#mbf8317d7df" y="26.599999999999966"/>
      </g>
     </g>
    </g>
    <g id="xtick_17">
     <g id="line2d_79">
      <g>
       <use style="stroke:#000000;stroke-width:0.5;" x="546.7438153404305" xlink:href="#m241a576ce1" y="401.0"/>
      </g>
     </g>
     <g id="line2d_80">
      <g>
       <use style="stroke:#000000;stroke-width:0.5;" x="546.7438153404305" xlink:href="#mbf8317d7df" y="26.599999999999966"/>
      </g>
     </g>
    </g>
   </g>
   <g id="matplotlib.axis_2">
    <g id="ytick_1">
     <g id="line2d_81">
      <path clip-path="url(#p97071edd5d)" d="M 22.9 383.17143 
L 566.64 383.17143 
" style="fill:none;stroke:#000000;stroke-dasharray:1.000000,3.000000;stroke-dashoffset:0.0;stroke-width:0.5;"/>
     </g>
     <g id="line2d_82">
      <defs>
       <path d="M 0 0 
L 4 0 
" id="mdb043e5eab" style="stroke:#000000;stroke-width:0.5;"/>
      </defs>
      <g>
       <use style="stroke:#000000;stroke-width:0.5;" x="22.899999999999995" xlink:href="#mdb043e5eab" y="383.1714304149632"/>
      </g>
     </g>
     <g id="line2d_83">
      <defs>
       <path d="M 0 0 
L -4 0 
" id="ma562082022" style="stroke:#000000;stroke-width:0.5;"/>
      </defs>
      <g>
       <use style="stroke:#000000;stroke-width:0.5;" x="566.64" xlink:href="#ma562082022" y="383.1714304149632"/>
      </g>
     </g>
     <g id="text_7">
      <!-- 0 -->
      <g transform="translate(3.6299999999999955 389.7939304149632)scale(0.24 -0.24)">
       <use xlink:href="#BitstreamVeraSans-Roman-30"/>
      </g>
     </g>
    </g>
    <g id="ytick_2">
     <g id="line2d_84">
      <path clip-path="url(#p97071edd5d)" d="M 22.9 294.028582 
L 566.64 294.028582 
" style="fill:none;stroke:#000000;stroke-dasharray:1.000000,3.000000;stroke-dashoffset:0.0;stroke-width:0.5;"/>
     </g>
     <g id="line2d_85">
      <g>
       <use style="stroke:#000000;stroke-width:0.5;" x="22.899999999999995" xlink:href="#mdb043e5eab" y="294.0285824897793"/>
      </g>
     </g>
     <g id="line2d_86">
      <g>
       <use style="stroke:#000000;stroke-width:0.5;" x="566.64" xlink:href="#ma562082022" y="294.0285824897793"/>
      </g>
     </g>
     <g id="text_8">
      <!-- 1 -->
      <g transform="translate(3.6299999999999955 300.6510824897793)scale(0.24 -0.24)">
       <use xlink:href="#BitstreamVeraSans-Roman-31"/>
      </g>
     </g>
    </g>
    <g id="ytick_3">
     <g id="line2d_87">
      <path clip-path="url(#p97071edd5d)" d="M 22.9 204.885735 
L 566.64 204.885735 
" style="fill:none;stroke:#000000;stroke-dasharray:1.000000,3.000000;stroke-dashoffset:0.0;stroke-width:0.5;"/>
     </g>
     <g id="line2d_88">
      <g>
       <use style="stroke:#000000;stroke-width:0.5;" x="22.899999999999995" xlink:href="#mdb043e5eab" y="204.88573456459534"/>
      </g>
     </g>
     <g id="line2d_89">
      <g>
       <use style="stroke:#000000;stroke-width:0.5;" x="566.64" xlink:href="#ma562082022" y="204.88573456459534"/>
      </g>
     </g>
     <g id="text_9">
      <!-- 2 -->
      <g transform="translate(3.6299999999999955 211.50823456459537)scale(0.24 -0.24)">
       <use xlink:href="#BitstreamVeraSans-Roman-32"/>
      </g>
     </g>
    </g>
    <g id="ytick_4">
     <g id="line2d_90">
      <path clip-path="url(#p97071edd5d)" d="M 22.9 115.742887 
L 566.64 115.742887 
" style="fill:none;stroke:#000000;stroke-dasharray:1.000000,3.000000;stroke-dashoffset:0.0;stroke-width:0.5;"/>
     </g>
     <g id="line2d_91">
      <g>
       <use style="stroke:#000000;stroke-width:0.5;" x="22.899999999999995" xlink:href="#mdb043e5eab" y="115.74288663941144"/>
      </g>
     </g>
     <g id="line2d_92">
      <g>
       <use style="stroke:#000000;stroke-width:0.5;" x="566.64" xlink:href="#ma562082022" y="115.74288663941144"/>
      </g>
     </g>
     <g id="text_10">
      <!-- 3 -->
      <g transform="translate(3.6299999999999955 122.3653866394115)scale(0.24 -0.24)">
       <use xlink:href="#BitstreamVeraSans-Roman-33"/>
      </g>
     </g>
    </g>
    <g id="ytick_5">
     <g id="line2d_93">
      <path clip-path="url(#p97071edd5d)" d="M 22.9 26.600039 
L 566.64 26.600039 
" style="fill:none;stroke:#000000;stroke-dasharray:1.000000,3.000000;stroke-dashoffset:0.0;stroke-width:0.5;"/>
     </g>
     <g id="line2d_94">
      <g>
       <use style="stroke:#000000;stroke-width:0.5;" x="22.899999999999995" xlink:href="#mdb043e5eab" y="26.600038714227537"/>
      </g>
     </g>
     <g id="line2d_95">
      <g>
       <use style="stroke:#000000;stroke-width:0.5;" x="566.64" xlink:href="#ma562082022" y="26.600038714227537"/>
      </g>
     </g>
     <g id="text_11">
      <!-- 4 -->
      <g transform="translate(3.6299999999999955 33.222538714227596)scale(0.24 -0.24)">
       <use xlink:href="#BitstreamVeraSans-Roman-34"/>
      </g>
     </g>
    </g>
    <g id="ytick_6">
     <g id="line2d_96">
      <defs>
       <path d="M 0 0 
L 2 0 
" id="mda9072babb" style="stroke:#000000;stroke-width:0.5;"/>
      </defs>
      <g>
       <use style="stroke:#000000;stroke-width:0.5;" x="22.899999999999995" xlink:href="#mda9072babb" y="396.9798322772852"/>
      </g>
     </g>
     <g id="line2d_97">
      <defs>
       <path d="M 0 0 
L -2 0 
" id="md20cb27952" style="stroke:#000000;stroke-width:0.5;"/>
      </defs>
      <g>
       <use style="stroke:#000000;stroke-width:0.5;" x="566.64" xlink:href="#md20cb27952" y="396.9798322772852"/>
      </g>
     </g>
    </g>
    <g id="ytick_7">
     <g id="line2d_98">
      <g>
       <use style="stroke:#000000;stroke-width:0.5;" x="22.899999999999995" xlink:href="#mda9072babb" y="391.81026496696796"/>
      </g>
     </g>
     <g id="line2d_99">
      <g>
       <use style="stroke:#000000;stroke-width:0.5;" x="566.64" xlink:href="#md20cb27952" y="391.81026496696796"/>
      </g>
     </g>
    </g>
    <g id="ytick_8">
     <g id="line2d_100">
      <g>
       <use style="stroke:#000000;stroke-width:0.5;" x="22.899999999999995" xlink:href="#mda9072babb" y="387.2503834374515"/>
      </g>
     </g>
     <g id="line2d_101">
      <g>
       <use style="stroke:#000000;stroke-width:0.5;" x="566.64" xlink:href="#md20cb27952" y="387.2503834374515"/>
      </g>
     </g>
    </g>
    <g id="ytick_9">
     <g id="line2d_102">
      <g>
       <use style="stroke:#000000;stroke-width:0.5;" x="22.899999999999995" xlink:href="#mda9072babb" y="356.3367592905701"/>
      </g>
     </g>
     <g id="line2d_103">
      <g>
       <use style="stroke:#000000;stroke-width:0.5;" x="566.64" xlink:href="#md20cb27952" y="356.3367592905701"/>
      </g>
     </g>
    </g>
    <g id="ytick_10">
     <g id="line2d_104">
      <g>
       <use style="stroke:#000000;stroke-width:0.5;" x="22.899999999999995" xlink:href="#mda9072babb" y="340.63948296361536"/>
      </g>
     </g>
     <g id="line2d_105">
      <g>
       <use style="stroke:#000000;stroke-width:0.5;" x="566.64" xlink:href="#md20cb27952" y="340.63948296361536"/>
      </g>
     </g>
    </g>
    <g id="ytick_11">
     <g id="line2d_106">
      <g>
       <use style="stroke:#000000;stroke-width:0.5;" x="22.899999999999995" xlink:href="#mda9072babb" y="329.5020881661771"/>
      </g>
     </g>
     <g id="line2d_107">
      <g>
       <use style="stroke:#000000;stroke-width:0.5;" x="566.64" xlink:href="#md20cb27952" y="329.5020881661771"/>
      </g>
     </g>
    </g>
    <g id="ytick_12">
     <g id="line2d_108">
      <g>
       <use style="stroke:#000000;stroke-width:0.5;" x="22.899999999999995" xlink:href="#mda9072babb" y="320.8632536141723"/>
      </g>
     </g>
     <g id="line2d_109">
      <g>
       <use style="stroke:#000000;stroke-width:0.5;" x="566.64" xlink:href="#md20cb27952" y="320.8632536141723"/>
      </g>
     </g>
    </g>
    <g id="ytick_13">
     <g id="line2d_110">
      <g>
       <use style="stroke:#000000;stroke-width:0.5;" x="22.899999999999995" xlink:href="#mda9072babb" y="313.80481183922234"/>
      </g>
     </g>
     <g id="line2d_111">
      <g>
       <use style="stroke:#000000;stroke-width:0.5;" x="566.64" xlink:href="#md20cb27952" y="313.80481183922234"/>
      </g>
     </g>
    </g>
    <g id="ytick_14">
     <g id="line2d_112">
      <g>
       <use style="stroke:#000000;stroke-width:0.5;" x="22.899999999999995" xlink:href="#mda9072babb" y="307.8369843521013"/>
      </g>
     </g>
     <g id="line2d_113">
      <g>
       <use style="stroke:#000000;stroke-width:0.5;" x="566.64" xlink:href="#md20cb27952" y="307.8369843521013"/>
      </g>
     </g>
    </g>
    <g id="ytick_15">
     <g id="line2d_114">
      <g>
       <use style="stroke:#000000;stroke-width:0.5;" x="22.899999999999995" xlink:href="#mda9072babb" y="302.667417041784"/>
      </g>
     </g>
     <g id="line2d_115">
      <g>
       <use style="stroke:#000000;stroke-width:0.5;" x="566.64" xlink:href="#md20cb27952" y="302.667417041784"/>
      </g>
     </g>
    </g>
    <g id="ytick_16">
     <g id="line2d_116">
      <g>
       <use style="stroke:#000000;stroke-width:0.5;" x="22.899999999999995" xlink:href="#mda9072babb" y="298.1075355122676"/>
      </g>
     </g>
     <g id="line2d_117">
      <g>
       <use style="stroke:#000000;stroke-width:0.5;" x="566.64" xlink:href="#md20cb27952" y="298.1075355122676"/>
      </g>
     </g>
    </g>
    <g id="ytick_17">
     <g id="line2d_118">
      <g>
       <use style="stroke:#000000;stroke-width:0.5;" x="22.899999999999995" xlink:href="#mda9072babb" y="267.1939113653862"/>
      </g>
     </g>
     <g id="line2d_119">
      <g>
       <use style="stroke:#000000;stroke-width:0.5;" x="566.64" xlink:href="#md20cb27952" y="267.1939113653862"/>
      </g>
     </g>
    </g>
    <g id="ytick_18">
     <g id="line2d_120">
      <g>
       <use style="stroke:#000000;stroke-width:0.5;" x="22.899999999999995" xlink:href="#mda9072babb" y="251.49663503843144"/>
      </g>
     </g>
     <g id="line2d_121">
      <g>
       <use style="stroke:#000000;stroke-width:0.5;" x="566.64" xlink:href="#md20cb27952" y="251.49663503843144"/>
      </g>
     </g>
    </g>
    <g id="ytick_19">
     <g id="line2d_122">
      <g>
       <use style="stroke:#000000;stroke-width:0.5;" x="22.899999999999995" xlink:href="#mda9072babb" y="240.35924024099316"/>
      </g>
     </g>
     <g id="line2d_123">
      <g>
       <use style="stroke:#000000;stroke-width:0.5;" x="566.64" xlink:href="#md20cb27952" y="240.35924024099316"/>
      </g>
     </g>
    </g>
    <g id="ytick_20">
     <g id="line2d_124">
      <g>
       <use style="stroke:#000000;stroke-width:0.5;" x="22.899999999999995" xlink:href="#mda9072babb" y="231.7204056889884"/>
      </g>
     </g>
     <g id="line2d_125">
      <g>
       <use style="stroke:#000000;stroke-width:0.5;" x="566.64" xlink:href="#md20cb27952" y="231.7204056889884"/>
      </g>
     </g>
    </g>
    <g id="ytick_21">
     <g id="line2d_126">
      <g>
       <use style="stroke:#000000;stroke-width:0.5;" x="22.899999999999995" xlink:href="#mda9072babb" y="224.66196391403844"/>
      </g>
     </g>
     <g id="line2d_127">
      <g>
       <use style="stroke:#000000;stroke-width:0.5;" x="566.64" xlink:href="#md20cb27952" y="224.66196391403844"/>
      </g>
     </g>
    </g>
    <g id="ytick_22">
     <g id="line2d_128">
      <g>
       <use style="stroke:#000000;stroke-width:0.5;" x="22.899999999999995" xlink:href="#mda9072babb" y="218.69413642691737"/>
      </g>
     </g>
     <g id="line2d_129">
      <g>
       <use style="stroke:#000000;stroke-width:0.5;" x="566.64" xlink:href="#md20cb27952" y="218.69413642691737"/>
      </g>
     </g>
    </g>
    <g id="ytick_23">
     <g id="line2d_130">
      <g>
       <use style="stroke:#000000;stroke-width:0.5;" x="22.899999999999995" xlink:href="#mda9072babb" y="213.5245691166001"/>
      </g>
     </g>
     <g id="line2d_131">
      <g>
       <use style="stroke:#000000;stroke-width:0.5;" x="566.64" xlink:href="#md20cb27952" y="213.5245691166001"/>
      </g>
     </g>
    </g>
    <g id="ytick_24">
     <g id="line2d_132">
      <g>
       <use style="stroke:#000000;stroke-width:0.5;" x="22.899999999999995" xlink:href="#mda9072babb" y="208.9646875870837"/>
      </g>
     </g>
     <g id="line2d_133">
      <g>
       <use style="stroke:#000000;stroke-width:0.5;" x="566.64" xlink:href="#md20cb27952" y="208.9646875870837"/>
      </g>
     </g>
    </g>
    <g id="ytick_25">
     <g id="line2d_134">
      <g>
       <use style="stroke:#000000;stroke-width:0.5;" x="22.899999999999995" xlink:href="#mda9072babb" y="178.0510634402023"/>
      </g>
     </g>
     <g id="line2d_135">
      <g>
       <use style="stroke:#000000;stroke-width:0.5;" x="566.64" xlink:href="#md20cb27952" y="178.0510634402023"/>
      </g>
     </g>
    </g>
    <g id="ytick_26">
     <g id="line2d_136">
      <g>
       <use style="stroke:#000000;stroke-width:0.5;" x="22.899999999999995" xlink:href="#mda9072babb" y="162.3537871132475"/>
      </g>
     </g>
     <g id="line2d_137">
      <g>
       <use style="stroke:#000000;stroke-width:0.5;" x="566.64" xlink:href="#md20cb27952" y="162.3537871132475"/>
      </g>
     </g>
    </g>
    <g id="ytick_27">
     <g id="line2d_138">
      <g>
       <use style="stroke:#000000;stroke-width:0.5;" x="22.899999999999995" xlink:href="#mda9072babb" y="151.21639231580923"/>
      </g>
     </g>
     <g id="line2d_139">
      <g>
       <use style="stroke:#000000;stroke-width:0.5;" x="566.64" xlink:href="#md20cb27952" y="151.21639231580923"/>
      </g>
     </g>
    </g>
    <g id="ytick_28">
     <g id="line2d_140">
      <g>
       <use style="stroke:#000000;stroke-width:0.5;" x="22.899999999999995" xlink:href="#mda9072babb" y="142.57755776380446"/>
      </g>
     </g>
     <g id="line2d_141">
      <g>
       <use style="stroke:#000000;stroke-width:0.5;" x="566.64" xlink:href="#md20cb27952" y="142.57755776380446"/>
      </g>
     </g>
    </g>
    <g id="ytick_29">
     <g id="line2d_142">
      <g>
       <use style="stroke:#000000;stroke-width:0.5;" x="22.899999999999995" xlink:href="#mda9072babb" y="135.51911598885448"/>
      </g>
     </g>
     <g id="line2d_143">
      <g>
       <use style="stroke:#000000;stroke-width:0.5;" x="566.64" xlink:href="#md20cb27952" y="135.51911598885448"/>
      </g>
     </g>
    </g>
    <g id="ytick_30">
     <g id="line2d_144">
      <g>
       <use style="stroke:#000000;stroke-width:0.5;" x="22.899999999999995" xlink:href="#mda9072babb" y="129.55128850173344"/>
      </g>
     </g>
     <g id="line2d_145">
      <g>
       <use style="stroke:#000000;stroke-width:0.5;" x="566.64" xlink:href="#md20cb27952" y="129.55128850173344"/>
      </g>
     </g>
    </g>
    <g id="ytick_31">
     <g id="line2d_146">
      <g>
       <use style="stroke:#000000;stroke-width:0.5;" x="22.899999999999995" xlink:href="#mda9072babb" y="124.3817211914162"/>
      </g>
     </g>
     <g id="line2d_147">
      <g>
       <use style="stroke:#000000;stroke-width:0.5;" x="566.64" xlink:href="#md20cb27952" y="124.3817211914162"/>
      </g>
     </g>
    </g>
    <g id="ytick_32">
     <g id="line2d_148">
      <g>
       <use style="stroke:#000000;stroke-width:0.5;" x="22.899999999999995" xlink:href="#mda9072babb" y="119.82183966189973"/>
      </g>
     </g>
     <g id="line2d_149">
      <g>
       <use style="stroke:#000000;stroke-width:0.5;" x="566.64" xlink:href="#md20cb27952" y="119.82183966189973"/>
      </g>
     </g>
    </g>
    <g id="ytick_33">
     <g id="line2d_150">
      <g>
       <use style="stroke:#000000;stroke-width:0.5;" x="22.899999999999995" xlink:href="#mda9072babb" y="88.90821551501841"/>
      </g>
     </g>
     <g id="line2d_151">
      <g>
       <use style="stroke:#000000;stroke-width:0.5;" x="566.64" xlink:href="#md20cb27952" y="88.90821551501841"/>
      </g>
     </g>
    </g>
    <g id="ytick_34">
     <g id="line2d_152">
      <g>
       <use style="stroke:#000000;stroke-width:0.5;" x="22.899999999999995" xlink:href="#mda9072babb" y="73.2109391880636"/>
      </g>
     </g>
     <g id="line2d_153">
      <g>
       <use style="stroke:#000000;stroke-width:0.5;" x="566.64" xlink:href="#md20cb27952" y="73.2109391880636"/>
      </g>
     </g>
    </g>
    <g id="ytick_35">
     <g id="line2d_154">
      <g>
       <use style="stroke:#000000;stroke-width:0.5;" x="22.899999999999995" xlink:href="#mda9072babb" y="62.07354439062533"/>
      </g>
     </g>
     <g id="line2d_155">
      <g>
       <use style="stroke:#000000;stroke-width:0.5;" x="566.64" xlink:href="#md20cb27952" y="62.07354439062533"/>
      </g>
     </g>
    </g>
    <g id="ytick_36">
     <g id="line2d_156">
      <g>
       <use style="stroke:#000000;stroke-width:0.5;" x="22.899999999999995" xlink:href="#mda9072babb" y="53.43470983862056"/>
      </g>
     </g>
     <g id="line2d_157">
      <g>
       <use style="stroke:#000000;stroke-width:0.5;" x="566.64" xlink:href="#md20cb27952" y="53.43470983862056"/>
      </g>
     </g>
    </g>
    <g id="ytick_37">
     <g id="line2d_158">
      <g>
       <use style="stroke:#000000;stroke-width:0.5;" x="22.899999999999995" xlink:href="#mda9072babb" y="46.37626806367058"/>
      </g>
     </g>
     <g id="line2d_159">
      <g>
       <use style="stroke:#000000;stroke-width:0.5;" x="566.64" xlink:href="#md20cb27952" y="46.37626806367058"/>
      </g>
     </g>
    </g>
    <g id="ytick_38">
     <g id="line2d_160">
      <g>
       <use style="stroke:#000000;stroke-width:0.5;" x="22.899999999999995" xlink:href="#mda9072babb" y="40.40844057654954"/>
      </g>
     </g>
     <g id="line2d_161">
      <g>
       <use style="stroke:#000000;stroke-width:0.5;" x="566.64" xlink:href="#md20cb27952" y="40.40844057654954"/>
      </g>
     </g>
    </g>
    <g id="ytick_39">
     <g id="line2d_162">
      <g>
       <use style="stroke:#000000;stroke-width:0.5;" x="22.899999999999995" xlink:href="#mda9072babb" y="35.238873266232304"/>
      </g>
     </g>
     <g id="line2d_163">
      <g>
       <use style="stroke:#000000;stroke-width:0.5;" x="566.64" xlink:href="#md20cb27952" y="35.238873266232304"/>
      </g>
     </g>
    </g>
    <g id="ytick_40">
     <g id="line2d_164">
      <g>
       <use style="stroke:#000000;stroke-width:0.5;" x="22.899999999999995" xlink:href="#mda9072babb" y="30.678991736715773"/>
      </g>
     </g>
     <g id="line2d_165">
      <g>
       <use style="stroke:#000000;stroke-width:0.5;" x="566.64" xlink:href="#md20cb27952" y="30.678991736715773"/>
      </g>
     </g>
    </g>
   </g>
   <g id="text_12">
    <!-- 15 instances -->
    <defs>
     <path d="M 9.421875 54.6875 
L 18.40625 54.6875 
L 18.40625 0 
L 9.421875 0 
z
M 9.421875 75.984375 
L 18.40625 75.984375 
L 18.40625 64.59375 
L 9.421875 64.59375 
z
" id="BitstreamVeraSans-Roman-69"/>
     <path d="M 44.28125 53.078125 
L 44.28125 44.578125 
Q 40.484375 46.53125 36.375 47.5 
Q 32.28125 48.484375 27.875 48.484375 
Q 21.1875 48.484375 17.84375 46.4375 
Q 14.5 44.390625 14.5 40.28125 
Q 14.5 37.15625 16.890625 35.375 
Q 19.28125 33.59375 26.515625 31.984375 
L 29.59375 31.296875 
Q 39.15625 29.25 43.1875 25.515625 
Q 47.21875 21.78125 47.21875 15.09375 
Q 47.21875 7.46875 41.1875 3.015625 
Q 35.15625 -1.421875 24.609375 -1.421875 
Q 20.21875 -1.421875 15.453125 -0.5625 
Q 10.6875 0.296875 5.421875 2 
L 5.421875 11.28125 
Q 10.40625 8.6875 15.234375 7.390625 
Q 20.0625 6.109375 24.8125 6.109375 
Q 31.15625 6.109375 34.5625 8.28125 
Q 37.984375 10.453125 37.984375 14.40625 
Q 37.984375 18.0625 35.515625 20.015625 
Q 33.0625 21.96875 24.703125 23.78125 
L 21.578125 24.515625 
Q 13.234375 26.265625 9.515625 29.90625 
Q 5.8125 33.546875 5.8125 39.890625 
Q 5.8125 47.609375 11.28125 51.796875 
Q 16.75 56 26.8125 56 
Q 31.78125 56 36.171875 55.265625 
Q 40.578125 54.546875 44.28125 53.078125 
" id="BitstreamVeraSans-Roman-73"/>
     <path d="M 56.203125 29.59375 
L 56.203125 25.203125 
L 14.890625 25.203125 
Q 15.484375 15.921875 20.484375 11.0625 
Q 25.484375 6.203125 34.421875 6.203125 
Q 39.59375 6.203125 44.453125 7.46875 
Q 49.3125 8.734375 54.109375 11.28125 
L 54.109375 2.78125 
Q 49.265625 0.734375 44.1875 -0.34375 
Q 39.109375 -1.421875 33.890625 -1.421875 
Q 20.796875 -1.421875 13.15625 6.1875 
Q 5.515625 13.8125 5.515625 26.8125 
Q 5.515625 40.234375 12.765625 48.109375 
Q 20.015625 56 32.328125 56 
Q 43.359375 56 49.78125 48.890625 
Q 56.203125 41.796875 56.203125 29.59375 
M 47.21875 32.234375 
Q 47.125 39.59375 43.09375 43.984375 
Q 39.0625 48.390625 32.421875 48.390625 
Q 24.90625 48.390625 20.390625 44.140625 
Q 15.875 39.890625 15.1875 32.171875 
z
" id="BitstreamVeraSans-Roman-65"/>
     <path d="M 34.28125 27.484375 
Q 23.390625 27.484375 19.1875 25 
Q 14.984375 22.515625 14.984375 16.5 
Q 14.984375 11.71875 18.140625 8.90625 
Q 21.296875 6.109375 26.703125 6.109375 
Q 34.1875 6.109375 38.703125 11.40625 
Q 43.21875 16.703125 43.21875 25.484375 
L 43.21875 27.484375 
z
M 52.203125 31.203125 
L 52.203125 0 
L 43.21875 0 
L 43.21875 8.296875 
Q 40.140625 3.328125 35.546875 0.953125 
Q 30.953125 -1.421875 24.3125 -1.421875 
Q 15.921875 -1.421875 10.953125 3.296875 
Q 6 8.015625 6 15.921875 
Q 6 25.140625 12.171875 29.828125 
Q 18.359375 34.515625 30.609375 34.515625 
L 43.21875 34.515625 
L 43.21875 35.40625 
Q 43.21875 41.609375 39.140625 45 
Q 35.0625 48.390625 27.6875 48.390625 
Q 23 48.390625 18.546875 47.265625 
Q 14.109375 46.140625 10.015625 43.890625 
L 10.015625 52.203125 
Q 14.9375 54.109375 19.578125 55.046875 
Q 24.21875 56 28.609375 56 
Q 40.484375 56 46.34375 49.84375 
Q 52.203125 43.703125 52.203125 31.203125 
" id="BitstreamVeraSans-Roman-61"/>
     <path id="BitstreamVeraSans-Roman-20"/>
     <path d="M 18.3125 70.21875 
L 18.3125 54.6875 
L 36.8125 54.6875 
L 36.8125 47.703125 
L 18.3125 47.703125 
L 18.3125 18.015625 
Q 18.3125 11.328125 20.140625 9.421875 
Q 21.96875 7.515625 27.59375 7.515625 
L 36.8125 7.515625 
L 36.8125 0 
L 27.59375 0 
Q 17.1875 0 13.234375 3.875 
Q 9.28125 7.765625 9.28125 18.015625 
L 9.28125 47.703125 
L 2.6875 47.703125 
L 2.6875 54.6875 
L 9.28125 54.6875 
L 9.28125 70.21875 
z
" id="BitstreamVeraSans-Roman-74"/>
     <path d="M 48.78125 52.59375 
L 48.78125 44.1875 
Q 44.96875 46.296875 41.140625 47.34375 
Q 37.3125 48.390625 33.40625 48.390625 
Q 24.65625 48.390625 19.8125 42.84375 
Q 14.984375 37.3125 14.984375 27.296875 
Q 14.984375 17.28125 19.8125 11.734375 
Q 24.65625 6.203125 33.40625 6.203125 
Q 37.3125 6.203125 41.140625 7.25 
Q 44.96875 8.296875 48.78125 10.40625 
L 48.78125 2.09375 
Q 45.015625 0.34375 40.984375 -0.53125 
Q 36.96875 -1.421875 32.421875 -1.421875 
Q 20.0625 -1.421875 12.78125 6.34375 
Q 5.515625 14.109375 5.515625 27.296875 
Q 5.515625 40.671875 12.859375 48.328125 
Q 20.21875 56 33.015625 56 
Q 37.15625 56 41.109375 55.140625 
Q 45.0625 54.296875 48.78125 52.59375 
" id="BitstreamVeraSans-Roman-63"/>
     <path d="M 54.890625 33.015625 
L 54.890625 0 
L 45.90625 0 
L 45.90625 32.71875 
Q 45.90625 40.484375 42.875 44.328125 
Q 39.84375 48.1875 33.796875 48.1875 
Q 26.515625 48.1875 22.3125 43.546875 
Q 18.109375 38.921875 18.109375 30.90625 
L 18.109375 0 
L 9.078125 0 
L 9.078125 54.6875 
L 18.109375 54.6875 
L 18.109375 46.1875 
Q 21.34375 51.125 25.703125 53.5625 
Q 30.078125 56 35.796875 56 
Q 45.21875 56 50.046875 50.171875 
Q 54.890625 44.34375 54.890625 33.015625 
" id="BitstreamVeraSans-Roman-6e"/>
    </defs>
    <g transform="translate(22.899999999999977 382.4115)scale(0.14 -0.14)">
     <use xlink:href="#BitstreamVeraSans-Roman-31"/>
     <use x="63.623046875" xlink:href="#BitstreamVeraSans-Roman-35"/>
     <use x="127.24609375" xlink:href="#BitstreamVeraSans-Roman-20"/>
     <use x="159.033203125" xlink:href="#BitstreamVeraSans-Roman-69"/>
     <use x="186.81640625" xlink:href="#BitstreamVeraSans-Roman-6e"/>
     <use x="250.1953125" xlink:href="#BitstreamVeraSans-Roman-73"/>
     <use x="302.294921875" xlink:href="#BitstreamVeraSans-Roman-74"/>
     <use x="341.50390625" xlink:href="#BitstreamVeraSans-Roman-61"/>
     <use x="402.783203125" xlink:href="#BitstreamVeraSans-Roman-6e"/>
     <use x="466.162109375" xlink:href="#BitstreamVeraSans-Roman-63"/>
     <use x="521.142578125" xlink:href="#BitstreamVeraSans-Roman-65"/>
     <use x="582.666015625" xlink:href="#BitstreamVeraSans-Roman-73"/>
    </g>
    <!-- absolute targets -->
    <defs>
     <path d="M 8.5 21.578125 
L 8.5 54.6875 
L 17.484375 54.6875 
L 17.484375 21.921875 
Q 17.484375 14.15625 20.5 10.265625 
Q 23.53125 6.390625 29.59375 6.390625 
Q 36.859375 6.390625 41.078125 11.03125 
Q 45.3125 15.671875 45.3125 23.6875 
L 45.3125 54.6875 
L 54.296875 54.6875 
L 54.296875 0 
L 45.3125 0 
L 45.3125 8.40625 
Q 42.046875 3.421875 37.71875 1 
Q 33.40625 -1.421875 27.6875 -1.421875 
Q 18.265625 -1.421875 13.375 4.4375 
Q 8.5 10.296875 8.5 21.578125 
" id="BitstreamVeraSans-Roman-75"/>
     <path d="M 45.40625 27.984375 
Q 45.40625 37.75 41.375 43.109375 
Q 37.359375 48.484375 30.078125 48.484375 
Q 22.859375 48.484375 18.828125 43.109375 
Q 14.796875 37.75 14.796875 27.984375 
Q 14.796875 18.265625 18.828125 12.890625 
Q 22.859375 7.515625 30.078125 7.515625 
Q 37.359375 7.515625 41.375 12.890625 
Q 45.40625 18.265625 45.40625 27.984375 
M 54.390625 6.78125 
Q 54.390625 -7.171875 48.1875 -13.984375 
Q 42 -20.796875 29.203125 -20.796875 
Q 24.46875 -20.796875 20.265625 -20.09375 
Q 16.0625 -19.390625 12.109375 -17.921875 
L 12.109375 -9.1875 
Q 16.0625 -11.328125 19.921875 -12.34375 
Q 23.78125 -13.375 27.78125 -13.375 
Q 36.625 -13.375 41.015625 -8.765625 
Q 45.40625 -4.15625 45.40625 5.171875 
L 45.40625 9.625 
Q 42.625 4.78125 38.28125 2.390625 
Q 33.9375 0 27.875 0 
Q 17.828125 0 11.671875 7.65625 
Q 5.515625 15.328125 5.515625 27.984375 
Q 5.515625 40.671875 11.671875 48.328125 
Q 17.828125 56 27.875 56 
Q 33.9375 56 38.28125 53.609375 
Q 42.625 51.21875 45.40625 46.390625 
L 45.40625 54.6875 
L 54.390625 54.6875 
z
" id="BitstreamVeraSans-Roman-67"/>
     <path d="M 9.421875 75.984375 
L 18.40625 75.984375 
L 18.40625 0 
L 9.421875 0 
z
" id="BitstreamVeraSans-Roman-6c"/>
     <path d="M 48.6875 27.296875 
Q 48.6875 37.203125 44.609375 42.84375 
Q 40.53125 48.484375 33.40625 48.484375 
Q 26.265625 48.484375 22.1875 42.84375 
Q 18.109375 37.203125 18.109375 27.296875 
Q 18.109375 17.390625 22.1875 11.75 
Q 26.265625 6.109375 33.40625 6.109375 
Q 40.53125 6.109375 44.609375 11.75 
Q 48.6875 17.390625 48.6875 27.296875 
M 18.109375 46.390625 
Q 20.953125 51.265625 25.265625 53.625 
Q 29.59375 56 35.59375 56 
Q 45.5625 56 51.78125 48.09375 
Q 58.015625 40.1875 58.015625 27.296875 
Q 58.015625 14.40625 51.78125 6.484375 
Q 45.5625 -1.421875 35.59375 -1.421875 
Q 29.59375 -1.421875 25.265625 0.953125 
Q 20.953125 3.328125 18.109375 8.203125 
L 18.109375 0 
L 9.078125 0 
L 9.078125 75.984375 
L 18.109375 75.984375 
z
" id="BitstreamVeraSans-Roman-62"/>
     <path d="M 41.109375 46.296875 
Q 39.59375 47.171875 37.8125 47.578125 
Q 36.03125 48 33.890625 48 
Q 26.265625 48 22.1875 43.046875 
Q 18.109375 38.09375 18.109375 28.8125 
L 18.109375 0 
L 9.078125 0 
L 9.078125 54.6875 
L 18.109375 54.6875 
L 18.109375 46.1875 
Q 20.953125 51.171875 25.484375 53.578125 
Q 30.03125 56 36.53125 56 
Q 37.453125 56 38.578125 55.875 
Q 39.703125 55.765625 41.0625 55.515625 
z
" id="BitstreamVeraSans-Roman-72"/>
     <path d="M 30.609375 48.390625 
Q 23.390625 48.390625 19.1875 42.75 
Q 14.984375 37.109375 14.984375 27.296875 
Q 14.984375 17.484375 19.15625 11.84375 
Q 23.34375 6.203125 30.609375 6.203125 
Q 37.796875 6.203125 41.984375 11.859375 
Q 46.1875 17.53125 46.1875 27.296875 
Q 46.1875 37.015625 41.984375 42.703125 
Q 37.796875 48.390625 30.609375 48.390625 
M 30.609375 56 
Q 42.328125 56 49.015625 48.375 
Q 55.71875 40.765625 55.71875 27.296875 
Q 55.71875 13.875 49.015625 6.21875 
Q 42.328125 -1.421875 30.609375 -1.421875 
Q 18.84375 -1.421875 12.171875 6.21875 
Q 5.515625 13.875 5.515625 27.296875 
Q 5.515625 40.765625 12.171875 48.375 
Q 18.84375 56 30.609375 56 
" id="BitstreamVeraSans-Roman-6f"/>
    </defs>
    <g transform="translate(22.899999999999977 398.0884375)scale(0.14 -0.14)">
     <use xlink:href="#BitstreamVeraSans-Roman-61"/>
     <use x="61.279296875" xlink:href="#BitstreamVeraSans-Roman-62"/>
     <use x="124.755859375" xlink:href="#BitstreamVeraSans-Roman-73"/>
     <use x="176.85546875" xlink:href="#BitstreamVeraSans-Roman-6f"/>
     <use x="238.037109375" xlink:href="#BitstreamVeraSans-Roman-6c"/>
     <use x="265.8203125" xlink:href="#BitstreamVeraSans-Roman-75"/>
     <use x="329.19921875" xlink:href="#BitstreamVeraSans-Roman-74"/>
     <use x="368.408203125" xlink:href="#BitstreamVeraSans-Roman-65"/>
     <use x="429.931640625" xlink:href="#BitstreamVeraSans-Roman-20"/>
     <use x="461.71875" xlink:href="#BitstreamVeraSans-Roman-74"/>
     <use x="500.927734375" xlink:href="#BitstreamVeraSans-Roman-61"/>
     <use x="562.20703125" xlink:href="#BitstreamVeraSans-Roman-72"/>
     <use x="603.3046875" xlink:href="#BitstreamVeraSans-Roman-67"/>
     <use x="666.78125" xlink:href="#BitstreamVeraSans-Roman-65"/>
     <use x="728.3046875" xlink:href="#BitstreamVeraSans-Roman-74"/>
     <use x="767.513671875" xlink:href="#BitstreamVeraSans-Roman-73"/>
    </g>
   </g>
   <g id="text_13">
    <!-- v2.3.3 -->
    <defs>
     <path d="M 2.984375 54.6875 
L 12.5 54.6875 
L 29.59375 8.796875 
L 46.6875 54.6875 
L 56.203125 54.6875 
L 35.6875 0 
L 23.484375 0 
z
" id="BitstreamVeraSans-Roman-76"/>
     <path d="M 10.6875 12.40625 
L 21 12.40625 
L 21 0 
L 10.6875 0 
z
" id="BitstreamVeraSans-Roman-2e"/>
    </defs>
    <g style="fill:#808080;" transform="translate(279.08875 395.1763125)scale(0.1 -0.1)">
     <use xlink:href="#BitstreamVeraSans-Roman-76"/>
     <use x="59.1796875" xlink:href="#BitstreamVeraSans-Roman-32"/>
     <use x="122.802734375" xlink:href="#BitstreamVeraSans-Roman-2e"/>
     <use x="154.58984375" xlink:href="#BitstreamVeraSans-Roman-33"/>
     <use x="218.212890625" xlink:href="#BitstreamVeraSans-Roman-2e"/>
     <use x="250.0" xlink:href="#BitstreamVeraSans-Roman-33"/>
    </g>
   </g>
   <g id="text_14">
    <!-- 1 Sphere -->
    <defs>
     <path d="M 54.890625 33.015625 
L 54.890625 0 
L 45.90625 0 
L 45.90625 32.71875 
Q 45.90625 40.484375 42.875 44.328125 
Q 39.84375 48.1875 33.796875 48.1875 
Q 26.515625 48.1875 22.3125 43.546875 
Q 18.109375 38.921875 18.109375 30.90625 
L 18.109375 0 
L 9.078125 0 
L 9.078125 75.984375 
L 18.109375 75.984375 
L 18.109375 46.1875 
Q 21.34375 51.125 25.703125 53.5625 
Q 30.078125 56 35.796875 56 
Q 45.21875 56 50.046875 50.171875 
Q 54.890625 44.34375 54.890625 33.015625 
" id="BitstreamVeraSans-Roman-68"/>
     <path d="M 53.515625 70.515625 
L 53.515625 60.890625 
Q 47.90625 63.578125 42.921875 64.890625 
Q 37.9375 66.21875 33.296875 66.21875 
Q 25.25 66.21875 20.875 63.09375 
Q 16.5 59.96875 16.5 54.203125 
Q 16.5 49.359375 19.40625 46.890625 
Q 22.3125 44.4375 30.421875 42.921875 
L 36.375 41.703125 
Q 47.40625 39.59375 52.65625 34.296875 
Q 57.90625 29 57.90625 20.125 
Q 57.90625 9.515625 50.796875 4.046875 
Q 43.703125 -1.421875 29.984375 -1.421875 
Q 24.8125 -1.421875 18.96875 -0.25 
Q 13.140625 0.921875 6.890625 3.21875 
L 6.890625 13.375 
Q 12.890625 10.015625 18.65625 8.296875 
Q 24.421875 6.59375 29.984375 6.59375 
Q 38.421875 6.59375 43.015625 9.90625 
Q 47.609375 13.234375 47.609375 19.390625 
Q 47.609375 24.75 44.3125 27.78125 
Q 41.015625 30.8125 33.5 32.328125 
L 27.484375 33.5 
Q 16.453125 35.6875 11.515625 40.375 
Q 6.59375 45.0625 6.59375 53.421875 
Q 6.59375 63.09375 13.40625 68.65625 
Q 20.21875 74.21875 32.171875 74.21875 
Q 37.3125 74.21875 42.625 73.28125 
Q 47.953125 72.359375 53.515625 70.515625 
" id="BitstreamVeraSans-Roman-53"/>
     <path d="M 18.109375 8.203125 
L 18.109375 -20.796875 
L 9.078125 -20.796875 
L 9.078125 54.6875 
L 18.109375 54.6875 
L 18.109375 46.390625 
Q 20.953125 51.265625 25.265625 53.625 
Q 29.59375 56 35.59375 56 
Q 45.5625 56 51.78125 48.09375 
Q 58.015625 40.1875 58.015625 27.296875 
Q 58.015625 14.40625 51.78125 6.484375 
Q 45.5625 -1.421875 35.59375 -1.421875 
Q 29.59375 -1.421875 25.265625 0.953125 
Q 20.953125 3.328125 18.109375 8.203125 
M 48.6875 27.296875 
Q 48.6875 37.203125 44.609375 42.84375 
Q 40.53125 48.484375 33.40625 48.484375 
Q 26.265625 48.484375 22.1875 42.84375 
Q 18.109375 37.203125 18.109375 27.296875 
Q 18.109375 17.390625 22.1875 11.75 
Q 26.265625 6.109375 33.40625 6.109375 
Q 40.53125 6.109375 44.609375 11.75 
Q 48.6875 17.390625 48.6875 27.296875 
" id="BitstreamVeraSans-Roman-70"/>
    </defs>
    <g transform="translate(240.78312499999998 21.599999999999966)scale(0.24 -0.24)">
     <use xlink:href="#BitstreamVeraSans-Roman-31"/>
     <use x="63.623046875" xlink:href="#BitstreamVeraSans-Roman-20"/>
     <use x="95.41015625" xlink:href="#BitstreamVeraSans-Roman-53"/>
     <use x="158.88671875" xlink:href="#BitstreamVeraSans-Roman-70"/>
     <use x="222.36328125" xlink:href="#BitstreamVeraSans-Roman-68"/>
     <use x="285.7421875" xlink:href="#BitstreamVeraSans-Roman-65"/>
     <use x="347.265625" xlink:href="#BitstreamVeraSans-Roman-72"/>
     <use x="388.34765625" xlink:href="#BitstreamVeraSans-Roman-65"/>
    </g>
   </g>
   <g id="legend_1">
    <g id="patch_7">
     <path d="M 444.31125 292.3925 
L 554.64 292.3925 
L 554.64 38.6 
L 444.31125 38.6 
z
" style="fill:#ffffff;opacity:0.2;stroke:#000000;stroke-linejoin:miter;"/>
    </g>
    <g id="line2d_166">
     <path d="M 461.11125 58.03625 
L 494.71125 58.03625 
" style="fill:none;stroke:#ff0000;stroke-linecap:square;stroke-width:4.0;"/>
    </g>
    <g id="line2d_167">
     <defs>
      <path d="M 0 5 
C 1.326016 5 2.597899 4.473168 3.535534 3.535534 
C 4.473168 2.597899 5 1.326016 5 0 
C 5 -1.326016 4.473168 -2.597899 3.535534 -3.535534 
C 2.597899 -4.473168 1.326016 -5 0 -5 
C -1.326016 -5 -2.597899 -4.473168 -3.535534 -3.535534 
C -4.473168 -2.597899 -5 -1.326016 -5 0 
C -5 1.326016 -4.473168 2.597899 -3.535534 3.535534 
C -2.597899 4.473168 -1.326016 5 0 5 
z
" id="mc9b819e012" style="stroke:#000000;stroke-width:2.0;"/>
     </defs>
     <g>
      <use style="fill:#ff0000;stroke:#000000;stroke-width:2.0;" x="461.11125" xlink:href="#mc9b819e012" y="58.036249999999974"/>
      <use style="fill:#ff0000;stroke:#000000;stroke-width:2.0;" x="494.71125" xlink:href="#mc9b819e012" y="58.036249999999974"/>
     </g>
    </g>
    <g id="text_15">
     <!-- -8 -->
     <defs>
      <path d="M 4.890625 31.390625 
L 31.203125 31.390625 
L 31.203125 23.390625 
L 4.890625 23.390625 
z
" id="BitstreamVeraSans-Roman-2d"/>
      <path d="M 31.78125 34.625 
Q 24.75 34.625 20.71875 30.859375 
Q 16.703125 27.09375 16.703125 20.515625 
Q 16.703125 13.921875 20.71875 10.15625 
Q 24.75 6.390625 31.78125 6.390625 
Q 38.8125 6.390625 42.859375 10.171875 
Q 46.921875 13.96875 46.921875 20.515625 
Q 46.921875 27.09375 42.890625 30.859375 
Q 38.875 34.625 31.78125 34.625 
M 21.921875 38.8125 
Q 15.578125 40.375 12.03125 44.71875 
Q 8.5 49.078125 8.5 55.328125 
Q 8.5 64.0625 14.71875 69.140625 
Q 20.953125 74.21875 31.78125 74.21875 
Q 42.671875 74.21875 48.875 69.140625 
Q 55.078125 64.0625 55.078125 55.328125 
Q 55.078125 49.078125 51.53125 44.71875 
Q 48 40.375 41.703125 38.8125 
Q 48.828125 37.15625 52.796875 32.3125 
Q 56.78125 27.484375 56.78125 20.515625 
Q 56.78125 9.90625 50.3125 4.234375 
Q 43.84375 -1.421875 31.78125 -1.421875 
Q 19.734375 -1.421875 13.25 4.234375 
Q 6.78125 9.90625 6.78125 20.515625 
Q 6.78125 27.484375 10.78125 32.3125 
Q 14.796875 37.15625 21.921875 38.8125 
M 18.3125 54.390625 
Q 18.3125 48.734375 21.84375 45.5625 
Q 25.390625 42.390625 31.78125 42.390625 
Q 38.140625 42.390625 41.71875 45.5625 
Q 45.3125 48.734375 45.3125 54.390625 
Q 45.3125 60.0625 41.71875 63.234375 
Q 38.140625 66.40625 31.78125 66.40625 
Q 25.390625 66.40625 21.84375 63.234375 
Q 18.3125 60.0625 18.3125 54.390625 
" id="BitstreamVeraSans-Roman-38"/>
     </defs>
     <g transform="translate(521.11125 66.43624999999997)scale(0.24 -0.24)">
      <use xlink:href="#BitstreamVeraSans-Roman-2d"/>
      <use x="36.083984375" xlink:href="#BitstreamVeraSans-Roman-38"/>
     </g>
    </g>
    <g id="line2d_168">
     <path d="M 461.11125 93.26375 
L 494.71125 93.26375 
" style="fill:none;stroke:#bf00bf;stroke-linecap:square;stroke-width:4.0;"/>
    </g>
    <g id="line2d_169">
     <defs>
      <path d="M 0 2.5 
C 0.663008 2.5 1.29895 2.236584 1.767767 1.767767 
C 2.236584 1.29895 2.5 0.663008 2.5 0 
C 2.5 -0.663008 2.236584 -1.29895 1.767767 -1.767767 
C 1.29895 -2.236584 0.663008 -2.5 0 -2.5 
C -0.663008 -2.5 -1.29895 -2.236584 -1.767767 -1.767767 
C -2.236584 -1.29895 -2.5 -0.663008 -2.5 0 
C -2.5 0.663008 -2.236584 1.29895 -1.767767 1.767767 
C -1.29895 2.236584 -0.663008 2.5 0 2.5 
z
" id="md2c2233fe8" style="stroke:#bf00bf;stroke-width:0.5;"/>
     </defs>
     <g>
      <use style="fill:#bf00bf;stroke:#bf00bf;stroke-width:0.5;" x="461.11125" xlink:href="#md2c2233fe8" y="93.26374999999999"/>
      <use style="fill:#bf00bf;stroke:#bf00bf;stroke-width:0.5;" x="494.71125" xlink:href="#md2c2233fe8" y="93.26374999999999"/>
     </g>
    </g>
    <g id="text_16">
     <!-- -5 -->
     <g transform="translate(521.11125 101.66375)scale(0.24 -0.24)">
      <use xlink:href="#BitstreamVeraSans-Roman-2d"/>
      <use x="36.083984375" xlink:href="#BitstreamVeraSans-Roman-35"/>
     </g>
    </g>
    <g id="line2d_170">
     <path d="M 461.11125 128.49125 
L 494.71125 128.49125 
" style="fill:none;stroke:#bfbf00;stroke-linecap:square;stroke-width:4.0;"/>
    </g>
    <g id="line2d_171">
     <defs>
      <path d="M 0 -5 
L -5 5 
L 5 5 
z
" id="mf2391f5508" style="stroke:#000000;stroke-linejoin:miter;stroke-width:2.0;"/>
     </defs>
     <g>
      <use style="fill:#bfbf00;stroke:#000000;stroke-linejoin:miter;stroke-width:2.0;" x="461.11125" xlink:href="#mf2391f5508" y="128.49125"/>
      <use style="fill:#bfbf00;stroke:#000000;stroke-linejoin:miter;stroke-width:2.0;" x="494.71125" xlink:href="#mf2391f5508" y="128.49125"/>
     </g>
    </g>
    <g id="text_17">
     <!-- -3 -->
     <g transform="translate(521.11125 136.89125)scale(0.24 -0.24)">
      <use xlink:href="#BitstreamVeraSans-Roman-2d"/>
      <use x="36.083984375" xlink:href="#BitstreamVeraSans-Roman-33"/>
     </g>
    </g>
    <g id="line2d_172">
     <path d="M 461.11125 163.71875 
L 494.71125 163.71875 
" style="fill:none;stroke:#008000;stroke-linecap:square;stroke-width:4.0;"/>
    </g>
    <g id="line2d_173">
     <defs>
      <path d="M 0 2.5 
C 0.663008 2.5 1.29895 2.236584 1.767767 1.767767 
C 2.236584 1.29895 2.5 0.663008 2.5 0 
C 2.5 -0.663008 2.236584 -1.29895 1.767767 -1.767767 
C 1.29895 -2.236584 0.663008 -2.5 0 -2.5 
C -0.663008 -2.5 -1.29895 -2.236584 -1.767767 -1.767767 
C -2.236584 -1.29895 -2.5 -0.663008 -2.5 0 
C -2.5 0.663008 -2.236584 1.29895 -1.767767 1.767767 
C -1.29895 2.236584 -0.663008 2.5 0 2.5 
z
" id="mf465c5be43" style="stroke:#008000;stroke-width:0.5;"/>
     </defs>
     <g>
      <use style="fill:#008000;stroke:#008000;stroke-width:0.5;" x="461.11125" xlink:href="#mf465c5be43" y="163.71874999999997"/>
      <use style="fill:#008000;stroke:#008000;stroke-width:0.5;" x="494.71125" xlink:href="#mf465c5be43" y="163.71874999999997"/>
     </g>
    </g>
    <g id="text_18">
     <!-- -2 -->
     <g transform="translate(521.11125 172.11874999999998)scale(0.24 -0.24)">
      <use xlink:href="#BitstreamVeraSans-Roman-2d"/>
      <use x="36.083984375" xlink:href="#BitstreamVeraSans-Roman-32"/>
     </g>
    </g>
    <g id="line2d_174">
     <path d="M 461.11125 198.94625 
L 494.71125 198.94625 
" style="fill:none;stroke:#00bfbf;stroke-linecap:square;stroke-width:4.0;"/>
    </g>
    <g id="line2d_175">
     <defs>
      <path d="M -0 5 
L 5 -5 
L -5 -5 
z
" id="m5f876a4e4b" style="stroke:#000000;stroke-linejoin:miter;stroke-width:2.0;"/>
     </defs>
     <g>
      <use style="fill:#00bfbf;stroke:#000000;stroke-linejoin:miter;stroke-width:2.0;" x="461.11125" xlink:href="#m5f876a4e4b" y="198.94625"/>
      <use style="fill:#00bfbf;stroke:#000000;stroke-linejoin:miter;stroke-width:2.0;" x="494.71125" xlink:href="#m5f876a4e4b" y="198.94625"/>
     </g>
    </g>
    <g id="text_19">
     <!-- -1 -->
     <g transform="translate(521.11125 207.34625)scale(0.24 -0.24)">
      <use xlink:href="#BitstreamVeraSans-Roman-2d"/>
      <use x="36.083984375" xlink:href="#BitstreamVeraSans-Roman-31"/>
     </g>
    </g>
    <g id="line2d_176">
     <path d="M 461.11125 234.17375 
L 494.71125 234.17375 
" style="fill:none;stroke:#0000ff;stroke-linecap:square;stroke-width:4.0;"/>
    </g>
    <g id="line2d_177">
     <defs>
      <path d="M 0 2.5 
C 0.663008 2.5 1.29895 2.236584 1.767767 1.767767 
C 2.236584 1.29895 2.5 0.663008 2.5 0 
C 2.5 -0.663008 2.236584 -1.29895 1.767767 -1.767767 
C 1.29895 -2.236584 0.663008 -2.5 0 -2.5 
C -0.663008 -2.5 -1.29895 -2.236584 -1.767767 -1.767767 
C -2.236584 -1.29895 -2.5 -0.663008 -2.5 0 
C -2.5 0.663008 -2.236584 1.29895 -1.767767 1.767767 
C -1.29895 2.236584 -0.663008 2.5 0 2.5 
z
" id="m2ccfcc9051" style="stroke:#0000ff;stroke-width:0.5;"/>
     </defs>
     <g>
      <use style="fill:#0000ff;stroke:#0000ff;stroke-width:0.5;" x="461.11125" xlink:href="#m2ccfcc9051" y="234.17374999999996"/>
      <use style="fill:#0000ff;stroke:#0000ff;stroke-width:0.5;" x="494.71125" xlink:href="#m2ccfcc9051" y="234.17374999999996"/>
     </g>
    </g>
    <g id="text_20">
     <!-- 0 -->
     <g transform="translate(521.11125 242.57374999999996)scale(0.24 -0.24)">
      <use xlink:href="#BitstreamVeraSans-Roman-30"/>
     </g>
    </g>
    <g id="line2d_178">
     <path d="M 461.11125 269.40125 
L 494.71125 269.40125 
" style="fill:none;stroke:#000000;stroke-linecap:square;stroke-width:4.0;"/>
    </g>
    <g id="line2d_179">
     <defs>
      <path d="M 0 5 
C 1.326016 5 2.597899 4.473168 3.535534 3.535534 
C 4.473168 2.597899 5 1.326016 5 0 
C 5 -1.326016 4.473168 -2.597899 3.535534 -3.535534 
C 2.597899 -4.473168 1.326016 -5 0 -5 
C -1.326016 -5 -2.597899 -4.473168 -3.535534 -3.535534 
C -4.473168 -2.597899 -5 -1.326016 -5 0 
C -5 1.326016 -4.473168 2.597899 -3.535534 3.535534 
C -2.597899 4.473168 -1.326016 5 0 5 
z
" id="m0b8c6c1066" style="stroke:#000000;stroke-width:2.0;"/>
     </defs>
     <g>
      <use style="stroke:#000000;stroke-width:2.0;" x="461.11125" xlink:href="#m0b8c6c1066" y="269.40125"/>
      <use style="stroke:#000000;stroke-width:2.0;" x="494.71125" xlink:href="#m0b8c6c1066" y="269.40125"/>
     </g>
    </g>
    <g id="text_21">
     <!-- 1 -->
     <g transform="translate(521.11125 277.80125)scale(0.24 -0.24)">
      <use xlink:href="#BitstreamVeraSans-Roman-31"/>
     </g>
    </g>
   </g>
  </g>
 </g>
 <defs>
  <clipPath id="p97071edd5d">
   <rect height="374.40000000000003" width="543.74" x="22.899999999999995" y="26.599999999999966"/>
  </clipPath>
 </defs>
</svg>
