<?xml version="1.0" encoding="utf-8" standalone="no"?>
<!DOCTYPE svg PUBLIC "-//W3C//DTD SVG 1.1//EN"
  "http://www.w3.org/Graphics/SVG/1.1/DTD/svg11.dtd">
<!-- Created with matplotlib (http://matplotlib.org/) -->
<svg height="432pt" version="1.1" viewBox="0 0 576 432" width="576pt" xmlns="http://www.w3.org/2000/svg" xmlns:xlink="http://www.w3.org/1999/xlink">
 <defs>
  <style type="text/css">
*{stroke-linecap:butt;stroke-linejoin:round;stroke-miterlimit:100000;}
  </style>
 </defs>
 <g id="figure_1">
  <g id="patch_1">
   <path d="M 0 432 
L 576 432 
L 576 0 
L 0 0 
z
" style="fill:#ffffff;"/>
  </g>
  <g id="axes_1">
   <g id="patch_2">
    <path d="M 3 384 
L 567.24 384 
L 567.24 3 
L 3 3 
z
" style="fill:#ffffff;"/>
   </g>
   <g id="line2d_1">
    <path clip-path="url(#pe554ae8a5b)" d="M -4.533245 384 
M -1 346.277228 
L -0.76362 346.277228 
L -0.76362 333.70297 
L -0.716624 333.70297 
L -0.716624 321.128713 
L -0.69543 321.128713 
L -0.69543 308.554455 
L -0.014776 308.554455 
L -0.014776 295.980198 
L 0.228392 295.980198 
L 0.228392 283.405941 
L 0.354718 283.405941 
L 0.354718 270.831683 
L 0.377961 270.831683 
L 0.377961 258.257426 
L 0.450942 258.257426 
L 0.450942 245.683168 
L 0.52611 245.683168 
L 0.52611 233.108911 
L 0.767927 233.108911 
L 0.767927 220.534653 
L 0.824464 220.534653 
L 0.824464 207.960396 
L 1.130032 207.960396 
L 1.130032 195.386139 
L 1.149696 195.386139 
L 1.149696 182.811881 
L 1.388348 182.811881 
L 1.388348 170.237624 
L 1.508765 170.237624 
L 1.508765 157.663366 
L 1.677086 157.663366 
L 1.677086 145.089109 
L 1.747766 145.089109 
L 1.747766 132.514851 
L 1.759457 132.514851 
L 1.759457 119.940594 
L 1.916834 119.940594 
L 1.916834 107.366337 
L 1.923934 107.366337 
L 1.923934 94.792079 
L 2.091417 94.792079 
L 2.091417 82.217822 
L 2.249699 82.217822 
L 2.249699 69.643564 
L 2.375438 69.643564 
L 2.375438 57.069307 
L 2.488903 57.069307 
L 2.488903 44.49505 
L 2.521373 44.49505 
L 2.521373 31.920792 
L 2.687098 31.920792 
L 2.687098 19.346535 
L 2.784051 19.346535 
L 2.784051 6.772277 
L 2.784051 6.772277 
L 2.784051 6.772277 
L 567.24 6.772277 
" style="fill:none;stroke:#ff0000;stroke-linecap:square;stroke-width:3.0;"/>
   </g>
   <g id="line2d_2">
    <path clip-path="url(#pe554ae8a5b)" d="M 350.554781 384 
L 350.554781 371.425743 
L 353.647928 371.425743 
L 353.647928 358.851485 
L 353.940044 358.851485 
L 353.940044 346.277228 
L 354.356144 346.277228 
L 354.356144 333.70297 
L 355.093348 333.70297 
L 355.093348 321.128713 
L 355.197529 321.128713 
L 355.197529 308.554455 
L 355.403103 308.554455 
L 355.403103 295.980198 
L 356.778344 295.980198 
L 356.778344 283.405941 
L 356.851233 283.405941 
L 356.851233 270.831683 
L 357.004631 270.831683 
L 357.004631 258.257426 
L 358.784982 258.257426 
L 358.784982 245.683168 
L 359.387424 245.683168 
L 359.387424 233.108911 
L 359.571212 233.108911 
L 359.571212 220.534653 
L 359.921166 220.534653 
L 359.921166 207.960396 
L 361.459704 207.960396 
L 361.459704 195.386139 
L 501.048749 195.386139 
L 501.048749 182.811881 
L 515.028519 182.811881 
L 515.028519 170.237624 
L 516.387216 170.237624 
L 516.387216 157.663366 
L 517.782674 157.663366 
L 517.782674 145.089109 
L 518.1203 145.089109 
L 518.1203 132.514851 
L 519.383768 132.514851 
L 519.383768 119.940594 
L 520.397087 119.940594 
L 520.397087 107.366337 
L 520.507291 107.366337 
L 520.507291 94.792079 
L 521.673782 94.792079 
L 521.673782 82.217822 
L 522.648234 82.217822 
L 522.648234 69.643564 
L 523.426759 69.643564 
L 523.426759 57.069307 
L 526.949688 57.069307 
L 526.949688 44.49505 
L 530.281707 44.49505 
L 530.281707 31.920792 
L 532.70051 31.920792 
L 532.70051 19.346535 
L 533.178583 19.346535 
L 533.178583 6.772277 
L 533.178583 6.772277 
L 533.178583 6.772277 
L 567.24 6.772277 
" style="fill:none;stroke:#00bfbf;stroke-linecap:square;"/>
   </g>
   <g id="line2d_3">
    <path clip-path="url(#pe554ae8a5b)" d="M 350.554781 384 
L 350.554781 371.425743 
L 353.647928 371.425743 
L 353.647928 358.851485 
L 353.940044 358.851485 
L 353.940044 346.277228 
L 353.954867 346.277228 
L 353.954867 333.70297 
L 354.356144 333.70297 
L 354.356144 321.128713 
L 355.093348 321.128713 
L 355.093348 308.554455 
L 355.197529 308.554455 
L 355.197529 295.980198 
L 355.403103 295.980198 
L 355.403103 283.405941 
L 356.778344 283.405941 
L 356.778344 270.831683 
L 356.851233 270.831683 
L 356.851233 258.257426 
L 357.004631 258.257426 
L 357.004631 245.683168 
L 358.784982 245.683168 
L 358.784982 233.108911 
L 359.387424 233.108911 
L 359.387424 220.534653 
L 359.571212 220.534653 
L 359.571212 207.960396 
L 361.459704 207.960396 
L 361.459704 195.386139 
L 500.664326 195.386139 
L 500.664326 182.811881 
L 501.048749 182.811881 
L 501.048749 170.237624 
L 514.186841 170.237624 
L 514.186841 157.663366 
L 515.028519 157.663366 
L 515.028519 145.089109 
L 516.387216 145.089109 
L 516.387216 132.514851 
L 517.735984 132.514851 
L 517.735984 119.940594 
L 517.782674 119.940594 
L 517.782674 107.366337 
L 519.215127 107.366337 
L 519.215127 94.792079 
L 519.383768 94.792079 
L 519.383768 82.217822 
L 520.397087 82.217822 
L 520.397087 69.643564 
L 522.648234 69.643564 
L 522.648234 57.069307 
L 523.426759 57.069307 
L 523.426759 44.49505 
L 526.949688 44.49505 
L 526.949688 31.920792 
L 530.281707 31.920792 
L 530.281707 19.346535 
L 532.70051 19.346535 
L 532.70051 6.772277 
L 532.70051 6.772277 
L 532.70051 6.772277 
L 567.24 6.772277 
" style="fill:none;stroke:#bf00bf;stroke-linecap:square;"/>
   </g>
   <g id="line2d_4">
    <path clip-path="url(#pe554ae8a5b)" d="M 350.554781 384 
L 350.554781 371.425743 
L 352.341978 371.425743 
L 352.341978 358.851485 
L 353.647928 358.851485 
L 353.647928 346.277228 
L 353.940044 346.277228 
L 353.940044 333.70297 
L 353.954867 333.70297 
L 353.954867 321.128713 
L 354.07993 321.128713 
L 354.07993 308.554455 
L 355.093348 308.554455 
L 355.093348 295.980198 
L 355.197529 295.980198 
L 355.197529 283.405941 
L 356.778344 283.405941 
L 356.778344 270.831683 
L 356.851233 270.831683 
L 356.851233 258.257426 
L 357.004061 258.257426 
L 357.004061 245.683168 
L 357.004631 245.683168 
L 357.004631 233.108911 
L 358.784982 233.108911 
L 358.784982 220.534653 
L 359.387424 220.534653 
L 359.387424 207.960396 
L 360.72792 207.960396 
L 360.72792 195.386139 
L 500.664326 195.386139 
L 500.664326 182.811881 
L 501.048749 182.811881 
L 501.048749 170.237624 
L 508.343028 170.237624 
L 508.343028 157.663366 
L 512.937107 157.663366 
L 512.937107 145.089109 
L 513.025332 145.089109 
L 513.025332 132.514851 
L 514.158535 132.514851 
L 514.158535 119.940594 
L 514.368578 119.940594 
L 514.368578 107.366337 
L 515.028519 107.366337 
L 515.028519 94.792079 
L 515.73743 94.792079 
L 515.73743 82.217822 
L 516.387216 82.217822 
L 516.387216 69.643564 
L 516.65342 69.643564 
L 516.65342 57.069307 
L 517.607482 57.069307 
L 517.607482 44.49505 
L 517.782674 44.49505 
L 517.782674 31.920792 
L 522.648234 31.920792 
L 522.648234 19.346535 
L 522.845465 19.346535 
L 522.845465 6.772277 
L 522.845465 6.772277 
L 522.845465 6.772277 
L 567.24 6.772277 
" style="fill:none;stroke:#000000;stroke-linecap:square;"/>
   </g>
   <g id="line2d_5">
    <path clip-path="url(#pe554ae8a5b)" d="M 344.334444 384 
L 344.334444 371.425743 
L 350.554781 371.425743 
L 350.554781 358.851485 
L 351.101813 358.851485 
L 351.101813 346.277228 
L 353.076781 346.277228 
L 353.076781 333.70297 
L 353.940044 333.70297 
L 353.940044 321.128713 
L 353.954867 321.128713 
L 353.954867 308.554455 
L 353.985782 308.554455 
L 353.985782 295.980198 
L 354.685302 295.980198 
L 354.685302 283.405941 
L 354.933576 283.405941 
L 354.933576 270.831683 
L 355.093348 270.831683 
L 355.093348 258.257426 
L 355.197529 258.257426 
L 355.197529 245.683168 
L 355.519791 245.683168 
L 355.519791 233.108911 
L 356.123735 233.108911 
L 356.123735 220.534653 
L 356.353403 220.534653 
L 356.353403 207.960396 
L 358.786641 207.960396 
L 358.786641 195.386139 
L 494.127742 195.386139 
L 494.127742 182.811881 
L 500.622074 182.811881 
L 500.622074 170.237624 
L 500.664326 170.237624 
L 500.664326 157.663366 
L 502.86415 157.663366 
L 502.86415 145.089109 
L 505.481445 145.089109 
L 505.481445 132.514851 
L 505.95519 132.514851 
L 505.95519 119.940594 
L 506.324063 119.940594 
L 506.324063 107.366337 
L 506.531911 107.366337 
L 506.531911 94.792079 
L 507.189279 94.792079 
L 507.189279 82.217822 
L 508.40568 82.217822 
L 508.40568 69.643564 
L 509.034425 69.643564 
L 509.034425 57.069307 
L 510.475649 57.069307 
L 510.475649 44.49505 
L 511.312431 44.49505 
L 511.312431 31.920792 
L 512.0268 31.920792 
L 512.0268 19.346535 
L 512.945687 19.346535 
L 512.945687 6.772277 
L 512.945687 6.772277 
L 512.945687 6.772277 
L 567.24 6.772277 
" style="fill:none;stroke:#00bfbf;stroke-linecap:square;"/>
   </g>
   <g id="line2d_6">
    <path clip-path="url(#pe554ae8a5b)" d="M 312.198194 384 
L 312.198194 371.425743 
L 312.767104 371.425743 
L 312.767104 358.851485 
L 315.659547 358.851485 
L 315.659547 346.277228 
L 315.959702 346.277228 
L 315.959702 333.70297 
L 316.02603 333.70297 
L 316.02603 321.128713 
L 317.517027 321.128713 
L 317.517027 308.554455 
L 318.692764 308.554455 
L 318.692764 295.980198 
L 319.010967 295.980198 
L 319.010967 283.405941 
L 319.288 283.405941 
L 319.288 270.831683 
L 322.465336 270.831683 
L 322.465336 258.257426 
L 322.979434 258.257426 
L 322.979434 245.683168 
L 323.755481 245.683168 
L 323.755481 233.108911 
L 324.174655 233.108911 
L 324.174655 220.534653 
L 324.426419 220.534653 
L 324.426419 207.960396 
L 327.290625 207.960396 
L 327.290625 195.386139 
L 452.56931 195.386139 
L 452.56931 182.811881 
L 452.931685 182.811881 
L 452.931685 170.237624 
L 455.066049 170.237624 
L 455.066049 157.663366 
L 455.904 157.663366 
L 455.904 145.089109 
L 456.124269 145.089109 
L 456.124269 132.514851 
L 456.215547 132.514851 
L 456.215547 119.940594 
L 457.093591 119.940594 
L 457.093591 107.366337 
L 457.480611 107.366337 
L 457.480611 94.792079 
L 457.694068 94.792079 
L 457.694068 82.217822 
L 459.791206 82.217822 
L 459.791206 69.643564 
L 461.347475 69.643564 
L 461.347475 57.069307 
L 461.361758 57.069307 
L 461.361758 44.49505 
L 461.386601 44.49505 
L 461.386601 31.920792 
L 465.744613 31.920792 
L 465.744613 19.346535 
L 472.303288 19.346535 
L 472.303288 6.772277 
L 472.303288 6.772277 
L 472.303288 6.772277 
L 567.24 6.772277 
" style="fill:none;stroke:#bf00bf;stroke-linecap:square;"/>
   </g>
   <g id="line2d_7">
    <path clip-path="url(#pe554ae8a5b)" d="M -0.76362 384 
L -0.76362 371.425743 
L -0.716624 371.425743 
L -0.716624 358.851485 
L 0.450942 358.851485 
L 0.450942 346.277228 
L 0.824464 346.277228 
L 0.824464 333.70297 
L 1.149696 333.70297 
L 1.149696 321.128713 
L 1.759457 321.128713 
L 1.759457 308.554455 
L 2.249699 308.554455 
L 2.249699 295.980198 
L 2.488903 295.980198 
L 2.488903 283.405941 
L 2.784051 283.405941 
L 2.784051 270.831683 
L 3.526995 270.831683 
L 3.526995 258.257426 
L 4.680823 258.257426 
L 4.680823 245.683168 
L 4.77865 245.683168 
L 4.77865 233.108911 
L 10.76049 233.108911 
L 10.76049 220.534653 
L 17.090124 220.534653 
L 17.090124 207.960396 
L 18.110107 207.960396 
L 18.110107 195.386139 
L 110.794279 195.386139 
L 110.794279 182.811881 
L 112.311479 182.811881 
L 112.311479 170.237624 
L 117.711704 170.237624 
L 117.711704 157.663366 
L 118.675245 157.663366 
L 118.675245 145.089109 
L 119.112255 145.089109 
L 119.112255 132.514851 
L 119.555576 132.514851 
L 119.555576 119.940594 
L 123.386929 119.940594 
L 123.386929 107.366337 
L 125.278823 107.366337 
L 125.278823 94.792079 
L 126.679183 94.792079 
L 126.679183 82.217822 
L 130.509424 82.217822 
L 130.509424 69.643564 
L 130.627357 69.643564 
L 130.627357 57.069307 
L 133.481853 57.069307 
L 133.481853 44.49505 
L 134.259664 44.49505 
L 134.259664 31.920792 
L 136.108972 31.920792 
L 136.108972 19.346535 
L 145.360409 19.346535 
L 145.360409 6.772277 
L 145.360409 6.772277 
L 145.360409 6.772277 
L 567.24 6.772277 
" style="fill:none;stroke:#000000;stroke-linecap:square;"/>
   </g>
   <g id="patch_3">
    <path d="M 3 384 
L 567.24 384 
" style="fill:none;stroke:#000000;stroke-linecap:square;stroke-linejoin:miter;"/>
   </g>
   <g id="patch_4">
    <path d="M 567.24 384 
L 567.24 3 
" style="fill:none;stroke:#000000;stroke-linecap:square;stroke-linejoin:miter;"/>
   </g>
   <g id="patch_5">
    <path d="M 3 3 
L 567.24 3 
" style="fill:none;stroke:#000000;stroke-linecap:square;stroke-linejoin:miter;"/>
   </g>
   <g id="patch_6">
    <path d="M 3 384 
L 3 3 
" style="fill:none;stroke:#000000;stroke-linecap:square;stroke-linejoin:miter;"/>
   </g>
   <g id="matplotlib.axis_1">
    <g id="xtick_1"/>
    <g id="xtick_2">
     <g id="line2d_8">
      <path clip-path="url(#pe554ae8a5b)" d="M 73.39662 384 
L 73.39662 3 
" style="fill:none;stroke:#000000;stroke-dasharray:1.000000,3.000000;stroke-dashoffset:0.0;stroke-width:0.5;"/>
     </g>
     <g id="line2d_9">
      <defs>
       <path d="M 0 0 
L 0 -4 
" id="m49c243e42e" style="stroke:#000000;stroke-width:0.5;"/>
      </defs>
      <g>
       <use style="stroke:#000000;stroke-width:0.5;" x="73.39661988527757" xlink:href="#m49c243e42e" y="384.0"/>
      </g>
     </g>
     <g id="line2d_10">
      <defs>
       <path d="M 0 0 
L 0 4 
" id="m14420f7aa3" style="stroke:#000000;stroke-width:0.5;"/>
      </defs>
      <g>
       <use style="stroke:#000000;stroke-width:0.5;" x="73.39661988527757" xlink:href="#m14420f7aa3" y="3.0"/>
      </g>
     </g>
     <g id="text_1">
      <!-- -6 -->
      <defs>
       <path d="M 33.015625 40.375 
Q 26.375 40.375 22.484375 35.828125 
Q 18.609375 31.296875 18.609375 23.390625 
Q 18.609375 15.53125 22.484375 10.953125 
Q 26.375 6.390625 33.015625 6.390625 
Q 39.65625 6.390625 43.53125 10.953125 
Q 47.40625 15.53125 47.40625 23.390625 
Q 47.40625 31.296875 43.53125 35.828125 
Q 39.65625 40.375 33.015625 40.375 
M 52.59375 71.296875 
L 52.59375 62.3125 
Q 48.875 64.0625 45.09375 64.984375 
Q 41.3125 65.921875 37.59375 65.921875 
Q 27.828125 65.921875 22.671875 59.328125 
Q 17.53125 52.734375 16.796875 39.40625 
Q 19.671875 43.65625 24.015625 45.921875 
Q 28.375 48.1875 33.59375 48.1875 
Q 44.578125 48.1875 50.953125 41.515625 
Q 57.328125 34.859375 57.328125 23.390625 
Q 57.328125 12.15625 50.6875 5.359375 
Q 44.046875 -1.421875 33.015625 -1.421875 
Q 20.359375 -1.421875 13.671875 8.265625 
Q 6.984375 17.96875 6.984375 36.375 
Q 6.984375 53.65625 15.1875 63.9375 
Q 23.390625 74.21875 37.203125 74.21875 
Q 40.921875 74.21875 44.703125 73.484375 
Q 48.484375 72.75 52.59375 71.296875 
" id="BitstreamVeraSans-Roman-36"/>
       <path d="M 4.890625 31.390625 
L 31.203125 31.390625 
L 31.203125 23.390625 
L 4.890625 23.390625 
z
" id="BitstreamVeraSans-Roman-2d"/>
      </defs>
      <g transform="translate(63.426307385277575 403.196875)scale(0.2 -0.2)">
       <use xlink:href="#BitstreamVeraSans-Roman-2d"/>
       <use x="36.083984375" xlink:href="#BitstreamVeraSans-Roman-36"/>
      </g>
     </g>
    </g>
    <g id="xtick_3">
     <g id="line2d_11">
      <path clip-path="url(#pe554ae8a5b)" d="M 143.945674 384 
L 143.945674 3 
" style="fill:none;stroke:#000000;stroke-dasharray:1.000000,3.000000;stroke-dashoffset:0.0;stroke-width:0.5;"/>
     </g>
     <g id="line2d_12">
      <g>
       <use style="stroke:#000000;stroke-width:0.5;" x="143.94567418738075" xlink:href="#m49c243e42e" y="384.0"/>
      </g>
     </g>
     <g id="line2d_13">
      <g>
       <use style="stroke:#000000;stroke-width:0.5;" x="143.94567418738075" xlink:href="#m14420f7aa3" y="3.0"/>
      </g>
     </g>
     <g id="text_2">
      <!-- -4 -->
      <defs>
       <path d="M 37.796875 64.3125 
L 12.890625 25.390625 
L 37.796875 25.390625 
z
M 35.203125 72.90625 
L 47.609375 72.90625 
L 47.609375 25.390625 
L 58.015625 25.390625 
L 58.015625 17.1875 
L 47.609375 17.1875 
L 47.609375 0 
L 37.796875 0 
L 37.796875 17.1875 
L 4.890625 17.1875 
L 4.890625 26.703125 
z
" id="BitstreamVeraSans-Roman-34"/>
      </defs>
      <g transform="translate(133.97536168738074 403.196875)scale(0.2 -0.2)">
       <use xlink:href="#BitstreamVeraSans-Roman-2d"/>
       <use x="36.083984375" xlink:href="#BitstreamVeraSans-Roman-34"/>
      </g>
     </g>
    </g>
    <g id="xtick_4">
     <g id="line2d_14">
      <path clip-path="url(#pe554ae8a5b)" d="M 214.494728 384 
L 214.494728 3 
" style="fill:none;stroke:#000000;stroke-dasharray:1.000000,3.000000;stroke-dashoffset:0.0;stroke-width:0.5;"/>
     </g>
     <g id="line2d_15">
      <g>
       <use style="stroke:#000000;stroke-width:0.5;" x="214.49472848948398" xlink:href="#m49c243e42e" y="384.0"/>
      </g>
     </g>
     <g id="line2d_16">
      <g>
       <use style="stroke:#000000;stroke-width:0.5;" x="214.49472848948398" xlink:href="#m14420f7aa3" y="3.0"/>
      </g>
     </g>
     <g id="text_3">
      <!-- -2 -->
      <defs>
       <path d="M 19.1875 8.296875 
L 53.609375 8.296875 
L 53.609375 0 
L 7.328125 0 
L 7.328125 8.296875 
Q 12.9375 14.109375 22.625 23.890625 
Q 32.328125 33.6875 34.8125 36.53125 
Q 39.546875 41.84375 41.421875 45.53125 
Q 43.3125 49.21875 43.3125 52.78125 
Q 43.3125 58.59375 39.234375 62.25 
Q 35.15625 65.921875 28.609375 65.921875 
Q 23.96875 65.921875 18.8125 64.3125 
Q 13.671875 62.703125 7.8125 59.421875 
L 7.8125 69.390625 
Q 13.765625 71.78125 18.9375 73 
Q 24.125 74.21875 28.421875 74.21875 
Q 39.75 74.21875 46.484375 68.546875 
Q 53.21875 62.890625 53.21875 53.421875 
Q 53.21875 48.921875 51.53125 44.890625 
Q 49.859375 40.875 45.40625 35.40625 
Q 44.1875 33.984375 37.640625 27.21875 
Q 31.109375 20.453125 19.1875 8.296875 
" id="BitstreamVeraSans-Roman-32"/>
      </defs>
      <g transform="translate(204.52441598948397 403.196875)scale(0.2 -0.2)">
       <use xlink:href="#BitstreamVeraSans-Roman-2d"/>
       <use x="36.083984375" xlink:href="#BitstreamVeraSans-Roman-32"/>
      </g>
     </g>
    </g>
    <g id="xtick_5">
     <g id="line2d_17">
      <path clip-path="url(#pe554ae8a5b)" d="M 285.043783 384 
L 285.043783 3 
" style="fill:none;stroke:#000000;stroke-dasharray:1.000000,3.000000;stroke-dashoffset:0.0;stroke-width:0.5;"/>
     </g>
     <g id="line2d_18">
      <g>
       <use style="stroke:#000000;stroke-width:0.5;" x="285.04378279158715" xlink:href="#m49c243e42e" y="384.0"/>
      </g>
     </g>
     <g id="line2d_19">
      <g>
       <use style="stroke:#000000;stroke-width:0.5;" x="285.04378279158715" xlink:href="#m14420f7aa3" y="3.0"/>
      </g>
     </g>
     <g id="text_4">
      <!-- 0 -->
      <defs>
       <path d="M 31.78125 66.40625 
Q 24.171875 66.40625 20.328125 58.90625 
Q 16.5 51.421875 16.5 36.375 
Q 16.5 21.390625 20.328125 13.890625 
Q 24.171875 6.390625 31.78125 6.390625 
Q 39.453125 6.390625 43.28125 13.890625 
Q 47.125 21.390625 47.125 36.375 
Q 47.125 51.421875 43.28125 58.90625 
Q 39.453125 66.40625 31.78125 66.40625 
M 31.78125 74.21875 
Q 44.046875 74.21875 50.515625 64.515625 
Q 56.984375 54.828125 56.984375 36.375 
Q 56.984375 17.96875 50.515625 8.265625 
Q 44.046875 -1.421875 31.78125 -1.421875 
Q 19.53125 -1.421875 13.0625 8.265625 
Q 6.59375 17.96875 6.59375 36.375 
Q 6.59375 54.828125 13.0625 64.515625 
Q 19.53125 74.21875 31.78125 74.21875 
" id="BitstreamVeraSans-Roman-30"/>
      </defs>
      <g transform="translate(278.68128279158714 403.196875)scale(0.2 -0.2)">
       <use xlink:href="#BitstreamVeraSans-Roman-30"/>
      </g>
     </g>
    </g>
    <g id="xtick_6">
     <g id="line2d_20">
      <path clip-path="url(#pe554ae8a5b)" d="M 355.592837 384 
L 355.592837 3 
" style="fill:none;stroke:#000000;stroke-dasharray:1.000000,3.000000;stroke-dashoffset:0.0;stroke-width:0.5;"/>
     </g>
     <g id="line2d_21">
      <g>
       <use style="stroke:#000000;stroke-width:0.5;" x="355.5928370936904" xlink:href="#m49c243e42e" y="384.0"/>
      </g>
     </g>
     <g id="line2d_22">
      <g>
       <use style="stroke:#000000;stroke-width:0.5;" x="355.5928370936904" xlink:href="#m14420f7aa3" y="3.0"/>
      </g>
     </g>
     <g id="text_5">
      <!-- 2 -->
      <g transform="translate(349.23033709369037 403.196875)scale(0.2 -0.2)">
       <use xlink:href="#BitstreamVeraSans-Roman-32"/>
      </g>
     </g>
    </g>
    <g id="xtick_7">
     <g id="line2d_23">
      <path clip-path="url(#pe554ae8a5b)" d="M 426.141891 384 
L 426.141891 3 
" style="fill:none;stroke:#000000;stroke-dasharray:1.000000,3.000000;stroke-dashoffset:0.0;stroke-width:0.5;"/>
     </g>
     <g id="line2d_24">
      <g>
       <use style="stroke:#000000;stroke-width:0.5;" x="426.14189139579355" xlink:href="#m49c243e42e" y="384.0"/>
      </g>
     </g>
     <g id="line2d_25">
      <g>
       <use style="stroke:#000000;stroke-width:0.5;" x="426.14189139579355" xlink:href="#m14420f7aa3" y="3.0"/>
      </g>
     </g>
     <g id="text_6">
      <!-- 4 -->
      <g transform="translate(419.77939139579354 403.196875)scale(0.2 -0.2)">
       <use xlink:href="#BitstreamVeraSans-Roman-34"/>
      </g>
     </g>
    </g>
    <g id="xtick_8">
     <g id="line2d_26">
      <path clip-path="url(#pe554ae8a5b)" d="M 496.690946 384 
L 496.690946 3 
" style="fill:none;stroke:#000000;stroke-dasharray:1.000000,3.000000;stroke-dashoffset:0.0;stroke-width:0.5;"/>
     </g>
     <g id="line2d_27">
      <g>
       <use style="stroke:#000000;stroke-width:0.5;" x="496.6909456978968" xlink:href="#m49c243e42e" y="384.0"/>
      </g>
     </g>
     <g id="line2d_28">
      <g>
       <use style="stroke:#000000;stroke-width:0.5;" x="496.6909456978968" xlink:href="#m14420f7aa3" y="3.0"/>
      </g>
     </g>
     <g id="text_7">
      <!-- 6 -->
      <g transform="translate(490.32844569789677 403.196875)scale(0.2 -0.2)">
       <use xlink:href="#BitstreamVeraSans-Roman-36"/>
      </g>
     </g>
    </g>
    <g id="xtick_9">
     <g id="line2d_29">
      <path clip-path="url(#pe554ae8a5b)" d="M 567.24 384 
L 567.24 3 
" style="fill:none;stroke:#000000;stroke-dasharray:1.000000,3.000000;stroke-dashoffset:0.0;stroke-width:0.5;"/>
     </g>
     <g id="line2d_30">
      <g>
       <use style="stroke:#000000;stroke-width:0.5;" x="567.24" xlink:href="#m49c243e42e" y="384.0"/>
      </g>
     </g>
     <g id="line2d_31">
      <g>
       <use style="stroke:#000000;stroke-width:0.5;" x="567.24" xlink:href="#m14420f7aa3" y="3.0"/>
      </g>
     </g>
    </g>
    <g id="xtick_10"/>
    <g id="xtick_11">
     <g id="line2d_32">
      <path clip-path="url(#pe554ae8a5b)" d="M 73.39662 384 
L 73.39662 3 
" style="fill:none;stroke:#000000;stroke-dasharray:1.000000,3.000000;stroke-dashoffset:0.0;stroke-width:0.5;"/>
     </g>
     <g id="line2d_33">
      <defs>
       <path d="M 0 0 
L 0 -2 
" id="m5b8eae1908" style="stroke:#000000;stroke-width:0.5;"/>
      </defs>
      <g>
       <use style="stroke:#000000;stroke-width:0.5;" x="73.39661988527757" xlink:href="#m5b8eae1908" y="384.0"/>
      </g>
     </g>
     <g id="line2d_34">
      <defs>
       <path d="M 0 0 
L 0 2 
" id="m23fc9af886" style="stroke:#000000;stroke-width:0.5;"/>
      </defs>
      <g>
       <use style="stroke:#000000;stroke-width:0.5;" x="73.39661988527757" xlink:href="#m23fc9af886" y="3.0"/>
      </g>
     </g>
    </g>
    <g id="xtick_12">
     <g id="line2d_35">
      <path clip-path="url(#pe554ae8a5b)" d="M 143.945674 384 
L 143.945674 3 
" style="fill:none;stroke:#000000;stroke-dasharray:1.000000,3.000000;stroke-dashoffset:0.0;stroke-width:0.5;"/>
     </g>
     <g id="line2d_36">
      <g>
       <use style="stroke:#000000;stroke-width:0.5;" x="143.94567418738075" xlink:href="#m5b8eae1908" y="384.0"/>
      </g>
     </g>
     <g id="line2d_37">
      <g>
       <use style="stroke:#000000;stroke-width:0.5;" x="143.94567418738075" xlink:href="#m23fc9af886" y="3.0"/>
      </g>
     </g>
    </g>
    <g id="xtick_13">
     <g id="line2d_38">
      <path clip-path="url(#pe554ae8a5b)" d="M 214.494728 384 
L 214.494728 3 
" style="fill:none;stroke:#000000;stroke-dasharray:1.000000,3.000000;stroke-dashoffset:0.0;stroke-width:0.5;"/>
     </g>
     <g id="line2d_39">
      <g>
       <use style="stroke:#000000;stroke-width:0.5;" x="214.49472848948398" xlink:href="#m5b8eae1908" y="384.0"/>
      </g>
     </g>
     <g id="line2d_40">
      <g>
       <use style="stroke:#000000;stroke-width:0.5;" x="214.49472848948398" xlink:href="#m23fc9af886" y="3.0"/>
      </g>
     </g>
    </g>
    <g id="xtick_14">
     <g id="line2d_41">
      <path clip-path="url(#pe554ae8a5b)" d="M 285.043783 384 
L 285.043783 3 
" style="fill:none;stroke:#000000;stroke-dasharray:1.000000,3.000000;stroke-dashoffset:0.0;stroke-width:0.5;"/>
     </g>
     <g id="line2d_42">
      <g>
       <use style="stroke:#000000;stroke-width:0.5;" x="285.04378279158715" xlink:href="#m5b8eae1908" y="384.0"/>
      </g>
     </g>
     <g id="line2d_43">
      <g>
       <use style="stroke:#000000;stroke-width:0.5;" x="285.04378279158715" xlink:href="#m23fc9af886" y="3.0"/>
      </g>
     </g>
    </g>
    <g id="xtick_15">
     <g id="line2d_44">
      <path clip-path="url(#pe554ae8a5b)" d="M 355.592837 384 
L 355.592837 3 
" style="fill:none;stroke:#000000;stroke-dasharray:1.000000,3.000000;stroke-dashoffset:0.0;stroke-width:0.5;"/>
     </g>
     <g id="line2d_45">
      <g>
       <use style="stroke:#000000;stroke-width:0.5;" x="355.5928370936904" xlink:href="#m5b8eae1908" y="384.0"/>
      </g>
     </g>
     <g id="line2d_46">
      <g>
       <use style="stroke:#000000;stroke-width:0.5;" x="355.5928370936904" xlink:href="#m23fc9af886" y="3.0"/>
      </g>
     </g>
    </g>
    <g id="xtick_16">
     <g id="line2d_47">
      <path clip-path="url(#pe554ae8a5b)" d="M 426.141891 384 
L 426.141891 3 
" style="fill:none;stroke:#000000;stroke-dasharray:1.000000,3.000000;stroke-dashoffset:0.0;stroke-width:0.5;"/>
     </g>
     <g id="line2d_48">
      <g>
       <use style="stroke:#000000;stroke-width:0.5;" x="426.14189139579355" xlink:href="#m5b8eae1908" y="384.0"/>
      </g>
     </g>
     <g id="line2d_49">
      <g>
       <use style="stroke:#000000;stroke-width:0.5;" x="426.14189139579355" xlink:href="#m23fc9af886" y="3.0"/>
      </g>
     </g>
    </g>
    <g id="xtick_17">
     <g id="line2d_50">
      <path clip-path="url(#pe554ae8a5b)" d="M 496.690946 384 
L 496.690946 3 
" style="fill:none;stroke:#000000;stroke-dasharray:1.000000,3.000000;stroke-dashoffset:0.0;stroke-width:0.5;"/>
     </g>
     <g id="line2d_51">
      <g>
       <use style="stroke:#000000;stroke-width:0.5;" x="496.6909456978968" xlink:href="#m5b8eae1908" y="384.0"/>
      </g>
     </g>
     <g id="line2d_52">
      <g>
       <use style="stroke:#000000;stroke-width:0.5;" x="496.6909456978968" xlink:href="#m23fc9af886" y="3.0"/>
      </g>
     </g>
    </g>
    <g id="xtick_18">
     <g id="line2d_53">
      <path clip-path="url(#pe554ae8a5b)" d="M 567.24 384 
L 567.24 3 
" style="fill:none;stroke:#000000;stroke-dasharray:1.000000,3.000000;stroke-dashoffset:0.0;stroke-width:0.5;"/>
     </g>
     <g id="line2d_54">
      <g>
       <use style="stroke:#000000;stroke-width:0.5;" x="567.24" xlink:href="#m5b8eae1908" y="384.0"/>
      </g>
     </g>
     <g id="line2d_55">
      <g>
       <use style="stroke:#000000;stroke-width:0.5;" x="567.24" xlink:href="#m23fc9af886" y="3.0"/>
      </g>
     </g>
    </g>
    <g id="text_8">
     <!-- log10 of Df -->
     <defs>
      <path d="M 12.40625 8.296875 
L 28.515625 8.296875 
L 28.515625 63.921875 
L 10.984375 60.40625 
L 10.984375 69.390625 
L 28.421875 72.90625 
L 38.28125 72.90625 
L 38.28125 8.296875 
L 54.390625 8.296875 
L 54.390625 0 
L 12.40625 0 
z
" id="BitstreamVeraSans-Roman-31"/>
      <path d="M 45.40625 27.984375 
Q 45.40625 37.75 41.375 43.109375 
Q 37.359375 48.484375 30.078125 48.484375 
Q 22.859375 48.484375 18.828125 43.109375 
Q 14.796875 37.75 14.796875 27.984375 
Q 14.796875 18.265625 18.828125 12.890625 
Q 22.859375 7.515625 30.078125 7.515625 
Q 37.359375 7.515625 41.375 12.890625 
Q 45.40625 18.265625 45.40625 27.984375 
M 54.390625 6.78125 
Q 54.390625 -7.171875 48.1875 -13.984375 
Q 42 -20.796875 29.203125 -20.796875 
Q 24.46875 -20.796875 20.265625 -20.09375 
Q 16.0625 -19.390625 12.109375 -17.921875 
L 12.109375 -9.1875 
Q 16.0625 -11.328125 19.921875 -12.34375 
Q 23.78125 -13.375 27.78125 -13.375 
Q 36.625 -13.375 41.015625 -8.765625 
Q 45.40625 -4.15625 45.40625 5.171875 
L 45.40625 9.625 
Q 42.625 4.78125 38.28125 2.390625 
Q 33.9375 0 27.875 0 
Q 17.828125 0 11.671875 7.65625 
Q 5.515625 15.328125 5.515625 27.984375 
Q 5.515625 40.671875 11.671875 48.328125 
Q 17.828125 56 27.875 56 
Q 33.9375 56 38.28125 53.609375 
Q 42.625 51.21875 45.40625 46.390625 
L 45.40625 54.6875 
L 54.390625 54.6875 
z
" id="BitstreamVeraSans-Roman-67"/>
      <path id="BitstreamVeraSans-Roman-20"/>
      <path d="M 9.421875 75.984375 
L 18.40625 75.984375 
L 18.40625 0 
L 9.421875 0 
z
" id="BitstreamVeraSans-Roman-6c"/>
      <path d="M 37.109375 75.984375 
L 37.109375 68.5 
L 28.515625 68.5 
Q 23.6875 68.5 21.796875 66.546875 
Q 19.921875 64.59375 19.921875 59.515625 
L 19.921875 54.6875 
L 34.71875 54.6875 
L 34.71875 47.703125 
L 19.921875 47.703125 
L 19.921875 0 
L 10.890625 0 
L 10.890625 47.703125 
L 2.296875 47.703125 
L 2.296875 54.6875 
L 10.890625 54.6875 
L 10.890625 58.5 
Q 10.890625 67.625 15.140625 71.796875 
Q 19.390625 75.984375 28.609375 75.984375 
z
" id="BitstreamVeraSans-Roman-66"/>
      <path d="M 30.609375 48.390625 
Q 23.390625 48.390625 19.1875 42.75 
Q 14.984375 37.109375 14.984375 27.296875 
Q 14.984375 17.484375 19.15625 11.84375 
Q 23.34375 6.203125 30.609375 6.203125 
Q 37.796875 6.203125 41.984375 11.859375 
Q 46.1875 17.53125 46.1875 27.296875 
Q 46.1875 37.015625 41.984375 42.703125 
Q 37.796875 48.390625 30.609375 48.390625 
M 30.609375 56 
Q 42.328125 56 49.015625 48.375 
Q 55.71875 40.765625 55.71875 27.296875 
Q 55.71875 13.875 49.015625 6.21875 
Q 42.328125 -1.421875 30.609375 -1.421875 
Q 18.84375 -1.421875 12.171875 6.21875 
Q 5.515625 13.875 5.515625 27.296875 
Q 5.515625 40.765625 12.171875 48.375 
Q 18.84375 56 30.609375 56 
" id="BitstreamVeraSans-Roman-6f"/>
      <path d="M 19.671875 64.796875 
L 19.671875 8.109375 
L 31.59375 8.109375 
Q 46.6875 8.109375 53.6875 14.9375 
Q 60.6875 21.78125 60.6875 36.53125 
Q 60.6875 51.171875 53.6875 57.984375 
Q 46.6875 64.796875 31.59375 64.796875 
z
M 9.8125 72.90625 
L 30.078125 72.90625 
Q 51.265625 72.90625 61.171875 64.09375 
Q 71.09375 55.28125 71.09375 36.53125 
Q 71.09375 17.671875 61.125 8.828125 
Q 51.171875 0 30.078125 0 
L 9.8125 0 
z
" id="BitstreamVeraSans-Roman-44"/>
     </defs>
     <g transform="translate(229.9340625 427.55312499999997)scale(0.2 -0.2)">
      <use xlink:href="#BitstreamVeraSans-Roman-6c"/>
      <use x="27.783203125" xlink:href="#BitstreamVeraSans-Roman-6f"/>
      <use x="88.96484375" xlink:href="#BitstreamVeraSans-Roman-67"/>
      <use x="152.44140625" xlink:href="#BitstreamVeraSans-Roman-31"/>
      <use x="216.064453125" xlink:href="#BitstreamVeraSans-Roman-30"/>
      <use x="279.6875" xlink:href="#BitstreamVeraSans-Roman-20"/>
      <use x="311.474609375" xlink:href="#BitstreamVeraSans-Roman-6f"/>
      <use x="372.65625" xlink:href="#BitstreamVeraSans-Roman-66"/>
      <use x="407.861328125" xlink:href="#BitstreamVeraSans-Roman-20"/>
      <use x="439.6484375" xlink:href="#BitstreamVeraSans-Roman-44"/>
      <use x="516.650390625" xlink:href="#BitstreamVeraSans-Roman-66"/>
     </g>
    </g>
   </g>
   <g id="matplotlib.axis_2">
    <g id="ytick_1">
     <g id="line2d_56">
      <path clip-path="url(#pe554ae8a5b)" d="M 3 384 
L 567.24 384 
" style="fill:none;stroke:#000000;stroke-dasharray:1.000000,3.000000;stroke-dashoffset:0.0;stroke-width:0.5;"/>
     </g>
     <g id="line2d_57">
      <defs>
       <path d="M 0 0 
L 4 0 
" id="md4e41d4cd9" style="stroke:#000000;stroke-width:0.5;"/>
      </defs>
      <g>
       <use style="stroke:#000000;stroke-width:0.5;" x="3.0" xlink:href="#md4e41d4cd9" y="384.0"/>
      </g>
     </g>
     <g id="line2d_58">
      <defs>
       <path d="M 0 0 
L -4 0 
" id="m1ca148b680" style="stroke:#000000;stroke-width:0.5;"/>
      </defs>
      <g>
       <use style="stroke:#000000;stroke-width:0.5;" x="567.24" xlink:href="#m1ca148b680" y="384.0"/>
      </g>
     </g>
    </g>
    <g id="ytick_2">
     <g id="line2d_59">
      <path clip-path="url(#pe554ae8a5b)" d="M 3 308.554455 
L 567.24 308.554455 
" style="fill:none;stroke:#000000;stroke-dasharray:1.000000,3.000000;stroke-dashoffset:0.0;stroke-width:0.5;"/>
     </g>
     <g id="line2d_60">
      <g>
       <use style="stroke:#000000;stroke-width:0.5;" x="3.0" xlink:href="#md4e41d4cd9" y="308.55445544554453"/>
      </g>
     </g>
     <g id="line2d_61">
      <g>
       <use style="stroke:#000000;stroke-width:0.5;" x="567.24" xlink:href="#m1ca148b680" y="308.55445544554453"/>
      </g>
     </g>
    </g>
    <g id="ytick_3">
     <g id="line2d_62">
      <path clip-path="url(#pe554ae8a5b)" d="M 3 233.108911 
L 567.24 233.108911 
" style="fill:none;stroke:#000000;stroke-dasharray:1.000000,3.000000;stroke-dashoffset:0.0;stroke-width:0.5;"/>
     </g>
     <g id="line2d_63">
      <g>
       <use style="stroke:#000000;stroke-width:0.5;" x="3.0" xlink:href="#md4e41d4cd9" y="233.1089108910891"/>
      </g>
     </g>
     <g id="line2d_64">
      <g>
       <use style="stroke:#000000;stroke-width:0.5;" x="567.24" xlink:href="#m1ca148b680" y="233.1089108910891"/>
      </g>
     </g>
    </g>
    <g id="ytick_4">
     <g id="line2d_65">
      <path clip-path="url(#pe554ae8a5b)" d="M 3 157.663366 
L 567.24 157.663366 
" style="fill:none;stroke:#000000;stroke-dasharray:1.000000,3.000000;stroke-dashoffset:0.0;stroke-width:0.5;"/>
     </g>
     <g id="line2d_66">
      <g>
       <use style="stroke:#000000;stroke-width:0.5;" x="3.0" xlink:href="#md4e41d4cd9" y="157.66336633663363"/>
      </g>
     </g>
     <g id="line2d_67">
      <g>
       <use style="stroke:#000000;stroke-width:0.5;" x="567.24" xlink:href="#m1ca148b680" y="157.66336633663363"/>
      </g>
     </g>
    </g>
    <g id="ytick_5">
     <g id="line2d_68">
      <path clip-path="url(#pe554ae8a5b)" d="M 3 82.217822 
L 567.24 82.217822 
" style="fill:none;stroke:#000000;stroke-dasharray:1.000000,3.000000;stroke-dashoffset:0.0;stroke-width:0.5;"/>
     </g>
     <g id="line2d_69">
      <g>
       <use style="stroke:#000000;stroke-width:0.5;" x="3.0" xlink:href="#md4e41d4cd9" y="82.21782178217819"/>
      </g>
     </g>
     <g id="line2d_70">
      <g>
       <use style="stroke:#000000;stroke-width:0.5;" x="567.24" xlink:href="#m1ca148b680" y="82.21782178217819"/>
      </g>
     </g>
    </g>
    <g id="ytick_6">
     <g id="line2d_71">
      <path clip-path="url(#pe554ae8a5b)" d="M 3 6.772277 
L 567.24 6.772277 
" style="fill:none;stroke:#000000;stroke-dasharray:1.000000,3.000000;stroke-dashoffset:0.0;stroke-width:0.5;"/>
     </g>
     <g id="line2d_72">
      <g>
       <use style="stroke:#000000;stroke-width:0.5;" x="3.0" xlink:href="#md4e41d4cd9" y="6.772277227722782"/>
      </g>
     </g>
     <g id="line2d_73">
      <g>
       <use style="stroke:#000000;stroke-width:0.5;" x="567.24" xlink:href="#m1ca148b680" y="6.772277227722782"/>
      </g>
     </g>
    </g>
   </g>
   <g id="text_9">
    <!-- {f1, f2}, 20-D -->
    <defs>
     <path d="M 51.125 -9.28125 
L 51.125 -16.3125 
L 48.09375 -16.3125 
Q 35.9375 -16.3125 31.8125 -12.6875 
Q 27.6875 -9.078125 27.6875 1.703125 
L 27.6875 13.375 
Q 27.6875 20.75 25.046875 23.578125 
Q 22.40625 26.421875 15.484375 26.421875 
L 12.5 26.421875 
L 12.5 33.40625 
L 15.484375 33.40625 
Q 22.46875 33.40625 25.078125 36.203125 
Q 27.6875 39.015625 27.6875 46.296875 
L 27.6875 58.015625 
Q 27.6875 68.796875 31.8125 72.390625 
Q 35.9375 75.984375 48.09375 75.984375 
L 51.125 75.984375 
L 51.125 69 
L 47.796875 69 
Q 40.921875 69 38.8125 66.84375 
Q 36.71875 64.703125 36.71875 57.8125 
L 36.71875 45.703125 
Q 36.71875 38.03125 34.5 34.5625 
Q 32.28125 31.109375 26.90625 29.890625 
Q 32.328125 28.5625 34.515625 25.09375 
Q 36.71875 21.625 36.71875 14.015625 
L 36.71875 1.90625 
Q 36.71875 -4.984375 38.8125 -7.125 
Q 40.921875 -9.28125 47.796875 -9.28125 
z
" id="BitstreamVeraSans-Roman-7b"/>
     <path d="M 12.5 -9.28125 
L 15.921875 -9.28125 
Q 22.75 -9.28125 24.828125 -7.171875 
Q 26.90625 -5.078125 26.90625 1.90625 
L 26.90625 14.015625 
Q 26.90625 21.625 29.09375 25.09375 
Q 31.296875 28.5625 36.71875 29.890625 
Q 31.296875 31.109375 29.09375 34.5625 
Q 26.90625 38.03125 26.90625 45.703125 
L 26.90625 57.8125 
Q 26.90625 64.75 24.828125 66.875 
Q 22.75 69 15.921875 69 
L 12.5 69 
L 12.5 75.984375 
L 15.578125 75.984375 
Q 27.734375 75.984375 31.8125 72.390625 
Q 35.890625 68.796875 35.890625 58.015625 
L 35.890625 46.296875 
Q 35.890625 39.015625 38.515625 36.203125 
Q 41.15625 33.40625 48.09375 33.40625 
L 51.125 33.40625 
L 51.125 26.421875 
L 48.09375 26.421875 
Q 41.15625 26.421875 38.515625 23.578125 
Q 35.890625 20.75 35.890625 13.375 
L 35.890625 1.703125 
Q 35.890625 -9.078125 31.8125 -12.6875 
Q 27.734375 -16.3125 15.578125 -16.3125 
L 12.5 -16.3125 
z
" id="BitstreamVeraSans-Roman-7d"/>
     <path d="M 11.71875 12.40625 
L 22.015625 12.40625 
L 22.015625 4 
L 14.015625 -11.625 
L 7.71875 -11.625 
L 11.71875 4 
z
" id="BitstreamVeraSans-Roman-2c"/>
    </defs>
    <g transform="translate(417.483325 376.38)scale(0.2 -0.2)">
     <use xlink:href="#BitstreamVeraSans-Roman-7b"/>
     <use x="63.623046875" xlink:href="#BitstreamVeraSans-Roman-66"/>
     <use x="98.828125" xlink:href="#BitstreamVeraSans-Roman-31"/>
     <use x="162.451171875" xlink:href="#BitstreamVeraSans-Roman-2c"/>
     <use x="194.23828125" xlink:href="#BitstreamVeraSans-Roman-20"/>
     <use x="226.025390625" xlink:href="#BitstreamVeraSans-Roman-66"/>
     <use x="261.23046875" xlink:href="#BitstreamVeraSans-Roman-32"/>
     <use x="324.853515625" xlink:href="#BitstreamVeraSans-Roman-7d"/>
     <use x="388.4765625" xlink:href="#BitstreamVeraSans-Roman-2c"/>
     <use x="420.263671875" xlink:href="#BitstreamVeraSans-Roman-20"/>
     <use x="452.05078125" xlink:href="#BitstreamVeraSans-Roman-32"/>
     <use x="515.673828125" xlink:href="#BitstreamVeraSans-Roman-30"/>
     <use x="579.296875" xlink:href="#BitstreamVeraSans-Roman-2d"/>
     <use x="615.380859375" xlink:href="#BitstreamVeraSans-Roman-44"/>
    </g>
   </g>
   <g id="text_10">
    <!-- v2.3.3 -->
    <defs>
     <path d="M 40.578125 39.3125 
Q 47.65625 37.796875 51.625 33 
Q 55.609375 28.21875 55.609375 21.1875 
Q 55.609375 10.40625 48.1875 4.484375 
Q 40.765625 -1.421875 27.09375 -1.421875 
Q 22.515625 -1.421875 17.65625 -0.515625 
Q 12.796875 0.390625 7.625 2.203125 
L 7.625 11.71875 
Q 11.71875 9.328125 16.59375 8.109375 
Q 21.484375 6.890625 26.8125 6.890625 
Q 36.078125 6.890625 40.9375 10.546875 
Q 45.796875 14.203125 45.796875 21.1875 
Q 45.796875 27.640625 41.28125 31.265625 
Q 36.765625 34.90625 28.71875 34.90625 
L 20.21875 34.90625 
L 20.21875 43.015625 
L 29.109375 43.015625 
Q 36.375 43.015625 40.234375 45.921875 
Q 44.09375 48.828125 44.09375 54.296875 
Q 44.09375 59.90625 40.109375 62.90625 
Q 36.140625 65.921875 28.71875 65.921875 
Q 24.65625 65.921875 20.015625 65.03125 
Q 15.375 64.15625 9.8125 62.3125 
L 9.8125 71.09375 
Q 15.4375 72.65625 20.34375 73.4375 
Q 25.25 74.21875 29.59375 74.21875 
Q 40.828125 74.21875 47.359375 69.109375 
Q 53.90625 64.015625 53.90625 55.328125 
Q 53.90625 49.265625 50.4375 45.09375 
Q 46.96875 40.921875 40.578125 39.3125 
" id="BitstreamVeraSans-Roman-33"/>
     <path d="M 2.984375 54.6875 
L 12.5 54.6875 
L 29.59375 8.796875 
L 46.6875 54.6875 
L 56.203125 54.6875 
L 35.6875 0 
L 23.484375 0 
z
" id="BitstreamVeraSans-Roman-76"/>
     <path d="M 10.6875 12.40625 
L 21 12.40625 
L 21 0 
L 10.6875 0 
z
" id="BitstreamVeraSans-Roman-2e"/>
    </defs>
    <g style="fill:#808080;" transform="translate(269.43875 378.11031249999996)scale(0.1 -0.1)">
     <use xlink:href="#BitstreamVeraSans-Roman-76"/>
     <use x="59.1796875" xlink:href="#BitstreamVeraSans-Roman-32"/>
     <use x="122.802734375" xlink:href="#BitstreamVeraSans-Roman-2e"/>
     <use x="154.58984375" xlink:href="#BitstreamVeraSans-Roman-33"/>
     <use x="218.212890625" xlink:href="#BitstreamVeraSans-Roman-2e"/>
     <use x="250.0" xlink:href="#BitstreamVeraSans-Roman-33"/>
    </g>
   </g>
  </g>
 </g>
 <defs>
  <clipPath id="pe554ae8a5b">
   <rect height="381.0" width="564.24" x="3.0" y="3.0"/>
  </clipPath>
 </defs>
</svg>
