<?xml version="1.0" encoding="utf-8" standalone="no"?>
<!DOCTYPE svg PUBLIC "-//W3C//DTD SVG 1.1//EN"
  "http://www.w3.org/Graphics/SVG/1.1/DTD/svg11.dtd">
<!-- Created with matplotlib (http://matplotlib.org/) -->
<svg height="432pt" version="1.1" viewBox="0 0 576 432" width="576pt" xmlns="http://www.w3.org/2000/svg" xmlns:xlink="http://www.w3.org/1999/xlink">
 <defs>
  <style type="text/css">
*{stroke-linecap:butt;stroke-linejoin:round;stroke-miterlimit:100000;}
  </style>
 </defs>
 <g id="figure_1">
  <g id="patch_1">
   <path d="M 0 432 
L 576 432 
L 576 0 
L 0 0 
z
" style="fill:#ffffff;"/>
  </g>
  <g id="axes_1">
   <g id="patch_2">
    <path d="M 55.425 384 
L 567.24 384 
L 567.24 7.678218 
L 55.425 7.678218 
z
" style="fill:#ffffff;"/>
   </g>
   <g id="line2d_1">
    <path clip-path="url(#p27007687df)" d="M 109.598838 384 
L 109.598838 371.580139 
L 109.598838 371.580139 
L 109.598838 359.160278 
L 109.598838 359.160278 
L 109.598838 346.740418 
L 109.598838 346.740418 
L 109.598838 334.320557 
L 109.598838 334.320557 
L 109.598838 321.900696 
L 109.598838 321.900696 
L 109.598838 309.480835 
L 109.598838 309.480835 
L 109.598838 297.060974 
L 109.598838 297.060974 
L 109.598838 284.641114 
L 111.225857 284.641114 
L 111.225857 272.221253 
L 111.225857 272.221253 
L 111.225857 259.801392 
L 111.225857 259.801392 
L 111.225857 247.381531 
L 111.225857 247.381531 
L 111.225857 234.96167 
L 111.225857 234.96167 
L 111.225857 222.54181 
L 111.225857 222.54181 
L 111.225857 210.121949 
L 114.371806 210.121949 
L 114.371806 197.702088 
L 577 197.702088 
" style="fill:none;stroke:#f5deb3;stroke-linecap:square;"/>
   </g>
   <g id="line2d_2">
    <path clip-path="url(#p27007687df)" d="M 547.538965 384 
L 547.538965 371.580139 
L 550.718416 371.580139 
L 550.718416 359.160278 
L 552.395144 359.160278 
L 552.395144 346.740418 
L 556.714082 346.740418 
L 556.714082 334.320557 
L 558.456273 334.320557 
L 558.456273 321.900696 
L 559.465945 321.900696 
L 559.465945 309.480835 
L 561.150841 309.480835 
L 561.150841 297.060974 
L 561.794936 297.060974 
L 561.794936 284.641114 
L 563.231193 284.641114 
L 563.231193 272.221253 
L 565.249502 272.221253 
L 565.249502 259.801392 
L 565.535812 259.801392 
L 565.535812 247.381531 
L 565.585601 247.381531 
L 565.585601 234.96167 
L 565.787018 234.96167 
L 565.787018 222.54181 
L 568.683812 222.54181 
L 568.683812 210.121949 
L 575.199442 210.121949 
L 575.199442 197.702088 
L 576.882933 197.702088 
L 576.882933 185.282227 
L 577 185.282227 
" style="fill:none;stroke:#f5deb3;stroke-linecap:square;"/>
   </g>
   <g id="line2d_3">
    <path clip-path="url(#p27007687df)" d="M 353.369063 384 
L 353.369063 371.580139 
L 354.36036 371.580139 
L 354.36036 359.160278 
L 355.999152 359.160278 
L 355.999152 346.740418 
L 356.150861 346.740418 
L 356.150861 334.320557 
L 357.946447 334.320557 
L 357.946447 321.900696 
L 358.339354 321.900696 
L 358.339354 309.480835 
L 359.793628 309.480835 
L 359.793628 297.060974 
L 360.462196 297.060974 
L 360.462196 284.641114 
L 360.604643 284.641114 
L 360.604643 272.221253 
L 362.013558 272.221253 
L 362.013558 259.801392 
L 362.523213 259.801392 
L 362.523213 247.381531 
L 362.891579 247.381531 
L 362.891579 234.96167 
L 363.89481 234.96167 
L 363.89481 222.54181 
L 365.106923 222.54181 
L 365.106923 210.121949 
L 366.342379 210.121949 
L 366.342379 197.702088 
L 366.342379 197.702088 
L 366.342379 197.702088 
L 567.24 197.702088 
" style="fill:none;stroke:#f5deb3;stroke-linecap:square;"/>
   </g>
   <g id="line2d_4">
    <path clip-path="url(#p27007687df)" d="M 383.021467 384 
L 383.021467 371.580139 
L 388.569207 371.580139 
L 388.569207 359.160278 
L 388.856186 359.160278 
L 388.856186 346.740418 
L 389.173693 346.740418 
L 389.173693 334.320557 
L 389.363516 334.320557 
L 389.363516 321.900696 
L 389.552831 321.900696 
L 389.552831 309.480835 
L 389.552831 309.480835 
L 389.552831 297.060974 
L 389.77306 297.060974 
L 389.77306 284.641114 
L 390.242685 284.641114 
L 390.242685 272.221253 
L 390.460781 272.221253 
L 390.460781 259.801392 
L 390.771186 259.801392 
L 390.771186 247.381531 
L 392.333414 247.381531 
L 392.333414 234.96167 
L 392.393981 234.96167 
L 392.393981 222.54181 
L 392.996814 222.54181 
L 392.996814 210.121949 
L 394.275775 210.121949 
L 394.275775 197.702088 
L 577 197.702088 
" style="fill:none;stroke:#f5deb3;stroke-linecap:square;"/>
   </g>
   <g id="line2d_5">
    <path clip-path="url(#p27007687df)" d="M 739.74182 384 
" style="fill:none;stroke:#f5deb3;stroke-linecap:square;"/>
   </g>
   <g id="line2d_6"/>
   <g id="line2d_7">
    <path clip-path="url(#p27007687df)" d="M 109.598838 384 
L 109.598838 371.580139 
L 109.598838 371.580139 
L 109.598838 359.160278 
L 109.598838 359.160278 
L 109.598838 346.740418 
L 109.598838 346.740418 
L 109.598838 334.320557 
L 109.598838 334.320557 
L 109.598838 321.900696 
L 109.598838 321.900696 
L 109.598838 309.480835 
L 109.598838 309.480835 
L 109.598838 297.060974 
L 109.598838 297.060974 
L 109.598838 284.641114 
L 109.598838 284.641114 
L 109.598838 272.221253 
L 109.598838 272.221253 
L 109.598838 259.801392 
L 109.598838 259.801392 
L 109.598838 247.381531 
L 109.598838 247.381531 
L 109.598838 234.96167 
L 109.598838 234.96167 
L 109.598838 222.54181 
L 109.598838 222.54181 
L 109.598838 210.121949 
L 109.598838 210.121949 
L 109.598838 197.702088 
L 486.368086 197.702088 
L 486.368086 185.282227 
L 488.851299 185.282227 
L 488.851299 172.862366 
L 492.805661 172.862366 
L 492.805661 160.442506 
L 502.120318 160.442506 
L 502.120318 148.022645 
L 502.287097 148.022645 
L 502.287097 135.602784 
L 503.361688 135.602784 
L 503.361688 123.182923 
L 504.779866 123.182923 
L 504.779866 110.763062 
L 505.063819 110.763062 
L 505.063819 98.343202 
L 505.450872 98.343202 
L 505.450872 85.923341 
L 505.811441 85.923341 
L 505.811441 73.50348 
L 506.091294 73.50348 
L 506.091294 61.083619 
L 506.218685 61.083619 
L 506.218685 48.663758 
L 506.345848 48.663758 
L 506.345848 36.243898 
L 506.472783 36.243898 
L 506.472783 23.824037 
L 511.016155 23.824037 
L 511.016155 11.404176 
L 511.016155 11.404176 
L 511.016155 11.404176 
L 567.24 11.404176 
" style="fill:none;stroke:#f5deb3;stroke-linecap:square;"/>
   </g>
   <g id="line2d_8">
    <path clip-path="url(#p27007687df)" d="M 510.703971 384 
L 510.703971 371.580139 
L 510.931151 371.580139 
L 510.931151 359.160278 
L 511.101058 359.160278 
L 511.101058 346.740418 
L 511.259272 346.740418 
L 511.259272 334.320557 
L 511.355157 334.320557 
L 511.355157 321.900696 
L 512.318059 321.900696 
L 512.318059 309.480835 
L 512.772546 309.480835 
L 512.772546 297.060974 
L 512.882955 297.060974 
L 512.882955 284.641114 
L 512.91053 284.641114 
L 512.91053 272.221253 
L 513.787317 272.221253 
L 513.787317 259.801392 
L 513.90703 259.801392 
L 513.90703 247.381531 
L 514.830687 247.381531 
L 514.830687 234.96167 
L 515.636411 234.96167 
L 515.636411 222.54181 
L 516.017391 222.54181 
L 516.017391 210.121949 
L 516.375332 210.121949 
L 516.375332 197.702088 
L 540.664405 197.702088 
L 540.664405 185.282227 
L 543.558533 185.282227 
L 543.558533 172.862366 
L 543.765637 172.862366 
L 543.765637 160.442506 
L 544.87996 160.442506 
L 544.87996 148.022645 
L 544.943108 148.022645 
L 544.943108 135.602784 
L 545.804005 135.602784 
L 545.804005 123.182923 
L 546.325191 123.182923 
L 546.325191 110.763062 
L 546.452315 110.763062 
L 546.452315 98.343202 
L 546.517507 98.343202 
L 546.517507 85.923341 
L 546.975581 85.923341 
L 546.975581 73.50348 
L 546.992616 73.50348 
L 546.992616 61.083619 
L 547.440865 61.083619 
L 547.440865 48.663758 
L 547.758351 48.663758 
L 547.758351 36.243898 
L 548.798719 36.243898 
L 548.798719 23.824037 
L 553.438442 23.824037 
L 553.438442 11.404176 
L 553.438442 11.404176 
L 553.438442 11.404176 
L 567.24 11.404176 
" style="fill:none;stroke:#f5deb3;stroke-linecap:square;"/>
   </g>
   <g id="line2d_9">
    <path clip-path="url(#p27007687df)" d="M 396.79483 384 
L 396.79483 371.580139 
L 400.507413 371.580139 
L 400.507413 359.160278 
L 400.96479 359.160278 
L 400.96479 346.740418 
L 401.63208 346.740418 
L 401.63208 334.320557 
L 401.923706 334.320557 
L 401.923706 321.900696 
L 403.104363 321.900696 
L 403.104363 309.480835 
L 403.182377 309.480835 
L 403.182377 297.060974 
L 403.854925 297.060974 
L 403.854925 284.641114 
L 404.393509 284.641114 
L 404.393509 272.221253 
L 405.105305 272.221253 
L 405.105305 259.801392 
L 405.458536 259.801392 
L 405.458536 247.381531 
L 406.060003 247.381531 
L 406.060003 234.96167 
L 406.977364 234.96167 
L 406.977364 222.54181 
L 407.07583 222.54181 
L 407.07583 210.121949 
L 411.440126 210.121949 
L 411.440126 197.702088 
L 539.643815 197.702088 
L 539.643815 185.282227 
L 539.730687 185.282227 
L 539.730687 172.862366 
L 541.427675 172.862366 
L 541.427675 160.442506 
L 541.622726 160.442506 
L 541.622726 148.022645 
L 541.787914 148.022645 
L 541.787914 135.602784 
L 542.673329 135.602784 
L 542.673329 123.182923 
L 542.727623 123.182923 
L 542.727623 110.763062 
L 543.436845 110.763062 
L 543.436845 98.343202 
L 543.565685 98.343202 
L 543.565685 85.923341 
L 543.957914 85.923341 
L 543.957914 73.50348 
L 545.64794 73.50348 
L 545.64794 61.083619 
L 545.710407 61.083619 
L 545.710407 48.663758 
L 545.949357 48.663758 
L 545.949357 36.243898 
L 546.3905 36.243898 
L 546.3905 23.824037 
L 546.661402 23.824037 
L 546.661402 11.404176 
L 546.661402 11.404176 
L 546.661402 11.404176 
L 567.24 11.404176 
" style="fill:none;stroke:#f5deb3;stroke-linecap:square;"/>
   </g>
   <g id="line2d_10">
    <path clip-path="url(#p27007687df)" d="M 723.816113 384 
" style="fill:none;stroke:#f5deb3;stroke-linecap:square;"/>
   </g>
   <g id="line2d_11">
    <path clip-path="url(#p27007687df)" d="M 139.921512 384 
L 139.921512 371.580139 
L 139.921512 371.580139 
L 139.921512 359.160278 
L 139.921512 359.160278 
L 139.921512 346.740418 
L 258.191153 346.740418 
L 258.191153 334.320557 
L 258.191153 334.320557 
L 258.191153 321.900696 
L 258.191153 321.900696 
L 258.191153 309.480835 
L 259.192191 309.480835 
L 259.192191 297.060974 
L 259.192191 297.060974 
L 259.192191 284.641114 
L 259.192191 284.641114 
L 259.192191 272.221253 
L 259.98295 272.221253 
L 259.98295 259.801392 
L 259.98295 259.801392 
L 259.98295 247.381531 
L 259.98295 247.381531 
L 259.98295 234.96167 
L 260.37504 234.96167 
L 260.37504 222.54181 
L 260.37504 222.54181 
L 260.37504 210.121949 
L 260.37504 210.121949 
L 260.37504 197.702088 
L 260.37504 197.702088 
L 260.37504 197.702088 
L 567.24 197.702088 
" style="fill:none;stroke:#f5deb3;stroke-linecap:square;"/>
   </g>
   <g id="line2d_12">
    <path clip-path="url(#p27007687df)" d="M 468.923889 384 
L 468.923889 371.580139 
L 476.102764 371.580139 
L 476.102764 359.160278 
L 484.613515 359.160278 
L 484.613515 346.740418 
L 485.146102 346.740418 
L 485.146102 334.320557 
L 485.77996 334.320557 
L 485.77996 321.900696 
L 486.263709 321.900696 
L 486.263709 309.480835 
L 486.831906 309.480835 
L 486.831906 297.060974 
L 487.292705 297.060974 
L 487.292705 284.641114 
L 491.526856 284.641114 
L 491.526856 272.221253 
L 491.608858 272.221253 
L 491.608858 259.801392 
L 492.143271 259.801392 
L 492.143271 247.381531 
L 494.169637 247.381531 
L 494.169637 234.96167 
L 494.227099 234.96167 
L 494.227099 222.54181 
L 499.363589 222.54181 
L 499.363589 210.121949 
L 499.809557 210.121949 
L 499.809557 197.702088 
L 541.061888 197.702088 
L 541.061888 185.282227 
L 544.55279 185.282227 
L 544.55279 172.862366 
L 544.711287 172.862366 
L 544.711287 160.442506 
L 545.254518 160.442506 
L 545.254518 148.022645 
L 545.317334 148.022645 
L 545.317334 135.602784 
L 547.566003 135.602784 
L 547.566003 123.182923 
L 548.352331 123.182923 
L 548.352331 110.763062 
L 548.609182 110.763062 
L 548.609182 98.343202 
L 548.632486 98.343202 
L 548.632486 85.923341 
L 548.792077 85.923341 
L 548.792077 73.50348 
L 552.088326 73.50348 
L 552.088326 61.083619 
L 554.463517 61.083619 
L 554.463517 48.663758 
L 555.158983 48.663758 
L 555.158983 36.243898 
L 572.593094 36.243898 
L 572.593094 23.824037 
L 577 23.824037 
" style="fill:none;stroke:#f5deb3;stroke-linecap:square;"/>
   </g>
   <g id="line2d_13">
    <path clip-path="url(#p27007687df)" d="M 510.61859 384 
L 510.61859 371.580139 
L 511.524051 371.580139 
L 511.524051 359.160278 
L 515.694749 359.160278 
L 515.694749 346.740418 
L 516.971378 346.740418 
L 516.971378 334.320557 
L 517.267529 334.320557 
L 517.267529 321.900696 
L 518.117888 321.900696 
L 518.117888 309.480835 
L 519.698436 309.480835 
L 519.698436 297.060974 
L 521.239555 297.060974 
L 521.239555 284.641114 
L 522.48342 284.641114 
L 522.48342 272.221253 
L 523.378404 272.221253 
L 523.378404 259.801392 
L 526.713302 259.801392 
L 526.713302 247.381531 
L 527.82962 247.381531 
L 527.82962 234.96167 
L 529.837351 234.96167 
L 529.837351 222.54181 
L 530.854495 222.54181 
L 530.854495 210.121949 
L 531.068128 210.121949 
L 531.068128 197.702088 
L 542.437573 197.702088 
L 542.437573 185.282227 
L 543.655019 185.282227 
L 543.655019 172.862366 
L 545.529795 172.862366 
L 545.529795 160.442506 
L 546.194393 160.442506 
L 546.194393 148.022645 
L 546.842566 148.022645 
L 546.842566 135.602784 
L 547.135549 135.602784 
L 547.135549 123.182923 
L 547.369742 123.182923 
L 547.369742 110.763062 
L 547.505153 110.763062 
L 547.505153 98.343202 
L 548.171645 98.343202 
L 548.171645 85.923341 
L 548.96125 85.923341 
L 548.96125 73.50348 
L 549.899254 73.50348 
L 549.899254 61.083619 
L 550.085372 61.083619 
L 550.085372 48.663758 
L 551.214387 48.663758 
L 551.214387 36.243898 
L 551.509031 36.243898 
L 551.509031 23.824037 
L 552.537032 23.824037 
L 552.537032 11.404176 
L 552.537032 11.404176 
L 552.537032 11.404176 
L 567.24 11.404176 
" style="fill:none;stroke:#f5deb3;stroke-linecap:square;"/>
   </g>
   <g id="line2d_14">
    <path clip-path="url(#p27007687df)" d="M 260.179267 384 
L 260.179267 371.580139 
L 260.179267 371.580139 
L 260.179267 359.160278 
L 261.152765 359.160278 
L 261.152765 346.740418 
L 262.872012 346.740418 
L 262.872012 334.320557 
L 263.622917 334.320557 
L 263.622917 321.900696 
L 263.622917 321.900696 
L 263.622917 309.480835 
L 264.734545 309.480835 
L 264.734545 297.060974 
L 265.101241 297.060974 
L 265.101241 284.641114 
L 265.28388 284.641114 
L 265.28388 272.221253 
L 265.466047 272.221253 
L 265.466047 259.801392 
L 266.009755 259.801392 
L 266.009755 247.381531 
L 267.084796 247.381531 
L 267.084796 234.96167 
L 267.968355 234.96167 
L 267.968355 222.54181 
L 268.143751 222.54181 
L 268.143751 210.121949 
L 269.703055 210.121949 
L 269.703055 197.702088 
L 270.04495 197.702088 
L 270.04495 185.282227 
L 270.554716 185.282227 
L 270.554716 172.862366 
L 271.730082 172.862366 
L 271.730082 160.442506 
L 272.227895 160.442506 
L 272.227895 148.022645 
L 272.886246 148.022645 
L 272.886246 135.602784 
L 274.023826 135.602784 
L 274.023826 123.182923 
L 274.505818 123.182923 
L 274.505818 110.763062 
L 276.089154 110.763062 
L 276.089154 98.343202 
L 277.790863 98.343202 
L 277.790863 85.923341 
L 278.247951 85.923341 
L 278.247951 73.50348 
L 278.551044 73.50348 
L 278.551044 61.083619 
L 279.750602 61.083619 
L 279.750602 48.663758 
L 280.637112 48.663758 
L 280.637112 36.243898 
L 280.930165 36.243898 
L 280.930165 23.824037 
L 296.605448 23.824037 
L 296.605448 11.404176 
L 296.605448 11.404176 
L 296.605448 11.404176 
L 567.24 11.404176 
" style="fill:none;stroke:#f5deb3;stroke-linecap:square;"/>
   </g>
   <g id="line2d_15">
    <path clip-path="url(#p27007687df)" d="M 229.192404 384 
L 229.192404 371.580139 
L 229.192404 371.580139 
L 229.192404 359.160278 
L 229.192404 359.160278 
L 229.192404 346.740418 
L 229.192404 346.740418 
L 229.192404 334.320557 
L 229.495498 334.320557 
L 229.495498 321.900696 
L 229.797299 321.900696 
L 229.797299 309.480835 
L 229.797299 309.480835 
L 229.797299 297.060974 
L 229.797299 297.060974 
L 229.797299 284.641114 
L 229.797299 284.641114 
L 229.797299 272.221253 
L 229.797299 272.221253 
L 229.797299 259.801392 
L 229.797299 259.801392 
L 229.797299 247.381531 
L 229.797299 247.381531 
L 229.797299 234.96167 
L 229.797299 234.96167 
L 229.797299 222.54181 
L 229.797299 222.54181 
L 229.797299 210.121949 
L 230.097818 210.121949 
L 230.097818 197.702088 
L 230.097818 197.702088 
L 230.097818 197.702088 
L 567.24 197.702088 
" style="fill:none;stroke:#f5deb3;stroke-linecap:square;"/>
   </g>
   <g id="line2d_16">
    <path clip-path="url(#p27007687df)" d="M 310.497768 384 
L 310.497768 371.580139 
L 311.927558 371.580139 
L 311.927558 359.160278 
L 313.973677 359.160278 
L 313.973677 346.740418 
L 314.703294 346.740418 
L 314.703294 334.320557 
L 315.335596 334.320557 
L 315.335596 321.900696 
L 318.672869 321.900696 
L 318.672869 309.480835 
L 318.929755 309.480835 
L 318.929755 297.060974 
L 319.100497 297.060974 
L 319.100497 284.641114 
L 319.779372 284.641114 
L 319.779372 272.221253 
L 320.785628 272.221253 
L 320.785628 259.801392 
L 321.034973 259.801392 
L 321.034973 247.381531 
L 321.200716 247.381531 
L 321.200716 234.96167 
L 322.917976 234.96167 
L 322.917976 222.54181 
L 323.401065 222.54181 
L 323.401065 210.121949 
L 323.721302 210.121949 
L 323.721302 197.702088 
L 336.076647 197.702088 
L 336.076647 185.282227 
L 340.307969 185.282227 
L 340.307969 172.862366 
L 340.811688 172.862366 
L 340.811688 160.442506 
L 342.852443 160.442506 
L 342.852443 148.022645 
L 343.398949 148.022645 
L 343.398949 135.602784 
L 344.06122 135.602784 
L 344.06122 123.182923 
L 345.190746 123.182923 
L 345.190746 110.763062 
L 346.418547 110.763062 
L 346.418547 98.343202 
L 346.938296 98.343202 
L 346.938296 85.923341 
L 349.758279 85.923341 
L 349.758279 73.50348 
L 358.534992 73.50348 
L 358.534992 61.083619 
L 361.873922 61.083619 
L 361.873922 48.663758 
L 366.865329 48.663758 
L 366.865329 36.243898 
L 577 36.243898 
" style="fill:none;stroke:#f5deb3;stroke-linecap:square;"/>
   </g>
   <g id="line2d_17">
    <path clip-path="url(#p27007687df)" d="M 364.705188 384 
L 364.705188 371.580139 
L 366.342379 371.580139 
L 366.342379 359.160278 
L 369.423639 359.160278 
L 369.423639 346.740418 
L 370.131991 346.740418 
L 370.131991 334.320557 
L 374.862585 334.320557 
L 374.862585 321.900696 
L 377.787315 321.900696 
L 377.787315 309.480835 
L 377.787315 309.480835 
L 377.787315 297.060974 
L 378.158434 297.060974 
L 378.158434 284.641114 
L 378.158434 284.641114 
L 378.158434 272.221253 
L 378.343266 272.221253 
L 378.343266 259.801392 
L 378.894884 259.801392 
L 378.894884 247.381531 
L 382.675053 247.381531 
L 382.675053 234.96167 
L 383.469284 234.96167 
L 383.469284 222.54181 
L 385.566893 222.54181 
L 385.566893 210.121949 
L 395.763314 210.121949 
L 395.763314 197.702088 
L 504.952842 197.702088 
L 504.952842 185.282227 
L 505.432489 185.282227 
L 505.432489 172.862366 
L 511.089744 172.862366 
L 511.089744 160.442506 
L 517.567609 160.442506 
L 517.567609 148.022645 
L 519.003697 148.022645 
L 519.003697 135.602784 
L 519.135113 135.602784 
L 519.135113 123.182923 
L 519.31667 123.182923 
L 519.31667 110.763062 
L 519.63328 110.763062 
L 519.63328 98.343202 
L 523.800417 98.343202 
L 523.800417 85.923341 
L 577 85.923341 
" style="fill:none;stroke:#f5deb3;stroke-linecap:square;"/>
   </g>
   <g id="line2d_18">
    <path clip-path="url(#p27007687df)" d="M 547.244257 384 
L 547.244257 371.580139 
L 550.808851 371.580139 
L 550.808851 359.160278 
L 550.953952 359.160278 
L 550.953952 346.740418 
L 552.015379 346.740418 
L 552.015379 334.320557 
L 553.819947 334.320557 
L 553.819947 321.900696 
L 554.076229 321.900696 
L 554.076229 309.480835 
L 555.982819 309.480835 
L 555.982819 297.060974 
L 556.0398 297.060974 
L 556.0398 284.641114 
L 556.502941 284.641114 
L 556.502941 272.221253 
L 556.749706 272.221253 
L 556.749706 259.801392 
L 557.549467 259.801392 
L 557.549467 247.381531 
L 558.093196 247.381531 
L 558.093196 234.96167 
L 561.836379 234.96167 
L 561.836379 222.54181 
L 564.391551 222.54181 
L 564.391551 210.121949 
L 577 210.121949 
" style="fill:none;stroke:#f5deb3;stroke-linecap:square;"/>
   </g>
   <g id="line2d_19">
    <path clip-path="url(#p27007687df)" d="M 630.728897 384 
" style="fill:none;stroke:#f5deb3;stroke-linecap:square;"/>
   </g>
   <g id="line2d_20"/>
   <g id="line2d_21">
    <path clip-path="url(#p27007687df)" d="M 796.858737 384 
" style="fill:none;stroke:#f5deb3;stroke-linecap:square;"/>
   </g>
   <g id="line2d_22">
    <path clip-path="url(#p27007687df)" d="M 365.815537 384 
L 365.815537 371.580139 
L 369.003624 371.580139 
L 369.003624 359.160278 
L 369.465503 359.160278 
L 369.465503 346.740418 
L 370.007502 346.740418 
L 370.007502 334.320557 
L 370.792262 334.320557 
L 370.792262 321.900696 
L 372.616911 321.900696 
L 372.616911 309.480835 
L 372.856681 309.480835 
L 372.856681 297.060974 
L 372.976263 297.060974 
L 372.976263 284.641114 
L 373.095642 284.641114 
L 373.095642 272.221253 
L 373.531653 272.221253 
L 373.531653 259.801392 
L 373.768349 259.801392 
L 373.768349 247.381531 
L 373.847072 247.381531 
L 373.847072 234.96167 
L 375.633952 234.96167 
L 375.633952 222.54181 
L 375.940159 222.54181 
L 375.940159 210.121949 
L 376.283067 210.121949 
L 376.283067 197.702088 
L 530.837377 197.702088 
L 530.837377 185.282227 
L 530.841657 185.282227 
L 530.841657 172.862366 
L 531.684041 172.862366 
L 531.684041 160.442506 
L 533.128294 160.442506 
L 533.128294 148.022645 
L 533.857974 148.022645 
L 533.857974 135.602784 
L 534.563967 135.602784 
L 534.563967 123.182923 
L 534.628907 123.182923 
L 534.628907 110.763062 
L 534.811232 110.763062 
L 534.811232 98.343202 
L 534.859772 98.343202 
L 534.859772 85.923341 
L 534.964829 85.923341 
L 534.964829 73.50348 
L 535.093917 73.50348 
L 535.093917 61.083619 
L 536.05464 61.083619 
L 536.05464 48.663758 
L 536.774592 48.663758 
L 536.774592 36.243898 
L 537.39372 36.243898 
L 537.39372 23.824037 
L 539.074629 23.824037 
L 539.074629 11.404176 
L 539.074629 11.404176 
L 539.074629 11.404176 
L 567.24 11.404176 
" style="fill:none;stroke:#f5deb3;stroke-linecap:square;"/>
   </g>
   <g id="line2d_23">
    <path clip-path="url(#p27007687df)" d="M 699.124084 384 
" style="fill:none;stroke:#f5deb3;stroke-linecap:square;"/>
   </g>
   <g id="line2d_24">
    <path clip-path="url(#p27007687df)" d="M 648.023424 384 
" style="fill:none;stroke:#f5deb3;stroke-linecap:square;"/>
   </g>
   <g id="line2d_25">
    <path clip-path="url(#p27007687df)" d="M 401.259173 384 
L 401.259173 371.580139 
L 402.135045 371.580139 
L 402.135045 359.160278 
L 403.906396 359.160278 
L 403.906396 346.740418 
L 404.342392 346.740418 
L 404.342392 334.320557 
L 404.546641 334.320557 
L 404.546641 321.900696 
L 404.877293 321.900696 
L 404.877293 309.480835 
L 405.054699 309.480835 
L 405.054699 297.060974 
L 405.508854 297.060974 
L 405.508854 284.641114 
L 405.533999 284.641114 
L 405.533999 272.221253 
L 406.582125 272.221253 
L 406.582125 259.801392 
L 407.272351 259.801392 
L 407.272351 247.381531 
L 407.93161 247.381531 
L 407.93161 234.96167 
L 409.660189 234.96167 
L 409.660189 222.54181 
L 410.297675 222.54181 
L 410.297675 210.121949 
L 410.625976 210.121949 
L 410.625976 197.702088 
L 546.805004 197.702088 
L 546.805004 185.282227 
L 547.440865 185.282227 
L 547.440865 172.862366 
L 549.850194 172.862366 
L 549.850194 160.442506 
L 550.329521 160.442506 
L 550.329521 148.022645 
L 551.047304 148.022645 
L 551.047304 135.602784 
L 551.438684 135.602784 
L 551.438684 123.182923 
L 551.678217 123.182923 
L 551.678217 110.763062 
L 552.417234 110.763062 
L 552.417234 98.343202 
L 554.187099 98.343202 
L 554.187099 85.923341 
L 554.799902 85.923341 
L 554.799902 73.50348 
L 558.133954 73.50348 
L 558.133954 61.083619 
L 577 61.083619 
" style="fill:none;stroke:#f5deb3;stroke-linecap:square;"/>
   </g>
   <g id="line2d_26"/>
   <g id="line2d_27">
    <path clip-path="url(#p27007687df)" d="M 370.586588 384 
L 370.586588 371.580139 
L 383.228504 371.580139 
L 383.228504 359.160278 
L 383.228504 359.160278 
L 383.228504 346.740418 
L 384.356508 346.740418 
L 384.356508 334.320557 
L 385.433423 334.320557 
L 385.433423 321.900696 
L 386.527092 321.900696 
L 386.527092 309.480835 
L 390.802152 309.480835 
L 390.802152 297.060974 
L 391.172687 297.060974 
L 391.172687 284.641114 
L 391.571924 284.641114 
L 391.571924 272.221253 
L 392.605557 272.221253 
L 392.605557 259.801392 
L 394.892082 259.801392 
L 394.892082 247.381531 
L 400.399364 247.381531 
L 400.399364 234.96167 
L 400.911134 234.96167 
L 400.911134 222.54181 
L 404.111905 222.54181 
L 404.111905 210.121949 
L 408.391879 210.121949 
L 408.391879 197.702088 
L 431.067705 197.702088 
L 431.067705 185.282227 
L 434.204509 185.282227 
L 434.204509 172.862366 
L 440.826248 172.862366 
L 440.826248 160.442506 
L 441.343501 160.442506 
L 441.343501 148.022645 
L 441.887093 148.022645 
L 441.887093 135.602784 
L 445.26483 135.602784 
L 445.26483 123.182923 
L 445.722256 123.182923 
L 445.722256 110.763062 
L 446.6424 110.763062 
L 446.6424 98.343202 
L 446.867074 98.343202 
L 446.867074 85.923341 
L 447.007133 85.923341 
L 447.007133 73.50348 
L 447.272486 73.50348 
L 447.272486 61.083619 
L 448.076409 61.083619 
L 448.076409 48.663758 
L 451.480156 48.663758 
L 451.480156 36.243898 
L 455.339788 36.243898 
L 455.339788 23.824037 
L 460.264013 23.824037 
L 460.264013 11.404176 
L 460.264013 11.404176 
L 460.264013 11.404176 
L 567.24 11.404176 
" style="fill:none;stroke:#f5deb3;stroke-linecap:square;"/>
   </g>
   <g id="line2d_28">
    <path clip-path="url(#p27007687df)" d="M 465.430854 384 
L 465.430854 371.580139 
L 465.441639 371.580139 
L 465.441639 359.160278 
L 465.495536 359.160278 
L 465.495536 346.740418 
L 465.495536 346.740418 
L 465.495536 334.320557 
L 465.50631 334.320557 
L 465.50631 321.900696 
L 465.527854 321.900696 
L 465.527854 309.480835 
L 465.538624 309.480835 
L 465.538624 297.060974 
L 465.560158 297.060974 
L 465.560158 284.641114 
L 465.592447 284.641114 
L 465.592447 272.221253 
L 465.646229 272.221253 
L 465.646229 259.801392 
L 466.213824 259.801392 
L 466.213824 247.381531 
L 467.251495 247.381531 
L 467.251495 234.96167 
L 473.706675 234.96167 
L 473.706675 222.54181 
L 475.9542 222.54181 
L 475.9542 210.121949 
L 475.963494 210.121949 
L 475.963494 197.702088 
L 475.972787 197.702088 
L 475.972787 185.282227 
L 475.982079 185.282227 
L 475.982079 172.862366 
L 475.982079 172.862366 
L 475.982079 160.442506 
L 475.982079 160.442506 
L 475.982079 148.022645 
L 475.982079 148.022645 
L 475.982079 135.602784 
L 475.982079 135.602784 
L 475.982079 123.182923 
L 475.99137 123.182923 
L 475.99137 110.763062 
L 475.99137 110.763062 
L 475.99137 98.343202 
L 475.99137 98.343202 
L 475.99137 85.923341 
L 475.99137 85.923341 
L 475.99137 73.50348 
L 475.99137 73.50348 
L 475.99137 61.083619 
L 475.99137 61.083619 
L 475.99137 48.663758 
L 475.99137 48.663758 
L 475.99137 36.243898 
L 481.31375 36.243898 
L 481.31375 23.824037 
L 488.905504 23.824037 
L 488.905504 11.404176 
L 488.905504 11.404176 
L 488.905504 11.404176 
L 567.24 11.404176 
" style="fill:none;stroke:#f5deb3;stroke-linecap:square;"/>
   </g>
   <g id="line2d_29"/>
   <g id="line2d_30">
    <path clip-path="url(#p27007687df)" d="M 256.559445 384 
L 256.559445 371.580139 
L 256.559445 371.580139 
L 256.559445 359.160278 
L 256.559445 359.160278 
L 256.559445 346.740418 
L 256.559445 346.740418 
L 256.559445 334.320557 
L 256.559445 334.320557 
L 256.559445 321.900696 
L 256.559445 321.900696 
L 256.559445 309.480835 
L 256.559445 309.480835 
L 256.559445 297.060974 
L 256.559445 297.060974 
L 256.559445 284.641114 
L 256.559445 284.641114 
L 256.559445 272.221253 
L 256.559445 272.221253 
L 256.559445 259.801392 
L 256.559445 259.801392 
L 256.559445 247.381531 
L 256.559445 247.381531 
L 256.559445 234.96167 
L 256.559445 234.96167 
L 256.559445 222.54181 
L 256.559445 222.54181 
L 256.559445 210.121949 
L 256.559445 210.121949 
L 256.559445 197.702088 
L 492.07669 197.702088 
L 492.07669 185.282227 
L 493.309328 185.282227 
L 493.309328 172.862366 
L 494.219919 172.862366 
L 494.219919 160.442506 
L 494.670858 160.442506 
L 494.670858 148.022645 
L 495.118943 148.022645 
L 495.118943 135.602784 
L 496.738065 135.602784 
L 496.738065 123.182923 
L 543.626444 123.182923 
L 543.626444 110.763062 
L 544.224102 110.763062 
L 544.224102 98.343202 
L 544.816754 98.343202 
L 544.816754 85.923341 
L 571.244555 85.923341 
L 571.244555 73.50348 
L 574.325076 73.50348 
L 574.325076 61.083619 
L 574.410688 61.083619 
L 574.410688 48.663758 
L 577 48.663758 
" style="fill:none;stroke:#f5deb3;stroke-linecap:square;"/>
   </g>
   <g id="line2d_31">
    <path clip-path="url(#p27007687df)" d="M 368.538711 384 
L 368.538711 371.580139 
L 373.175117 371.580139 
L 373.175117 359.160278 
L 373.886401 359.160278 
L 373.886401 346.740418 
L 374.434722 346.740418 
L 374.434722 334.320557 
L 376.548629 334.320557 
L 376.548629 321.900696 
L 376.624321 321.900696 
L 376.624321 309.480835 
L 377.189447 309.480835 
L 377.189447 297.060974 
L 378.968109 297.060974 
L 378.968109 284.641114 
L 380.129525 284.641114 
L 380.129525 272.221253 
L 383.846006 272.221253 
L 383.846006 259.801392 
L 387.895028 259.801392 
L 387.895028 247.381531 
L 388.63308 247.381531 
L 388.63308 234.96167 
L 388.760655 234.96167 
L 388.760655 222.54181 
L 395.270934 222.54181 
L 395.270934 210.121949 
L 395.878672 210.121949 
L 395.878672 197.702088 
L 485.949648 197.702088 
L 485.949648 185.282227 
L 486.943408 185.282227 
L 486.943408 172.862366 
L 487.59299 172.862366 
L 487.59299 160.442506 
L 489.637066 160.442506 
L 489.637066 148.022645 
L 490.03432 148.022645 
L 490.03432 135.602784 
L 490.19412 135.602784 
L 490.19412 123.182923 
L 490.239711 123.182923 
L 490.239711 110.763062 
L 491.137914 110.763062 
L 491.137914 98.343202 
L 491.24284 98.343202 
L 491.24284 85.923341 
L 491.37004 85.923341 
L 491.37004 73.50348 
L 492.061885 73.50348 
L 492.061885 61.083619 
L 492.504674 61.083619 
L 492.504674 48.663758 
L 494.284515 48.663758 
L 494.284515 36.243898 
L 495.048007 36.243898 
L 495.048007 23.824037 
L 496.696475 23.824037 
L 496.696475 11.404176 
L 496.696475 11.404176 
L 496.696475 11.404176 
L 567.24 11.404176 
" style="fill:none;stroke:#000000;stroke-linecap:square;"/>
   </g>
   <g id="line2d_32">
    <path clip-path="url(#p27007687df)" d="M -48995.233395 756.595824 
" style="fill:none;stroke:#000000;stroke-linecap:square;"/>
   </g>
   <g id="line2d_33">
    <path clip-path="url(#p27007687df)" d="M 451.243328 384 
L 451.243328 371.580139 
L 454.413339 371.580139 
L 454.413339 359.160278 
L 456.56056 359.160278 
L 456.56056 346.740418 
L 456.902043 346.740418 
L 456.902043 334.320557 
L 457.556 334.320557 
L 457.556 321.900696 
L 457.844719 321.900696 
L 457.844719 309.480835 
L 457.916715 309.480835 
L 457.916715 297.060974 
L 460.205979 297.060974 
L 460.205979 284.641114 
L 460.761148 284.641114 
L 460.761148 272.221253 
L 462.950446 272.221253 
L 462.950446 259.801392 
L 463.273633 259.801392 
L 463.273633 247.381531 
L 463.384735 247.381531 
L 463.384735 234.96167 
L 463.429127 234.96167 
L 463.429127 222.54181 
L 463.539986 222.54181 
L 463.539986 210.121949 
L 464.878663 210.121949 
L 464.878663 197.702088 
L 509.319559 197.702088 
L 509.319559 185.282227 
L 511.574641 185.282227 
L 511.574641 172.862366 
L 512.267998 172.862366 
L 512.267998 160.442506 
L 512.412522 160.442506 
L 512.412522 148.022645 
L 512.612146 148.022645 
L 512.612146 135.602784 
L 512.932583 135.602784 
L 512.932583 123.182923 
L 513.02623 123.182923 
L 513.02623 110.763062 
L 513.416009 110.763062 
L 513.416009 98.343202 
L 513.618286 98.343202 
L 513.618286 85.923341 
L 514.0591 85.923341 
L 514.0591 73.50348 
L 514.852149 73.50348 
L 514.852149 61.083619 
L 515.662934 61.083619 
L 515.662934 48.663758 
L 516.882812 48.663758 
L 516.882812 36.243898 
L 517.645009 36.243898 
L 517.645009 23.824037 
L 518.317398 23.824037 
L 518.317398 11.404176 
L 518.317398 11.404176 
L 518.317398 11.404176 
L 567.24 11.404176 
" style="fill:none;stroke:#00bfbf;stroke-linecap:square;"/>
   </g>
   <g id="line2d_34">
    <path clip-path="url(#p27007687df)" d="M -48995.233395 756.595824 
" style="fill:none;stroke:#00bfbf;stroke-linecap:square;"/>
   </g>
   <g id="line2d_35">
    <path clip-path="url(#p27007687df)" d="M 502.593969 384 
L 502.593969 371.580139 
L 503.808321 371.580139 
L 503.808321 359.160278 
L 504.687025 359.160278 
L 504.687025 346.740418 
L 505.377311 346.740418 
L 505.377311 334.320557 
L 505.456999 334.320557 
L 505.456999 321.900696 
L 507.616952 321.900696 
L 507.616952 309.480835 
L 507.664474 309.480835 
L 507.664474 297.060974 
L 508.055318 297.060974 
L 508.055318 284.641114 
L 508.602415 284.641114 
L 508.602415 272.221253 
L 508.842271 272.221253 
L 508.842271 259.801392 
L 509.052209 259.801392 
L 509.052209 247.381531 
L 509.290548 247.381531 
L 509.290548 234.96167 
L 509.568563 234.96167 
L 509.568563 222.54181 
L 509.730236 222.54181 
L 509.730236 210.121949 
L 510.624285 210.121949 
L 510.624285 197.702088 
L 537.029952 197.702088 
L 537.029952 185.282227 
L 538.975503 185.282227 
L 538.975503 172.862366 
L 539.12414 172.862366 
L 539.12414 160.442506 
L 539.469751 160.442506 
L 539.469751 148.022645 
L 539.824992 148.022645 
L 539.824992 135.602784 
L 540.230952 135.602784 
L 540.230952 123.182923 
L 540.388199 123.182923 
L 540.388199 110.763062 
L 540.66813 110.763062 
L 540.66813 98.343202 
L 541.073 98.343202 
L 541.073 85.923341 
L 541.121133 85.923341 
L 541.121133 73.50348 
L 541.582287 73.50348 
L 541.582287 61.083619 
L 541.648447 61.083619 
L 541.648447 48.663758 
L 541.729224 48.663758 
L 541.729224 36.243898 
L 543.128109 36.243898 
L 543.128109 23.824037 
L 545.072737 23.824037 
L 545.072737 11.404176 
L 545.072737 11.404176 
L 545.072737 11.404176 
L 567.24 11.404176 
" style="fill:none;stroke:#bf00bf;stroke-linecap:square;"/>
   </g>
   <g id="line2d_36">
    <path clip-path="url(#p27007687df)" d="M -48995.233395 756.595824 
" style="fill:none;stroke:#bf00bf;stroke-linecap:square;"/>
   </g>
   <g id="line2d_37">
    <path clip-path="url(#p27007687df)" d="M 539.393937 384 
L 539.393937 371.580139 
L 540.043297 371.580139 
L 540.043297 359.160278 
L 540.55629 359.160278 
L 540.55629 346.740418 
L 540.917269 346.740418 
L 540.917269 334.320557 
L 541.035952 334.320557 
L 541.035952 321.900696 
L 543.401015 321.900696 
L 543.401015 309.480835 
L 543.404599 309.480835 
L 543.404599 297.060974 
L 543.687151 297.060974 
L 543.687151 284.641114 
L 543.69429 284.641114 
L 543.69429 272.221253 
L 544.542211 272.221253 
L 544.542211 259.801392 
L 544.82378 259.801392 
L 544.82378 247.381531 
L 545.198635 247.381531 
L 545.198635 234.96167 
L 545.310357 234.96167 
L 545.310357 222.54181 
L 546.968766 222.54181 
L 546.968766 210.121949 
L 547.162742 210.121949 
L 547.162742 197.702088 
L 562.600095 197.702088 
L 562.600095 185.282227 
L 562.750219 185.282227 
L 562.750219 172.862366 
L 563.409706 172.862366 
L 563.409706 160.442506 
L 563.585075 160.442506 
L 563.585075 148.022645 
L 563.733125 148.022645 
L 563.733125 135.602784 
L 564.129985 135.602784 
L 564.129985 123.182923 
L 564.42085 123.182923 
L 564.42085 110.763062 
L 564.52729 110.763062 
L 564.52729 98.343202 
L 564.946172 98.343202 
L 564.946172 85.923341 
L 564.951458 85.923341 
L 564.951458 73.50348 
L 565.509593 73.50348 
L 565.509593 61.083619 
L 565.703382 61.083619 
L 565.703382 48.663758 
L 566.499139 48.663758 
L 566.499139 36.243898 
L 567.083728 36.243898 
L 567.083728 23.824037 
L 567.24 23.824037 
L 567.24 11.404176 
L 567.24 11.404176 
" style="fill:none;stroke:#ff0000;stroke-linecap:square;stroke-width:3.0;"/>
   </g>
   <g id="line2d_38">
    <path clip-path="url(#p27007687df)" d="M -48995.233395 756.595824 
" style="fill:none;stroke:#ff0000;stroke-linecap:square;stroke-width:3.0;"/>
   </g>
   <g id="line2d_39">
    <path clip-path="url(#p27007687df)" d="M 567.24 384 
L 567.24 7.678218 
" style="fill:none;stroke:#000000;stroke-linecap:square;"/>
   </g>
   <g id="patch_3">
    <path d="M 55.425 384 
L 567.24 384 
" style="fill:none;stroke:#000000;stroke-linecap:square;stroke-linejoin:miter;"/>
   </g>
   <g id="patch_4">
    <path d="M 567.24 384 
L 567.24 7.678218 
" style="fill:none;stroke:#000000;stroke-linecap:square;stroke-linejoin:miter;"/>
   </g>
   <g id="patch_5">
    <path d="M 55.425 7.678218 
L 567.24 7.678218 
" style="fill:none;stroke:#000000;stroke-linecap:square;stroke-linejoin:miter;"/>
   </g>
   <g id="patch_6">
    <path d="M 55.425 384 
L 55.425 7.678218 
" style="fill:none;stroke:#000000;stroke-linecap:square;stroke-linejoin:miter;"/>
   </g>
   <g id="matplotlib.axis_1">
    <g id="xtick_1">
     <g id="line2d_40">
      <path clip-path="url(#p27007687df)" d="M 55.425 384 
L 55.425 7.678218 
" style="fill:none;stroke:#000000;stroke-dasharray:1.000000,3.000000;stroke-dashoffset:0.0;stroke-width:0.5;"/>
     </g>
     <g id="line2d_41">
      <defs>
       <path d="M 0 0 
L 0 -4 
" id="md0dc961b1f" style="stroke:#000000;stroke-width:0.5;"/>
      </defs>
      <g>
       <use style="stroke:#000000;stroke-width:0.5;" x="55.42500000000001" xlink:href="#md0dc961b1f" y="384.0"/>
      </g>
     </g>
     <g id="line2d_42">
      <defs>
       <path d="M 0 0 
L 0 4 
" id="mce6e5b1607" style="stroke:#000000;stroke-width:0.5;"/>
      </defs>
      <g>
       <use style="stroke:#000000;stroke-width:0.5;" x="55.42500000000001" xlink:href="#mce6e5b1607" y="7.678217821782141"/>
      </g>
     </g>
     <g id="text_1">
      <!-- 0 -->
      <defs>
       <path d="M 31.78125 66.40625 
Q 24.171875 66.40625 20.328125 58.90625 
Q 16.5 51.421875 16.5 36.375 
Q 16.5 21.390625 20.328125 13.890625 
Q 24.171875 6.390625 31.78125 6.390625 
Q 39.453125 6.390625 43.28125 13.890625 
Q 47.125 21.390625 47.125 36.375 
Q 47.125 51.421875 43.28125 58.90625 
Q 39.453125 66.40625 31.78125 66.40625 
M 31.78125 74.21875 
Q 44.046875 74.21875 50.515625 64.515625 
Q 56.984375 54.828125 56.984375 36.375 
Q 56.984375 17.96875 50.515625 8.265625 
Q 44.046875 -1.421875 31.78125 -1.421875 
Q 19.53125 -1.421875 13.0625 8.265625 
Q 6.59375 17.96875 6.59375 36.375 
Q 6.59375 54.828125 13.0625 64.515625 
Q 19.53125 74.21875 31.78125 74.21875 
" id="BitstreamVeraSans-Roman-30"/>
      </defs>
      <g transform="translate(49.062500000000014 403.196875)scale(0.2 -0.2)">
       <use xlink:href="#BitstreamVeraSans-Roman-30"/>
      </g>
     </g>
    </g>
    <g id="xtick_2">
     <g id="line2d_43">
      <path clip-path="url(#p27007687df)" d="M 218.383998 384 
L 218.383998 7.678218 
" style="fill:none;stroke:#000000;stroke-dasharray:1.000000,3.000000;stroke-dashoffset:0.0;stroke-width:0.5;"/>
     </g>
     <g id="line2d_44">
      <g>
       <use style="stroke:#000000;stroke-width:0.5;" x="218.38399798849142" xlink:href="#md0dc961b1f" y="384.0"/>
      </g>
     </g>
     <g id="line2d_45">
      <g>
       <use style="stroke:#000000;stroke-width:0.5;" x="218.38399798849142" xlink:href="#mce6e5b1607" y="7.678217821782141"/>
      </g>
     </g>
     <g id="text_2">
      <!-- 1 -->
      <defs>
       <path d="M 12.40625 8.296875 
L 28.515625 8.296875 
L 28.515625 63.921875 
L 10.984375 60.40625 
L 10.984375 69.390625 
L 28.421875 72.90625 
L 38.28125 72.90625 
L 38.28125 8.296875 
L 54.390625 8.296875 
L 54.390625 0 
L 12.40625 0 
z
" id="BitstreamVeraSans-Roman-31"/>
      </defs>
      <g transform="translate(212.0214979884914 403.196875)scale(0.2 -0.2)">
       <use xlink:href="#BitstreamVeraSans-Roman-31"/>
      </g>
     </g>
    </g>
    <g id="xtick_3">
     <g id="line2d_46">
      <path clip-path="url(#p27007687df)" d="M 381.342996 384 
L 381.342996 7.678218 
" style="fill:none;stroke:#000000;stroke-dasharray:1.000000,3.000000;stroke-dashoffset:0.0;stroke-width:0.5;"/>
     </g>
     <g id="line2d_47">
      <g>
       <use style="stroke:#000000;stroke-width:0.5;" x="381.3429959769828" xlink:href="#md0dc961b1f" y="384.0"/>
      </g>
     </g>
     <g id="line2d_48">
      <g>
       <use style="stroke:#000000;stroke-width:0.5;" x="381.3429959769828" xlink:href="#mce6e5b1607" y="7.678217821782141"/>
      </g>
     </g>
     <g id="text_3">
      <!-- 2 -->
      <defs>
       <path d="M 19.1875 8.296875 
L 53.609375 8.296875 
L 53.609375 0 
L 7.328125 0 
L 7.328125 8.296875 
Q 12.9375 14.109375 22.625 23.890625 
Q 32.328125 33.6875 34.8125 36.53125 
Q 39.546875 41.84375 41.421875 45.53125 
Q 43.3125 49.21875 43.3125 52.78125 
Q 43.3125 58.59375 39.234375 62.25 
Q 35.15625 65.921875 28.609375 65.921875 
Q 23.96875 65.921875 18.8125 64.3125 
Q 13.671875 62.703125 7.8125 59.421875 
L 7.8125 69.390625 
Q 13.765625 71.78125 18.9375 73 
Q 24.125 74.21875 28.421875 74.21875 
Q 39.75 74.21875 46.484375 68.546875 
Q 53.21875 62.890625 53.21875 53.421875 
Q 53.21875 48.921875 51.53125 44.890625 
Q 49.859375 40.875 45.40625 35.40625 
Q 44.1875 33.984375 37.640625 27.21875 
Q 31.109375 20.453125 19.1875 8.296875 
" id="BitstreamVeraSans-Roman-32"/>
      </defs>
      <g transform="translate(374.9804959769828 403.196875)scale(0.2 -0.2)">
       <use xlink:href="#BitstreamVeraSans-Roman-32"/>
      </g>
     </g>
    </g>
    <g id="xtick_4">
     <g id="line2d_49">
      <path clip-path="url(#p27007687df)" d="M 544.301994 384 
L 544.301994 7.678218 
" style="fill:none;stroke:#000000;stroke-dasharray:1.000000,3.000000;stroke-dashoffset:0.0;stroke-width:0.5;"/>
     </g>
     <g id="line2d_50">
      <g>
       <use style="stroke:#000000;stroke-width:0.5;" x="544.3019939654743" xlink:href="#md0dc961b1f" y="384.0"/>
      </g>
     </g>
     <g id="line2d_51">
      <g>
       <use style="stroke:#000000;stroke-width:0.5;" x="544.3019939654743" xlink:href="#mce6e5b1607" y="7.678217821782141"/>
      </g>
     </g>
     <g id="text_4">
      <!-- 3 -->
      <defs>
       <path d="M 40.578125 39.3125 
Q 47.65625 37.796875 51.625 33 
Q 55.609375 28.21875 55.609375 21.1875 
Q 55.609375 10.40625 48.1875 4.484375 
Q 40.765625 -1.421875 27.09375 -1.421875 
Q 22.515625 -1.421875 17.65625 -0.515625 
Q 12.796875 0.390625 7.625 2.203125 
L 7.625 11.71875 
Q 11.71875 9.328125 16.59375 8.109375 
Q 21.484375 6.890625 26.8125 6.890625 
Q 36.078125 6.890625 40.9375 10.546875 
Q 45.796875 14.203125 45.796875 21.1875 
Q 45.796875 27.640625 41.28125 31.265625 
Q 36.765625 34.90625 28.71875 34.90625 
L 20.21875 34.90625 
L 20.21875 43.015625 
L 29.109375 43.015625 
Q 36.375 43.015625 40.234375 45.921875 
Q 44.09375 48.828125 44.09375 54.296875 
Q 44.09375 59.90625 40.109375 62.90625 
Q 36.140625 65.921875 28.71875 65.921875 
Q 24.65625 65.921875 20.015625 65.03125 
Q 15.375 64.15625 9.8125 62.3125 
L 9.8125 71.09375 
Q 15.4375 72.65625 20.34375 73.4375 
Q 25.25 74.21875 29.59375 74.21875 
Q 40.828125 74.21875 47.359375 69.109375 
Q 53.90625 64.015625 53.90625 55.328125 
Q 53.90625 49.265625 50.4375 45.09375 
Q 46.96875 40.921875 40.578125 39.3125 
" id="BitstreamVeraSans-Roman-33"/>
      </defs>
      <g transform="translate(537.9394939654743 403.196875)scale(0.2 -0.2)">
       <use xlink:href="#BitstreamVeraSans-Roman-33"/>
      </g>
     </g>
    </g>
    <g id="xtick_5">
     <g id="line2d_52">
      <path clip-path="url(#p27007687df)" d="M 104.480546 384 
L 104.480546 7.678218 
" style="fill:none;stroke:#000000;stroke-dasharray:1.000000,3.000000;stroke-dashoffset:0.0;stroke-width:0.5;"/>
     </g>
     <g id="line2d_53">
      <defs>
       <path d="M 0 0 
L 0 -2 
" id="m3286ebf99f" style="stroke:#000000;stroke-width:0.5;"/>
      </defs>
      <g>
       <use style="stroke:#000000;stroke-width:0.5;" x="104.4805464578823" xlink:href="#m3286ebf99f" y="384.0"/>
      </g>
     </g>
     <g id="line2d_54">
      <defs>
       <path d="M 0 0 
L 0 2 
" id="m1ed2236277" style="stroke:#000000;stroke-width:0.5;"/>
      </defs>
      <g>
       <use style="stroke:#000000;stroke-width:0.5;" x="104.4805464578823" xlink:href="#m1ed2236277" y="7.678217821782141"/>
      </g>
     </g>
    </g>
    <g id="xtick_6">
     <g id="line2d_55">
      <path clip-path="url(#p27007687df)" d="M 133.176202 384 
L 133.176202 7.678218 
" style="fill:none;stroke:#000000;stroke-dasharray:1.000000,3.000000;stroke-dashoffset:0.0;stroke-width:0.5;"/>
     </g>
     <g id="line2d_56">
      <g>
       <use style="stroke:#000000;stroke-width:0.5;" x="133.17620158812798" xlink:href="#m3286ebf99f" y="384.0"/>
      </g>
     </g>
     <g id="line2d_57">
      <g>
       <use style="stroke:#000000;stroke-width:0.5;" x="133.17620158812798" xlink:href="#m1ed2236277" y="7.678217821782141"/>
      </g>
     </g>
    </g>
    <g id="xtick_7">
     <g id="line2d_58">
      <path clip-path="url(#p27007687df)" d="M 153.536093 384 
L 153.536093 7.678218 
" style="fill:none;stroke:#000000;stroke-dasharray:1.000000,3.000000;stroke-dashoffset:0.0;stroke-width:0.5;"/>
     </g>
     <g id="line2d_59">
      <g>
       <use style="stroke:#000000;stroke-width:0.5;" x="153.5360929157646" xlink:href="#m3286ebf99f" y="384.0"/>
      </g>
     </g>
     <g id="line2d_60">
      <g>
       <use style="stroke:#000000;stroke-width:0.5;" x="153.5360929157646" xlink:href="#m1ed2236277" y="7.678217821782141"/>
      </g>
     </g>
    </g>
    <g id="xtick_8">
     <g id="line2d_61">
      <path clip-path="url(#p27007687df)" d="M 169.328452 384 
L 169.328452 7.678218 
" style="fill:none;stroke:#000000;stroke-dasharray:1.000000,3.000000;stroke-dashoffset:0.0;stroke-width:0.5;"/>
     </g>
     <g id="line2d_62">
      <g>
       <use style="stroke:#000000;stroke-width:0.5;" x="169.3284515306091" xlink:href="#m3286ebf99f" y="384.0"/>
      </g>
     </g>
     <g id="line2d_63">
      <g>
       <use style="stroke:#000000;stroke-width:0.5;" x="169.3284515306091" xlink:href="#m1ed2236277" y="7.678217821782141"/>
      </g>
     </g>
    </g>
    <g id="xtick_9">
     <g id="line2d_64">
      <path clip-path="url(#p27007687df)" d="M 182.231748 384 
L 182.231748 7.678218 
" style="fill:none;stroke:#000000;stroke-dasharray:1.000000,3.000000;stroke-dashoffset:0.0;stroke-width:0.5;"/>
     </g>
     <g id="line2d_65">
      <g>
       <use style="stroke:#000000;stroke-width:0.5;" x="182.23174804601027" xlink:href="#m3286ebf99f" y="384.0"/>
      </g>
     </g>
     <g id="line2d_66">
      <g>
       <use style="stroke:#000000;stroke-width:0.5;" x="182.23174804601027" xlink:href="#m1ed2236277" y="7.678217821782141"/>
      </g>
     </g>
    </g>
    <g id="xtick_10">
     <g id="line2d_67">
      <path clip-path="url(#p27007687df)" d="M 193.14133 384 
L 193.14133 7.678218 
" style="fill:none;stroke:#000000;stroke-dasharray:1.000000,3.000000;stroke-dashoffset:0.0;stroke-width:0.5;"/>
     </g>
     <g id="line2d_68">
      <g>
       <use style="stroke:#000000;stroke-width:0.5;" x="193.14132980276136" xlink:href="#m3286ebf99f" y="384.0"/>
      </g>
     </g>
     <g id="line2d_69">
      <g>
       <use style="stroke:#000000;stroke-width:0.5;" x="193.14132980276136" xlink:href="#m1ed2236277" y="7.678217821782141"/>
      </g>
     </g>
    </g>
    <g id="xtick_11">
     <g id="line2d_70">
      <path clip-path="url(#p27007687df)" d="M 202.591639 384 
L 202.591639 7.678218 
" style="fill:none;stroke:#000000;stroke-dasharray:1.000000,3.000000;stroke-dashoffset:0.0;stroke-width:0.5;"/>
     </g>
     <g id="line2d_71">
      <g>
       <use style="stroke:#000000;stroke-width:0.5;" x="202.59163937364687" xlink:href="#m3286ebf99f" y="384.0"/>
      </g>
     </g>
     <g id="line2d_72">
      <g>
       <use style="stroke:#000000;stroke-width:0.5;" x="202.59163937364687" xlink:href="#m1ed2236277" y="7.678217821782141"/>
      </g>
     </g>
    </g>
    <g id="xtick_12">
     <g id="line2d_73">
      <path clip-path="url(#p27007687df)" d="M 210.927403 384 
L 210.927403 7.678218 
" style="fill:none;stroke:#000000;stroke-dasharray:1.000000,3.000000;stroke-dashoffset:0.0;stroke-width:0.5;"/>
     </g>
     <g id="line2d_74">
      <g>
       <use style="stroke:#000000;stroke-width:0.5;" x="210.92740317625592" xlink:href="#m3286ebf99f" y="384.0"/>
      </g>
     </g>
     <g id="line2d_75">
      <g>
       <use style="stroke:#000000;stroke-width:0.5;" x="210.92740317625592" xlink:href="#m1ed2236277" y="7.678217821782141"/>
      </g>
     </g>
    </g>
    <g id="xtick_13">
     <g id="line2d_76">
      <path clip-path="url(#p27007687df)" d="M 267.439544 384 
L 267.439544 7.678218 
" style="fill:none;stroke:#000000;stroke-dasharray:1.000000,3.000000;stroke-dashoffset:0.0;stroke-width:0.5;"/>
     </g>
     <g id="line2d_77">
      <g>
       <use style="stroke:#000000;stroke-width:0.5;" x="267.4395444463737" xlink:href="#m3286ebf99f" y="384.0"/>
      </g>
     </g>
     <g id="line2d_78">
      <g>
       <use style="stroke:#000000;stroke-width:0.5;" x="267.4395444463737" xlink:href="#m1ed2236277" y="7.678217821782141"/>
      </g>
     </g>
    </g>
    <g id="xtick_14">
     <g id="line2d_79">
      <path clip-path="url(#p27007687df)" d="M 296.1352 384 
L 296.1352 7.678218 
" style="fill:none;stroke:#000000;stroke-dasharray:1.000000,3.000000;stroke-dashoffset:0.0;stroke-width:0.5;"/>
     </g>
     <g id="line2d_80">
      <g>
       <use style="stroke:#000000;stroke-width:0.5;" x="296.13519957661936" xlink:href="#m3286ebf99f" y="384.0"/>
      </g>
     </g>
     <g id="line2d_81">
      <g>
       <use style="stroke:#000000;stroke-width:0.5;" x="296.13519957661936" xlink:href="#m1ed2236277" y="7.678217821782141"/>
      </g>
     </g>
    </g>
    <g id="xtick_15">
     <g id="line2d_82">
      <path clip-path="url(#p27007687df)" d="M 316.495091 384 
L 316.495091 7.678218 
" style="fill:none;stroke:#000000;stroke-dasharray:1.000000,3.000000;stroke-dashoffset:0.0;stroke-width:0.5;"/>
     </g>
     <g id="line2d_83">
      <g>
       <use style="stroke:#000000;stroke-width:0.5;" x="316.495090904256" xlink:href="#m3286ebf99f" y="384.0"/>
      </g>
     </g>
     <g id="line2d_84">
      <g>
       <use style="stroke:#000000;stroke-width:0.5;" x="316.495090904256" xlink:href="#m1ed2236277" y="7.678217821782141"/>
      </g>
     </g>
    </g>
    <g id="xtick_16">
     <g id="line2d_85">
      <path clip-path="url(#p27007687df)" d="M 332.28745 384 
L 332.28745 7.678218 
" style="fill:none;stroke:#000000;stroke-dasharray:1.000000,3.000000;stroke-dashoffset:0.0;stroke-width:0.5;"/>
     </g>
     <g id="line2d_86">
      <g>
       <use style="stroke:#000000;stroke-width:0.5;" x="332.2874495191005" xlink:href="#m3286ebf99f" y="384.0"/>
      </g>
     </g>
     <g id="line2d_87">
      <g>
       <use style="stroke:#000000;stroke-width:0.5;" x="332.2874495191005" xlink:href="#m1ed2236277" y="7.678217821782141"/>
      </g>
     </g>
    </g>
    <g id="xtick_17">
     <g id="line2d_88">
      <path clip-path="url(#p27007687df)" d="M 345.190746 384 
L 345.190746 7.678218 
" style="fill:none;stroke:#000000;stroke-dasharray:1.000000,3.000000;stroke-dashoffset:0.0;stroke-width:0.5;"/>
     </g>
     <g id="line2d_89">
      <g>
       <use style="stroke:#000000;stroke-width:0.5;" x="345.1907460345017" xlink:href="#m3286ebf99f" y="384.0"/>
      </g>
     </g>
     <g id="line2d_90">
      <g>
       <use style="stroke:#000000;stroke-width:0.5;" x="345.1907460345017" xlink:href="#m1ed2236277" y="7.678217821782141"/>
      </g>
     </g>
    </g>
    <g id="xtick_18">
     <g id="line2d_91">
      <path clip-path="url(#p27007687df)" d="M 356.100328 384 
L 356.100328 7.678218 
" style="fill:none;stroke:#000000;stroke-dasharray:1.000000,3.000000;stroke-dashoffset:0.0;stroke-width:0.5;"/>
     </g>
     <g id="line2d_92">
      <g>
       <use style="stroke:#000000;stroke-width:0.5;" x="356.10032779125277" xlink:href="#m3286ebf99f" y="384.0"/>
      </g>
     </g>
     <g id="line2d_93">
      <g>
       <use style="stroke:#000000;stroke-width:0.5;" x="356.10032779125277" xlink:href="#m1ed2236277" y="7.678217821782141"/>
      </g>
     </g>
    </g>
    <g id="xtick_19">
     <g id="line2d_94">
      <path clip-path="url(#p27007687df)" d="M 365.550637 384 
L 365.550637 7.678218 
" style="fill:none;stroke:#000000;stroke-dasharray:1.000000,3.000000;stroke-dashoffset:0.0;stroke-width:0.5;"/>
     </g>
     <g id="line2d_95">
      <g>
       <use style="stroke:#000000;stroke-width:0.5;" x="365.55063736213833" xlink:href="#m3286ebf99f" y="384.0"/>
      </g>
     </g>
     <g id="line2d_96">
      <g>
       <use style="stroke:#000000;stroke-width:0.5;" x="365.55063736213833" xlink:href="#m1ed2236277" y="7.678217821782141"/>
      </g>
     </g>
    </g>
    <g id="xtick_20">
     <g id="line2d_97">
      <path clip-path="url(#p27007687df)" d="M 373.886401 384 
L 373.886401 7.678218 
" style="fill:none;stroke:#000000;stroke-dasharray:1.000000,3.000000;stroke-dashoffset:0.0;stroke-width:0.5;"/>
     </g>
     <g id="line2d_98">
      <g>
       <use style="stroke:#000000;stroke-width:0.5;" x="373.8864011647473" xlink:href="#m3286ebf99f" y="384.0"/>
      </g>
     </g>
     <g id="line2d_99">
      <g>
       <use style="stroke:#000000;stroke-width:0.5;" x="373.8864011647473" xlink:href="#m1ed2236277" y="7.678217821782141"/>
      </g>
     </g>
    </g>
    <g id="xtick_21">
     <g id="line2d_100">
      <path clip-path="url(#p27007687df)" d="M 430.398542 384 
L 430.398542 7.678218 
" style="fill:none;stroke:#000000;stroke-dasharray:1.000000,3.000000;stroke-dashoffset:0.0;stroke-width:0.5;"/>
     </g>
     <g id="line2d_101">
      <g>
       <use style="stroke:#000000;stroke-width:0.5;" x="430.39854243486513" xlink:href="#m3286ebf99f" y="384.0"/>
      </g>
     </g>
     <g id="line2d_102">
      <g>
       <use style="stroke:#000000;stroke-width:0.5;" x="430.39854243486513" xlink:href="#m1ed2236277" y="7.678217821782141"/>
      </g>
     </g>
    </g>
    <g id="xtick_22">
     <g id="line2d_103">
      <path clip-path="url(#p27007687df)" d="M 459.094198 384 
L 459.094198 7.678218 
" style="fill:none;stroke:#000000;stroke-dasharray:1.000000,3.000000;stroke-dashoffset:0.0;stroke-width:0.5;"/>
     </g>
     <g id="line2d_104">
      <g>
       <use style="stroke:#000000;stroke-width:0.5;" x="459.0941975651108" xlink:href="#m3286ebf99f" y="384.0"/>
      </g>
     </g>
     <g id="line2d_105">
      <g>
       <use style="stroke:#000000;stroke-width:0.5;" x="459.0941975651108" xlink:href="#m1ed2236277" y="7.678217821782141"/>
      </g>
     </g>
    </g>
    <g id="xtick_23">
     <g id="line2d_106">
      <path clip-path="url(#p27007687df)" d="M 479.454089 384 
L 479.454089 7.678218 
" style="fill:none;stroke:#000000;stroke-dasharray:1.000000,3.000000;stroke-dashoffset:0.0;stroke-width:0.5;"/>
     </g>
     <g id="line2d_107">
      <g>
       <use style="stroke:#000000;stroke-width:0.5;" x="479.45408889274745" xlink:href="#m3286ebf99f" y="384.0"/>
      </g>
     </g>
     <g id="line2d_108">
      <g>
       <use style="stroke:#000000;stroke-width:0.5;" x="479.45408889274745" xlink:href="#m1ed2236277" y="7.678217821782141"/>
      </g>
     </g>
    </g>
    <g id="xtick_24">
     <g id="line2d_109">
      <path clip-path="url(#p27007687df)" d="M 495.246448 384 
L 495.246448 7.678218 
" style="fill:none;stroke:#000000;stroke-dasharray:1.000000,3.000000;stroke-dashoffset:0.0;stroke-width:0.5;"/>
     </g>
     <g id="line2d_110">
      <g>
       <use style="stroke:#000000;stroke-width:0.5;" x="495.24644750759194" xlink:href="#m3286ebf99f" y="384.0"/>
      </g>
     </g>
     <g id="line2d_111">
      <g>
       <use style="stroke:#000000;stroke-width:0.5;" x="495.24644750759194" xlink:href="#m1ed2236277" y="7.678217821782141"/>
      </g>
     </g>
    </g>
    <g id="xtick_25">
     <g id="line2d_112">
      <path clip-path="url(#p27007687df)" d="M 508.149744 384 
L 508.149744 7.678218 
" style="fill:none;stroke:#000000;stroke-dasharray:1.000000,3.000000;stroke-dashoffset:0.0;stroke-width:0.5;"/>
     </g>
     <g id="line2d_113">
      <g>
       <use style="stroke:#000000;stroke-width:0.5;" x="508.1497440229931" xlink:href="#m3286ebf99f" y="384.0"/>
      </g>
     </g>
     <g id="line2d_114">
      <g>
       <use style="stroke:#000000;stroke-width:0.5;" x="508.1497440229931" xlink:href="#m1ed2236277" y="7.678217821782141"/>
      </g>
     </g>
    </g>
    <g id="xtick_26">
     <g id="line2d_115">
      <path clip-path="url(#p27007687df)" d="M 519.059326 384 
L 519.059326 7.678218 
" style="fill:none;stroke:#000000;stroke-dasharray:1.000000,3.000000;stroke-dashoffset:0.0;stroke-width:0.5;"/>
     </g>
     <g id="line2d_116">
      <g>
       <use style="stroke:#000000;stroke-width:0.5;" x="519.0593257797442" xlink:href="#m3286ebf99f" y="384.0"/>
      </g>
     </g>
     <g id="line2d_117">
      <g>
       <use style="stroke:#000000;stroke-width:0.5;" x="519.0593257797442" xlink:href="#m1ed2236277" y="7.678217821782141"/>
      </g>
     </g>
    </g>
    <g id="xtick_27">
     <g id="line2d_118">
      <path clip-path="url(#p27007687df)" d="M 528.509635 384 
L 528.509635 7.678218 
" style="fill:none;stroke:#000000;stroke-dasharray:1.000000,3.000000;stroke-dashoffset:0.0;stroke-width:0.5;"/>
     </g>
     <g id="line2d_119">
      <g>
       <use style="stroke:#000000;stroke-width:0.5;" x="528.5096353506298" xlink:href="#m3286ebf99f" y="384.0"/>
      </g>
     </g>
     <g id="line2d_120">
      <g>
       <use style="stroke:#000000;stroke-width:0.5;" x="528.5096353506298" xlink:href="#m1ed2236277" y="7.678217821782141"/>
      </g>
     </g>
    </g>
    <g id="xtick_28">
     <g id="line2d_121">
      <path clip-path="url(#p27007687df)" d="M 536.845399 384 
L 536.845399 7.678218 
" style="fill:none;stroke:#000000;stroke-dasharray:1.000000,3.000000;stroke-dashoffset:0.0;stroke-width:0.5;"/>
     </g>
     <g id="line2d_122">
      <g>
       <use style="stroke:#000000;stroke-width:0.5;" x="536.8453991532388" xlink:href="#m3286ebf99f" y="384.0"/>
      </g>
     </g>
     <g id="line2d_123">
      <g>
       <use style="stroke:#000000;stroke-width:0.5;" x="536.8453991532388" xlink:href="#m1ed2236277" y="7.678217821782141"/>
      </g>
     </g>
    </g>
    <g id="text_5">
     <!-- log10 of FEvals / DIM -->
     <defs>
      <path d="M 34.28125 27.484375 
Q 23.390625 27.484375 19.1875 25 
Q 14.984375 22.515625 14.984375 16.5 
Q 14.984375 11.71875 18.140625 8.90625 
Q 21.296875 6.109375 26.703125 6.109375 
Q 34.1875 6.109375 38.703125 11.40625 
Q 43.21875 16.703125 43.21875 25.484375 
L 43.21875 27.484375 
z
M 52.203125 31.203125 
L 52.203125 0 
L 43.21875 0 
L 43.21875 8.296875 
Q 40.140625 3.328125 35.546875 0.953125 
Q 30.953125 -1.421875 24.3125 -1.421875 
Q 15.921875 -1.421875 10.953125 3.296875 
Q 6 8.015625 6 15.921875 
Q 6 25.140625 12.171875 29.828125 
Q 18.359375 34.515625 30.609375 34.515625 
L 43.21875 34.515625 
L 43.21875 35.40625 
Q 43.21875 41.609375 39.140625 45 
Q 35.0625 48.390625 27.6875 48.390625 
Q 23 48.390625 18.546875 47.265625 
Q 14.109375 46.140625 10.015625 43.890625 
L 10.015625 52.203125 
Q 14.9375 54.109375 19.578125 55.046875 
Q 24.21875 56 28.609375 56 
Q 40.484375 56 46.34375 49.84375 
Q 52.203125 43.703125 52.203125 31.203125 
" id="BitstreamVeraSans-Roman-61"/>
      <path d="M 9.8125 72.90625 
L 55.90625 72.90625 
L 55.90625 64.59375 
L 19.671875 64.59375 
L 19.671875 43.015625 
L 54.390625 43.015625 
L 54.390625 34.71875 
L 19.671875 34.71875 
L 19.671875 8.296875 
L 56.78125 8.296875 
L 56.78125 0 
L 9.8125 0 
z
" id="BitstreamVeraSans-Roman-45"/>
      <path d="M 9.8125 72.90625 
L 24.515625 72.90625 
L 43.109375 23.296875 
L 61.8125 72.90625 
L 76.515625 72.90625 
L 76.515625 0 
L 66.890625 0 
L 66.890625 64.015625 
L 48.09375 14.015625 
L 38.1875 14.015625 
L 19.390625 64.015625 
L 19.390625 0 
L 9.8125 0 
z
" id="BitstreamVeraSans-Roman-4d"/>
      <path d="M 2.984375 54.6875 
L 12.5 54.6875 
L 29.59375 8.796875 
L 46.6875 54.6875 
L 56.203125 54.6875 
L 35.6875 0 
L 23.484375 0 
z
" id="BitstreamVeraSans-Roman-76"/>
      <path d="M 9.421875 75.984375 
L 18.40625 75.984375 
L 18.40625 0 
L 9.421875 0 
z
" id="BitstreamVeraSans-Roman-6c"/>
      <path d="M 9.8125 72.90625 
L 51.703125 72.90625 
L 51.703125 64.59375 
L 19.671875 64.59375 
L 19.671875 43.109375 
L 48.578125 43.109375 
L 48.578125 34.8125 
L 19.671875 34.8125 
L 19.671875 0 
L 9.8125 0 
z
" id="BitstreamVeraSans-Roman-46"/>
      <path d="M 44.28125 53.078125 
L 44.28125 44.578125 
Q 40.484375 46.53125 36.375 47.5 
Q 32.28125 48.484375 27.875 48.484375 
Q 21.1875 48.484375 17.84375 46.4375 
Q 14.5 44.390625 14.5 40.28125 
Q 14.5 37.15625 16.890625 35.375 
Q 19.28125 33.59375 26.515625 31.984375 
L 29.59375 31.296875 
Q 39.15625 29.25 43.1875 25.515625 
Q 47.21875 21.78125 47.21875 15.09375 
Q 47.21875 7.46875 41.1875 3.015625 
Q 35.15625 -1.421875 24.609375 -1.421875 
Q 20.21875 -1.421875 15.453125 -0.5625 
Q 10.6875 0.296875 5.421875 2 
L 5.421875 11.28125 
Q 10.40625 8.6875 15.234375 7.390625 
Q 20.0625 6.109375 24.8125 6.109375 
Q 31.15625 6.109375 34.5625 8.28125 
Q 37.984375 10.453125 37.984375 14.40625 
Q 37.984375 18.0625 35.515625 20.015625 
Q 33.0625 21.96875 24.703125 23.78125 
L 21.578125 24.515625 
Q 13.234375 26.265625 9.515625 29.90625 
Q 5.8125 33.546875 5.8125 39.890625 
Q 5.8125 47.609375 11.28125 51.796875 
Q 16.75 56 26.8125 56 
Q 31.78125 56 36.171875 55.265625 
Q 40.578125 54.546875 44.28125 53.078125 
" id="BitstreamVeraSans-Roman-73"/>
      <path d="M 30.609375 48.390625 
Q 23.390625 48.390625 19.1875 42.75 
Q 14.984375 37.109375 14.984375 27.296875 
Q 14.984375 17.484375 19.15625 11.84375 
Q 23.34375 6.203125 30.609375 6.203125 
Q 37.796875 6.203125 41.984375 11.859375 
Q 46.1875 17.53125 46.1875 27.296875 
Q 46.1875 37.015625 41.984375 42.703125 
Q 37.796875 48.390625 30.609375 48.390625 
M 30.609375 56 
Q 42.328125 56 49.015625 48.375 
Q 55.71875 40.765625 55.71875 27.296875 
Q 55.71875 13.875 49.015625 6.21875 
Q 42.328125 -1.421875 30.609375 -1.421875 
Q 18.84375 -1.421875 12.171875 6.21875 
Q 5.515625 13.875 5.515625 27.296875 
Q 5.515625 40.765625 12.171875 48.375 
Q 18.84375 56 30.609375 56 
" id="BitstreamVeraSans-Roman-6f"/>
      <path d="M 45.40625 27.984375 
Q 45.40625 37.75 41.375 43.109375 
Q 37.359375 48.484375 30.078125 48.484375 
Q 22.859375 48.484375 18.828125 43.109375 
Q 14.796875 37.75 14.796875 27.984375 
Q 14.796875 18.265625 18.828125 12.890625 
Q 22.859375 7.515625 30.078125 7.515625 
Q 37.359375 7.515625 41.375 12.890625 
Q 45.40625 18.265625 45.40625 27.984375 
M 54.390625 6.78125 
Q 54.390625 -7.171875 48.1875 -13.984375 
Q 42 -20.796875 29.203125 -20.796875 
Q 24.46875 -20.796875 20.265625 -20.09375 
Q 16.0625 -19.390625 12.109375 -17.921875 
L 12.109375 -9.1875 
Q 16.0625 -11.328125 19.921875 -12.34375 
Q 23.78125 -13.375 27.78125 -13.375 
Q 36.625 -13.375 41.015625 -8.765625 
Q 45.40625 -4.15625 45.40625 5.171875 
L 45.40625 9.625 
Q 42.625 4.78125 38.28125 2.390625 
Q 33.9375 0 27.875 0 
Q 17.828125 0 11.671875 7.65625 
Q 5.515625 15.328125 5.515625 27.984375 
Q 5.515625 40.671875 11.671875 48.328125 
Q 17.828125 56 27.875 56 
Q 33.9375 56 38.28125 53.609375 
Q 42.625 51.21875 45.40625 46.390625 
L 45.40625 54.6875 
L 54.390625 54.6875 
z
" id="BitstreamVeraSans-Roman-67"/>
      <path id="BitstreamVeraSans-Roman-20"/>
      <path d="M 25.390625 72.90625 
L 33.6875 72.90625 
L 8.296875 -9.28125 
L 0 -9.28125 
z
" id="BitstreamVeraSans-Roman-2f"/>
      <path d="M 19.671875 64.796875 
L 19.671875 8.109375 
L 31.59375 8.109375 
Q 46.6875 8.109375 53.6875 14.9375 
Q 60.6875 21.78125 60.6875 36.53125 
Q 60.6875 51.171875 53.6875 57.984375 
Q 46.6875 64.796875 31.59375 64.796875 
z
M 9.8125 72.90625 
L 30.078125 72.90625 
Q 51.265625 72.90625 61.171875 64.09375 
Q 71.09375 55.28125 71.09375 36.53125 
Q 71.09375 17.671875 61.125 8.828125 
Q 51.171875 0 30.078125 0 
L 9.8125 0 
z
" id="BitstreamVeraSans-Roman-44"/>
      <path d="M 37.109375 75.984375 
L 37.109375 68.5 
L 28.515625 68.5 
Q 23.6875 68.5 21.796875 66.546875 
Q 19.921875 64.59375 19.921875 59.515625 
L 19.921875 54.6875 
L 34.71875 54.6875 
L 34.71875 47.703125 
L 19.921875 47.703125 
L 19.921875 0 
L 10.890625 0 
L 10.890625 47.703125 
L 2.296875 47.703125 
L 2.296875 54.6875 
L 10.890625 54.6875 
L 10.890625 58.5 
Q 10.890625 67.625 15.140625 71.796875 
Q 19.390625 75.984375 28.609375 75.984375 
z
" id="BitstreamVeraSans-Roman-66"/>
      <path d="M 9.8125 72.90625 
L 19.671875 72.90625 
L 19.671875 0 
L 9.8125 0 
z
" id="BitstreamVeraSans-Roman-49"/>
     </defs>
     <g transform="translate(206.25906249999997 427.55312499999997)scale(0.2 -0.2)">
      <use xlink:href="#BitstreamVeraSans-Roman-6c"/>
      <use x="27.783203125" xlink:href="#BitstreamVeraSans-Roman-6f"/>
      <use x="88.96484375" xlink:href="#BitstreamVeraSans-Roman-67"/>
      <use x="152.44140625" xlink:href="#BitstreamVeraSans-Roman-31"/>
      <use x="216.064453125" xlink:href="#BitstreamVeraSans-Roman-30"/>
      <use x="279.6875" xlink:href="#BitstreamVeraSans-Roman-20"/>
      <use x="311.474609375" xlink:href="#BitstreamVeraSans-Roman-6f"/>
      <use x="372.65625" xlink:href="#BitstreamVeraSans-Roman-66"/>
      <use x="407.861328125" xlink:href="#BitstreamVeraSans-Roman-20"/>
      <use x="439.6484375" xlink:href="#BitstreamVeraSans-Roman-46"/>
      <use x="497.16796875" xlink:href="#BitstreamVeraSans-Roman-45"/>
      <use x="560.3515625" xlink:href="#BitstreamVeraSans-Roman-76"/>
      <use x="619.53125" xlink:href="#BitstreamVeraSans-Roman-61"/>
      <use x="680.810546875" xlink:href="#BitstreamVeraSans-Roman-6c"/>
      <use x="708.59375" xlink:href="#BitstreamVeraSans-Roman-73"/>
      <use x="760.693359375" xlink:href="#BitstreamVeraSans-Roman-20"/>
      <use x="792.48046875" xlink:href="#BitstreamVeraSans-Roman-2f"/>
      <use x="826.171875" xlink:href="#BitstreamVeraSans-Roman-20"/>
      <use x="857.958984375" xlink:href="#BitstreamVeraSans-Roman-44"/>
      <use x="934.9609375" xlink:href="#BitstreamVeraSans-Roman-49"/>
      <use x="964.453125" xlink:href="#BitstreamVeraSans-Roman-4d"/>
     </g>
    </g>
   </g>
   <g id="matplotlib.axis_2">
    <g id="ytick_1">
     <g id="line2d_124">
      <path clip-path="url(#p27007687df)" d="M 55.425 384 
L 567.24 384 
" style="fill:none;stroke:#000000;stroke-dasharray:1.000000,3.000000;stroke-dashoffset:0.0;stroke-width:0.5;"/>
     </g>
     <g id="line2d_125">
      <defs>
       <path d="M 0 0 
L 4 0 
" id="m0d988d9b21" style="stroke:#000000;stroke-width:0.5;"/>
      </defs>
      <g>
       <use style="stroke:#000000;stroke-width:0.5;" x="55.425000000000004" xlink:href="#m0d988d9b21" y="384.0"/>
      </g>
     </g>
     <g id="line2d_126">
      <defs>
       <path d="M 0 0 
L -4 0 
" id="m2761e7ec68" style="stroke:#000000;stroke-width:0.5;"/>
      </defs>
      <g>
       <use style="stroke:#000000;stroke-width:0.5;" x="567.24" xlink:href="#m2761e7ec68" y="384.0"/>
      </g>
     </g>
     <g id="text_6">
      <!-- 0.0 -->
      <defs>
       <path d="M 10.6875 12.40625 
L 21 12.40625 
L 21 0 
L 10.6875 0 
z
" id="BitstreamVeraSans-Roman-2e"/>
      </defs>
      <g transform="translate(25.980000000000004 388.41499999999996)scale(0.16 -0.16)">
       <use xlink:href="#BitstreamVeraSans-Roman-30"/>
       <use x="63.623046875" xlink:href="#BitstreamVeraSans-Roman-2e"/>
       <use x="95.41015625" xlink:href="#BitstreamVeraSans-Roman-30"/>
      </g>
     </g>
    </g>
    <g id="ytick_2">
     <g id="line2d_127">
      <path clip-path="url(#p27007687df)" d="M 55.425 309.480835 
L 567.24 309.480835 
" style="fill:none;stroke:#000000;stroke-dasharray:1.000000,3.000000;stroke-dashoffset:0.0;stroke-width:0.5;"/>
     </g>
     <g id="line2d_128">
      <g>
       <use style="stroke:#000000;stroke-width:0.5;" x="55.425000000000004" xlink:href="#m0d988d9b21" y="309.48083521223407"/>
      </g>
     </g>
     <g id="line2d_129">
      <g>
       <use style="stroke:#000000;stroke-width:0.5;" x="567.24" xlink:href="#m2761e7ec68" y="309.48083521223407"/>
      </g>
     </g>
     <g id="text_7">
      <!-- 0.2 -->
      <g transform="translate(25.980000000000004 313.8958352122341)scale(0.16 -0.16)">
       <use xlink:href="#BitstreamVeraSans-Roman-30"/>
       <use x="63.623046875" xlink:href="#BitstreamVeraSans-Roman-2e"/>
       <use x="95.41015625" xlink:href="#BitstreamVeraSans-Roman-32"/>
      </g>
     </g>
    </g>
    <g id="ytick_3">
     <g id="line2d_130">
      <path clip-path="url(#p27007687df)" d="M 55.425 234.96167 
L 567.24 234.96167 
" style="fill:none;stroke:#000000;stroke-dasharray:1.000000,3.000000;stroke-dashoffset:0.0;stroke-width:0.5;"/>
     </g>
     <g id="line2d_131">
      <g>
       <use style="stroke:#000000;stroke-width:0.5;" x="55.425000000000004" xlink:href="#m0d988d9b21" y="234.96167042446817"/>
      </g>
     </g>
     <g id="line2d_132">
      <g>
       <use style="stroke:#000000;stroke-width:0.5;" x="567.24" xlink:href="#m2761e7ec68" y="234.96167042446817"/>
      </g>
     </g>
     <g id="text_8">
      <!-- 0.4 -->
      <defs>
       <path d="M 37.796875 64.3125 
L 12.890625 25.390625 
L 37.796875 25.390625 
z
M 35.203125 72.90625 
L 47.609375 72.90625 
L 47.609375 25.390625 
L 58.015625 25.390625 
L 58.015625 17.1875 
L 47.609375 17.1875 
L 47.609375 0 
L 37.796875 0 
L 37.796875 17.1875 
L 4.890625 17.1875 
L 4.890625 26.703125 
z
" id="BitstreamVeraSans-Roman-34"/>
      </defs>
      <g transform="translate(25.980000000000004 239.37667042446813)scale(0.16 -0.16)">
       <use xlink:href="#BitstreamVeraSans-Roman-30"/>
       <use x="63.623046875" xlink:href="#BitstreamVeraSans-Roman-2e"/>
       <use x="95.41015625" xlink:href="#BitstreamVeraSans-Roman-34"/>
      </g>
     </g>
    </g>
    <g id="ytick_4">
     <g id="line2d_133">
      <path clip-path="url(#p27007687df)" d="M 55.425 160.442506 
L 567.24 160.442506 
" style="fill:none;stroke:#000000;stroke-dasharray:1.000000,3.000000;stroke-dashoffset:0.0;stroke-width:0.5;"/>
     </g>
     <g id="line2d_134">
      <g>
       <use style="stroke:#000000;stroke-width:0.5;" x="55.425000000000004" xlink:href="#m0d988d9b21" y="160.44250563670224"/>
      </g>
     </g>
     <g id="line2d_135">
      <g>
       <use style="stroke:#000000;stroke-width:0.5;" x="567.24" xlink:href="#m2761e7ec68" y="160.44250563670224"/>
      </g>
     </g>
     <g id="text_9">
      <!-- 0.6 -->
      <defs>
       <path d="M 33.015625 40.375 
Q 26.375 40.375 22.484375 35.828125 
Q 18.609375 31.296875 18.609375 23.390625 
Q 18.609375 15.53125 22.484375 10.953125 
Q 26.375 6.390625 33.015625 6.390625 
Q 39.65625 6.390625 43.53125 10.953125 
Q 47.40625 15.53125 47.40625 23.390625 
Q 47.40625 31.296875 43.53125 35.828125 
Q 39.65625 40.375 33.015625 40.375 
M 52.59375 71.296875 
L 52.59375 62.3125 
Q 48.875 64.0625 45.09375 64.984375 
Q 41.3125 65.921875 37.59375 65.921875 
Q 27.828125 65.921875 22.671875 59.328125 
Q 17.53125 52.734375 16.796875 39.40625 
Q 19.671875 43.65625 24.015625 45.921875 
Q 28.375 48.1875 33.59375 48.1875 
Q 44.578125 48.1875 50.953125 41.515625 
Q 57.328125 34.859375 57.328125 23.390625 
Q 57.328125 12.15625 50.6875 5.359375 
Q 44.046875 -1.421875 33.015625 -1.421875 
Q 20.359375 -1.421875 13.671875 8.265625 
Q 6.984375 17.96875 6.984375 36.375 
Q 6.984375 53.65625 15.1875 63.9375 
Q 23.390625 74.21875 37.203125 74.21875 
Q 40.921875 74.21875 44.703125 73.484375 
Q 48.484375 72.75 52.59375 71.296875 
" id="BitstreamVeraSans-Roman-36"/>
      </defs>
      <g transform="translate(25.980000000000004 164.85750563670223)scale(0.16 -0.16)">
       <use xlink:href="#BitstreamVeraSans-Roman-30"/>
       <use x="63.623046875" xlink:href="#BitstreamVeraSans-Roman-2e"/>
       <use x="95.41015625" xlink:href="#BitstreamVeraSans-Roman-36"/>
      </g>
     </g>
    </g>
    <g id="ytick_5">
     <g id="line2d_136">
      <path clip-path="url(#p27007687df)" d="M 55.425 85.923341 
L 567.24 85.923341 
" style="fill:none;stroke:#000000;stroke-dasharray:1.000000,3.000000;stroke-dashoffset:0.0;stroke-width:0.5;"/>
     </g>
     <g id="line2d_137">
      <g>
       <use style="stroke:#000000;stroke-width:0.5;" x="55.425000000000004" xlink:href="#m0d988d9b21" y="85.92334084893633"/>
      </g>
     </g>
     <g id="line2d_138">
      <g>
       <use style="stroke:#000000;stroke-width:0.5;" x="567.24" xlink:href="#m2761e7ec68" y="85.92334084893633"/>
      </g>
     </g>
     <g id="text_10">
      <!-- 0.8 -->
      <defs>
       <path d="M 31.78125 34.625 
Q 24.75 34.625 20.71875 30.859375 
Q 16.703125 27.09375 16.703125 20.515625 
Q 16.703125 13.921875 20.71875 10.15625 
Q 24.75 6.390625 31.78125 6.390625 
Q 38.8125 6.390625 42.859375 10.171875 
Q 46.921875 13.96875 46.921875 20.515625 
Q 46.921875 27.09375 42.890625 30.859375 
Q 38.875 34.625 31.78125 34.625 
M 21.921875 38.8125 
Q 15.578125 40.375 12.03125 44.71875 
Q 8.5 49.078125 8.5 55.328125 
Q 8.5 64.0625 14.71875 69.140625 
Q 20.953125 74.21875 31.78125 74.21875 
Q 42.671875 74.21875 48.875 69.140625 
Q 55.078125 64.0625 55.078125 55.328125 
Q 55.078125 49.078125 51.53125 44.71875 
Q 48 40.375 41.703125 38.8125 
Q 48.828125 37.15625 52.796875 32.3125 
Q 56.78125 27.484375 56.78125 20.515625 
Q 56.78125 9.90625 50.3125 4.234375 
Q 43.84375 -1.421875 31.78125 -1.421875 
Q 19.734375 -1.421875 13.25 4.234375 
Q 6.78125 9.90625 6.78125 20.515625 
Q 6.78125 27.484375 10.78125 32.3125 
Q 14.796875 37.15625 21.921875 38.8125 
M 18.3125 54.390625 
Q 18.3125 48.734375 21.84375 45.5625 
Q 25.390625 42.390625 31.78125 42.390625 
Q 38.140625 42.390625 41.71875 45.5625 
Q 45.3125 48.734375 45.3125 54.390625 
Q 45.3125 60.0625 41.71875 63.234375 
Q 38.140625 66.40625 31.78125 66.40625 
Q 25.390625 66.40625 21.84375 63.234375 
Q 18.3125 60.0625 18.3125 54.390625 
" id="BitstreamVeraSans-Roman-38"/>
      </defs>
      <g transform="translate(25.980000000000004 90.33834084893635)scale(0.16 -0.16)">
       <use xlink:href="#BitstreamVeraSans-Roman-30"/>
       <use x="63.623046875" xlink:href="#BitstreamVeraSans-Roman-2e"/>
       <use x="95.41015625" xlink:href="#BitstreamVeraSans-Roman-38"/>
      </g>
     </g>
    </g>
    <g id="ytick_6">
     <g id="line2d_139">
      <path clip-path="url(#p27007687df)" d="M 55.425 11.404176 
L 567.24 11.404176 
" style="fill:none;stroke:#000000;stroke-dasharray:1.000000,3.000000;stroke-dashoffset:0.0;stroke-width:0.5;"/>
     </g>
     <g id="line2d_140">
      <g>
       <use style="stroke:#000000;stroke-width:0.5;" x="55.425000000000004" xlink:href="#m0d988d9b21" y="11.40417606117046"/>
      </g>
     </g>
     <g id="line2d_141">
      <g>
       <use style="stroke:#000000;stroke-width:0.5;" x="567.24" xlink:href="#m2761e7ec68" y="11.40417606117046"/>
      </g>
     </g>
     <g id="text_11">
      <!-- 1.0 -->
      <g transform="translate(25.980000000000004 15.81917606117048)scale(0.16 -0.16)">
       <use xlink:href="#BitstreamVeraSans-Roman-31"/>
       <use x="63.623046875" xlink:href="#BitstreamVeraSans-Roman-2e"/>
       <use x="95.41015625" xlink:href="#BitstreamVeraSans-Roman-30"/>
      </g>
     </g>
    </g>
    <g id="text_12">
     <!-- proportion of trials -->
     <defs>
      <path d="M 9.421875 54.6875 
L 18.40625 54.6875 
L 18.40625 0 
L 9.421875 0 
z
M 9.421875 75.984375 
L 18.40625 75.984375 
L 18.40625 64.59375 
L 9.421875 64.59375 
z
" id="BitstreamVeraSans-Roman-69"/>
      <path d="M 54.890625 33.015625 
L 54.890625 0 
L 45.90625 0 
L 45.90625 32.71875 
Q 45.90625 40.484375 42.875 44.328125 
Q 39.84375 48.1875 33.796875 48.1875 
Q 26.515625 48.1875 22.3125 43.546875 
Q 18.109375 38.921875 18.109375 30.90625 
L 18.109375 0 
L 9.078125 0 
L 9.078125 54.6875 
L 18.109375 54.6875 
L 18.109375 46.1875 
Q 21.34375 51.125 25.703125 53.5625 
Q 30.078125 56 35.796875 56 
Q 45.21875 56 50.046875 50.171875 
Q 54.890625 44.34375 54.890625 33.015625 
" id="BitstreamVeraSans-Roman-6e"/>
      <path d="M 18.3125 70.21875 
L 18.3125 54.6875 
L 36.8125 54.6875 
L 36.8125 47.703125 
L 18.3125 47.703125 
L 18.3125 18.015625 
Q 18.3125 11.328125 20.140625 9.421875 
Q 21.96875 7.515625 27.59375 7.515625 
L 36.8125 7.515625 
L 36.8125 0 
L 27.59375 0 
Q 17.1875 0 13.234375 3.875 
Q 9.28125 7.765625 9.28125 18.015625 
L 9.28125 47.703125 
L 2.6875 47.703125 
L 2.6875 54.6875 
L 9.28125 54.6875 
L 9.28125 70.21875 
z
" id="BitstreamVeraSans-Roman-74"/>
      <path d="M 18.109375 8.203125 
L 18.109375 -20.796875 
L 9.078125 -20.796875 
L 9.078125 54.6875 
L 18.109375 54.6875 
L 18.109375 46.390625 
Q 20.953125 51.265625 25.265625 53.625 
Q 29.59375 56 35.59375 56 
Q 45.5625 56 51.78125 48.09375 
Q 58.015625 40.1875 58.015625 27.296875 
Q 58.015625 14.40625 51.78125 6.484375 
Q 45.5625 -1.421875 35.59375 -1.421875 
Q 29.59375 -1.421875 25.265625 0.953125 
Q 20.953125 3.328125 18.109375 8.203125 
M 48.6875 27.296875 
Q 48.6875 37.203125 44.609375 42.84375 
Q 40.53125 48.484375 33.40625 48.484375 
Q 26.265625 48.484375 22.1875 42.84375 
Q 18.109375 37.203125 18.109375 27.296875 
Q 18.109375 17.390625 22.1875 11.75 
Q 26.265625 6.109375 33.40625 6.109375 
Q 40.53125 6.109375 44.609375 11.75 
Q 48.6875 17.390625 48.6875 27.296875 
" id="BitstreamVeraSans-Roman-70"/>
      <path d="M 41.109375 46.296875 
Q 39.59375 47.171875 37.8125 47.578125 
Q 36.03125 48 33.890625 48 
Q 26.265625 48 22.1875 43.046875 
Q 18.109375 38.09375 18.109375 28.8125 
L 18.109375 0 
L 9.078125 0 
L 9.078125 54.6875 
L 18.109375 54.6875 
L 18.109375 46.1875 
Q 20.953125 51.171875 25.484375 53.578125 
Q 30.03125 56 36.53125 56 
Q 37.453125 56 38.578125 55.875 
Q 39.703125 55.765625 41.0625 55.515625 
z
" id="BitstreamVeraSans-Roman-72"/>
     </defs>
     <g transform="translate(16.820624999999996 289.06723391089105)rotate(-90.0)scale(0.2 -0.2)">
      <use xlink:href="#BitstreamVeraSans-Roman-70"/>
      <use x="63.4765625" xlink:href="#BitstreamVeraSans-Roman-72"/>
      <use x="104.55859375" xlink:href="#BitstreamVeraSans-Roman-6f"/>
      <use x="165.740234375" xlink:href="#BitstreamVeraSans-Roman-70"/>
      <use x="229.216796875" xlink:href="#BitstreamVeraSans-Roman-6f"/>
      <use x="290.3984375" xlink:href="#BitstreamVeraSans-Roman-72"/>
      <use x="331.51171875" xlink:href="#BitstreamVeraSans-Roman-74"/>
      <use x="370.720703125" xlink:href="#BitstreamVeraSans-Roman-69"/>
      <use x="398.50390625" xlink:href="#BitstreamVeraSans-Roman-6f"/>
      <use x="459.685546875" xlink:href="#BitstreamVeraSans-Roman-6e"/>
      <use x="523.064453125" xlink:href="#BitstreamVeraSans-Roman-20"/>
      <use x="554.8515625" xlink:href="#BitstreamVeraSans-Roman-6f"/>
      <use x="616.033203125" xlink:href="#BitstreamVeraSans-Roman-66"/>
      <use x="651.23828125" xlink:href="#BitstreamVeraSans-Roman-20"/>
      <use x="683.025390625" xlink:href="#BitstreamVeraSans-Roman-74"/>
      <use x="722.234375" xlink:href="#BitstreamVeraSans-Roman-72"/>
      <use x="763.34765625" xlink:href="#BitstreamVeraSans-Roman-69"/>
      <use x="791.130859375" xlink:href="#BitstreamVeraSans-Roman-61"/>
      <use x="852.41015625" xlink:href="#BitstreamVeraSans-Roman-6c"/>
      <use x="880.193359375" xlink:href="#BitstreamVeraSans-Roman-73"/>
     </g>
    </g>
   </g>
   <g id="text_13">
    <!-- {f1, f2}, 20-D -->
    <defs>
     <path d="M 51.125 -9.28125 
L 51.125 -16.3125 
L 48.09375 -16.3125 
Q 35.9375 -16.3125 31.8125 -12.6875 
Q 27.6875 -9.078125 27.6875 1.703125 
L 27.6875 13.375 
Q 27.6875 20.75 25.046875 23.578125 
Q 22.40625 26.421875 15.484375 26.421875 
L 12.5 26.421875 
L 12.5 33.40625 
L 15.484375 33.40625 
Q 22.46875 33.40625 25.078125 36.203125 
Q 27.6875 39.015625 27.6875 46.296875 
L 27.6875 58.015625 
Q 27.6875 68.796875 31.8125 72.390625 
Q 35.9375 75.984375 48.09375 75.984375 
L 51.125 75.984375 
L 51.125 69 
L 47.796875 69 
Q 40.921875 69 38.8125 66.84375 
Q 36.71875 64.703125 36.71875 57.8125 
L 36.71875 45.703125 
Q 36.71875 38.03125 34.5 34.5625 
Q 32.28125 31.109375 26.90625 29.890625 
Q 32.328125 28.5625 34.515625 25.09375 
Q 36.71875 21.625 36.71875 14.015625 
L 36.71875 1.90625 
Q 36.71875 -4.984375 38.8125 -7.125 
Q 40.921875 -9.28125 47.796875 -9.28125 
z
" id="BitstreamVeraSans-Roman-7b"/>
     <path d="M 4.890625 31.390625 
L 31.203125 31.390625 
L 31.203125 23.390625 
L 4.890625 23.390625 
z
" id="BitstreamVeraSans-Roman-2d"/>
     <path d="M 12.5 -9.28125 
L 15.921875 -9.28125 
Q 22.75 -9.28125 24.828125 -7.171875 
Q 26.90625 -5.078125 26.90625 1.90625 
L 26.90625 14.015625 
Q 26.90625 21.625 29.09375 25.09375 
Q 31.296875 28.5625 36.71875 29.890625 
Q 31.296875 31.109375 29.09375 34.5625 
Q 26.90625 38.03125 26.90625 45.703125 
L 26.90625 57.8125 
Q 26.90625 64.75 24.828125 66.875 
Q 22.75 69 15.921875 69 
L 12.5 69 
L 12.5 75.984375 
L 15.578125 75.984375 
Q 27.734375 75.984375 31.8125 72.390625 
Q 35.890625 68.796875 35.890625 58.015625 
L 35.890625 46.296875 
Q 35.890625 39.015625 38.515625 36.203125 
Q 41.15625 33.40625 48.09375 33.40625 
L 51.125 33.40625 
L 51.125 26.421875 
L 48.09375 26.421875 
Q 41.15625 26.421875 38.515625 23.578125 
Q 35.890625 20.75 35.890625 13.375 
L 35.890625 1.703125 
Q 35.890625 -9.078125 31.8125 -12.6875 
Q 27.734375 -16.3125 15.578125 -16.3125 
L 12.5 -16.3125 
z
" id="BitstreamVeraSans-Roman-7d"/>
     <path d="M 11.71875 12.40625 
L 22.015625 12.40625 
L 22.015625 4 
L 14.015625 -11.625 
L 7.71875 -11.625 
L 11.71875 4 
z
" id="BitstreamVeraSans-Roman-2c"/>
    </defs>
    <g transform="translate(242.09656249999998 30.401528465346473)scale(0.2 -0.2)">
     <use xlink:href="#BitstreamVeraSans-Roman-7b"/>
     <use x="63.623046875" xlink:href="#BitstreamVeraSans-Roman-66"/>
     <use x="98.828125" xlink:href="#BitstreamVeraSans-Roman-31"/>
     <use x="162.451171875" xlink:href="#BitstreamVeraSans-Roman-2c"/>
     <use x="194.23828125" xlink:href="#BitstreamVeraSans-Roman-20"/>
     <use x="226.025390625" xlink:href="#BitstreamVeraSans-Roman-66"/>
     <use x="261.23046875" xlink:href="#BitstreamVeraSans-Roman-32"/>
     <use x="324.853515625" xlink:href="#BitstreamVeraSans-Roman-7d"/>
     <use x="388.4765625" xlink:href="#BitstreamVeraSans-Roman-2c"/>
     <use x="420.263671875" xlink:href="#BitstreamVeraSans-Roman-20"/>
     <use x="452.05078125" xlink:href="#BitstreamVeraSans-Roman-32"/>
     <use x="515.673828125" xlink:href="#BitstreamVeraSans-Roman-30"/>
     <use x="579.296875" xlink:href="#BitstreamVeraSans-Roman-2d"/>
     <use x="615.380859375" xlink:href="#BitstreamVeraSans-Roman-44"/>
    </g>
   </g>
   <g id="text_14">
    <!-- absolute targets -->
    <defs>
     <path d="M 8.5 21.578125 
L 8.5 54.6875 
L 17.484375 54.6875 
L 17.484375 21.921875 
Q 17.484375 14.15625 20.5 10.265625 
Q 23.53125 6.390625 29.59375 6.390625 
Q 36.859375 6.390625 41.078125 11.03125 
Q 45.3125 15.671875 45.3125 23.6875 
L 45.3125 54.6875 
L 54.296875 54.6875 
L 54.296875 0 
L 45.3125 0 
L 45.3125 8.40625 
Q 42.046875 3.421875 37.71875 1 
Q 33.40625 -1.421875 27.6875 -1.421875 
Q 18.265625 -1.421875 13.375 4.4375 
Q 8.5 10.296875 8.5 21.578125 
" id="BitstreamVeraSans-Roman-75"/>
     <path d="M 56.203125 29.59375 
L 56.203125 25.203125 
L 14.890625 25.203125 
Q 15.484375 15.921875 20.484375 11.0625 
Q 25.484375 6.203125 34.421875 6.203125 
Q 39.59375 6.203125 44.453125 7.46875 
Q 49.3125 8.734375 54.109375 11.28125 
L 54.109375 2.78125 
Q 49.265625 0.734375 44.1875 -0.34375 
Q 39.109375 -1.421875 33.890625 -1.421875 
Q 20.796875 -1.421875 13.15625 6.1875 
Q 5.515625 13.8125 5.515625 26.8125 
Q 5.515625 40.234375 12.765625 48.109375 
Q 20.015625 56 32.328125 56 
Q 43.359375 56 49.78125 48.890625 
Q 56.203125 41.796875 56.203125 29.59375 
M 47.21875 32.234375 
Q 47.125 39.59375 43.09375 43.984375 
Q 39.0625 48.390625 32.421875 48.390625 
Q 24.90625 48.390625 20.390625 44.140625 
Q 15.875 39.890625 15.1875 32.171875 
z
" id="BitstreamVeraSans-Roman-65"/>
     <path d="M 48.6875 27.296875 
Q 48.6875 37.203125 44.609375 42.84375 
Q 40.53125 48.484375 33.40625 48.484375 
Q 26.265625 48.484375 22.1875 42.84375 
Q 18.109375 37.203125 18.109375 27.296875 
Q 18.109375 17.390625 22.1875 11.75 
Q 26.265625 6.109375 33.40625 6.109375 
Q 40.53125 6.109375 44.609375 11.75 
Q 48.6875 17.390625 48.6875 27.296875 
M 18.109375 46.390625 
Q 20.953125 51.265625 25.265625 53.625 
Q 29.59375 56 35.59375 56 
Q 45.5625 56 51.78125 48.09375 
Q 58.015625 40.1875 58.015625 27.296875 
Q 58.015625 14.40625 51.78125 6.484375 
Q 45.5625 -1.421875 35.59375 -1.421875 
Q 29.59375 -1.421875 25.265625 0.953125 
Q 20.953125 3.328125 18.109375 8.203125 
L 18.109375 0 
L 9.078125 0 
L 9.078125 75.984375 
L 18.109375 75.984375 
z
" id="BitstreamVeraSans-Roman-62"/>
    </defs>
    <g transform="translate(55.42500000000001 756.5958239388295)scale(0.14 -0.14)">
     <use xlink:href="#BitstreamVeraSans-Roman-61"/>
     <use x="61.279296875" xlink:href="#BitstreamVeraSans-Roman-62"/>
     <use x="124.755859375" xlink:href="#BitstreamVeraSans-Roman-73"/>
     <use x="176.85546875" xlink:href="#BitstreamVeraSans-Roman-6f"/>
     <use x="238.037109375" xlink:href="#BitstreamVeraSans-Roman-6c"/>
     <use x="265.8203125" xlink:href="#BitstreamVeraSans-Roman-75"/>
     <use x="329.19921875" xlink:href="#BitstreamVeraSans-Roman-74"/>
     <use x="368.408203125" xlink:href="#BitstreamVeraSans-Roman-65"/>
     <use x="429.931640625" xlink:href="#BitstreamVeraSans-Roman-20"/>
     <use x="461.71875" xlink:href="#BitstreamVeraSans-Roman-74"/>
     <use x="500.927734375" xlink:href="#BitstreamVeraSans-Roman-61"/>
     <use x="562.20703125" xlink:href="#BitstreamVeraSans-Roman-72"/>
     <use x="603.3046875" xlink:href="#BitstreamVeraSans-Roman-67"/>
     <use x="666.78125" xlink:href="#BitstreamVeraSans-Roman-65"/>
     <use x="728.3046875" xlink:href="#BitstreamVeraSans-Roman-74"/>
     <use x="767.513671875" xlink:href="#BitstreamVeraSans-Roman-73"/>
    </g>
   </g>
   <g id="text_15">
    <!-- v2.3.3 -->
    <g style="fill:#808080;" transform="translate(295.65125 378.1570946782178)scale(0.1 -0.1)">
     <use xlink:href="#BitstreamVeraSans-Roman-76"/>
     <use x="59.1796875" xlink:href="#BitstreamVeraSans-Roman-32"/>
     <use x="122.802734375" xlink:href="#BitstreamVeraSans-Roman-2e"/>
     <use x="154.58984375" xlink:href="#BitstreamVeraSans-Roman-33"/>
     <use x="218.212890625" xlink:href="#BitstreamVeraSans-Roman-2e"/>
     <use x="250.0" xlink:href="#BitstreamVeraSans-Roman-33"/>
    </g>
   </g>
   <g id="legend_1">
    <g id="patch_7">
     <path d="M 65.425 141.103218 
L 202.646875 141.103218 
L 202.646875 17.678218 
L 65.425 17.678218 
z
" style="fill:#ffffff;opacity:0.2;stroke:#000000;stroke-linejoin:miter;"/>
    </g>
    <g id="line2d_142">
     <path d="M 79.425 33.875093 
L 107.425 33.875093 
" style="fill:none;stroke:#000000;stroke-linecap:square;"/>
    </g>
    <g id="line2d_143"/>
    <g id="text_16">
     <!-- 1: 2/2 -->
     <defs>
      <path d="M 11.71875 12.40625 
L 22.015625 12.40625 
L 22.015625 0 
L 11.71875 0 
z
M 11.71875 51.703125 
L 22.015625 51.703125 
L 22.015625 39.3125 
L 11.71875 39.3125 
z
" id="BitstreamVeraSans-Roman-3a"/>
     </defs>
     <g transform="translate(129.425 40.87509282178212)scale(0.2 -0.2)">
      <use xlink:href="#BitstreamVeraSans-Roman-31"/>
      <use x="63.623046875" xlink:href="#BitstreamVeraSans-Roman-3a"/>
      <use x="97.314453125" xlink:href="#BitstreamVeraSans-Roman-20"/>
      <use x="129.1015625" xlink:href="#BitstreamVeraSans-Roman-32"/>
      <use x="192.724609375" xlink:href="#BitstreamVeraSans-Roman-2f"/>
      <use x="226.416015625" xlink:href="#BitstreamVeraSans-Roman-32"/>
     </g>
    </g>
    <g id="line2d_144">
     <path d="M 79.425 63.231343 
L 107.425 63.231343 
" style="fill:none;stroke:#00bfbf;stroke-linecap:square;"/>
    </g>
    <g id="line2d_145"/>
    <g id="text_17">
     <!-- -1: 2/2 -->
     <g transform="translate(129.425 70.2313428217821)scale(0.2 -0.2)">
      <use xlink:href="#BitstreamVeraSans-Roman-2d"/>
      <use x="36.083984375" xlink:href="#BitstreamVeraSans-Roman-31"/>
      <use x="99.70703125" xlink:href="#BitstreamVeraSans-Roman-3a"/>
      <use x="133.3984375" xlink:href="#BitstreamVeraSans-Roman-20"/>
      <use x="165.185546875" xlink:href="#BitstreamVeraSans-Roman-32"/>
      <use x="228.80859375" xlink:href="#BitstreamVeraSans-Roman-2f"/>
      <use x="262.5" xlink:href="#BitstreamVeraSans-Roman-32"/>
     </g>
    </g>
    <g id="line2d_146">
     <path d="M 79.425 92.587593 
L 107.425 92.587593 
" style="fill:none;stroke:#bf00bf;stroke-linecap:square;"/>
    </g>
    <g id="line2d_147"/>
    <g id="text_18">
     <!-- -4: 2/2 -->
     <g transform="translate(129.425 99.5875928217821)scale(0.2 -0.2)">
      <use xlink:href="#BitstreamVeraSans-Roman-2d"/>
      <use x="36.083984375" xlink:href="#BitstreamVeraSans-Roman-34"/>
      <use x="99.70703125" xlink:href="#BitstreamVeraSans-Roman-3a"/>
      <use x="133.3984375" xlink:href="#BitstreamVeraSans-Roman-20"/>
      <use x="165.185546875" xlink:href="#BitstreamVeraSans-Roman-32"/>
      <use x="228.80859375" xlink:href="#BitstreamVeraSans-Roman-2f"/>
      <use x="262.5" xlink:href="#BitstreamVeraSans-Roman-32"/>
     </g>
    </g>
    <g id="line2d_148">
     <path d="M 79.425 121.943843 
L 107.425 121.943843 
" style="fill:none;stroke:#ff0000;stroke-linecap:square;stroke-width:3.0;"/>
    </g>
    <g id="line2d_149"/>
    <g id="text_19">
     <!-- -8: 2/2 -->
     <g transform="translate(129.425 128.94384282178214)scale(0.2 -0.2)">
      <use xlink:href="#BitstreamVeraSans-Roman-2d"/>
      <use x="36.083984375" xlink:href="#BitstreamVeraSans-Roman-38"/>
      <use x="99.70703125" xlink:href="#BitstreamVeraSans-Roman-3a"/>
      <use x="133.3984375" xlink:href="#BitstreamVeraSans-Roman-20"/>
      <use x="165.185546875" xlink:href="#BitstreamVeraSans-Roman-32"/>
      <use x="228.80859375" xlink:href="#BitstreamVeraSans-Roman-2f"/>
      <use x="262.5" xlink:href="#BitstreamVeraSans-Roman-32"/>
     </g>
    </g>
   </g>
  </g>
 </g>
 <defs>
  <clipPath id="p27007687df">
   <rect height="376.32178217821786" width="511.815" x="55.425000000000004" y="7.678217821782141"/>
  </clipPath>
 </defs>
</svg>
