<?xml version="1.0" encoding="utf-8" standalone="no"?>
<!DOCTYPE svg PUBLIC "-//W3C//DTD SVG 1.1//EN"
  "http://www.w3.org/Graphics/SVG/1.1/DTD/svg11.dtd">
<!-- Created with matplotlib (http://matplotlib.org/) -->
<svg height="432pt" version="1.1" viewBox="0 0 576 432" width="576pt" xmlns="http://www.w3.org/2000/svg" xmlns:xlink="http://www.w3.org/1999/xlink">
 <defs>
  <style type="text/css">
*{stroke-linecap:butt;stroke-linejoin:round;stroke-miterlimit:100000;}
  </style>
 </defs>
 <g id="figure_1">
  <g id="patch_1">
   <path d="M 0 432 
L 576 432 
L 576 0 
L 0 0 
z
" style="fill:#ffffff;"/>
  </g>
  <g id="axes_1">
   <g id="patch_2">
    <path d="M 54.525 384.9 
L 420.36 384.9 
L 420.36 7.678218 
L 54.525 7.678218 
z
" style="fill:#ffffff;"/>
   </g>
   <g id="line2d_1">
    <path d="M 27.198236 384.9 
L 27.198236 383.435345 
L 58.663182 383.435345 
L 58.663182 381.970691 
L 68.487967 381.970691 
L 68.487967 380.506036 
L 69.68283 380.506036 
L 69.68283 379.041382 
L 70.817925 379.041382 
L 70.817925 307.273308 
L 71.364871 307.273308 
L 71.364871 304.343999 
L 71.898946 304.343999 
L 71.898946 235.505235 
L 112.301331 235.505235 
L 112.301331 234.04058 
L 119.293446 234.04058 
L 119.293446 232.575926 
L 119.68255 232.575926 
L 119.68255 231.111271 
L 121.355403 231.111271 
L 121.355403 229.646617 
L 121.474549 229.646617 
L 121.533888 225.252653 
L 121.593072 225.252653 
L 121.652103 216.464725 
L 121.71098 216.464725 
L 121.769705 201.81818 
L 121.828278 201.81818 
L 121.886701 195.959562 
L 121.944973 195.959562 
L 122.003097 176.919052 
L 122.061071 176.919052 
L 122.118899 160.807852 
L 122.234113 160.807852 
L 122.234113 159.343198 
L 122.74546 159.343198 
L 122.74546 157.878543 
L 123.190516 157.878543 
L 123.190516 156.413888 
L 136.665871 156.413888 
L 136.665871 154.949234 
L 158.205342 154.949234 
L 158.205342 153.484579 
L 164.077666 153.484579 
L 164.077666 152.019925 
L 168.820024 152.019925 
L 168.820024 150.55527 
L 170.256716 150.55527 
L 170.256716 149.090616 
L 173.195542 149.090616 
L 173.195542 147.625961 
L 174.990742 147.625961 
L 174.990742 146.161307 
L 178.548081 146.161307 
L 178.548081 144.696652 
L 180.144126 144.696652 
L 180.144126 143.231997 
L 185.975333 143.231997 
L 185.975333 141.767343 
L 187.754192 141.767343 
L 187.754192 140.302688 
L 189.221236 140.302688 
L 189.221236 138.838034 
L 189.391791 138.838034 
L 189.50182 77.322542 
L 189.504786 77.322542 
L 189.61427 52.423415 
L 189.617222 52.423415 
L 189.717352 40.706178 
L 189.743784 40.706178 
L 189.843358 26.059633 
L 235.372219 26.059633 
L 235.373399 23.130323 
L 255.649427 23.130323 
L 255.65007 11.413087 
L 420.36 11.413087 
L 420.36 11.413087 
" style="fill:none;stroke:#f5deb3;stroke-linecap:square;stroke-width:4.0;"/>
   </g>
   <g id="line2d_2">
    <defs>
     <path d="M -0 7.778175 
L 7.778175 0 
L 0 -7.778175 
L -7.778175 -0 
z
" id="md1863fcb3f" style="stroke:#f5deb3;stroke-linejoin:miter;stroke-width:1.5;"/>
    </defs>
    <g>
     <use style="fill:#f5deb3;stroke:#f5deb3;stroke-linejoin:miter;stroke-width:1.5;" x="70.8179248227617" xlink:href="#md1863fcb3f" y="379.0413817561139"/>
     <use style="fill:#f5deb3;stroke:#f5deb3;stroke-linejoin:miter;stroke-width:1.5;" x="121.88670056246538" xlink:href="#md1863fcb3f" y="195.95956163467247"/>
     <use style="fill:#f5deb3;stroke:#f5deb3;stroke-linejoin:miter;stroke-width:1.5;" x="189.51664795486522" xlink:href="#md1863fcb3f" y="67.06996026917773"/>
     <use style="fill:#f5deb3;stroke:#f5deb3;stroke-linejoin:miter;stroke-width:1.5;" x="255.65007019241534" xlink:href="#md1863fcb3f" y="12.877741513231115"/>
     <use style="fill:#f5deb3;stroke:#f5deb3;stroke-linejoin:miter;stroke-width:1.5;" x="255.65007019241534" xlink:href="#md1863fcb3f" y="11.413086952259562"/>
     <use style="fill:#f5deb3;stroke:#f5deb3;stroke-linejoin:miter;stroke-width:1.5;" x="420.3599999999999" xlink:href="#md1863fcb3f" y="11.413086952259562"/>
    </g>
   </g>
   <g id="line2d_3">
    <path d="M -15676.38 758.386913 
" style="fill:none;stroke:#f5deb3;stroke-linecap:square;stroke-width:4.0;"/>
    <g>
     <use style="fill:#f5deb3;stroke:#f5deb3;stroke-linejoin:miter;stroke-width:1.5;" x="-15676.379999999994" xlink:href="#md1863fcb3f" y="758.3869130477403"/>
    </g>
   </g>
   <g id="line2d_4">
    <path d="M 420.36 11.413087 
L 460.60185 18.882825 
" style="fill:none;stroke:#f5deb3;stroke-linecap:square;stroke-width:4.0;"/>
    <g>
     <use style="fill:#f5deb3;stroke:#f5deb3;stroke-linejoin:miter;stroke-width:1.5;" x="420.3599999999999" xlink:href="#md1863fcb3f" y="11.413086952259562"/>
     <use style="fill:#f5deb3;stroke:#f5deb3;stroke-linejoin:miter;stroke-width:1.5;" x="460.60184999999996" xlink:href="#md1863fcb3f" y="18.882825213214403"/>
    </g>
   </g>
   <g id="line2d_5">
    <defs>
     <path d="M 0 1.5 
C 0.397805 1.5 0.77937 1.341951 1.06066 1.06066 
C 1.341951 0.77937 1.5 0.397805 1.5 0 
C 1.5 -0.397805 1.341951 -0.77937 1.06066 -1.06066 
C 0.77937 -1.341951 0.397805 -1.5 0 -1.5 
C -0.397805 -1.5 -0.77937 -1.341951 -1.06066 -1.06066 
C -1.341951 -0.77937 -1.5 -0.397805 -1.5 0 
C -1.5 0.397805 -1.341951 0.77937 -1.06066 1.06066 
C -0.77937 1.341951 -0.397805 1.5 0 1.5 
z
" id="m49edec7789" style="stroke:#f5deb3;stroke-width:0.5;"/>
    </defs>
    <g>
     <use style="fill:#f5deb3;stroke:#f5deb3;stroke-width:0.5;" x="255.65007019241534" xlink:href="#m49edec7789" y="11.413086952259562"/>
     <use style="fill:#f5deb3;stroke:#f5deb3;stroke-width:0.5;" x="255.65007019241534" xlink:href="#m49edec7789" y="11.413086952259562"/>
    </g>
   </g>
   <g id="line2d_6">
    <defs>
     <path d="M 0 1.5 
C 0.397805 1.5 0.77937 1.341951 1.06066 1.06066 
C 1.341951 0.77937 1.5 0.397805 1.5 0 
C 1.5 -0.397805 1.341951 -0.77937 1.06066 -1.06066 
C 0.77937 -1.341951 0.397805 -1.5 0 -1.5 
C -0.397805 -1.5 -0.77937 -1.341951 -1.06066 -1.06066 
C -1.341951 -0.77937 -1.5 -0.397805 -1.5 0 
C -1.5 0.397805 -1.341951 0.77937 -1.06066 1.06066 
C -0.77937 1.341951 -0.397805 1.5 0 1.5 
z
" id="m4ce753d3de" style="stroke:#000080;stroke-width:0.5;"/>
    </defs>
    <g>
     <use style="fill:#000080;stroke:#000080;stroke-width:0.5;" x="337.9646518039218" xlink:href="#m4ce753d3de" y="292.6267626587935"/>
     <use style="fill:#000080;stroke:#000080;stroke-width:0.5;" x="337.9646518039218" xlink:href="#m4ce753d3de" y="292.6267626587935"/>
    </g>
   </g>
   <g id="line2d_7">
    <path d="M -1 384.460604 
L 50.836282 384.460604 
L 50.836282 384.167673 
L 95.002916 384.167673 
L 95.002916 384.021207 
L 104.646558 384.021207 
L 104.646558 383.874742 
L 114.261403 383.874742 
L 114.261403 383.581811 
L 116.065581 383.581811 
L 116.065581 383.28888 
L 116.215894 383.28888 
L 116.215894 383.142415 
L 116.513566 383.142415 
L 116.513566 382.556553 
L 126.705034 382.556553 
L 126.705034 382.117156 
L 129.953016 382.117156 
L 129.953016 381.824225 
L 131.910881 381.824225 
L 131.910881 381.67776 
L 133.71319 381.67776 
L 133.71319 381.531295 
L 134.328512 381.531295 
L 134.328512 381.384829 
L 134.630028 381.384829 
L 134.630028 381.238364 
L 136.204844 381.238364 
L 136.204844 381.091898 
L 136.359562 381.091898 
L 136.39038 380.506036 
L 136.482583 380.506036 
L 136.482583 380.359571 
L 136.877855 380.359571 
L 136.877855 380.213105 
L 137.472834 380.213105 
L 137.472834 380.06664 
L 138.477932 380.06664 
L 138.477932 379.920174 
L 139.386491 379.920174 
L 139.467311 379.480778 
L 139.547846 379.480778 
L 139.574627 379.041382 
L 141.201157 379.041382 
L 141.201157 378.894916 
L 141.522757 378.894916 
L 141.522757 378.748451 
L 142.295501 378.748451 
L 142.295501 378.601985 
L 142.437506 378.601985 
L 142.437506 378.45552 
L 142.788681 378.45552 
L 142.788681 378.309054 
L 143.339499 378.309054 
L 143.339499 378.016124 
L 143.810737 378.016124 
L 143.810737 377.576727 
L 144.228826 377.576727 
L 144.228826 377.283796 
L 144.72484 377.283796 
L 144.72484 377.137331 
L 145.168447 377.137331 
L 145.210247 376.8444 
L 145.521314 376.8444 
L 145.624062 376.405004 
L 145.726348 376.405004 
L 145.726348 376.258538 
L 146.171008 376.258538 
L 146.171008 375.965607 
L 146.429725 375.965607 
L 146.528451 375.379745 
L 147.568198 375.379745 
L 147.624588 374.940349 
L 148.454053 374.940349 
L 148.526337 374.647418 
L 148.598392 374.647418 
L 148.652283 374.208022 
L 148.848796 374.208022 
L 148.848796 373.915091 
L 149.13163 373.915091 
L 149.13163 373.768625 
L 149.358866 373.768625 
L 149.358866 373.62216 
L 149.480288 373.62216 
L 149.480288 373.475694 
L 151.018534 373.475694 
L 151.050843 372.889833 
L 151.624678 372.889833 
L 151.624678 372.743367 
L 152.014807 372.743367 
L 152.014807 372.596902 
L 152.153628 372.596902 
L 152.153628 372.450436 
L 152.504583 372.450436 
L 152.580165 372.01104 
L 152.88 372.01104 
L 152.88 371.718109 
L 153.337054 371.718109 
L 153.409918 371.278713 
L 153.598278 371.278713 
L 153.612702 370.839316 
L 153.970371 370.839316 
L 153.970371 370.546385 
L 154.111875 370.546385 
L 154.210405 370.106989 
L 154.68299 370.106989 
L 154.68299 369.667593 
L 155.024307 369.667593 
L 155.024307 369.521127 
L 155.172876 369.521127 
L 155.172876 369.374662 
L 155.333849 369.374662 
L 155.333849 366.298887 
L 155.493689 366.298887 
L 155.586412 365.713025 
L 156.417047 365.713025 
L 156.417047 365.56656 
L 156.670507 365.56656 
L 156.670507 365.127163 
L 156.858762 365.127163 
L 156.858762 364.980698 
L 156.99583 364.980698 
L 156.99583 364.834233 
L 157.181417 364.834233 
L 157.255229 360.147338 
L 157.801298 360.147338 
L 157.813285 359.707942 
L 158.051703 359.707942 
L 158.099087 359.12208 
L 158.169979 359.12208 
L 158.275903 358.829149 
L 158.357948 358.829149 
L 158.381335 358.536218 
L 158.474643 358.536218 
L 158.567569 348.430101 
L 158.694725 348.430101 
L 158.763783 347.84424 
L 158.832632 347.84424 
L 158.935515 347.551309 
L 158.981092 347.551309 
L 158.981092 343.889672 
L 159.162489 343.889672 
L 159.162489 339.495709 
L 159.420733 339.495709 
L 159.420733 339.349243 
L 159.620807 339.349243 
L 159.731202 334.662349 
L 159.906725 334.662349 
L 160.004863 334.222952 
L 160.17829 334.222952 
L 160.210661 333.344159 
L 160.414609 333.344159 
L 160.457313 328.80373 
L 160.531852 328.80373 
L 160.531852 323.97037 
L 160.711863 323.97037 
L 160.711863 319.429941 
L 161.448613 319.429941 
L 161.448613 316.500632 
L 161.61139 316.500632 
L 161.61139 313.278392 
L 162.260924 313.278392 
L 162.260924 308.591497 
L 162.505877 308.591497 
L 162.583707 308.152101 
L 162.796374 308.152101 
L 162.796374 304.051068 
L 163.450735 304.051068 
L 163.450735 303.904603 
L 163.858368 303.904603 
L 163.858368 303.758137 
L 163.986549 303.758137 
L 163.986549 299.510639 
L 164.222696 299.510639 
L 164.222696 299.217708 
L 165.530569 299.217708 
L 165.641183 298.631846 
L 166.161437 298.631846 
L 166.202878 298.19245 
L 167.056102 298.19245 
L 167.056102 298.045985 
L 167.74728 298.045985 
L 167.74728 297.899519 
L 168.901046 297.899519 
L 168.901046 297.606588 
L 169.907737 297.606588 
L 169.907737 297.460123 
L 171.212885 297.460123 
L 171.212885 297.313657 
L 171.60133 297.313657 
L 171.60133 297.167192 
L 172.846018 297.167192 
L 172.864548 296.727795 
L 173.724805 296.727795 
L 173.724805 296.58133 
L 174.542178 296.58133 
L 174.542178 296.288399 
L 248.645366 296.288399 
L 248.660477 295.995468 
L 273.052904 295.995468 
L 273.052904 295.849003 
L 279.427658 295.849003 
L 279.427658 295.702537 
L 284.468112 295.702537 
L 284.468112 295.556072 
L 288.625428 295.556072 
L 288.629191 295.263141 
L 292.077307 295.263141 
L 292.110836 294.677279 
L 295.128757 294.677279 
L 295.128757 294.530814 
L 297.792088 294.530814 
L 297.792088 294.237883 
L 302.332177 294.237883 
L 302.332177 294.091417 
L 304.282034 294.091417 
L 304.282034 293.944952 
L 312.189507 293.944952 
L 312.189507 293.798486 
L 313.471412 293.798486 
L 313.484481 293.505555 
L 319.99421 293.505555 
L 319.99421 293.35909 
L 323.490092 293.35909 
L 323.490092 293.212624 
L 327.223801 293.212624 
L 327.223801 293.066159 
L 328.558061 293.066159 
L 328.558061 292.919694 
L 337.532489 292.919694 
L 337.532489 292.773228 
L 337.964652 292.773228 
L 337.964652 292.626763 
L 420.36 292.626763 
L 420.36 292.626763 
" style="fill:none;stroke:#000080;stroke-linecap:square;stroke-width:1.5;"/>
   </g>
   <g id="line2d_8">
    <defs>
     <path d="M 0 6 
C 1.591219 6 3.117479 5.367802 4.242641 4.242641 
C 5.367802 3.117479 6 1.591219 6 0 
C 6 -1.591219 5.367802 -3.117479 4.242641 -4.242641 
C 3.117479 -5.367802 1.591219 -6 0 -6 
C -1.591219 -6 -3.117479 -5.367802 -4.242641 -4.242641 
C -5.367802 -3.117479 -6 -1.591219 -6 0 
C -6 1.591219 -5.367802 3.117479 -4.242641 4.242641 
C -3.117479 5.367802 -1.591219 6 0 6 
z
" id="mc3bb413956" style="stroke:#000080;stroke-width:1.5;"/>
    </defs>
    <g>
     <use style="fill:none;stroke:#000080;stroke-width:1.5;" x="163.8583681782642" xlink:href="#mc3bb413956" y="303.75813732217716"/>
     <use style="fill:none;stroke:#000080;stroke-width:1.5;" x="248.66047684447045" xlink:href="#mc3bb413956" y="295.99546814902806"/>
     <use style="fill:none;stroke:#000080;stroke-width:1.5;" x="337.9646518039218" xlink:href="#mc3bb413956" y="292.7732281148907"/>
     <use style="fill:none;stroke:#000080;stroke-width:1.5;" x="337.9646518039218" xlink:href="#mc3bb413956" y="292.6267626587935"/>
     <use style="fill:none;stroke:#000080;stroke-width:1.5;" x="420.3599999999999" xlink:href="#mc3bb413956" y="292.6267626587935"/>
    </g>
   </g>
   <g id="line2d_9">
    <path d="M -15676.38 758.386913 
" style="fill:none;stroke:#000080;stroke-linecap:square;stroke-width:1.5;"/>
    <g>
     <use style="fill:none;stroke:#000080;stroke-width:1.5;" x="-15676.379999999994" xlink:href="#mc3bb413956" y="758.3869130477403"/>
    </g>
   </g>
   <g id="line2d_10">
    <path clip-path="url(#p1e71d0baf0)" d="M 247.841099 296.288399 
" style="fill:none;stroke:#000080;stroke-linecap:square;"/>
    <defs>
     <path d="M -12 12 
L 12 -12 
M -12 -12 
L 12 12 
" id="m060b2475d1" style="stroke:#000080;"/>
    </defs>
    <g clip-path="url(#p1e71d0baf0)">
     <use style="fill:#000080;stroke:#000080;" x="247.8410987908953" xlink:href="#m060b2475d1" y="296.2883990612223"/>
    </g>
   </g>
   <g id="line2d_11">
    <defs>
     <path d="M 0 1.5 
C 0.397805 1.5 0.77937 1.341951 1.06066 1.06066 
C 1.341951 0.77937 1.5 0.397805 1.5 0 
C 1.5 -0.397805 1.341951 -0.77937 1.06066 -1.06066 
C 0.77937 -1.341951 0.397805 -1.5 0 -1.5 
C -0.397805 -1.5 -0.77937 -1.341951 -1.06066 -1.06066 
C -1.341951 -0.77937 -1.5 -0.397805 -1.5 0 
C -1.5 0.397805 -1.341951 0.77937 -1.06066 1.06066 
C -0.77937 1.341951 -0.397805 1.5 0 1.5 
z
" id="m211350c116" style="stroke:#ff00ff;stroke-width:0.5;"/>
    </defs>
    <g>
     <use style="fill:#ff00ff;stroke:#ff00ff;stroke-width:0.5;" x="342.25514105310265" xlink:href="#m211350c116" y="292.6267626587935"/>
     <use style="fill:#ff00ff;stroke:#ff00ff;stroke-width:0.5;" x="342.25514105310265" xlink:href="#m211350c116" y="292.6267626587935"/>
    </g>
   </g>
   <g id="line2d_12">
    <path d="M -1 384.167673 
L 123.135359 384.167673 
L 123.135359 384.021207 
L 129.664925 384.021207 
L 129.664925 383.581811 
L 135.31837 383.581811 
L 135.382851 383.28888 
L 141.864074 383.28888 
L 141.864074 383.142415 
L 143.810737 383.142415 
L 143.810737 382.995949 
L 144.894857 382.995949 
L 144.894857 382.849484 
L 146.150984 382.849484 
L 146.150984 382.556553 
L 147.811551 382.556553 
L 147.811551 382.117156 
L 148.490224 382.117156 
L 148.490224 381.824225 
L 150.986179 381.824225 
L 150.986179 381.67776 
L 151.435007 381.67776 
L 151.435007 381.531295 
L 152.534846 381.531295 
L 152.595251 381.091898 
L 153.249307 381.091898 
L 153.249307 380.945433 
L 153.87079 380.945433 
L 153.87079 380.798967 
L 154.041233 380.798967 
L 154.041233 380.652502 
L 155.440534 380.652502 
L 155.440534 380.506036 
L 156.289247 380.506036 
L 156.289247 380.359571 
L 156.833752 380.359571 
L 156.896227 379.920174 
L 157.523838 379.920174 
L 157.523838 379.773709 
L 159.972197 379.773709 
L 159.972197 379.627244 
L 160.167489 379.627244 
L 160.167489 379.480778 
L 160.435971 379.480778 
L 160.435971 379.334313 
L 160.669636 379.334313 
L 160.669636 379.041382 
L 161.005275 379.041382 
L 161.067658 378.309054 
L 161.119514 378.309054 
L 161.212556 377.869658 
L 163.403946 377.869658 
L 163.403946 377.723193 
L 164.004802 377.723193 
L 164.004802 377.576727 
L 164.429567 377.576727 
L 164.429567 377.430262 
L 164.643441 377.430262 
L 164.643441 377.283796 
L 165.641183 377.283796 
L 165.641183 376.990865 
L 165.886013 376.990865 
L 165.886013 376.697934 
L 166.293782 376.697934 
L 166.293782 376.551469 
L 166.474506 376.551469 
L 166.539869 376.258538 
L 167.103902 376.258538 
L 167.103902 376.112073 
L 167.498371 376.112073 
L 167.498371 375.965607 
L 167.878411 375.965607 
L 167.985835 375.526211 
L 168.357866 375.526211 
L 168.387968 375.086814 
L 168.582666 375.086814 
L 168.649675 374.647418 
L 170.082898 374.647418 
L 170.082898 374.354487 
L 170.291321 374.354487 
L 170.291321 374.208022 
L 170.675331 374.208022 
L 170.675331 373.915091 
L 171.119727 373.915091 
L 171.119727 373.768625 
L 171.970398 373.768625 
L 172.060135 372.743367 
L 172.282939 372.743367 
L 172.282939 372.596902 
L 172.547448 372.596902 
L 172.547448 372.450436 
L 172.80891 372.450436 
L 172.901565 372.157505 
L 172.938521 372.157505 
L 172.938521 372.01104 
L 173.067395 372.01104 
L 173.177279 371.278713 
L 173.256311 371.278713 
L 173.256311 371.132247 
L 174.524968 371.132247 
L 174.524968 370.692851 
L 174.764729 370.692851 
L 174.764729 370.546385 
L 175.01322 370.546385 
L 175.01322 370.39992 
L 176.00236 370.39992 
L 176.00236 370.253454 
L 176.136393 370.253454 
L 176.216435 369.960523 
L 176.359803 369.960523 
L 176.407391 365.127163 
L 176.570548 365.127163 
L 176.570548 364.980698 
L 176.706491 364.980698 
L 176.742953 361.026131 
L 177.160656 361.026131 
L 177.160656 360.7332 
L 177.555752 360.7332 
L 177.555752 360.147338 
L 177.815379 360.147338 
L 177.899617 355.167512 
L 177.93915 355.167512 
L 177.944087 350.480618 
L 178.091695 350.480618 
L 178.18957 341.69269 
L 178.213973 341.69269 
L 178.282162 333.051229 
L 179.000184 333.051229 
L 179.000184 328.217868 
L 179.281151 328.217868 
L 179.355492 324.556232 
L 179.57247 324.556232 
L 179.577064 320.894596 
L 179.737275 320.894596 
L 179.741835 313.424857 
L 180.00481 313.424857 
L 180.00481 313.131927 
L 180.455599 313.131927 
L 180.455599 308.152101 
L 180.762856 308.152101 
L 180.762856 308.005636 
L 181.074611 308.005636 
L 181.074611 307.566239 
L 181.487957 307.566239 
L 181.487957 306.980377 
L 183.187786 306.980377 
L 183.187786 303.02581 
L 184.95112 303.02581 
L 184.95112 302.879345 
L 186.147935 302.879345 
L 186.147935 302.586414 
L 186.882185 302.586414 
L 186.882185 302.439948 
L 187.120651 302.439948 
L 187.120651 302.293483 
L 188.207802 302.293483 
L 188.207802 301.707621 
L 189.224239 301.707621 
L 189.224239 301.561155 
L 189.696773 301.561155 
L 189.696773 301.41469 
L 189.863805 301.41469 
L 189.863805 301.268225 
L 190.061476 301.268225 
L 190.061476 301.121759 
L 190.182713 301.121759 
L 190.182713 300.975294 
L 191.141017 300.975294 
L 191.141017 300.828828 
L 191.355272 300.828828 
L 191.355272 300.682363 
L 191.532286 300.682363 
L 191.532286 300.535897 
L 191.882226 300.535897 
L 191.882226 300.389432 
L 192.542984 300.389432 
L 192.542984 300.096501 
L 192.736746 300.096501 
L 192.736746 299.950035 
L 192.888018 299.950035 
L 192.888018 299.80357 
L 195.022929 299.80357 
L 195.022929 299.657105 
L 195.458341 299.657105 
L 195.458341 299.510639 
L 196.079542 299.510639 
L 196.079542 299.364174 
L 201.356852 299.364174 
L 201.356852 299.217708 
L 201.514666 299.217708 
L 201.567028 298.631846 
L 202.778872 298.631846 
L 202.778872 298.338915 
L 203.074433 298.338915 
L 203.074433 298.19245 
L 204.331037 298.19245 
L 204.331037 298.045985 
L 204.998716 298.045985 
L 204.998716 297.899519 
L 205.815646 297.899519 
L 205.815646 297.753054 
L 206.027185 297.753054 
L 206.027185 297.606588 
L 206.534263 297.606588 
L 206.534263 297.460123 
L 209.277842 297.460123 
L 209.277842 297.313657 
L 212.659648 297.313657 
L 212.659648 297.167192 
L 213.092875 297.167192 
L 213.092875 297.020726 
L 214.252523 297.020726 
L 214.252523 296.727795 
L 217.215664 296.727795 
L 217.215664 296.58133 
L 252.041046 296.58133 
L 252.041046 296.434865 
L 253.058199 296.434865 
L 253.058199 296.288399 
L 266.358408 296.288399 
L 266.358408 296.141934 
L 273.631585 296.141934 
L 273.631585 295.849003 
L 273.770685 295.849003 
L 273.770685 295.702537 
L 274.250325 295.702537 
L 274.250325 295.556072 
L 274.663507 295.556072 
L 274.663507 295.409606 
L 279.94486 295.409606 
L 279.94486 295.116675 
L 285.04828 295.116675 
L 285.04828 294.823745 
L 292.426436 294.823745 
L 292.426436 294.677279 
L 302.486594 294.677279 
L 302.564765 294.237883 
L 309.519254 294.237883 
L 309.519254 294.091417 
L 312.281684 294.091417 
L 312.332486 293.798486 
L 315.990096 293.798486 
L 315.990096 293.35909 
L 321.019513 293.35909 
L 321.019513 293.212624 
L 325.874558 293.212624 
L 325.874558 293.066159 
L 340.412375 293.066159 
L 340.412375 292.919694 
L 340.793091 292.919694 
L 340.793091 292.773228 
L 342.255141 292.773228 
L 342.255141 292.626763 
L 420.36 292.626763 
L 420.36 292.626763 
" style="fill:none;stroke:#ff00ff;stroke-linecap:square;stroke-width:1.5;"/>
   </g>
   <g id="line2d_13">
    <defs>
     <path d="M -0 8.485281 
L 5.091169 0 
L 0 -8.485281 
L -5.091169 -0 
z
" id="m8313d22931" style="stroke:#ff00ff;stroke-linejoin:miter;stroke-width:1.5;"/>
    </defs>
    <g>
     <use style="fill:none;stroke:#ff00ff;stroke-linejoin:miter;stroke-width:1.5;" x="170.08289760159118" xlink:href="#m8313d22931" y="374.6474180731993"/>
     <use style="fill:none;stroke:#ff00ff;stroke-linejoin:miter;stroke-width:1.5;" x="266.3584084643015" xlink:href="#m8313d22931" y="296.1419336051252"/>
     <use style="fill:none;stroke:#ff00ff;stroke-linejoin:miter;stroke-width:1.5;" x="342.25514105310265" xlink:href="#m8313d22931" y="292.6267626587935"/>
     <use style="fill:none;stroke:#ff00ff;stroke-linejoin:miter;stroke-width:1.5;" x="342.25514105310265" xlink:href="#m8313d22931" y="292.6267626587935"/>
     <use style="fill:none;stroke:#ff00ff;stroke-linejoin:miter;stroke-width:1.5;" x="420.3599999999999" xlink:href="#m8313d22931" y="292.6267626587935"/>
    </g>
   </g>
   <g id="line2d_14">
    <path d="M -15676.38 758.386913 
" style="fill:none;stroke:#ff00ff;stroke-linecap:square;stroke-width:1.5;"/>
    <g>
     <use style="fill:none;stroke:#ff00ff;stroke-linejoin:miter;stroke-width:1.5;" x="-15676.379999999994" xlink:href="#m8313d22931" y="758.3869130477403"/>
    </g>
   </g>
   <g id="line2d_15">
    <path clip-path="url(#p1e71d0baf0)" d="M 247.81839 296.58133 
" style="fill:none;stroke:#ff00ff;stroke-linecap:square;"/>
    <defs>
     <path d="M -12 12 
L 12 -12 
M -12 -12 
L 12 12 
" id="mfb36db6055" style="stroke:#ff00ff;"/>
    </defs>
    <g clip-path="url(#p1e71d0baf0)">
     <use style="fill:#ff00ff;stroke:#ff00ff;" x="247.8183902744885" xlink:href="#mfb36db6055" y="296.58132997341664"/>
    </g>
   </g>
   <g id="line2d_16">
    <defs>
     <path d="M 0 1.5 
C 0.397805 1.5 0.77937 1.341951 1.06066 1.06066 
C 1.341951 0.77937 1.5 0.397805 1.5 0 
C 1.5 -0.397805 1.341951 -0.77937 1.06066 -1.06066 
C 0.77937 -1.341951 0.397805 -1.5 0 -1.5 
C -0.397805 -1.5 -0.77937 -1.341951 -1.06066 -1.06066 
C -1.341951 -0.77937 -1.5 -0.397805 -1.5 0 
C -1.5 0.397805 -1.341951 0.77937 -1.06066 1.06066 
C -0.77937 1.341951 -0.397805 1.5 0 1.5 
z
" id="m5606515b12" style="stroke:#ffa500;stroke-width:0.5;"/>
    </defs>
    <g>
     <use style="fill:#ffa500;stroke:#ffa500;stroke-width:0.5;" x="327.89844630706614" xlink:href="#m5606515b12" y="292.6267626587935"/>
     <use style="fill:#ffa500;stroke:#ffa500;stroke-width:0.5;" x="327.89844630706614" xlink:href="#m5606515b12" y="292.6267626587935"/>
    </g>
   </g>
   <g id="line2d_17">
    <path d="M -1 384.314138 
L 96.119395 384.314138 
L 96.119395 384.167673 
L 99.331033 384.167673 
L 99.331033 384.021207 
L 103.756359 384.021207 
L 103.756359 383.728276 
L 104.269311 383.728276 
L 104.269311 383.581811 
L 110.639822 383.581811 
L 110.639822 383.435345 
L 111.942475 383.435345 
L 111.942475 383.28888 
L 112.301331 383.28888 
L 112.301331 383.142415 
L 119.874629 383.142415 
L 119.874629 382.995949 
L 120.191191 382.995949 
L 120.191191 382.556553 
L 121.235629 382.556553 
L 121.235629 382.410087 
L 123.355188 382.410087 
L 123.355188 382.263622 
L 124.108244 382.263622 
L 124.108244 382.117156 
L 124.475604 382.117156 
L 124.475604 381.970691 
L 127.629689 381.970691 
L 127.629689 381.824225 
L 128.648465 381.824225 
L 128.648465 381.384829 
L 130.237497 381.384829 
L 130.237497 381.238364 
L 131.109048 381.238364 
L 131.109048 380.945433 
L 131.910881 380.945433 
L 131.910881 380.798967 
L 132.209042 380.798967 
L 132.209042 380.652502 
L 132.937745 380.652502 
L 132.937745 380.506036 
L 133.2228 380.506036 
L 133.2228 380.359571 
L 134.159256 380.359571 
L 134.159256 380.213105 
L 134.294761 380.213105 
L 134.294761 379.920174 
L 137.147527 379.920174 
L 137.147527 379.627244 
L 137.295972 379.627244 
L 137.295972 379.480778 
L 138.052614 379.480778 
L 138.052614 379.334313 
L 138.617952 379.334313 
L 138.617952 379.187847 
L 139.359486 379.187847 
L 139.467311 378.894916 
L 140.28603 378.894916 
L 140.311954 378.601985 
L 141.275778 378.601985 
L 141.275778 378.45552 
L 141.815627 378.45552 
L 141.815627 378.309054 
L 142.247967 378.309054 
L 142.247967 378.016124 
L 142.71888 378.016124 
L 142.71888 377.869658 
L 143.019815 377.869658 
L 143.019815 377.723193 
L 143.452589 377.723193 
L 143.452589 377.576727 
L 144.141445 377.576727 
L 144.141445 377.430262 
L 144.424211 377.430262 
L 144.532036 376.8444 
L 144.788746 376.8444 
L 144.788746 376.551469 
L 145.000475 376.551469 
L 145.000475 376.258538 
L 145.60355 376.258538 
L 145.60355 376.112073 
L 146.724625 376.112073 
L 146.724625 375.965607 
L 147.226881 375.965607 
L 147.226881 375.819142 
L 147.379211 375.819142 
L 147.379211 375.526211 
L 147.492792 375.526211 
L 147.492792 375.23328 
L 147.792924 375.23328 
L 147.792924 374.500953 
L 148.052323 374.500953 
L 148.144252 373.915091 
L 148.180919 373.915091 
L 148.180919 373.62216 
L 149.289189 373.62216 
L 149.393624 373.329229 
L 149.462982 373.329229 
L 149.462982 373.036298 
L 150.295843 373.036298 
L 150.295843 372.889833 
L 150.660064 372.889833 
L 150.660064 372.596902 
L 150.823707 372.596902 
L 150.823707 372.450436 
L 151.050843 372.450436 
L 151.050843 371.718109 
L 151.275728 371.718109 
L 151.37143 370.985782 
L 151.530041 370.985782 
L 151.530041 370.839316 
L 151.843976 370.839316 
L 151.843976 370.692851 
L 152.199714 370.692851 
L 152.199714 366.152422 
L 152.322154 366.152422 
L 152.322154 366.005956 
L 152.580165 366.005956 
L 152.580165 365.859491 
L 152.730577 365.859491 
L 152.835276 365.56656 
L 152.865102 365.56656 
L 152.865102 365.420094 
L 153.175925 365.420094 
L 153.175925 365.273629 
L 153.583844 365.273629 
L 153.641524 364.980698 
L 153.813691 364.980698 
L 153.813691 364.834233 
L 154.097764 364.834233 
L 154.097764 364.541302 
L 154.224446 364.541302 
L 154.224446 364.394836 
L 154.392263 364.394836 
L 154.406192 359.561476 
L 154.586494 359.561476 
L 154.655462 359.268545 
L 154.888396 359.268545 
L 154.888396 359.12208 
L 155.024307 359.12208 
L 155.024307 358.975614 
L 155.320478 358.975614 
L 155.387254 358.096822 
L 155.665588 358.096822 
L 155.744489 357.51096 
L 155.992548 357.51096 
L 156.031468 352.6776 
L 156.44252 352.6776 
L 156.493382 352.238203 
L 156.569462 352.238203 
L 156.569462 351.945272 
L 156.720861 351.945272 
L 156.758554 351.212945 
L 157.00825 351.212945 
L 157.00825 351.06648 
L 157.27978 351.06648 
L 157.27978 338.323985 
L 157.487396 338.323985 
L 157.511697 334.222952 
L 157.65696 334.222952 
L 157.65696 334.076487 
L 157.849208 334.076487 
L 157.849208 333.930021 
L 158.051703 333.930021 
L 158.051703 329.243127 
L 158.798234 329.243127 
L 158.798234 328.950196 
L 159.252646 328.950196 
L 159.252646 328.80373 
L 159.409566 328.80373 
L 159.454201 325.435025 
L 159.554311 325.435025 
L 159.642929 317.086494 
L 159.676072 317.086494 
L 159.687108 316.061236 
L 160.425292 316.061236 
L 160.425292 315.768305 
L 160.869519 315.768305 
L 160.869519 310.788479 
L 161.005275 310.788479 
L 161.036488 307.566239 
L 161.140223 307.566239 
L 161.140223 305.076326 
L 161.325759 305.076326 
L 161.325759 300.096501 
L 163.450735 300.096501 
L 163.450735 299.950035 
L 163.922549 299.950035 
L 163.922549 299.80357 
L 164.050369 299.80357 
L 164.050369 299.510639 
L 164.670034 299.510639 
L 164.670034 299.364174 
L 164.881664 299.364174 
L 164.881664 299.217708 
L 165.333536 299.217708 
L 165.333536 299.071243 
L 165.734361 299.071243 
L 165.734361 298.924777 
L 166.18631 298.924777 
L 166.18631 298.778312 
L 166.334982 298.778312 
L 166.343213 298.338915 
L 168.153624 298.338915 
L 168.153624 298.19245 
L 168.834777 298.19245 
L 168.834777 297.899519 
L 169.113273 297.899519 
L 169.113273 297.753054 
L 169.474586 297.753054 
L 169.474586 297.460123 
L 170.096852 297.460123 
L 170.096852 297.313657 
L 171.918959 297.313657 
L 171.918959 297.167192 
L 172.390374 297.167192 
L 172.390374 297.020726 
L 172.634937 297.020726 
L 172.634937 296.874261 
L 173.171189 296.874261 
L 173.171189 296.727795 
L 176.147082 296.727795 
L 176.147082 296.58133 
L 178.096599 296.58133 
L 178.101502 296.141934 
L 248.62586 296.141934 
L 248.710337 295.702537 
L 248.907389 295.702537 
L 248.907389 295.556072 
L 263.869198 295.556072 
L 263.869198 295.409606 
L 264.091135 295.409606 
L 264.091246 295.116675 
L 273.009213 295.116675 
L 273.009213 294.97021 
L 284.488398 294.97021 
L 284.509974 294.530814 
L 288.624713 294.530814 
L 288.624713 294.384348 
L 292.106736 294.384348 
L 292.106736 294.237883 
L 295.124942 294.237883 
L 295.124942 294.091417 
L 297.776477 294.091417 
L 297.776477 293.944952 
L 304.289453 293.944952 
L 304.289453 293.798486 
L 307.781121 293.798486 
L 307.781121 293.652021 
L 309.344217 293.652021 
L 309.344217 293.505555 
L 310.806568 293.505555 
L 310.806568 293.35909 
L 319.032117 293.35909 
L 319.032117 293.212624 
L 320.926898 293.212624 
L 320.926898 293.066159 
L 322.667587 293.066159 
L 322.667587 292.919694 
L 324.291713 292.919694 
L 324.291713 292.773228 
L 327.898446 292.773228 
L 327.898446 292.626763 
L 420.36 292.626763 
L 420.36 292.626763 
" style="fill:none;stroke:#ffa500;stroke-linecap:square;stroke-width:1.5;"/>
   </g>
   <g id="line2d_18">
    <defs>
     <path d="M 0 -6 
L -1.347084 -1.854102 
L -5.706339 -1.854102 
L -2.179628 0.708204 
L -3.526712 4.854102 
L -0 2.291796 
L 3.526712 4.854102 
L 2.179628 0.708204 
L 5.706339 -1.854102 
L 1.347084 -1.854102 
z
" id="md7fac22fd8" style="stroke:#ffa500;stroke-linejoin:bevel;stroke-width:1.5;"/>
    </defs>
    <g>
     <use style="fill:none;stroke:#ffa500;stroke-linejoin:bevel;stroke-width:1.5;" x="112.30133120647479" xlink:href="#md7fac22fd8" y="383.14241452683416"/>
     <use style="fill:none;stroke:#ffa500;stroke-linejoin:bevel;stroke-width:1.5;" x="178.1015019121886" xlink:href="#md7fac22fd8" y="296.4348645173195"/>
     <use style="fill:none;stroke:#ffa500;stroke-linejoin:bevel;stroke-width:1.5;" x="320.926897769928" xlink:href="#md7fac22fd8" y="293.06615902708495"/>
     <use style="fill:none;stroke:#ffa500;stroke-linejoin:bevel;stroke-width:1.5;" x="327.89844630706614" xlink:href="#md7fac22fd8" y="292.6267626587935"/>
     <use style="fill:none;stroke:#ffa500;stroke-linejoin:bevel;stroke-width:1.5;" x="327.89844630706614" xlink:href="#md7fac22fd8" y="292.6267626587935"/>
     <use style="fill:none;stroke:#ffa500;stroke-linejoin:bevel;stroke-width:1.5;" x="420.3599999999999" xlink:href="#md7fac22fd8" y="292.6267626587935"/>
    </g>
   </g>
   <g id="line2d_19">
    <path d="M -15676.38 758.386913 
" style="fill:none;stroke:#ffa500;stroke-linecap:square;stroke-width:1.5;"/>
    <g>
     <use style="fill:none;stroke:#ffa500;stroke-linejoin:bevel;stroke-width:1.5;" x="-15676.379999999994" xlink:href="#md7fac22fd8" y="758.3869130477403"/>
    </g>
   </g>
   <g id="line2d_20">
    <path clip-path="url(#p1e71d0baf0)" d="M 247.839283 296.141934 
" style="fill:none;stroke:#ffa500;stroke-linecap:square;"/>
    <defs>
     <path d="M -12 12 
L 12 -12 
M -12 -12 
L 12 12 
" id="m768c6150d2" style="stroke:#ffa500;"/>
    </defs>
    <g clip-path="url(#p1e71d0baf0)">
     <use style="fill:#ffa500;stroke:#ffa500;" x="247.83928294544006" xlink:href="#m768c6150d2" y="296.1419336051252"/>
    </g>
   </g>
   <g id="line2d_21">
    <defs>
     <path d="M 0 1.5 
C 0.397805 1.5 0.77937 1.341951 1.06066 1.06066 
C 1.341951 0.77937 1.5 0.397805 1.5 0 
C 1.5 -0.397805 1.341951 -0.77937 1.06066 -1.06066 
C 0.77937 -1.341951 0.397805 -1.5 0 -1.5 
C -0.397805 -1.5 -0.77937 -1.341951 -1.06066 -1.06066 
C -1.341951 -0.77937 -1.5 -0.397805 -1.5 0 
C -1.5 0.397805 -1.341951 0.77937 -1.06066 1.06066 
C -0.77937 1.341951 -0.397805 1.5 0 1.5 
z
" id="m1e47060af7" style="stroke:#6495ed;stroke-width:0.5;"/>
    </defs>
    <g>
     <use style="fill:#6495ed;stroke:#6495ed;stroke-width:0.5;" x="345.23604240569534" xlink:href="#m1e47060af7" y="295.5560717807366"/>
     <use style="fill:#6495ed;stroke:#6495ed;stroke-width:0.5;" x="345.23604240569534" xlink:href="#m1e47060af7" y="295.5560717807366"/>
    </g>
   </g>
   <g id="line2d_22">
    <path d="M -1 384.460604 
L 2.262857 384.460604 
L 2.262857 384.314138 
L 93.828663 384.314138 
L 93.828663 384.167673 
L 94.811378 384.167673 
L 94.811378 384.021207 
L 102.28287 384.021207 
L 102.28287 383.874742 
L 103.098425 383.874742 
L 103.098425 383.728276 
L 108.216492 383.728276 
L 108.216492 383.435345 
L 113.429912 383.435345 
L 113.429912 383.142415 
L 114.585653 383.142415 
L 114.585653 382.995949 
L 114.905337 382.995949 
L 114.905337 382.703018 
L 118.084436 382.703018 
L 118.084436 382.556553 
L 120.001784 382.556553 
L 120.001784 382.410087 
L 120.31659 382.410087 
L 120.31659 382.117156 
L 121.295595 382.117156 
L 121.295595 381.970691 
L 123.190516 381.970691 
L 123.190516 381.824225 
L 123.78856 381.824225 
L 123.78856 381.67776 
L 125.091855 381.67776 
L 125.091855 381.384829 
L 125.592916 381.384829 
L 125.592916 381.238364 
L 126.179944 381.238364 
L 126.179944 381.091898 
L 127.402033 381.091898 
L 127.402033 380.945433 
L 129.747611 380.945433 
L 129.747611 380.798967 
L 130.992152 380.798967 
L 130.992152 380.652502 
L 131.379485 380.652502 
L 131.379485 380.506036 
L 131.760319 380.506036 
L 131.760319 380.06664 
L 131.873334 380.06664 
L 131.873334 379.920174 
L 133.363996 379.920174 
L 133.363996 379.773709 
L 133.608994 379.773709 
L 133.608994 379.480778 
L 133.816909 379.480778 
L 133.816909 379.334313 
L 135.543256 379.334313 
L 135.543256 379.187847 
L 135.892206 379.187847 
L 135.892206 379.041382 
L 136.173773 379.041382 
L 136.173773 378.748451 
L 136.938059 378.748451 
L 136.938059 378.45552 
L 137.384575 378.45552 
L 137.384575 378.309054 
L 137.793544 378.309054 
L 137.793544 378.162589 
L 137.995298 378.162589 
L 137.995298 377.869658 
L 138.109786 377.869658 
L 138.109786 377.723193 
L 138.617952 377.723193 
L 138.617952 377.576727 
L 140.129856 377.576727 
L 140.15596 377.137331 
L 142.295501 377.137331 
L 142.39027 376.697934 
L 143.565119 376.697934 
L 143.565119 376.551469 
L 145.376679 376.551469 
L 145.418098 376.258538 
L 145.541901 376.258538 
L 145.541901 375.965607 
L 146.880352 375.965607 
L 146.880352 375.819142 
L 147.473901 375.819142 
L 147.473901 375.672676 
L 148.381538 375.672676 
L 148.381538 375.379745 
L 148.580399 375.379745 
L 148.580399 375.086814 
L 149.583849 375.086814 
L 149.583849 374.793884 
L 150.145142 374.793884 
L 150.145142 374.354487 
L 150.528295 374.354487 
L 150.528295 374.208022 
L 150.791073 374.208022 
L 150.791073 374.061556 
L 151.307674 374.061556 
L 151.307674 373.915091 
L 152.51972 373.915091 
L 152.51972 373.768625 
L 154.125977 373.768625 
L 154.125977 373.475694 
L 154.572676 373.475694 
L 154.572676 373.329229 
L 155.024307 373.329229 
L 155.024307 373.182764 
L 155.333849 373.182764 
L 155.333849 372.889833 
L 155.691919 372.889833 
L 155.691919 372.450436 
L 156.134931 372.450436 
L 156.134931 372.303971 
L 156.582118 372.303971 
L 156.582118 372.157505 
L 157.218353 372.157505 
L 157.218353 372.01104 
L 163.328883 372.01104 
L 163.403946 371.425178 
L 164.357826 371.425178 
L 164.384755 370.839316 
L 165.056527 370.839316 
L 165.091339 370.546385 
L 165.204109 370.546385 
L 165.204109 370.39992 
L 165.683584 370.39992 
L 165.683584 370.253454 
L 167.576449 370.253454 
L 167.576449 370.106989 
L 168.738712 370.106989 
L 168.738712 369.960523 
L 169.171471 369.960523 
L 169.171471 369.814058 
L 170.033989 369.814058 
L 170.033989 369.374662 
L 173.884749 369.374662 
L 173.884749 369.228196 
L 174.265239 369.228196 
L 174.265239 368.935265 
L 174.530706 368.935265 
L 174.530706 368.7888 
L 175.715564 368.7888 
L 175.715564 368.642334 
L 176.975958 368.642334 
L 176.975958 368.495869 
L 177.094133 368.495869 
L 177.094133 368.349403 
L 178.384063 368.349403 
L 178.437258 365.273629 
L 179.276496 365.273629 
L 179.276496 365.127163 
L 179.72815 365.127163 
L 179.72815 364.834233 
L 181.339678 364.834233 
L 181.339678 364.687767 
L 248.361214 364.687767 
L 248.449994 363.95544 
L 248.538428 363.95544 
L 248.605899 363.369578 
L 248.710774 363.369578 
L 248.741335 362.930182 
L 248.823861 362.930182 
L 248.932279 358.682683 
L 249.110687 358.682683 
L 249.110687 358.536218 
L 263.924467 358.536218 
L 264.012129 357.803891 
L 264.057166 357.803891 
L 264.125275 353.556392 
L 272.900293 353.556392 
L 272.900293 353.409927 
L 273.033687 353.409927 
L 273.131023 349.162429 
L 273.176042 349.162429 
L 273.176042 349.015963 
L 279.398743 349.015963 
L 279.481719 348.723032 
L 279.522279 348.723032 
L 279.570228 344.622 
L 284.444777 344.622 
L 284.552975 344.182603 
L 284.570035 344.182603 
L 284.582181 341.253294 
L 288.631863 341.253294 
L 288.691757 336.566399 
L 292.158685 336.566399 
L 292.164385 333.930021 
L 295.152228 333.930021 
L 295.170542 331.879505 
L 297.82915 331.879505 
L 297.82915 329.682523 
L 300.173132 329.682523 
L 300.208742 326.753214 
L 302.299688 326.753214 
L 302.36236 324.556232 
L 304.316992 324.556232 
L 304.329224 322.798647 
L 306.114489 322.798647 
L 306.139154 321.187527 
L 307.810992 321.187527 
L 307.815355 319.283476 
L 309.33024 319.283476 
L 309.376235 318.404683 
L 310.793519 318.404683 
L 310.836645 316.940028 
L 312.208742 316.940028 
L 312.211098 315.91477 
L 313.502461 315.91477 
L 313.502599 315.182443 
L 314.726661 315.182443 
L 314.726661 314.157185 
L 315.885016 314.157185 
L 315.888073 312.838996 
L 316.992937 312.838996 
L 316.992937 312.253134 
L 318.015125 312.253134 
L 318.046506 310.934945 
L 319.053331 310.934945 
L 319.053331 309.763221 
L 319.988616 309.763221 
L 320.017385 308.298566 
L 320.942155 308.298566 
L 320.942155 308.005636 
L 321.825059 308.005636 
L 321.830716 306.394516 
L 322.685797 306.394516 
L 322.685797 305.222792 
L 323.507646 305.222792 
L 323.509831 304.490465 
L 324.304993 304.490465 
L 324.304993 303.904603 
L 325.071198 303.904603 
L 325.073238 302.732879 
L 325.814355 302.732879 
L 325.816329 301.561155 
L 326.53586 301.561155 
L 326.53586 301.268225 
L 327.233281 301.268225 
L 327.233281 300.828828 
L 327.909909 300.828828 
L 327.909909 300.535897 
L 328.566949 300.535897 
L 328.566949 300.389432 
L 329.205502 300.389432 
L 329.205502 300.096501 
L 330.431118 300.096501 
L 330.431118 299.80357 
L 331.019968 299.80357 
L 331.019968 299.657105 
L 331.593928 299.657105 
L 331.593928 299.510639 
L 332.153731 299.510639 
L 332.153731 299.364174 
L 332.700058 299.364174 
L 332.700058 299.071243 
L 333.233543 299.071243 
L 333.233543 298.778312 
L 333.754777 298.778312 
L 333.754777 298.485381 
L 334.264309 298.485381 
L 334.264309 297.899519 
L 334.759454 297.899519 
L 334.762653 297.606588 
L 335.72767 297.606588 
L 335.72767 297.460123 
L 336.195216 297.460123 
L 336.195216 297.313657 
L 336.639507 297.313657 
L 336.639507 297.167192 
L 337.102322 297.167192 
L 337.102322 297.020726 
L 337.529417 297.020726 
L 337.529417 296.874261 
L 340.406782 296.874261 
L 340.406782 296.434865 
L 341.162832 296.434865 
L 341.162832 296.288399 
L 342.603331 296.288399 
L 342.603331 296.141934 
L 342.949611 296.141934 
L 342.949611 295.995468 
L 344.2842 295.995468 
L 344.2842 295.849003 
L 345.236042 295.849003 
L 345.236042 295.556072 
L 420.36 295.556072 
L 420.36 295.556072 
" style="fill:none;stroke:#6495ed;stroke-linecap:square;stroke-width:1.5;"/>
   </g>
   <g id="line2d_23">
    <defs>
     <path d="M -0 6 
L 6 -6 
L -6 -6 
z
" id="mb94954a978" style="stroke:#6495ed;stroke-linejoin:miter;stroke-width:1.5;"/>
    </defs>
    <g>
     <use style="fill:none;stroke:#6495ed;stroke-linejoin:miter;stroke-width:1.5;" x="181.33967818590133" xlink:href="#mb94954a978" y="364.83423251469003"/>
     <use style="fill:none;stroke:#6495ed;stroke-linejoin:miter;stroke-width:1.5;" x="273.1760418146151" xlink:href="#mb94954a978" y="349.1624287122946"/>
     <use style="fill:none;stroke:#6495ed;stroke-linejoin:miter;stroke-width:1.5;" x="345.23604240569534" xlink:href="#mb94954a978" y="295.84900269293087"/>
     <use style="fill:none;stroke:#6495ed;stroke-linejoin:miter;stroke-width:1.5;" x="345.23604240569534" xlink:href="#mb94954a978" y="295.5560717807366"/>
     <use style="fill:none;stroke:#6495ed;stroke-linejoin:miter;stroke-width:1.5;" x="420.3599999999999" xlink:href="#mb94954a978" y="295.5560717807366"/>
    </g>
   </g>
   <g id="line2d_24">
    <path d="M -15676.38 758.386913 
" style="fill:none;stroke:#6495ed;stroke-linecap:square;stroke-width:1.5;"/>
    <g>
     <use style="fill:none;stroke:#6495ed;stroke-linejoin:miter;stroke-width:1.5;" x="-15676.379999999994" xlink:href="#mb94954a978" y="758.3869130477403"/>
    </g>
   </g>
   <g id="line2d_25">
    <path clip-path="url(#p1e71d0baf0)" d="M 247.840191 364.687767 
" style="fill:none;stroke:#6495ed;stroke-linecap:square;"/>
    <defs>
     <path d="M -12 12 
L 12 -12 
M -12 -12 
L 12 12 
" id="m05e0d5c815" style="stroke:#6495ed;"/>
    </defs>
    <g clip-path="url(#p1e71d0baf0)">
     <use style="fill:#6495ed;stroke:#6495ed;" x="247.84019088632687" xlink:href="#m05e0d5c815" y="364.68776705859284"/>
    </g>
   </g>
   <g id="line2d_26">
    <path d="M 420.36 295.556072 
L 460.60185 377.430262 
" style="fill:none;stroke:#6495ed;stroke-linecap:square;stroke-width:1.5;"/>
    <g>
     <use style="fill:none;stroke:#6495ed;stroke-linejoin:miter;stroke-width:1.5;" x="420.3599999999999" xlink:href="#mb94954a978" y="295.5560717807366"/>
     <use style="fill:none;stroke:#6495ed;stroke-linejoin:miter;stroke-width:1.5;" x="460.60184999999996" xlink:href="#mb94954a978" y="377.4302617390452"/>
    </g>
   </g>
   <g id="line2d_27">
    <path d="M 420.36 292.626763 
L 460.60185 287.793403 
" style="fill:none;stroke:#ff00ff;stroke-linecap:square;stroke-width:1.5;"/>
    <g>
     <use style="fill:none;stroke:#ff00ff;stroke-linejoin:miter;stroke-width:1.5;" x="420.3599999999999" xlink:href="#m8313d22931" y="292.6267626587935"/>
     <use style="fill:none;stroke:#ff00ff;stroke-linejoin:miter;stroke-width:1.5;" x="460.60184999999996" xlink:href="#m8313d22931" y="287.7934026075875"/>
    </g>
   </g>
   <g id="line2d_28">
    <path d="M 420.36 292.626763 
L 460.60185 198.156543 
" style="fill:none;stroke:#000080;stroke-linecap:square;stroke-width:1.5;"/>
    <g>
     <use style="fill:none;stroke:#000080;stroke-width:1.5;" x="420.3599999999999" xlink:href="#mc3bb413956" y="292.6267626587935"/>
     <use style="fill:none;stroke:#000080;stroke-width:1.5;" x="460.60184999999996" xlink:href="#mc3bb413956" y="198.15654347612977"/>
    </g>
   </g>
   <g id="line2d_29">
    <path d="M 420.36 292.626763 
L 460.60185 108.519684 
" style="fill:none;stroke:#ffa500;stroke-linecap:square;stroke-width:1.5;"/>
    <g>
     <use style="fill:none;stroke:#ffa500;stroke-linejoin:bevel;stroke-width:1.5;" x="420.3599999999999" xlink:href="#md7fac22fd8" y="292.6267626587935"/>
     <use style="fill:none;stroke:#ffa500;stroke-linejoin:bevel;stroke-width:1.5;" x="460.60184999999996" xlink:href="#md7fac22fd8" y="108.5196843446721"/>
    </g>
   </g>
   <g id="line2d_30">
    <path d="M 420.36 384.9 
L 420.36 11.413087 
" style="fill:none;stroke:#000000;stroke-linecap:square;"/>
   </g>
   <g id="patch_3">
    <path d="M 420.36 384.9 
L 420.36 7.678218 
" style="fill:none;stroke:#000000;stroke-linecap:square;stroke-linejoin:miter;"/>
   </g>
   <g id="patch_4">
    <path d="M 54.525 7.678218 
L 420.36 7.678218 
" style="fill:none;stroke:#000000;stroke-linecap:square;stroke-linejoin:miter;"/>
   </g>
   <g id="patch_5">
    <path d="M 54.525 384.9 
L 420.36 384.9 
" style="fill:none;stroke:#000000;stroke-linecap:square;stroke-linejoin:miter;"/>
   </g>
   <g id="patch_6">
    <path d="M 54.525 384.9 
L 54.525 7.678218 
" style="fill:none;stroke:#000000;stroke-linecap:square;stroke-linejoin:miter;"/>
   </g>
   <g id="matplotlib.axis_1">
    <g id="xtick_1">
     <g id="line2d_31">
      <path clip-path="url(#p1e71d0baf0)" d="M 54.525 384.9 
L 54.525 7.678218 
" style="fill:none;stroke:#000000;stroke-dasharray:1.000000,3.000000;stroke-dashoffset:0.0;stroke-width:0.5;"/>
     </g>
     <g id="line2d_32">
      <defs>
       <path d="M 0 0 
L 0 -4 
" id="ma341943eda" style="stroke:#000000;stroke-width:0.5;"/>
      </defs>
      <g>
       <use style="stroke:#000000;stroke-width:0.5;" x="54.52500000000001" xlink:href="#ma341943eda" y="384.9"/>
      </g>
     </g>
     <g id="line2d_33">
      <defs>
       <path d="M 0 0 
L 0 4 
" id="m807f0bcca0" style="stroke:#000000;stroke-width:0.5;"/>
      </defs>
      <g>
       <use style="stroke:#000000;stroke-width:0.5;" x="54.52500000000001" xlink:href="#m807f0bcca0" y="7.678217821782141"/>
      </g>
     </g>
     <g id="text_1">
      <!-- 0 -->
      <defs>
       <path d="M 31.78125 66.40625 
Q 24.171875 66.40625 20.328125 58.90625 
Q 16.5 51.421875 16.5 36.375 
Q 16.5 21.390625 20.328125 13.890625 
Q 24.171875 6.390625 31.78125 6.390625 
Q 39.453125 6.390625 43.28125 13.890625 
Q 47.125 21.390625 47.125 36.375 
Q 47.125 51.421875 43.28125 58.90625 
Q 39.453125 66.40625 31.78125 66.40625 
M 31.78125 74.21875 
Q 44.046875 74.21875 50.515625 64.515625 
Q 56.984375 54.828125 56.984375 36.375 
Q 56.984375 17.96875 50.515625 8.265625 
Q 44.046875 -1.421875 31.78125 -1.421875 
Q 19.53125 -1.421875 13.0625 8.265625 
Q 6.59375 17.96875 6.59375 36.375 
Q 6.59375 54.828125 13.0625 64.515625 
Q 19.53125 74.21875 31.78125 74.21875 
" id="BitstreamVeraSans-Roman-30"/>
      </defs>
      <g transform="translate(48.16250000000001 404.09687499999995)scale(0.2 -0.2)">
       <use xlink:href="#BitstreamVeraSans-Roman-30"/>
      </g>
     </g>
    </g>
    <g id="xtick_2">
     <g id="line2d_34">
      <path clip-path="url(#p1e71d0baf0)" d="M 159.049286 384.9 
L 159.049286 7.678218 
" style="fill:none;stroke:#000000;stroke-dasharray:1.000000,3.000000;stroke-dashoffset:0.0;stroke-width:0.5;"/>
     </g>
     <g id="line2d_35">
      <g>
       <use style="stroke:#000000;stroke-width:0.5;" x="159.0492857142857" xlink:href="#ma341943eda" y="384.9"/>
      </g>
     </g>
     <g id="line2d_36">
      <g>
       <use style="stroke:#000000;stroke-width:0.5;" x="159.0492857142857" xlink:href="#m807f0bcca0" y="7.678217821782141"/>
      </g>
     </g>
     <g id="text_2">
      <!-- 2 -->
      <defs>
       <path d="M 19.1875 8.296875 
L 53.609375 8.296875 
L 53.609375 0 
L 7.328125 0 
L 7.328125 8.296875 
Q 12.9375 14.109375 22.625 23.890625 
Q 32.328125 33.6875 34.8125 36.53125 
Q 39.546875 41.84375 41.421875 45.53125 
Q 43.3125 49.21875 43.3125 52.78125 
Q 43.3125 58.59375 39.234375 62.25 
Q 35.15625 65.921875 28.609375 65.921875 
Q 23.96875 65.921875 18.8125 64.3125 
Q 13.671875 62.703125 7.8125 59.421875 
L 7.8125 69.390625 
Q 13.765625 71.78125 18.9375 73 
Q 24.125 74.21875 28.421875 74.21875 
Q 39.75 74.21875 46.484375 68.546875 
Q 53.21875 62.890625 53.21875 53.421875 
Q 53.21875 48.921875 51.53125 44.890625 
Q 49.859375 40.875 45.40625 35.40625 
Q 44.1875 33.984375 37.640625 27.21875 
Q 31.109375 20.453125 19.1875 8.296875 
" id="BitstreamVeraSans-Roman-32"/>
      </defs>
      <g transform="translate(152.6867857142857 404.09687499999995)scale(0.2 -0.2)">
       <use xlink:href="#BitstreamVeraSans-Roman-32"/>
      </g>
     </g>
    </g>
    <g id="xtick_3">
     <g id="line2d_37">
      <path clip-path="url(#p1e71d0baf0)" d="M 263.573571 384.9 
L 263.573571 7.678218 
" style="fill:none;stroke:#000000;stroke-dasharray:1.000000,3.000000;stroke-dashoffset:0.0;stroke-width:0.5;"/>
     </g>
     <g id="line2d_38">
      <g>
       <use style="stroke:#000000;stroke-width:0.5;" x="263.57357142857137" xlink:href="#ma341943eda" y="384.9"/>
      </g>
     </g>
     <g id="line2d_39">
      <g>
       <use style="stroke:#000000;stroke-width:0.5;" x="263.57357142857137" xlink:href="#m807f0bcca0" y="7.678217821782141"/>
      </g>
     </g>
     <g id="text_3">
      <!-- 4 -->
      <defs>
       <path d="M 37.796875 64.3125 
L 12.890625 25.390625 
L 37.796875 25.390625 
z
M 35.203125 72.90625 
L 47.609375 72.90625 
L 47.609375 25.390625 
L 58.015625 25.390625 
L 58.015625 17.1875 
L 47.609375 17.1875 
L 47.609375 0 
L 37.796875 0 
L 37.796875 17.1875 
L 4.890625 17.1875 
L 4.890625 26.703125 
z
" id="BitstreamVeraSans-Roman-34"/>
      </defs>
      <g transform="translate(257.21107142857136 404.09687499999995)scale(0.2 -0.2)">
       <use xlink:href="#BitstreamVeraSans-Roman-34"/>
      </g>
     </g>
    </g>
    <g id="xtick_4">
     <g id="line2d_40">
      <path clip-path="url(#p1e71d0baf0)" d="M 368.097857 384.9 
L 368.097857 7.678218 
" style="fill:none;stroke:#000000;stroke-dasharray:1.000000,3.000000;stroke-dashoffset:0.0;stroke-width:0.5;"/>
     </g>
     <g id="line2d_41">
      <g>
       <use style="stroke:#000000;stroke-width:0.5;" x="368.09785714285704" xlink:href="#ma341943eda" y="384.9"/>
      </g>
     </g>
     <g id="line2d_42">
      <g>
       <use style="stroke:#000000;stroke-width:0.5;" x="368.09785714285704" xlink:href="#m807f0bcca0" y="7.678217821782141"/>
      </g>
     </g>
     <g id="text_4">
      <!-- 6 -->
      <defs>
       <path d="M 33.015625 40.375 
Q 26.375 40.375 22.484375 35.828125 
Q 18.609375 31.296875 18.609375 23.390625 
Q 18.609375 15.53125 22.484375 10.953125 
Q 26.375 6.390625 33.015625 6.390625 
Q 39.65625 6.390625 43.53125 10.953125 
Q 47.40625 15.53125 47.40625 23.390625 
Q 47.40625 31.296875 43.53125 35.828125 
Q 39.65625 40.375 33.015625 40.375 
M 52.59375 71.296875 
L 52.59375 62.3125 
Q 48.875 64.0625 45.09375 64.984375 
Q 41.3125 65.921875 37.59375 65.921875 
Q 27.828125 65.921875 22.671875 59.328125 
Q 17.53125 52.734375 16.796875 39.40625 
Q 19.671875 43.65625 24.015625 45.921875 
Q 28.375 48.1875 33.59375 48.1875 
Q 44.578125 48.1875 50.953125 41.515625 
Q 57.328125 34.859375 57.328125 23.390625 
Q 57.328125 12.15625 50.6875 5.359375 
Q 44.046875 -1.421875 33.015625 -1.421875 
Q 20.359375 -1.421875 13.671875 8.265625 
Q 6.984375 17.96875 6.984375 36.375 
Q 6.984375 53.65625 15.1875 63.9375 
Q 23.390625 74.21875 37.203125 74.21875 
Q 40.921875 74.21875 44.703125 73.484375 
Q 48.484375 72.75 52.59375 71.296875 
" id="BitstreamVeraSans-Roman-36"/>
      </defs>
      <g transform="translate(361.735357142857 404.09687499999995)scale(0.2 -0.2)">
       <use xlink:href="#BitstreamVeraSans-Roman-36"/>
      </g>
     </g>
    </g>
    <g id="xtick_5">
     <g id="line2d_43">
      <path clip-path="url(#p1e71d0baf0)" d="M 54.525 384.9 
L 54.525 7.678218 
" style="fill:none;stroke:#000000;stroke-dasharray:1.000000,3.000000;stroke-dashoffset:0.0;stroke-width:0.5;"/>
     </g>
     <g id="line2d_44">
      <defs>
       <path d="M 0 0 
L 0 -2 
" id="m11beb6f502" style="stroke:#000000;stroke-width:0.5;"/>
      </defs>
      <g>
       <use style="stroke:#000000;stroke-width:0.5;" x="54.52500000000001" xlink:href="#m11beb6f502" y="384.9"/>
      </g>
     </g>
     <g id="line2d_45">
      <defs>
       <path d="M 0 0 
L 0 2 
" id="ma880ad6a19" style="stroke:#000000;stroke-width:0.5;"/>
      </defs>
      <g>
       <use style="stroke:#000000;stroke-width:0.5;" x="54.52500000000001" xlink:href="#ma880ad6a19" y="7.678217821782141"/>
      </g>
     </g>
    </g>
    <g id="xtick_6">
     <g id="line2d_46">
      <path clip-path="url(#p1e71d0baf0)" d="M 106.787143 384.9 
L 106.787143 7.678218 
" style="fill:none;stroke:#000000;stroke-dasharray:1.000000,3.000000;stroke-dashoffset:0.0;stroke-width:0.5;"/>
     </g>
     <g id="line2d_47">
      <g>
       <use style="stroke:#000000;stroke-width:0.5;" x="106.78714285714285" xlink:href="#m11beb6f502" y="384.9"/>
      </g>
     </g>
     <g id="line2d_48">
      <g>
       <use style="stroke:#000000;stroke-width:0.5;" x="106.78714285714285" xlink:href="#ma880ad6a19" y="7.678217821782141"/>
      </g>
     </g>
    </g>
    <g id="xtick_7">
     <g id="line2d_49">
      <path clip-path="url(#p1e71d0baf0)" d="M 159.049286 384.9 
L 159.049286 7.678218 
" style="fill:none;stroke:#000000;stroke-dasharray:1.000000,3.000000;stroke-dashoffset:0.0;stroke-width:0.5;"/>
     </g>
     <g id="line2d_50">
      <g>
       <use style="stroke:#000000;stroke-width:0.5;" x="159.0492857142857" xlink:href="#m11beb6f502" y="384.9"/>
      </g>
     </g>
     <g id="line2d_51">
      <g>
       <use style="stroke:#000000;stroke-width:0.5;" x="159.0492857142857" xlink:href="#ma880ad6a19" y="7.678217821782141"/>
      </g>
     </g>
    </g>
    <g id="xtick_8">
     <g id="line2d_52">
      <path clip-path="url(#p1e71d0baf0)" d="M 211.311429 384.9 
L 211.311429 7.678218 
" style="fill:none;stroke:#000000;stroke-dasharray:1.000000,3.000000;stroke-dashoffset:0.0;stroke-width:0.5;"/>
     </g>
     <g id="line2d_53">
      <g>
       <use style="stroke:#000000;stroke-width:0.5;" x="211.31142857142854" xlink:href="#m11beb6f502" y="384.9"/>
      </g>
     </g>
     <g id="line2d_54">
      <g>
       <use style="stroke:#000000;stroke-width:0.5;" x="211.31142857142854" xlink:href="#ma880ad6a19" y="7.678217821782141"/>
      </g>
     </g>
    </g>
    <g id="xtick_9">
     <g id="line2d_55">
      <path clip-path="url(#p1e71d0baf0)" d="M 263.573571 384.9 
L 263.573571 7.678218 
" style="fill:none;stroke:#000000;stroke-dasharray:1.000000,3.000000;stroke-dashoffset:0.0;stroke-width:0.5;"/>
     </g>
     <g id="line2d_56">
      <g>
       <use style="stroke:#000000;stroke-width:0.5;" x="263.57357142857137" xlink:href="#m11beb6f502" y="384.9"/>
      </g>
     </g>
     <g id="line2d_57">
      <g>
       <use style="stroke:#000000;stroke-width:0.5;" x="263.57357142857137" xlink:href="#ma880ad6a19" y="7.678217821782141"/>
      </g>
     </g>
    </g>
    <g id="xtick_10">
     <g id="line2d_58">
      <path clip-path="url(#p1e71d0baf0)" d="M 315.835714 384.9 
L 315.835714 7.678218 
" style="fill:none;stroke:#000000;stroke-dasharray:1.000000,3.000000;stroke-dashoffset:0.0;stroke-width:0.5;"/>
     </g>
     <g id="line2d_59">
      <g>
       <use style="stroke:#000000;stroke-width:0.5;" x="315.83571428571423" xlink:href="#m11beb6f502" y="384.9"/>
      </g>
     </g>
     <g id="line2d_60">
      <g>
       <use style="stroke:#000000;stroke-width:0.5;" x="315.83571428571423" xlink:href="#ma880ad6a19" y="7.678217821782141"/>
      </g>
     </g>
    </g>
    <g id="xtick_11">
     <g id="line2d_61">
      <path clip-path="url(#p1e71d0baf0)" d="M 368.097857 384.9 
L 368.097857 7.678218 
" style="fill:none;stroke:#000000;stroke-dasharray:1.000000,3.000000;stroke-dashoffset:0.0;stroke-width:0.5;"/>
     </g>
     <g id="line2d_62">
      <g>
       <use style="stroke:#000000;stroke-width:0.5;" x="368.09785714285704" xlink:href="#m11beb6f502" y="384.9"/>
      </g>
     </g>
     <g id="line2d_63">
      <g>
       <use style="stroke:#000000;stroke-width:0.5;" x="368.09785714285704" xlink:href="#ma880ad6a19" y="7.678217821782141"/>
      </g>
     </g>
    </g>
    <g id="xtick_12">
     <g id="line2d_64">
      <path clip-path="url(#p1e71d0baf0)" d="M 420.36 384.9 
L 420.36 7.678218 
" style="fill:none;stroke:#000000;stroke-dasharray:1.000000,3.000000;stroke-dashoffset:0.0;stroke-width:0.5;"/>
     </g>
     <g id="line2d_65">
      <g>
       <use style="stroke:#000000;stroke-width:0.5;" x="420.3599999999999" xlink:href="#m11beb6f502" y="384.9"/>
      </g>
     </g>
     <g id="line2d_66">
      <g>
       <use style="stroke:#000000;stroke-width:0.5;" x="420.3599999999999" xlink:href="#ma880ad6a19" y="7.678217821782141"/>
      </g>
     </g>
    </g>
    <g id="text_5">
     <!-- log10(# f-evals / dimension) -->
     <defs>
      <path d="M 4.890625 31.390625 
L 31.203125 31.390625 
L 31.203125 23.390625 
L 4.890625 23.390625 
z
" id="BitstreamVeraSans-Roman-2d"/>
      <path d="M 25.390625 72.90625 
L 33.6875 72.90625 
L 8.296875 -9.28125 
L 0 -9.28125 
z
" id="BitstreamVeraSans-Roman-2f"/>
      <path d="M 9.421875 54.6875 
L 18.40625 54.6875 
L 18.40625 0 
L 9.421875 0 
z
M 9.421875 75.984375 
L 18.40625 75.984375 
L 18.40625 64.59375 
L 9.421875 64.59375 
z
" id="BitstreamVeraSans-Roman-69"/>
      <path d="M 56.203125 29.59375 
L 56.203125 25.203125 
L 14.890625 25.203125 
Q 15.484375 15.921875 20.484375 11.0625 
Q 25.484375 6.203125 34.421875 6.203125 
Q 39.59375 6.203125 44.453125 7.46875 
Q 49.3125 8.734375 54.109375 11.28125 
L 54.109375 2.78125 
Q 49.265625 0.734375 44.1875 -0.34375 
Q 39.109375 -1.421875 33.890625 -1.421875 
Q 20.796875 -1.421875 13.15625 6.1875 
Q 5.515625 13.8125 5.515625 26.8125 
Q 5.515625 40.234375 12.765625 48.109375 
Q 20.015625 56 32.328125 56 
Q 43.359375 56 49.78125 48.890625 
Q 56.203125 41.796875 56.203125 29.59375 
M 47.21875 32.234375 
Q 47.125 39.59375 43.09375 43.984375 
Q 39.0625 48.390625 32.421875 48.390625 
Q 24.90625 48.390625 20.390625 44.140625 
Q 15.875 39.890625 15.1875 32.171875 
z
" id="BitstreamVeraSans-Roman-65"/>
      <path d="M 45.40625 46.390625 
L 45.40625 75.984375 
L 54.390625 75.984375 
L 54.390625 0 
L 45.40625 0 
L 45.40625 8.203125 
Q 42.578125 3.328125 38.25 0.953125 
Q 33.9375 -1.421875 27.875 -1.421875 
Q 17.96875 -1.421875 11.734375 6.484375 
Q 5.515625 14.40625 5.515625 27.296875 
Q 5.515625 40.1875 11.734375 48.09375 
Q 17.96875 56 27.875 56 
Q 33.9375 56 38.25 53.625 
Q 42.578125 51.265625 45.40625 46.390625 
M 14.796875 27.296875 
Q 14.796875 17.390625 18.875 11.75 
Q 22.953125 6.109375 30.078125 6.109375 
Q 37.203125 6.109375 41.296875 11.75 
Q 45.40625 17.390625 45.40625 27.296875 
Q 45.40625 37.203125 41.296875 42.84375 
Q 37.203125 48.484375 30.078125 48.484375 
Q 22.953125 48.484375 18.875 42.84375 
Q 14.796875 37.203125 14.796875 27.296875 
" id="BitstreamVeraSans-Roman-64"/>
      <path d="M 52 44.1875 
Q 55.375 50.25 60.0625 53.125 
Q 64.75 56 71.09375 56 
Q 79.640625 56 84.28125 50.015625 
Q 88.921875 44.046875 88.921875 33.015625 
L 88.921875 0 
L 79.890625 0 
L 79.890625 32.71875 
Q 79.890625 40.578125 77.09375 44.375 
Q 74.3125 48.1875 68.609375 48.1875 
Q 61.625 48.1875 57.5625 43.546875 
Q 53.515625 38.921875 53.515625 30.90625 
L 53.515625 0 
L 44.484375 0 
L 44.484375 32.71875 
Q 44.484375 40.625 41.703125 44.40625 
Q 38.921875 48.1875 33.109375 48.1875 
Q 26.21875 48.1875 22.15625 43.53125 
Q 18.109375 38.875 18.109375 30.90625 
L 18.109375 0 
L 9.078125 0 
L 9.078125 54.6875 
L 18.109375 54.6875 
L 18.109375 46.1875 
Q 21.1875 51.21875 25.484375 53.609375 
Q 29.78125 56 35.6875 56 
Q 41.65625 56 45.828125 52.96875 
Q 50 49.953125 52 44.1875 
" id="BitstreamVeraSans-Roman-6d"/>
      <path d="M 44.28125 53.078125 
L 44.28125 44.578125 
Q 40.484375 46.53125 36.375 47.5 
Q 32.28125 48.484375 27.875 48.484375 
Q 21.1875 48.484375 17.84375 46.4375 
Q 14.5 44.390625 14.5 40.28125 
Q 14.5 37.15625 16.890625 35.375 
Q 19.28125 33.59375 26.515625 31.984375 
L 29.59375 31.296875 
Q 39.15625 29.25 43.1875 25.515625 
Q 47.21875 21.78125 47.21875 15.09375 
Q 47.21875 7.46875 41.1875 3.015625 
Q 35.15625 -1.421875 24.609375 -1.421875 
Q 20.21875 -1.421875 15.453125 -0.5625 
Q 10.6875 0.296875 5.421875 2 
L 5.421875 11.28125 
Q 10.40625 8.6875 15.234375 7.390625 
Q 20.0625 6.109375 24.8125 6.109375 
Q 31.15625 6.109375 34.5625 8.28125 
Q 37.984375 10.453125 37.984375 14.40625 
Q 37.984375 18.0625 35.515625 20.015625 
Q 33.0625 21.96875 24.703125 23.78125 
L 21.578125 24.515625 
Q 13.234375 26.265625 9.515625 29.90625 
Q 5.8125 33.546875 5.8125 39.890625 
Q 5.8125 47.609375 11.28125 51.796875 
Q 16.75 56 26.8125 56 
Q 31.78125 56 36.171875 55.265625 
Q 40.578125 54.546875 44.28125 53.078125 
" id="BitstreamVeraSans-Roman-73"/>
      <path d="M 54.890625 33.015625 
L 54.890625 0 
L 45.90625 0 
L 45.90625 32.71875 
Q 45.90625 40.484375 42.875 44.328125 
Q 39.84375 48.1875 33.796875 48.1875 
Q 26.515625 48.1875 22.3125 43.546875 
Q 18.109375 38.921875 18.109375 30.90625 
L 18.109375 0 
L 9.078125 0 
L 9.078125 54.6875 
L 18.109375 54.6875 
L 18.109375 46.1875 
Q 21.34375 51.125 25.703125 53.5625 
Q 30.078125 56 35.796875 56 
Q 45.21875 56 50.046875 50.171875 
Q 54.890625 44.34375 54.890625 33.015625 
" id="BitstreamVeraSans-Roman-6e"/>
      <path d="M 31 75.875 
Q 24.46875 64.65625 21.28125 53.65625 
Q 18.109375 42.671875 18.109375 31.390625 
Q 18.109375 20.125 21.3125 9.0625 
Q 24.515625 -2 31 -13.1875 
L 23.1875 -13.1875 
Q 15.875 -1.703125 12.234375 9.375 
Q 8.59375 20.453125 8.59375 31.390625 
Q 8.59375 42.28125 12.203125 53.3125 
Q 15.828125 64.359375 23.1875 75.875 
z
" id="BitstreamVeraSans-Roman-28"/>
      <path d="M 8.015625 75.875 
L 15.828125 75.875 
Q 23.140625 64.359375 26.78125 53.3125 
Q 30.421875 42.28125 30.421875 31.390625 
Q 30.421875 20.453125 26.78125 9.375 
Q 23.140625 -1.703125 15.828125 -13.1875 
L 8.015625 -13.1875 
Q 14.5 -2 17.703125 9.0625 
Q 20.90625 20.125 20.90625 31.390625 
Q 20.90625 42.671875 17.703125 53.65625 
Q 14.5 64.65625 8.015625 75.875 
" id="BitstreamVeraSans-Roman-29"/>
      <path d="M 2.984375 54.6875 
L 12.5 54.6875 
L 29.59375 8.796875 
L 46.6875 54.6875 
L 56.203125 54.6875 
L 35.6875 0 
L 23.484375 0 
z
" id="BitstreamVeraSans-Roman-76"/>
      <path d="M 34.28125 27.484375 
Q 23.390625 27.484375 19.1875 25 
Q 14.984375 22.515625 14.984375 16.5 
Q 14.984375 11.71875 18.140625 8.90625 
Q 21.296875 6.109375 26.703125 6.109375 
Q 34.1875 6.109375 38.703125 11.40625 
Q 43.21875 16.703125 43.21875 25.484375 
L 43.21875 27.484375 
z
M 52.203125 31.203125 
L 52.203125 0 
L 43.21875 0 
L 43.21875 8.296875 
Q 40.140625 3.328125 35.546875 0.953125 
Q 30.953125 -1.421875 24.3125 -1.421875 
Q 15.921875 -1.421875 10.953125 3.296875 
Q 6 8.015625 6 15.921875 
Q 6 25.140625 12.171875 29.828125 
Q 18.359375 34.515625 30.609375 34.515625 
L 43.21875 34.515625 
L 43.21875 35.40625 
Q 43.21875 41.609375 39.140625 45 
Q 35.0625 48.390625 27.6875 48.390625 
Q 23 48.390625 18.546875 47.265625 
Q 14.109375 46.140625 10.015625 43.890625 
L 10.015625 52.203125 
Q 14.9375 54.109375 19.578125 55.046875 
Q 24.21875 56 28.609375 56 
Q 40.484375 56 46.34375 49.84375 
Q 52.203125 43.703125 52.203125 31.203125 
" id="BitstreamVeraSans-Roman-61"/>
      <path d="M 9.421875 75.984375 
L 18.40625 75.984375 
L 18.40625 0 
L 9.421875 0 
z
" id="BitstreamVeraSans-Roman-6c"/>
      <path id="BitstreamVeraSans-Roman-20"/>
      <path d="M 51.125 44 
L 36.921875 44 
L 32.8125 27.6875 
L 47.125 27.6875 
z
M 43.796875 71.78125 
L 38.71875 51.515625 
L 52.984375 51.515625 
L 58.109375 71.78125 
L 65.921875 71.78125 
L 60.890625 51.515625 
L 76.125 51.515625 
L 76.125 44 
L 58.984375 44 
L 54.984375 27.6875 
L 70.515625 27.6875 
L 70.515625 20.21875 
L 53.078125 20.21875 
L 48 0 
L 40.1875 0 
L 45.21875 20.21875 
L 30.90625 20.21875 
L 25.875 0 
L 18.015625 0 
L 23.09375 20.21875 
L 7.71875 20.21875 
L 7.71875 27.6875 
L 24.90625 27.6875 
L 29 44 
L 13.28125 44 
L 13.28125 51.515625 
L 30.90625 51.515625 
L 35.890625 71.78125 
z
" id="BitstreamVeraSans-Roman-23"/>
      <path d="M 37.109375 75.984375 
L 37.109375 68.5 
L 28.515625 68.5 
Q 23.6875 68.5 21.796875 66.546875 
Q 19.921875 64.59375 19.921875 59.515625 
L 19.921875 54.6875 
L 34.71875 54.6875 
L 34.71875 47.703125 
L 19.921875 47.703125 
L 19.921875 0 
L 10.890625 0 
L 10.890625 47.703125 
L 2.296875 47.703125 
L 2.296875 54.6875 
L 10.890625 54.6875 
L 10.890625 58.5 
Q 10.890625 67.625 15.140625 71.796875 
Q 19.390625 75.984375 28.609375 75.984375 
z
" id="BitstreamVeraSans-Roman-66"/>
      <path d="M 45.40625 27.984375 
Q 45.40625 37.75 41.375 43.109375 
Q 37.359375 48.484375 30.078125 48.484375 
Q 22.859375 48.484375 18.828125 43.109375 
Q 14.796875 37.75 14.796875 27.984375 
Q 14.796875 18.265625 18.828125 12.890625 
Q 22.859375 7.515625 30.078125 7.515625 
Q 37.359375 7.515625 41.375 12.890625 
Q 45.40625 18.265625 45.40625 27.984375 
M 54.390625 6.78125 
Q 54.390625 -7.171875 48.1875 -13.984375 
Q 42 -20.796875 29.203125 -20.796875 
Q 24.46875 -20.796875 20.265625 -20.09375 
Q 16.0625 -19.390625 12.109375 -17.921875 
L 12.109375 -9.1875 
Q 16.0625 -11.328125 19.921875 -12.34375 
Q 23.78125 -13.375 27.78125 -13.375 
Q 36.625 -13.375 41.015625 -8.765625 
Q 45.40625 -4.15625 45.40625 5.171875 
L 45.40625 9.625 
Q 42.625 4.78125 38.28125 2.390625 
Q 33.9375 0 27.875 0 
Q 17.828125 0 11.671875 7.65625 
Q 5.515625 15.328125 5.515625 27.984375 
Q 5.515625 40.671875 11.671875 48.328125 
Q 17.828125 56 27.875 56 
Q 33.9375 56 38.28125 53.609375 
Q 42.625 51.21875 45.40625 46.390625 
L 45.40625 54.6875 
L 54.390625 54.6875 
z
" id="BitstreamVeraSans-Roman-67"/>
      <path d="M 30.609375 48.390625 
Q 23.390625 48.390625 19.1875 42.75 
Q 14.984375 37.109375 14.984375 27.296875 
Q 14.984375 17.484375 19.15625 11.84375 
Q 23.34375 6.203125 30.609375 6.203125 
Q 37.796875 6.203125 41.984375 11.859375 
Q 46.1875 17.53125 46.1875 27.296875 
Q 46.1875 37.015625 41.984375 42.703125 
Q 37.796875 48.390625 30.609375 48.390625 
M 30.609375 56 
Q 42.328125 56 49.015625 48.375 
Q 55.71875 40.765625 55.71875 27.296875 
Q 55.71875 13.875 49.015625 6.21875 
Q 42.328125 -1.421875 30.609375 -1.421875 
Q 18.84375 -1.421875 12.171875 6.21875 
Q 5.515625 13.875 5.515625 27.296875 
Q 5.515625 40.765625 12.171875 48.375 
Q 18.84375 56 30.609375 56 
" id="BitstreamVeraSans-Roman-6f"/>
      <path d="M 12.40625 8.296875 
L 28.515625 8.296875 
L 28.515625 63.921875 
L 10.984375 60.40625 
L 10.984375 69.390625 
L 28.421875 72.90625 
L 38.28125 72.90625 
L 38.28125 8.296875 
L 54.390625 8.296875 
L 54.390625 0 
L 12.40625 0 
z
" id="BitstreamVeraSans-Roman-31"/>
     </defs>
     <g transform="translate(116.60171874999996 426.17359374999995)scale(0.17 -0.17)">
      <use xlink:href="#BitstreamVeraSans-Roman-6c"/>
      <use x="27.783203125" xlink:href="#BitstreamVeraSans-Roman-6f"/>
      <use x="88.96484375" xlink:href="#BitstreamVeraSans-Roman-67"/>
      <use x="152.44140625" xlink:href="#BitstreamVeraSans-Roman-31"/>
      <use x="216.064453125" xlink:href="#BitstreamVeraSans-Roman-30"/>
      <use x="279.6875" xlink:href="#BitstreamVeraSans-Roman-28"/>
      <use x="318.701171875" xlink:href="#BitstreamVeraSans-Roman-23"/>
      <use x="402.490234375" xlink:href="#BitstreamVeraSans-Roman-20"/>
      <use x="434.27734375" xlink:href="#BitstreamVeraSans-Roman-66"/>
      <use x="469.404296875" xlink:href="#BitstreamVeraSans-Roman-2d"/>
      <use x="505.48828125" xlink:href="#BitstreamVeraSans-Roman-65"/>
      <use x="567.01171875" xlink:href="#BitstreamVeraSans-Roman-76"/>
      <use x="626.19140625" xlink:href="#BitstreamVeraSans-Roman-61"/>
      <use x="687.470703125" xlink:href="#BitstreamVeraSans-Roman-6c"/>
      <use x="715.25390625" xlink:href="#BitstreamVeraSans-Roman-73"/>
      <use x="767.353515625" xlink:href="#BitstreamVeraSans-Roman-20"/>
      <use x="799.140625" xlink:href="#BitstreamVeraSans-Roman-2f"/>
      <use x="832.83203125" xlink:href="#BitstreamVeraSans-Roman-20"/>
      <use x="864.619140625" xlink:href="#BitstreamVeraSans-Roman-64"/>
      <use x="928.095703125" xlink:href="#BitstreamVeraSans-Roman-69"/>
      <use x="955.87890625" xlink:href="#BitstreamVeraSans-Roman-6d"/>
      <use x="1053.291015625" xlink:href="#BitstreamVeraSans-Roman-65"/>
      <use x="1114.814453125" xlink:href="#BitstreamVeraSans-Roman-6e"/>
      <use x="1178.193359375" xlink:href="#BitstreamVeraSans-Roman-73"/>
      <use x="1230.29296875" xlink:href="#BitstreamVeraSans-Roman-69"/>
      <use x="1258.076171875" xlink:href="#BitstreamVeraSans-Roman-6f"/>
      <use x="1319.2578125" xlink:href="#BitstreamVeraSans-Roman-6e"/>
      <use x="1382.63671875" xlink:href="#BitstreamVeraSans-Roman-29"/>
     </g>
    </g>
   </g>
   <g id="matplotlib.axis_2">
    <g id="ytick_1">
     <g id="line2d_67">
      <path clip-path="url(#p1e71d0baf0)" d="M 54.525 384.9 
L 420.36 384.9 
" style="fill:none;stroke:#000000;stroke-dasharray:1.000000,3.000000;stroke-dashoffset:0.0;stroke-width:0.5;"/>
     </g>
     <g id="line2d_68">
      <defs>
       <path d="M 0 0 
L 4 0 
" id="m66b50b39bf" style="stroke:#000000;stroke-width:0.5;"/>
      </defs>
      <g>
       <use style="stroke:#000000;stroke-width:0.5;" x="54.52500000000001" xlink:href="#m66b50b39bf" y="384.9"/>
      </g>
     </g>
     <g id="line2d_69">
      <defs>
       <path d="M 0 0 
L -4 0 
" id="m1bc2555171" style="stroke:#000000;stroke-width:0.5;"/>
      </defs>
      <g>
       <use style="stroke:#000000;stroke-width:0.5;" x="420.35999999999996" xlink:href="#m1bc2555171" y="384.9"/>
      </g>
     </g>
     <g id="text_6">
      <!-- 0.0 -->
      <defs>
       <path d="M 10.6875 12.40625 
L 21 12.40625 
L 21 0 
L 10.6875 0 
z
" id="BitstreamVeraSans-Roman-2e"/>
      </defs>
      <g transform="translate(25.080000000000013 389.315)scale(0.16 -0.16)">
       <use xlink:href="#BitstreamVeraSans-Roman-30"/>
       <use x="63.623046875" xlink:href="#BitstreamVeraSans-Roman-2e"/>
       <use x="95.41015625" xlink:href="#BitstreamVeraSans-Roman-30"/>
      </g>
     </g>
    </g>
    <g id="ytick_2">
     <g id="line2d_70">
      <path clip-path="url(#p1e71d0baf0)" d="M 54.525 310.202617 
L 420.36 310.202617 
" style="fill:none;stroke:#000000;stroke-dasharray:1.000000,3.000000;stroke-dashoffset:0.0;stroke-width:0.5;"/>
     </g>
     <g id="line2d_71">
      <g>
       <use style="stroke:#000000;stroke-width:0.5;" x="54.52500000000001" xlink:href="#m66b50b39bf" y="310.2026173904519"/>
      </g>
     </g>
     <g id="line2d_72">
      <g>
       <use style="stroke:#000000;stroke-width:0.5;" x="420.35999999999996" xlink:href="#m1bc2555171" y="310.2026173904519"/>
      </g>
     </g>
     <g id="text_7">
      <!-- 0.2 -->
      <g transform="translate(25.080000000000013 314.61761739045187)scale(0.16 -0.16)">
       <use xlink:href="#BitstreamVeraSans-Roman-30"/>
       <use x="63.623046875" xlink:href="#BitstreamVeraSans-Roman-2e"/>
       <use x="95.41015625" xlink:href="#BitstreamVeraSans-Roman-32"/>
      </g>
     </g>
    </g>
    <g id="ytick_3">
     <g id="line2d_73">
      <path clip-path="url(#p1e71d0baf0)" d="M 54.525 235.505235 
L 420.36 235.505235 
" style="fill:none;stroke:#000000;stroke-dasharray:1.000000,3.000000;stroke-dashoffset:0.0;stroke-width:0.5;"/>
     </g>
     <g id="line2d_74">
      <g>
       <use style="stroke:#000000;stroke-width:0.5;" x="54.52500000000001" xlink:href="#m66b50b39bf" y="235.5052347809038"/>
      </g>
     </g>
     <g id="line2d_75">
      <g>
       <use style="stroke:#000000;stroke-width:0.5;" x="420.35999999999996" xlink:href="#m1bc2555171" y="235.5052347809038"/>
      </g>
     </g>
     <g id="text_8">
      <!-- 0.4 -->
      <g transform="translate(25.080000000000013 239.9202347809038)scale(0.16 -0.16)">
       <use xlink:href="#BitstreamVeraSans-Roman-30"/>
       <use x="63.623046875" xlink:href="#BitstreamVeraSans-Roman-2e"/>
       <use x="95.41015625" xlink:href="#BitstreamVeraSans-Roman-34"/>
      </g>
     </g>
    </g>
    <g id="ytick_4">
     <g id="line2d_76">
      <path clip-path="url(#p1e71d0baf0)" d="M 54.525 160.807852 
L 420.36 160.807852 
" style="fill:none;stroke:#000000;stroke-dasharray:1.000000,3.000000;stroke-dashoffset:0.0;stroke-width:0.5;"/>
     </g>
     <g id="line2d_77">
      <g>
       <use style="stroke:#000000;stroke-width:0.5;" x="54.52500000000001" xlink:href="#m66b50b39bf" y="160.8078521713557"/>
      </g>
     </g>
     <g id="line2d_78">
      <g>
       <use style="stroke:#000000;stroke-width:0.5;" x="420.35999999999996" xlink:href="#m1bc2555171" y="160.8078521713557"/>
      </g>
     </g>
     <g id="text_9">
      <!-- 0.6 -->
      <g transform="translate(25.080000000000013 165.22285217135573)scale(0.16 -0.16)">
       <use xlink:href="#BitstreamVeraSans-Roman-30"/>
       <use x="63.623046875" xlink:href="#BitstreamVeraSans-Roman-2e"/>
       <use x="95.41015625" xlink:href="#BitstreamVeraSans-Roman-36"/>
      </g>
     </g>
    </g>
    <g id="ytick_5">
     <g id="line2d_79">
      <path clip-path="url(#p1e71d0baf0)" d="M 54.525 86.11047 
L 420.36 86.11047 
" style="fill:none;stroke:#000000;stroke-dasharray:1.000000,3.000000;stroke-dashoffset:0.0;stroke-width:0.5;"/>
     </g>
     <g id="line2d_80">
      <g>
       <use style="stroke:#000000;stroke-width:0.5;" x="54.52500000000001" xlink:href="#m66b50b39bf" y="86.11046956180763"/>
      </g>
     </g>
     <g id="line2d_81">
      <g>
       <use style="stroke:#000000;stroke-width:0.5;" x="420.35999999999996" xlink:href="#m1bc2555171" y="86.11046956180763"/>
      </g>
     </g>
     <g id="text_10">
      <!-- 0.8 -->
      <defs>
       <path d="M 31.78125 34.625 
Q 24.75 34.625 20.71875 30.859375 
Q 16.703125 27.09375 16.703125 20.515625 
Q 16.703125 13.921875 20.71875 10.15625 
Q 24.75 6.390625 31.78125 6.390625 
Q 38.8125 6.390625 42.859375 10.171875 
Q 46.921875 13.96875 46.921875 20.515625 
Q 46.921875 27.09375 42.890625 30.859375 
Q 38.875 34.625 31.78125 34.625 
M 21.921875 38.8125 
Q 15.578125 40.375 12.03125 44.71875 
Q 8.5 49.078125 8.5 55.328125 
Q 8.5 64.0625 14.71875 69.140625 
Q 20.953125 74.21875 31.78125 74.21875 
Q 42.671875 74.21875 48.875 69.140625 
Q 55.078125 64.0625 55.078125 55.328125 
Q 55.078125 49.078125 51.53125 44.71875 
Q 48 40.375 41.703125 38.8125 
Q 48.828125 37.15625 52.796875 32.3125 
Q 56.78125 27.484375 56.78125 20.515625 
Q 56.78125 9.90625 50.3125 4.234375 
Q 43.84375 -1.421875 31.78125 -1.421875 
Q 19.734375 -1.421875 13.25 4.234375 
Q 6.78125 9.90625 6.78125 20.515625 
Q 6.78125 27.484375 10.78125 32.3125 
Q 14.796875 37.15625 21.921875 38.8125 
M 18.3125 54.390625 
Q 18.3125 48.734375 21.84375 45.5625 
Q 25.390625 42.390625 31.78125 42.390625 
Q 38.140625 42.390625 41.71875 45.5625 
Q 45.3125 48.734375 45.3125 54.390625 
Q 45.3125 60.0625 41.71875 63.234375 
Q 38.140625 66.40625 31.78125 66.40625 
Q 25.390625 66.40625 21.84375 63.234375 
Q 18.3125 60.0625 18.3125 54.390625 
" id="BitstreamVeraSans-Roman-38"/>
      </defs>
      <g transform="translate(25.080000000000013 90.52546956180765)scale(0.16 -0.16)">
       <use xlink:href="#BitstreamVeraSans-Roman-30"/>
       <use x="63.623046875" xlink:href="#BitstreamVeraSans-Roman-2e"/>
       <use x="95.41015625" xlink:href="#BitstreamVeraSans-Roman-38"/>
      </g>
     </g>
    </g>
    <g id="ytick_6">
     <g id="line2d_82">
      <path clip-path="url(#p1e71d0baf0)" d="M 54.525 11.413087 
L 420.36 11.413087 
" style="fill:none;stroke:#000000;stroke-dasharray:1.000000,3.000000;stroke-dashoffset:0.0;stroke-width:0.5;"/>
     </g>
     <g id="line2d_83">
      <g>
       <use style="stroke:#000000;stroke-width:0.5;" x="54.52500000000001" xlink:href="#m66b50b39bf" y="11.413086952259562"/>
      </g>
     </g>
     <g id="line2d_84">
      <g>
       <use style="stroke:#000000;stroke-width:0.5;" x="420.35999999999996" xlink:href="#m1bc2555171" y="11.413086952259562"/>
      </g>
     </g>
     <g id="text_11">
      <!-- 1.0 -->
      <g transform="translate(25.080000000000013 15.828086952259582)scale(0.16 -0.16)">
       <use xlink:href="#BitstreamVeraSans-Roman-31"/>
       <use x="63.623046875" xlink:href="#BitstreamVeraSans-Roman-2e"/>
       <use x="95.41015625" xlink:href="#BitstreamVeraSans-Roman-30"/>
      </g>
     </g>
    </g>
    <g id="text_12">
     <!-- Fraction of function,target pairs -->
     <defs>
      <path d="M 11.71875 12.40625 
L 22.015625 12.40625 
L 22.015625 4 
L 14.015625 -11.625 
L 7.71875 -11.625 
L 11.71875 4 
z
" id="BitstreamVeraSans-Roman-2c"/>
      <path d="M 18.3125 70.21875 
L 18.3125 54.6875 
L 36.8125 54.6875 
L 36.8125 47.703125 
L 18.3125 47.703125 
L 18.3125 18.015625 
Q 18.3125 11.328125 20.140625 9.421875 
Q 21.96875 7.515625 27.59375 7.515625 
L 36.8125 7.515625 
L 36.8125 0 
L 27.59375 0 
Q 17.1875 0 13.234375 3.875 
Q 9.28125 7.765625 9.28125 18.015625 
L 9.28125 47.703125 
L 2.6875 47.703125 
L 2.6875 54.6875 
L 9.28125 54.6875 
L 9.28125 70.21875 
z
" id="BitstreamVeraSans-Roman-74"/>
      <path d="M 41.109375 46.296875 
Q 39.59375 47.171875 37.8125 47.578125 
Q 36.03125 48 33.890625 48 
Q 26.265625 48 22.1875 43.046875 
Q 18.109375 38.09375 18.109375 28.8125 
L 18.109375 0 
L 9.078125 0 
L 9.078125 54.6875 
L 18.109375 54.6875 
L 18.109375 46.1875 
Q 20.953125 51.171875 25.484375 53.578125 
Q 30.03125 56 36.53125 56 
Q 37.453125 56 38.578125 55.875 
Q 39.703125 55.765625 41.0625 55.515625 
z
" id="BitstreamVeraSans-Roman-72"/>
      <path d="M 48.78125 52.59375 
L 48.78125 44.1875 
Q 44.96875 46.296875 41.140625 47.34375 
Q 37.3125 48.390625 33.40625 48.390625 
Q 24.65625 48.390625 19.8125 42.84375 
Q 14.984375 37.3125 14.984375 27.296875 
Q 14.984375 17.28125 19.8125 11.734375 
Q 24.65625 6.203125 33.40625 6.203125 
Q 37.3125 6.203125 41.140625 7.25 
Q 44.96875 8.296875 48.78125 10.40625 
L 48.78125 2.09375 
Q 45.015625 0.34375 40.984375 -0.53125 
Q 36.96875 -1.421875 32.421875 -1.421875 
Q 20.0625 -1.421875 12.78125 6.34375 
Q 5.515625 14.109375 5.515625 27.296875 
Q 5.515625 40.671875 12.859375 48.328125 
Q 20.21875 56 33.015625 56 
Q 37.15625 56 41.109375 55.140625 
Q 45.0625 54.296875 48.78125 52.59375 
" id="BitstreamVeraSans-Roman-63"/>
      <path d="M 18.109375 8.203125 
L 18.109375 -20.796875 
L 9.078125 -20.796875 
L 9.078125 54.6875 
L 18.109375 54.6875 
L 18.109375 46.390625 
Q 20.953125 51.265625 25.265625 53.625 
Q 29.59375 56 35.59375 56 
Q 45.5625 56 51.78125 48.09375 
Q 58.015625 40.1875 58.015625 27.296875 
Q 58.015625 14.40625 51.78125 6.484375 
Q 45.5625 -1.421875 35.59375 -1.421875 
Q 29.59375 -1.421875 25.265625 0.953125 
Q 20.953125 3.328125 18.109375 8.203125 
M 48.6875 27.296875 
Q 48.6875 37.203125 44.609375 42.84375 
Q 40.53125 48.484375 33.40625 48.484375 
Q 26.265625 48.484375 22.1875 42.84375 
Q 18.109375 37.203125 18.109375 27.296875 
Q 18.109375 17.390625 22.1875 11.75 
Q 26.265625 6.109375 33.40625 6.109375 
Q 40.53125 6.109375 44.609375 11.75 
Q 48.6875 17.390625 48.6875 27.296875 
" id="BitstreamVeraSans-Roman-70"/>
      <path d="M 9.8125 72.90625 
L 51.703125 72.90625 
L 51.703125 64.59375 
L 19.671875 64.59375 
L 19.671875 43.109375 
L 48.578125 43.109375 
L 48.578125 34.8125 
L 19.671875 34.8125 
L 19.671875 0 
L 9.8125 0 
z
" id="BitstreamVeraSans-Roman-46"/>
      <path d="M 8.5 21.578125 
L 8.5 54.6875 
L 17.484375 54.6875 
L 17.484375 21.921875 
Q 17.484375 14.15625 20.5 10.265625 
Q 23.53125 6.390625 29.59375 6.390625 
Q 36.859375 6.390625 41.078125 11.03125 
Q 45.3125 15.671875 45.3125 23.6875 
L 45.3125 54.6875 
L 54.296875 54.6875 
L 54.296875 0 
L 45.3125 0 
L 45.3125 8.40625 
Q 42.046875 3.421875 37.71875 1 
Q 33.40625 -1.421875 27.6875 -1.421875 
Q 18.265625 -1.421875 13.375 4.4375 
Q 8.5 10.296875 8.5 21.578125 
" id="BitstreamVeraSans-Roman-75"/>
     </defs>
     <g transform="translate(16.544531250000006 331.42848391089103)rotate(-90.0)scale(0.17 -0.17)">
      <use xlink:href="#BitstreamVeraSans-Roman-46"/>
      <use x="57.41015625" xlink:href="#BitstreamVeraSans-Roman-72"/>
      <use x="98.5234375" xlink:href="#BitstreamVeraSans-Roman-61"/>
      <use x="159.802734375" xlink:href="#BitstreamVeraSans-Roman-63"/>
      <use x="214.783203125" xlink:href="#BitstreamVeraSans-Roman-74"/>
      <use x="253.9921875" xlink:href="#BitstreamVeraSans-Roman-69"/>
      <use x="281.775390625" xlink:href="#BitstreamVeraSans-Roman-6f"/>
      <use x="342.95703125" xlink:href="#BitstreamVeraSans-Roman-6e"/>
      <use x="406.3359375" xlink:href="#BitstreamVeraSans-Roman-20"/>
      <use x="438.123046875" xlink:href="#BitstreamVeraSans-Roman-6f"/>
      <use x="499.3046875" xlink:href="#BitstreamVeraSans-Roman-66"/>
      <use x="534.509765625" xlink:href="#BitstreamVeraSans-Roman-20"/>
      <use x="566.296875" xlink:href="#BitstreamVeraSans-Roman-66"/>
      <use x="601.501953125" xlink:href="#BitstreamVeraSans-Roman-75"/>
      <use x="664.880859375" xlink:href="#BitstreamVeraSans-Roman-6e"/>
      <use x="728.259765625" xlink:href="#BitstreamVeraSans-Roman-63"/>
      <use x="783.240234375" xlink:href="#BitstreamVeraSans-Roman-74"/>
      <use x="822.44921875" xlink:href="#BitstreamVeraSans-Roman-69"/>
      <use x="850.232421875" xlink:href="#BitstreamVeraSans-Roman-6f"/>
      <use x="911.4140625" xlink:href="#BitstreamVeraSans-Roman-6e"/>
      <use x="974.79296875" xlink:href="#BitstreamVeraSans-Roman-2c"/>
      <use x="1006.580078125" xlink:href="#BitstreamVeraSans-Roman-74"/>
      <use x="1045.7890625" xlink:href="#BitstreamVeraSans-Roman-61"/>
      <use x="1107.068359375" xlink:href="#BitstreamVeraSans-Roman-72"/>
      <use x="1148.166015625" xlink:href="#BitstreamVeraSans-Roman-67"/>
      <use x="1211.642578125" xlink:href="#BitstreamVeraSans-Roman-65"/>
      <use x="1273.166015625" xlink:href="#BitstreamVeraSans-Roman-74"/>
      <use x="1312.375" xlink:href="#BitstreamVeraSans-Roman-20"/>
      <use x="1344.162109375" xlink:href="#BitstreamVeraSans-Roman-70"/>
      <use x="1407.638671875" xlink:href="#BitstreamVeraSans-Roman-61"/>
      <use x="1468.91796875" xlink:href="#BitstreamVeraSans-Roman-69"/>
      <use x="1496.701171875" xlink:href="#BitstreamVeraSans-Roman-72"/>
      <use x="1537.814453125" xlink:href="#BitstreamVeraSans-Roman-73"/>
     </g>
    </g>
   </g>
   <g id="text_13">
    <!-- DE3-E-fe -->
    <defs>
     <path d="M 19.671875 64.796875 
L 19.671875 8.109375 
L 31.59375 8.109375 
Q 46.6875 8.109375 53.6875 14.9375 
Q 60.6875 21.78125 60.6875 36.53125 
Q 60.6875 51.171875 53.6875 57.984375 
Q 46.6875 64.796875 31.59375 64.796875 
z
M 9.8125 72.90625 
L 30.078125 72.90625 
Q 51.265625 72.90625 61.171875 64.09375 
Q 71.09375 55.28125 71.09375 36.53125 
Q 71.09375 17.671875 61.125 8.828125 
Q 51.171875 0 30.078125 0 
L 9.8125 0 
z
" id="BitstreamVeraSans-Roman-44"/>
     <path d="M 40.578125 39.3125 
Q 47.65625 37.796875 51.625 33 
Q 55.609375 28.21875 55.609375 21.1875 
Q 55.609375 10.40625 48.1875 4.484375 
Q 40.765625 -1.421875 27.09375 -1.421875 
Q 22.515625 -1.421875 17.65625 -0.515625 
Q 12.796875 0.390625 7.625 2.203125 
L 7.625 11.71875 
Q 11.71875 9.328125 16.59375 8.109375 
Q 21.484375 6.890625 26.8125 6.890625 
Q 36.078125 6.890625 40.9375 10.546875 
Q 45.796875 14.203125 45.796875 21.1875 
Q 45.796875 27.640625 41.28125 31.265625 
Q 36.765625 34.90625 28.71875 34.90625 
L 20.21875 34.90625 
L 20.21875 43.015625 
L 29.109375 43.015625 
Q 36.375 43.015625 40.234375 45.921875 
Q 44.09375 48.828125 44.09375 54.296875 
Q 44.09375 59.90625 40.109375 62.90625 
Q 36.140625 65.921875 28.71875 65.921875 
Q 24.65625 65.921875 20.015625 65.03125 
Q 15.375 64.15625 9.8125 62.3125 
L 9.8125 71.09375 
Q 15.4375 72.65625 20.34375 73.4375 
Q 25.25 74.21875 29.59375 74.21875 
Q 40.828125 74.21875 47.359375 69.109375 
Q 53.90625 64.015625 53.90625 55.328125 
Q 53.90625 49.265625 50.4375 45.09375 
Q 46.96875 40.921875 40.578125 39.3125 
" id="BitstreamVeraSans-Roman-33"/>
     <path d="M 9.8125 72.90625 
L 55.90625 72.90625 
L 55.90625 64.59375 
L 19.671875 64.59375 
L 19.671875 43.015625 
L 54.390625 43.015625 
L 54.390625 34.71875 
L 19.671875 34.71875 
L 19.671875 8.296875 
L 56.78125 8.296875 
L 56.78125 0 
L 9.8125 0 
z
" id="BitstreamVeraSans-Roman-45"/>
    </defs>
    <g transform="translate(467.91854999999987 382.12119923904515)scale(0.17 -0.17)">
     <use xlink:href="#BitstreamVeraSans-Roman-44"/>
     <use x="77.001953125" xlink:href="#BitstreamVeraSans-Roman-45"/>
     <use x="140.185546875" xlink:href="#BitstreamVeraSans-Roman-33"/>
     <use x="203.80859375" xlink:href="#BitstreamVeraSans-Roman-2d"/>
     <use x="239.892578125" xlink:href="#BitstreamVeraSans-Roman-45"/>
     <use x="303.076171875" xlink:href="#BitstreamVeraSans-Roman-2d"/>
     <use x="339.16015625" xlink:href="#BitstreamVeraSans-Roman-66"/>
     <use x="374.365234375" xlink:href="#BitstreamVeraSans-Roman-65"/>
    </g>
   </g>
   <g id="text_14">
    <!-- DE3-D -->
    <g transform="translate(467.91854999999987 292.48434010758746)scale(0.17 -0.17)">
     <use xlink:href="#BitstreamVeraSans-Roman-44"/>
     <use x="77.001953125" xlink:href="#BitstreamVeraSans-Roman-45"/>
     <use x="140.185546875" xlink:href="#BitstreamVeraSans-Roman-33"/>
     <use x="203.80859375" xlink:href="#BitstreamVeraSans-Roman-2d"/>
     <use x="239.892578125" xlink:href="#BitstreamVeraSans-Roman-44"/>
    </g>
   </g>
   <g id="text_15">
    <!-- DE3-B -->
    <defs>
     <path d="M 19.671875 34.8125 
L 19.671875 8.109375 
L 35.5 8.109375 
Q 43.453125 8.109375 47.28125 11.40625 
Q 51.125 14.703125 51.125 21.484375 
Q 51.125 28.328125 47.28125 31.5625 
Q 43.453125 34.8125 35.5 34.8125 
z
M 19.671875 64.796875 
L 19.671875 42.828125 
L 34.28125 42.828125 
Q 41.5 42.828125 45.03125 45.53125 
Q 48.578125 48.25 48.578125 53.8125 
Q 48.578125 59.328125 45.03125 62.0625 
Q 41.5 64.796875 34.28125 64.796875 
z
M 9.8125 72.90625 
L 35.015625 72.90625 
Q 46.296875 72.90625 52.390625 68.21875 
Q 58.5 63.53125 58.5 54.890625 
Q 58.5 48.1875 55.375 44.234375 
Q 52.25 40.28125 46.1875 39.3125 
Q 53.46875 37.75 57.5 32.78125 
Q 61.53125 27.828125 61.53125 20.40625 
Q 61.53125 10.640625 54.890625 5.3125 
Q 48.25 0 35.984375 0 
L 9.8125 0 
z
" id="BitstreamVeraSans-Roman-42"/>
    </defs>
    <g transform="translate(467.91854999999987 202.84748097612976)scale(0.17 -0.17)">
     <use xlink:href="#BitstreamVeraSans-Roman-44"/>
     <use x="77.001953125" xlink:href="#BitstreamVeraSans-Roman-45"/>
     <use x="140.185546875" xlink:href="#BitstreamVeraSans-Roman-33"/>
     <use x="203.80859375" xlink:href="#BitstreamVeraSans-Roman-2d"/>
     <use x="239.845703125" xlink:href="#BitstreamVeraSans-Roman-42"/>
    </g>
   </g>
   <g id="text_16">
    <!-- DE3-T-fe -->
    <defs>
     <path d="M -0.296875 72.90625 
L 61.375 72.90625 
L 61.375 64.59375 
L 35.5 64.59375 
L 35.5 0 
L 25.59375 0 
L 25.59375 64.59375 
L -0.296875 64.59375 
z
" id="BitstreamVeraSans-Roman-54"/>
    </defs>
    <g transform="translate(467.91854999999987 113.21062184467212)scale(0.17 -0.17)">
     <use xlink:href="#BitstreamVeraSans-Roman-44"/>
     <use x="77.001953125" xlink:href="#BitstreamVeraSans-Roman-45"/>
     <use x="140.185546875" xlink:href="#BitstreamVeraSans-Roman-33"/>
     <use x="203.80859375" xlink:href="#BitstreamVeraSans-Roman-2d"/>
     <use x="239.751953125" xlink:href="#BitstreamVeraSans-Roman-54"/>
     <use x="300.6953125" xlink:href="#BitstreamVeraSans-Roman-2d"/>
     <use x="336.779296875" xlink:href="#BitstreamVeraSans-Roman-66"/>
     <use x="371.984375" xlink:href="#BitstreamVeraSans-Roman-65"/>
    </g>
   </g>
   <g id="text_17">
    <!-- best 2009 -->
    <defs>
     <path d="M 48.6875 27.296875 
Q 48.6875 37.203125 44.609375 42.84375 
Q 40.53125 48.484375 33.40625 48.484375 
Q 26.265625 48.484375 22.1875 42.84375 
Q 18.109375 37.203125 18.109375 27.296875 
Q 18.109375 17.390625 22.1875 11.75 
Q 26.265625 6.109375 33.40625 6.109375 
Q 40.53125 6.109375 44.609375 11.75 
Q 48.6875 17.390625 48.6875 27.296875 
M 18.109375 46.390625 
Q 20.953125 51.265625 25.265625 53.625 
Q 29.59375 56 35.59375 56 
Q 45.5625 56 51.78125 48.09375 
Q 58.015625 40.1875 58.015625 27.296875 
Q 58.015625 14.40625 51.78125 6.484375 
Q 45.5625 -1.421875 35.59375 -1.421875 
Q 29.59375 -1.421875 25.265625 0.953125 
Q 20.953125 3.328125 18.109375 8.203125 
L 18.109375 0 
L 9.078125 0 
L 9.078125 75.984375 
L 18.109375 75.984375 
z
" id="BitstreamVeraSans-Roman-62"/>
     <path d="M 10.984375 1.515625 
L 10.984375 10.5 
Q 14.703125 8.734375 18.5 7.8125 
Q 22.3125 6.890625 25.984375 6.890625 
Q 35.75 6.890625 40.890625 13.453125 
Q 46.046875 20.015625 46.78125 33.40625 
Q 43.953125 29.203125 39.59375 26.953125 
Q 35.25 24.703125 29.984375 24.703125 
Q 19.046875 24.703125 12.671875 31.3125 
Q 6.296875 37.9375 6.296875 49.421875 
Q 6.296875 60.640625 12.9375 67.421875 
Q 19.578125 74.21875 30.609375 74.21875 
Q 43.265625 74.21875 49.921875 64.515625 
Q 56.59375 54.828125 56.59375 36.375 
Q 56.59375 19.140625 48.40625 8.859375 
Q 40.234375 -1.421875 26.421875 -1.421875 
Q 22.703125 -1.421875 18.890625 -0.6875 
Q 15.09375 0.046875 10.984375 1.515625 
M 30.609375 32.421875 
Q 37.25 32.421875 41.125 36.953125 
Q 45.015625 41.5 45.015625 49.421875 
Q 45.015625 57.28125 41.125 61.84375 
Q 37.25 66.40625 30.609375 66.40625 
Q 23.96875 66.40625 20.09375 61.84375 
Q 16.21875 57.28125 16.21875 49.421875 
Q 16.21875 41.5 20.09375 36.953125 
Q 23.96875 32.421875 30.609375 32.421875 
" id="BitstreamVeraSans-Roman-39"/>
    </defs>
    <g transform="translate(467.91854999999987 23.57376271321442)scale(0.17 -0.17)">
     <use xlink:href="#BitstreamVeraSans-Roman-62"/>
     <use x="63.4765625" xlink:href="#BitstreamVeraSans-Roman-65"/>
     <use x="125.0" xlink:href="#BitstreamVeraSans-Roman-73"/>
     <use x="177.099609375" xlink:href="#BitstreamVeraSans-Roman-74"/>
     <use x="216.30859375" xlink:href="#BitstreamVeraSans-Roman-20"/>
     <use x="248.095703125" xlink:href="#BitstreamVeraSans-Roman-32"/>
     <use x="311.71875" xlink:href="#BitstreamVeraSans-Roman-30"/>
     <use x="375.341796875" xlink:href="#BitstreamVeraSans-Roman-30"/>
     <use x="438.96484375" xlink:href="#BitstreamVeraSans-Roman-39"/>
    </g>
   </g>
   <g id="text_18">
    <!-- bbob f1-f5, 20-D -->
    <defs>
     <path d="M 10.796875 72.90625 
L 49.515625 72.90625 
L 49.515625 64.59375 
L 19.828125 64.59375 
L 19.828125 46.734375 
Q 21.96875 47.46875 24.109375 47.828125 
Q 26.265625 48.1875 28.421875 48.1875 
Q 40.625 48.1875 47.75 41.5 
Q 54.890625 34.8125 54.890625 23.390625 
Q 54.890625 11.625 47.5625 5.09375 
Q 40.234375 -1.421875 26.90625 -1.421875 
Q 22.3125 -1.421875 17.546875 -0.640625 
Q 12.796875 0.140625 7.71875 1.703125 
L 7.71875 11.625 
Q 12.109375 9.234375 16.796875 8.0625 
Q 21.484375 6.890625 26.703125 6.890625 
Q 35.15625 6.890625 40.078125 11.328125 
Q 45.015625 15.765625 45.015625 23.390625 
Q 45.015625 31 40.078125 35.4375 
Q 35.15625 39.890625 26.703125 39.890625 
Q 22.75 39.890625 18.8125 39.015625 
Q 14.890625 38.140625 10.796875 36.28125 
z
" id="BitstreamVeraSans-Roman-35"/>
    </defs>
    <g transform="translate(58.18335000000001 19.20084189356436)scale(0.102 -0.102)">
     <use xlink:href="#BitstreamVeraSans-Roman-62"/>
     <use x="63.4765625" xlink:href="#BitstreamVeraSans-Roman-62"/>
     <use x="126.953125" xlink:href="#BitstreamVeraSans-Roman-6f"/>
     <use x="188.134765625" xlink:href="#BitstreamVeraSans-Roman-62"/>
     <use x="251.611328125" xlink:href="#BitstreamVeraSans-Roman-20"/>
     <use x="283.3984375" xlink:href="#BitstreamVeraSans-Roman-66"/>
     <use x="318.603515625" xlink:href="#BitstreamVeraSans-Roman-31"/>
     <use x="382.2265625" xlink:href="#BitstreamVeraSans-Roman-2d"/>
     <use x="418.310546875" xlink:href="#BitstreamVeraSans-Roman-66"/>
     <use x="453.515625" xlink:href="#BitstreamVeraSans-Roman-35"/>
     <use x="517.138671875" xlink:href="#BitstreamVeraSans-Roman-2c"/>
     <use x="548.92578125" xlink:href="#BitstreamVeraSans-Roman-20"/>
     <use x="580.712890625" xlink:href="#BitstreamVeraSans-Roman-32"/>
     <use x="644.3359375" xlink:href="#BitstreamVeraSans-Roman-30"/>
     <use x="707.958984375" xlink:href="#BitstreamVeraSans-Roman-2d"/>
     <use x="744.04296875" xlink:href="#BitstreamVeraSans-Roman-44"/>
    </g>
    <!-- 51 targets: 100..1e-08 -->
    <defs>
     <path d="M 11.71875 12.40625 
L 22.015625 12.40625 
L 22.015625 0 
L 11.71875 0 
z
M 11.71875 51.703125 
L 22.015625 51.703125 
L 22.015625 39.3125 
L 11.71875 39.3125 
z
" id="BitstreamVeraSans-Roman-3a"/>
    </defs>
    <g transform="translate(58.18335000000001 30.622610643564315)scale(0.102 -0.102)">
     <use xlink:href="#BitstreamVeraSans-Roman-35"/>
     <use x="63.623046875" xlink:href="#BitstreamVeraSans-Roman-31"/>
     <use x="127.24609375" xlink:href="#BitstreamVeraSans-Roman-20"/>
     <use x="159.033203125" xlink:href="#BitstreamVeraSans-Roman-74"/>
     <use x="198.2421875" xlink:href="#BitstreamVeraSans-Roman-61"/>
     <use x="259.521484375" xlink:href="#BitstreamVeraSans-Roman-72"/>
     <use x="300.619140625" xlink:href="#BitstreamVeraSans-Roman-67"/>
     <use x="364.095703125" xlink:href="#BitstreamVeraSans-Roman-65"/>
     <use x="425.619140625" xlink:href="#BitstreamVeraSans-Roman-74"/>
     <use x="464.828125" xlink:href="#BitstreamVeraSans-Roman-73"/>
     <use x="516.927734375" xlink:href="#BitstreamVeraSans-Roman-3a"/>
     <use x="550.619140625" xlink:href="#BitstreamVeraSans-Roman-20"/>
     <use x="582.40625" xlink:href="#BitstreamVeraSans-Roman-31"/>
     <use x="646.029296875" xlink:href="#BitstreamVeraSans-Roman-30"/>
     <use x="709.65234375" xlink:href="#BitstreamVeraSans-Roman-30"/>
     <use x="773.275390625" xlink:href="#BitstreamVeraSans-Roman-2e"/>
     <use x="805.0625" xlink:href="#BitstreamVeraSans-Roman-2e"/>
     <use x="836.849609375" xlink:href="#BitstreamVeraSans-Roman-31"/>
     <use x="900.47265625" xlink:href="#BitstreamVeraSans-Roman-65"/>
     <use x="961.99609375" xlink:href="#BitstreamVeraSans-Roman-2d"/>
     <use x="998.080078125" xlink:href="#BitstreamVeraSans-Roman-30"/>
     <use x="1061.703125" xlink:href="#BitstreamVeraSans-Roman-38"/>
    </g>
    <!-- 15 instances -->
    <g transform="translate(58.18335000000001 42.04437939356433)scale(0.102 -0.102)">
     <use xlink:href="#BitstreamVeraSans-Roman-31"/>
     <use x="63.623046875" xlink:href="#BitstreamVeraSans-Roman-35"/>
     <use x="127.24609375" xlink:href="#BitstreamVeraSans-Roman-20"/>
     <use x="159.033203125" xlink:href="#BitstreamVeraSans-Roman-69"/>
     <use x="186.81640625" xlink:href="#BitstreamVeraSans-Roman-6e"/>
     <use x="250.1953125" xlink:href="#BitstreamVeraSans-Roman-73"/>
     <use x="302.294921875" xlink:href="#BitstreamVeraSans-Roman-74"/>
     <use x="341.50390625" xlink:href="#BitstreamVeraSans-Roman-61"/>
     <use x="402.783203125" xlink:href="#BitstreamVeraSans-Roman-6e"/>
     <use x="466.162109375" xlink:href="#BitstreamVeraSans-Roman-63"/>
     <use x="521.142578125" xlink:href="#BitstreamVeraSans-Roman-65"/>
     <use x="582.666015625" xlink:href="#BitstreamVeraSans-Roman-73"/>
    </g>
   </g>
   <g id="text_19">
    <!-- v2.3.3 -->
    <g style="fill:#808080;" transform="translate(221.76124999999996 379.0480946782178)scale(0.1 -0.1)">
     <use xlink:href="#BitstreamVeraSans-Roman-76"/>
     <use x="59.1796875" xlink:href="#BitstreamVeraSans-Roman-32"/>
     <use x="122.802734375" xlink:href="#BitstreamVeraSans-Roman-2e"/>
     <use x="154.58984375" xlink:href="#BitstreamVeraSans-Roman-33"/>
     <use x="218.212890625" xlink:href="#BitstreamVeraSans-Roman-2e"/>
     <use x="250.0" xlink:href="#BitstreamVeraSans-Roman-33"/>
    </g>
   </g>
  </g>
 </g>
 <defs>
  <clipPath id="p1e71d0baf0">
   <rect height="377.22178217821784" width="365.8349999999999" x="54.52500000000001" y="7.678217821782141"/>
  </clipPath>
 </defs>
</svg>
