<?xml version="1.0" encoding="utf-8" standalone="no"?>
<!DOCTYPE svg PUBLIC "-//W3C//DTD SVG 1.1//EN"
  "http://www.w3.org/Graphics/SVG/1.1/DTD/svg11.dtd">
<!-- Created with matplotlib (http://matplotlib.org/) -->
<svg height="432pt" version="1.1" viewBox="0 0 576 432" width="576pt" xmlns="http://www.w3.org/2000/svg" xmlns:xlink="http://www.w3.org/1999/xlink">
 <defs>
  <style type="text/css">
*{stroke-linecap:butt;stroke-linejoin:round;stroke-miterlimit:100000;}
  </style>
 </defs>
 <g id="figure_1">
  <g id="patch_1">
   <path d="M 0 432 
L 576 432 
L 576 0 
L 0 0 
z
" style="fill:#ffffff;"/>
  </g>
  <g id="axes_1">
   <g id="patch_2">
    <path d="M 54.525 384.9 
L 420.36 384.9 
L 420.36 7.678218 
L 54.525 7.678218 
z
" style="fill:#ffffff;"/>
   </g>
   <g id="line2d_1">
    <path d="M -1 381.970691 
L 11.465764 381.970691 
L 11.465764 380.506036 
L 47.995434 380.506036 
L 47.995434 379.041382 
L 71.364871 379.041382 
L 71.364871 377.576727 
L 84.525104 377.576727 
L 84.525104 376.112073 
L 94.226869 376.112073 
L 94.226869 374.647418 
L 102.28287 374.647418 
L 102.28287 373.182764 
L 103.098425 373.182764 
L 103.098425 371.718109 
L 105.261695 371.718109 
L 105.261695 370.253454 
L 105.978507 370.253454 
L 105.978507 368.7888 
L 108.002366 368.7888 
L 108.002366 367.324145 
L 108.847009 367.324145 
L 108.847009 365.859491 
L 110.735389 365.859491 
L 110.830555 362.930182 
L 112.212148 362.930182 
L 112.212148 361.465527 
L 113.345063 361.465527 
L 113.345063 360.000872 
L 114.261403 360.000872 
L 114.261403 358.536218 
L 115.376575 358.536218 
L 115.376575 357.071563 
L 116.290678 357.071563 
L 116.290678 355.606909 
L 117.736846 355.606909 
L 117.736846 354.142254 
L 119.618161 354.142254 
L 119.618161 352.6776 
L 121.652103 352.6776 
L 121.652103 351.212945 
L 123.30043 351.212945 
L 123.30043 349.748291 
L 125.243338 349.748291 
L 125.243338 348.283636 
L 126.705034 348.283636 
L 126.705034 346.818981 
L 127.17207 346.818981 
L 127.17207 345.354327 
L 127.538901 345.354327 
L 127.538901 343.889672 
L 128.122638 343.889672 
L 128.211126 340.960363 
L 131.341048 340.960363 
L 131.341048 339.495709 
L 131.456165 339.495709 
L 131.456165 338.031054 
L 132.060451 338.031054 
L 132.060451 336.566399 
L 132.612721 336.566399 
L 132.612721 335.101745 
L 133.608994 335.101745 
L 133.643779 332.172436 
L 134.429463 332.172436 
L 134.463014 329.243127 
L 134.927592 329.243127 
L 134.927592 327.778472 
L 138.30876 327.778472 
L 138.30876 326.313818 
L 139.196782 326.313818 
L 139.196782 324.849163 
L 140.129856 324.849163 
L 140.129856 323.384508 
L 140.748205 323.384508 
L 140.748205 321.919854 
L 141.718423 321.919854 
L 141.718423 320.455199 
L 143.362162 320.455199 
L 143.362162 318.990545 
L 144.250618 318.990545 
L 144.250618 317.52589 
L 145.60355 317.52589 
L 145.60355 316.061236 
L 146.841521 316.061236 
L 146.841521 314.596581 
L 147.284124 314.596581 
L 147.284124 313.131927 
L 147.792924 313.131927 
L 147.792924 311.667272 
L 148.670218 311.667272 
L 148.670218 310.202617 
L 148.79537 310.202617 
L 148.79537 308.737963 
L 149.806624 308.737963 
L 149.806624 307.273308 
L 150.742033 307.273308 
L 150.742033 305.808654 
L 151.355507 305.808654 
L 151.355507 304.343999 
L 151.656137 304.343999 
L 151.656137 302.879345 
L 151.828382 302.879345 
L 151.828382 301.41469 
L 152.625393 301.41469 
L 152.625393 299.950035 
L 152.954343 299.950035 
L 152.954343 298.485381 
L 153.742113 298.485381 
L 153.742113 297.020726 
L 154.111875 297.020726 
L 154.111875 295.556072 
L 154.30851 295.556072 
L 154.30851 294.091417 
L 154.655462 294.091417 
L 154.655462 292.626763 
L 155.678757 292.626763 
L 155.678757 291.162108 
L 155.823117 291.162108 
L 155.888432 288.232799 
L 157.438716 288.232799 
L 157.438716 286.768144 
L 158.334537 286.768144 
L 158.334537 285.30349 
L 159.286363 285.30349 
L 159.286363 283.838835 
L 159.895794 283.838835 
L 159.895794 282.374181 
L 160.911377 282.374181 
L 160.911377 280.909526 
L 161.088415 280.909526 
L 161.088415 279.444872 
L 161.499606 279.444872 
L 161.499606 277.980217 
L 162.329778 277.980217 
L 162.329778 276.515562 
L 163.102193 276.515562 
L 163.102193 275.050908 
L 163.821612 275.050908 
L 163.821612 273.586253 
L 164.510006 273.586253 
L 164.510006 272.121599 
L 164.995478 272.121599 
L 164.995478 270.656944 
L 166.194596 270.656944 
L 166.285533 267.727635 
L 166.367889 267.727635 
L 166.367889 266.262981 
L 167.048126 266.262981 
L 167.048126 264.798326 
L 167.506191 264.798326 
L 167.506191 263.333671 
L 167.654259 263.333671 
L 167.654259 261.869017 
L 168.493013 261.869017 
L 168.493013 260.404362 
L 168.642239 260.404362 
L 168.642239 258.939708 
L 168.952456 258.939708 
L 168.952456 257.475053 
L 169.402782 257.475053 
L 169.402782 256.010399 
L 169.766629 256.010399 
L 169.823178 253.08109 
L 169.879586 253.08109 
L 169.879586 251.616435 
L 170.387934 251.616435 
L 170.387934 250.15178 
L 170.729663 250.15178 
L 170.729663 248.687126 
L 170.992684 248.687126 
L 170.992684 247.222471 
L 171.562129 247.222471 
L 171.562129 245.757817 
L 171.796324 245.757817 
L 171.796324 244.293162 
L 172.926209 244.293162 
L 172.926209 242.828508 
L 173.061275 242.828508 
L 173.061275 241.363853 
L 174.866714 241.363853 
L 174.866714 239.899198 
L 175.562573 239.899198 
L 175.562573 238.434544 
L 177.252444 238.434544 
L 177.252444 236.969889 
L 178.990758 236.969889 
L 178.990758 235.505235 
L 179.103609 235.505235 
L 179.103609 234.04058 
L 180.984124 234.04058 
L 180.984124 232.575926 
L 181.685562 232.575926 
L 181.685562 231.111271 
L 182.038623 231.111271 
L 182.038623 229.646617 
L 183.203453 229.646617 
L 183.203453 228.181962 
L 184.699595 228.181962 
L 184.699595 226.717307 
L 185.012664 226.717307 
L 185.012664 225.252653 
L 185.264338 225.252653 
L 185.264338 223.787998 
L 185.54859 223.787998 
L 185.54859 222.323344 
L 185.860691 222.323344 
L 185.961467 219.394035 
L 186.16856 219.394035 
L 186.16856 217.92938 
L 187.434759 217.92938 
L 187.434759 216.464725 
L 188.784564 216.464725 
L 188.784564 215.000071 
L 189.019107 215.000071 
L 189.019107 213.535416 
L 189.968669 213.535416 
L 189.991906 210.606107 
L 190.222982 210.606107 
L 190.222982 209.141453 
L 190.565242 209.141453 
L 190.565242 207.676798 
L 191.322441 207.676798 
L 191.374402 204.747489 
L 191.946244 204.747489 
L 191.946244 203.282834 
L 192.118726 203.282834 
L 192.118726 201.81818 
L 192.316128 201.81818 
L 192.316128 200.353525 
L 192.705855 200.353525 
L 192.757317 197.424216 
L 193.343394 197.424216 
L 193.343394 195.959562 
L 193.750484 195.959562 
L 193.750484 194.494907 
L 193.863369 194.494907 
L 193.863369 193.030253 
L 194.505351 193.030253 
L 194.505351 191.565598 
L 194.920354 191.565598 
L 194.920354 190.100943 
L 195.032231 190.100943 
L 195.032231 188.636289 
L 195.180549 188.636289 
L 195.180549 187.171634 
L 195.667303 187.171634 
L 195.667303 185.70698 
L 196.214572 185.70698 
L 196.214572 184.242325 
L 196.86292 184.242325 
L 196.920758 181.313016 
L 197.188737 181.313016 
L 197.188737 179.848361 
L 197.378232 179.848361 
L 197.378232 178.383707 
L 197.910796 178.383707 
L 197.910796 176.919052 
L 198.340894 176.919052 
L 198.340894 175.454398 
L 198.90066 175.454398 
L 198.90066 173.989743 
L 199.31257 173.989743 
L 199.31257 172.525089 
L 199.555794 172.525089 
L 199.555794 171.060434 
L 199.803977 171.060434 
L 199.803977 169.59578 
L 199.927995 169.59578 
L 199.927995 168.131125 
L 200.18699 168.131125 
L 200.249893 165.201816 
L 200.474183 165.201816 
L 200.492469 162.272507 
L 200.743329 162.272507 
L 200.745137 159.343198 
L 201.007535 159.343198 
L 201.007535 157.878543 
L 201.247493 157.878543 
L 201.337488 153.484579 
L 201.386745 153.484579 
L 201.386745 152.019925 
L 201.521655 152.019925 
L 201.521655 150.55527 
L 201.70434 150.55527 
L 201.790818 146.161307 
L 202.039759 146.161307 
L 202.131775 141.767343 
L 202.15557 141.767343 
L 202.15557 140.302688 
L 202.292754 140.302688 
L 202.292754 138.838034 
L 202.517896 138.838034 
L 202.626308 134.44407 
L 202.739171 134.44407 
L 202.739171 132.979416 
L 202.933701 132.979416 
L 203.00254 127.120797 
L 203.121694 127.120797 
L 203.121694 125.656143 
L 203.306528 125.656143 
L 203.374247 121.262179 
L 203.507481 121.262179 
L 203.507481 119.797524 
L 203.644712 119.797524 
L 203.717775 116.868215 
L 203.768463 116.868215 
L 203.836397 113.938906 
L 204.146614 113.938906 
L 204.188589 109.544943 
L 204.352636 109.544943 
L 204.352636 108.080288 
L 204.52469 108.080288 
L 204.52469 106.615633 
L 204.660487 106.615633 
L 204.660487 105.150979 
L 204.947701 105.150979 
L 204.947701 103.686324 
L 205.076518 103.686324 
L 205.094434 100.757015 
L 205.39687 100.757015 
L 205.417478 97.827706 
L 205.565601 97.827706 
L 205.64003 94.898397 
L 205.756292 94.898397 
L 205.767885 90.504433 
L 206.128656 90.504433 
L 206.128656 89.039779 
L 206.36273 89.039779 
L 206.36273 87.575124 
L 206.541266 87.575124 
L 206.541266 86.11047 
L 206.906584 86.11047 
L 206.906584 84.645815 
L 207.086378 84.645815 
L 207.086378 83.18116 
L 207.266115 83.18116 
L 207.266115 81.716506 
L 207.595992 81.716506 
L 207.664062 77.322542 
L 207.719966 77.322542 
L 207.771754 74.393233 
L 207.832686 74.393233 
L 207.927731 69.999269 
L 207.975104 69.999269 
L 208.038116 67.06996 
L 208.087876 67.06996 
L 208.180557 62.675997 
L 208.206597 62.675997 
L 208.300092 58.282033 
L 208.357038 58.282033 
L 208.407395 55.352724 
L 208.469219 55.352724 
L 208.519327 52.423415 
L 208.755525 52.423415 
L 208.755525 50.95876 
L 209.052059 50.95876 
L 209.052059 49.494106 
L 209.845377 49.494106 
L 209.845377 48.029451 
L 210.513375 48.029451 
L 210.513375 46.564796 
L 211.078729 46.564796 
L 211.078729 45.100142 
L 211.84751 45.100142 
L 211.84751 43.635487 
L 212.553528 43.635487 
L 212.553528 42.170833 
L 213.181882 42.170833 
L 213.181882 40.706178 
L 213.749521 40.706178 
L 213.749521 39.241524 
L 214.30331 39.241524 
L 214.30331 37.776869 
L 214.849735 37.776869 
L 214.849735 36.312214 
L 215.371929 36.312214 
L 215.371929 34.84756 
L 215.875882 34.84756 
L 215.875882 33.382905 
L 216.43509 33.382905 
L 216.43509 31.918251 
L 216.961393 31.918251 
L 216.961393 30.453596 
L 217.49911 30.453596 
L 217.49911 28.988942 
L 217.995658 28.988942 
L 217.995658 27.524287 
L 218.478266 27.524287 
L 218.478266 26.059633 
L 218.941096 26.059633 
L 218.941096 24.594978 
L 219.381956 24.594978 
L 219.381956 23.130323 
L 219.760514 23.130323 
L 219.760514 21.665669 
L 220.229599 21.665669 
L 220.229599 20.201014 
L 220.665899 20.201014 
L 220.665899 18.73636 
L 221.108715 18.73636 
L 221.108715 17.271705 
L 221.46048 17.271705 
L 221.46048 15.807051 
L 221.86897 15.807051 
L 221.86897 14.342396 
L 222.237302 14.342396 
L 222.237302 12.877742 
L 222.578347 12.877742 
L 222.578347 11.413087 
L 420.36 11.413087 
L 420.36 11.413087 
" style="fill:none;stroke:#f5deb3;stroke-linecap:square;stroke-width:4.0;"/>
   </g>
   <g id="line2d_2">
    <defs>
     <path d="M -0 7.778175 
L 7.778175 0 
L 0 -7.778175 
L -7.778175 -0 
z
" id="me7c33b9da8" style="stroke:#f5deb3;stroke-linejoin:miter;stroke-width:1.5;"/>
    </defs>
    <g>
     <use style="fill:#f5deb3;stroke:#f5deb3;stroke-linejoin:miter;stroke-width:1.5;" x="115.37657528512851" xlink:href="#me7c33b9da8" y="357.07156334154087"/>
     <use style="fill:#f5deb3;stroke:#f5deb3;stroke-linejoin:miter;stroke-width:1.5;" x="184.69959518269872" xlink:href="#me7c33b9da8" y="228.18196197604615"/>
     <use style="fill:#f5deb3;stroke:#f5deb3;stroke-linejoin:miter;stroke-width:1.5;" x="207.77175418588425" xlink:href="#me7c33b9da8" y="74.39323307403538"/>
     <use style="fill:#f5deb3;stroke:#f5deb3;stroke-linejoin:miter;stroke-width:1.5;" x="222.57834665656156" xlink:href="#me7c33b9da8" y="12.877741513231115"/>
     <use style="fill:#f5deb3;stroke:#f5deb3;stroke-linejoin:miter;stroke-width:1.5;" x="222.57834665656156" xlink:href="#me7c33b9da8" y="11.413086952259562"/>
     <use style="fill:#f5deb3;stroke:#f5deb3;stroke-linejoin:miter;stroke-width:1.5;" x="420.3599999999999" xlink:href="#me7c33b9da8" y="11.413086952259562"/>
    </g>
   </g>
   <g id="line2d_3">
    <path d="M -15676.38 758.386913 
" style="fill:none;stroke:#f5deb3;stroke-linecap:square;stroke-width:4.0;"/>
    <g>
     <use style="fill:#f5deb3;stroke:#f5deb3;stroke-linejoin:miter;stroke-width:1.5;" x="-15676.379999999994" xlink:href="#me7c33b9da8" y="758.3869130477403"/>
    </g>
   </g>
   <g id="line2d_4">
    <path d="M 420.36 11.413087 
L 460.60185 18.882825 
" style="fill:none;stroke:#f5deb3;stroke-linecap:square;stroke-width:4.0;"/>
    <g>
     <use style="fill:#f5deb3;stroke:#f5deb3;stroke-linejoin:miter;stroke-width:1.5;" x="420.3599999999999" xlink:href="#me7c33b9da8" y="11.413086952259562"/>
     <use style="fill:#f5deb3;stroke:#f5deb3;stroke-linejoin:miter;stroke-width:1.5;" x="460.60184999999996" xlink:href="#me7c33b9da8" y="18.882825213214403"/>
    </g>
   </g>
   <g id="line2d_5">
    <defs>
     <path d="M 0 1.5 
C 0.397805 1.5 0.77937 1.341951 1.06066 1.06066 
C 1.341951 0.77937 1.5 0.397805 1.5 0 
C 1.5 -0.397805 1.341951 -0.77937 1.06066 -1.06066 
C 0.77937 -1.341951 0.397805 -1.5 0 -1.5 
C -0.397805 -1.5 -0.77937 -1.341951 -1.06066 -1.06066 
C -1.341951 -0.77937 -1.5 -0.397805 -1.5 0 
C -1.5 0.397805 -1.341951 0.77937 -1.06066 1.06066 
C -0.77937 1.341951 -0.397805 1.5 0 1.5 
z
" id="m942b2e62c3" style="stroke:#f5deb3;stroke-width:0.5;"/>
    </defs>
    <g>
     <use style="fill:#f5deb3;stroke:#f5deb3;stroke-width:0.5;" x="222.57834665656156" xlink:href="#m942b2e62c3" y="11.413086952259562"/>
     <use style="fill:#f5deb3;stroke:#f5deb3;stroke-width:0.5;" x="222.57834665656156" xlink:href="#m942b2e62c3" y="11.413086952259562"/>
    </g>
   </g>
   <g id="line2d_6">
    <defs>
     <path d="M 0 1.5 
C 0.397805 1.5 0.77937 1.341951 1.06066 1.06066 
C 1.341951 0.77937 1.5 0.397805 1.5 0 
C 1.5 -0.397805 1.341951 -0.77937 1.06066 -1.06066 
C 0.77937 -1.341951 0.397805 -1.5 0 -1.5 
C -0.397805 -1.5 -0.77937 -1.341951 -1.06066 -1.06066 
C -1.341951 -0.77937 -1.5 -0.397805 -1.5 0 
C -1.5 0.397805 -1.341951 0.77937 -1.06066 1.06066 
C -0.77937 1.341951 -0.397805 1.5 0 1.5 
z
" id="m5602f09e7f" style="stroke:#000080;stroke-width:0.5;"/>
    </defs>
    <g>
     <use style="fill:#000080;stroke:#000080;stroke-width:0.5;" x="320.11297133967736" xlink:href="#m5602f09e7f" y="367.3241452683416"/>
     <use style="fill:#000080;stroke:#000080;stroke-width:0.5;" x="320.11297133967736" xlink:href="#m5602f09e7f" y="367.3241452683416"/>
    </g>
   </g>
   <g id="line2d_7">
    <path d="M -1 381.67776 
L 30.697019 381.67776 
L 30.697019 381.531295 
L 62.958438 381.531295 
L 62.958438 381.384829 
L 81.964967 381.384829 
L 81.964967 381.091898 
L 85.415303 381.091898 
L 85.415303 380.798967 
L 85.704443 380.798967 
L 85.704443 380.652502 
L 92.162068 380.652502 
L 92.162068 380.506036 
L 100.70704 380.506036 
L 100.70704 380.359571 
L 106.900346 380.359571 
L 106.900346 380.213105 
L 109.155819 380.213105 
L 109.155819 380.06664 
L 115.376575 380.06664 
L 115.376575 379.773709 
L 119.162249 379.773709 
L 119.162249 379.627244 
L 122.003097 379.627244 
L 122.003097 379.480778 
L 125.343768 379.480778 
L 125.343768 379.041382 
L 125.937192 379.041382 
L 125.937192 378.894916 
L 127.125796 378.894916 
L 127.125796 378.748451 
L 133.363996 378.748451 
L 133.363996 378.601985 
L 134.56337 378.601985 
L 134.56337 378.45552 
L 135.221305 378.45552 
L 135.221305 378.309054 
L 136.696276 378.309054 
L 136.696276 378.016124 
L 137.087876 378.016124 
L 137.087876 377.723193 
L 141.571832 377.723193 
L 141.571832 377.576727 
L 143.065761 377.576727 
L 143.065761 377.430262 
L 143.677093 377.430262 
L 143.677093 377.283796 
L 145.06361 377.283796 
L 145.06361 377.137331 
L 145.868778 377.137331 
L 145.868778 376.990865 
L 147.699558 376.990865 
L 147.699558 376.697934 
L 149.549381 376.697934 
L 149.549381 376.405004 
L 150.161936 376.405004 
L 150.161936 376.258538 
L 150.888836 376.258538 
L 150.888836 376.112073 
L 152.549962 376.112073 
L 152.549962 375.965607 
L 153.913521 375.965607 
L 153.913521 375.672676 
L 154.861115 375.672676 
L 154.861115 375.23328 
L 157.27978 375.23328 
L 157.27978 375.086814 
L 163.385204 375.086814 
L 163.385204 374.940349 
L 167.529634 374.940349 
L 167.529634 374.793884 
L 174.662284 374.793884 
L 174.753369 374.354487 
L 174.781758 374.354487 
L 174.781758 374.208022 
L 179.369403 374.208022 
L 179.369403 374.061556 
L 180.714847 374.061556 
L 180.714847 373.915091 
L 188.692523 373.915091 
L 188.692523 373.768625 
L 191.314226 373.768625 
L 191.314226 373.475694 
L 191.516004 373.475694 
L 191.516004 373.329229 
L 204.695449 373.329229 
L 204.695449 372.889833 
L 207.56255 372.889833 
L 207.56255 372.596902 
L 219.585427 372.596902 
L 219.585427 372.450436 
L 226.517512 372.450436 
L 226.517512 372.303971 
L 230.92051 372.303971 
L 230.92051 372.157505 
L 233.026307 372.157505 
L 233.026307 371.864574 
L 239.882978 371.864574 
L 239.882978 371.718109 
L 240.188695 371.718109 
L 240.188695 371.425178 
L 240.424675 371.425178 
L 240.424675 371.278713 
L 240.83847 371.278713 
L 240.83847 370.839316 
L 241.264273 370.839316 
L 241.264273 370.692851 
L 242.731787 370.692851 
L 242.731787 370.39992 
L 246.214442 370.39992 
L 246.214442 370.253454 
L 248.729552 370.253454 
L 248.729552 370.106989 
L 249.456165 370.106989 
L 249.456165 369.960523 
L 249.646455 369.960523 
L 249.646455 369.814058 
L 249.995082 369.814058 
L 249.995082 369.667593 
L 250.272667 369.667593 
L 250.272667 369.521127 
L 260.340206 369.521127 
L 260.340206 369.374662 
L 264.354825 369.374662 
L 264.354825 369.228196 
L 265.018686 369.228196 
L 265.018686 369.081731 
L 265.207337 369.081731 
L 265.207337 368.935265 
L 270.672196 368.935265 
L 270.672196 368.7888 
L 273.075315 368.7888 
L 273.075315 368.642334 
L 277.665118 368.642334 
L 277.665118 368.495869 
L 284.669442 368.495869 
L 284.669442 368.349403 
L 285.037394 368.349403 
L 285.037394 368.202938 
L 289.065527 368.202938 
L 289.065527 368.056473 
L 295.456778 368.056473 
L 295.456778 367.910007 
L 296.996119 367.910007 
L 296.996119 367.763542 
L 300.274885 367.763542 
L 300.274885 367.617076 
L 304.520521 367.617076 
L 304.520521 367.470611 
L 320.112971 367.470611 
L 320.112971 367.324145 
L 420.36 367.324145 
L 420.36 367.324145 
" style="fill:none;stroke:#000080;stroke-linecap:square;stroke-width:1.5;"/>
   </g>
   <g id="line2d_8">
    <defs>
     <path d="M 0 6 
C 1.591219 6 3.117479 5.367802 4.242641 4.242641 
C 5.367802 3.117479 6 1.591219 6 0 
C 6 -1.591219 5.367802 -3.117479 4.242641 -4.242641 
C 3.117479 -5.367802 1.591219 -6 0 -6 
C -1.591219 -6 -3.117479 -5.367802 -4.242641 -4.242641 
C -5.367802 -3.117479 -6 -1.591219 -6 0 
C -6 1.591219 -5.367802 3.117479 -4.242641 4.242641 
C -3.117479 5.367802 -1.591219 6 0 6 
z
" id="ma3734b27da" style="stroke:#000080;stroke-width:1.5;"/>
    </defs>
    <g>
     <use style="fill:none;stroke:#000080;stroke-width:1.5;" x="109.1558188492024" xlink:href="#ma3734b27da" y="380.21310540489105"/>
     <use style="fill:none;stroke:#000080;stroke-width:1.5;" x="191.51600410083807" xlink:href="#ma3734b27da" y="373.32922896832486"/>
     <use style="fill:none;stroke:#000080;stroke-width:1.5;" x="304.52052082687317" xlink:href="#ma3734b27da" y="367.6170761805359"/>
     <use style="fill:none;stroke:#000080;stroke-width:1.5;" x="320.11297133967736" xlink:href="#ma3734b27da" y="367.3241452683416"/>
     <use style="fill:none;stroke:#000080;stroke-width:1.5;" x="320.11297133967736" xlink:href="#ma3734b27da" y="367.3241452683416"/>
     <use style="fill:none;stroke:#000080;stroke-width:1.5;" x="420.3599999999999" xlink:href="#ma3734b27da" y="367.3241452683416"/>
    </g>
   </g>
   <g id="line2d_9">
    <path d="M -15676.38 758.386913 
" style="fill:none;stroke:#000080;stroke-linecap:square;stroke-width:1.5;"/>
    <g>
     <use style="fill:none;stroke:#000080;stroke-width:1.5;" x="-15676.379999999994" xlink:href="#ma3734b27da" y="758.3869130477403"/>
    </g>
   </g>
   <g id="line2d_10">
    <path clip-path="url(#p5840390da6)" d="M 247.839283 370.253454 
" style="fill:none;stroke:#000080;stroke-linecap:square;"/>
    <defs>
     <path d="M -12 12 
L 12 -12 
M -12 -12 
L 12 12 
" id="m00d2887675" style="stroke:#000080;"/>
    </defs>
    <g clip-path="url(#p5840390da6)">
     <use style="fill:#000080;stroke:#000080;" x="247.83928294544006" xlink:href="#m00d2887675" y="370.2534543902847"/>
    </g>
   </g>
   <g id="line2d_11">
    <defs>
     <path d="M 0 1.5 
C 0.397805 1.5 0.77937 1.341951 1.06066 1.06066 
C 1.341951 0.77937 1.5 0.397805 1.5 0 
C 1.5 -0.397805 1.341951 -0.77937 1.06066 -1.06066 
C 0.77937 -1.341951 0.397805 -1.5 0 -1.5 
C -0.397805 -1.5 -0.77937 -1.341951 -1.06066 -1.06066 
C -1.341951 -0.77937 -1.5 -0.397805 -1.5 0 
C -1.5 0.397805 -1.341951 0.77937 -1.06066 1.06066 
C -0.77937 1.341951 -0.397805 1.5 0 1.5 
z
" id="m09d95fc5f9" style="stroke:#ff00ff;stroke-width:0.5;"/>
    </defs>
    <g>
     <use style="fill:#ff00ff;stroke:#ff00ff;stroke-width:0.5;" x="343.4966109704294" xlink:href="#m09d95fc5f9" y="364.3948361463985"/>
     <use style="fill:#ff00ff;stroke:#ff00ff;stroke-width:0.5;" x="343.4966109704294" xlink:href="#m09d95fc5f9" y="364.3948361463985"/>
    </g>
   </g>
   <g id="line2d_12">
    <path d="M -1 381.531295 
L 44.747451 381.531295 
L 44.747451 381.384829 
L 52.133615 381.384829 
L 52.133615 381.091898 
L 90.363333 381.091898 
L 90.363333 380.945433 
L 92.162068 380.945433 
L 92.162068 380.798967 
L 94.02864 380.798967 
L 94.02864 380.506036 
L 98.52893 380.506036 
L 98.52893 380.213105 
L 99.952912 380.213105 
L 99.952912 380.06664 
L 101.292806 380.06664 
L 101.292806 379.627244 
L 108.950413 379.627244 
L 108.950413 379.480778 
L 114.097524 379.480778 
L 114.097524 379.334313 
L 119.358762 379.334313 
L 119.358762 379.187847 
L 130.237497 379.187847 
L 130.237497 379.041382 
L 131.07015 379.041382 
L 131.07015 378.894916 
L 132.685352 378.894916 
L 132.685352 378.748451 
L 133.399158 378.748451 
L 133.399158 378.45552 
L 135.253706 378.45552 
L 135.253706 378.309054 
L 139.628095 378.309054 
L 139.628095 378.162589 
L 139.787747 378.162589 
L 139.787747 378.016124 
L 139.998885 378.016124 
L 139.998885 377.869658 
L 140.874934 377.869658 
L 140.874934 377.723193 
L 144.097628 377.723193 
L 144.097628 377.430262 
L 146.270864 377.430262 
L 146.270864 377.283796 
L 148.180919 377.283796 
L 148.180919 377.137331 
L 152.745564 377.137331 
L 152.745564 376.8444 
L 155.586412 376.8444 
L 155.586412 376.697934 
L 156.44252 376.697934 
L 156.44252 376.405004 
L 156.632668 376.405004 
L 156.632668 375.965607 
L 160.414609 375.965607 
L 160.414609 375.819142 
L 161.499606 375.819142 
L 161.499606 375.672676 
L 164.050369 375.672676 
L 164.050369 375.526211 
L 164.723126 375.526211 
L 164.723126 375.379745 
L 165.316322 375.379745 
L 165.316322 375.23328 
L 166.326748 375.23328 
L 166.326748 374.940349 
L 168.046993 374.940349 
L 168.046993 374.500953 
L 169.524714 374.500953 
L 169.524714 374.354487 
L 172.821286 374.354487 
L 172.821286 374.208022 
L 173.232023 374.208022 
L 173.232023 374.061556 
L 175.959301 374.061556 
L 175.959301 373.768625 
L 181.335427 373.768625 
L 181.335427 373.62216 
L 184.330047 373.62216 
L 184.330047 373.182764 
L 185.937183 373.182764 
L 185.937183 373.036298 
L 188.07867 373.036298 
L 188.07867 372.889833 
L 193.375931 372.889833 
L 193.375931 372.596902 
L 194.409965 372.596902 
L 194.409965 372.450436 
L 196.521472 372.450436 
L 196.521472 372.157505 
L 197.886205 372.157505 
L 197.886205 372.01104 
L 201.393773 372.01104 
L 201.393773 371.864574 
L 202.606332 371.864574 
L 202.606332 371.718109 
L 202.77226 371.718109 
L 202.77226 371.571643 
L 206.804388 371.571643 
L 206.804388 371.425178 
L 208.484649 371.425178 
L 208.484649 370.985782 
L 217.016183 370.985782 
L 217.016183 370.839316 
L 221.372503 370.839316 
L 221.372503 370.546385 
L 221.803303 370.546385 
L 221.803303 370.253454 
L 224.739984 370.253454 
L 224.739984 370.106989 
L 229.173617 370.106989 
L 229.173617 369.960523 
L 236.244916 369.960523 
L 236.244916 369.521127 
L 238.342229 369.521127 
L 238.342229 369.374662 
L 240.494114 369.374662 
L 240.494114 369.228196 
L 245.870479 369.228196 
L 245.870479 368.935265 
L 249.020796 368.935265 
L 249.020796 368.7888 
L 249.899721 368.7888 
L 249.899721 368.642334 
L 250.223266 368.642334 
L 250.248388 368.349403 
L 250.598213 368.349403 
L 250.598213 368.202938 
L 251.286773 368.202938 
L 251.286773 367.910007 
L 258.50757 367.910007 
L 258.50757 367.763542 
L 259.31692 367.763542 
L 259.31692 367.617076 
L 264.579905 367.617076 
L 264.687346 367.324145 
L 264.808686 367.324145 
L 264.808686 367.031214 
L 268.104681 367.031214 
L 268.104681 366.884749 
L 268.33265 366.884749 
L 268.33265 366.738283 
L 270.028825 366.738283 
L 270.028825 366.591818 
L 273.175967 366.591818 
L 273.175967 366.298887 
L 273.52474 366.298887 
L 273.607018 366.005956 
L 277.276863 366.005956 
L 277.276863 365.859491 
L 279.796137 365.859491 
L 279.796137 365.713025 
L 279.93156 365.713025 
L 279.93156 365.56656 
L 284.822324 365.56656 
L 284.822324 365.420094 
L 303.584359 365.420094 
L 303.584359 365.127163 
L 306.341777 365.127163 
L 306.341777 364.980698 
L 311.684896 364.980698 
L 311.684896 364.834233 
L 327.649136 364.834233 
L 327.649136 364.687767 
L 336.014514 364.687767 
L 336.014514 364.541302 
L 343.496611 364.541302 
L 343.496611 364.394836 
L 420.36 364.394836 
L 420.36 364.394836 
" style="fill:none;stroke:#ff00ff;stroke-linecap:square;stroke-width:1.5;"/>
   </g>
   <g id="line2d_13">
    <defs>
     <path d="M -0 8.485281 
L 5.091169 0 
L 0 -8.485281 
L -5.091169 -0 
z
" id="mdec8c0fec9" style="stroke:#ff00ff;stroke-linejoin:miter;stroke-width:1.5;"/>
    </defs>
    <g>
     <use style="fill:none;stroke:#ff00ff;stroke-linejoin:miter;stroke-width:1.5;" x="119.35876203506639" xlink:href="#mdec8c0fec9" y="379.187847212211"/>
     <use style="fill:none;stroke:#ff00ff;stroke-linejoin:miter;stroke-width:1.5;" x="217.01618289250578" xlink:href="#mdec8c0fec9" y="370.83931621467326"/>
     <use style="fill:none;stroke:#ff00ff;stroke-linejoin:miter;stroke-width:1.5;" x="327.6491360754239" xlink:href="#mdec8c0fec9" y="364.68776705859284"/>
     <use style="fill:none;stroke:#ff00ff;stroke-linejoin:miter;stroke-width:1.5;" x="343.4966109704294" xlink:href="#mdec8c0fec9" y="364.3948361463985"/>
     <use style="fill:none;stroke:#ff00ff;stroke-linejoin:miter;stroke-width:1.5;" x="420.3599999999999" xlink:href="#mdec8c0fec9" y="364.3948361463985"/>
    </g>
   </g>
   <g id="line2d_14">
    <path d="M -15676.38 758.386913 
" style="fill:none;stroke:#ff00ff;stroke-linecap:square;stroke-width:1.5;"/>
    <g>
     <use style="fill:none;stroke:#ff00ff;stroke-linejoin:miter;stroke-width:1.5;" x="-15676.379999999994" xlink:href="#mdec8c0fec9" y="758.3869130477403"/>
    </g>
   </g>
   <g id="line2d_15">
    <path clip-path="url(#p5840390da6)" d="M 247.840191 368.935265 
" style="fill:none;stroke:#ff00ff;stroke-linecap:square;"/>
    <defs>
     <path d="M -12 12 
L 12 -12 
M -12 -12 
L 12 12 
" id="m821a71b08e" style="stroke:#ff00ff;"/>
    </defs>
    <g clip-path="url(#p5840390da6)">
     <use style="fill:#ff00ff;stroke:#ff00ff;" x="247.84019088632687" xlink:href="#m821a71b08e" y="368.9352652854103"/>
    </g>
   </g>
   <g id="line2d_16">
    <defs>
     <path d="M 0 1.5 
C 0.397805 1.5 0.77937 1.341951 1.06066 1.06066 
C 1.341951 0.77937 1.5 0.397805 1.5 0 
C 1.5 -0.397805 1.341951 -0.77937 1.06066 -1.06066 
C 0.77937 -1.341951 0.397805 -1.5 0 -1.5 
C -0.397805 -1.5 -0.77937 -1.341951 -1.06066 -1.06066 
C -1.341951 -0.77937 -1.5 -0.397805 -1.5 0 
C -1.5 0.397805 -1.341951 0.77937 -1.06066 1.06066 
C -0.77937 1.341951 -0.397805 1.5 0 1.5 
z
" id="me8ad6d715f" style="stroke:#ffa500;stroke-width:0.5;"/>
    </defs>
    <g>
     <use style="fill:#ffa500;stroke:#ffa500;stroke-width:0.5;" x="293.505603139746" xlink:href="#me8ad6d715f" y="365.85949070737007"/>
     <use style="fill:#ffa500;stroke:#ffa500;stroke-width:0.5;" x="293.505603139746" xlink:href="#me8ad6d715f" y="365.85949070737007"/>
    </g>
   </g>
   <g id="line2d_17">
    <path d="M -1 381.824225 
L 17.99533 381.824225 
L 17.99533 381.67776 
L 42.930709 381.67776 
L 42.930709 381.531295 
L 56.68827 381.531295 
L 56.68827 381.384829 
L 59.589725 381.384829 
L 59.589725 381.238364 
L 79.460379 381.238364 
L 79.460379 381.091898 
L 113.514445 381.091898 
L 113.514445 380.798967 
L 113.766172 380.798967 
L 113.766172 380.652502 
L 128.605108 380.652502 
L 128.605108 380.506036 
L 139.359486 380.506036 
L 139.359486 380.359571 
L 142.695565 380.359571 
L 142.695565 380.213105 
L 143.294105 380.213105 
L 143.294105 379.773709 
L 143.899398 379.773709 
L 143.899398 379.627244 
L 149.096468 379.627244 
L 149.096468 379.334313 
L 155.639227 379.334313 
L 155.639227 378.894916 
L 156.796184 378.894916 
L 156.796184 378.601985 
L 164.267829 378.601985 
L 164.267829 378.309054 
L 164.643441 378.309054 
L 164.643441 378.162589 
L 166.18631 378.162589 
L 166.18631 377.869658 
L 169.481754 377.869658 
L 169.481754 377.576727 
L 179.220569 377.576727 
L 179.220569 377.430262 
L 180.184413 377.430262 
L 180.184413 377.283796 
L 183.637787 377.283796 
L 183.695331 376.8444 
L 184.485991 376.8444 
L 184.485991 376.697934 
L 185.403356 376.697934 
L 185.403356 376.551469 
L 185.67535 376.551469 
L 185.67535 376.258538 
L 186.072152 376.258538 
L 186.072152 376.112073 
L 187.894732 376.112073 
L 187.894732 375.965607 
L 189.400732 375.965607 
L 189.400732 375.819142 
L 192.216325 375.819142 
L 192.216325 375.526211 
L 195.060115 375.526211 
L 195.15975 374.940349 
L 195.392072 374.940349 
L 195.392072 374.793884 
L 195.802553 374.793884 
L 195.802553 374.647418 
L 196.412341 374.647418 
L 196.412341 374.354487 
L 196.804934 374.354487 
L 196.804934 374.061556 
L 197.178163 374.061556 
L 197.178163 373.768625 
L 200.430235 373.768625 
L 200.430235 373.62216 
L 203.165606 373.62216 
L 203.165606 373.475694 
L 203.3388 373.475694 
L 203.3388 373.329229 
L 204.739455 373.329229 
L 204.739455 372.889833 
L 206.881768 372.889833 
L 206.881768 372.743367 
L 207.115068 372.743367 
L 207.115068 372.596902 
L 207.518331 372.596902 
L 207.518331 372.450436 
L 208.850585 372.450436 
L 208.850585 372.303971 
L 209.727646 372.303971 
L 209.727646 372.157505 
L 210.689014 372.157505 
L 210.689014 372.01104 
L 212.32243 372.01104 
L 212.32243 371.718109 
L 212.796121 371.718109 
L 212.796121 371.278713 
L 214.932124 371.278713 
L 214.932124 371.132247 
L 215.18995 371.132247 
L 215.18995 370.839316 
L 215.337741 370.839316 
L 215.371929 370.546385 
L 215.676391 370.546385 
L 215.676391 370.39992 
L 216.103059 370.39992 
L 216.103059 370.106989 
L 216.369797 370.106989 
L 216.369797 369.960523 
L 218.041262 369.960523 
L 218.041262 369.814058 
L 218.659606 369.814058 
L 218.659606 369.374662 
L 218.888328 369.374662 
L 218.888328 369.228196 
L 220.138246 369.228196 
L 220.138246 368.935265 
L 221.365216 368.935265 
L 221.365216 368.7888 
L 223.24745 368.7888 
L 223.24745 368.642334 
L 224.092742 368.642334 
L 224.092742 368.495869 
L 224.876488 368.495869 
L 224.876488 368.349403 
L 227.343224 368.349403 
L 227.343224 367.910007 
L 241.973323 367.910007 
L 241.973323 367.763542 
L 246.802448 367.763542 
L 246.802448 367.617076 
L 252.205874 367.617076 
L 252.205874 367.470611 
L 255.819187 367.470611 
L 255.819187 367.324145 
L 256.393969 367.324145 
L 256.393969 367.17768 
L 267.796897 367.17768 
L 267.897486 366.884749 
L 271.734263 366.884749 
L 271.734263 366.738283 
L 272.888401 366.738283 
L 272.888401 366.591818 
L 275.172061 366.591818 
L 275.172061 366.445353 
L 278.520212 366.445353 
L 278.520212 366.298887 
L 289.270166 366.298887 
L 289.270166 366.152422 
L 292.657092 366.152422 
L 292.657092 366.005956 
L 293.505603 366.005956 
L 293.505603 365.859491 
L 420.36 365.859491 
L 420.36 365.859491 
" style="fill:none;stroke:#ffa500;stroke-linecap:square;stroke-width:1.5;"/>
   </g>
   <g id="line2d_18">
    <defs>
     <path d="M 0 -6 
L -1.347084 -1.854102 
L -5.706339 -1.854102 
L -2.179628 0.708204 
L -3.526712 4.854102 
L -0 2.291796 
L 3.526712 4.854102 
L 2.179628 0.708204 
L 5.706339 -1.854102 
L 1.347084 -1.854102 
z
" id="m38de89e3a3" style="stroke:#ffa500;stroke-linejoin:bevel;stroke-width:1.5;"/>
    </defs>
    <g>
     <use style="fill:none;stroke:#ffa500;stroke-linejoin:bevel;stroke-width:1.5;" x="156.79618397241583" xlink:href="#m38de89e3a3" y="378.8949163000167"/>
     <use style="fill:none;stroke:#ffa500;stroke-linejoin:bevel;stroke-width:1.5;" x="241.97332348773952" xlink:href="#m38de89e3a3" y="367.7635416366331"/>
     <use style="fill:none;stroke:#ffa500;stroke-linejoin:bevel;stroke-width:1.5;" x="293.505603139746" xlink:href="#m38de89e3a3" y="366.0059561634672"/>
     <use style="fill:none;stroke:#ffa500;stroke-linejoin:bevel;stroke-width:1.5;" x="293.505603139746" xlink:href="#m38de89e3a3" y="365.85949070737007"/>
     <use style="fill:none;stroke:#ffa500;stroke-linejoin:bevel;stroke-width:1.5;" x="420.3599999999999" xlink:href="#m38de89e3a3" y="365.85949070737007"/>
    </g>
   </g>
   <g id="line2d_19">
    <path d="M -15676.38 758.386913 
" style="fill:none;stroke:#ffa500;stroke-linecap:square;stroke-width:1.5;"/>
    <g>
     <use style="fill:none;stroke:#ffa500;stroke-linejoin:bevel;stroke-width:1.5;" x="-15676.379999999994" xlink:href="#m38de89e3a3" y="758.3869130477403"/>
    </g>
   </g>
   <g id="line2d_20">
    <path clip-path="url(#p5840390da6)" d="M 247.807482 367.617076 
" style="fill:none;stroke:#ffa500;stroke-linecap:square;"/>
    <defs>
     <path d="M -12 12 
L 12 -12 
M -12 -12 
L 12 12 
" id="m667b87c422" style="stroke:#ffa500;"/>
    </defs>
    <g clip-path="url(#p5840390da6)">
     <use style="fill:#ffa500;stroke:#ffa500;" x="247.80748211123378" xlink:href="#m667b87c422" y="367.6170761805359"/>
    </g>
   </g>
   <g id="line2d_21">
    <defs>
     <path d="M 0 1.5 
C 0.397805 1.5 0.77937 1.341951 1.06066 1.06066 
C 1.341951 0.77937 1.5 0.397805 1.5 0 
C 1.5 -0.397805 1.341951 -0.77937 1.06066 -1.06066 
C 0.77937 -1.341951 0.397805 -1.5 0 -1.5 
C -0.397805 -1.5 -0.77937 -1.341951 -1.06066 -1.06066 
C -1.341951 -0.77937 -1.5 -0.397805 -1.5 0 
C -1.5 0.397805 -1.341951 0.77937 -1.06066 1.06066 
C -0.77937 1.341951 -0.397805 1.5 0 1.5 
z
" id="m985c6787cb" style="stroke:#6495ed;stroke-width:0.5;"/>
    </defs>
    <g>
     <use style="fill:#6495ed;stroke:#6495ed;stroke-width:0.5;" x="311.4941656522066" xlink:href="#m985c6787cb" y="368.7887998293131"/>
     <use style="fill:#6495ed;stroke:#6495ed;stroke-width:0.5;" x="311.4941656522066" xlink:href="#m985c6787cb" y="368.7887998293131"/>
    </g>
   </g>
   <g id="line2d_22">
    <path d="M -1 381.824225 
L 42.930709 381.824225 
L 42.930709 381.531295 
L 47.995434 381.531295 
L 47.995434 381.384829 
L 49.460275 381.384829 
L 49.460275 381.238364 
L 87.365952 381.238364 
L 87.365952 381.091898 
L 97.356122 381.091898 
L 97.356122 380.945433 
L 97.697439 380.945433 
L 97.697439 380.506036 
L 105.017637 380.506036 
L 105.017637 380.359571 
L 113.259895 380.359571 
L 113.259895 380.213105 
L 116.290678 380.213105 
L 116.290678 380.06664 
L 117.097448 380.06664 
L 117.097448 379.920174 
L 126.131601 379.920174 
L 126.131601 379.627244 
L 135.575201 379.627244 
L 135.575201 379.480778 
L 137.057992 379.480778 
L 137.057992 379.334313 
L 143.565119 379.334313 
L 143.565119 379.187847 
L 146.802622 379.187847 
L 146.802622 379.041382 
L 147.015743 379.041382 
L 147.015743 378.748451 
L 147.188638 378.748451 
L 147.188638 378.601985 
L 153.813691 378.601985 
L 153.813691 378.45552 
L 154.14007 378.45552 
L 154.14007 378.309054 
L 156.225076 378.309054 
L 156.225076 378.162589 
L 158.08725 378.162589 
L 158.08725 378.016124 
L 160.446644 378.016124 
L 160.446644 377.869658 
L 161.005275 377.869658 
L 161.005275 377.723193 
L 163.422673 377.723193 
L 163.422673 377.430262 
L 167.978179 377.430262 
L 167.978179 377.283796 
L 168.455553 377.283796 
L 168.455553 376.990865 
L 171.633945 376.990865 
L 171.633945 376.8444 
L 172.232205 376.8444 
L 172.232205 376.697934 
L 178.32589 376.697934 
L 178.32589 376.258538 
L 182.313098 376.258538 
L 182.313098 375.965607 
L 182.844332 375.965607 
L 182.884075 375.526211 
L 186.003037 375.526211 
L 186.003037 375.379745 
L 189.112853 375.379745 
L 189.112853 375.086814 
L 192.250518 375.086814 
L 192.250518 374.940349 
L 194.213161 374.940349 
L 194.213161 374.793884 
L 199.884854 374.793884 
L 199.884854 374.647418 
L 201.870089 374.647418 
L 201.870089 374.500953 
L 202.240349 374.500953 
L 202.240349 374.354487 
L 206.055814 374.354487 
L 206.055814 374.061556 
L 212.148095 374.061556 
L 212.148095 373.915091 
L 223.683245 373.915091 
L 223.683245 373.62216 
L 223.994304 373.62216 
L 223.994304 373.475694 
L 229.616141 373.475694 
L 229.616141 373.329229 
L 233.078561 373.329229 
L 233.078561 373.036298 
L 238.773066 373.036298 
L 238.773066 372.889833 
L 239.002381 372.889833 
L 239.002381 372.743367 
L 240.771007 372.743367 
L 240.771007 372.596902 
L 243.854571 372.596902 
L 243.854571 372.303971 
L 245.221345 372.303971 
L 245.221345 372.157505 
L 248.738498 372.157505 
L 248.738498 371.864574 
L 254.726979 371.864574 
L 254.726979 371.571643 
L 259.475845 371.571643 
L 259.475845 371.425178 
L 260.791478 371.425178 
L 260.791478 371.278713 
L 261.255079 371.278713 
L 261.255079 371.132247 
L 266.809332 371.132247 
L 266.809332 370.985782 
L 274.977202 370.985782 
L 274.977202 370.839316 
L 276.475408 370.839316 
L 276.475408 370.692851 
L 277.715872 370.692851 
L 277.715872 370.546385 
L 281.217376 370.546385 
L 281.217376 370.39992 
L 286.653401 370.39992 
L 286.653401 370.253454 
L 290.423255 370.253454 
L 290.423255 370.106989 
L 293.618511 370.106989 
L 293.655239 369.814058 
L 296.483844 369.814058 
L 296.483844 369.521127 
L 297.793244 369.521127 
L 297.793244 369.374662 
L 301.26246 369.374662 
L 301.26246 369.228196 
L 305.207878 369.228196 
L 305.207878 369.081731 
L 306.950043 369.081731 
L 306.950043 368.935265 
L 311.494166 368.935265 
L 311.494166 368.7888 
L 420.36 368.7888 
L 420.36 368.7888 
" style="fill:none;stroke:#6495ed;stroke-linecap:square;stroke-width:1.5;"/>
   </g>
   <g id="line2d_23">
    <defs>
     <path d="M -0 6 
L 6 -6 
L -6 -6 
z
" id="mac3221b669" style="stroke:#6495ed;stroke-linejoin:miter;stroke-width:1.5;"/>
    </defs>
    <g>
     <use style="fill:none;stroke:#6495ed;stroke-linejoin:miter;stroke-width:1.5;" x="126.13160120727713" xlink:href="#mac3221b669" y="379.9201744926968"/>
     <use style="fill:none;stroke:#6495ed;stroke-linejoin:miter;stroke-width:1.5;" x="212.14809503172074" xlink:href="#mac3221b669" y="373.9150907927135"/>
     <use style="fill:none;stroke:#6495ed;stroke-linejoin:miter;stroke-width:1.5;" x="286.6534009666435" xlink:href="#mac3221b669" y="370.2534543902847"/>
     <use style="fill:none;stroke:#6495ed;stroke-linejoin:miter;stroke-width:1.5;" x="311.4941656522066" xlink:href="#mac3221b669" y="368.7887998293131"/>
     <use style="fill:none;stroke:#6495ed;stroke-linejoin:miter;stroke-width:1.5;" x="311.4941656522066" xlink:href="#mac3221b669" y="368.7887998293131"/>
     <use style="fill:none;stroke:#6495ed;stroke-linejoin:miter;stroke-width:1.5;" x="420.3599999999999" xlink:href="#mac3221b669" y="368.7887998293131"/>
    </g>
   </g>
   <g id="line2d_24">
    <path d="M -15676.38 758.386913 
" style="fill:none;stroke:#6495ed;stroke-linecap:square;stroke-width:1.5;"/>
    <g>
     <use style="fill:none;stroke:#6495ed;stroke-linejoin:miter;stroke-width:1.5;" x="-15676.379999999994" xlink:href="#mac3221b669" y="758.3869130477403"/>
    </g>
   </g>
   <g id="line2d_25">
    <path clip-path="url(#p5840390da6)" d="M 247.81839 372.157505 
" style="fill:none;stroke:#6495ed;stroke-linecap:square;"/>
    <defs>
     <path d="M -12 12 
L 12 -12 
M -12 -12 
L 12 12 
" id="m721e6d08e4" style="stroke:#6495ed;"/>
    </defs>
    <g clip-path="url(#p5840390da6)">
     <use style="fill:#6495ed;stroke:#6495ed;" x="247.8183902744885" xlink:href="#m721e6d08e4" y="372.1575053195477"/>
    </g>
   </g>
   <g id="line2d_26">
    <path d="M 420.36 368.7888 
L 460.60185 377.430262 
" style="fill:none;stroke:#6495ed;stroke-linecap:square;stroke-width:1.5;"/>
    <g>
     <use style="fill:none;stroke:#6495ed;stroke-linejoin:miter;stroke-width:1.5;" x="420.3599999999999" xlink:href="#mac3221b669" y="368.7887998293131"/>
     <use style="fill:none;stroke:#6495ed;stroke-linejoin:miter;stroke-width:1.5;" x="460.60184999999996" xlink:href="#mac3221b669" y="377.4302617390452"/>
    </g>
   </g>
   <g id="line2d_27">
    <path d="M 420.36 367.324145 
L 460.60185 287.793403 
" style="fill:none;stroke:#000080;stroke-linecap:square;stroke-width:1.5;"/>
    <g>
     <use style="fill:none;stroke:#000080;stroke-width:1.5;" x="420.3599999999999" xlink:href="#ma3734b27da" y="367.3241452683416"/>
     <use style="fill:none;stroke:#000080;stroke-width:1.5;" x="460.60184999999996" xlink:href="#ma3734b27da" y="287.7934026075875"/>
    </g>
   </g>
   <g id="line2d_28">
    <path d="M 420.36 365.859491 
L 460.60185 198.156543 
" style="fill:none;stroke:#ffa500;stroke-linecap:square;stroke-width:1.5;"/>
    <g>
     <use style="fill:none;stroke:#ffa500;stroke-linejoin:bevel;stroke-width:1.5;" x="420.3599999999999" xlink:href="#m38de89e3a3" y="365.85949070737007"/>
     <use style="fill:none;stroke:#ffa500;stroke-linejoin:bevel;stroke-width:1.5;" x="460.60184999999996" xlink:href="#m38de89e3a3" y="198.15654347612977"/>
    </g>
   </g>
   <g id="line2d_29">
    <path d="M 420.36 364.394836 
L 460.60185 108.519684 
" style="fill:none;stroke:#ff00ff;stroke-linecap:square;stroke-width:1.5;"/>
    <g>
     <use style="fill:none;stroke:#ff00ff;stroke-linejoin:miter;stroke-width:1.5;" x="420.3599999999999" xlink:href="#mdec8c0fec9" y="364.3948361463985"/>
     <use style="fill:none;stroke:#ff00ff;stroke-linejoin:miter;stroke-width:1.5;" x="460.60184999999996" xlink:href="#mdec8c0fec9" y="108.5196843446721"/>
    </g>
   </g>
   <g id="line2d_30">
    <path d="M 420.36 384.9 
L 420.36 11.413087 
" style="fill:none;stroke:#000000;stroke-linecap:square;"/>
   </g>
   <g id="patch_3">
    <path d="M 54.525 384.9 
L 420.36 384.9 
" style="fill:none;stroke:#000000;stroke-linecap:square;stroke-linejoin:miter;"/>
   </g>
   <g id="patch_4">
    <path d="M 54.525 384.9 
L 54.525 7.678218 
" style="fill:none;stroke:#000000;stroke-linecap:square;stroke-linejoin:miter;"/>
   </g>
   <g id="patch_5">
    <path d="M 420.36 384.9 
L 420.36 7.678218 
" style="fill:none;stroke:#000000;stroke-linecap:square;stroke-linejoin:miter;"/>
   </g>
   <g id="patch_6">
    <path d="M 54.525 7.678218 
L 420.36 7.678218 
" style="fill:none;stroke:#000000;stroke-linecap:square;stroke-linejoin:miter;"/>
   </g>
   <g id="matplotlib.axis_1">
    <g id="xtick_1">
     <g id="line2d_31">
      <path clip-path="url(#p5840390da6)" d="M 54.525 384.9 
L 54.525 7.678218 
" style="fill:none;stroke:#000000;stroke-dasharray:1.000000,3.000000;stroke-dashoffset:0.0;stroke-width:0.5;"/>
     </g>
     <g id="line2d_32">
      <defs>
       <path d="M 0 0 
L 0 -4 
" id="m34a6cbcd8d" style="stroke:#000000;stroke-width:0.5;"/>
      </defs>
      <g>
       <use style="stroke:#000000;stroke-width:0.5;" x="54.52500000000001" xlink:href="#m34a6cbcd8d" y="384.9"/>
      </g>
     </g>
     <g id="line2d_33">
      <defs>
       <path d="M 0 0 
L 0 4 
" id="m6f4acba189" style="stroke:#000000;stroke-width:0.5;"/>
      </defs>
      <g>
       <use style="stroke:#000000;stroke-width:0.5;" x="54.52500000000001" xlink:href="#m6f4acba189" y="7.678217821782141"/>
      </g>
     </g>
     <g id="text_1">
      <!-- 0 -->
      <defs>
       <path d="M 31.78125 66.40625 
Q 24.171875 66.40625 20.328125 58.90625 
Q 16.5 51.421875 16.5 36.375 
Q 16.5 21.390625 20.328125 13.890625 
Q 24.171875 6.390625 31.78125 6.390625 
Q 39.453125 6.390625 43.28125 13.890625 
Q 47.125 21.390625 47.125 36.375 
Q 47.125 51.421875 43.28125 58.90625 
Q 39.453125 66.40625 31.78125 66.40625 
M 31.78125 74.21875 
Q 44.046875 74.21875 50.515625 64.515625 
Q 56.984375 54.828125 56.984375 36.375 
Q 56.984375 17.96875 50.515625 8.265625 
Q 44.046875 -1.421875 31.78125 -1.421875 
Q 19.53125 -1.421875 13.0625 8.265625 
Q 6.59375 17.96875 6.59375 36.375 
Q 6.59375 54.828125 13.0625 64.515625 
Q 19.53125 74.21875 31.78125 74.21875 
" id="BitstreamVeraSans-Roman-30"/>
      </defs>
      <g transform="translate(48.16250000000001 404.09687499999995)scale(0.2 -0.2)">
       <use xlink:href="#BitstreamVeraSans-Roman-30"/>
      </g>
     </g>
    </g>
    <g id="xtick_2">
     <g id="line2d_34">
      <path clip-path="url(#p5840390da6)" d="M 159.049286 384.9 
L 159.049286 7.678218 
" style="fill:none;stroke:#000000;stroke-dasharray:1.000000,3.000000;stroke-dashoffset:0.0;stroke-width:0.5;"/>
     </g>
     <g id="line2d_35">
      <g>
       <use style="stroke:#000000;stroke-width:0.5;" x="159.0492857142857" xlink:href="#m34a6cbcd8d" y="384.9"/>
      </g>
     </g>
     <g id="line2d_36">
      <g>
       <use style="stroke:#000000;stroke-width:0.5;" x="159.0492857142857" xlink:href="#m6f4acba189" y="7.678217821782141"/>
      </g>
     </g>
     <g id="text_2">
      <!-- 2 -->
      <defs>
       <path d="M 19.1875 8.296875 
L 53.609375 8.296875 
L 53.609375 0 
L 7.328125 0 
L 7.328125 8.296875 
Q 12.9375 14.109375 22.625 23.890625 
Q 32.328125 33.6875 34.8125 36.53125 
Q 39.546875 41.84375 41.421875 45.53125 
Q 43.3125 49.21875 43.3125 52.78125 
Q 43.3125 58.59375 39.234375 62.25 
Q 35.15625 65.921875 28.609375 65.921875 
Q 23.96875 65.921875 18.8125 64.3125 
Q 13.671875 62.703125 7.8125 59.421875 
L 7.8125 69.390625 
Q 13.765625 71.78125 18.9375 73 
Q 24.125 74.21875 28.421875 74.21875 
Q 39.75 74.21875 46.484375 68.546875 
Q 53.21875 62.890625 53.21875 53.421875 
Q 53.21875 48.921875 51.53125 44.890625 
Q 49.859375 40.875 45.40625 35.40625 
Q 44.1875 33.984375 37.640625 27.21875 
Q 31.109375 20.453125 19.1875 8.296875 
" id="BitstreamVeraSans-Roman-32"/>
      </defs>
      <g transform="translate(152.6867857142857 404.09687499999995)scale(0.2 -0.2)">
       <use xlink:href="#BitstreamVeraSans-Roman-32"/>
      </g>
     </g>
    </g>
    <g id="xtick_3">
     <g id="line2d_37">
      <path clip-path="url(#p5840390da6)" d="M 263.573571 384.9 
L 263.573571 7.678218 
" style="fill:none;stroke:#000000;stroke-dasharray:1.000000,3.000000;stroke-dashoffset:0.0;stroke-width:0.5;"/>
     </g>
     <g id="line2d_38">
      <g>
       <use style="stroke:#000000;stroke-width:0.5;" x="263.57357142857137" xlink:href="#m34a6cbcd8d" y="384.9"/>
      </g>
     </g>
     <g id="line2d_39">
      <g>
       <use style="stroke:#000000;stroke-width:0.5;" x="263.57357142857137" xlink:href="#m6f4acba189" y="7.678217821782141"/>
      </g>
     </g>
     <g id="text_3">
      <!-- 4 -->
      <defs>
       <path d="M 37.796875 64.3125 
L 12.890625 25.390625 
L 37.796875 25.390625 
z
M 35.203125 72.90625 
L 47.609375 72.90625 
L 47.609375 25.390625 
L 58.015625 25.390625 
L 58.015625 17.1875 
L 47.609375 17.1875 
L 47.609375 0 
L 37.796875 0 
L 37.796875 17.1875 
L 4.890625 17.1875 
L 4.890625 26.703125 
z
" id="BitstreamVeraSans-Roman-34"/>
      </defs>
      <g transform="translate(257.21107142857136 404.09687499999995)scale(0.2 -0.2)">
       <use xlink:href="#BitstreamVeraSans-Roman-34"/>
      </g>
     </g>
    </g>
    <g id="xtick_4">
     <g id="line2d_40">
      <path clip-path="url(#p5840390da6)" d="M 368.097857 384.9 
L 368.097857 7.678218 
" style="fill:none;stroke:#000000;stroke-dasharray:1.000000,3.000000;stroke-dashoffset:0.0;stroke-width:0.5;"/>
     </g>
     <g id="line2d_41">
      <g>
       <use style="stroke:#000000;stroke-width:0.5;" x="368.09785714285704" xlink:href="#m34a6cbcd8d" y="384.9"/>
      </g>
     </g>
     <g id="line2d_42">
      <g>
       <use style="stroke:#000000;stroke-width:0.5;" x="368.09785714285704" xlink:href="#m6f4acba189" y="7.678217821782141"/>
      </g>
     </g>
     <g id="text_4">
      <!-- 6 -->
      <defs>
       <path d="M 33.015625 40.375 
Q 26.375 40.375 22.484375 35.828125 
Q 18.609375 31.296875 18.609375 23.390625 
Q 18.609375 15.53125 22.484375 10.953125 
Q 26.375 6.390625 33.015625 6.390625 
Q 39.65625 6.390625 43.53125 10.953125 
Q 47.40625 15.53125 47.40625 23.390625 
Q 47.40625 31.296875 43.53125 35.828125 
Q 39.65625 40.375 33.015625 40.375 
M 52.59375 71.296875 
L 52.59375 62.3125 
Q 48.875 64.0625 45.09375 64.984375 
Q 41.3125 65.921875 37.59375 65.921875 
Q 27.828125 65.921875 22.671875 59.328125 
Q 17.53125 52.734375 16.796875 39.40625 
Q 19.671875 43.65625 24.015625 45.921875 
Q 28.375 48.1875 33.59375 48.1875 
Q 44.578125 48.1875 50.953125 41.515625 
Q 57.328125 34.859375 57.328125 23.390625 
Q 57.328125 12.15625 50.6875 5.359375 
Q 44.046875 -1.421875 33.015625 -1.421875 
Q 20.359375 -1.421875 13.671875 8.265625 
Q 6.984375 17.96875 6.984375 36.375 
Q 6.984375 53.65625 15.1875 63.9375 
Q 23.390625 74.21875 37.203125 74.21875 
Q 40.921875 74.21875 44.703125 73.484375 
Q 48.484375 72.75 52.59375 71.296875 
" id="BitstreamVeraSans-Roman-36"/>
      </defs>
      <g transform="translate(361.735357142857 404.09687499999995)scale(0.2 -0.2)">
       <use xlink:href="#BitstreamVeraSans-Roman-36"/>
      </g>
     </g>
    </g>
    <g id="xtick_5">
     <g id="line2d_43">
      <path clip-path="url(#p5840390da6)" d="M 54.525 384.9 
L 54.525 7.678218 
" style="fill:none;stroke:#000000;stroke-dasharray:1.000000,3.000000;stroke-dashoffset:0.0;stroke-width:0.5;"/>
     </g>
     <g id="line2d_44">
      <defs>
       <path d="M 0 0 
L 0 -2 
" id="mf886f4a854" style="stroke:#000000;stroke-width:0.5;"/>
      </defs>
      <g>
       <use style="stroke:#000000;stroke-width:0.5;" x="54.52500000000001" xlink:href="#mf886f4a854" y="384.9"/>
      </g>
     </g>
     <g id="line2d_45">
      <defs>
       <path d="M 0 0 
L 0 2 
" id="m6412dd9618" style="stroke:#000000;stroke-width:0.5;"/>
      </defs>
      <g>
       <use style="stroke:#000000;stroke-width:0.5;" x="54.52500000000001" xlink:href="#m6412dd9618" y="7.678217821782141"/>
      </g>
     </g>
    </g>
    <g id="xtick_6">
     <g id="line2d_46">
      <path clip-path="url(#p5840390da6)" d="M 106.787143 384.9 
L 106.787143 7.678218 
" style="fill:none;stroke:#000000;stroke-dasharray:1.000000,3.000000;stroke-dashoffset:0.0;stroke-width:0.5;"/>
     </g>
     <g id="line2d_47">
      <g>
       <use style="stroke:#000000;stroke-width:0.5;" x="106.78714285714285" xlink:href="#mf886f4a854" y="384.9"/>
      </g>
     </g>
     <g id="line2d_48">
      <g>
       <use style="stroke:#000000;stroke-width:0.5;" x="106.78714285714285" xlink:href="#m6412dd9618" y="7.678217821782141"/>
      </g>
     </g>
    </g>
    <g id="xtick_7">
     <g id="line2d_49">
      <path clip-path="url(#p5840390da6)" d="M 159.049286 384.9 
L 159.049286 7.678218 
" style="fill:none;stroke:#000000;stroke-dasharray:1.000000,3.000000;stroke-dashoffset:0.0;stroke-width:0.5;"/>
     </g>
     <g id="line2d_50">
      <g>
       <use style="stroke:#000000;stroke-width:0.5;" x="159.0492857142857" xlink:href="#mf886f4a854" y="384.9"/>
      </g>
     </g>
     <g id="line2d_51">
      <g>
       <use style="stroke:#000000;stroke-width:0.5;" x="159.0492857142857" xlink:href="#m6412dd9618" y="7.678217821782141"/>
      </g>
     </g>
    </g>
    <g id="xtick_8">
     <g id="line2d_52">
      <path clip-path="url(#p5840390da6)" d="M 211.311429 384.9 
L 211.311429 7.678218 
" style="fill:none;stroke:#000000;stroke-dasharray:1.000000,3.000000;stroke-dashoffset:0.0;stroke-width:0.5;"/>
     </g>
     <g id="line2d_53">
      <g>
       <use style="stroke:#000000;stroke-width:0.5;" x="211.31142857142854" xlink:href="#mf886f4a854" y="384.9"/>
      </g>
     </g>
     <g id="line2d_54">
      <g>
       <use style="stroke:#000000;stroke-width:0.5;" x="211.31142857142854" xlink:href="#m6412dd9618" y="7.678217821782141"/>
      </g>
     </g>
    </g>
    <g id="xtick_9">
     <g id="line2d_55">
      <path clip-path="url(#p5840390da6)" d="M 263.573571 384.9 
L 263.573571 7.678218 
" style="fill:none;stroke:#000000;stroke-dasharray:1.000000,3.000000;stroke-dashoffset:0.0;stroke-width:0.5;"/>
     </g>
     <g id="line2d_56">
      <g>
       <use style="stroke:#000000;stroke-width:0.5;" x="263.57357142857137" xlink:href="#mf886f4a854" y="384.9"/>
      </g>
     </g>
     <g id="line2d_57">
      <g>
       <use style="stroke:#000000;stroke-width:0.5;" x="263.57357142857137" xlink:href="#m6412dd9618" y="7.678217821782141"/>
      </g>
     </g>
    </g>
    <g id="xtick_10">
     <g id="line2d_58">
      <path clip-path="url(#p5840390da6)" d="M 315.835714 384.9 
L 315.835714 7.678218 
" style="fill:none;stroke:#000000;stroke-dasharray:1.000000,3.000000;stroke-dashoffset:0.0;stroke-width:0.5;"/>
     </g>
     <g id="line2d_59">
      <g>
       <use style="stroke:#000000;stroke-width:0.5;" x="315.83571428571423" xlink:href="#mf886f4a854" y="384.9"/>
      </g>
     </g>
     <g id="line2d_60">
      <g>
       <use style="stroke:#000000;stroke-width:0.5;" x="315.83571428571423" xlink:href="#m6412dd9618" y="7.678217821782141"/>
      </g>
     </g>
    </g>
    <g id="xtick_11">
     <g id="line2d_61">
      <path clip-path="url(#p5840390da6)" d="M 368.097857 384.9 
L 368.097857 7.678218 
" style="fill:none;stroke:#000000;stroke-dasharray:1.000000,3.000000;stroke-dashoffset:0.0;stroke-width:0.5;"/>
     </g>
     <g id="line2d_62">
      <g>
       <use style="stroke:#000000;stroke-width:0.5;" x="368.09785714285704" xlink:href="#mf886f4a854" y="384.9"/>
      </g>
     </g>
     <g id="line2d_63">
      <g>
       <use style="stroke:#000000;stroke-width:0.5;" x="368.09785714285704" xlink:href="#m6412dd9618" y="7.678217821782141"/>
      </g>
     </g>
    </g>
    <g id="xtick_12">
     <g id="line2d_64">
      <path clip-path="url(#p5840390da6)" d="M 420.36 384.9 
L 420.36 7.678218 
" style="fill:none;stroke:#000000;stroke-dasharray:1.000000,3.000000;stroke-dashoffset:0.0;stroke-width:0.5;"/>
     </g>
     <g id="line2d_65">
      <g>
       <use style="stroke:#000000;stroke-width:0.5;" x="420.3599999999999" xlink:href="#mf886f4a854" y="384.9"/>
      </g>
     </g>
     <g id="line2d_66">
      <g>
       <use style="stroke:#000000;stroke-width:0.5;" x="420.3599999999999" xlink:href="#m6412dd9618" y="7.678217821782141"/>
      </g>
     </g>
    </g>
    <g id="text_5">
     <!-- log10(# f-evals / dimension) -->
     <defs>
      <path d="M 12.40625 8.296875 
L 28.515625 8.296875 
L 28.515625 63.921875 
L 10.984375 60.40625 
L 10.984375 69.390625 
L 28.421875 72.90625 
L 38.28125 72.90625 
L 38.28125 8.296875 
L 54.390625 8.296875 
L 54.390625 0 
L 12.40625 0 
z
" id="BitstreamVeraSans-Roman-31"/>
      <path d="M 9.421875 54.6875 
L 18.40625 54.6875 
L 18.40625 0 
L 9.421875 0 
z
M 9.421875 75.984375 
L 18.40625 75.984375 
L 18.40625 64.59375 
L 9.421875 64.59375 
z
" id="BitstreamVeraSans-Roman-69"/>
      <path d="M 37.109375 75.984375 
L 37.109375 68.5 
L 28.515625 68.5 
Q 23.6875 68.5 21.796875 66.546875 
Q 19.921875 64.59375 19.921875 59.515625 
L 19.921875 54.6875 
L 34.71875 54.6875 
L 34.71875 47.703125 
L 19.921875 47.703125 
L 19.921875 0 
L 10.890625 0 
L 10.890625 47.703125 
L 2.296875 47.703125 
L 2.296875 54.6875 
L 10.890625 54.6875 
L 10.890625 58.5 
Q 10.890625 67.625 15.140625 71.796875 
Q 19.390625 75.984375 28.609375 75.984375 
z
" id="BitstreamVeraSans-Roman-66"/>
      <path d="M 9.421875 75.984375 
L 18.40625 75.984375 
L 18.40625 0 
L 9.421875 0 
z
" id="BitstreamVeraSans-Roman-6c"/>
      <path d="M 4.890625 31.390625 
L 31.203125 31.390625 
L 31.203125 23.390625 
L 4.890625 23.390625 
z
" id="BitstreamVeraSans-Roman-2d"/>
      <path d="M 45.40625 27.984375 
Q 45.40625 37.75 41.375 43.109375 
Q 37.359375 48.484375 30.078125 48.484375 
Q 22.859375 48.484375 18.828125 43.109375 
Q 14.796875 37.75 14.796875 27.984375 
Q 14.796875 18.265625 18.828125 12.890625 
Q 22.859375 7.515625 30.078125 7.515625 
Q 37.359375 7.515625 41.375 12.890625 
Q 45.40625 18.265625 45.40625 27.984375 
M 54.390625 6.78125 
Q 54.390625 -7.171875 48.1875 -13.984375 
Q 42 -20.796875 29.203125 -20.796875 
Q 24.46875 -20.796875 20.265625 -20.09375 
Q 16.0625 -19.390625 12.109375 -17.921875 
L 12.109375 -9.1875 
Q 16.0625 -11.328125 19.921875 -12.34375 
Q 23.78125 -13.375 27.78125 -13.375 
Q 36.625 -13.375 41.015625 -8.765625 
Q 45.40625 -4.15625 45.40625 5.171875 
L 45.40625 9.625 
Q 42.625 4.78125 38.28125 2.390625 
Q 33.9375 0 27.875 0 
Q 17.828125 0 11.671875 7.65625 
Q 5.515625 15.328125 5.515625 27.984375 
Q 5.515625 40.671875 11.671875 48.328125 
Q 17.828125 56 27.875 56 
Q 33.9375 56 38.28125 53.609375 
Q 42.625 51.21875 45.40625 46.390625 
L 45.40625 54.6875 
L 54.390625 54.6875 
z
" id="BitstreamVeraSans-Roman-67"/>
      <path d="M 34.28125 27.484375 
Q 23.390625 27.484375 19.1875 25 
Q 14.984375 22.515625 14.984375 16.5 
Q 14.984375 11.71875 18.140625 8.90625 
Q 21.296875 6.109375 26.703125 6.109375 
Q 34.1875 6.109375 38.703125 11.40625 
Q 43.21875 16.703125 43.21875 25.484375 
L 43.21875 27.484375 
z
M 52.203125 31.203125 
L 52.203125 0 
L 43.21875 0 
L 43.21875 8.296875 
Q 40.140625 3.328125 35.546875 0.953125 
Q 30.953125 -1.421875 24.3125 -1.421875 
Q 15.921875 -1.421875 10.953125 3.296875 
Q 6 8.015625 6 15.921875 
Q 6 25.140625 12.171875 29.828125 
Q 18.359375 34.515625 30.609375 34.515625 
L 43.21875 34.515625 
L 43.21875 35.40625 
Q 43.21875 41.609375 39.140625 45 
Q 35.0625 48.390625 27.6875 48.390625 
Q 23 48.390625 18.546875 47.265625 
Q 14.109375 46.140625 10.015625 43.890625 
L 10.015625 52.203125 
Q 14.9375 54.109375 19.578125 55.046875 
Q 24.21875 56 28.609375 56 
Q 40.484375 56 46.34375 49.84375 
Q 52.203125 43.703125 52.203125 31.203125 
" id="BitstreamVeraSans-Roman-61"/>
      <path d="M 54.890625 33.015625 
L 54.890625 0 
L 45.90625 0 
L 45.90625 32.71875 
Q 45.90625 40.484375 42.875 44.328125 
Q 39.84375 48.1875 33.796875 48.1875 
Q 26.515625 48.1875 22.3125 43.546875 
Q 18.109375 38.921875 18.109375 30.90625 
L 18.109375 0 
L 9.078125 0 
L 9.078125 54.6875 
L 18.109375 54.6875 
L 18.109375 46.1875 
Q 21.34375 51.125 25.703125 53.5625 
Q 30.078125 56 35.796875 56 
Q 45.21875 56 50.046875 50.171875 
Q 54.890625 44.34375 54.890625 33.015625 
" id="BitstreamVeraSans-Roman-6e"/>
      <path d="M 30.609375 48.390625 
Q 23.390625 48.390625 19.1875 42.75 
Q 14.984375 37.109375 14.984375 27.296875 
Q 14.984375 17.484375 19.15625 11.84375 
Q 23.34375 6.203125 30.609375 6.203125 
Q 37.796875 6.203125 41.984375 11.859375 
Q 46.1875 17.53125 46.1875 27.296875 
Q 46.1875 37.015625 41.984375 42.703125 
Q 37.796875 48.390625 30.609375 48.390625 
M 30.609375 56 
Q 42.328125 56 49.015625 48.375 
Q 55.71875 40.765625 55.71875 27.296875 
Q 55.71875 13.875 49.015625 6.21875 
Q 42.328125 -1.421875 30.609375 -1.421875 
Q 18.84375 -1.421875 12.171875 6.21875 
Q 5.515625 13.875 5.515625 27.296875 
Q 5.515625 40.765625 12.171875 48.375 
Q 18.84375 56 30.609375 56 
" id="BitstreamVeraSans-Roman-6f"/>
      <path d="M 2.984375 54.6875 
L 12.5 54.6875 
L 29.59375 8.796875 
L 46.6875 54.6875 
L 56.203125 54.6875 
L 35.6875 0 
L 23.484375 0 
z
" id="BitstreamVeraSans-Roman-76"/>
      <path d="M 52 44.1875 
Q 55.375 50.25 60.0625 53.125 
Q 64.75 56 71.09375 56 
Q 79.640625 56 84.28125 50.015625 
Q 88.921875 44.046875 88.921875 33.015625 
L 88.921875 0 
L 79.890625 0 
L 79.890625 32.71875 
Q 79.890625 40.578125 77.09375 44.375 
Q 74.3125 48.1875 68.609375 48.1875 
Q 61.625 48.1875 57.5625 43.546875 
Q 53.515625 38.921875 53.515625 30.90625 
L 53.515625 0 
L 44.484375 0 
L 44.484375 32.71875 
Q 44.484375 40.625 41.703125 44.40625 
Q 38.921875 48.1875 33.109375 48.1875 
Q 26.21875 48.1875 22.15625 43.53125 
Q 18.109375 38.875 18.109375 30.90625 
L 18.109375 0 
L 9.078125 0 
L 9.078125 54.6875 
L 18.109375 54.6875 
L 18.109375 46.1875 
Q 21.1875 51.21875 25.484375 53.609375 
Q 29.78125 56 35.6875 56 
Q 41.65625 56 45.828125 52.96875 
Q 50 49.953125 52 44.1875 
" id="BitstreamVeraSans-Roman-6d"/>
      <path id="BitstreamVeraSans-Roman-20"/>
      <path d="M 44.28125 53.078125 
L 44.28125 44.578125 
Q 40.484375 46.53125 36.375 47.5 
Q 32.28125 48.484375 27.875 48.484375 
Q 21.1875 48.484375 17.84375 46.4375 
Q 14.5 44.390625 14.5 40.28125 
Q 14.5 37.15625 16.890625 35.375 
Q 19.28125 33.59375 26.515625 31.984375 
L 29.59375 31.296875 
Q 39.15625 29.25 43.1875 25.515625 
Q 47.21875 21.78125 47.21875 15.09375 
Q 47.21875 7.46875 41.1875 3.015625 
Q 35.15625 -1.421875 24.609375 -1.421875 
Q 20.21875 -1.421875 15.453125 -0.5625 
Q 10.6875 0.296875 5.421875 2 
L 5.421875 11.28125 
Q 10.40625 8.6875 15.234375 7.390625 
Q 20.0625 6.109375 24.8125 6.109375 
Q 31.15625 6.109375 34.5625 8.28125 
Q 37.984375 10.453125 37.984375 14.40625 
Q 37.984375 18.0625 35.515625 20.015625 
Q 33.0625 21.96875 24.703125 23.78125 
L 21.578125 24.515625 
Q 13.234375 26.265625 9.515625 29.90625 
Q 5.8125 33.546875 5.8125 39.890625 
Q 5.8125 47.609375 11.28125 51.796875 
Q 16.75 56 26.8125 56 
Q 31.78125 56 36.171875 55.265625 
Q 40.578125 54.546875 44.28125 53.078125 
" id="BitstreamVeraSans-Roman-73"/>
      <path d="M 51.125 44 
L 36.921875 44 
L 32.8125 27.6875 
L 47.125 27.6875 
z
M 43.796875 71.78125 
L 38.71875 51.515625 
L 52.984375 51.515625 
L 58.109375 71.78125 
L 65.921875 71.78125 
L 60.890625 51.515625 
L 76.125 51.515625 
L 76.125 44 
L 58.984375 44 
L 54.984375 27.6875 
L 70.515625 27.6875 
L 70.515625 20.21875 
L 53.078125 20.21875 
L 48 0 
L 40.1875 0 
L 45.21875 20.21875 
L 30.90625 20.21875 
L 25.875 0 
L 18.015625 0 
L 23.09375 20.21875 
L 7.71875 20.21875 
L 7.71875 27.6875 
L 24.90625 27.6875 
L 29 44 
L 13.28125 44 
L 13.28125 51.515625 
L 30.90625 51.515625 
L 35.890625 71.78125 
z
" id="BitstreamVeraSans-Roman-23"/>
      <path d="M 8.015625 75.875 
L 15.828125 75.875 
Q 23.140625 64.359375 26.78125 53.3125 
Q 30.421875 42.28125 30.421875 31.390625 
Q 30.421875 20.453125 26.78125 9.375 
Q 23.140625 -1.703125 15.828125 -13.1875 
L 8.015625 -13.1875 
Q 14.5 -2 17.703125 9.0625 
Q 20.90625 20.125 20.90625 31.390625 
Q 20.90625 42.671875 17.703125 53.65625 
Q 14.5 64.65625 8.015625 75.875 
" id="BitstreamVeraSans-Roman-29"/>
      <path d="M 31 75.875 
Q 24.46875 64.65625 21.28125 53.65625 
Q 18.109375 42.671875 18.109375 31.390625 
Q 18.109375 20.125 21.3125 9.0625 
Q 24.515625 -2 31 -13.1875 
L 23.1875 -13.1875 
Q 15.875 -1.703125 12.234375 9.375 
Q 8.59375 20.453125 8.59375 31.390625 
Q 8.59375 42.28125 12.203125 53.3125 
Q 15.828125 64.359375 23.1875 75.875 
z
" id="BitstreamVeraSans-Roman-28"/>
      <path d="M 45.40625 46.390625 
L 45.40625 75.984375 
L 54.390625 75.984375 
L 54.390625 0 
L 45.40625 0 
L 45.40625 8.203125 
Q 42.578125 3.328125 38.25 0.953125 
Q 33.9375 -1.421875 27.875 -1.421875 
Q 17.96875 -1.421875 11.734375 6.484375 
Q 5.515625 14.40625 5.515625 27.296875 
Q 5.515625 40.1875 11.734375 48.09375 
Q 17.96875 56 27.875 56 
Q 33.9375 56 38.25 53.625 
Q 42.578125 51.265625 45.40625 46.390625 
M 14.796875 27.296875 
Q 14.796875 17.390625 18.875 11.75 
Q 22.953125 6.109375 30.078125 6.109375 
Q 37.203125 6.109375 41.296875 11.75 
Q 45.40625 17.390625 45.40625 27.296875 
Q 45.40625 37.203125 41.296875 42.84375 
Q 37.203125 48.484375 30.078125 48.484375 
Q 22.953125 48.484375 18.875 42.84375 
Q 14.796875 37.203125 14.796875 27.296875 
" id="BitstreamVeraSans-Roman-64"/>
      <path d="M 25.390625 72.90625 
L 33.6875 72.90625 
L 8.296875 -9.28125 
L 0 -9.28125 
z
" id="BitstreamVeraSans-Roman-2f"/>
      <path d="M 56.203125 29.59375 
L 56.203125 25.203125 
L 14.890625 25.203125 
Q 15.484375 15.921875 20.484375 11.0625 
Q 25.484375 6.203125 34.421875 6.203125 
Q 39.59375 6.203125 44.453125 7.46875 
Q 49.3125 8.734375 54.109375 11.28125 
L 54.109375 2.78125 
Q 49.265625 0.734375 44.1875 -0.34375 
Q 39.109375 -1.421875 33.890625 -1.421875 
Q 20.796875 -1.421875 13.15625 6.1875 
Q 5.515625 13.8125 5.515625 26.8125 
Q 5.515625 40.234375 12.765625 48.109375 
Q 20.015625 56 32.328125 56 
Q 43.359375 56 49.78125 48.890625 
Q 56.203125 41.796875 56.203125 29.59375 
M 47.21875 32.234375 
Q 47.125 39.59375 43.09375 43.984375 
Q 39.0625 48.390625 32.421875 48.390625 
Q 24.90625 48.390625 20.390625 44.140625 
Q 15.875 39.890625 15.1875 32.171875 
z
" id="BitstreamVeraSans-Roman-65"/>
     </defs>
     <g transform="translate(116.60171874999996 426.17359374999995)scale(0.17 -0.17)">
      <use xlink:href="#BitstreamVeraSans-Roman-6c"/>
      <use x="27.783203125" xlink:href="#BitstreamVeraSans-Roman-6f"/>
      <use x="88.96484375" xlink:href="#BitstreamVeraSans-Roman-67"/>
      <use x="152.44140625" xlink:href="#BitstreamVeraSans-Roman-31"/>
      <use x="216.064453125" xlink:href="#BitstreamVeraSans-Roman-30"/>
      <use x="279.6875" xlink:href="#BitstreamVeraSans-Roman-28"/>
      <use x="318.701171875" xlink:href="#BitstreamVeraSans-Roman-23"/>
      <use x="402.490234375" xlink:href="#BitstreamVeraSans-Roman-20"/>
      <use x="434.27734375" xlink:href="#BitstreamVeraSans-Roman-66"/>
      <use x="469.404296875" xlink:href="#BitstreamVeraSans-Roman-2d"/>
      <use x="505.48828125" xlink:href="#BitstreamVeraSans-Roman-65"/>
      <use x="567.01171875" xlink:href="#BitstreamVeraSans-Roman-76"/>
      <use x="626.19140625" xlink:href="#BitstreamVeraSans-Roman-61"/>
      <use x="687.470703125" xlink:href="#BitstreamVeraSans-Roman-6c"/>
      <use x="715.25390625" xlink:href="#BitstreamVeraSans-Roman-73"/>
      <use x="767.353515625" xlink:href="#BitstreamVeraSans-Roman-20"/>
      <use x="799.140625" xlink:href="#BitstreamVeraSans-Roman-2f"/>
      <use x="832.83203125" xlink:href="#BitstreamVeraSans-Roman-20"/>
      <use x="864.619140625" xlink:href="#BitstreamVeraSans-Roman-64"/>
      <use x="928.095703125" xlink:href="#BitstreamVeraSans-Roman-69"/>
      <use x="955.87890625" xlink:href="#BitstreamVeraSans-Roman-6d"/>
      <use x="1053.291015625" xlink:href="#BitstreamVeraSans-Roman-65"/>
      <use x="1114.814453125" xlink:href="#BitstreamVeraSans-Roman-6e"/>
      <use x="1178.193359375" xlink:href="#BitstreamVeraSans-Roman-73"/>
      <use x="1230.29296875" xlink:href="#BitstreamVeraSans-Roman-69"/>
      <use x="1258.076171875" xlink:href="#BitstreamVeraSans-Roman-6f"/>
      <use x="1319.2578125" xlink:href="#BitstreamVeraSans-Roman-6e"/>
      <use x="1382.63671875" xlink:href="#BitstreamVeraSans-Roman-29"/>
     </g>
    </g>
   </g>
   <g id="matplotlib.axis_2">
    <g id="ytick_1">
     <g id="line2d_67">
      <path clip-path="url(#p5840390da6)" d="M 54.525 384.9 
L 420.36 384.9 
" style="fill:none;stroke:#000000;stroke-dasharray:1.000000,3.000000;stroke-dashoffset:0.0;stroke-width:0.5;"/>
     </g>
     <g id="line2d_68">
      <defs>
       <path d="M 0 0 
L 4 0 
" id="mbc4705e3ac" style="stroke:#000000;stroke-width:0.5;"/>
      </defs>
      <g>
       <use style="stroke:#000000;stroke-width:0.5;" x="54.52500000000001" xlink:href="#mbc4705e3ac" y="384.9"/>
      </g>
     </g>
     <g id="line2d_69">
      <defs>
       <path d="M 0 0 
L -4 0 
" id="m449cbbf893" style="stroke:#000000;stroke-width:0.5;"/>
      </defs>
      <g>
       <use style="stroke:#000000;stroke-width:0.5;" x="420.35999999999996" xlink:href="#m449cbbf893" y="384.9"/>
      </g>
     </g>
     <g id="text_6">
      <!-- 0.0 -->
      <defs>
       <path d="M 10.6875 12.40625 
L 21 12.40625 
L 21 0 
L 10.6875 0 
z
" id="BitstreamVeraSans-Roman-2e"/>
      </defs>
      <g transform="translate(25.080000000000013 389.315)scale(0.16 -0.16)">
       <use xlink:href="#BitstreamVeraSans-Roman-30"/>
       <use x="63.623046875" xlink:href="#BitstreamVeraSans-Roman-2e"/>
       <use x="95.41015625" xlink:href="#BitstreamVeraSans-Roman-30"/>
      </g>
     </g>
    </g>
    <g id="ytick_2">
     <g id="line2d_70">
      <path clip-path="url(#p5840390da6)" d="M 54.525 310.202617 
L 420.36 310.202617 
" style="fill:none;stroke:#000000;stroke-dasharray:1.000000,3.000000;stroke-dashoffset:0.0;stroke-width:0.5;"/>
     </g>
     <g id="line2d_71">
      <g>
       <use style="stroke:#000000;stroke-width:0.5;" x="54.52500000000001" xlink:href="#mbc4705e3ac" y="310.2026173904519"/>
      </g>
     </g>
     <g id="line2d_72">
      <g>
       <use style="stroke:#000000;stroke-width:0.5;" x="420.35999999999996" xlink:href="#m449cbbf893" y="310.2026173904519"/>
      </g>
     </g>
     <g id="text_7">
      <!-- 0.2 -->
      <g transform="translate(25.080000000000013 314.61761739045187)scale(0.16 -0.16)">
       <use xlink:href="#BitstreamVeraSans-Roman-30"/>
       <use x="63.623046875" xlink:href="#BitstreamVeraSans-Roman-2e"/>
       <use x="95.41015625" xlink:href="#BitstreamVeraSans-Roman-32"/>
      </g>
     </g>
    </g>
    <g id="ytick_3">
     <g id="line2d_73">
      <path clip-path="url(#p5840390da6)" d="M 54.525 235.505235 
L 420.36 235.505235 
" style="fill:none;stroke:#000000;stroke-dasharray:1.000000,3.000000;stroke-dashoffset:0.0;stroke-width:0.5;"/>
     </g>
     <g id="line2d_74">
      <g>
       <use style="stroke:#000000;stroke-width:0.5;" x="54.52500000000001" xlink:href="#mbc4705e3ac" y="235.5052347809038"/>
      </g>
     </g>
     <g id="line2d_75">
      <g>
       <use style="stroke:#000000;stroke-width:0.5;" x="420.35999999999996" xlink:href="#m449cbbf893" y="235.5052347809038"/>
      </g>
     </g>
     <g id="text_8">
      <!-- 0.4 -->
      <g transform="translate(25.080000000000013 239.9202347809038)scale(0.16 -0.16)">
       <use xlink:href="#BitstreamVeraSans-Roman-30"/>
       <use x="63.623046875" xlink:href="#BitstreamVeraSans-Roman-2e"/>
       <use x="95.41015625" xlink:href="#BitstreamVeraSans-Roman-34"/>
      </g>
     </g>
    </g>
    <g id="ytick_4">
     <g id="line2d_76">
      <path clip-path="url(#p5840390da6)" d="M 54.525 160.807852 
L 420.36 160.807852 
" style="fill:none;stroke:#000000;stroke-dasharray:1.000000,3.000000;stroke-dashoffset:0.0;stroke-width:0.5;"/>
     </g>
     <g id="line2d_77">
      <g>
       <use style="stroke:#000000;stroke-width:0.5;" x="54.52500000000001" xlink:href="#mbc4705e3ac" y="160.8078521713557"/>
      </g>
     </g>
     <g id="line2d_78">
      <g>
       <use style="stroke:#000000;stroke-width:0.5;" x="420.35999999999996" xlink:href="#m449cbbf893" y="160.8078521713557"/>
      </g>
     </g>
     <g id="text_9">
      <!-- 0.6 -->
      <g transform="translate(25.080000000000013 165.22285217135573)scale(0.16 -0.16)">
       <use xlink:href="#BitstreamVeraSans-Roman-30"/>
       <use x="63.623046875" xlink:href="#BitstreamVeraSans-Roman-2e"/>
       <use x="95.41015625" xlink:href="#BitstreamVeraSans-Roman-36"/>
      </g>
     </g>
    </g>
    <g id="ytick_5">
     <g id="line2d_79">
      <path clip-path="url(#p5840390da6)" d="M 54.525 86.11047 
L 420.36 86.11047 
" style="fill:none;stroke:#000000;stroke-dasharray:1.000000,3.000000;stroke-dashoffset:0.0;stroke-width:0.5;"/>
     </g>
     <g id="line2d_80">
      <g>
       <use style="stroke:#000000;stroke-width:0.5;" x="54.52500000000001" xlink:href="#mbc4705e3ac" y="86.11046956180763"/>
      </g>
     </g>
     <g id="line2d_81">
      <g>
       <use style="stroke:#000000;stroke-width:0.5;" x="420.35999999999996" xlink:href="#m449cbbf893" y="86.11046956180763"/>
      </g>
     </g>
     <g id="text_10">
      <!-- 0.8 -->
      <defs>
       <path d="M 31.78125 34.625 
Q 24.75 34.625 20.71875 30.859375 
Q 16.703125 27.09375 16.703125 20.515625 
Q 16.703125 13.921875 20.71875 10.15625 
Q 24.75 6.390625 31.78125 6.390625 
Q 38.8125 6.390625 42.859375 10.171875 
Q 46.921875 13.96875 46.921875 20.515625 
Q 46.921875 27.09375 42.890625 30.859375 
Q 38.875 34.625 31.78125 34.625 
M 21.921875 38.8125 
Q 15.578125 40.375 12.03125 44.71875 
Q 8.5 49.078125 8.5 55.328125 
Q 8.5 64.0625 14.71875 69.140625 
Q 20.953125 74.21875 31.78125 74.21875 
Q 42.671875 74.21875 48.875 69.140625 
Q 55.078125 64.0625 55.078125 55.328125 
Q 55.078125 49.078125 51.53125 44.71875 
Q 48 40.375 41.703125 38.8125 
Q 48.828125 37.15625 52.796875 32.3125 
Q 56.78125 27.484375 56.78125 20.515625 
Q 56.78125 9.90625 50.3125 4.234375 
Q 43.84375 -1.421875 31.78125 -1.421875 
Q 19.734375 -1.421875 13.25 4.234375 
Q 6.78125 9.90625 6.78125 20.515625 
Q 6.78125 27.484375 10.78125 32.3125 
Q 14.796875 37.15625 21.921875 38.8125 
M 18.3125 54.390625 
Q 18.3125 48.734375 21.84375 45.5625 
Q 25.390625 42.390625 31.78125 42.390625 
Q 38.140625 42.390625 41.71875 45.5625 
Q 45.3125 48.734375 45.3125 54.390625 
Q 45.3125 60.0625 41.71875 63.234375 
Q 38.140625 66.40625 31.78125 66.40625 
Q 25.390625 66.40625 21.84375 63.234375 
Q 18.3125 60.0625 18.3125 54.390625 
" id="BitstreamVeraSans-Roman-38"/>
      </defs>
      <g transform="translate(25.080000000000013 90.52546956180765)scale(0.16 -0.16)">
       <use xlink:href="#BitstreamVeraSans-Roman-30"/>
       <use x="63.623046875" xlink:href="#BitstreamVeraSans-Roman-2e"/>
       <use x="95.41015625" xlink:href="#BitstreamVeraSans-Roman-38"/>
      </g>
     </g>
    </g>
    <g id="ytick_6">
     <g id="line2d_82">
      <path clip-path="url(#p5840390da6)" d="M 54.525 11.413087 
L 420.36 11.413087 
" style="fill:none;stroke:#000000;stroke-dasharray:1.000000,3.000000;stroke-dashoffset:0.0;stroke-width:0.5;"/>
     </g>
     <g id="line2d_83">
      <g>
       <use style="stroke:#000000;stroke-width:0.5;" x="54.52500000000001" xlink:href="#mbc4705e3ac" y="11.413086952259562"/>
      </g>
     </g>
     <g id="line2d_84">
      <g>
       <use style="stroke:#000000;stroke-width:0.5;" x="420.35999999999996" xlink:href="#m449cbbf893" y="11.413086952259562"/>
      </g>
     </g>
     <g id="text_11">
      <!-- 1.0 -->
      <g transform="translate(25.080000000000013 15.828086952259582)scale(0.16 -0.16)">
       <use xlink:href="#BitstreamVeraSans-Roman-31"/>
       <use x="63.623046875" xlink:href="#BitstreamVeraSans-Roman-2e"/>
       <use x="95.41015625" xlink:href="#BitstreamVeraSans-Roman-30"/>
      </g>
     </g>
    </g>
    <g id="text_12">
     <!-- Fraction of function,target pairs -->
     <defs>
      <path d="M 18.109375 8.203125 
L 18.109375 -20.796875 
L 9.078125 -20.796875 
L 9.078125 54.6875 
L 18.109375 54.6875 
L 18.109375 46.390625 
Q 20.953125 51.265625 25.265625 53.625 
Q 29.59375 56 35.59375 56 
Q 45.5625 56 51.78125 48.09375 
Q 58.015625 40.1875 58.015625 27.296875 
Q 58.015625 14.40625 51.78125 6.484375 
Q 45.5625 -1.421875 35.59375 -1.421875 
Q 29.59375 -1.421875 25.265625 0.953125 
Q 20.953125 3.328125 18.109375 8.203125 
M 48.6875 27.296875 
Q 48.6875 37.203125 44.609375 42.84375 
Q 40.53125 48.484375 33.40625 48.484375 
Q 26.265625 48.484375 22.1875 42.84375 
Q 18.109375 37.203125 18.109375 27.296875 
Q 18.109375 17.390625 22.1875 11.75 
Q 26.265625 6.109375 33.40625 6.109375 
Q 40.53125 6.109375 44.609375 11.75 
Q 48.6875 17.390625 48.6875 27.296875 
" id="BitstreamVeraSans-Roman-70"/>
      <path d="M 48.78125 52.59375 
L 48.78125 44.1875 
Q 44.96875 46.296875 41.140625 47.34375 
Q 37.3125 48.390625 33.40625 48.390625 
Q 24.65625 48.390625 19.8125 42.84375 
Q 14.984375 37.3125 14.984375 27.296875 
Q 14.984375 17.28125 19.8125 11.734375 
Q 24.65625 6.203125 33.40625 6.203125 
Q 37.3125 6.203125 41.140625 7.25 
Q 44.96875 8.296875 48.78125 10.40625 
L 48.78125 2.09375 
Q 45.015625 0.34375 40.984375 -0.53125 
Q 36.96875 -1.421875 32.421875 -1.421875 
Q 20.0625 -1.421875 12.78125 6.34375 
Q 5.515625 14.109375 5.515625 27.296875 
Q 5.515625 40.671875 12.859375 48.328125 
Q 20.21875 56 33.015625 56 
Q 37.15625 56 41.109375 55.140625 
Q 45.0625 54.296875 48.78125 52.59375 
" id="BitstreamVeraSans-Roman-63"/>
      <path d="M 8.5 21.578125 
L 8.5 54.6875 
L 17.484375 54.6875 
L 17.484375 21.921875 
Q 17.484375 14.15625 20.5 10.265625 
Q 23.53125 6.390625 29.59375 6.390625 
Q 36.859375 6.390625 41.078125 11.03125 
Q 45.3125 15.671875 45.3125 23.6875 
L 45.3125 54.6875 
L 54.296875 54.6875 
L 54.296875 0 
L 45.3125 0 
L 45.3125 8.40625 
Q 42.046875 3.421875 37.71875 1 
Q 33.40625 -1.421875 27.6875 -1.421875 
Q 18.265625 -1.421875 13.375 4.4375 
Q 8.5 10.296875 8.5 21.578125 
" id="BitstreamVeraSans-Roman-75"/>
      <path d="M 18.3125 70.21875 
L 18.3125 54.6875 
L 36.8125 54.6875 
L 36.8125 47.703125 
L 18.3125 47.703125 
L 18.3125 18.015625 
Q 18.3125 11.328125 20.140625 9.421875 
Q 21.96875 7.515625 27.59375 7.515625 
L 36.8125 7.515625 
L 36.8125 0 
L 27.59375 0 
Q 17.1875 0 13.234375 3.875 
Q 9.28125 7.765625 9.28125 18.015625 
L 9.28125 47.703125 
L 2.6875 47.703125 
L 2.6875 54.6875 
L 9.28125 54.6875 
L 9.28125 70.21875 
z
" id="BitstreamVeraSans-Roman-74"/>
      <path d="M 41.109375 46.296875 
Q 39.59375 47.171875 37.8125 47.578125 
Q 36.03125 48 33.890625 48 
Q 26.265625 48 22.1875 43.046875 
Q 18.109375 38.09375 18.109375 28.8125 
L 18.109375 0 
L 9.078125 0 
L 9.078125 54.6875 
L 18.109375 54.6875 
L 18.109375 46.1875 
Q 20.953125 51.171875 25.484375 53.578125 
Q 30.03125 56 36.53125 56 
Q 37.453125 56 38.578125 55.875 
Q 39.703125 55.765625 41.0625 55.515625 
z
" id="BitstreamVeraSans-Roman-72"/>
      <path d="M 9.8125 72.90625 
L 51.703125 72.90625 
L 51.703125 64.59375 
L 19.671875 64.59375 
L 19.671875 43.109375 
L 48.578125 43.109375 
L 48.578125 34.8125 
L 19.671875 34.8125 
L 19.671875 0 
L 9.8125 0 
z
" id="BitstreamVeraSans-Roman-46"/>
      <path d="M 11.71875 12.40625 
L 22.015625 12.40625 
L 22.015625 4 
L 14.015625 -11.625 
L 7.71875 -11.625 
L 11.71875 4 
z
" id="BitstreamVeraSans-Roman-2c"/>
     </defs>
     <g transform="translate(16.544531250000006 331.42848391089103)rotate(-90.0)scale(0.17 -0.17)">
      <use xlink:href="#BitstreamVeraSans-Roman-46"/>
      <use x="57.41015625" xlink:href="#BitstreamVeraSans-Roman-72"/>
      <use x="98.5234375" xlink:href="#BitstreamVeraSans-Roman-61"/>
      <use x="159.802734375" xlink:href="#BitstreamVeraSans-Roman-63"/>
      <use x="214.783203125" xlink:href="#BitstreamVeraSans-Roman-74"/>
      <use x="253.9921875" xlink:href="#BitstreamVeraSans-Roman-69"/>
      <use x="281.775390625" xlink:href="#BitstreamVeraSans-Roman-6f"/>
      <use x="342.95703125" xlink:href="#BitstreamVeraSans-Roman-6e"/>
      <use x="406.3359375" xlink:href="#BitstreamVeraSans-Roman-20"/>
      <use x="438.123046875" xlink:href="#BitstreamVeraSans-Roman-6f"/>
      <use x="499.3046875" xlink:href="#BitstreamVeraSans-Roman-66"/>
      <use x="534.509765625" xlink:href="#BitstreamVeraSans-Roman-20"/>
      <use x="566.296875" xlink:href="#BitstreamVeraSans-Roman-66"/>
      <use x="601.501953125" xlink:href="#BitstreamVeraSans-Roman-75"/>
      <use x="664.880859375" xlink:href="#BitstreamVeraSans-Roman-6e"/>
      <use x="728.259765625" xlink:href="#BitstreamVeraSans-Roman-63"/>
      <use x="783.240234375" xlink:href="#BitstreamVeraSans-Roman-74"/>
      <use x="822.44921875" xlink:href="#BitstreamVeraSans-Roman-69"/>
      <use x="850.232421875" xlink:href="#BitstreamVeraSans-Roman-6f"/>
      <use x="911.4140625" xlink:href="#BitstreamVeraSans-Roman-6e"/>
      <use x="974.79296875" xlink:href="#BitstreamVeraSans-Roman-2c"/>
      <use x="1006.580078125" xlink:href="#BitstreamVeraSans-Roman-74"/>
      <use x="1045.7890625" xlink:href="#BitstreamVeraSans-Roman-61"/>
      <use x="1107.068359375" xlink:href="#BitstreamVeraSans-Roman-72"/>
      <use x="1148.166015625" xlink:href="#BitstreamVeraSans-Roman-67"/>
      <use x="1211.642578125" xlink:href="#BitstreamVeraSans-Roman-65"/>
      <use x="1273.166015625" xlink:href="#BitstreamVeraSans-Roman-74"/>
      <use x="1312.375" xlink:href="#BitstreamVeraSans-Roman-20"/>
      <use x="1344.162109375" xlink:href="#BitstreamVeraSans-Roman-70"/>
      <use x="1407.638671875" xlink:href="#BitstreamVeraSans-Roman-61"/>
      <use x="1468.91796875" xlink:href="#BitstreamVeraSans-Roman-69"/>
      <use x="1496.701171875" xlink:href="#BitstreamVeraSans-Roman-72"/>
      <use x="1537.814453125" xlink:href="#BitstreamVeraSans-Roman-73"/>
     </g>
    </g>
   </g>
   <g id="text_13">
    <!-- DE4-D -->
    <defs>
     <path d="M 9.8125 72.90625 
L 55.90625 72.90625 
L 55.90625 64.59375 
L 19.671875 64.59375 
L 19.671875 43.015625 
L 54.390625 43.015625 
L 54.390625 34.71875 
L 19.671875 34.71875 
L 19.671875 8.296875 
L 56.78125 8.296875 
L 56.78125 0 
L 9.8125 0 
z
" id="BitstreamVeraSans-Roman-45"/>
     <path d="M 19.671875 64.796875 
L 19.671875 8.109375 
L 31.59375 8.109375 
Q 46.6875 8.109375 53.6875 14.9375 
Q 60.6875 21.78125 60.6875 36.53125 
Q 60.6875 51.171875 53.6875 57.984375 
Q 46.6875 64.796875 31.59375 64.796875 
z
M 9.8125 72.90625 
L 30.078125 72.90625 
Q 51.265625 72.90625 61.171875 64.09375 
Q 71.09375 55.28125 71.09375 36.53125 
Q 71.09375 17.671875 61.125 8.828125 
Q 51.171875 0 30.078125 0 
L 9.8125 0 
z
" id="BitstreamVeraSans-Roman-44"/>
    </defs>
    <g transform="translate(467.91854999999987 382.12119923904515)scale(0.17 -0.17)">
     <use xlink:href="#BitstreamVeraSans-Roman-44"/>
     <use x="77.001953125" xlink:href="#BitstreamVeraSans-Roman-45"/>
     <use x="140.185546875" xlink:href="#BitstreamVeraSans-Roman-34"/>
     <use x="203.80859375" xlink:href="#BitstreamVeraSans-Roman-2d"/>
     <use x="239.892578125" xlink:href="#BitstreamVeraSans-Roman-44"/>
    </g>
   </g>
   <g id="text_14">
    <!-- DE4-T-fe -->
    <defs>
     <path d="M -0.296875 72.90625 
L 61.375 72.90625 
L 61.375 64.59375 
L 35.5 64.59375 
L 35.5 0 
L 25.59375 0 
L 25.59375 64.59375 
L -0.296875 64.59375 
z
" id="BitstreamVeraSans-Roman-54"/>
    </defs>
    <g transform="translate(467.91854999999987 292.48434010758746)scale(0.17 -0.17)">
     <use xlink:href="#BitstreamVeraSans-Roman-44"/>
     <use x="77.001953125" xlink:href="#BitstreamVeraSans-Roman-45"/>
     <use x="140.185546875" xlink:href="#BitstreamVeraSans-Roman-34"/>
     <use x="203.80859375" xlink:href="#BitstreamVeraSans-Roman-2d"/>
     <use x="239.751953125" xlink:href="#BitstreamVeraSans-Roman-54"/>
     <use x="300.6953125" xlink:href="#BitstreamVeraSans-Roman-2d"/>
     <use x="336.779296875" xlink:href="#BitstreamVeraSans-Roman-66"/>
     <use x="371.984375" xlink:href="#BitstreamVeraSans-Roman-65"/>
    </g>
   </g>
   <g id="text_15">
    <!-- DE4-B -->
    <defs>
     <path d="M 19.671875 34.8125 
L 19.671875 8.109375 
L 35.5 8.109375 
Q 43.453125 8.109375 47.28125 11.40625 
Q 51.125 14.703125 51.125 21.484375 
Q 51.125 28.328125 47.28125 31.5625 
Q 43.453125 34.8125 35.5 34.8125 
z
M 19.671875 64.796875 
L 19.671875 42.828125 
L 34.28125 42.828125 
Q 41.5 42.828125 45.03125 45.53125 
Q 48.578125 48.25 48.578125 53.8125 
Q 48.578125 59.328125 45.03125 62.0625 
Q 41.5 64.796875 34.28125 64.796875 
z
M 9.8125 72.90625 
L 35.015625 72.90625 
Q 46.296875 72.90625 52.390625 68.21875 
Q 58.5 63.53125 58.5 54.890625 
Q 58.5 48.1875 55.375 44.234375 
Q 52.25 40.28125 46.1875 39.3125 
Q 53.46875 37.75 57.5 32.78125 
Q 61.53125 27.828125 61.53125 20.40625 
Q 61.53125 10.640625 54.890625 5.3125 
Q 48.25 0 35.984375 0 
L 9.8125 0 
z
" id="BitstreamVeraSans-Roman-42"/>
    </defs>
    <g transform="translate(467.91854999999987 202.84748097612976)scale(0.17 -0.17)">
     <use xlink:href="#BitstreamVeraSans-Roman-44"/>
     <use x="77.001953125" xlink:href="#BitstreamVeraSans-Roman-45"/>
     <use x="140.185546875" xlink:href="#BitstreamVeraSans-Roman-34"/>
     <use x="203.80859375" xlink:href="#BitstreamVeraSans-Roman-2d"/>
     <use x="239.845703125" xlink:href="#BitstreamVeraSans-Roman-42"/>
    </g>
   </g>
   <g id="text_16">
    <!-- DE4-E-fe -->
    <g transform="translate(467.91854999999987 113.21062184467212)scale(0.17 -0.17)">
     <use xlink:href="#BitstreamVeraSans-Roman-44"/>
     <use x="77.001953125" xlink:href="#BitstreamVeraSans-Roman-45"/>
     <use x="140.185546875" xlink:href="#BitstreamVeraSans-Roman-34"/>
     <use x="203.80859375" xlink:href="#BitstreamVeraSans-Roman-2d"/>
     <use x="239.892578125" xlink:href="#BitstreamVeraSans-Roman-45"/>
     <use x="303.076171875" xlink:href="#BitstreamVeraSans-Roman-2d"/>
     <use x="339.16015625" xlink:href="#BitstreamVeraSans-Roman-66"/>
     <use x="374.365234375" xlink:href="#BitstreamVeraSans-Roman-65"/>
    </g>
   </g>
   <g id="text_17">
    <!-- best 2009 -->
    <defs>
     <path d="M 48.6875 27.296875 
Q 48.6875 37.203125 44.609375 42.84375 
Q 40.53125 48.484375 33.40625 48.484375 
Q 26.265625 48.484375 22.1875 42.84375 
Q 18.109375 37.203125 18.109375 27.296875 
Q 18.109375 17.390625 22.1875 11.75 
Q 26.265625 6.109375 33.40625 6.109375 
Q 40.53125 6.109375 44.609375 11.75 
Q 48.6875 17.390625 48.6875 27.296875 
M 18.109375 46.390625 
Q 20.953125 51.265625 25.265625 53.625 
Q 29.59375 56 35.59375 56 
Q 45.5625 56 51.78125 48.09375 
Q 58.015625 40.1875 58.015625 27.296875 
Q 58.015625 14.40625 51.78125 6.484375 
Q 45.5625 -1.421875 35.59375 -1.421875 
Q 29.59375 -1.421875 25.265625 0.953125 
Q 20.953125 3.328125 18.109375 8.203125 
L 18.109375 0 
L 9.078125 0 
L 9.078125 75.984375 
L 18.109375 75.984375 
z
" id="BitstreamVeraSans-Roman-62"/>
     <path d="M 10.984375 1.515625 
L 10.984375 10.5 
Q 14.703125 8.734375 18.5 7.8125 
Q 22.3125 6.890625 25.984375 6.890625 
Q 35.75 6.890625 40.890625 13.453125 
Q 46.046875 20.015625 46.78125 33.40625 
Q 43.953125 29.203125 39.59375 26.953125 
Q 35.25 24.703125 29.984375 24.703125 
Q 19.046875 24.703125 12.671875 31.3125 
Q 6.296875 37.9375 6.296875 49.421875 
Q 6.296875 60.640625 12.9375 67.421875 
Q 19.578125 74.21875 30.609375 74.21875 
Q 43.265625 74.21875 49.921875 64.515625 
Q 56.59375 54.828125 56.59375 36.375 
Q 56.59375 19.140625 48.40625 8.859375 
Q 40.234375 -1.421875 26.421875 -1.421875 
Q 22.703125 -1.421875 18.890625 -0.6875 
Q 15.09375 0.046875 10.984375 1.515625 
M 30.609375 32.421875 
Q 37.25 32.421875 41.125 36.953125 
Q 45.015625 41.5 45.015625 49.421875 
Q 45.015625 57.28125 41.125 61.84375 
Q 37.25 66.40625 30.609375 66.40625 
Q 23.96875 66.40625 20.09375 61.84375 
Q 16.21875 57.28125 16.21875 49.421875 
Q 16.21875 41.5 20.09375 36.953125 
Q 23.96875 32.421875 30.609375 32.421875 
" id="BitstreamVeraSans-Roman-39"/>
    </defs>
    <g transform="translate(467.91854999999987 23.57376271321442)scale(0.17 -0.17)">
     <use xlink:href="#BitstreamVeraSans-Roman-62"/>
     <use x="63.4765625" xlink:href="#BitstreamVeraSans-Roman-65"/>
     <use x="125.0" xlink:href="#BitstreamVeraSans-Roman-73"/>
     <use x="177.099609375" xlink:href="#BitstreamVeraSans-Roman-74"/>
     <use x="216.30859375" xlink:href="#BitstreamVeraSans-Roman-20"/>
     <use x="248.095703125" xlink:href="#BitstreamVeraSans-Roman-32"/>
     <use x="311.71875" xlink:href="#BitstreamVeraSans-Roman-30"/>
     <use x="375.341796875" xlink:href="#BitstreamVeraSans-Roman-30"/>
     <use x="438.96484375" xlink:href="#BitstreamVeraSans-Roman-39"/>
    </g>
   </g>
   <g id="text_18">
    <!-- bbob f10-f14, 20-D -->
    <g transform="translate(58.18335000000001 19.20084189356436)scale(0.102 -0.102)">
     <use xlink:href="#BitstreamVeraSans-Roman-62"/>
     <use x="63.4765625" xlink:href="#BitstreamVeraSans-Roman-62"/>
     <use x="126.953125" xlink:href="#BitstreamVeraSans-Roman-6f"/>
     <use x="188.134765625" xlink:href="#BitstreamVeraSans-Roman-62"/>
     <use x="251.611328125" xlink:href="#BitstreamVeraSans-Roman-20"/>
     <use x="283.3984375" xlink:href="#BitstreamVeraSans-Roman-66"/>
     <use x="318.603515625" xlink:href="#BitstreamVeraSans-Roman-31"/>
     <use x="382.2265625" xlink:href="#BitstreamVeraSans-Roman-30"/>
     <use x="445.849609375" xlink:href="#BitstreamVeraSans-Roman-2d"/>
     <use x="481.93359375" xlink:href="#BitstreamVeraSans-Roman-66"/>
     <use x="517.138671875" xlink:href="#BitstreamVeraSans-Roman-31"/>
     <use x="580.76171875" xlink:href="#BitstreamVeraSans-Roman-34"/>
     <use x="644.384765625" xlink:href="#BitstreamVeraSans-Roman-2c"/>
     <use x="676.171875" xlink:href="#BitstreamVeraSans-Roman-20"/>
     <use x="707.958984375" xlink:href="#BitstreamVeraSans-Roman-32"/>
     <use x="771.58203125" xlink:href="#BitstreamVeraSans-Roman-30"/>
     <use x="835.205078125" xlink:href="#BitstreamVeraSans-Roman-2d"/>
     <use x="871.2890625" xlink:href="#BitstreamVeraSans-Roman-44"/>
    </g>
    <!-- 51 targets: 100..1e-08 -->
    <defs>
     <path d="M 11.71875 12.40625 
L 22.015625 12.40625 
L 22.015625 0 
L 11.71875 0 
z
M 11.71875 51.703125 
L 22.015625 51.703125 
L 22.015625 39.3125 
L 11.71875 39.3125 
z
" id="BitstreamVeraSans-Roman-3a"/>
     <path d="M 10.796875 72.90625 
L 49.515625 72.90625 
L 49.515625 64.59375 
L 19.828125 64.59375 
L 19.828125 46.734375 
Q 21.96875 47.46875 24.109375 47.828125 
Q 26.265625 48.1875 28.421875 48.1875 
Q 40.625 48.1875 47.75 41.5 
Q 54.890625 34.8125 54.890625 23.390625 
Q 54.890625 11.625 47.5625 5.09375 
Q 40.234375 -1.421875 26.90625 -1.421875 
Q 22.3125 -1.421875 17.546875 -0.640625 
Q 12.796875 0.140625 7.71875 1.703125 
L 7.71875 11.625 
Q 12.109375 9.234375 16.796875 8.0625 
Q 21.484375 6.890625 26.703125 6.890625 
Q 35.15625 6.890625 40.078125 11.328125 
Q 45.015625 15.765625 45.015625 23.390625 
Q 45.015625 31 40.078125 35.4375 
Q 35.15625 39.890625 26.703125 39.890625 
Q 22.75 39.890625 18.8125 39.015625 
Q 14.890625 38.140625 10.796875 36.28125 
z
" id="BitstreamVeraSans-Roman-35"/>
    </defs>
    <g transform="translate(58.18335000000001 30.622610643564315)scale(0.102 -0.102)">
     <use xlink:href="#BitstreamVeraSans-Roman-35"/>
     <use x="63.623046875" xlink:href="#BitstreamVeraSans-Roman-31"/>
     <use x="127.24609375" xlink:href="#BitstreamVeraSans-Roman-20"/>
     <use x="159.033203125" xlink:href="#BitstreamVeraSans-Roman-74"/>
     <use x="198.2421875" xlink:href="#BitstreamVeraSans-Roman-61"/>
     <use x="259.521484375" xlink:href="#BitstreamVeraSans-Roman-72"/>
     <use x="300.619140625" xlink:href="#BitstreamVeraSans-Roman-67"/>
     <use x="364.095703125" xlink:href="#BitstreamVeraSans-Roman-65"/>
     <use x="425.619140625" xlink:href="#BitstreamVeraSans-Roman-74"/>
     <use x="464.828125" xlink:href="#BitstreamVeraSans-Roman-73"/>
     <use x="516.927734375" xlink:href="#BitstreamVeraSans-Roman-3a"/>
     <use x="550.619140625" xlink:href="#BitstreamVeraSans-Roman-20"/>
     <use x="582.40625" xlink:href="#BitstreamVeraSans-Roman-31"/>
     <use x="646.029296875" xlink:href="#BitstreamVeraSans-Roman-30"/>
     <use x="709.65234375" xlink:href="#BitstreamVeraSans-Roman-30"/>
     <use x="773.275390625" xlink:href="#BitstreamVeraSans-Roman-2e"/>
     <use x="805.0625" xlink:href="#BitstreamVeraSans-Roman-2e"/>
     <use x="836.849609375" xlink:href="#BitstreamVeraSans-Roman-31"/>
     <use x="900.47265625" xlink:href="#BitstreamVeraSans-Roman-65"/>
     <use x="961.99609375" xlink:href="#BitstreamVeraSans-Roman-2d"/>
     <use x="998.080078125" xlink:href="#BitstreamVeraSans-Roman-30"/>
     <use x="1061.703125" xlink:href="#BitstreamVeraSans-Roman-38"/>
    </g>
    <!-- 15 instances -->
    <g transform="translate(58.18335000000001 42.04437939356433)scale(0.102 -0.102)">
     <use xlink:href="#BitstreamVeraSans-Roman-31"/>
     <use x="63.623046875" xlink:href="#BitstreamVeraSans-Roman-35"/>
     <use x="127.24609375" xlink:href="#BitstreamVeraSans-Roman-20"/>
     <use x="159.033203125" xlink:href="#BitstreamVeraSans-Roman-69"/>
     <use x="186.81640625" xlink:href="#BitstreamVeraSans-Roman-6e"/>
     <use x="250.1953125" xlink:href="#BitstreamVeraSans-Roman-73"/>
     <use x="302.294921875" xlink:href="#BitstreamVeraSans-Roman-74"/>
     <use x="341.50390625" xlink:href="#BitstreamVeraSans-Roman-61"/>
     <use x="402.783203125" xlink:href="#BitstreamVeraSans-Roman-6e"/>
     <use x="466.162109375" xlink:href="#BitstreamVeraSans-Roman-63"/>
     <use x="521.142578125" xlink:href="#BitstreamVeraSans-Roman-65"/>
     <use x="582.666015625" xlink:href="#BitstreamVeraSans-Roman-73"/>
    </g>
   </g>
   <g id="text_19">
    <!-- v2.3.3 -->
    <defs>
     <path d="M 40.578125 39.3125 
Q 47.65625 37.796875 51.625 33 
Q 55.609375 28.21875 55.609375 21.1875 
Q 55.609375 10.40625 48.1875 4.484375 
Q 40.765625 -1.421875 27.09375 -1.421875 
Q 22.515625 -1.421875 17.65625 -0.515625 
Q 12.796875 0.390625 7.625 2.203125 
L 7.625 11.71875 
Q 11.71875 9.328125 16.59375 8.109375 
Q 21.484375 6.890625 26.8125 6.890625 
Q 36.078125 6.890625 40.9375 10.546875 
Q 45.796875 14.203125 45.796875 21.1875 
Q 45.796875 27.640625 41.28125 31.265625 
Q 36.765625 34.90625 28.71875 34.90625 
L 20.21875 34.90625 
L 20.21875 43.015625 
L 29.109375 43.015625 
Q 36.375 43.015625 40.234375 45.921875 
Q 44.09375 48.828125 44.09375 54.296875 
Q 44.09375 59.90625 40.109375 62.90625 
Q 36.140625 65.921875 28.71875 65.921875 
Q 24.65625 65.921875 20.015625 65.03125 
Q 15.375 64.15625 9.8125 62.3125 
L 9.8125 71.09375 
Q 15.4375 72.65625 20.34375 73.4375 
Q 25.25 74.21875 29.59375 74.21875 
Q 40.828125 74.21875 47.359375 69.109375 
Q 53.90625 64.015625 53.90625 55.328125 
Q 53.90625 49.265625 50.4375 45.09375 
Q 46.96875 40.921875 40.578125 39.3125 
" id="BitstreamVeraSans-Roman-33"/>
    </defs>
    <g style="fill:#808080;" transform="translate(221.76124999999996 379.0480946782178)scale(0.1 -0.1)">
     <use xlink:href="#BitstreamVeraSans-Roman-76"/>
     <use x="59.1796875" xlink:href="#BitstreamVeraSans-Roman-32"/>
     <use x="122.802734375" xlink:href="#BitstreamVeraSans-Roman-2e"/>
     <use x="154.58984375" xlink:href="#BitstreamVeraSans-Roman-33"/>
     <use x="218.212890625" xlink:href="#BitstreamVeraSans-Roman-2e"/>
     <use x="250.0" xlink:href="#BitstreamVeraSans-Roman-33"/>
    </g>
   </g>
  </g>
 </g>
 <defs>
  <clipPath id="p5840390da6">
   <rect height="377.22178217821784" width="365.8349999999999" x="54.52500000000001" y="7.678217821782141"/>
  </clipPath>
 </defs>
</svg>
