<?xml version="1.0" encoding="utf-8" standalone="no"?>
<!DOCTYPE svg PUBLIC "-//W3C//DTD SVG 1.1//EN"
  "http://www.w3.org/Graphics/SVG/1.1/DTD/svg11.dtd">
<!-- Created with matplotlib (http://matplotlib.org/) -->
<svg height="432pt" version="1.1" viewBox="0 0 576 432" width="576pt" xmlns="http://www.w3.org/2000/svg" xmlns:xlink="http://www.w3.org/1999/xlink">
 <defs>
  <style type="text/css">
*{stroke-linecap:butt;stroke-linejoin:round;stroke-miterlimit:100000;}
  </style>
 </defs>
 <g id="figure_1">
  <g id="patch_1">
   <path d="M 0 432 
L 576 432 
L 576 0 
L 0 0 
z
" style="fill:#ffffff;"/>
  </g>
  <g id="axes_1">
   <g id="patch_2">
    <path d="M 54.525 384.9 
L 420.36 384.9 
L 420.36 7.678218 
L 54.525 7.678218 
z
" style="fill:#ffffff;"/>
   </g>
   <g id="line2d_1">
    <path d="M 27.198236 384.9 
L 27.198236 383.435345 
L 58.663182 383.435345 
L 58.663182 381.970691 
L 68.487967 381.970691 
L 68.487967 380.506036 
L 69.68283 380.506036 
L 69.68283 379.041382 
L 70.817925 379.041382 
L 70.817925 307.273308 
L 71.364871 307.273308 
L 71.364871 304.343999 
L 71.898946 304.343999 
L 71.898946 235.505235 
L 112.301331 235.505235 
L 112.301331 234.04058 
L 119.293446 234.04058 
L 119.293446 232.575926 
L 119.68255 232.575926 
L 119.68255 231.111271 
L 121.355403 231.111271 
L 121.355403 229.646617 
L 121.474549 229.646617 
L 121.533888 225.252653 
L 121.593072 225.252653 
L 121.652103 216.464725 
L 121.71098 216.464725 
L 121.769705 201.81818 
L 121.828278 201.81818 
L 121.886701 195.959562 
L 121.944973 195.959562 
L 122.003097 176.919052 
L 122.061071 176.919052 
L 122.118899 160.807852 
L 122.234113 160.807852 
L 122.234113 159.343198 
L 122.74546 159.343198 
L 122.74546 157.878543 
L 123.190516 157.878543 
L 123.190516 156.413888 
L 136.665871 156.413888 
L 136.665871 154.949234 
L 158.205342 154.949234 
L 158.205342 153.484579 
L 164.077666 153.484579 
L 164.077666 152.019925 
L 168.820024 152.019925 
L 168.820024 150.55527 
L 170.256716 150.55527 
L 170.256716 149.090616 
L 173.195542 149.090616 
L 173.195542 147.625961 
L 174.990742 147.625961 
L 174.990742 146.161307 
L 178.548081 146.161307 
L 178.548081 144.696652 
L 180.144126 144.696652 
L 180.144126 143.231997 
L 185.975333 143.231997 
L 185.975333 141.767343 
L 187.754192 141.767343 
L 187.754192 140.302688 
L 189.221236 140.302688 
L 189.221236 138.838034 
L 189.391791 138.838034 
L 189.50182 77.322542 
L 189.504786 77.322542 
L 189.61427 52.423415 
L 189.617222 52.423415 
L 189.717352 40.706178 
L 189.743784 40.706178 
L 189.843358 26.059633 
L 235.372219 26.059633 
L 235.373399 23.130323 
L 255.649427 23.130323 
L 255.65007 11.413087 
L 420.36 11.413087 
L 420.36 11.413087 
" style="fill:none;stroke:#f5deb3;stroke-linecap:square;stroke-width:4.0;"/>
   </g>
   <g id="line2d_2">
    <defs>
     <path d="M -0 7.778175 
L 7.778175 0 
L 0 -7.778175 
L -7.778175 -0 
z
" id="mdac36db2ea" style="stroke:#f5deb3;stroke-linejoin:miter;stroke-width:1.5;"/>
    </defs>
    <g>
     <use style="fill:#f5deb3;stroke:#f5deb3;stroke-linejoin:miter;stroke-width:1.5;" x="71.89894628331794" xlink:href="#mdac36db2ea" y="304.34399914656575"/>
     <use style="fill:#f5deb3;stroke:#f5deb3;stroke-linejoin:miter;stroke-width:1.5;" x="158.2053419453207" xlink:href="#mdac36db2ea" y="154.94923392746958"/>
     <use style="fill:#f5deb3;stroke:#f5deb3;stroke-linejoin:miter;stroke-width:1.5;" x="189.84335848963948" xlink:href="#mdac36db2ea" y="27.52428712294636"/>
     <use style="fill:#f5deb3;stroke:#f5deb3;stroke-linejoin:miter;stroke-width:1.5;" x="255.65007019241534" xlink:href="#mdac36db2ea" y="12.877741513231115"/>
     <use style="fill:#f5deb3;stroke:#f5deb3;stroke-linejoin:miter;stroke-width:1.5;" x="255.65007019241534" xlink:href="#mdac36db2ea" y="11.413086952259562"/>
     <use style="fill:#f5deb3;stroke:#f5deb3;stroke-linejoin:miter;stroke-width:1.5;" x="420.3599999999999" xlink:href="#mdac36db2ea" y="11.413086952259562"/>
    </g>
   </g>
   <g id="line2d_3">
    <path d="M -15676.38 758.386913 
" style="fill:none;stroke:#f5deb3;stroke-linecap:square;stroke-width:4.0;"/>
    <g>
     <use style="fill:#f5deb3;stroke:#f5deb3;stroke-linejoin:miter;stroke-width:1.5;" x="-15676.379999999994" xlink:href="#mdac36db2ea" y="758.3869130477403"/>
    </g>
   </g>
   <g id="line2d_4">
    <path d="M 420.36 11.413087 
L 460.60185 18.882825 
" style="fill:none;stroke:#f5deb3;stroke-linecap:square;stroke-width:4.0;"/>
    <g>
     <use style="fill:#f5deb3;stroke:#f5deb3;stroke-linejoin:miter;stroke-width:1.5;" x="420.3599999999999" xlink:href="#mdac36db2ea" y="11.413086952259562"/>
     <use style="fill:#f5deb3;stroke:#f5deb3;stroke-linejoin:miter;stroke-width:1.5;" x="460.60184999999996" xlink:href="#mdac36db2ea" y="18.882825213214403"/>
    </g>
   </g>
   <g id="line2d_5">
    <defs>
     <path d="M 0 1.5 
C 0.397805 1.5 0.77937 1.341951 1.06066 1.06066 
C 1.341951 0.77937 1.5 0.397805 1.5 0 
C 1.5 -0.397805 1.341951 -0.77937 1.06066 -1.06066 
C 0.77937 -1.341951 0.397805 -1.5 0 -1.5 
C -0.397805 -1.5 -0.77937 -1.341951 -1.06066 -1.06066 
C -1.341951 -0.77937 -1.5 -0.397805 -1.5 0 
C -1.5 0.397805 -1.341951 0.77937 -1.06066 1.06066 
C -0.77937 1.341951 -0.397805 1.5 0 1.5 
z
" id="m22db69fd6d" style="stroke:#f5deb3;stroke-width:0.5;"/>
    </defs>
    <g>
     <use style="fill:#f5deb3;stroke:#f5deb3;stroke-width:0.5;" x="255.65007019241534" xlink:href="#m22db69fd6d" y="11.413086952259562"/>
     <use style="fill:#f5deb3;stroke:#f5deb3;stroke-width:0.5;" x="255.65007019241534" xlink:href="#m22db69fd6d" y="11.413086952259562"/>
    </g>
   </g>
   <g id="line2d_6">
    <defs>
     <path d="M 0 1.5 
C 0.397805 1.5 0.77937 1.341951 1.06066 1.06066 
C 1.341951 0.77937 1.5 0.397805 1.5 0 
C 1.5 -0.397805 1.341951 -0.77937 1.06066 -1.06066 
C 0.77937 -1.341951 0.397805 -1.5 0 -1.5 
C -0.397805 -1.5 -0.77937 -1.341951 -1.06066 -1.06066 
C -1.341951 -0.77937 -1.5 -0.397805 -1.5 0 
C -1.5 0.397805 -1.341951 0.77937 -1.06066 1.06066 
C -0.77937 1.341951 -0.397805 1.5 0 1.5 
z
" id="m92af84ab3d" style="stroke:#000080;stroke-width:0.5;"/>
    </defs>
    <g>
     <use style="fill:#000080;stroke:#000080;stroke-width:0.5;" x="341.8891243849867" xlink:href="#m92af84ab3d" y="294.09141721976505"/>
     <use style="fill:#000080;stroke:#000080;stroke-width:0.5;" x="341.8891243849867" xlink:href="#m92af84ab3d" y="294.09141721976505"/>
    </g>
   </g>
   <g id="line2d_7">
    <path d="M -1 384.021207 
L 36.401143 384.021207 
L 36.401143 383.728276 
L 104.646558 383.728276 
L 104.646558 383.581811 
L 110.735389 383.581811 
L 110.735389 383.142415 
L 113.598665 383.142415 
L 113.598665 382.995949 
L 116.587378 382.995949 
L 116.587378 382.849484 
L 127.810185 382.849484 
L 127.810185 382.556553 
L 128.821068 382.556553 
L 128.821068 382.263622 
L 129.034991 382.263622 
L 129.034991 382.117156 
L 129.953016 382.117156 
L 129.953016 381.970691 
L 137.087876 381.970691 
L 137.087876 381.824225 
L 137.207021 381.824225 
L 137.207021 381.531295 
L 137.995298 381.531295 
L 137.995298 381.384829 
L 138.506006 381.384829 
L 138.506006 381.238364 
L 140.849645 381.238364 
L 140.900195 380.945433 
L 141.547307 380.945433 
L 141.547307 380.652502 
L 144.596487 380.652502 
L 144.596487 380.359571 
L 145.949767 380.359571 
L 145.949767 380.06664 
L 146.567822 380.06664 
L 146.567822 379.920174 
L 147.265059 379.920174 
L 147.265059 379.773709 
L 148.125896 379.773709 
L 148.125896 379.627244 
L 148.435946 379.627244 
L 148.526337 379.334313 
L 149.306629 379.334313 
L 149.306629 379.187847 
L 149.755408 379.187847 
L 149.755408 379.041382 
L 149.925681 379.041382 
L 149.925681 378.748451 
L 151.018534 378.748451 
L 151.018534 378.45552 
L 151.195668 378.45552 
L 151.195668 378.162589 
L 152.580165 378.162589 
L 152.580165 377.869658 
L 153.395364 377.869658 
L 153.395364 377.430262 
L 153.913521 377.430262 
L 153.913521 377.283796 
L 154.069516 377.283796 
L 154.125977 376.990865 
L 156.225076 376.990865 
L 156.225076 376.8444 
L 156.783648 376.8444 
L 156.783648 376.697934 
L 157.255229 376.697934 
L 157.255229 376.551469 
L 159.173778 376.551469 
L 159.173778 376.405004 
L 159.431894 376.405004 
L 159.431894 375.965607 
L 160.974019 375.965607 
L 160.974019 375.819142 
L 161.140223 375.819142 
L 161.140223 375.672676 
L 161.458821 375.672676 
L 161.458821 375.526211 
L 162.092833 375.526211 
L 162.092833 375.23328 
L 162.52536 375.23328 
L 162.52536 374.940349 
L 162.949799 374.940349 
L 162.949799 374.793884 
L 163.357061 374.793884 
L 163.357061 374.647418 
L 163.469423 374.647418 
L 163.469423 374.500953 
L 164.041263 374.500953 
L 164.041263 374.354487 
L 164.687745 374.354487 
L 164.687745 373.768625 
L 164.802534 373.768625 
L 164.802534 373.62216 
L 165.607206 373.62216 
L 165.692055 373.329229 
L 166.219433 373.329229 
L 166.219433 373.182764 
L 167.064076 373.182764 
L 167.064076 373.036298 
L 167.412174 373.036298 
L 167.412174 372.889833 
L 167.64649 372.889833 
L 167.64649 372.743367 
L 168.893693 372.743367 
L 168.95979 372.303971 
L 169.280192 372.303971 
L 169.280192 372.157505 
L 170.878408 372.157505 
L 170.878408 371.864574 
L 171.026185 371.864574 
L 171.026185 371.718109 
L 171.483524 371.718109 
L 171.483524 371.571643 
L 171.627426 371.571643 
L 171.627426 371.425178 
L 172.0089 371.425178 
L 172.0089 371.278713 
L 172.92005 371.278713 
L 172.92005 371.132247 
L 173.647391 371.132247 
L 173.647391 370.985782 
L 174.166341 370.985782 
L 174.166341 370.839316 
L 174.467507 370.839316 
L 174.467507 370.692851 
L 174.923174 370.692851 
L 174.923174 370.546385 
L 175.568055 370.546385 
L 175.568055 370.39992 
L 176.544312 370.39992 
L 176.544312 370.253454 
L 177.181085 370.253454 
L 177.181085 370.106989 
L 177.323579 370.106989 
L 177.323579 369.960523 
L 177.555752 369.960523 
L 177.65096 369.521127 
L 177.685936 369.521127 
L 177.735809 369.228196 
L 177.983543 369.228196 
L 177.983543 368.642334 
L 178.204215 368.642334 
L 178.204215 368.495869 
L 178.379221 368.495869 
L 178.432427 368.202938 
L 178.820422 368.202938 
L 178.820422 364.541302 
L 179.131735 364.541302 
L 179.131735 364.248371 
L 179.299759 364.248371 
L 179.378673 363.95544 
L 179.461932 363.95544 
L 179.461932 363.808974 
L 179.964203 363.808974 
L 180.045345 363.516043 
L 180.220163 363.516043 
L 180.220163 363.076647 
L 180.653598 363.076647 
L 180.653598 362.783716 
L 180.767215 362.783716 
L 180.767215 362.637251 
L 180.958204 362.637251 
L 180.958204 362.34432 
L 181.241708 362.34432 
L 181.241708 358.389752 
L 181.99737 358.389752 
L 181.99737 358.243287 
L 182.264181 358.243287 
L 182.370034 353.849323 
L 182.768628 353.849323 
L 182.768628 349.45536 
L 183.363416 349.45536 
L 183.464276 344.91493 
L 184.31141 344.91493 
L 184.31141 344.768465 
L 184.511877 344.768465 
L 184.511877 344.475534 
L 184.739881 344.475534 
L 184.739881 344.182603 
L 185.285781 344.182603 
L 185.285781 341.253294 
L 185.664814 341.253294 
L 185.664814 336.85933 
L 186.10663 336.85933 
L 186.10663 336.712865 
L 186.610881 336.712865 
L 186.610881 336.273469 
L 186.872194 336.273469 
L 186.872194 336.127003 
L 188.207802 336.127003 
L 188.207802 332.758298 
L 189.717352 332.758298 
L 189.717352 332.611832 
L 190.576563 332.611832 
L 190.576563 332.465367 
L 190.991493 332.465367 
L 190.991493 332.318901 
L 191.467088 332.318901 
L 191.467088 328.80373 
L 192.875238 328.80373 
L 192.875238 328.657265 
L 194.21075 328.657265 
L 194.21075 328.364334 
L 196.97418 328.364334 
L 196.97418 328.217868 
L 197.921034 328.217868 
L 197.921034 327.924938 
L 198.36299 327.924938 
L 198.36299 327.778472 
L 199.758711 327.778472 
L 199.758711 327.485541 
L 200.164747 327.485541 
L 200.164747 323.238043 
L 200.323675 323.238043 
L 200.323675 322.945112 
L 201.229805 322.945112 
L 201.229805 322.798647 
L 203.539469 322.798647 
L 203.539469 322.652181 
L 204.977724 322.652181 
L 204.977724 322.505716 
L 205.11681 322.505716 
L 205.11681 322.35925 
L 248.531163 322.35925 
L 248.588995 322.066319 
L 248.660696 322.066319 
L 248.735007 321.626923 
L 248.790582 321.626923 
L 248.898941 319.722872 
L 248.936821 319.722872 
L 249.015193 318.111752 
L 249.067937 318.111752 
L 249.132783 313.424857 
L 249.180547 313.424857 
L 249.260429 310.202617 
L 249.318987 310.202617 
L 249.423165 308.737963 
L 249.65819 308.737963 
L 249.65819 307.419774 
L 250.460103 307.419774 
L 250.460103 306.101585 
L 250.578707 306.101585 
L 250.680077 305.808654 
L 263.960643 305.808654 
L 264.070827 305.369257 
L 264.107768 305.369257 
L 264.208194 302.879345 
L 264.227719 302.879345 
L 264.307408 301.268225 
L 264.431885 301.268225 
L 264.499425 300.682363 
L 264.919972 300.682363 
L 264.982772 299.80357 
L 273.034659 299.80357 
L 273.034659 299.657105 
L 273.200931 299.657105 
L 273.264997 298.924777 
L 273.314997 298.924777 
L 273.397302 298.338915 
L 273.682312 298.338915 
L 273.725018 298.045985 
L 279.499505 298.045985 
L 279.499505 297.899519 
L 279.617683 297.899519 
L 279.710681 297.313657 
L 284.525309 297.313657 
L 284.525309 297.167192 
L 284.655594 297.167192 
L 284.655594 297.020726 
L 284.943928 297.020726 
L 284.943928 296.874261 
L 292.11771 296.874261 
L 292.11771 296.727795 
L 300.249642 296.727795 
L 300.249642 296.58133 
L 304.304886 296.58133 
L 304.304886 296.288399 
L 304.480953 296.288399 
L 304.480953 296.141934 
L 307.844357 296.141934 
L 307.945414 295.702537 
L 309.356571 295.702537 
L 309.356571 295.556072 
L 310.950423 295.556072 
L 310.950423 295.409606 
L 312.315808 295.409606 
L 312.315808 295.263141 
L 314.710937 295.263141 
L 314.710937 295.116675 
L 319.070658 295.116675 
L 319.070658 294.97021 
L 322.700428 294.97021 
L 322.700428 294.823745 
L 331.066263 294.823745 
L 331.066263 294.677279 
L 331.603516 294.677279 
L 331.603516 294.530814 
L 334.770874 294.530814 
L 334.770874 294.384348 
L 336.202879 294.384348 
L 336.202879 294.237883 
L 341.889124 294.237883 
L 341.889124 294.091417 
L 420.36 294.091417 
L 420.36 294.091417 
" style="fill:none;stroke:#000080;stroke-linecap:square;stroke-width:1.5;"/>
   </g>
   <g id="line2d_8">
    <defs>
     <path d="M 0 6 
C 1.591219 6 3.117479 5.367802 4.242641 4.242641 
C 5.367802 3.117479 6 1.591219 6 0 
C 6 -1.591219 5.367802 -3.117479 4.242641 -4.242641 
C 3.117479 -5.367802 1.591219 -6 0 -6 
C -1.591219 -6 -3.117479 -5.367802 -4.242641 -4.242641 
C -5.367802 -3.117479 -6 -1.591219 -6 0 
C -6 1.591219 -5.367802 3.117479 -4.242641 4.242641 
C -3.117479 5.367802 -1.591219 6 0 6 
z
" id="m13bfcd02ec" style="stroke:#000080;stroke-width:1.5;"/>
    </defs>
    <g>
     <use style="fill:none;stroke:#000080;stroke-width:1.5;" x="173.64739128317103" xlink:href="#m13bfcd02ec" y="370.98578167077045"/>
     <use style="fill:none;stroke:#000080;stroke-width:1.5;" x="250.68007744970524" xlink:href="#m13bfcd02ec" y="305.8086537075373"/>
     <use style="fill:none;stroke:#000080;stroke-width:1.5;" x="341.8891243849867" xlink:href="#m13bfcd02ec" y="294.23788267586224"/>
     <use style="fill:none;stroke:#000080;stroke-width:1.5;" x="341.8891243849867" xlink:href="#m13bfcd02ec" y="294.09141721976505"/>
     <use style="fill:none;stroke:#000080;stroke-width:1.5;" x="420.3599999999999" xlink:href="#m13bfcd02ec" y="294.09141721976505"/>
    </g>
   </g>
   <g id="line2d_9">
    <path d="M -15676.38 758.386913 
" style="fill:none;stroke:#000080;stroke-linecap:square;stroke-width:1.5;"/>
    <g>
     <use style="fill:none;stroke:#000080;stroke-width:1.5;" x="-15676.379999999994" xlink:href="#m13bfcd02ec" y="758.3869130477403"/>
    </g>
   </g>
   <g id="line2d_10">
    <path clip-path="url(#pccb1a2a494)" d="M 247.839283 322.35925 
" style="fill:none;stroke:#000080;stroke-linecap:square;"/>
    <defs>
     <path d="M -12 12 
L 12 -12 
M -12 -12 
L 12 12 
" id="mb2e6abc2cf" style="stroke:#000080;"/>
    </defs>
    <g clip-path="url(#pccb1a2a494)">
     <use style="fill:#000080;stroke:#000080;" x="247.83928294544006" xlink:href="#mb2e6abc2cf" y="322.3592502465156"/>
    </g>
   </g>
   <g id="line2d_11">
    <defs>
     <path d="M 0 1.5 
C 0.397805 1.5 0.77937 1.341951 1.06066 1.06066 
C 1.341951 0.77937 1.5 0.397805 1.5 0 
C 1.5 -0.397805 1.341951 -0.77937 1.06066 -1.06066 
C 0.77937 -1.341951 0.397805 -1.5 0 -1.5 
C -0.397805 -1.5 -0.77937 -1.341951 -1.06066 -1.06066 
C -1.341951 -0.77937 -1.5 -0.397805 -1.5 0 
C -1.5 0.397805 -1.341951 0.77937 -1.06066 1.06066 
C -0.77937 1.341951 -0.397805 1.5 0 1.5 
z
" id="m5970f65704" style="stroke:#ff00ff;stroke-width:0.5;"/>
    </defs>
    <g>
     <use style="fill:#ff00ff;stroke:#ff00ff;stroke-width:0.5;" x="352.40142393499167" xlink:href="#m5970f65704" y="292.6267626587935"/>
     <use style="fill:#ff00ff;stroke:#ff00ff;stroke-width:0.5;" x="352.40142393499167" xlink:href="#m5970f65704" y="292.6267626587935"/>
    </g>
   </g>
   <g id="line2d_12">
    <path d="M -1 384.167673 
L 88.663286 384.167673 
L 88.663286 384.021207 
L 106.673372 384.021207 
L 106.673372 383.581811 
L 115.838228 383.581811 
L 115.838228 383.435345 
L 122.348745 383.435345 
L 122.348745 383.142415 
L 124.631243 383.142415 
L 124.631243 382.995949 
L 124.837114 382.995949 
L 124.837114 382.849484 
L 124.990301 382.849484 
L 124.990301 382.703018 
L 129.623469 382.703018 
L 129.623469 382.410087 
L 132.171985 382.410087 
L 132.171985 382.263622 
L 133.045061 382.263622 
L 133.045061 382.117156 
L 133.363996 382.117156 
L 133.363996 381.824225 
L 136.173773 381.824225 
L 136.173773 381.384829 
L 139.087661 381.384829 
L 139.087661 381.238364 
L 143.316813 381.238364 
L 143.339499 380.798967 
L 148.381538 380.798967 
L 148.381538 380.652502 
L 148.634333 380.652502 
L 148.634333 380.213105 
L 149.289189 380.213105 
L 149.289189 380.06664 
L 151.435007 380.06664 
L 151.435007 379.773709 
L 153.670309 379.773709 
L 153.670309 379.627244 
L 154.902023 379.627244 
L 155.010753 379.334313 
L 155.731358 379.334313 
L 155.731358 379.187847 
L 156.594766 379.187847 
L 156.594766 378.894916 
L 158.287642 378.894916 
L 158.287642 378.748451 
L 159.060631 378.748451 
L 159.060631 378.45552 
L 159.286363 378.45552 
L 159.286363 378.309054 
L 160.145873 378.309054 
L 160.145873 378.162589 
L 161.119514 378.162589 
L 161.119514 378.016124 
L 162.892386 378.016124 
L 162.92111 377.430262 
L 163.121171 377.430262 
L 163.121171 376.990865 
L 163.281842 376.990865 
L 163.30067 376.697934 
L 164.943019 376.697934 
L 164.943019 376.551469 
L 166.751007 376.551469 
L 166.767167 376.258538 
L 167.28621 376.258538 
L 167.380749 375.819142 
L 168.244625 375.819142 
L 168.244625 375.672676 
L 168.820024 375.672676 
L 168.820024 375.526211 
L 169.381196 375.526211 
L 169.381196 375.379745 
L 170.298236 375.379745 
L 170.298236 375.23328 
L 171.763941 375.23328 
L 171.763941 375.086814 
L 172.0089 375.086814 
L 172.0089 374.940349 
L 172.969272 374.940349 
L 172.969272 374.793884 
L 173.395465 374.793884 
L 173.455701 374.354487 
L 173.629489 374.354487 
L 173.629489 374.061556 
L 174.102117 374.061556 
L 174.166341 373.62216 
L 174.764729 373.62216 
L 174.849748 373.182764 
L 174.962613 373.182764 
L 174.962613 373.036298 
L 175.46918 373.036298 
L 175.46918 372.889833 
L 178.135791 372.889833 
L 178.135791 372.303971 
L 178.311323 372.303971 
L 178.311323 372.157505 
L 178.485508 372.157505 
L 178.485508 372.01104 
L 178.782395 372.01104 
L 178.782395 371.864574 
L 178.934121 371.864574 
L 178.934121 371.718109 
L 179.503447 371.718109 
L 179.503447 371.278713 
L 180.246939 371.278713 
L 180.246939 371.132247 
L 180.596576 371.132247 
L 180.596576 370.692851 
L 182.202887 370.692851 
L 182.2601 370.253454 
L 183.340077 370.253454 
L 183.390615 369.814058 
L 183.495219 369.814058 
L 183.495219 369.667593 
L 183.878497 369.667593 
L 183.935434 369.374662 
L 184.45637 369.374662 
L 184.526657 368.7888 
L 185.647242 368.7888 
L 185.647242 368.642334 
L 186.509569 368.642334 
L 186.509569 368.495869 
L 187.859679 368.495869 
L 187.859679 368.349403 
L 188.479403 368.349403 
L 188.479403 368.202938 
L 189.711475 368.202938 
L 189.793626 367.910007 
L 190.047 367.910007 
L 190.136604 367.470611 
L 190.280385 367.470611 
L 190.280385 367.324145 
L 191.171355 367.324145 
L 191.171355 367.17768 
L 191.809988 367.17768 
L 191.809988 367.031214 
L 192.150426 367.031214 
L 192.150426 366.884749 
L 192.399833 366.884749 
L 192.50923 366.591818 
L 192.65944 366.591818 
L 192.68008 366.298887 
L 193.099133 366.298887 
L 193.099133 366.152422 
L 194.145566 366.152422 
L 194.145566 366.005956 
L 194.824353 366.005956 
L 194.824353 365.859491 
L 195.371466 365.859491 
L 195.371466 365.713025 
L 195.813787 365.713025 
L 195.813787 365.56656 
L 197.224652 365.56656 
L 197.224652 365.420094 
L 197.346759 365.420094 
L 197.346759 365.273629 
L 197.861588 365.273629 
L 197.906699 364.980698 
L 199.200619 364.980698 
L 199.200619 364.834233 
L 199.835986 364.834233 
L 199.835986 364.687767 
L 201.077117 364.687767 
L 201.077117 364.541302 
L 201.229805 364.541302 
L 201.229805 364.394836 
L 201.535626 364.394836 
L 201.589681 364.101905 
L 202.328186 364.101905 
L 202.328186 363.95544 
L 202.450923 363.95544 
L 202.450923 363.808974 
L 202.747448 363.808974 
L 202.747448 363.662509 
L 203.041783 363.662509 
L 203.041783 363.516043 
L 203.462622 363.516043 
L 203.462622 363.369578 
L 203.949694 363.369578 
L 203.949694 363.223112 
L 206.347199 363.223112 
L 206.347199 363.076647 
L 206.655799 363.076647 
L 206.655799 358.096822 
L 208.293611 358.096822 
L 208.293611 357.950356 
L 209.886499 357.950356 
L 209.886499 357.803891 
L 213.956506 357.803891 
L 213.956506 357.657425 
L 249.579278 357.657425 
L 249.636391 357.364494 
L 249.935968 357.364494 
L 250.03942 357.071563 
L 250.357743 357.071563 
L 250.357743 356.778632 
L 250.562204 356.778632 
L 250.651218 356.192771 
L 250.678275 356.192771 
L 250.678275 356.046305 
L 251.265898 356.046305 
L 251.265898 352.824065 
L 251.736833 352.824065 
L 251.747154 352.531134 
L 252.44135 352.531134 
L 252.44135 352.384669 
L 263.988964 352.384669 
L 263.988964 352.238203 
L 264.458859 352.238203 
L 264.542963 351.945272 
L 264.655773 351.945272 
L 264.698904 351.505876 
L 264.771362 351.505876 
L 264.771362 351.359411 
L 264.885616 351.359411 
L 264.885616 351.212945 
L 265.002175 351.212945 
L 265.051353 350.773549 
L 265.350087 350.773549 
L 265.350087 347.111912 
L 265.477652 347.111912 
L 265.477652 346.818981 
L 273.05395 346.818981 
L 273.05395 346.526051 
L 273.224087 346.526051 
L 273.224087 346.379585 
L 273.370195 346.379585 
L 273.370195 346.23312 
L 273.718341 346.23312 
L 273.761559 345.647258 
L 273.844067 345.647258 
L 273.844067 345.500792 
L 273.975847 345.500792 
L 274.063158 342.425018 
L 279.514241 342.425018 
L 279.514241 342.278552 
L 279.642352 342.278552 
L 279.642352 342.132087 
L 279.831482 342.132087 
L 279.831482 341.985621 
L 280.01685 341.985621 
L 280.031144 341.69269 
L 280.199244 341.69269 
L 280.211242 337.884589 
L 284.966579 337.884589 
L 285.055813 337.298727 
L 285.087943 337.298727 
L 285.097617 334.662349 
L 289.116115 334.662349 
L 289.116115 332.465367 
L 292.200133 332.465367 
L 292.200133 332.318901 
L 292.470925 332.318901 
L 292.567616 330.268385 
L 295.495183 330.268385 
L 295.495183 328.950196 
L 298.072733 328.950196 
L 298.148312 326.313818 
L 300.469128 326.313818 
L 300.469128 323.97037 
L 302.388809 323.97037 
L 302.429326 323.677439 
L 302.599298 323.677439 
L 302.599298 322.066319 
L 304.464683 322.066319 
L 304.546588 320.74813 
L 306.121803 320.74813 
L 306.121803 320.601665 
L 306.339932 320.601665 
L 306.339932 318.404683 
L 307.836158 318.404683 
L 307.836158 318.258217 
L 307.972534 318.258217 
L 308.001897 316.793563 
L 309.484751 316.793563 
L 309.550427 315.328908 
L 311.000022 315.328908 
L 311.000022 313.571323 
L 312.195463 313.571323 
L 312.195463 313.424857 
L 312.319015 313.424857 
L 312.362567 311.227876 
L 313.490056 311.227876 
L 313.490056 311.08141 
L 313.647928 311.08141 
L 313.647928 309.909686 
L 314.864383 309.909686 
L 314.864383 308.591497 
L 315.876782 308.591497 
L 315.876782 308.445032 
L 316.018945 308.445032 
L 316.018945 307.566239 
L 317.08571 307.566239 
L 317.117608 306.833912 
L 318.059763 306.833912 
L 318.165537 305.808654 
L 319.066013 305.808654 
L 319.16721 305.076326 
L 320.12654 305.076326 
L 320.12654 304.343999 
L 321.046961 304.343999 
L 321.046961 303.611672 
L 321.931507 303.611672 
L 321.931507 302.879345 
L 322.78287 302.879345 
L 322.78287 302.586414 
L 323.60345 302.586414 
L 323.60345 301.854086 
L 324.395395 301.854086 
L 324.395395 301.41469 
L 325.160638 301.41469 
L 325.160638 301.121759 
L 325.840179 301.121759 
L 325.900918 300.242966 
L 326.528798 300.242966 
L 326.617815 299.217708 
L 327.31276 299.217708 
L 327.31276 298.485381 
L 327.987058 298.485381 
L 327.987058 297.753054 
L 328.575289 297.753054 
L 328.6419 297.020726 
L 329.278378 297.020726 
L 329.278378 296.288399 
L 329.897493 296.288399 
L 329.897493 296.141934 
L 330.4388 296.141934 
L 330.500168 295.556072 
L 331.087253 295.556072 
L 331.087253 295.409606 
L 331.659535 295.409606 
L 331.659535 295.116675 
L 332.762548 295.116675 
L 332.762548 294.97021 
L 333.228286 294.97021 
L 333.294584 294.237883 
L 334.322643 294.237883 
L 334.322643 294.091417 
L 335.782366 294.091417 
L 335.782366 293.798486 
L 336.248799 293.798486 
L 336.248799 293.505555 
L 336.705839 293.505555 
L 336.705839 293.35909 
L 337.593202 293.35909 
L 337.593202 293.212624 
L 338.447175 293.212624 
L 338.447175 293.066159 
L 346.184142 293.066159 
L 346.184142 292.919694 
L 349.505003 292.919694 
L 349.505003 292.773228 
L 352.401424 292.773228 
L 352.401424 292.626763 
L 420.36 292.626763 
L 420.36 292.626763 
" style="fill:none;stroke:#ff00ff;stroke-linecap:square;stroke-width:1.5;"/>
   </g>
   <g id="line2d_13">
    <defs>
     <path d="M -0 8.485281 
L 5.091169 0 
L 0 -8.485281 
L -5.091169 -0 
z
" id="m234dae050f" style="stroke:#ff00ff;stroke-linejoin:miter;stroke-width:1.5;"/>
    </defs>
    <g>
     <use style="fill:none;stroke:#ff00ff;stroke-linejoin:miter;stroke-width:1.5;" x="203.94969414153493" xlink:href="#m234dae050f" y="363.3695779537185"/>
     <use style="fill:none;stroke:#ff00ff;stroke-linejoin:miter;stroke-width:1.5;" x="295.49518308925053" xlink:href="#m234dae050f" y="330.26838487576185"/>
     <use style="fill:none;stroke:#ff00ff;stroke-linejoin:miter;stroke-width:1.5;" x="352.40142393499167" xlink:href="#m234dae050f" y="292.7732281148907"/>
     <use style="fill:none;stroke:#ff00ff;stroke-linejoin:miter;stroke-width:1.5;" x="352.40142393499167" xlink:href="#m234dae050f" y="292.6267626587935"/>
     <use style="fill:none;stroke:#ff00ff;stroke-linejoin:miter;stroke-width:1.5;" x="420.3599999999999" xlink:href="#m234dae050f" y="292.6267626587935"/>
    </g>
   </g>
   <g id="line2d_14">
    <path d="M -15676.38 758.386913 
" style="fill:none;stroke:#ff00ff;stroke-linecap:square;stroke-width:1.5;"/>
    <g>
     <use style="fill:none;stroke:#ff00ff;stroke-linejoin:miter;stroke-width:1.5;" x="-15676.379999999994" xlink:href="#m234dae050f" y="758.3869130477403"/>
    </g>
   </g>
   <g id="line2d_15">
    <path clip-path="url(#pccb1a2a494)" d="M 247.840191 357.657425 
" style="fill:none;stroke:#ff00ff;stroke-linecap:square;"/>
    <defs>
     <path d="M -12 12 
L 12 -12 
M -12 -12 
L 12 12 
" id="me8852e86d8" style="stroke:#ff00ff;"/>
    </defs>
    <g clip-path="url(#pccb1a2a494)">
     <use style="fill:#ff00ff;stroke:#ff00ff;" x="247.84019088632687" xlink:href="#me8852e86d8" y="357.6574251659295"/>
    </g>
   </g>
   <g id="line2d_16">
    <defs>
     <path d="M 0 1.5 
C 0.397805 1.5 0.77937 1.341951 1.06066 1.06066 
C 1.341951 0.77937 1.5 0.397805 1.5 0 
C 1.5 -0.397805 1.341951 -0.77937 1.06066 -1.06066 
C 0.77937 -1.341951 0.397805 -1.5 0 -1.5 
C -0.397805 -1.5 -0.77937 -1.341951 -1.06066 -1.06066 
C -1.341951 -0.77937 -1.5 -0.397805 -1.5 0 
C -1.5 0.397805 -1.341951 0.77937 -1.06066 1.06066 
C -0.77937 1.341951 -0.397805 1.5 0 1.5 
z
" id="mf0c30b83f9" style="stroke:#ffa500;stroke-width:0.5;"/>
    </defs>
    <g>
     <use style="fill:#ffa500;stroke:#ffa500;stroke-width:0.5;" x="330.4215940969711" xlink:href="#mf0c30b83f9" y="292.6267626587935"/>
     <use style="fill:#ffa500;stroke:#ffa500;stroke-width:0.5;" x="330.4215940969711" xlink:href="#mf0c30b83f9" y="292.6267626587935"/>
    </g>
   </g>
   <g id="line2d_17">
    <path d="M -1 384.314138 
L 80.567777 384.314138 
L 80.567777 384.167673 
L 113.598665 384.167673 
L 113.598665 384.021207 
L 123.30043 384.021207 
L 123.30043 383.874742 
L 137.937837 383.874742 
L 137.937837 383.728276 
L 141.98474 383.728276 
L 141.98474 383.435345 
L 143.316813 383.435345 
L 143.316813 382.995949 
L 155.186334 382.995949 
L 155.186334 382.703018 
L 156.070322 382.703018 
L 156.070322 382.556553 
L 157.753287 382.556553 
L 157.753287 382.263622 
L 158.648569 382.263622 
L 158.648569 382.117156 
L 159.80816 382.117156 
L 159.80816 381.970691 
L 161.499606 381.970691 
L 161.499606 381.824225 
L 163.609099 381.824225 
L 163.609099 381.384829 
L 166.507211 381.384829 
L 166.57248 380.798967 
L 167.778203 380.798967 
L 167.778203 380.359571 
L 168.289989 380.359571 
L 168.289989 380.213105 
L 169.496083 380.213105 
L 169.581867 379.773709 
L 170.263642 379.773709 
L 170.263642 379.480778 
L 170.831186 379.480778 
L 170.858182 379.041382 
L 171.627426 379.041382 
L 171.627426 378.894916 
L 172.053737 378.894916 
L 172.053737 378.748451 
L 172.174993 378.748451 
L 172.174993 378.45552 
L 172.559967 378.45552 
L 172.559967 378.309054 
L 173.503776 378.309054 
L 173.503776 378.162589 
L 173.772314 378.162589 
L 173.772314 377.869658 
L 174.340578 377.869658 
L 174.340578 377.723193 
L 175.6228 377.723193 
L 175.6228 377.576727 
L 176.46542 377.576727 
L 176.46542 377.430262 
L 176.93987 377.430262 
L 176.93987 377.283796 
L 177.078754 377.283796 
L 177.170873 376.697934 
L 177.725843 376.697934 
L 177.725843 376.551469 
L 178.243222 376.551469 
L 178.243222 376.405004 
L 178.782395 376.405004 
L 178.782395 376.112073 
L 178.995471 376.112073 
L 178.995471 375.965607 
L 179.141102 375.965607 
L 179.141102 375.819142 
L 180.561414 375.819142 
L 180.561414 375.672676 
L 180.789 375.672676 
L 180.789 375.379745 
L 181.022949 375.379745 
L 181.022949 375.23328 
L 181.458379 375.23328 
L 181.458379 374.940349 
L 182.001499 374.940349 
L 182.042744 374.500953 
L 182.166031 374.500953 
L 182.166031 374.061556 
L 182.394391 374.061556 
L 182.394391 373.62216 
L 182.828415 373.62216 
L 182.828415 373.475694 
L 183.32061 373.475694 
L 183.429414 372.889833 
L 183.526121 372.889833 
L 183.526121 372.743367 
L 183.905085 372.743367 
L 183.999791 372.450436 
L 184.071504 372.450436 
L 184.071504 372.303971 
L 184.307681 372.303971 
L 184.307681 372.01104 
L 184.769134 372.01104 
L 184.849388 371.571643 
L 185.063223 371.571643 
L 185.063223 371.425178 
L 185.253609 371.425178 
L 185.253609 370.839316 
L 185.975333 370.839316 
L 185.975333 370.692851 
L 186.092845 370.692851 
L 186.092845 370.546385 
L 186.694963 370.546385 
L 186.701676 370.106989 
L 186.815497 370.106989 
L 186.815497 369.960523 
L 186.945357 369.960523 
L 186.945357 369.814058 
L 187.310944 369.814058 
L 187.310944 369.667593 
L 187.840536 369.667593 
L 187.840536 369.374662 
L 188.125999 369.374662 
L 188.125999 369.081731 
L 188.301825 369.081731 
L 188.301825 368.935265 
L 188.414141 368.935265 
L 188.501115 368.495869 
L 188.821276 368.495869 
L 188.854876 367.763542 
L 189.133968 367.763542 
L 189.133968 367.470611 
L 189.299192 367.470611 
L 189.361962 366.884749 
L 189.930857 366.884749 
L 189.930857 366.738283 
L 190.570903 366.738283 
L 190.641545 361.465527 
L 190.815793 361.465527 
L 190.846569 361.026131 
L 191.132736 361.026131 
L 191.240155 357.51096 
L 191.284078 357.51096 
L 191.374402 342.278552 
L 191.613522 342.278552 
L 191.613522 341.839156 
L 191.879554 341.839156 
L 191.978186 333.930021 
L 192.365865 333.930021 
L 192.43375 329.828989 
L 192.800968 329.828989 
L 192.877794 325.874421 
L 193.068731 325.874421 
L 193.068731 325.727956 
L 193.547851 325.727956 
L 193.651865 317.086494 
L 193.792268 317.086494 
L 193.804542 308.737963 
L 194.007339 308.737963 
L 194.007339 305.222792 
L 194.704367 305.222792 
L 194.704367 304.929861 
L 195.034556 304.929861 
L 195.034556 300.682363 
L 196.218985 300.682363 
L 196.218985 300.242966 
L 196.33344 300.242966 
L 196.33344 299.950035 
L 196.931452 299.950035 
L 196.982716 299.657105 
L 198.260365 299.657105 
L 198.260365 299.510639 
L 198.806351 299.510639 
L 198.806351 299.364174 
L 198.935926 299.364174 
L 198.935926 299.217708 
L 199.366419 299.217708 
L 199.43355 298.924777 
L 199.500484 298.924777 
L 199.500484 298.778312 
L 200.962818 298.778312 
L 200.962818 298.631846 
L 201.125165 298.631846 
L 201.125165 298.485381 
L 202.060239 298.485381 
L 202.167458 298.19245 
L 203.795345 298.19245 
L 203.795345 297.899519 
L 205.754842 297.899519 
L 205.754842 297.753054 
L 205.926698 297.753054 
L 205.926698 297.606588 
L 207.918508 297.606588 
L 207.918508 297.313657 
L 208.133611 297.313657 
L 208.133611 297.167192 
L 208.552671 297.167192 
L 208.552671 297.020726 
L 211.550752 297.020726 
L 211.550752 296.874261 
L 211.768679 296.874261 
L 211.768679 296.727795 
L 212.372304 296.727795 
L 212.372304 296.58133 
L 216.354354 296.58133 
L 216.354354 296.434865 
L 251.142206 296.434865 
L 251.142206 296.288399 
L 251.740465 296.288399 
L 251.740465 296.141934 
L 251.991382 296.141934 
L 252.028216 295.702537 
L 252.874571 295.702537 
L 252.874571 295.556072 
L 265.268505 295.556072 
L 265.281456 295.116675 
L 273.383458 295.116675 
L 273.383458 294.823745 
L 292.250875 294.823745 
L 292.250875 294.677279 
L 292.481566 294.677279 
L 292.481566 294.384348 
L 295.449535 294.384348 
L 295.449535 294.237883 
L 302.409404 294.237883 
L 302.409404 294.091417 
L 304.369659 294.091417 
L 304.369659 293.944952 
L 306.299199 293.944952 
L 306.299199 293.798486 
L 317.079909 293.798486 
L 317.079909 293.652021 
L 319.058885 293.652021 
L 319.129942 293.35909 
L 322.746274 293.35909 
L 322.746274 293.212624 
L 324.302648 293.212624 
L 324.302648 293.066159 
L 329.197265 293.066159 
L 329.197265 292.919694 
L 329.817684 292.919694 
L 329.817684 292.773228 
L 330.421594 292.773228 
L 330.421594 292.626763 
L 420.36 292.626763 
L 420.36 292.626763 
" style="fill:none;stroke:#ffa500;stroke-linecap:square;stroke-width:1.5;"/>
   </g>
   <g id="line2d_18">
    <defs>
     <path d="M 0 -6 
L -1.347084 -1.854102 
L -5.706339 -1.854102 
L -2.179628 0.708204 
L -3.526712 4.854102 
L -0 2.291796 
L 3.526712 4.854102 
L 2.179628 0.708204 
L 5.706339 -1.854102 
L 1.347084 -1.854102 
z
" id="mce8e117717" style="stroke:#ffa500;stroke-linejoin:bevel;stroke-width:1.5;"/>
    </defs>
    <g>
     <use style="fill:none;stroke:#ffa500;stroke-linejoin:bevel;stroke-width:1.5;" x="113.59866488533865" xlink:href="#mce8e117717" y="384.1676727195142"/>
     <use style="fill:none;stroke:#ffa500;stroke-linejoin:bevel;stroke-width:1.5;" x="193.80454230853883" xlink:href="#mce8e117717" y="308.73796282948035"/>
     <use style="fill:none;stroke:#ffa500;stroke-linejoin:bevel;stroke-width:1.5;" x="295.44953484901964" xlink:href="#mce8e117717" y="294.38434813195937"/>
     <use style="fill:none;stroke:#ffa500;stroke-linejoin:bevel;stroke-width:1.5;" x="330.4215940969711" xlink:href="#mce8e117717" y="292.6267626587935"/>
     <use style="fill:none;stroke:#ffa500;stroke-linejoin:bevel;stroke-width:1.5;" x="330.4215940969711" xlink:href="#mce8e117717" y="292.6267626587935"/>
     <use style="fill:none;stroke:#ffa500;stroke-linejoin:bevel;stroke-width:1.5;" x="420.3599999999999" xlink:href="#mce8e117717" y="292.6267626587935"/>
    </g>
   </g>
   <g id="line2d_19">
    <path d="M -15676.38 758.386913 
" style="fill:none;stroke:#ffa500;stroke-linecap:square;stroke-width:1.5;"/>
    <g>
     <use style="fill:none;stroke:#ffa500;stroke-linejoin:bevel;stroke-width:1.5;" x="-15676.379999999994" xlink:href="#mce8e117717" y="758.3869130477403"/>
    </g>
   </g>
   <g id="line2d_20">
    <path clip-path="url(#pccb1a2a494)" d="M 247.807482 296.434865 
" style="fill:none;stroke:#ffa500;stroke-linecap:square;"/>
    <defs>
     <path d="M -12 12 
L 12 -12 
M -12 -12 
L 12 12 
" id="mb926550d07" style="stroke:#ffa500;"/>
    </defs>
    <g clip-path="url(#pccb1a2a494)">
     <use style="fill:#ffa500;stroke:#ffa500;" x="247.80748211123378" xlink:href="#mb926550d07" y="296.4348645173195"/>
    </g>
   </g>
   <g id="line2d_21">
    <defs>
     <path d="M 0 1.5 
C 0.397805 1.5 0.77937 1.341951 1.06066 1.06066 
C 1.341951 0.77937 1.5 0.397805 1.5 0 
C 1.5 -0.397805 1.341951 -0.77937 1.06066 -1.06066 
C 0.77937 -1.341951 0.397805 -1.5 0 -1.5 
C -0.397805 -1.5 -0.77937 -1.341951 -1.06066 -1.06066 
C -1.341951 -0.77937 -1.5 -0.397805 -1.5 0 
C -1.5 0.397805 -1.341951 0.77937 -1.06066 1.06066 
C -0.77937 1.341951 -0.397805 1.5 0 1.5 
z
" id="m39e7d59696" style="stroke:#6495ed;stroke-width:0.5;"/>
    </defs>
    <g>
     <use style="fill:#6495ed;stroke:#6495ed;stroke-width:0.5;" x="308.84082481920666" xlink:href="#m39e7d59696" y="373.1827635122277"/>
     <use style="fill:#6495ed;stroke:#6495ed;stroke-width:0.5;" x="308.84082481920666" xlink:href="#m39e7d59696" y="373.1827635122277"/>
    </g>
   </g>
   <g id="line2d_22">
    <path d="M -13.469615 384.9 
M -1 384.607069 
L 89.890458 384.607069 
L 89.890458 384.460604 
L 94.423383 384.460604 
L 94.423383 384.314138 
L 97.697439 384.314138 
L 97.697439 384.167673 
L 117.454891 384.167673 
L 117.454891 384.021207 
L 118.629739 384.021207 
L 118.629739 383.874742 
L 120.191191 383.874742 
L 120.191191 383.728276 
L 126.610462 383.728276 
L 126.610462 383.581811 
L 126.705034 383.581811 
L 126.705034 383.435345 
L 133.045061 383.435345 
L 133.045061 383.142415 
L 136.14266 383.142415 
L 136.14266 382.995949 
L 142.4139 382.995949 
L 142.4139 382.703018 
L 147.54937 382.703018 
L 147.54937 382.556553 
L 150.709281 382.556553 
L 150.709281 382.263622 
L 155.010753 382.263622 
L 155.010753 382.117156 
L 157.487396 382.117156 
L 157.487396 381.67776 
L 165.402264 381.67776 
L 165.402264 381.531295 
L 166.791386 381.531295 
L 166.791386 381.091898 
L 168.327724 381.091898 
L 168.327724 380.945433 
L 172.282939 380.945433 
L 172.282939 380.652502 
L 173.990756 380.652502 
L 173.990756 380.359571 
L 181.918783 380.359571 
L 181.918783 380.213105 
L 191.932922 380.213105 
L 191.932922 379.920174 
L 192.376322 379.920174 
L 192.376322 379.773709 
L 199.531016 379.773709 
L 199.531016 379.627244 
L 206.434594 379.627244 
L 206.434594 379.480778 
L 208.379002 379.480778 
L 208.379002 379.334313 
L 211.624747 379.334313 
L 211.624747 378.748451 
L 211.74197 378.748451 
L 211.74197 378.601985 
L 217.411672 378.601985 
L 217.411672 378.45552 
L 217.592237 378.45552 
L 217.592237 378.162589 
L 218.993742 378.162589 
L 218.993742 377.869658 
L 220.443865 377.869658 
L 220.443865 377.576727 
L 223.225305 377.576727 
L 223.225305 377.430262 
L 224.283222 377.430262 
L 224.283222 377.283796 
L 227.270869 377.283796 
L 227.270869 377.137331 
L 229.093401 377.137331 
L 229.093401 376.551469 
L 229.223157 376.551469 
L 229.223157 376.405004 
L 236.136459 376.405004 
L 236.136459 376.258538 
L 238.856507 376.258538 
L 238.856507 376.112073 
L 239.950558 376.112073 
L 239.950558 375.819142 
L 240.05507 375.819142 
L 240.05507 375.672676 
L 244.016593 375.672676 
L 244.016593 375.526211 
L 244.645521 375.526211 
L 244.645521 375.379745 
L 255.981503 375.379745 
L 255.981503 375.23328 
L 258.407049 375.23328 
L 258.407049 375.086814 
L 258.453312 375.086814 
L 258.453312 374.940349 
L 262.019826 374.940349 
L 262.019826 374.793884 
L 263.508906 374.793884 
L 263.508906 374.647418 
L 264.516523 374.647418 
L 264.516523 374.500953 
L 267.997445 374.500953 
L 267.997445 374.354487 
L 271.984065 374.354487 
L 271.984065 374.208022 
L 275.812746 374.208022 
L 275.812746 374.061556 
L 277.57705 374.061556 
L 277.57705 373.915091 
L 278.708518 373.915091 
L 278.708518 373.768625 
L 281.615344 373.768625 
L 281.615344 373.475694 
L 284.331287 373.475694 
L 284.331287 373.329229 
L 308.840825 373.329229 
L 308.840825 373.182764 
L 420.36 373.182764 
" style="fill:none;stroke:#6495ed;stroke-linecap:square;stroke-width:1.5;"/>
   </g>
   <g id="line2d_23">
    <defs>
     <path d="M -0 6 
L 6 -6 
L -6 -6 
z
" id="m22f4210c90" style="stroke:#6495ed;stroke-linejoin:miter;stroke-width:1.5;"/>
    </defs>
    <g>
     <use style="fill:none;stroke:#6495ed;stroke-linejoin:miter;stroke-width:1.5;" x="150.7092813411753" xlink:href="#m22f4210c90" y="382.26362179025125"/>
     <use style="fill:none;stroke:#6495ed;stroke-linejoin:miter;stroke-width:1.5;" x="244.6455208244479" xlink:href="#m22f4210c90" y="375.37974535368505"/>
     <use style="fill:none;stroke:#6495ed;stroke-linejoin:miter;stroke-width:1.5;" x="308.84082481920666" xlink:href="#m22f4210c90" y="373.32922896832486"/>
     <use style="fill:none;stroke:#6495ed;stroke-linejoin:miter;stroke-width:1.5;" x="308.84082481920666" xlink:href="#m22f4210c90" y="373.1827635122277"/>
     <use style="fill:none;stroke:#6495ed;stroke-linejoin:miter;stroke-width:1.5;" x="420.3599999999999" xlink:href="#m22f4210c90" y="373.1827635122277"/>
    </g>
   </g>
   <g id="line2d_24">
    <path d="M -15676.38 758.386913 
" style="fill:none;stroke:#6495ed;stroke-linecap:square;stroke-width:1.5;"/>
    <g>
     <use style="fill:none;stroke:#6495ed;stroke-linejoin:miter;stroke-width:1.5;" x="-15676.379999999994" xlink:href="#m22f4210c90" y="758.3869130477403"/>
    </g>
   </g>
   <g id="line2d_25">
    <path clip-path="url(#pccb1a2a494)" d="M 247.81839 375.379745 
" style="fill:none;stroke:#6495ed;stroke-linecap:square;"/>
    <defs>
     <path d="M -12 12 
L 12 -12 
M -12 -12 
L 12 12 
" id="me63e45e2d0" style="stroke:#6495ed;"/>
    </defs>
    <g clip-path="url(#pccb1a2a494)">
     <use style="fill:#6495ed;stroke:#6495ed;" x="247.8183902744885" xlink:href="#me63e45e2d0" y="375.37974535368505"/>
    </g>
   </g>
   <g id="line2d_26">
    <path d="M 420.36 373.182764 
L 460.60185 377.430262 
" style="fill:none;stroke:#6495ed;stroke-linecap:square;stroke-width:1.5;"/>
    <g>
     <use style="fill:none;stroke:#6495ed;stroke-linejoin:miter;stroke-width:1.5;" x="420.3599999999999" xlink:href="#m22f4210c90" y="373.1827635122277"/>
     <use style="fill:none;stroke:#6495ed;stroke-linejoin:miter;stroke-width:1.5;" x="460.60184999999996" xlink:href="#m22f4210c90" y="377.4302617390452"/>
    </g>
   </g>
   <g id="line2d_27">
    <path d="M 420.36 294.091417 
L 460.60185 287.793403 
" style="fill:none;stroke:#000080;stroke-linecap:square;stroke-width:1.5;"/>
    <g>
     <use style="fill:none;stroke:#000080;stroke-width:1.5;" x="420.3599999999999" xlink:href="#m13bfcd02ec" y="294.09141721976505"/>
     <use style="fill:none;stroke:#000080;stroke-width:1.5;" x="460.60184999999996" xlink:href="#m13bfcd02ec" y="287.7934026075875"/>
    </g>
   </g>
   <g id="line2d_28">
    <path d="M 420.36 292.626763 
L 460.60185 198.156543 
" style="fill:none;stroke:#ff00ff;stroke-linecap:square;stroke-width:1.5;"/>
    <g>
     <use style="fill:none;stroke:#ff00ff;stroke-linejoin:miter;stroke-width:1.5;" x="420.3599999999999" xlink:href="#m234dae050f" y="292.6267626587935"/>
     <use style="fill:none;stroke:#ff00ff;stroke-linejoin:miter;stroke-width:1.5;" x="460.60184999999996" xlink:href="#m234dae050f" y="198.15654347612977"/>
    </g>
   </g>
   <g id="line2d_29">
    <path d="M 420.36 292.626763 
L 460.60185 108.519684 
" style="fill:none;stroke:#ffa500;stroke-linecap:square;stroke-width:1.5;"/>
    <g>
     <use style="fill:none;stroke:#ffa500;stroke-linejoin:bevel;stroke-width:1.5;" x="420.3599999999999" xlink:href="#mce8e117717" y="292.6267626587935"/>
     <use style="fill:none;stroke:#ffa500;stroke-linejoin:bevel;stroke-width:1.5;" x="460.60184999999996" xlink:href="#mce8e117717" y="108.5196843446721"/>
    </g>
   </g>
   <g id="line2d_30">
    <path d="M 420.36 384.9 
L 420.36 11.413087 
" style="fill:none;stroke:#000000;stroke-linecap:square;"/>
   </g>
   <g id="patch_3">
    <path d="M 54.525 384.9 
L 420.36 384.9 
" style="fill:none;stroke:#000000;stroke-linecap:square;stroke-linejoin:miter;"/>
   </g>
   <g id="patch_4">
    <path d="M 54.525 384.9 
L 54.525 7.678218 
" style="fill:none;stroke:#000000;stroke-linecap:square;stroke-linejoin:miter;"/>
   </g>
   <g id="patch_5">
    <path d="M 420.36 384.9 
L 420.36 7.678218 
" style="fill:none;stroke:#000000;stroke-linecap:square;stroke-linejoin:miter;"/>
   </g>
   <g id="patch_6">
    <path d="M 54.525 7.678218 
L 420.36 7.678218 
" style="fill:none;stroke:#000000;stroke-linecap:square;stroke-linejoin:miter;"/>
   </g>
   <g id="matplotlib.axis_1">
    <g id="xtick_1">
     <g id="line2d_31">
      <path clip-path="url(#pccb1a2a494)" d="M 54.525 384.9 
L 54.525 7.678218 
" style="fill:none;stroke:#000000;stroke-dasharray:1.000000,3.000000;stroke-dashoffset:0.0;stroke-width:0.5;"/>
     </g>
     <g id="line2d_32">
      <defs>
       <path d="M 0 0 
L 0 -4 
" id="m370bb5577c" style="stroke:#000000;stroke-width:0.5;"/>
      </defs>
      <g>
       <use style="stroke:#000000;stroke-width:0.5;" x="54.52500000000001" xlink:href="#m370bb5577c" y="384.9"/>
      </g>
     </g>
     <g id="line2d_33">
      <defs>
       <path d="M 0 0 
L 0 4 
" id="m14ae8d8c3d" style="stroke:#000000;stroke-width:0.5;"/>
      </defs>
      <g>
       <use style="stroke:#000000;stroke-width:0.5;" x="54.52500000000001" xlink:href="#m14ae8d8c3d" y="7.678217821782141"/>
      </g>
     </g>
     <g id="text_1">
      <!-- 0 -->
      <defs>
       <path d="M 31.78125 66.40625 
Q 24.171875 66.40625 20.328125 58.90625 
Q 16.5 51.421875 16.5 36.375 
Q 16.5 21.390625 20.328125 13.890625 
Q 24.171875 6.390625 31.78125 6.390625 
Q 39.453125 6.390625 43.28125 13.890625 
Q 47.125 21.390625 47.125 36.375 
Q 47.125 51.421875 43.28125 58.90625 
Q 39.453125 66.40625 31.78125 66.40625 
M 31.78125 74.21875 
Q 44.046875 74.21875 50.515625 64.515625 
Q 56.984375 54.828125 56.984375 36.375 
Q 56.984375 17.96875 50.515625 8.265625 
Q 44.046875 -1.421875 31.78125 -1.421875 
Q 19.53125 -1.421875 13.0625 8.265625 
Q 6.59375 17.96875 6.59375 36.375 
Q 6.59375 54.828125 13.0625 64.515625 
Q 19.53125 74.21875 31.78125 74.21875 
" id="BitstreamVeraSans-Roman-30"/>
      </defs>
      <g transform="translate(48.16250000000001 404.09687499999995)scale(0.2 -0.2)">
       <use xlink:href="#BitstreamVeraSans-Roman-30"/>
      </g>
     </g>
    </g>
    <g id="xtick_2">
     <g id="line2d_34">
      <path clip-path="url(#pccb1a2a494)" d="M 159.049286 384.9 
L 159.049286 7.678218 
" style="fill:none;stroke:#000000;stroke-dasharray:1.000000,3.000000;stroke-dashoffset:0.0;stroke-width:0.5;"/>
     </g>
     <g id="line2d_35">
      <g>
       <use style="stroke:#000000;stroke-width:0.5;" x="159.0492857142857" xlink:href="#m370bb5577c" y="384.9"/>
      </g>
     </g>
     <g id="line2d_36">
      <g>
       <use style="stroke:#000000;stroke-width:0.5;" x="159.0492857142857" xlink:href="#m14ae8d8c3d" y="7.678217821782141"/>
      </g>
     </g>
     <g id="text_2">
      <!-- 2 -->
      <defs>
       <path d="M 19.1875 8.296875 
L 53.609375 8.296875 
L 53.609375 0 
L 7.328125 0 
L 7.328125 8.296875 
Q 12.9375 14.109375 22.625 23.890625 
Q 32.328125 33.6875 34.8125 36.53125 
Q 39.546875 41.84375 41.421875 45.53125 
Q 43.3125 49.21875 43.3125 52.78125 
Q 43.3125 58.59375 39.234375 62.25 
Q 35.15625 65.921875 28.609375 65.921875 
Q 23.96875 65.921875 18.8125 64.3125 
Q 13.671875 62.703125 7.8125 59.421875 
L 7.8125 69.390625 
Q 13.765625 71.78125 18.9375 73 
Q 24.125 74.21875 28.421875 74.21875 
Q 39.75 74.21875 46.484375 68.546875 
Q 53.21875 62.890625 53.21875 53.421875 
Q 53.21875 48.921875 51.53125 44.890625 
Q 49.859375 40.875 45.40625 35.40625 
Q 44.1875 33.984375 37.640625 27.21875 
Q 31.109375 20.453125 19.1875 8.296875 
" id="BitstreamVeraSans-Roman-32"/>
      </defs>
      <g transform="translate(152.6867857142857 404.09687499999995)scale(0.2 -0.2)">
       <use xlink:href="#BitstreamVeraSans-Roman-32"/>
      </g>
     </g>
    </g>
    <g id="xtick_3">
     <g id="line2d_37">
      <path clip-path="url(#pccb1a2a494)" d="M 263.573571 384.9 
L 263.573571 7.678218 
" style="fill:none;stroke:#000000;stroke-dasharray:1.000000,3.000000;stroke-dashoffset:0.0;stroke-width:0.5;"/>
     </g>
     <g id="line2d_38">
      <g>
       <use style="stroke:#000000;stroke-width:0.5;" x="263.57357142857137" xlink:href="#m370bb5577c" y="384.9"/>
      </g>
     </g>
     <g id="line2d_39">
      <g>
       <use style="stroke:#000000;stroke-width:0.5;" x="263.57357142857137" xlink:href="#m14ae8d8c3d" y="7.678217821782141"/>
      </g>
     </g>
     <g id="text_3">
      <!-- 4 -->
      <defs>
       <path d="M 37.796875 64.3125 
L 12.890625 25.390625 
L 37.796875 25.390625 
z
M 35.203125 72.90625 
L 47.609375 72.90625 
L 47.609375 25.390625 
L 58.015625 25.390625 
L 58.015625 17.1875 
L 47.609375 17.1875 
L 47.609375 0 
L 37.796875 0 
L 37.796875 17.1875 
L 4.890625 17.1875 
L 4.890625 26.703125 
z
" id="BitstreamVeraSans-Roman-34"/>
      </defs>
      <g transform="translate(257.21107142857136 404.09687499999995)scale(0.2 -0.2)">
       <use xlink:href="#BitstreamVeraSans-Roman-34"/>
      </g>
     </g>
    </g>
    <g id="xtick_4">
     <g id="line2d_40">
      <path clip-path="url(#pccb1a2a494)" d="M 368.097857 384.9 
L 368.097857 7.678218 
" style="fill:none;stroke:#000000;stroke-dasharray:1.000000,3.000000;stroke-dashoffset:0.0;stroke-width:0.5;"/>
     </g>
     <g id="line2d_41">
      <g>
       <use style="stroke:#000000;stroke-width:0.5;" x="368.09785714285704" xlink:href="#m370bb5577c" y="384.9"/>
      </g>
     </g>
     <g id="line2d_42">
      <g>
       <use style="stroke:#000000;stroke-width:0.5;" x="368.09785714285704" xlink:href="#m14ae8d8c3d" y="7.678217821782141"/>
      </g>
     </g>
     <g id="text_4">
      <!-- 6 -->
      <defs>
       <path d="M 33.015625 40.375 
Q 26.375 40.375 22.484375 35.828125 
Q 18.609375 31.296875 18.609375 23.390625 
Q 18.609375 15.53125 22.484375 10.953125 
Q 26.375 6.390625 33.015625 6.390625 
Q 39.65625 6.390625 43.53125 10.953125 
Q 47.40625 15.53125 47.40625 23.390625 
Q 47.40625 31.296875 43.53125 35.828125 
Q 39.65625 40.375 33.015625 40.375 
M 52.59375 71.296875 
L 52.59375 62.3125 
Q 48.875 64.0625 45.09375 64.984375 
Q 41.3125 65.921875 37.59375 65.921875 
Q 27.828125 65.921875 22.671875 59.328125 
Q 17.53125 52.734375 16.796875 39.40625 
Q 19.671875 43.65625 24.015625 45.921875 
Q 28.375 48.1875 33.59375 48.1875 
Q 44.578125 48.1875 50.953125 41.515625 
Q 57.328125 34.859375 57.328125 23.390625 
Q 57.328125 12.15625 50.6875 5.359375 
Q 44.046875 -1.421875 33.015625 -1.421875 
Q 20.359375 -1.421875 13.671875 8.265625 
Q 6.984375 17.96875 6.984375 36.375 
Q 6.984375 53.65625 15.1875 63.9375 
Q 23.390625 74.21875 37.203125 74.21875 
Q 40.921875 74.21875 44.703125 73.484375 
Q 48.484375 72.75 52.59375 71.296875 
" id="BitstreamVeraSans-Roman-36"/>
      </defs>
      <g transform="translate(361.735357142857 404.09687499999995)scale(0.2 -0.2)">
       <use xlink:href="#BitstreamVeraSans-Roman-36"/>
      </g>
     </g>
    </g>
    <g id="xtick_5">
     <g id="line2d_43">
      <path clip-path="url(#pccb1a2a494)" d="M 54.525 384.9 
L 54.525 7.678218 
" style="fill:none;stroke:#000000;stroke-dasharray:1.000000,3.000000;stroke-dashoffset:0.0;stroke-width:0.5;"/>
     </g>
     <g id="line2d_44">
      <defs>
       <path d="M 0 0 
L 0 -2 
" id="m6cf8433b39" style="stroke:#000000;stroke-width:0.5;"/>
      </defs>
      <g>
       <use style="stroke:#000000;stroke-width:0.5;" x="54.52500000000001" xlink:href="#m6cf8433b39" y="384.9"/>
      </g>
     </g>
     <g id="line2d_45">
      <defs>
       <path d="M 0 0 
L 0 2 
" id="m80360d7a75" style="stroke:#000000;stroke-width:0.5;"/>
      </defs>
      <g>
       <use style="stroke:#000000;stroke-width:0.5;" x="54.52500000000001" xlink:href="#m80360d7a75" y="7.678217821782141"/>
      </g>
     </g>
    </g>
    <g id="xtick_6">
     <g id="line2d_46">
      <path clip-path="url(#pccb1a2a494)" d="M 106.787143 384.9 
L 106.787143 7.678218 
" style="fill:none;stroke:#000000;stroke-dasharray:1.000000,3.000000;stroke-dashoffset:0.0;stroke-width:0.5;"/>
     </g>
     <g id="line2d_47">
      <g>
       <use style="stroke:#000000;stroke-width:0.5;" x="106.78714285714285" xlink:href="#m6cf8433b39" y="384.9"/>
      </g>
     </g>
     <g id="line2d_48">
      <g>
       <use style="stroke:#000000;stroke-width:0.5;" x="106.78714285714285" xlink:href="#m80360d7a75" y="7.678217821782141"/>
      </g>
     </g>
    </g>
    <g id="xtick_7">
     <g id="line2d_49">
      <path clip-path="url(#pccb1a2a494)" d="M 159.049286 384.9 
L 159.049286 7.678218 
" style="fill:none;stroke:#000000;stroke-dasharray:1.000000,3.000000;stroke-dashoffset:0.0;stroke-width:0.5;"/>
     </g>
     <g id="line2d_50">
      <g>
       <use style="stroke:#000000;stroke-width:0.5;" x="159.0492857142857" xlink:href="#m6cf8433b39" y="384.9"/>
      </g>
     </g>
     <g id="line2d_51">
      <g>
       <use style="stroke:#000000;stroke-width:0.5;" x="159.0492857142857" xlink:href="#m80360d7a75" y="7.678217821782141"/>
      </g>
     </g>
    </g>
    <g id="xtick_8">
     <g id="line2d_52">
      <path clip-path="url(#pccb1a2a494)" d="M 211.311429 384.9 
L 211.311429 7.678218 
" style="fill:none;stroke:#000000;stroke-dasharray:1.000000,3.000000;stroke-dashoffset:0.0;stroke-width:0.5;"/>
     </g>
     <g id="line2d_53">
      <g>
       <use style="stroke:#000000;stroke-width:0.5;" x="211.31142857142854" xlink:href="#m6cf8433b39" y="384.9"/>
      </g>
     </g>
     <g id="line2d_54">
      <g>
       <use style="stroke:#000000;stroke-width:0.5;" x="211.31142857142854" xlink:href="#m80360d7a75" y="7.678217821782141"/>
      </g>
     </g>
    </g>
    <g id="xtick_9">
     <g id="line2d_55">
      <path clip-path="url(#pccb1a2a494)" d="M 263.573571 384.9 
L 263.573571 7.678218 
" style="fill:none;stroke:#000000;stroke-dasharray:1.000000,3.000000;stroke-dashoffset:0.0;stroke-width:0.5;"/>
     </g>
     <g id="line2d_56">
      <g>
       <use style="stroke:#000000;stroke-width:0.5;" x="263.57357142857137" xlink:href="#m6cf8433b39" y="384.9"/>
      </g>
     </g>
     <g id="line2d_57">
      <g>
       <use style="stroke:#000000;stroke-width:0.5;" x="263.57357142857137" xlink:href="#m80360d7a75" y="7.678217821782141"/>
      </g>
     </g>
    </g>
    <g id="xtick_10">
     <g id="line2d_58">
      <path clip-path="url(#pccb1a2a494)" d="M 315.835714 384.9 
L 315.835714 7.678218 
" style="fill:none;stroke:#000000;stroke-dasharray:1.000000,3.000000;stroke-dashoffset:0.0;stroke-width:0.5;"/>
     </g>
     <g id="line2d_59">
      <g>
       <use style="stroke:#000000;stroke-width:0.5;" x="315.83571428571423" xlink:href="#m6cf8433b39" y="384.9"/>
      </g>
     </g>
     <g id="line2d_60">
      <g>
       <use style="stroke:#000000;stroke-width:0.5;" x="315.83571428571423" xlink:href="#m80360d7a75" y="7.678217821782141"/>
      </g>
     </g>
    </g>
    <g id="xtick_11">
     <g id="line2d_61">
      <path clip-path="url(#pccb1a2a494)" d="M 368.097857 384.9 
L 368.097857 7.678218 
" style="fill:none;stroke:#000000;stroke-dasharray:1.000000,3.000000;stroke-dashoffset:0.0;stroke-width:0.5;"/>
     </g>
     <g id="line2d_62">
      <g>
       <use style="stroke:#000000;stroke-width:0.5;" x="368.09785714285704" xlink:href="#m6cf8433b39" y="384.9"/>
      </g>
     </g>
     <g id="line2d_63">
      <g>
       <use style="stroke:#000000;stroke-width:0.5;" x="368.09785714285704" xlink:href="#m80360d7a75" y="7.678217821782141"/>
      </g>
     </g>
    </g>
    <g id="xtick_12">
     <g id="line2d_64">
      <path clip-path="url(#pccb1a2a494)" d="M 420.36 384.9 
L 420.36 7.678218 
" style="fill:none;stroke:#000000;stroke-dasharray:1.000000,3.000000;stroke-dashoffset:0.0;stroke-width:0.5;"/>
     </g>
     <g id="line2d_65">
      <g>
       <use style="stroke:#000000;stroke-width:0.5;" x="420.3599999999999" xlink:href="#m6cf8433b39" y="384.9"/>
      </g>
     </g>
     <g id="line2d_66">
      <g>
       <use style="stroke:#000000;stroke-width:0.5;" x="420.3599999999999" xlink:href="#m80360d7a75" y="7.678217821782141"/>
      </g>
     </g>
    </g>
    <g id="text_5">
     <!-- log10(# f-evals / dimension) -->
     <defs>
      <path d="M 12.40625 8.296875 
L 28.515625 8.296875 
L 28.515625 63.921875 
L 10.984375 60.40625 
L 10.984375 69.390625 
L 28.421875 72.90625 
L 38.28125 72.90625 
L 38.28125 8.296875 
L 54.390625 8.296875 
L 54.390625 0 
L 12.40625 0 
z
" id="BitstreamVeraSans-Roman-31"/>
      <path d="M 9.421875 54.6875 
L 18.40625 54.6875 
L 18.40625 0 
L 9.421875 0 
z
M 9.421875 75.984375 
L 18.40625 75.984375 
L 18.40625 64.59375 
L 9.421875 64.59375 
z
" id="BitstreamVeraSans-Roman-69"/>
      <path d="M 37.109375 75.984375 
L 37.109375 68.5 
L 28.515625 68.5 
Q 23.6875 68.5 21.796875 66.546875 
Q 19.921875 64.59375 19.921875 59.515625 
L 19.921875 54.6875 
L 34.71875 54.6875 
L 34.71875 47.703125 
L 19.921875 47.703125 
L 19.921875 0 
L 10.890625 0 
L 10.890625 47.703125 
L 2.296875 47.703125 
L 2.296875 54.6875 
L 10.890625 54.6875 
L 10.890625 58.5 
Q 10.890625 67.625 15.140625 71.796875 
Q 19.390625 75.984375 28.609375 75.984375 
z
" id="BitstreamVeraSans-Roman-66"/>
      <path d="M 9.421875 75.984375 
L 18.40625 75.984375 
L 18.40625 0 
L 9.421875 0 
z
" id="BitstreamVeraSans-Roman-6c"/>
      <path d="M 4.890625 31.390625 
L 31.203125 31.390625 
L 31.203125 23.390625 
L 4.890625 23.390625 
z
" id="BitstreamVeraSans-Roman-2d"/>
      <path d="M 45.40625 27.984375 
Q 45.40625 37.75 41.375 43.109375 
Q 37.359375 48.484375 30.078125 48.484375 
Q 22.859375 48.484375 18.828125 43.109375 
Q 14.796875 37.75 14.796875 27.984375 
Q 14.796875 18.265625 18.828125 12.890625 
Q 22.859375 7.515625 30.078125 7.515625 
Q 37.359375 7.515625 41.375 12.890625 
Q 45.40625 18.265625 45.40625 27.984375 
M 54.390625 6.78125 
Q 54.390625 -7.171875 48.1875 -13.984375 
Q 42 -20.796875 29.203125 -20.796875 
Q 24.46875 -20.796875 20.265625 -20.09375 
Q 16.0625 -19.390625 12.109375 -17.921875 
L 12.109375 -9.1875 
Q 16.0625 -11.328125 19.921875 -12.34375 
Q 23.78125 -13.375 27.78125 -13.375 
Q 36.625 -13.375 41.015625 -8.765625 
Q 45.40625 -4.15625 45.40625 5.171875 
L 45.40625 9.625 
Q 42.625 4.78125 38.28125 2.390625 
Q 33.9375 0 27.875 0 
Q 17.828125 0 11.671875 7.65625 
Q 5.515625 15.328125 5.515625 27.984375 
Q 5.515625 40.671875 11.671875 48.328125 
Q 17.828125 56 27.875 56 
Q 33.9375 56 38.28125 53.609375 
Q 42.625 51.21875 45.40625 46.390625 
L 45.40625 54.6875 
L 54.390625 54.6875 
z
" id="BitstreamVeraSans-Roman-67"/>
      <path d="M 34.28125 27.484375 
Q 23.390625 27.484375 19.1875 25 
Q 14.984375 22.515625 14.984375 16.5 
Q 14.984375 11.71875 18.140625 8.90625 
Q 21.296875 6.109375 26.703125 6.109375 
Q 34.1875 6.109375 38.703125 11.40625 
Q 43.21875 16.703125 43.21875 25.484375 
L 43.21875 27.484375 
z
M 52.203125 31.203125 
L 52.203125 0 
L 43.21875 0 
L 43.21875 8.296875 
Q 40.140625 3.328125 35.546875 0.953125 
Q 30.953125 -1.421875 24.3125 -1.421875 
Q 15.921875 -1.421875 10.953125 3.296875 
Q 6 8.015625 6 15.921875 
Q 6 25.140625 12.171875 29.828125 
Q 18.359375 34.515625 30.609375 34.515625 
L 43.21875 34.515625 
L 43.21875 35.40625 
Q 43.21875 41.609375 39.140625 45 
Q 35.0625 48.390625 27.6875 48.390625 
Q 23 48.390625 18.546875 47.265625 
Q 14.109375 46.140625 10.015625 43.890625 
L 10.015625 52.203125 
Q 14.9375 54.109375 19.578125 55.046875 
Q 24.21875 56 28.609375 56 
Q 40.484375 56 46.34375 49.84375 
Q 52.203125 43.703125 52.203125 31.203125 
" id="BitstreamVeraSans-Roman-61"/>
      <path d="M 54.890625 33.015625 
L 54.890625 0 
L 45.90625 0 
L 45.90625 32.71875 
Q 45.90625 40.484375 42.875 44.328125 
Q 39.84375 48.1875 33.796875 48.1875 
Q 26.515625 48.1875 22.3125 43.546875 
Q 18.109375 38.921875 18.109375 30.90625 
L 18.109375 0 
L 9.078125 0 
L 9.078125 54.6875 
L 18.109375 54.6875 
L 18.109375 46.1875 
Q 21.34375 51.125 25.703125 53.5625 
Q 30.078125 56 35.796875 56 
Q 45.21875 56 50.046875 50.171875 
Q 54.890625 44.34375 54.890625 33.015625 
" id="BitstreamVeraSans-Roman-6e"/>
      <path d="M 30.609375 48.390625 
Q 23.390625 48.390625 19.1875 42.75 
Q 14.984375 37.109375 14.984375 27.296875 
Q 14.984375 17.484375 19.15625 11.84375 
Q 23.34375 6.203125 30.609375 6.203125 
Q 37.796875 6.203125 41.984375 11.859375 
Q 46.1875 17.53125 46.1875 27.296875 
Q 46.1875 37.015625 41.984375 42.703125 
Q 37.796875 48.390625 30.609375 48.390625 
M 30.609375 56 
Q 42.328125 56 49.015625 48.375 
Q 55.71875 40.765625 55.71875 27.296875 
Q 55.71875 13.875 49.015625 6.21875 
Q 42.328125 -1.421875 30.609375 -1.421875 
Q 18.84375 -1.421875 12.171875 6.21875 
Q 5.515625 13.875 5.515625 27.296875 
Q 5.515625 40.765625 12.171875 48.375 
Q 18.84375 56 30.609375 56 
" id="BitstreamVeraSans-Roman-6f"/>
      <path d="M 2.984375 54.6875 
L 12.5 54.6875 
L 29.59375 8.796875 
L 46.6875 54.6875 
L 56.203125 54.6875 
L 35.6875 0 
L 23.484375 0 
z
" id="BitstreamVeraSans-Roman-76"/>
      <path d="M 52 44.1875 
Q 55.375 50.25 60.0625 53.125 
Q 64.75 56 71.09375 56 
Q 79.640625 56 84.28125 50.015625 
Q 88.921875 44.046875 88.921875 33.015625 
L 88.921875 0 
L 79.890625 0 
L 79.890625 32.71875 
Q 79.890625 40.578125 77.09375 44.375 
Q 74.3125 48.1875 68.609375 48.1875 
Q 61.625 48.1875 57.5625 43.546875 
Q 53.515625 38.921875 53.515625 30.90625 
L 53.515625 0 
L 44.484375 0 
L 44.484375 32.71875 
Q 44.484375 40.625 41.703125 44.40625 
Q 38.921875 48.1875 33.109375 48.1875 
Q 26.21875 48.1875 22.15625 43.53125 
Q 18.109375 38.875 18.109375 30.90625 
L 18.109375 0 
L 9.078125 0 
L 9.078125 54.6875 
L 18.109375 54.6875 
L 18.109375 46.1875 
Q 21.1875 51.21875 25.484375 53.609375 
Q 29.78125 56 35.6875 56 
Q 41.65625 56 45.828125 52.96875 
Q 50 49.953125 52 44.1875 
" id="BitstreamVeraSans-Roman-6d"/>
      <path id="BitstreamVeraSans-Roman-20"/>
      <path d="M 44.28125 53.078125 
L 44.28125 44.578125 
Q 40.484375 46.53125 36.375 47.5 
Q 32.28125 48.484375 27.875 48.484375 
Q 21.1875 48.484375 17.84375 46.4375 
Q 14.5 44.390625 14.5 40.28125 
Q 14.5 37.15625 16.890625 35.375 
Q 19.28125 33.59375 26.515625 31.984375 
L 29.59375 31.296875 
Q 39.15625 29.25 43.1875 25.515625 
Q 47.21875 21.78125 47.21875 15.09375 
Q 47.21875 7.46875 41.1875 3.015625 
Q 35.15625 -1.421875 24.609375 -1.421875 
Q 20.21875 -1.421875 15.453125 -0.5625 
Q 10.6875 0.296875 5.421875 2 
L 5.421875 11.28125 
Q 10.40625 8.6875 15.234375 7.390625 
Q 20.0625 6.109375 24.8125 6.109375 
Q 31.15625 6.109375 34.5625 8.28125 
Q 37.984375 10.453125 37.984375 14.40625 
Q 37.984375 18.0625 35.515625 20.015625 
Q 33.0625 21.96875 24.703125 23.78125 
L 21.578125 24.515625 
Q 13.234375 26.265625 9.515625 29.90625 
Q 5.8125 33.546875 5.8125 39.890625 
Q 5.8125 47.609375 11.28125 51.796875 
Q 16.75 56 26.8125 56 
Q 31.78125 56 36.171875 55.265625 
Q 40.578125 54.546875 44.28125 53.078125 
" id="BitstreamVeraSans-Roman-73"/>
      <path d="M 51.125 44 
L 36.921875 44 
L 32.8125 27.6875 
L 47.125 27.6875 
z
M 43.796875 71.78125 
L 38.71875 51.515625 
L 52.984375 51.515625 
L 58.109375 71.78125 
L 65.921875 71.78125 
L 60.890625 51.515625 
L 76.125 51.515625 
L 76.125 44 
L 58.984375 44 
L 54.984375 27.6875 
L 70.515625 27.6875 
L 70.515625 20.21875 
L 53.078125 20.21875 
L 48 0 
L 40.1875 0 
L 45.21875 20.21875 
L 30.90625 20.21875 
L 25.875 0 
L 18.015625 0 
L 23.09375 20.21875 
L 7.71875 20.21875 
L 7.71875 27.6875 
L 24.90625 27.6875 
L 29 44 
L 13.28125 44 
L 13.28125 51.515625 
L 30.90625 51.515625 
L 35.890625 71.78125 
z
" id="BitstreamVeraSans-Roman-23"/>
      <path d="M 8.015625 75.875 
L 15.828125 75.875 
Q 23.140625 64.359375 26.78125 53.3125 
Q 30.421875 42.28125 30.421875 31.390625 
Q 30.421875 20.453125 26.78125 9.375 
Q 23.140625 -1.703125 15.828125 -13.1875 
L 8.015625 -13.1875 
Q 14.5 -2 17.703125 9.0625 
Q 20.90625 20.125 20.90625 31.390625 
Q 20.90625 42.671875 17.703125 53.65625 
Q 14.5 64.65625 8.015625 75.875 
" id="BitstreamVeraSans-Roman-29"/>
      <path d="M 31 75.875 
Q 24.46875 64.65625 21.28125 53.65625 
Q 18.109375 42.671875 18.109375 31.390625 
Q 18.109375 20.125 21.3125 9.0625 
Q 24.515625 -2 31 -13.1875 
L 23.1875 -13.1875 
Q 15.875 -1.703125 12.234375 9.375 
Q 8.59375 20.453125 8.59375 31.390625 
Q 8.59375 42.28125 12.203125 53.3125 
Q 15.828125 64.359375 23.1875 75.875 
z
" id="BitstreamVeraSans-Roman-28"/>
      <path d="M 45.40625 46.390625 
L 45.40625 75.984375 
L 54.390625 75.984375 
L 54.390625 0 
L 45.40625 0 
L 45.40625 8.203125 
Q 42.578125 3.328125 38.25 0.953125 
Q 33.9375 -1.421875 27.875 -1.421875 
Q 17.96875 -1.421875 11.734375 6.484375 
Q 5.515625 14.40625 5.515625 27.296875 
Q 5.515625 40.1875 11.734375 48.09375 
Q 17.96875 56 27.875 56 
Q 33.9375 56 38.25 53.625 
Q 42.578125 51.265625 45.40625 46.390625 
M 14.796875 27.296875 
Q 14.796875 17.390625 18.875 11.75 
Q 22.953125 6.109375 30.078125 6.109375 
Q 37.203125 6.109375 41.296875 11.75 
Q 45.40625 17.390625 45.40625 27.296875 
Q 45.40625 37.203125 41.296875 42.84375 
Q 37.203125 48.484375 30.078125 48.484375 
Q 22.953125 48.484375 18.875 42.84375 
Q 14.796875 37.203125 14.796875 27.296875 
" id="BitstreamVeraSans-Roman-64"/>
      <path d="M 25.390625 72.90625 
L 33.6875 72.90625 
L 8.296875 -9.28125 
L 0 -9.28125 
z
" id="BitstreamVeraSans-Roman-2f"/>
      <path d="M 56.203125 29.59375 
L 56.203125 25.203125 
L 14.890625 25.203125 
Q 15.484375 15.921875 20.484375 11.0625 
Q 25.484375 6.203125 34.421875 6.203125 
Q 39.59375 6.203125 44.453125 7.46875 
Q 49.3125 8.734375 54.109375 11.28125 
L 54.109375 2.78125 
Q 49.265625 0.734375 44.1875 -0.34375 
Q 39.109375 -1.421875 33.890625 -1.421875 
Q 20.796875 -1.421875 13.15625 6.1875 
Q 5.515625 13.8125 5.515625 26.8125 
Q 5.515625 40.234375 12.765625 48.109375 
Q 20.015625 56 32.328125 56 
Q 43.359375 56 49.78125 48.890625 
Q 56.203125 41.796875 56.203125 29.59375 
M 47.21875 32.234375 
Q 47.125 39.59375 43.09375 43.984375 
Q 39.0625 48.390625 32.421875 48.390625 
Q 24.90625 48.390625 20.390625 44.140625 
Q 15.875 39.890625 15.1875 32.171875 
z
" id="BitstreamVeraSans-Roman-65"/>
     </defs>
     <g transform="translate(116.60171874999996 426.17359374999995)scale(0.17 -0.17)">
      <use xlink:href="#BitstreamVeraSans-Roman-6c"/>
      <use x="27.783203125" xlink:href="#BitstreamVeraSans-Roman-6f"/>
      <use x="88.96484375" xlink:href="#BitstreamVeraSans-Roman-67"/>
      <use x="152.44140625" xlink:href="#BitstreamVeraSans-Roman-31"/>
      <use x="216.064453125" xlink:href="#BitstreamVeraSans-Roman-30"/>
      <use x="279.6875" xlink:href="#BitstreamVeraSans-Roman-28"/>
      <use x="318.701171875" xlink:href="#BitstreamVeraSans-Roman-23"/>
      <use x="402.490234375" xlink:href="#BitstreamVeraSans-Roman-20"/>
      <use x="434.27734375" xlink:href="#BitstreamVeraSans-Roman-66"/>
      <use x="469.404296875" xlink:href="#BitstreamVeraSans-Roman-2d"/>
      <use x="505.48828125" xlink:href="#BitstreamVeraSans-Roman-65"/>
      <use x="567.01171875" xlink:href="#BitstreamVeraSans-Roman-76"/>
      <use x="626.19140625" xlink:href="#BitstreamVeraSans-Roman-61"/>
      <use x="687.470703125" xlink:href="#BitstreamVeraSans-Roman-6c"/>
      <use x="715.25390625" xlink:href="#BitstreamVeraSans-Roman-73"/>
      <use x="767.353515625" xlink:href="#BitstreamVeraSans-Roman-20"/>
      <use x="799.140625" xlink:href="#BitstreamVeraSans-Roman-2f"/>
      <use x="832.83203125" xlink:href="#BitstreamVeraSans-Roman-20"/>
      <use x="864.619140625" xlink:href="#BitstreamVeraSans-Roman-64"/>
      <use x="928.095703125" xlink:href="#BitstreamVeraSans-Roman-69"/>
      <use x="955.87890625" xlink:href="#BitstreamVeraSans-Roman-6d"/>
      <use x="1053.291015625" xlink:href="#BitstreamVeraSans-Roman-65"/>
      <use x="1114.814453125" xlink:href="#BitstreamVeraSans-Roman-6e"/>
      <use x="1178.193359375" xlink:href="#BitstreamVeraSans-Roman-73"/>
      <use x="1230.29296875" xlink:href="#BitstreamVeraSans-Roman-69"/>
      <use x="1258.076171875" xlink:href="#BitstreamVeraSans-Roman-6f"/>
      <use x="1319.2578125" xlink:href="#BitstreamVeraSans-Roman-6e"/>
      <use x="1382.63671875" xlink:href="#BitstreamVeraSans-Roman-29"/>
     </g>
    </g>
   </g>
   <g id="matplotlib.axis_2">
    <g id="ytick_1">
     <g id="line2d_67">
      <path clip-path="url(#pccb1a2a494)" d="M 54.525 384.9 
L 420.36 384.9 
" style="fill:none;stroke:#000000;stroke-dasharray:1.000000,3.000000;stroke-dashoffset:0.0;stroke-width:0.5;"/>
     </g>
     <g id="line2d_68">
      <defs>
       <path d="M 0 0 
L 4 0 
" id="ma9a9c4f6f5" style="stroke:#000000;stroke-width:0.5;"/>
      </defs>
      <g>
       <use style="stroke:#000000;stroke-width:0.5;" x="54.52500000000001" xlink:href="#ma9a9c4f6f5" y="384.9"/>
      </g>
     </g>
     <g id="line2d_69">
      <defs>
       <path d="M 0 0 
L -4 0 
" id="m0a8d8897ff" style="stroke:#000000;stroke-width:0.5;"/>
      </defs>
      <g>
       <use style="stroke:#000000;stroke-width:0.5;" x="420.35999999999996" xlink:href="#m0a8d8897ff" y="384.9"/>
      </g>
     </g>
     <g id="text_6">
      <!-- 0.0 -->
      <defs>
       <path d="M 10.6875 12.40625 
L 21 12.40625 
L 21 0 
L 10.6875 0 
z
" id="BitstreamVeraSans-Roman-2e"/>
      </defs>
      <g transform="translate(25.080000000000013 389.315)scale(0.16 -0.16)">
       <use xlink:href="#BitstreamVeraSans-Roman-30"/>
       <use x="63.623046875" xlink:href="#BitstreamVeraSans-Roman-2e"/>
       <use x="95.41015625" xlink:href="#BitstreamVeraSans-Roman-30"/>
      </g>
     </g>
    </g>
    <g id="ytick_2">
     <g id="line2d_70">
      <path clip-path="url(#pccb1a2a494)" d="M 54.525 310.202617 
L 420.36 310.202617 
" style="fill:none;stroke:#000000;stroke-dasharray:1.000000,3.000000;stroke-dashoffset:0.0;stroke-width:0.5;"/>
     </g>
     <g id="line2d_71">
      <g>
       <use style="stroke:#000000;stroke-width:0.5;" x="54.52500000000001" xlink:href="#ma9a9c4f6f5" y="310.2026173904519"/>
      </g>
     </g>
     <g id="line2d_72">
      <g>
       <use style="stroke:#000000;stroke-width:0.5;" x="420.35999999999996" xlink:href="#m0a8d8897ff" y="310.2026173904519"/>
      </g>
     </g>
     <g id="text_7">
      <!-- 0.2 -->
      <g transform="translate(25.080000000000013 314.61761739045187)scale(0.16 -0.16)">
       <use xlink:href="#BitstreamVeraSans-Roman-30"/>
       <use x="63.623046875" xlink:href="#BitstreamVeraSans-Roman-2e"/>
       <use x="95.41015625" xlink:href="#BitstreamVeraSans-Roman-32"/>
      </g>
     </g>
    </g>
    <g id="ytick_3">
     <g id="line2d_73">
      <path clip-path="url(#pccb1a2a494)" d="M 54.525 235.505235 
L 420.36 235.505235 
" style="fill:none;stroke:#000000;stroke-dasharray:1.000000,3.000000;stroke-dashoffset:0.0;stroke-width:0.5;"/>
     </g>
     <g id="line2d_74">
      <g>
       <use style="stroke:#000000;stroke-width:0.5;" x="54.52500000000001" xlink:href="#ma9a9c4f6f5" y="235.5052347809038"/>
      </g>
     </g>
     <g id="line2d_75">
      <g>
       <use style="stroke:#000000;stroke-width:0.5;" x="420.35999999999996" xlink:href="#m0a8d8897ff" y="235.5052347809038"/>
      </g>
     </g>
     <g id="text_8">
      <!-- 0.4 -->
      <g transform="translate(25.080000000000013 239.9202347809038)scale(0.16 -0.16)">
       <use xlink:href="#BitstreamVeraSans-Roman-30"/>
       <use x="63.623046875" xlink:href="#BitstreamVeraSans-Roman-2e"/>
       <use x="95.41015625" xlink:href="#BitstreamVeraSans-Roman-34"/>
      </g>
     </g>
    </g>
    <g id="ytick_4">
     <g id="line2d_76">
      <path clip-path="url(#pccb1a2a494)" d="M 54.525 160.807852 
L 420.36 160.807852 
" style="fill:none;stroke:#000000;stroke-dasharray:1.000000,3.000000;stroke-dashoffset:0.0;stroke-width:0.5;"/>
     </g>
     <g id="line2d_77">
      <g>
       <use style="stroke:#000000;stroke-width:0.5;" x="54.52500000000001" xlink:href="#ma9a9c4f6f5" y="160.8078521713557"/>
      </g>
     </g>
     <g id="line2d_78">
      <g>
       <use style="stroke:#000000;stroke-width:0.5;" x="420.35999999999996" xlink:href="#m0a8d8897ff" y="160.8078521713557"/>
      </g>
     </g>
     <g id="text_9">
      <!-- 0.6 -->
      <g transform="translate(25.080000000000013 165.22285217135573)scale(0.16 -0.16)">
       <use xlink:href="#BitstreamVeraSans-Roman-30"/>
       <use x="63.623046875" xlink:href="#BitstreamVeraSans-Roman-2e"/>
       <use x="95.41015625" xlink:href="#BitstreamVeraSans-Roman-36"/>
      </g>
     </g>
    </g>
    <g id="ytick_5">
     <g id="line2d_79">
      <path clip-path="url(#pccb1a2a494)" d="M 54.525 86.11047 
L 420.36 86.11047 
" style="fill:none;stroke:#000000;stroke-dasharray:1.000000,3.000000;stroke-dashoffset:0.0;stroke-width:0.5;"/>
     </g>
     <g id="line2d_80">
      <g>
       <use style="stroke:#000000;stroke-width:0.5;" x="54.52500000000001" xlink:href="#ma9a9c4f6f5" y="86.11046956180763"/>
      </g>
     </g>
     <g id="line2d_81">
      <g>
       <use style="stroke:#000000;stroke-width:0.5;" x="420.35999999999996" xlink:href="#m0a8d8897ff" y="86.11046956180763"/>
      </g>
     </g>
     <g id="text_10">
      <!-- 0.8 -->
      <defs>
       <path d="M 31.78125 34.625 
Q 24.75 34.625 20.71875 30.859375 
Q 16.703125 27.09375 16.703125 20.515625 
Q 16.703125 13.921875 20.71875 10.15625 
Q 24.75 6.390625 31.78125 6.390625 
Q 38.8125 6.390625 42.859375 10.171875 
Q 46.921875 13.96875 46.921875 20.515625 
Q 46.921875 27.09375 42.890625 30.859375 
Q 38.875 34.625 31.78125 34.625 
M 21.921875 38.8125 
Q 15.578125 40.375 12.03125 44.71875 
Q 8.5 49.078125 8.5 55.328125 
Q 8.5 64.0625 14.71875 69.140625 
Q 20.953125 74.21875 31.78125 74.21875 
Q 42.671875 74.21875 48.875 69.140625 
Q 55.078125 64.0625 55.078125 55.328125 
Q 55.078125 49.078125 51.53125 44.71875 
Q 48 40.375 41.703125 38.8125 
Q 48.828125 37.15625 52.796875 32.3125 
Q 56.78125 27.484375 56.78125 20.515625 
Q 56.78125 9.90625 50.3125 4.234375 
Q 43.84375 -1.421875 31.78125 -1.421875 
Q 19.734375 -1.421875 13.25 4.234375 
Q 6.78125 9.90625 6.78125 20.515625 
Q 6.78125 27.484375 10.78125 32.3125 
Q 14.796875 37.15625 21.921875 38.8125 
M 18.3125 54.390625 
Q 18.3125 48.734375 21.84375 45.5625 
Q 25.390625 42.390625 31.78125 42.390625 
Q 38.140625 42.390625 41.71875 45.5625 
Q 45.3125 48.734375 45.3125 54.390625 
Q 45.3125 60.0625 41.71875 63.234375 
Q 38.140625 66.40625 31.78125 66.40625 
Q 25.390625 66.40625 21.84375 63.234375 
Q 18.3125 60.0625 18.3125 54.390625 
" id="BitstreamVeraSans-Roman-38"/>
      </defs>
      <g transform="translate(25.080000000000013 90.52546956180765)scale(0.16 -0.16)">
       <use xlink:href="#BitstreamVeraSans-Roman-30"/>
       <use x="63.623046875" xlink:href="#BitstreamVeraSans-Roman-2e"/>
       <use x="95.41015625" xlink:href="#BitstreamVeraSans-Roman-38"/>
      </g>
     </g>
    </g>
    <g id="ytick_6">
     <g id="line2d_82">
      <path clip-path="url(#pccb1a2a494)" d="M 54.525 11.413087 
L 420.36 11.413087 
" style="fill:none;stroke:#000000;stroke-dasharray:1.000000,3.000000;stroke-dashoffset:0.0;stroke-width:0.5;"/>
     </g>
     <g id="line2d_83">
      <g>
       <use style="stroke:#000000;stroke-width:0.5;" x="54.52500000000001" xlink:href="#ma9a9c4f6f5" y="11.413086952259562"/>
      </g>
     </g>
     <g id="line2d_84">
      <g>
       <use style="stroke:#000000;stroke-width:0.5;" x="420.35999999999996" xlink:href="#m0a8d8897ff" y="11.413086952259562"/>
      </g>
     </g>
     <g id="text_11">
      <!-- 1.0 -->
      <g transform="translate(25.080000000000013 15.828086952259582)scale(0.16 -0.16)">
       <use xlink:href="#BitstreamVeraSans-Roman-31"/>
       <use x="63.623046875" xlink:href="#BitstreamVeraSans-Roman-2e"/>
       <use x="95.41015625" xlink:href="#BitstreamVeraSans-Roman-30"/>
      </g>
     </g>
    </g>
    <g id="text_12">
     <!-- Fraction of function,target pairs -->
     <defs>
      <path d="M 18.109375 8.203125 
L 18.109375 -20.796875 
L 9.078125 -20.796875 
L 9.078125 54.6875 
L 18.109375 54.6875 
L 18.109375 46.390625 
Q 20.953125 51.265625 25.265625 53.625 
Q 29.59375 56 35.59375 56 
Q 45.5625 56 51.78125 48.09375 
Q 58.015625 40.1875 58.015625 27.296875 
Q 58.015625 14.40625 51.78125 6.484375 
Q 45.5625 -1.421875 35.59375 -1.421875 
Q 29.59375 -1.421875 25.265625 0.953125 
Q 20.953125 3.328125 18.109375 8.203125 
M 48.6875 27.296875 
Q 48.6875 37.203125 44.609375 42.84375 
Q 40.53125 48.484375 33.40625 48.484375 
Q 26.265625 48.484375 22.1875 42.84375 
Q 18.109375 37.203125 18.109375 27.296875 
Q 18.109375 17.390625 22.1875 11.75 
Q 26.265625 6.109375 33.40625 6.109375 
Q 40.53125 6.109375 44.609375 11.75 
Q 48.6875 17.390625 48.6875 27.296875 
" id="BitstreamVeraSans-Roman-70"/>
      <path d="M 48.78125 52.59375 
L 48.78125 44.1875 
Q 44.96875 46.296875 41.140625 47.34375 
Q 37.3125 48.390625 33.40625 48.390625 
Q 24.65625 48.390625 19.8125 42.84375 
Q 14.984375 37.3125 14.984375 27.296875 
Q 14.984375 17.28125 19.8125 11.734375 
Q 24.65625 6.203125 33.40625 6.203125 
Q 37.3125 6.203125 41.140625 7.25 
Q 44.96875 8.296875 48.78125 10.40625 
L 48.78125 2.09375 
Q 45.015625 0.34375 40.984375 -0.53125 
Q 36.96875 -1.421875 32.421875 -1.421875 
Q 20.0625 -1.421875 12.78125 6.34375 
Q 5.515625 14.109375 5.515625 27.296875 
Q 5.515625 40.671875 12.859375 48.328125 
Q 20.21875 56 33.015625 56 
Q 37.15625 56 41.109375 55.140625 
Q 45.0625 54.296875 48.78125 52.59375 
" id="BitstreamVeraSans-Roman-63"/>
      <path d="M 8.5 21.578125 
L 8.5 54.6875 
L 17.484375 54.6875 
L 17.484375 21.921875 
Q 17.484375 14.15625 20.5 10.265625 
Q 23.53125 6.390625 29.59375 6.390625 
Q 36.859375 6.390625 41.078125 11.03125 
Q 45.3125 15.671875 45.3125 23.6875 
L 45.3125 54.6875 
L 54.296875 54.6875 
L 54.296875 0 
L 45.3125 0 
L 45.3125 8.40625 
Q 42.046875 3.421875 37.71875 1 
Q 33.40625 -1.421875 27.6875 -1.421875 
Q 18.265625 -1.421875 13.375 4.4375 
Q 8.5 10.296875 8.5 21.578125 
" id="BitstreamVeraSans-Roman-75"/>
      <path d="M 18.3125 70.21875 
L 18.3125 54.6875 
L 36.8125 54.6875 
L 36.8125 47.703125 
L 18.3125 47.703125 
L 18.3125 18.015625 
Q 18.3125 11.328125 20.140625 9.421875 
Q 21.96875 7.515625 27.59375 7.515625 
L 36.8125 7.515625 
L 36.8125 0 
L 27.59375 0 
Q 17.1875 0 13.234375 3.875 
Q 9.28125 7.765625 9.28125 18.015625 
L 9.28125 47.703125 
L 2.6875 47.703125 
L 2.6875 54.6875 
L 9.28125 54.6875 
L 9.28125 70.21875 
z
" id="BitstreamVeraSans-Roman-74"/>
      <path d="M 41.109375 46.296875 
Q 39.59375 47.171875 37.8125 47.578125 
Q 36.03125 48 33.890625 48 
Q 26.265625 48 22.1875 43.046875 
Q 18.109375 38.09375 18.109375 28.8125 
L 18.109375 0 
L 9.078125 0 
L 9.078125 54.6875 
L 18.109375 54.6875 
L 18.109375 46.1875 
Q 20.953125 51.171875 25.484375 53.578125 
Q 30.03125 56 36.53125 56 
Q 37.453125 56 38.578125 55.875 
Q 39.703125 55.765625 41.0625 55.515625 
z
" id="BitstreamVeraSans-Roman-72"/>
      <path d="M 9.8125 72.90625 
L 51.703125 72.90625 
L 51.703125 64.59375 
L 19.671875 64.59375 
L 19.671875 43.109375 
L 48.578125 43.109375 
L 48.578125 34.8125 
L 19.671875 34.8125 
L 19.671875 0 
L 9.8125 0 
z
" id="BitstreamVeraSans-Roman-46"/>
      <path d="M 11.71875 12.40625 
L 22.015625 12.40625 
L 22.015625 4 
L 14.015625 -11.625 
L 7.71875 -11.625 
L 11.71875 4 
z
" id="BitstreamVeraSans-Roman-2c"/>
     </defs>
     <g transform="translate(16.544531250000006 331.42848391089103)rotate(-90.0)scale(0.17 -0.17)">
      <use xlink:href="#BitstreamVeraSans-Roman-46"/>
      <use x="57.41015625" xlink:href="#BitstreamVeraSans-Roman-72"/>
      <use x="98.5234375" xlink:href="#BitstreamVeraSans-Roman-61"/>
      <use x="159.802734375" xlink:href="#BitstreamVeraSans-Roman-63"/>
      <use x="214.783203125" xlink:href="#BitstreamVeraSans-Roman-74"/>
      <use x="253.9921875" xlink:href="#BitstreamVeraSans-Roman-69"/>
      <use x="281.775390625" xlink:href="#BitstreamVeraSans-Roman-6f"/>
      <use x="342.95703125" xlink:href="#BitstreamVeraSans-Roman-6e"/>
      <use x="406.3359375" xlink:href="#BitstreamVeraSans-Roman-20"/>
      <use x="438.123046875" xlink:href="#BitstreamVeraSans-Roman-6f"/>
      <use x="499.3046875" xlink:href="#BitstreamVeraSans-Roman-66"/>
      <use x="534.509765625" xlink:href="#BitstreamVeraSans-Roman-20"/>
      <use x="566.296875" xlink:href="#BitstreamVeraSans-Roman-66"/>
      <use x="601.501953125" xlink:href="#BitstreamVeraSans-Roman-75"/>
      <use x="664.880859375" xlink:href="#BitstreamVeraSans-Roman-6e"/>
      <use x="728.259765625" xlink:href="#BitstreamVeraSans-Roman-63"/>
      <use x="783.240234375" xlink:href="#BitstreamVeraSans-Roman-74"/>
      <use x="822.44921875" xlink:href="#BitstreamVeraSans-Roman-69"/>
      <use x="850.232421875" xlink:href="#BitstreamVeraSans-Roman-6f"/>
      <use x="911.4140625" xlink:href="#BitstreamVeraSans-Roman-6e"/>
      <use x="974.79296875" xlink:href="#BitstreamVeraSans-Roman-2c"/>
      <use x="1006.580078125" xlink:href="#BitstreamVeraSans-Roman-74"/>
      <use x="1045.7890625" xlink:href="#BitstreamVeraSans-Roman-61"/>
      <use x="1107.068359375" xlink:href="#BitstreamVeraSans-Roman-72"/>
      <use x="1148.166015625" xlink:href="#BitstreamVeraSans-Roman-67"/>
      <use x="1211.642578125" xlink:href="#BitstreamVeraSans-Roman-65"/>
      <use x="1273.166015625" xlink:href="#BitstreamVeraSans-Roman-74"/>
      <use x="1312.375" xlink:href="#BitstreamVeraSans-Roman-20"/>
      <use x="1344.162109375" xlink:href="#BitstreamVeraSans-Roman-70"/>
      <use x="1407.638671875" xlink:href="#BitstreamVeraSans-Roman-61"/>
      <use x="1468.91796875" xlink:href="#BitstreamVeraSans-Roman-69"/>
      <use x="1496.701171875" xlink:href="#BitstreamVeraSans-Roman-72"/>
      <use x="1537.814453125" xlink:href="#BitstreamVeraSans-Roman-73"/>
     </g>
    </g>
   </g>
   <g id="text_13">
    <!-- DE4-D -->
    <defs>
     <path d="M 9.8125 72.90625 
L 55.90625 72.90625 
L 55.90625 64.59375 
L 19.671875 64.59375 
L 19.671875 43.015625 
L 54.390625 43.015625 
L 54.390625 34.71875 
L 19.671875 34.71875 
L 19.671875 8.296875 
L 56.78125 8.296875 
L 56.78125 0 
L 9.8125 0 
z
" id="BitstreamVeraSans-Roman-45"/>
     <path d="M 19.671875 64.796875 
L 19.671875 8.109375 
L 31.59375 8.109375 
Q 46.6875 8.109375 53.6875 14.9375 
Q 60.6875 21.78125 60.6875 36.53125 
Q 60.6875 51.171875 53.6875 57.984375 
Q 46.6875 64.796875 31.59375 64.796875 
z
M 9.8125 72.90625 
L 30.078125 72.90625 
Q 51.265625 72.90625 61.171875 64.09375 
Q 71.09375 55.28125 71.09375 36.53125 
Q 71.09375 17.671875 61.125 8.828125 
Q 51.171875 0 30.078125 0 
L 9.8125 0 
z
" id="BitstreamVeraSans-Roman-44"/>
    </defs>
    <g transform="translate(467.91854999999987 382.12119923904515)scale(0.17 -0.17)">
     <use xlink:href="#BitstreamVeraSans-Roman-44"/>
     <use x="77.001953125" xlink:href="#BitstreamVeraSans-Roman-45"/>
     <use x="140.185546875" xlink:href="#BitstreamVeraSans-Roman-34"/>
     <use x="203.80859375" xlink:href="#BitstreamVeraSans-Roman-2d"/>
     <use x="239.892578125" xlink:href="#BitstreamVeraSans-Roman-44"/>
    </g>
   </g>
   <g id="text_14">
    <!-- DE4-T-fe -->
    <defs>
     <path d="M -0.296875 72.90625 
L 61.375 72.90625 
L 61.375 64.59375 
L 35.5 64.59375 
L 35.5 0 
L 25.59375 0 
L 25.59375 64.59375 
L -0.296875 64.59375 
z
" id="BitstreamVeraSans-Roman-54"/>
    </defs>
    <g transform="translate(467.91854999999987 292.48434010758746)scale(0.17 -0.17)">
     <use xlink:href="#BitstreamVeraSans-Roman-44"/>
     <use x="77.001953125" xlink:href="#BitstreamVeraSans-Roman-45"/>
     <use x="140.185546875" xlink:href="#BitstreamVeraSans-Roman-34"/>
     <use x="203.80859375" xlink:href="#BitstreamVeraSans-Roman-2d"/>
     <use x="239.751953125" xlink:href="#BitstreamVeraSans-Roman-54"/>
     <use x="300.6953125" xlink:href="#BitstreamVeraSans-Roman-2d"/>
     <use x="336.779296875" xlink:href="#BitstreamVeraSans-Roman-66"/>
     <use x="371.984375" xlink:href="#BitstreamVeraSans-Roman-65"/>
    </g>
   </g>
   <g id="text_15">
    <!-- DE4-E-fe -->
    <g transform="translate(467.91854999999987 202.84748097612976)scale(0.17 -0.17)">
     <use xlink:href="#BitstreamVeraSans-Roman-44"/>
     <use x="77.001953125" xlink:href="#BitstreamVeraSans-Roman-45"/>
     <use x="140.185546875" xlink:href="#BitstreamVeraSans-Roman-34"/>
     <use x="203.80859375" xlink:href="#BitstreamVeraSans-Roman-2d"/>
     <use x="239.892578125" xlink:href="#BitstreamVeraSans-Roman-45"/>
     <use x="303.076171875" xlink:href="#BitstreamVeraSans-Roman-2d"/>
     <use x="339.16015625" xlink:href="#BitstreamVeraSans-Roman-66"/>
     <use x="374.365234375" xlink:href="#BitstreamVeraSans-Roman-65"/>
    </g>
   </g>
   <g id="text_16">
    <!-- DE4-B -->
    <defs>
     <path d="M 19.671875 34.8125 
L 19.671875 8.109375 
L 35.5 8.109375 
Q 43.453125 8.109375 47.28125 11.40625 
Q 51.125 14.703125 51.125 21.484375 
Q 51.125 28.328125 47.28125 31.5625 
Q 43.453125 34.8125 35.5 34.8125 
z
M 19.671875 64.796875 
L 19.671875 42.828125 
L 34.28125 42.828125 
Q 41.5 42.828125 45.03125 45.53125 
Q 48.578125 48.25 48.578125 53.8125 
Q 48.578125 59.328125 45.03125 62.0625 
Q 41.5 64.796875 34.28125 64.796875 
z
M 9.8125 72.90625 
L 35.015625 72.90625 
Q 46.296875 72.90625 52.390625 68.21875 
Q 58.5 63.53125 58.5 54.890625 
Q 58.5 48.1875 55.375 44.234375 
Q 52.25 40.28125 46.1875 39.3125 
Q 53.46875 37.75 57.5 32.78125 
Q 61.53125 27.828125 61.53125 20.40625 
Q 61.53125 10.640625 54.890625 5.3125 
Q 48.25 0 35.984375 0 
L 9.8125 0 
z
" id="BitstreamVeraSans-Roman-42"/>
    </defs>
    <g transform="translate(467.91854999999987 113.21062184467212)scale(0.17 -0.17)">
     <use xlink:href="#BitstreamVeraSans-Roman-44"/>
     <use x="77.001953125" xlink:href="#BitstreamVeraSans-Roman-45"/>
     <use x="140.185546875" xlink:href="#BitstreamVeraSans-Roman-34"/>
     <use x="203.80859375" xlink:href="#BitstreamVeraSans-Roman-2d"/>
     <use x="239.845703125" xlink:href="#BitstreamVeraSans-Roman-42"/>
    </g>
   </g>
   <g id="text_17">
    <!-- best 2009 -->
    <defs>
     <path d="M 48.6875 27.296875 
Q 48.6875 37.203125 44.609375 42.84375 
Q 40.53125 48.484375 33.40625 48.484375 
Q 26.265625 48.484375 22.1875 42.84375 
Q 18.109375 37.203125 18.109375 27.296875 
Q 18.109375 17.390625 22.1875 11.75 
Q 26.265625 6.109375 33.40625 6.109375 
Q 40.53125 6.109375 44.609375 11.75 
Q 48.6875 17.390625 48.6875 27.296875 
M 18.109375 46.390625 
Q 20.953125 51.265625 25.265625 53.625 
Q 29.59375 56 35.59375 56 
Q 45.5625 56 51.78125 48.09375 
Q 58.015625 40.1875 58.015625 27.296875 
Q 58.015625 14.40625 51.78125 6.484375 
Q 45.5625 -1.421875 35.59375 -1.421875 
Q 29.59375 -1.421875 25.265625 0.953125 
Q 20.953125 3.328125 18.109375 8.203125 
L 18.109375 0 
L 9.078125 0 
L 9.078125 75.984375 
L 18.109375 75.984375 
z
" id="BitstreamVeraSans-Roman-62"/>
     <path d="M 10.984375 1.515625 
L 10.984375 10.5 
Q 14.703125 8.734375 18.5 7.8125 
Q 22.3125 6.890625 25.984375 6.890625 
Q 35.75 6.890625 40.890625 13.453125 
Q 46.046875 20.015625 46.78125 33.40625 
Q 43.953125 29.203125 39.59375 26.953125 
Q 35.25 24.703125 29.984375 24.703125 
Q 19.046875 24.703125 12.671875 31.3125 
Q 6.296875 37.9375 6.296875 49.421875 
Q 6.296875 60.640625 12.9375 67.421875 
Q 19.578125 74.21875 30.609375 74.21875 
Q 43.265625 74.21875 49.921875 64.515625 
Q 56.59375 54.828125 56.59375 36.375 
Q 56.59375 19.140625 48.40625 8.859375 
Q 40.234375 -1.421875 26.421875 -1.421875 
Q 22.703125 -1.421875 18.890625 -0.6875 
Q 15.09375 0.046875 10.984375 1.515625 
M 30.609375 32.421875 
Q 37.25 32.421875 41.125 36.953125 
Q 45.015625 41.5 45.015625 49.421875 
Q 45.015625 57.28125 41.125 61.84375 
Q 37.25 66.40625 30.609375 66.40625 
Q 23.96875 66.40625 20.09375 61.84375 
Q 16.21875 57.28125 16.21875 49.421875 
Q 16.21875 41.5 20.09375 36.953125 
Q 23.96875 32.421875 30.609375 32.421875 
" id="BitstreamVeraSans-Roman-39"/>
    </defs>
    <g transform="translate(467.91854999999987 23.57376271321442)scale(0.17 -0.17)">
     <use xlink:href="#BitstreamVeraSans-Roman-62"/>
     <use x="63.4765625" xlink:href="#BitstreamVeraSans-Roman-65"/>
     <use x="125.0" xlink:href="#BitstreamVeraSans-Roman-73"/>
     <use x="177.099609375" xlink:href="#BitstreamVeraSans-Roman-74"/>
     <use x="216.30859375" xlink:href="#BitstreamVeraSans-Roman-20"/>
     <use x="248.095703125" xlink:href="#BitstreamVeraSans-Roman-32"/>
     <use x="311.71875" xlink:href="#BitstreamVeraSans-Roman-30"/>
     <use x="375.341796875" xlink:href="#BitstreamVeraSans-Roman-30"/>
     <use x="438.96484375" xlink:href="#BitstreamVeraSans-Roman-39"/>
    </g>
   </g>
   <g id="text_18">
    <!-- bbob f1-f5, 20-D -->
    <defs>
     <path d="M 10.796875 72.90625 
L 49.515625 72.90625 
L 49.515625 64.59375 
L 19.828125 64.59375 
L 19.828125 46.734375 
Q 21.96875 47.46875 24.109375 47.828125 
Q 26.265625 48.1875 28.421875 48.1875 
Q 40.625 48.1875 47.75 41.5 
Q 54.890625 34.8125 54.890625 23.390625 
Q 54.890625 11.625 47.5625 5.09375 
Q 40.234375 -1.421875 26.90625 -1.421875 
Q 22.3125 -1.421875 17.546875 -0.640625 
Q 12.796875 0.140625 7.71875 1.703125 
L 7.71875 11.625 
Q 12.109375 9.234375 16.796875 8.0625 
Q 21.484375 6.890625 26.703125 6.890625 
Q 35.15625 6.890625 40.078125 11.328125 
Q 45.015625 15.765625 45.015625 23.390625 
Q 45.015625 31 40.078125 35.4375 
Q 35.15625 39.890625 26.703125 39.890625 
Q 22.75 39.890625 18.8125 39.015625 
Q 14.890625 38.140625 10.796875 36.28125 
z
" id="BitstreamVeraSans-Roman-35"/>
    </defs>
    <g transform="translate(58.18335000000001 19.20084189356436)scale(0.102 -0.102)">
     <use xlink:href="#BitstreamVeraSans-Roman-62"/>
     <use x="63.4765625" xlink:href="#BitstreamVeraSans-Roman-62"/>
     <use x="126.953125" xlink:href="#BitstreamVeraSans-Roman-6f"/>
     <use x="188.134765625" xlink:href="#BitstreamVeraSans-Roman-62"/>
     <use x="251.611328125" xlink:href="#BitstreamVeraSans-Roman-20"/>
     <use x="283.3984375" xlink:href="#BitstreamVeraSans-Roman-66"/>
     <use x="318.603515625" xlink:href="#BitstreamVeraSans-Roman-31"/>
     <use x="382.2265625" xlink:href="#BitstreamVeraSans-Roman-2d"/>
     <use x="418.310546875" xlink:href="#BitstreamVeraSans-Roman-66"/>
     <use x="453.515625" xlink:href="#BitstreamVeraSans-Roman-35"/>
     <use x="517.138671875" xlink:href="#BitstreamVeraSans-Roman-2c"/>
     <use x="548.92578125" xlink:href="#BitstreamVeraSans-Roman-20"/>
     <use x="580.712890625" xlink:href="#BitstreamVeraSans-Roman-32"/>
     <use x="644.3359375" xlink:href="#BitstreamVeraSans-Roman-30"/>
     <use x="707.958984375" xlink:href="#BitstreamVeraSans-Roman-2d"/>
     <use x="744.04296875" xlink:href="#BitstreamVeraSans-Roman-44"/>
    </g>
    <!-- 51 targets: 100..1e-08 -->
    <defs>
     <path d="M 11.71875 12.40625 
L 22.015625 12.40625 
L 22.015625 0 
L 11.71875 0 
z
M 11.71875 51.703125 
L 22.015625 51.703125 
L 22.015625 39.3125 
L 11.71875 39.3125 
z
" id="BitstreamVeraSans-Roman-3a"/>
    </defs>
    <g transform="translate(58.18335000000001 30.622610643564315)scale(0.102 -0.102)">
     <use xlink:href="#BitstreamVeraSans-Roman-35"/>
     <use x="63.623046875" xlink:href="#BitstreamVeraSans-Roman-31"/>
     <use x="127.24609375" xlink:href="#BitstreamVeraSans-Roman-20"/>
     <use x="159.033203125" xlink:href="#BitstreamVeraSans-Roman-74"/>
     <use x="198.2421875" xlink:href="#BitstreamVeraSans-Roman-61"/>
     <use x="259.521484375" xlink:href="#BitstreamVeraSans-Roman-72"/>
     <use x="300.619140625" xlink:href="#BitstreamVeraSans-Roman-67"/>
     <use x="364.095703125" xlink:href="#BitstreamVeraSans-Roman-65"/>
     <use x="425.619140625" xlink:href="#BitstreamVeraSans-Roman-74"/>
     <use x="464.828125" xlink:href="#BitstreamVeraSans-Roman-73"/>
     <use x="516.927734375" xlink:href="#BitstreamVeraSans-Roman-3a"/>
     <use x="550.619140625" xlink:href="#BitstreamVeraSans-Roman-20"/>
     <use x="582.40625" xlink:href="#BitstreamVeraSans-Roman-31"/>
     <use x="646.029296875" xlink:href="#BitstreamVeraSans-Roman-30"/>
     <use x="709.65234375" xlink:href="#BitstreamVeraSans-Roman-30"/>
     <use x="773.275390625" xlink:href="#BitstreamVeraSans-Roman-2e"/>
     <use x="805.0625" xlink:href="#BitstreamVeraSans-Roman-2e"/>
     <use x="836.849609375" xlink:href="#BitstreamVeraSans-Roman-31"/>
     <use x="900.47265625" xlink:href="#BitstreamVeraSans-Roman-65"/>
     <use x="961.99609375" xlink:href="#BitstreamVeraSans-Roman-2d"/>
     <use x="998.080078125" xlink:href="#BitstreamVeraSans-Roman-30"/>
     <use x="1061.703125" xlink:href="#BitstreamVeraSans-Roman-38"/>
    </g>
    <!-- 15 instances -->
    <g transform="translate(58.18335000000001 42.04437939356433)scale(0.102 -0.102)">
     <use xlink:href="#BitstreamVeraSans-Roman-31"/>
     <use x="63.623046875" xlink:href="#BitstreamVeraSans-Roman-35"/>
     <use x="127.24609375" xlink:href="#BitstreamVeraSans-Roman-20"/>
     <use x="159.033203125" xlink:href="#BitstreamVeraSans-Roman-69"/>
     <use x="186.81640625" xlink:href="#BitstreamVeraSans-Roman-6e"/>
     <use x="250.1953125" xlink:href="#BitstreamVeraSans-Roman-73"/>
     <use x="302.294921875" xlink:href="#BitstreamVeraSans-Roman-74"/>
     <use x="341.50390625" xlink:href="#BitstreamVeraSans-Roman-61"/>
     <use x="402.783203125" xlink:href="#BitstreamVeraSans-Roman-6e"/>
     <use x="466.162109375" xlink:href="#BitstreamVeraSans-Roman-63"/>
     <use x="521.142578125" xlink:href="#BitstreamVeraSans-Roman-65"/>
     <use x="582.666015625" xlink:href="#BitstreamVeraSans-Roman-73"/>
    </g>
   </g>
   <g id="text_19">
    <!-- v2.3.3 -->
    <defs>
     <path d="M 40.578125 39.3125 
Q 47.65625 37.796875 51.625 33 
Q 55.609375 28.21875 55.609375 21.1875 
Q 55.609375 10.40625 48.1875 4.484375 
Q 40.765625 -1.421875 27.09375 -1.421875 
Q 22.515625 -1.421875 17.65625 -0.515625 
Q 12.796875 0.390625 7.625 2.203125 
L 7.625 11.71875 
Q 11.71875 9.328125 16.59375 8.109375 
Q 21.484375 6.890625 26.8125 6.890625 
Q 36.078125 6.890625 40.9375 10.546875 
Q 45.796875 14.203125 45.796875 21.1875 
Q 45.796875 27.640625 41.28125 31.265625 
Q 36.765625 34.90625 28.71875 34.90625 
L 20.21875 34.90625 
L 20.21875 43.015625 
L 29.109375 43.015625 
Q 36.375 43.015625 40.234375 45.921875 
Q 44.09375 48.828125 44.09375 54.296875 
Q 44.09375 59.90625 40.109375 62.90625 
Q 36.140625 65.921875 28.71875 65.921875 
Q 24.65625 65.921875 20.015625 65.03125 
Q 15.375 64.15625 9.8125 62.3125 
L 9.8125 71.09375 
Q 15.4375 72.65625 20.34375 73.4375 
Q 25.25 74.21875 29.59375 74.21875 
Q 40.828125 74.21875 47.359375 69.109375 
Q 53.90625 64.015625 53.90625 55.328125 
Q 53.90625 49.265625 50.4375 45.09375 
Q 46.96875 40.921875 40.578125 39.3125 
" id="BitstreamVeraSans-Roman-33"/>
    </defs>
    <g style="fill:#808080;" transform="translate(221.76124999999996 379.0480946782178)scale(0.1 -0.1)">
     <use xlink:href="#BitstreamVeraSans-Roman-76"/>
     <use x="59.1796875" xlink:href="#BitstreamVeraSans-Roman-32"/>
     <use x="122.802734375" xlink:href="#BitstreamVeraSans-Roman-2e"/>
     <use x="154.58984375" xlink:href="#BitstreamVeraSans-Roman-33"/>
     <use x="218.212890625" xlink:href="#BitstreamVeraSans-Roman-2e"/>
     <use x="250.0" xlink:href="#BitstreamVeraSans-Roman-33"/>
    </g>
   </g>
  </g>
 </g>
 <defs>
  <clipPath id="pccb1a2a494">
   <rect height="377.22178217821784" width="365.8349999999999" x="54.52500000000001" y="7.678217821782141"/>
  </clipPath>
 </defs>
</svg>
